ISO-10303-21;
HEADER;
/* Generated by software containing ST-Developer
 * from STEP Tools, Inc. (www.steptools.com) 
 */

FILE_DESCRIPTION(
/* description */ (''),
/* implementation_level */ '2;1');

FILE_NAME(
/* name */ 'CP_Polymer_SH477M063G1700.step',
/* time_stamp */ '2026-03-31T22:05:38+02:00',
/* author */ (''),
/* organization */ (''),
/* preprocessor_version */ 'ST-DEVELOPER v20.1',
/* originating_system */ 'Autodesk Translation Framework v14.24.0.0',
/* authorisation */ '');

FILE_SCHEMA (('AUTOMOTIVE_DESIGN { 1 0 10303 214 3 1 1 }'));
ENDSEC;

DATA;
#10=MECHANICAL_DESIGN_GEOMETRIC_PRESENTATION_REPRESENTATION('',(#16,#17,
#18),#561);
#11=SHAPE_REPRESENTATION_RELATIONSHIP('SRR','None',#568,#12);
#12=ADVANCED_BREP_SHAPE_REPRESENTATION('',(#13),#560);
#13=MANIFOLD_SOLID_BREP('Body1',#215);
#14=FACE_BOUND('',#71,.T.);
#15=FACE_BOUND('',#72,.T.);
#16=STYLED_ITEM('',(#579),#206);
#17=STYLED_ITEM('',(#579),#213);
#18=STYLED_ITEM('',(#578),#13);
#19=TOROIDAL_SURFACE('',#238,4.5,0.5);
#20=TOROIDAL_SURFACE('',#244,4.5,0.5);
#21=TOROIDAL_SURFACE('',#250,4.6,0.4);
#22=PLANE('',#233);
#23=PLANE('',#237);
#24=PLANE('',#247);
#25=PLANE('',#256);
#26=PLANE('',#257);
#27=LINE('',#437,#32);
#28=LINE('',#444,#33);
#29=LINE('',#462,#34);
#30=LINE('',#465,#35);
#31=LINE('',#554,#36);
#32=VECTOR('',#266,0.3);
#33=VECTOR('',#275,0.3);
#34=VECTOR('',#300,10.);
#35=VECTOR('',#303,5.);
#36=VECTOR('',#316,5.);
#37=CYLINDRICAL_SURFACE('',#230,0.3);
#38=CYLINDRICAL_SURFACE('',#234,0.3);
#39=CYLINDRICAL_SURFACE('',#248,5.);
#40=CYLINDRICAL_SURFACE('',#254,5.);
#41=FACE_OUTER_BOUND('',#56,.T.);
#42=FACE_OUTER_BOUND('',#57,.T.);
#43=FACE_OUTER_BOUND('',#58,.T.);
#44=FACE_OUTER_BOUND('',#59,.T.);
#45=FACE_OUTER_BOUND('',#60,.T.);
#46=FACE_OUTER_BOUND('',#61,.T.);
#47=FACE_OUTER_BOUND('',#62,.T.);
#48=FACE_OUTER_BOUND('',#63,.T.);
#49=FACE_OUTER_BOUND('',#64,.T.);
#50=FACE_OUTER_BOUND('',#65,.T.);
#51=FACE_OUTER_BOUND('',#66,.T.);
#52=FACE_OUTER_BOUND('',#67,.T.);
#53=FACE_OUTER_BOUND('',#68,.T.);
#54=FACE_OUTER_BOUND('',#69,.T.);
#55=FACE_OUTER_BOUND('',#70,.T.);
#56=EDGE_LOOP('',(#141,#142,#143,#144));
#57=EDGE_LOOP('',(#145,#146,#147,#148));
#58=EDGE_LOOP('',(#149));
#59=EDGE_LOOP('',(#150,#151,#152,#153));
#60=EDGE_LOOP('',(#154));
#61=EDGE_LOOP('',(#155,#156,#157,#158,#159));
#62=EDGE_LOOP('',(#160,#161,#162,#163));
#63=EDGE_LOOP('',(#164,#165));
#64=EDGE_LOOP('',(#166,#167,#168,#169,#170,#171,#172));
#65=EDGE_LOOP('',(#173,#174,#175,#176,#177,#178));
#66=EDGE_LOOP('',(#179,#180,#181));
#67=EDGE_LOOP('',(#182,#183,#184,#185,#186));
#68=EDGE_LOOP('',(#187,#188,#189,#190,#191));
#69=EDGE_LOOP('',(#192,#193));
#70=EDGE_LOOP('',(#194));
#71=EDGE_LOOP('',(#195));
#72=EDGE_LOOP('',(#196));
#73=CIRCLE('',#229,0.399999999999999);
#74=CIRCLE('',#231,0.3);
#75=CIRCLE('',#232,0.3);
#76=CIRCLE('',#235,0.3);
#77=CIRCLE('',#236,0.3);
#78=CIRCLE('',#239,0.5);
#79=CIRCLE('',#240,5.);
#80=CIRCLE('',#241,5.);
#81=CIRCLE('',#242,0.499999999999999);
#82=CIRCLE('',#243,4.5);
#83=CIRCLE('',#245,4.5);
#84=CIRCLE('',#246,5.);
#85=CIRCLE('',#249,0.399999999999999);
#86=CIRCLE('',#251,0.4);
#87=CIRCLE('',#252,5.);
#88=CIRCLE('',#253,5.);
#89=CIRCLE('',#255,5.);
#90=B_SPLINE_CURVE_WITH_KNOTS('',3,(#386,#387,#388,#389,#390),
 .UNSPECIFIED.,.F.,.F.,(4,1,4),(-1.,-0.592173110116237,-0.184346220232473),
 .UNSPECIFIED.);
#91=B_SPLINE_CURVE_WITH_KNOTS('',3,(#391,#392,#393,#394,#395,#396,#397,
#398,#399,#400,#401,#402),.UNSPECIFIED.,.F.,.F.,(4,1,1,1,1,1,1,1,1,4),(0.,
0.231284016053385,0.46256803210677,0.92513606421354,1.38770409632031,1.85027212842708,
2.31284016053385,2.77540819264062,3.00669220869401,3.23797622474739),
 .UNSPECIFIED.);
#92=B_SPLINE_CURVE_WITH_KNOTS('',3,(#405,#406,#407,#408,#409,#410,#411,
#412,#413,#414,#415,#416,#417,#418,#419,#420,#421,#422,#423,#424,#425,#426,
#427,#428,#429,#430,#431,#432),.UNSPECIFIED.,.F.,.F.,(4,3,3,3,3,3,3,3,3,
4),(-6.28318527048629,-5.83444417482211,-5.38570307915794,-4.48822088782958,
-3.59073869650123,-2.69325650517287,-1.79577431384451,-0.89829212251616,
-0.449551026851983,-0.00080993118780448),.UNSPECIFIED.);
#93=B_SPLINE_CURVE_WITH_KNOTS('',3,(#467,#468,#469,#470,#471,#472,#473),
 .UNSPECIFIED.,.F.,.F.,(4,1,1,1,4),(0.000809931187804621,0.89840783221346,
1.79600573323911,2.69360363426477,3.14158421304628),.UNSPECIFIED.);
#94=B_SPLINE_CURVE_WITH_KNOTS('',3,(#474,#475,#476,#477,#478,#479,#480),
 .UNSPECIFIED.,.F.,.F.,(4,1,1,1,4),(3.14158421304628,3.59120153529043,4.48879943631608,
5.38639733734174,6.28399523836739),.UNSPECIFIED.);
#95=B_SPLINE_CURVE_WITH_KNOTS('',3,(#522,#523,#524,#525),.UNSPECIFIED.,
 .F.,.F.,(4,4),(-6.28399523836739,-6.28318527048629),.UNSPECIFIED.);
#96=VERTEX_POINT('',#384);
#97=VERTEX_POINT('',#385);
#98=VERTEX_POINT('',#403);
#99=VERTEX_POINT('',#434);
#100=VERTEX_POINT('',#436);
#101=VERTEX_POINT('',#441);
#102=VERTEX_POINT('',#443);
#103=VERTEX_POINT('',#448);
#104=VERTEX_POINT('',#449);
#105=VERTEX_POINT('',#451);
#106=VERTEX_POINT('',#453);
#107=VERTEX_POINT('',#455);
#108=VERTEX_POINT('',#464);
#109=VERTEX_POINT('',#466);
#110=VERTEX_POINT('',#547);
#111=VERTEX_POINT('',#549);
#112=VERTEX_POINT('',#553);
#113=EDGE_CURVE('',#96,#97,#90,.T.);
#114=EDGE_CURVE('',#96,#96,#91,.T.);
#115=EDGE_CURVE('',#96,#98,#73,.T.);
#116=EDGE_CURVE('',#97,#98,#92,.T.);
#117=EDGE_CURVE('',#99,#99,#74,.T.);
#118=EDGE_CURVE('',#99,#100,#27,.T.);
#119=EDGE_CURVE('',#100,#100,#75,.T.);
#120=EDGE_CURVE('',#101,#101,#76,.T.);
#121=EDGE_CURVE('',#101,#102,#28,.T.);
#122=EDGE_CURVE('',#102,#102,#77,.T.);
#123=EDGE_CURVE('',#103,#104,#78,.T.);
#124=EDGE_CURVE('',#104,#105,#79,.T.);
#125=EDGE_CURVE('',#105,#106,#80,.T.);
#126=EDGE_CURVE('',#106,#107,#81,.T.);
#127=EDGE_CURVE('',#107,#103,#82,.T.);
#128=EDGE_CURVE('',#103,#107,#83,.T.);
#129=EDGE_CURVE('',#106,#104,#84,.T.);
#130=EDGE_CURVE('',#103,#107,#29,.T.);
#131=EDGE_CURVE('',#105,#108,#30,.T.);
#132=EDGE_CURVE('',#109,#108,#93,.T.);
#133=EDGE_CURVE('',#108,#109,#94,.T.);
#134=EDGE_CURVE('',#109,#98,#85,.T.);
#135=EDGE_CURVE('',#98,#97,#95,.T.);
#136=EDGE_CURVE('',#110,#96,#86,.T.);
#137=EDGE_CURVE('',#110,#111,#87,.T.);
#138=EDGE_CURVE('',#111,#110,#88,.T.);
#139=EDGE_CURVE('',#111,#112,#31,.T.);
#140=EDGE_CURVE('',#112,#112,#89,.T.);
#141=ORIENTED_EDGE('',*,*,#113,.F.);
#142=ORIENTED_EDGE('',*,*,#114,.T.);
#143=ORIENTED_EDGE('',*,*,#115,.T.);
#144=ORIENTED_EDGE('',*,*,#116,.F.);
#145=ORIENTED_EDGE('',*,*,#117,.F.);
#146=ORIENTED_EDGE('',*,*,#118,.T.);
#147=ORIENTED_EDGE('',*,*,#119,.F.);
#148=ORIENTED_EDGE('',*,*,#118,.F.);
#149=ORIENTED_EDGE('',*,*,#117,.T.);
#150=ORIENTED_EDGE('',*,*,#120,.F.);
#151=ORIENTED_EDGE('',*,*,#121,.T.);
#152=ORIENTED_EDGE('',*,*,#122,.F.);
#153=ORIENTED_EDGE('',*,*,#121,.F.);
#154=ORIENTED_EDGE('',*,*,#120,.T.);
#155=ORIENTED_EDGE('',*,*,#123,.T.);
#156=ORIENTED_EDGE('',*,*,#124,.T.);
#157=ORIENTED_EDGE('',*,*,#125,.T.);
#158=ORIENTED_EDGE('',*,*,#126,.T.);
#159=ORIENTED_EDGE('',*,*,#127,.T.);
#160=ORIENTED_EDGE('',*,*,#123,.F.);
#161=ORIENTED_EDGE('',*,*,#128,.T.);
#162=ORIENTED_EDGE('',*,*,#126,.F.);
#163=ORIENTED_EDGE('',*,*,#129,.T.);
#164=ORIENTED_EDGE('',*,*,#127,.F.);
#165=ORIENTED_EDGE('',*,*,#130,.F.);
#166=ORIENTED_EDGE('',*,*,#124,.F.);
#167=ORIENTED_EDGE('',*,*,#129,.F.);
#168=ORIENTED_EDGE('',*,*,#125,.F.);
#169=ORIENTED_EDGE('',*,*,#131,.T.);
#170=ORIENTED_EDGE('',*,*,#132,.F.);
#171=ORIENTED_EDGE('',*,*,#133,.F.);
#172=ORIENTED_EDGE('',*,*,#131,.F.);
#173=ORIENTED_EDGE('',*,*,#134,.T.);
#174=ORIENTED_EDGE('',*,*,#135,.T.);
#175=ORIENTED_EDGE('',*,*,#116,.T.);
#176=ORIENTED_EDGE('',*,*,#134,.F.);
#177=ORIENTED_EDGE('',*,*,#132,.T.);
#178=ORIENTED_EDGE('',*,*,#133,.T.);
#179=ORIENTED_EDGE('',*,*,#113,.T.);
#180=ORIENTED_EDGE('',*,*,#135,.F.);
#181=ORIENTED_EDGE('',*,*,#115,.F.);
#182=ORIENTED_EDGE('',*,*,#114,.F.);
#183=ORIENTED_EDGE('',*,*,#136,.F.);
#184=ORIENTED_EDGE('',*,*,#137,.T.);
#185=ORIENTED_EDGE('',*,*,#138,.T.);
#186=ORIENTED_EDGE('',*,*,#136,.T.);
#187=ORIENTED_EDGE('',*,*,#138,.F.);
#188=ORIENTED_EDGE('',*,*,#139,.T.);
#189=ORIENTED_EDGE('',*,*,#140,.T.);
#190=ORIENTED_EDGE('',*,*,#139,.F.);
#191=ORIENTED_EDGE('',*,*,#137,.F.);
#192=ORIENTED_EDGE('',*,*,#128,.F.);
#193=ORIENTED_EDGE('',*,*,#130,.T.);
#194=ORIENTED_EDGE('',*,*,#140,.F.);
#195=ORIENTED_EDGE('',*,*,#119,.T.);
#196=ORIENTED_EDGE('',*,*,#122,.T.);
#197=B_SPLINE_SURFACE_WITH_KNOTS('',3,3,((#324,#325,#326,#327,#328,#329,
#330,#331,#332,#333,#334,#335),(#336,#337,#338,#339,#340,#341,#342,#343,
#344,#345,#346,#347),(#348,#349,#350,#351,#352,#353,#354,#355,#356,#357,
#358,#359),(#360,#361,#362,#363,#364,#365,#366,#367,#368,#369,#370,#371),
(#372,#373,#374,#375,#376,#377,#378,#379,#380,#381,#382,#383)),
 .UNSPECIFIED.,.F.,.F.,.F.,(4,1,4),(4,1,1,1,1,1,1,1,1,4),(0.184346220232473,
0.592173110116237,1.),(0.,0.231284016053385,0.46256803210677,0.92513606421354,
1.38770409632031,1.85027212842708,2.31284016053385,2.77540819264062,3.00669220869401,
3.23797622474739),.UNSPECIFIED.);
#198=B_SPLINE_SURFACE_WITH_KNOTS('',3,3,((#481,#482,#483,#484,#485,#486,
#487,#488,#489,#490),(#491,#492,#493,#494,#495,#496,#497,#498,#499,#500),
(#501,#502,#503,#504,#505,#506,#507,#508,#509,#510),(#511,#512,#513,#514,
#515,#516,#517,#518,#519,#520)),.UNSPECIFIED.,.F.,.T.,.F.,(4,4),(4,1,1,
1,1,1,1,4),(0.,1.),(-6.28399523836739,-5.38639733734174,-4.48879943631608,
-3.59120153529043,-2.69360363426477,-1.79600573323911,-0.89840783221346,
-0.000809931187804621),.UNSPECIFIED.);
#199=B_SPLINE_SURFACE_WITH_KNOTS('',3,3,((#526,#527,#528,#529),(#530,#531,
#532,#533),(#534,#535,#536,#537),(#538,#539,#540,#541),(#542,#543,#544,
#545)),.UNSPECIFIED.,.F.,.F.,.F.,(4,1,4),(4,4),(0.18434622023264,0.59217311011632,
1.),(-0.00041995708742351,2.72439690389763E-16),.UNSPECIFIED.);
#200=ADVANCED_FACE('',(#41),#197,.T.);
#201=ADVANCED_FACE('',(#42),#37,.T.);
#202=ADVANCED_FACE('',(#43),#22,.F.);
#203=ADVANCED_FACE('',(#44),#38,.T.);
#204=ADVANCED_FACE('',(#45),#23,.F.);
#205=ADVANCED_FACE('',(#46),#19,.T.);
#206=ADVANCED_FACE('',(#47),#20,.T.);
#207=ADVANCED_FACE('',(#48),#24,.T.);
#208=ADVANCED_FACE('',(#49),#39,.T.);
#209=ADVANCED_FACE('',(#50),#198,.F.);
#210=ADVANCED_FACE('',(#51),#199,.T.);
#211=ADVANCED_FACE('',(#52),#21,.T.);
#212=ADVANCED_FACE('',(#53),#40,.T.);
#213=ADVANCED_FACE('',(#54),#25,.T.);
#214=ADVANCED_FACE('',(#55,#14,#15),#26,.F.);
#215=CLOSED_SHELL('',(#200,#201,#202,#203,#204,#205,#206,#207,#208,#209,
#210,#211,#212,#213,#214));
#216=DERIVED_UNIT_ELEMENT(#218,1.);
#217=DERIVED_UNIT_ELEMENT(#563,-3.);
#218=(
MASS_UNIT()
NAMED_UNIT(*)
SI_UNIT(.KILO.,.GRAM.)
);
#219=DERIVED_UNIT((#216,#217));
#220=MEASURE_REPRESENTATION_ITEM('density measure',
POSITIVE_RATIO_MEASURE(7850.),#219);
#221=PROPERTY_DEFINITION_REPRESENTATION(#226,#223);
#222=PROPERTY_DEFINITION_REPRESENTATION(#227,#224);
#223=REPRESENTATION('material name',(#225),#560);
#224=REPRESENTATION('density',(#220),#560);
#225=DESCRIPTIVE_REPRESENTATION_ITEM('Steel','Steel');
#226=PROPERTY_DEFINITION('material property','material name',#570);
#227=PROPERTY_DEFINITION('material property','density of part',#570);
#228=AXIS2_PLACEMENT_3D('',#323,#258,#259);
#229=AXIS2_PLACEMENT_3D('',#404,#260,#261);
#230=AXIS2_PLACEMENT_3D('',#433,#262,#263);
#231=AXIS2_PLACEMENT_3D('',#435,#264,#265);
#232=AXIS2_PLACEMENT_3D('',#438,#267,#268);
#233=AXIS2_PLACEMENT_3D('',#439,#269,#270);
#234=AXIS2_PLACEMENT_3D('',#440,#271,#272);
#235=AXIS2_PLACEMENT_3D('',#442,#273,#274);
#236=AXIS2_PLACEMENT_3D('',#445,#276,#277);
#237=AXIS2_PLACEMENT_3D('',#446,#278,#279);
#238=AXIS2_PLACEMENT_3D('',#447,#280,#281);
#239=AXIS2_PLACEMENT_3D('',#450,#282,#283);
#240=AXIS2_PLACEMENT_3D('',#452,#284,#285);
#241=AXIS2_PLACEMENT_3D('',#454,#286,#287);
#242=AXIS2_PLACEMENT_3D('',#456,#288,#289);
#243=AXIS2_PLACEMENT_3D('',#457,#290,#291);
#244=AXIS2_PLACEMENT_3D('',#458,#292,#293);
#245=AXIS2_PLACEMENT_3D('',#459,#294,#295);
#246=AXIS2_PLACEMENT_3D('',#460,#296,#297);
#247=AXIS2_PLACEMENT_3D('',#461,#298,#299);
#248=AXIS2_PLACEMENT_3D('',#463,#301,#302);
#249=AXIS2_PLACEMENT_3D('',#521,#304,#305);
#250=AXIS2_PLACEMENT_3D('',#546,#306,#307);
#251=AXIS2_PLACEMENT_3D('',#548,#308,#309);
#252=AXIS2_PLACEMENT_3D('',#550,#310,#311);
#253=AXIS2_PLACEMENT_3D('',#551,#312,#313);
#254=AXIS2_PLACEMENT_3D('',#552,#314,#315);
#255=AXIS2_PLACEMENT_3D('',#555,#317,#318);
#256=AXIS2_PLACEMENT_3D('',#556,#319,#320);
#257=AXIS2_PLACEMENT_3D('',#557,#321,#322);
#258=DIRECTION('axis',(0.,0.,1.));
#259=DIRECTION('refdir',(1.,0.,0.));
#260=DIRECTION('center_axis',(0.0008099310992539,0.999999672005753,1.06461030894812E-16));
#261=DIRECTION('ref_axis',(-0.731512661248701,0.000592475048171785,-0.681827599475235));
#262=DIRECTION('center_axis',(0.,0.,-1.));
#263=DIRECTION('ref_axis',(1.,0.,0.));
#264=DIRECTION('center_axis',(0.,0.,-1.));
#265=DIRECTION('ref_axis',(1.,0.,0.));
#266=DIRECTION('',(0.,0.,1.));
#267=DIRECTION('center_axis',(0.,0.,1.));
#268=DIRECTION('ref_axis',(1.,0.,0.));
#269=DIRECTION('center_axis',(0.,0.,1.));
#270=DIRECTION('ref_axis',(1.,0.,0.));
#271=DIRECTION('center_axis',(0.,0.,-1.));
#272=DIRECTION('ref_axis',(1.,0.,0.));
#273=DIRECTION('center_axis',(0.,0.,-1.));
#274=DIRECTION('ref_axis',(1.,0.,0.));
#275=DIRECTION('',(0.,0.,1.));
#276=DIRECTION('center_axis',(0.,0.,1.));
#277=DIRECTION('ref_axis',(1.,0.,0.));
#278=DIRECTION('center_axis',(0.,0.,1.));
#279=DIRECTION('ref_axis',(1.,0.,0.));
#280=DIRECTION('center_axis',(0.,0.,1.));
#281=DIRECTION('ref_axis',(-1.,-3.21624529935327E-16,0.));
#282=DIRECTION('center_axis',(-0.87488976377909,0.484322104837852,4.85661379878205E-16));
#283=DIRECTION('ref_axis',(5.55111512312578E-16,0.,1.));
#284=DIRECTION('center_axis',(0.,0.,1.));
#285=DIRECTION('ref_axis',(-1.,-1.22464679914735E-16,0.));
#286=DIRECTION('center_axis',(0.,0.,1.));
#287=DIRECTION('ref_axis',(-1.,-1.22464679914735E-16,0.));
#288=DIRECTION('center_axis',(-0.87488976377909,-0.484322104837853,-1.45698413963461E-15));
#289=DIRECTION('ref_axis',(0.484322104837853,-0.87488976377909,0.));
#290=DIRECTION('center_axis',(0.,0.,-1.));
#291=DIRECTION('ref_axis',(-1.,-1.22464679914735E-16,0.));
#292=DIRECTION('center_axis',(0.,0.,1.));
#293=DIRECTION('ref_axis',(1.,0.,0.));
#294=DIRECTION('center_axis',(0.,0.,-1.));
#295=DIRECTION('ref_axis',(1.,0.,0.));
#296=DIRECTION('center_axis',(0.,0.,1.));
#297=DIRECTION('ref_axis',(1.,0.,0.));
#298=DIRECTION('center_axis',(0.,0.,1.));
#299=DIRECTION('ref_axis',(1.,0.,0.));
#300=DIRECTION('',(0.,-1.,0.));
#301=DIRECTION('center_axis',(0.,0.,1.));
#302=DIRECTION('ref_axis',(1.,0.,0.));
#303=DIRECTION('',(0.,0.,-1.));
#304=DIRECTION('center_axis',(0.000809931099249319,0.999999672005754,-3.80207191958317E-14));
#305=DIRECTION('ref_axis',(0.999999672005753,-0.000809931099249319,0.));
#306=DIRECTION('center_axis',(0.,0.,-1.));
#307=DIRECTION('ref_axis',(-1.,0.,0.));
#308=DIRECTION('center_axis',(-1.22464679914735E-16,-1.,0.));
#309=DIRECTION('ref_axis',(1.,-1.22464679914735E-16,0.));
#310=DIRECTION('center_axis',(0.,0.,1.));
#311=DIRECTION('ref_axis',(1.,0.,0.));
#312=DIRECTION('center_axis',(0.,0.,1.));
#313=DIRECTION('ref_axis',(1.,0.,0.));
#314=DIRECTION('center_axis',(0.,0.,1.));
#315=DIRECTION('ref_axis',(1.,0.,0.));
#316=DIRECTION('',(0.,0.,-1.));
#317=DIRECTION('center_axis',(0.,0.,1.));
#318=DIRECTION('ref_axis',(1.,0.,0.));
#319=DIRECTION('center_axis',(0.,0.,1.));
#320=DIRECTION('ref_axis',(1.,0.,0.));
#321=DIRECTION('center_axis',(0.,0.,1.));
#322=DIRECTION('ref_axis',(1.,0.,0.));
#323=CARTESIAN_POINT('',(0.,0.,0.));
#324=CARTESIAN_POINT('Ctrl Pts',(4.89260516047237,-4.87291528328534E-16,
1.41819311937037));
#325=CARTESIAN_POINT('Ctrl Pts',(4.89260516047237,0.727441640381751,1.41819311937037));
#326=CARTESIAN_POINT('Ctrl Pts',(4.55519681234169,2.1908956276769,1.41819311937037));
#327=CARTESIAN_POINT('Ctrl Pts',(2.69609926190562,4.56002042226476,1.41819311937037));
#328=CARTESIAN_POINT('Ctrl Pts',(-1.24474430147254,5.4583489855904,1.41819311937037));
#329=CARTESIAN_POINT('Ctrl Pts',(-5.05033862156365,2.42854045956135,1.41819311937037));
#330=CARTESIAN_POINT('Ctrl Pts',(-5.04336486737434,-2.43203051146822,1.41819311937037));
#331=CARTESIAN_POINT('Ctrl Pts',(-1.23937392909052,-5.46431562513594,1.41819311937037));
#332=CARTESIAN_POINT('Ctrl Pts',(2.69981536269417,-4.55656512610617,1.41819311937037));
#333=CARTESIAN_POINT('Ctrl Pts',(4.55817269003386,-2.18227049530371,1.41819311937037));
#334=CARTESIAN_POINT('Ctrl Pts',(4.89201435214311,-0.731436146075429,1.41819311937037));
#335=CARTESIAN_POINT('Ctrl Pts',(4.89260355572603,-0.00396267307581493,
1.41819311937037));
#336=CARTESIAN_POINT('Ctrl Pts',(4.82439893491634,-5.01943824785416E-16,
1.34501665368689));
#337=CARTESIAN_POINT('Ctrl Pts',(4.82439893491634,0.717209265503872,1.34501665368689));
#338=CARTESIAN_POINT('Ctrl Pts',(4.49169179208711,2.16036556442429,1.34501665368689));
#339=CARTESIAN_POINT('Ctrl Pts',(2.65847258663736,4.49637696119328,1.34501665368689));
#340=CARTESIAN_POINT('Ctrl Pts',(-1.2274006059062,5.38226527272144,1.34501665368689));
#341=CARTESIAN_POINT('Ctrl Pts',(-4.97986717416296,2.39464363662963,1.34501665368689));
#342=CARTESIAN_POINT('Ctrl Pts',(-4.97306068766787,-2.39810730838198,1.34501665368689));
#343=CARTESIAN_POINT('Ctrl Pts',(-1.22208077660522,-5.38808515602493,1.34501665368689));
#344=CARTESIAN_POINT('Ctrl Pts',(2.66217620722348,-4.49301210451017,1.34501665368689));
#345=CARTESIAN_POINT('Ctrl Pts',(4.49459784133021,-2.15185583029131,1.34501665368689));
#346=CARTESIAN_POINT('Ctrl Pts',(4.82381643684234,-0.721148081088775,1.34501665368689));
#347=CARTESIAN_POINT('Ctrl Pts',(4.82439735254124,-0.00390743073257466,
1.34501665368689));
#348=CARTESIAN_POINT('Ctrl Pts',(4.74592009732126,-3.53479735834249E-16,
1.14546207958025));
#349=CARTESIAN_POINT('Ctrl Pts',(4.74592009732126,0.705722788890232,1.14546207958025));
#350=CARTESIAN_POINT('Ctrl Pts',(4.41863005350291,2.12519804930144,1.14546207958025));
#351=CARTESIAN_POINT('Ctrl Pts',(2.61530845413913,4.42337962787415,1.14546207958025));
#352=CARTESIAN_POINT('Ctrl Pts',(-1.20741685096844,5.29469308874319,1.14546207958025));
#353=CARTESIAN_POINT('Ctrl Pts',(-4.8989902932447,2.35577142252922,1.14546207958026));
#354=CARTESIAN_POINT('Ctrl Pts',(-4.89215617569221,-2.3591347583,1.14546207958025));
#355=CARTESIAN_POINT('Ctrl Pts',(-1.2022316008512,-5.30054387028042,1.14546207958026));
#356=CARTESIAN_POINT('Ctrl Pts',(2.61887415780077,-4.41998601995658,1.14546207958025));
#357=CARTESIAN_POINT('Ctrl Pts',(4.42154480917606,-2.11683630687191,1.14546207958026));
#358=CARTESIAN_POINT('Ctrl Pts',(4.74534692865266,-0.709597539379301,1.14546207958025));
#359=CARTESIAN_POINT('Ctrl Pts',(4.74591854068677,-0.00384386828137341,
1.14546207958025));
#360=CARTESIAN_POINT('Ctrl Pts',(4.82439893491628,7.00374055149985E-17,
0.945907505473597));
#361=CARTESIAN_POINT('Ctrl Pts',(4.82439893491628,0.717209265503863,0.945907505473598));
#362=CARTESIAN_POINT('Ctrl Pts',(4.49169179208706,2.16036556442426,0.945907505473597));
#363=CARTESIAN_POINT('Ctrl Pts',(2.65847258663732,4.49637696119323,0.945907505473598));
#364=CARTESIAN_POINT('Ctrl Pts',(-1.22740060590618,5.38226527272136,0.945907505473596));
#365=CARTESIAN_POINT('Ctrl Pts',(-4.9798671741629,2.3946436366296,0.945907505473599));
#366=CARTESIAN_POINT('Ctrl Pts',(-4.97306068766781,-2.39810730838195,0.945907505473596));
#367=CARTESIAN_POINT('Ctrl Pts',(-1.2220807766052,-5.38808515602486,0.945907505473598));
#368=CARTESIAN_POINT('Ctrl Pts',(2.66217620722345,-4.49301210451011,0.945907505473597));
#369=CARTESIAN_POINT('Ctrl Pts',(4.49459784133015,-2.15185583029128,0.945907505473598));
#370=CARTESIAN_POINT('Ctrl Pts',(4.82381643684228,-0.721148081088765,0.945907505473597));
#371=CARTESIAN_POINT('Ctrl Pts',(4.82439735254118,-0.00390743073257451,
0.945907505473597));
#372=CARTESIAN_POINT('Ctrl Pts',(4.89260516047229,2.94434655491776E-16,
0.872731039790093));
#373=CARTESIAN_POINT('Ctrl Pts',(4.89260516047229,0.72744164038174,0.872731039790093));
#374=CARTESIAN_POINT('Ctrl Pts',(4.55519681234161,2.19089562767686,0.872731039790094));
#375=CARTESIAN_POINT('Ctrl Pts',(2.69609926190558,4.56002042226469,0.872731039790092));
#376=CARTESIAN_POINT('Ctrl Pts',(-1.24474430147252,5.45834898559031,0.872731039790095));
#377=CARTESIAN_POINT('Ctrl Pts',(-5.05033862156356,2.42854045956131,0.872731039790092));
#378=CARTESIAN_POINT('Ctrl Pts',(-5.04336486737425,-2.43203051146819,0.872731039790094));
#379=CARTESIAN_POINT('Ctrl Pts',(-1.2393739290905,-5.46431562513584,0.872731039790093));
#380=CARTESIAN_POINT('Ctrl Pts',(2.69981536269412,-4.5565651261061,0.872731039790093));
#381=CARTESIAN_POINT('Ctrl Pts',(4.55817269003378,-2.18227049530367,0.872731039790094));
#382=CARTESIAN_POINT('Ctrl Pts',(4.89201435214303,-0.731436146075416,0.872731039790093));
#383=CARTESIAN_POINT('Ctrl Pts',(4.89260355572595,-0.00396267307581473,
0.872731039790093));
#384=CARTESIAN_POINT('',(4.89260516047229,-5.99171324926421E-16,0.872731039790094));
#385=CARTESIAN_POINT('',(4.89260516047229,1.0747440775781E-15,1.41819311937028));
#386=CARTESIAN_POINT('Ctrl Pts',(4.89260516047229,2.94434655491776E-16,
0.872731039790093));
#387=CARTESIAN_POINT('Ctrl Pts',(4.82439893491628,7.00374055149985E-17,
0.945907505473597));
#388=CARTESIAN_POINT('Ctrl Pts',(4.74592009732126,-3.53479735834249E-16,
1.14546207958025));
#389=CARTESIAN_POINT('Ctrl Pts',(4.82439893491634,-5.01943824785416E-16,
1.34501665368689));
#390=CARTESIAN_POINT('Ctrl Pts',(4.89260516047237,-4.87291528328534E-16,
1.41819311937037));
#391=CARTESIAN_POINT('Ctrl Pts',(4.89260516047229,2.94434655491776E-16,
0.872731039790093));
#392=CARTESIAN_POINT('Ctrl Pts',(4.89260516047229,0.72744164038174,0.872731039790093));
#393=CARTESIAN_POINT('Ctrl Pts',(4.55519681234161,2.19089562767686,0.872731039790094));
#394=CARTESIAN_POINT('Ctrl Pts',(2.69609926190558,4.56002042226469,0.872731039790092));
#395=CARTESIAN_POINT('Ctrl Pts',(-1.24474430147252,5.45834898559031,0.872731039790095));
#396=CARTESIAN_POINT('Ctrl Pts',(-5.05033862156356,2.42854045956131,0.872731039790092));
#397=CARTESIAN_POINT('Ctrl Pts',(-5.04336486737425,-2.43203051146819,0.872731039790094));
#398=CARTESIAN_POINT('Ctrl Pts',(-1.2393739290905,-5.46431562513584,0.872731039790093));
#399=CARTESIAN_POINT('Ctrl Pts',(2.69981536269412,-4.5565651261061,0.872731039790093));
#400=CARTESIAN_POINT('Ctrl Pts',(4.55817269003378,-2.18227049530367,0.872731039790094));
#401=CARTESIAN_POINT('Ctrl Pts',(4.89201435214303,-0.731436146075416,0.872731039790093));
#402=CARTESIAN_POINT('Ctrl Pts',(4.89260355572595,-0.00396267307581473,
0.872731039790093));
#403=CARTESIAN_POINT('',(4.89260355572595,-0.0039626730758252,1.41819311937028));
#404=CARTESIAN_POINT('Origin',(5.18520862022543,-0.00419966309510425,1.14546207958019));
#405=CARTESIAN_POINT('Ctrl Pts',(4.89260516047229,2.08336569214029E-15,
1.41819311937028));
#406=CARTESIAN_POINT('Ctrl Pts',(4.89260516047229,0.727441640381739,1.41819311937028));
#407=CARTESIAN_POINT('Ctrl Pts',(4.72390098640695,1.4591686340293,1.41819311937028));
#408=CARTESIAN_POINT('Ctrl Pts',(4.40716170556978,2.12117273017656,1.41819311937028));
#409=CARTESIAN_POINT('Ctrl Pts',(4.0904224247326,2.78317682632382,1.41819311937028));
#410=CARTESIAN_POINT('Ctrl Pts',(3.62564803712359,3.37545802497077,1.41819311937028));
#411=CARTESIAN_POINT('Ctrl Pts',(3.05307554115905,3.83020072829045,1.41819311937028));
#412=CARTESIAN_POINT('Ctrl Pts',(1.90793054922995,4.73968613492981,1.41819311937028));
#413=CARTESIAN_POINT('Ctrl Pts',(0.331593123878714,5.09901756026006,1.41819311937028));
#414=CARTESIAN_POINT('Ctrl Pts',(-1.09084130881208,4.77371518525368,1.41819311937028));
#415=CARTESIAN_POINT('Ctrl Pts',(-2.51327574150287,4.44841281024731,1.41819311937028));
#416=CARTESIAN_POINT('Ctrl Pts',(-3.78180718153321,3.43847663490431,1.41819311937028));
#417=CARTESIAN_POINT('Ctrl Pts',(-4.4149106091835,2.12341338539456,1.41819311937028));
#418=CARTESIAN_POINT('Ctrl Pts',(-5.04801403683379,0.808350135884813,1.41819311937028));
#419=CARTESIAN_POINT('Ctrl Pts',(-5.04568945210402,-0.811840187791686,1.41819311937028));
#420=CARTESIAN_POINT('Ctrl Pts',(-4.41052867002518,-2.12731620190788,1.41819311937028));
#421=CARTESIAN_POINT('Ctrl Pts',(-3.77536788794634,-3.44279221602407,1.41819311937028));
#422=CARTESIAN_POINT('Ctrl Pts',(-2.50737090851842,-4.45355392057996,1.41819311937028));
#423=CARTESIAN_POINT('Ctrl Pts',(-1.08553456044754,-4.77738467305195,1.41819311937028));
#424=CARTESIAN_POINT('Ctrl Pts',(0.336301787623348,-5.10121542552395,1.41819311937028));
#425=CARTESIAN_POINT('Ctrl Pts',(1.9119775043372,-4.73811522591205,1.41819311937028));
#426=CARTESIAN_POINT('Ctrl Pts',(3.05665518568837,-3.8256502824406,1.41819311937028));
#427=CARTESIAN_POINT('Ctrl Pts',(3.62899402636395,-3.36941781070488,1.41819311937028));
#428=CARTESIAN_POINT('Ctrl Pts',(4.09358335819886,-2.77584415300428,1.41819311937028));
#429=CARTESIAN_POINT('Ctrl Pts',(4.40933843964363,-2.11634873684691,1.41819311937028));
#430=CARTESIAN_POINT('Ctrl Pts',(4.7250935210884,-1.45685332068954,1.41819311937028));
#431=CARTESIAN_POINT('Ctrl Pts',(4.89201435214303,-0.731436146075416,1.41819311937028));
#432=CARTESIAN_POINT('Ctrl Pts',(4.89260355572595,-0.00396267307581515,
1.41819311937028));
#433=CARTESIAN_POINT('Origin',(-2.5,0.,0.));
#434=CARTESIAN_POINT('',(-2.8,-3.67394039744206E-17,-4.));
#435=CARTESIAN_POINT('Origin',(-2.5,0.,-4.));
#436=CARTESIAN_POINT('',(-2.8,-3.67394039744206E-17,0.));
#437=CARTESIAN_POINT('',(-2.8,3.67394039744206E-17,0.));
#438=CARTESIAN_POINT('Origin',(-2.5,0.,0.));
#439=CARTESIAN_POINT('Origin',(-2.5,0.,-4.));
#440=CARTESIAN_POINT('Origin',(2.5,0.,0.));
#441=CARTESIAN_POINT('',(2.2,-3.67394039744206E-17,-3.));
#442=CARTESIAN_POINT('Origin',(2.5,0.,-3.));
#443=CARTESIAN_POINT('',(2.2,-3.67394039744206E-17,0.));
#444=CARTESIAN_POINT('',(2.2,3.67394039744206E-17,0.));
#445=CARTESIAN_POINT('Origin',(2.5,0.,0.));
#446=CARTESIAN_POINT('Origin',(2.5,0.,-3.));
#447=CARTESIAN_POINT('Origin',(0.,0.,16.5));
#448=CARTESIAN_POINT('',(2.17944947177034,3.93700393700591,17.));
#449=CARTESIAN_POINT('',(2.42161052418926,4.37444881889545,16.5));
#450=CARTESIAN_POINT('Origin',(2.17944947177034,3.93700393700591,16.5));
#451=CARTESIAN_POINT('',(-5.,-6.12323399573677E-16,16.5));
#452=CARTESIAN_POINT('Origin',(0.,0.,16.5));
#453=CARTESIAN_POINT('',(2.42161052418926,-4.37444881889545,16.5));
#454=CARTESIAN_POINT('Origin',(0.,0.,16.5));
#455=CARTESIAN_POINT('',(2.17944947177034,-3.93700393700591,17.));
#456=CARTESIAN_POINT('Origin',(2.17944947177034,-3.93700393700591,16.5));
#457=CARTESIAN_POINT('Origin',(0.,0.,17.));
#458=CARTESIAN_POINT('Origin',(0.,0.,16.5));
#459=CARTESIAN_POINT('Origin',(0.,0.,17.));
#460=CARTESIAN_POINT('Origin',(0.,0.,16.5));
#461=CARTESIAN_POINT('Origin',(0.,0.,17.));
#462=CARTESIAN_POINT('',(2.17944947177034,-0.00648903496970749,17.));
#463=CARTESIAN_POINT('Origin',(0.,0.,0.));
#464=CARTESIAN_POINT('',(-4.99482983811263,0.000932679213684719,1.69092415916037));
#465=CARTESIAN_POINT('',(-5.,-6.12323399573677E-16,0.));
#466=CARTESIAN_POINT('',(4.99999836002877,-0.00404965549624686,1.69092415916037));
#467=CARTESIAN_POINT('Ctrl Pts',(4.99999836002877,-0.00404965549624746,
1.69092415916037));
#468=CARTESIAN_POINT('Ctrl Pts',(4.99878676073689,-1.4999780074259,1.69092415916037));
#469=CARTESIAN_POINT('Ctrl Pts',(3.56620423727988,-4.47366055866029,1.69092415916038));
#470=CARTESIAN_POINT('Ctrl Pts',(-1.27965633919865,-5.58371347998032,1.69092415916037));
#471=CARTESIAN_POINT('Ctrl Pts',(-4.50911856700271,-2.99559153091675,1.69092415916037));
#472=CARTESIAN_POINT('Ctrl Pts',(-4.994426372345,-0.747400085538128,1.69092415916037));
#473=CARTESIAN_POINT('Ctrl Pts',(-4.99482983811263,0.000932679213685034,
1.69092415916037));
#474=CARTESIAN_POINT('Ctrl Pts',(-4.99482983811263,0.000932679213685034,
1.69092415916037));
#475=CARTESIAN_POINT('Ctrl Pts',(-4.99523477798424,0.751999555260929,1.69092415916037));
#476=CARTESIAN_POINT('Ctrl Pts',(-4.50999249574242,3.00200479472001,1.69092415916037));
#477=CARTESIAN_POINT('Ctrl Pts',(-1.26909729702172,5.5802089134629,1.69092415916037));
#478=CARTESIAN_POINT('Ctrl Pts',(3.57540791429217,4.47074940261907,1.69092415916037));
#479=CARTESIAN_POINT('Ctrl Pts',(5.00120995932064,1.4918786964334,1.69092415916037));
#480=CARTESIAN_POINT('Ctrl Pts',(4.99999836002877,-0.00404965549624723,
1.69092415916037));
#481=CARTESIAN_POINT('Ctrl Pts',(4.89260355572595,-0.00396267307581487,
1.41819311937028));
#482=CARTESIAN_POINT('Ctrl Pts',(4.89378913111552,1.45983468179372,1.41819311937028));
#483=CARTESIAN_POINT('Ctrl Pts',(3.49861184245186,4.37472231968651,1.41819311937028));
#484=CARTESIAN_POINT('Ctrl Pts',(-1.24183839690998,5.46035178530441,1.41819311937028));
#485=CARTESIAN_POINT('Ctrl Pts',(-5.04599198211309,2.43406310877679,1.41819311937028));
#486=CARTESIAN_POINT('Ctrl Pts',(-5.04567016350895,-2.42363424068015,1.41819311937028));
#487=CARTESIAN_POINT('Ctrl Pts',(-1.25217064175888,-5.46378107735009,1.41819311937028));
#488=CARTESIAN_POINT('Ctrl Pts',(3.48960585092274,-4.37757094710054,1.41819311937028));
#489=CARTESIAN_POINT('Ctrl Pts',(4.89141798033638,-1.46776002794535,1.41819311937028));
#490=CARTESIAN_POINT('Ctrl Pts',(4.89260355572595,-0.00396267307581522,
1.41819311937028));
#491=CARTESIAN_POINT('Ctrl Pts',(4.9608097589107,-0.00401791541905508,1.49136958505377));
#492=CARTESIAN_POINT('Ctrl Pts',(4.96201194437376,1.48028744075913,1.49136958505377));
#493=CARTESIAN_POINT('Ctrl Pts',(3.54741437149103,4.43566920305823,1.49136958505377));
#494=CARTESIAN_POINT('Ctrl Pts',(-1.25914762313813,5.53650156199552,1.49136958505377));
#495=CARTESIAN_POINT('Ctrl Pts',(-5.11636889869838,2.46799072648009,1.49136958505377));
#496=CARTESIAN_POINT('Ctrl Pts',(-5.11600332577689,-2.45740720908991,1.49136958505377));
#497=CARTESIAN_POINT('Ctrl Pts',(-1.26964468523416,-5.54001524193766,1.49136958505377));
#498=CARTESIAN_POINT('Ctrl Pts',(3.53827570721383,-4.4385359410399,1.49136958505377));
#499=CARTESIAN_POINT('Ctrl Pts',(4.95960757344763,-1.48832327159724,1.49136958505377));
#500=CARTESIAN_POINT('Ctrl Pts',(4.9608097589107,-0.00401791541905543,1.49136958505377));
#501=CARTESIAN_POINT('Ctrl Pts',(4.99999836002877,-0.00404965549624724,
1.59088974340998));
#502=CARTESIAN_POINT('Ctrl Pts',(5.00121004561145,1.49198523731807,1.59088974340998));
#503=CARTESIAN_POINT('Ctrl Pts',(3.57543883972387,4.47070779779,1.59088974340998));
#504=CARTESIAN_POINT('Ctrl Pts',(-1.26909432001447,5.58023906958949,1.59088974340998));
#505=CARTESIAN_POINT('Ctrl Pts',(-5.15678765399887,2.48748676523859,1.59088974340998));
#506=CARTESIAN_POINT('Ctrl Pts',(-5.1564176245318,-2.47681927182733,1.59088974340998));
#507=CARTESIAN_POINT('Ctrl Pts',(-1.27967513515809,-5.58378196765621,1.59088974340998));
#508=CARTESIAN_POINT('Ctrl Pts',(3.5662276987568,-4.4735963190514,1.59088974340998));
#509=CARTESIAN_POINT('Ctrl Pts',(4.99878667444609,-1.50008454831056,1.59088974340998));
#510=CARTESIAN_POINT('Ctrl Pts',(4.99999836002877,-0.00404965549624754,
1.59088974340998));
#511=CARTESIAN_POINT('Ctrl Pts',(4.99999836002877,-0.00404965549624723,
1.69092415916037));
#512=CARTESIAN_POINT('Ctrl Pts',(5.00120995932064,1.4918786964334,1.69092415916037));
#513=CARTESIAN_POINT('Ctrl Pts',(3.57540791429217,4.47074940261907,1.69092415916037));
#514=CARTESIAN_POINT('Ctrl Pts',(-1.26909729702172,5.5802089134629,1.69092415916037));
#515=CARTESIAN_POINT('Ctrl Pts',(-5.15675372997603,2.48749186674797,1.69092415916037));
#516=CARTESIAN_POINT('Ctrl Pts',(-5.15642484731169,-2.47683408040043,1.69092415916038));
#517=CARTESIAN_POINT('Ctrl Pts',(-1.27965633919865,-5.58371347998032,1.69092415916037));
#518=CARTESIAN_POINT('Ctrl Pts',(3.56620423727988,-4.47366055866029,1.69092415916038));
#519=CARTESIAN_POINT('Ctrl Pts',(4.99878676073689,-1.4999780074259,1.69092415916037));
#520=CARTESIAN_POINT('Ctrl Pts',(4.99999836002877,-0.00404965549624746,
1.69092415916037));
#521=CARTESIAN_POINT('Origin',(4.59999849122647,-0.00372568305654748,1.69092415916037));
#522=CARTESIAN_POINT('Ctrl Pts',(4.89260355572595,-0.00396267307581487,
1.41819311937028));
#523=CARTESIAN_POINT('Ctrl Pts',(4.89260462555686,-0.00264178223980692,
1.41819311937028));
#524=CARTESIAN_POINT('Ctrl Pts',(4.89260512639231,-0.00132089657733442,
1.41819311937028));
#525=CARTESIAN_POINT('Ctrl Pts',(4.89260505842148,-1.64862299037601E-8,
1.41819311937028));
#526=CARTESIAN_POINT('Ctrl Pts',(4.89260355572595,-0.0039626730758357,1.41819311937028));
#527=CARTESIAN_POINT('Ctrl Pts',(4.89260462558034,-0.00264175325564174,
1.41819311937028));
#528=CARTESIAN_POINT('Ctrl Pts',(4.89260516047229,-0.00132086201968708,
1.41819311937028));
#529=CARTESIAN_POINT('Ctrl Pts',(4.89260516047229,-6.62582813070892E-16,
1.41819311937028));
#530=CARTESIAN_POINT('Ctrl Pts',(4.8243973525412,-0.00390743073259517,1.34501665368679));
#531=CARTESIAN_POINT('Ctrl Pts',(4.82439840734675,-0.00260509129883161,
1.34501665368679));
#532=CARTESIAN_POINT('Ctrl Pts',(4.82439893491629,-0.00130228244629294,
1.34501665368679));
#533=CARTESIAN_POINT('Ctrl Pts',(4.82439893491629,-6.4038834855033E-16,
1.34501665368679));
#534=CARTESIAN_POINT('Ctrl Pts',(4.74588327551224,-0.00384383971902267,
1.14546207958019));
#535=CARTESIAN_POINT('Ctrl Pts',(4.74588431342454,-0.00256235792356424,
1.14546207958019));
#536=CARTESIAN_POINT('Ctrl Pts',(4.74588483213516,-0.00128142572067155,
1.14546207958019));
#537=CARTESIAN_POINT('Ctrl Pts',(4.74588483213516,-6.02277358060215E-16,
1.14546207958019));
#538=CARTESIAN_POINT('Ctrl Pts',(4.8243973525412,-0.00390743073259505,0.945907505473582));
#539=CARTESIAN_POINT('Ctrl Pts',(4.82439840734675,-0.0026050912988315,0.945907505473582));
#540=CARTESIAN_POINT('Ctrl Pts',(4.82439893491629,-0.0013022824462929,0.945907505473583));
#541=CARTESIAN_POINT('Ctrl Pts',(4.82439893491629,-5.96911276325011E-16,
0.945907505473583));
#542=CARTESIAN_POINT('Ctrl Pts',(4.89260355572595,-0.00396267307583554,
0.872731039790093));
#543=CARTESIAN_POINT('Ctrl Pts',(4.89260462558034,-0.00264175325564158,
0.872731039790093));
#544=CARTESIAN_POINT('Ctrl Pts',(4.89260516047229,-0.00132086201968701,
0.872731039790093));
#545=CARTESIAN_POINT('Ctrl Pts',(4.89260516047229,-6.03162741302926E-16,
0.872731039790093));
#546=CARTESIAN_POINT('Origin',(0.,0.,0.6));
#547=CARTESIAN_POINT('',(5.,-6.12323399573677E-16,0.6));
#548=CARTESIAN_POINT('Origin',(4.6,-5.63337527607783E-16,0.6));
#549=CARTESIAN_POINT('',(-5.,-6.12323399573677E-16,0.6));
#550=CARTESIAN_POINT('Origin',(0.,0.,0.6));
#551=CARTESIAN_POINT('Origin',(0.,0.,0.6));
#552=CARTESIAN_POINT('Origin',(0.,0.,0.));
#553=CARTESIAN_POINT('',(-5.,-6.12323399573677E-16,0.));
#554=CARTESIAN_POINT('',(-5.,-6.12323399573677E-16,0.));
#555=CARTESIAN_POINT('Origin',(0.,0.,0.));
#556=CARTESIAN_POINT('Origin',(0.,0.,17.));
#557=CARTESIAN_POINT('Origin',(0.,0.,0.));
#558=UNCERTAINTY_MEASURE_WITH_UNIT(LENGTH_MEASURE(0.01),#562,
'DISTANCE_ACCURACY_VALUE',
'Maximum model space distance between geometric entities at asserted c
onnectivities');
#559=UNCERTAINTY_MEASURE_WITH_UNIT(LENGTH_MEASURE(0.01),#562,
'DISTANCE_ACCURACY_VALUE',
'Maximum model space distance between geometric entities at asserted c
onnectivities');
#560=(
GEOMETRIC_REPRESENTATION_CONTEXT(3)
GLOBAL_UNCERTAINTY_ASSIGNED_CONTEXT((#558))
GLOBAL_UNIT_ASSIGNED_CONTEXT((#562,#564,#565))
REPRESENTATION_CONTEXT('','3D')
);
#561=(
GEOMETRIC_REPRESENTATION_CONTEXT(3)
GLOBAL_UNCERTAINTY_ASSIGNED_CONTEXT((#559))
GLOBAL_UNIT_ASSIGNED_CONTEXT((#562,#564,#565))
REPRESENTATION_CONTEXT('','3D')
);
#562=(
LENGTH_UNIT()
NAMED_UNIT(*)
SI_UNIT(.MILLI.,.METRE.)
);
#563=(
LENGTH_UNIT()
NAMED_UNIT(*)
SI_UNIT($,.METRE.)
);
#564=(
NAMED_UNIT(*)
PLANE_ANGLE_UNIT()
SI_UNIT($,.RADIAN.)
);
#565=(
NAMED_UNIT(*)
SI_UNIT($,.STERADIAN.)
SOLID_ANGLE_UNIT()
);
#566=SHAPE_DEFINITION_REPRESENTATION(#567,#568);
#567=PRODUCT_DEFINITION_SHAPE('',$,#570);
#568=SHAPE_REPRESENTATION('',(#228),#560);
#569=PRODUCT_DEFINITION_CONTEXT('part definition',#574,'design');
#570=PRODUCT_DEFINITION('CP_Polymer_SH477M063G1700',
'CP_Polymer_SH477M063G1700 v1',#571,#569);
#571=PRODUCT_DEFINITION_FORMATION('',$,#576);
#572=PRODUCT_RELATED_PRODUCT_CATEGORY('CP_Polymer_SH477M063G1700 v1',
'CP_Polymer_SH477M063G1700 v1',(#576));
#573=APPLICATION_PROTOCOL_DEFINITION('international standard',
'automotive_design',2009,#574);
#574=APPLICATION_CONTEXT(
'Core Data for Automotive Mechanical Design Process');
#575=PRODUCT_CONTEXT('part definition',#574,'mechanical');
#576=PRODUCT('CP_Polymer_SH477M063G1700','CP_Polymer_SH477M063G1700 v1',
$,(#575));
#577=PRESENTATION_STYLE_ASSIGNMENT((#580));
#578=PRESENTATION_STYLE_ASSIGNMENT((#581));
#579=PRESENTATION_STYLE_ASSIGNMENT((#582));
#580=SURFACE_STYLE_USAGE(.BOTH.,#583);
#581=SURFACE_STYLE_USAGE(.BOTH.,#584);
#582=SURFACE_STYLE_USAGE(.BOTH.,#585);
#583=SURFACE_SIDE_STYLE('',(#586));
#584=SURFACE_SIDE_STYLE('',(#587));
#585=SURFACE_SIDE_STYLE('',(#588));
#586=SURFACE_STYLE_FILL_AREA(#589);
#587=SURFACE_STYLE_FILL_AREA(#590);
#588=SURFACE_STYLE_FILL_AREA(#591);
#589=FILL_AREA_STYLE('Steel - Satin',(#592));
#590=FILL_AREA_STYLE('Aluminum - Satin',(#593));
#591=FILL_AREA_STYLE('Aluminum - Anodized Rough (Red)',(#594));
#592=FILL_AREA_STYLE_COLOUR('Steel - Satin',#595);
#593=FILL_AREA_STYLE_COLOUR('Aluminum - Satin',#596);
#594=FILL_AREA_STYLE_COLOUR('Aluminum - Anodized Rough (Red)',#597);
#595=COLOUR_RGB('Steel - Satin',0.627450980392157,0.627450980392157,0.627450980392157);
#596=COLOUR_RGB('Aluminum - Satin',0.96078431372549,0.96078431372549,0.964705882352941);
#597=COLOUR_RGB('Aluminum - Anodized Rough (Red)',0.854901960784314,0.349019607843137,
0.349019607843137);
ENDSEC;
END-ISO-10303-21;
