ISO-10303-21;
HEADER;
/* Generated by software containing ST-Developer
 * from STEP Tools, Inc. (www.steptools.com) 
 */

FILE_DESCRIPTION(
/* description */ (''),
/* implementation_level */ '2;1');

FILE_NAME(
/* name */ 'CP_Polymer_SH227M063F1700.step',
/* time_stamp */ '2026-03-31T22:05:44+02:00',
/* author */ (''),
/* organization */ (''),
/* preprocessor_version */ 'ST-DEVELOPER v20.1',
/* originating_system */ 'Autodesk Translation Framework v14.24.0.0',
/* authorisation */ '');

FILE_SCHEMA (('AUTOMOTIVE_DESIGN { 1 0 10303 214 3 1 1 }'));
ENDSEC;

DATA;
#10=MECHANICAL_DESIGN_GEOMETRIC_PRESENTATION_REPRESENTATION('',(#19,#20,
#21),#561);
#11=SHAPE_REPRESENTATION_RELATIONSHIP('SRR','None',#568,#12);
#12=ADVANCED_BREP_SHAPE_REPRESENTATION('',(#13),#560);
#13=MANIFOLD_SOLID_BREP('Body1',#215);
#14=FACE_BOUND('',#71,.T.);
#15=FACE_BOUND('',#72,.T.);
#16=TOROIDAL_SURFACE('',#238,3.5,0.5);
#17=TOROIDAL_SURFACE('',#243,3.5,0.5);
#18=TOROIDAL_SURFACE('',#251,3.6,0.4);
#19=STYLED_ITEM('',(#579),#205);
#20=STYLED_ITEM('',(#579),#207);
#21=STYLED_ITEM('',(#578),#13);
#22=PLANE('',#233);
#23=PLANE('',#237);
#24=PLANE('',#247);
#25=PLANE('',#249);
#26=PLANE('',#257);
#27=LINE('',#437,#32);
#28=LINE('',#444,#33);
#29=LINE('',#462,#34);
#30=LINE('',#465,#35);
#31=LINE('',#555,#36);
#32=VECTOR('',#266,0.3);
#33=VECTOR('',#275,0.3);
#34=VECTOR('',#300,10.);
#35=VECTOR('',#303,4.);
#36=VECTOR('',#318,4.);
#37=CYLINDRICAL_SURFACE('',#230,0.3);
#38=CYLINDRICAL_SURFACE('',#234,0.3);
#39=CYLINDRICAL_SURFACE('',#248,4.);
#40=CYLINDRICAL_SURFACE('',#255,4.);
#41=FACE_OUTER_BOUND('',#56,.T.);
#42=FACE_OUTER_BOUND('',#57,.T.);
#43=FACE_OUTER_BOUND('',#58,.T.);
#44=FACE_OUTER_BOUND('',#59,.T.);
#45=FACE_OUTER_BOUND('',#60,.T.);
#46=FACE_OUTER_BOUND('',#61,.T.);
#47=FACE_OUTER_BOUND('',#62,.T.);
#48=FACE_OUTER_BOUND('',#63,.T.);
#49=FACE_OUTER_BOUND('',#64,.T.);
#50=FACE_OUTER_BOUND('',#65,.T.);
#51=FACE_OUTER_BOUND('',#66,.T.);
#52=FACE_OUTER_BOUND('',#67,.T.);
#53=FACE_OUTER_BOUND('',#68,.T.);
#54=FACE_OUTER_BOUND('',#69,.T.);
#55=FACE_OUTER_BOUND('',#70,.T.);
#56=EDGE_LOOP('',(#141,#142,#143,#144));
#57=EDGE_LOOP('',(#145,#146,#147,#148));
#58=EDGE_LOOP('',(#149));
#59=EDGE_LOOP('',(#150,#151,#152,#153));
#60=EDGE_LOOP('',(#154));
#61=EDGE_LOOP('',(#155,#156,#157,#158));
#62=EDGE_LOOP('',(#159,#160,#161,#162,#163));
#63=EDGE_LOOP('',(#164,#165));
#64=EDGE_LOOP('',(#166,#167,#168,#169,#170,#171,#172));
#65=EDGE_LOOP('',(#173,#174));
#66=EDGE_LOOP('',(#175,#176,#177,#178,#179,#180));
#67=EDGE_LOOP('',(#181,#182,#183));
#68=EDGE_LOOP('',(#184,#185,#186,#187,#188));
#69=EDGE_LOOP('',(#189,#190,#191,#192,#193));
#70=EDGE_LOOP('',(#194));
#71=EDGE_LOOP('',(#195));
#72=EDGE_LOOP('',(#196));
#73=CIRCLE('',#229,0.4);
#74=CIRCLE('',#231,0.3);
#75=CIRCLE('',#232,0.3);
#76=CIRCLE('',#235,0.3);
#77=CIRCLE('',#236,0.3);
#78=CIRCLE('',#239,0.5);
#79=CIRCLE('',#240,4.);
#80=CIRCLE('',#241,0.5);
#81=CIRCLE('',#242,3.5);
#82=CIRCLE('',#244,3.5);
#83=CIRCLE('',#245,4.);
#84=CIRCLE('',#246,4.);
#85=CIRCLE('',#250,0.4);
#86=CIRCLE('',#252,0.4);
#87=CIRCLE('',#253,4.);
#88=CIRCLE('',#254,4.);
#89=CIRCLE('',#256,4.);
#90=B_SPLINE_CURVE_WITH_KNOTS('',3,(#386,#387,#388,#389,#390),
 .UNSPECIFIED.,.F.,.F.,(4,1,4),(-1.,-0.592173110116249,-0.184346220232498),
 .UNSPECIFIED.);
#91=B_SPLINE_CURVE_WITH_KNOTS('',3,(#391,#392,#393,#394,#395,#396,#397,
#398,#399,#400,#401,#402),.UNSPECIFIED.,.F.,.F.,(4,1,1,1,1,1,1,1,1,4),(-2.16694543767492E-16,
0.186679457754339,0.373358915508679,0.746717831017358,1.12007674652604,
1.49343566203472,1.86679457754339,2.24015349305207,2.42683295080641,2.61351240856075),
 .UNSPECIFIED.);
#92=B_SPLINE_CURVE_WITH_KNOTS('',3,(#405,#406,#407,#408,#409,#410,#411,
#412,#413,#414,#415,#416,#417,#418,#419,#420,#421,#422,#423,#424,#425,#426,
#427,#428,#429,#430,#431,#432),.UNSPECIFIED.,.F.,.F.,(4,3,3,3,3,3,3,3,3,
4),(-6.28318527048629,-5.83444417482211,-5.38570307915793,-4.48822088782958,
-3.59073869650122,-2.69325650517287,-1.79577431384451,-0.89829212251616,
-0.449551026851982,-0.00080993118780448),.UNSPECIFIED.);
#93=B_SPLINE_CURVE_WITH_KNOTS('',3,(#467,#468,#469,#470,#471,#472,#473),
 .UNSPECIFIED.,.F.,.F.,(4,1,1,1,4),(0.000809931187804688,0.89840783221346,
1.79600573323911,2.69360363426477,3.14158421304628),.UNSPECIFIED.);
#94=B_SPLINE_CURVE_WITH_KNOTS('',3,(#474,#475,#476,#477,#478,#479,#480),
 .UNSPECIFIED.,.F.,.F.,(4,1,1,1,4),(3.14158421304628,3.59120153529043,4.48879943631608,
5.38639733734174,6.28399523836739),.UNSPECIFIED.);
#95=B_SPLINE_CURVE_WITH_KNOTS('',3,(#523,#524,#525,#526),.UNSPECIFIED.,
 .F.,.F.,(4,4),(-6.28399523836739,-6.28318527048629),.UNSPECIFIED.);
#96=VERTEX_POINT('',#384);
#97=VERTEX_POINT('',#385);
#98=VERTEX_POINT('',#403);
#99=VERTEX_POINT('',#434);
#100=VERTEX_POINT('',#436);
#101=VERTEX_POINT('',#441);
#102=VERTEX_POINT('',#443);
#103=VERTEX_POINT('',#448);
#104=VERTEX_POINT('',#449);
#105=VERTEX_POINT('',#451);
#106=VERTEX_POINT('',#453);
#107=VERTEX_POINT('',#458);
#108=VERTEX_POINT('',#464);
#109=VERTEX_POINT('',#466);
#110=VERTEX_POINT('',#548);
#111=VERTEX_POINT('',#550);
#112=VERTEX_POINT('',#554);
#113=EDGE_CURVE('',#96,#97,#90,.T.);
#114=EDGE_CURVE('',#96,#96,#91,.T.);
#115=EDGE_CURVE('',#96,#98,#73,.T.);
#116=EDGE_CURVE('',#97,#98,#92,.T.);
#117=EDGE_CURVE('',#99,#99,#74,.T.);
#118=EDGE_CURVE('',#99,#100,#27,.T.);
#119=EDGE_CURVE('',#100,#100,#75,.T.);
#120=EDGE_CURVE('',#101,#101,#76,.T.);
#121=EDGE_CURVE('',#101,#102,#28,.T.);
#122=EDGE_CURVE('',#102,#102,#77,.T.);
#123=EDGE_CURVE('',#103,#104,#78,.T.);
#124=EDGE_CURVE('',#104,#105,#79,.T.);
#125=EDGE_CURVE('',#105,#106,#80,.T.);
#126=EDGE_CURVE('',#106,#103,#81,.T.);
#127=EDGE_CURVE('',#103,#106,#82,.T.);
#128=EDGE_CURVE('',#105,#107,#83,.T.);
#129=EDGE_CURVE('',#107,#104,#84,.T.);
#130=EDGE_CURVE('',#106,#103,#29,.T.);
#131=EDGE_CURVE('',#107,#108,#30,.T.);
#132=EDGE_CURVE('',#109,#108,#93,.T.);
#133=EDGE_CURVE('',#108,#109,#94,.T.);
#134=EDGE_CURVE('',#109,#98,#85,.T.);
#135=EDGE_CURVE('',#98,#97,#95,.T.);
#136=EDGE_CURVE('',#110,#96,#86,.T.);
#137=EDGE_CURVE('',#110,#111,#87,.T.);
#138=EDGE_CURVE('',#111,#110,#88,.T.);
#139=EDGE_CURVE('',#111,#112,#31,.T.);
#140=EDGE_CURVE('',#112,#112,#89,.T.);
#141=ORIENTED_EDGE('',*,*,#113,.F.);
#142=ORIENTED_EDGE('',*,*,#114,.T.);
#143=ORIENTED_EDGE('',*,*,#115,.T.);
#144=ORIENTED_EDGE('',*,*,#116,.F.);
#145=ORIENTED_EDGE('',*,*,#117,.F.);
#146=ORIENTED_EDGE('',*,*,#118,.T.);
#147=ORIENTED_EDGE('',*,*,#119,.F.);
#148=ORIENTED_EDGE('',*,*,#118,.F.);
#149=ORIENTED_EDGE('',*,*,#117,.T.);
#150=ORIENTED_EDGE('',*,*,#120,.F.);
#151=ORIENTED_EDGE('',*,*,#121,.T.);
#152=ORIENTED_EDGE('',*,*,#122,.F.);
#153=ORIENTED_EDGE('',*,*,#121,.F.);
#154=ORIENTED_EDGE('',*,*,#120,.T.);
#155=ORIENTED_EDGE('',*,*,#123,.T.);
#156=ORIENTED_EDGE('',*,*,#124,.T.);
#157=ORIENTED_EDGE('',*,*,#125,.T.);
#158=ORIENTED_EDGE('',*,*,#126,.T.);
#159=ORIENTED_EDGE('',*,*,#123,.F.);
#160=ORIENTED_EDGE('',*,*,#127,.T.);
#161=ORIENTED_EDGE('',*,*,#125,.F.);
#162=ORIENTED_EDGE('',*,*,#128,.T.);
#163=ORIENTED_EDGE('',*,*,#129,.T.);
#164=ORIENTED_EDGE('',*,*,#126,.F.);
#165=ORIENTED_EDGE('',*,*,#130,.T.);
#166=ORIENTED_EDGE('',*,*,#124,.F.);
#167=ORIENTED_EDGE('',*,*,#129,.F.);
#168=ORIENTED_EDGE('',*,*,#131,.T.);
#169=ORIENTED_EDGE('',*,*,#132,.F.);
#170=ORIENTED_EDGE('',*,*,#133,.F.);
#171=ORIENTED_EDGE('',*,*,#131,.F.);
#172=ORIENTED_EDGE('',*,*,#128,.F.);
#173=ORIENTED_EDGE('',*,*,#127,.F.);
#174=ORIENTED_EDGE('',*,*,#130,.F.);
#175=ORIENTED_EDGE('',*,*,#134,.T.);
#176=ORIENTED_EDGE('',*,*,#135,.T.);
#177=ORIENTED_EDGE('',*,*,#116,.T.);
#178=ORIENTED_EDGE('',*,*,#134,.F.);
#179=ORIENTED_EDGE('',*,*,#132,.T.);
#180=ORIENTED_EDGE('',*,*,#133,.T.);
#181=ORIENTED_EDGE('',*,*,#113,.T.);
#182=ORIENTED_EDGE('',*,*,#135,.F.);
#183=ORIENTED_EDGE('',*,*,#115,.F.);
#184=ORIENTED_EDGE('',*,*,#114,.F.);
#185=ORIENTED_EDGE('',*,*,#136,.F.);
#186=ORIENTED_EDGE('',*,*,#137,.T.);
#187=ORIENTED_EDGE('',*,*,#138,.T.);
#188=ORIENTED_EDGE('',*,*,#136,.T.);
#189=ORIENTED_EDGE('',*,*,#138,.F.);
#190=ORIENTED_EDGE('',*,*,#139,.T.);
#191=ORIENTED_EDGE('',*,*,#140,.T.);
#192=ORIENTED_EDGE('',*,*,#139,.F.);
#193=ORIENTED_EDGE('',*,*,#137,.F.);
#194=ORIENTED_EDGE('',*,*,#140,.F.);
#195=ORIENTED_EDGE('',*,*,#119,.T.);
#196=ORIENTED_EDGE('',*,*,#122,.T.);
#197=B_SPLINE_SURFACE_WITH_KNOTS('',3,3,((#324,#325,#326,#327,#328,#329,
#330,#331,#332,#333,#334,#335),(#336,#337,#338,#339,#340,#341,#342,#343,
#344,#345,#346,#347),(#348,#349,#350,#351,#352,#353,#354,#355,#356,#357,
#358,#359),(#360,#361,#362,#363,#364,#365,#366,#367,#368,#369,#370,#371),
(#372,#373,#374,#375,#376,#377,#378,#379,#380,#381,#382,#383)),
 .UNSPECIFIED.,.F.,.F.,.F.,(4,1,4),(4,1,1,1,1,1,1,1,1,4),(0.184346220232498,
0.592173110116249,1.),(-2.16694543767492E-16,0.186679457754339,0.373358915508679,
0.746717831017358,1.12007674652604,1.49343566203472,1.86679457754339,2.24015349305207,
2.42683295080641,2.61351240856075),.UNSPECIFIED.);
#198=B_SPLINE_SURFACE_WITH_KNOTS('',3,3,((#482,#483,#484,#485,#486,#487,
#488,#489,#490,#491),(#492,#493,#494,#495,#496,#497,#498,#499,#500,#501),
(#502,#503,#504,#505,#506,#507,#508,#509,#510,#511),(#512,#513,#514,#515,
#516,#517,#518,#519,#520,#521)),.UNSPECIFIED.,.F.,.T.,.F.,(4,4),(4,1,1,
1,1,1,1,4),(0.,1.),(-6.28399523836739,-5.38639733734174,-4.48879943631608,
-3.59120153529043,-2.69360363426477,-1.79600573323911,-0.89840783221346,
-0.000809931187804688),.UNSPECIFIED.);
#199=B_SPLINE_SURFACE_WITH_KNOTS('',3,3,((#527,#528,#529,#530),(#531,#532,
#533,#534),(#535,#536,#537,#538),(#539,#540,#541,#542),(#543,#544,#545,
#546)),.UNSPECIFIED.,.F.,.F.,.F.,(4,1,4),(4,4),(0.184346220232637,0.592173110116319,
1.),(-0.000338965756034871,0.),.UNSPECIFIED.);
#200=ADVANCED_FACE('',(#41),#197,.T.);
#201=ADVANCED_FACE('',(#42),#37,.T.);
#202=ADVANCED_FACE('',(#43),#22,.F.);
#203=ADVANCED_FACE('',(#44),#38,.T.);
#204=ADVANCED_FACE('',(#45),#23,.F.);
#205=ADVANCED_FACE('',(#46),#16,.T.);
#206=ADVANCED_FACE('',(#47),#17,.T.);
#207=ADVANCED_FACE('',(#48),#24,.T.);
#208=ADVANCED_FACE('',(#49),#39,.T.);
#209=ADVANCED_FACE('',(#50),#25,.T.);
#210=ADVANCED_FACE('',(#51),#198,.F.);
#211=ADVANCED_FACE('',(#52),#199,.T.);
#212=ADVANCED_FACE('',(#53),#18,.T.);
#213=ADVANCED_FACE('',(#54),#40,.T.);
#214=ADVANCED_FACE('',(#55,#14,#15),#26,.F.);
#215=CLOSED_SHELL('',(#200,#201,#202,#203,#204,#205,#206,#207,#208,#209,
#210,#211,#212,#213,#214));
#216=DERIVED_UNIT_ELEMENT(#218,1.);
#217=DERIVED_UNIT_ELEMENT(#563,-3.);
#218=(
MASS_UNIT()
NAMED_UNIT(*)
SI_UNIT(.KILO.,.GRAM.)
);
#219=DERIVED_UNIT((#216,#217));
#220=MEASURE_REPRESENTATION_ITEM('density measure',
POSITIVE_RATIO_MEASURE(7850.),#219);
#221=PROPERTY_DEFINITION_REPRESENTATION(#226,#223);
#222=PROPERTY_DEFINITION_REPRESENTATION(#227,#224);
#223=REPRESENTATION('material name',(#225),#560);
#224=REPRESENTATION('density',(#220),#560);
#225=DESCRIPTIVE_REPRESENTATION_ITEM('Steel','Steel');
#226=PROPERTY_DEFINITION('material property','material name',#570);
#227=PROPERTY_DEFINITION('material property','density of part',#570);
#228=AXIS2_PLACEMENT_3D('',#323,#258,#259);
#229=AXIS2_PLACEMENT_3D('',#404,#260,#261);
#230=AXIS2_PLACEMENT_3D('',#433,#262,#263);
#231=AXIS2_PLACEMENT_3D('',#435,#264,#265);
#232=AXIS2_PLACEMENT_3D('',#438,#267,#268);
#233=AXIS2_PLACEMENT_3D('',#439,#269,#270);
#234=AXIS2_PLACEMENT_3D('',#440,#271,#272);
#235=AXIS2_PLACEMENT_3D('',#442,#273,#274);
#236=AXIS2_PLACEMENT_3D('',#445,#276,#277);
#237=AXIS2_PLACEMENT_3D('',#446,#278,#279);
#238=AXIS2_PLACEMENT_3D('',#447,#280,#281);
#239=AXIS2_PLACEMENT_3D('',#450,#282,#283);
#240=AXIS2_PLACEMENT_3D('',#452,#284,#285);
#241=AXIS2_PLACEMENT_3D('',#454,#286,#287);
#242=AXIS2_PLACEMENT_3D('',#455,#288,#289);
#243=AXIS2_PLACEMENT_3D('',#456,#290,#291);
#244=AXIS2_PLACEMENT_3D('',#457,#292,#293);
#245=AXIS2_PLACEMENT_3D('',#459,#294,#295);
#246=AXIS2_PLACEMENT_3D('',#460,#296,#297);
#247=AXIS2_PLACEMENT_3D('',#461,#298,#299);
#248=AXIS2_PLACEMENT_3D('',#463,#301,#302);
#249=AXIS2_PLACEMENT_3D('',#481,#304,#305);
#250=AXIS2_PLACEMENT_3D('',#522,#306,#307);
#251=AXIS2_PLACEMENT_3D('',#547,#308,#309);
#252=AXIS2_PLACEMENT_3D('',#549,#310,#311);
#253=AXIS2_PLACEMENT_3D('',#551,#312,#313);
#254=AXIS2_PLACEMENT_3D('',#552,#314,#315);
#255=AXIS2_PLACEMENT_3D('',#553,#316,#317);
#256=AXIS2_PLACEMENT_3D('',#556,#319,#320);
#257=AXIS2_PLACEMENT_3D('',#557,#321,#322);
#258=DIRECTION('axis',(0.,0.,1.));
#259=DIRECTION('refdir',(1.,0.,0.));
#260=DIRECTION('center_axis',(0.000809931099254534,0.999999672005753,4.00962032219242E-16));
#261=DIRECTION('ref_axis',(-0.731512661248702,0.000592475048172451,-0.681827599475233));
#262=DIRECTION('center_axis',(0.,0.,-1.));
#263=DIRECTION('ref_axis',(1.,0.,0.));
#264=DIRECTION('center_axis',(0.,0.,-1.));
#265=DIRECTION('ref_axis',(1.,0.,0.));
#266=DIRECTION('',(0.,0.,1.));
#267=DIRECTION('center_axis',(0.,0.,1.));
#268=DIRECTION('ref_axis',(1.,0.,0.));
#269=DIRECTION('center_axis',(0.,0.,1.));
#270=DIRECTION('ref_axis',(1.,0.,0.));
#271=DIRECTION('center_axis',(0.,0.,-1.));
#272=DIRECTION('ref_axis',(1.,0.,0.));
#273=DIRECTION('center_axis',(0.,0.,-1.));
#274=DIRECTION('ref_axis',(1.,0.,0.));
#275=DIRECTION('',(0.,0.,1.));
#276=DIRECTION('center_axis',(0.,0.,1.));
#277=DIRECTION('ref_axis',(1.,0.,0.));
#278=DIRECTION('center_axis',(0.,0.,1.));
#279=DIRECTION('ref_axis',(1.,0.,0.));
#280=DIRECTION('center_axis',(0.,0.,1.));
#281=DIRECTION('ref_axis',(1.,0.,0.));
#282=DIRECTION('center_axis',(0.782460796435951,0.622699849077239,0.));
#283=DIRECTION('ref_axis',(0.,0.,1.));
#284=DIRECTION('center_axis',(0.,0.,1.));
#285=DIRECTION('ref_axis',(1.,0.,0.));
#286=DIRECTION('center_axis',(0.782460796435951,-0.622699849077239,0.));
#287=DIRECTION('ref_axis',(0.622699849077239,0.782460796435951,0.));
#288=DIRECTION('center_axis',(0.,0.,-1.));
#289=DIRECTION('ref_axis',(1.,0.,0.));
#290=DIRECTION('center_axis',(0.,0.,1.));
#291=DIRECTION('ref_axis',(-1.,-1.22464679914735E-16,0.));
#292=DIRECTION('center_axis',(0.,0.,-1.));
#293=DIRECTION('ref_axis',(-1.,-1.22464679914735E-16,0.));
#294=DIRECTION('center_axis',(0.,0.,1.));
#295=DIRECTION('ref_axis',(-1.,-1.22464679914735E-16,0.));
#296=DIRECTION('center_axis',(0.,0.,1.));
#297=DIRECTION('ref_axis',(-1.,-1.22464679914735E-16,0.));
#298=DIRECTION('center_axis',(0.,0.,1.));
#299=DIRECTION('ref_axis',(1.,0.,0.));
#300=DIRECTION('',(0.,-1.,0.));
#301=DIRECTION('center_axis',(0.,0.,1.));
#302=DIRECTION('ref_axis',(1.,0.,0.));
#303=DIRECTION('',(0.,0.,-1.));
#304=DIRECTION('center_axis',(0.,0.,1.));
#305=DIRECTION('ref_axis',(1.,0.,0.));
#306=DIRECTION('center_axis',(0.000809931099253828,0.999999672005754,-8.04096681363602E-16));
#307=DIRECTION('ref_axis',(0.999999672005753,-0.000809931099253828,0.));
#308=DIRECTION('center_axis',(0.,0.,-1.));
#309=DIRECTION('ref_axis',(-1.,0.,0.));
#310=DIRECTION('center_axis',(-1.22464679914735E-16,-1.,0.));
#311=DIRECTION('ref_axis',(1.,-1.22464679914735E-16,0.));
#312=DIRECTION('center_axis',(0.,0.,1.));
#313=DIRECTION('ref_axis',(1.,0.,0.));
#314=DIRECTION('center_axis',(0.,0.,1.));
#315=DIRECTION('ref_axis',(1.,0.,0.));
#316=DIRECTION('center_axis',(0.,0.,1.));
#317=DIRECTION('ref_axis',(1.,0.,0.));
#318=DIRECTION('',(0.,0.,-1.));
#319=DIRECTION('center_axis',(0.,0.,1.));
#320=DIRECTION('ref_axis',(1.,0.,0.));
#321=DIRECTION('center_axis',(0.,0.,1.));
#322=DIRECTION('ref_axis',(1.,0.,0.));
#323=CARTESIAN_POINT('',(0.,0.,0.));
#324=CARTESIAN_POINT('Ctrl Pts',(3.89260516047236,-9.13359587373746E-16,
1.41819311937036));
#325=CARTESIAN_POINT('Ctrl Pts',(3.89260516047236,0.578759779384931,1.41819311937036));
#326=CARTESIAN_POINT('Ctrl Pts',(3.62447138465109,1.74267120343311,1.41819311937036));
#327=CARTESIAN_POINT('Ctrl Pts',(2.14351160729829,3.62618713683005,1.41819311937036));
#328=CARTESIAN_POINT('Ctrl Pts',(-0.990129970758932,4.3478177194263,1.41819311937035));
#329=CARTESIAN_POINT('Ctrl Pts',(-4.0149961675393,1.92982637180485,1.41819311937036));
#330=CARTESIAN_POINT('Ctrl Pts',(-4.01522765345312,-1.9354235467566,1.41819311937035));
#331=CARTESIAN_POINT('Ctrl Pts',(-0.985442297117697,-4.34487234916023,1.41819311937036));
#332=CARTESIAN_POINT('Ctrl Pts',(2.14863767039887,-3.62629912319632,1.41819311937036));
#333=CARTESIAN_POINT('Ctrl Pts',(3.62679512047965,-1.73631748246798,1.41819311937036));
#334=CARTESIAN_POINT('Ctrl Pts',(3.89213510750959,-0.581937847707793,1.41819311937036));
#335=CARTESIAN_POINT('Ctrl Pts',(3.89260388372026,-0.0031527419765823,1.41819311937036));
#336=CARTESIAN_POINT('Ctrl Pts',(3.82439893491633,-9.34913000611409E-16,
1.34501665368687));
#337=CARTESIAN_POINT('Ctrl Pts',(3.82439893491633,0.568527404507053,1.34501665368687));
#338=CARTESIAN_POINT('Ctrl Pts',(3.56092239109003,1.71213378517867,1.34501665368687));
#339=CARTESIAN_POINT('Ctrl Pts',(2.10595457923418,3.5626061645612,1.34501665368687));
#340=CARTESIAN_POINT('Ctrl Pts',(-0.972773140290653,4.27156787197872,1.34501665368687));
#341=CARTESIAN_POINT('Ctrl Pts',(-3.94462874211885,1.89597547826264,1.34501665368687));
#342=CARTESIAN_POINT('Ctrl Pts',(-3.94482417761647,-1.90143237391981,1.34501665368687));
#343=CARTESIAN_POINT('Ctrl Pts',(-0.968160612192415,-4.26874431319905,1.34501665368688));
#344=CARTESIAN_POINT('Ctrl Pts',(2.11095915534598,-3.56267414776471,1.34501665368687));
#345=CARTESIAN_POINT('Ctrl Pts',(3.56323334389999,-1.70589332973301,1.34501665368687));
#346=CARTESIAN_POINT('Ctrl Pts',(3.82393719220882,-0.571649782721141,1.34501665368687));
#347=CARTESIAN_POINT('Ctrl Pts',(3.82439768053548,-0.00309749963334175,
1.34501665368687));
#348=CARTESIAN_POINT('Ctrl Pts',(3.74589627204,-7.98340101226756E-16,1.14546207958024));
#349=CARTESIAN_POINT('Ctrl Pts',(3.74589627204,0.557040927893416,1.14546207958024));
#350=CARTESIAN_POINT('Ctrl Pts',(3.48791046768424,1.67699385264189,1.14546207958024));
#351=CARTESIAN_POINT('Ctrl Pts',(2.06272289827734,3.48956352767908,1.14546207958024));
#352=CARTESIAN_POINT('Ctrl Pts',(-0.952820844913836,4.18402168567287,1.14546207958025));
#353=CARTESIAN_POINT('Ctrl Pts',(-3.86369163585198,1.85713047760856,1.14546207958024));
#354=CARTESIAN_POINT('Ctrl Pts',(-3.86394735573742,-1.86256017739509,1.14546207958024));
#355=CARTESIAN_POINT('Ctrl Pts',(-0.948317048170737,-4.18111500556062,1.14546207958025));
#356=CARTESIAN_POINT('Ctrl Pts',(2.06768838697409,-3.48971460122435,1.14546207958024));
#357=CARTESIAN_POINT('Ctrl Pts',(3.49011784868038,-1.67087760391578,1.14546207958024));
#358=CARTESIAN_POINT('Ctrl Pts',(3.74544385874571,-0.560099221714834,1.14546207958024));
#359=CARTESIAN_POINT('Ctrl Pts',(3.74589504340758,-0.00303391788530396,
1.14546207958024));
#360=CARTESIAN_POINT('Ctrl Pts',(3.82439893491628,-3.76450472347534E-16,
0.945907505473595));
#361=CARTESIAN_POINT('Ctrl Pts',(3.82439893491628,0.568527404507046,0.945907505473596));
#362=CARTESIAN_POINT('Ctrl Pts',(3.56092239108998,1.71213378517864,0.945907505473595));
#363=CARTESIAN_POINT('Ctrl Pts',(2.10595457923415,3.56260616456115,0.945907505473596));
#364=CARTESIAN_POINT('Ctrl Pts',(-0.972773140290641,4.27156787197866,0.945907505473595));
#365=CARTESIAN_POINT('Ctrl Pts',(-3.94462874211879,1.89597547826261,0.945907505473596));
#366=CARTESIAN_POINT('Ctrl Pts',(-3.94482417761642,-1.90143237391978,0.945907505473595));
#367=CARTESIAN_POINT('Ctrl Pts',(-0.968160612192403,-4.268744313199,0.945907505473596));
#368=CARTESIAN_POINT('Ctrl Pts',(2.11095915534596,-3.56267414776466,0.945907505473594));
#369=CARTESIAN_POINT('Ctrl Pts',(3.56323334389994,-1.70589332973299,0.945907505473595));
#370=CARTESIAN_POINT('Ctrl Pts',(3.82393719220877,-0.571649782721133,0.945907505473595));
#371=CARTESIAN_POINT('Ctrl Pts',(3.82439768053543,-0.00309749963334166,
0.945907505473595));
#372=CARTESIAN_POINT('Ctrl Pts',(3.89260516047229,-1.50109400305417E-16,
0.872731039790093));
#373=CARTESIAN_POINT('Ctrl Pts',(3.89260516047229,0.578759779384922,0.872731039790094));
#374=CARTESIAN_POINT('Ctrl Pts',(3.62447138465102,1.74267120343308,0.872731039790093));
#375=CARTESIAN_POINT('Ctrl Pts',(2.14351160729825,3.62618713682998,0.872731039790095));
#376=CARTESIAN_POINT('Ctrl Pts',(-0.990129970758913,4.34781771942622,0.872731039790092));
#377=CARTESIAN_POINT('Ctrl Pts',(-4.01499616753922,1.92982637180481,0.872731039790095));
#378=CARTESIAN_POINT('Ctrl Pts',(-4.01522765345304,-1.93542354675657,0.872731039790092));
#379=CARTESIAN_POINT('Ctrl Pts',(-0.985442297117679,-4.34487234916016,0.872731039790094));
#380=CARTESIAN_POINT('Ctrl Pts',(2.14863767039883,-3.62629912319625,0.872731039790092));
#381=CARTESIAN_POINT('Ctrl Pts',(3.62679512047958,-1.73631748246794,0.872731039790094));
#382=CARTESIAN_POINT('Ctrl Pts',(3.89213510750952,-0.581937847707783,0.872731039790093));
#383=CARTESIAN_POINT('Ctrl Pts',(3.89260388372019,-0.00315274197658218,
0.872731039790093));
#384=CARTESIAN_POINT('',(3.89260516047229,-4.76706645011686E-16,0.872731039790093));
#385=CARTESIAN_POINT('',(3.89260516047229,-5.15087088237507E-16,1.41819311937028));
#386=CARTESIAN_POINT('Ctrl Pts',(3.89260516047229,-1.50109400305417E-16,
0.872731039790093));
#387=CARTESIAN_POINT('Ctrl Pts',(3.82439893491628,-3.76450472347534E-16,
0.945907505473595));
#388=CARTESIAN_POINT('Ctrl Pts',(3.74589627204,-7.98340101226756E-16,1.14546207958024));
#389=CARTESIAN_POINT('Ctrl Pts',(3.82439893491633,-9.34913000611409E-16,
1.34501665368687));
#390=CARTESIAN_POINT('Ctrl Pts',(3.89260516047236,-9.13359587373746E-16,
1.41819311937036));
#391=CARTESIAN_POINT('Ctrl Pts',(3.89260516047229,-1.50109400305417E-16,
0.872731039790093));
#392=CARTESIAN_POINT('Ctrl Pts',(3.89260516047229,0.578759779384922,0.872731039790094));
#393=CARTESIAN_POINT('Ctrl Pts',(3.62447138465102,1.74267120343308,0.872731039790093));
#394=CARTESIAN_POINT('Ctrl Pts',(2.14351160729825,3.62618713682998,0.872731039790095));
#395=CARTESIAN_POINT('Ctrl Pts',(-0.990129970758913,4.34781771942622,0.872731039790092));
#396=CARTESIAN_POINT('Ctrl Pts',(-4.01499616753922,1.92982637180481,0.872731039790095));
#397=CARTESIAN_POINT('Ctrl Pts',(-4.01522765345304,-1.93542354675657,0.872731039790092));
#398=CARTESIAN_POINT('Ctrl Pts',(-0.985442297117679,-4.34487234916016,0.872731039790094));
#399=CARTESIAN_POINT('Ctrl Pts',(2.14863767039883,-3.62629912319625,0.872731039790092));
#400=CARTESIAN_POINT('Ctrl Pts',(3.62679512047958,-1.73631748246794,0.872731039790094));
#401=CARTESIAN_POINT('Ctrl Pts',(3.89213510750952,-0.581937847707783,0.872731039790093));
#402=CARTESIAN_POINT('Ctrl Pts',(3.89260388372019,-0.00315274197658218,
0.872731039790093));
#403=CARTESIAN_POINT('',(3.89260388372019,-0.00315274197658245,1.41819311937028));
#404=CARTESIAN_POINT('Origin',(4.18520894821967,-0.00338973199585084,1.14546207958019));
#405=CARTESIAN_POINT('Ctrl Pts',(3.89260516047229,-3.26057145259216E-16,
1.41819311937028));
#406=CARTESIAN_POINT('Ctrl Pts',(3.89260516047229,0.578759779384921,1.41819311937028));
#407=CARTESIAN_POINT('Ctrl Pts',(3.75853827256166,1.160715491409,1.41819311937028));
#408=CARTESIAN_POINT('Ctrl Pts',(3.50638485643724,1.68713283909565,1.41819311937028));
#409=CARTESIAN_POINT('Ctrl Pts',(3.25423144031283,2.2135501867823,1.41819311937028));
#410=CARTESIAN_POINT('Ctrl Pts',(2.88399149597464,2.68442917013153,1.41819311937028));
#411=CARTESIAN_POINT('Ctrl Pts',(2.4282554278787,3.04645719787076,1.41819311937028));
#412=CARTESIAN_POINT('Ctrl Pts',(1.51678329168682,3.77051325334923,1.41819311937028));
#413=CARTESIAN_POINT('Ctrl Pts',(0.263326660463954,4.05916548638773,1.41819311937028));
#414=CARTESIAN_POINT('Ctrl Pts',(-0.867546021277531,3.80049304497007,1.41819311937028));
#415=CARTESIAN_POINT('Ctrl Pts',(-1.99841870301902,3.54182060355242,1.41819311937028));
#416=CARTESIAN_POINT('Ctrl Pts',(-3.00670743527912,2.73582348767862,1.41819311937028));
#417=CARTESIAN_POINT('Ctrl Pts',(-3.51089038239481,1.68861660998149,1.41819311937028));
#418=CARTESIAN_POINT('Ctrl Pts',(-4.0150733295105,0.641409732284355,1.41819311937028));
#419=CARTESIAN_POINT('Ctrl Pts',(-4.01515049148177,-0.647006907236109,1.41819311937028));
#420=CARTESIAN_POINT('Ctrl Pts',(-3.51022484641151,-1.69279002739694,1.41819311937028));
#421=CARTESIAN_POINT('Ctrl Pts',(-3.00529920134125,-2.73857314755776,1.41819311937028));
#422=CARTESIAN_POINT('Ctrl Pts',(-1.99537074922947,-3.54172274835896,1.41819311937028));
#423=CARTESIAN_POINT('Ctrl Pts',(-0.863590529670272,-3.79958290356677,1.41819311937028));
#424=CARTESIAN_POINT('Ctrl Pts',(0.268189689888924,-4.05744305877459,1.41819311937028));
#425=CARTESIAN_POINT('Ctrl Pts',(1.52182167689553,-3.77001376838903,1.41819311937028));
#426=CARTESIAN_POINT('Ctrl Pts',(2.43241815592464,-3.04421012468441,1.41819311937028));
#427=CARTESIAN_POINT('Ctrl Pts',(2.8877163954392,-2.6813083028321,1.41819311937028));
#428=CARTESIAN_POINT('Ctrl Pts',(3.25725575795939,-2.20881289265002,1.41819311937028));
#429=CARTESIAN_POINT('Ctrl Pts',(3.50836043597697,-1.68397027886894,1.41819311937028));
#430=CARTESIAN_POINT('Ctrl Pts',(3.75946511399455,-1.15912766508786,1.41819311937028));
#431=CARTESIAN_POINT('Ctrl Pts',(3.89213510750952,-0.581937847707782,1.41819311937028));
#432=CARTESIAN_POINT('Ctrl Pts',(3.89260388372019,-0.00315274197658222,
1.41819311937028));
#433=CARTESIAN_POINT('Origin',(-1.75,0.,0.));
#434=CARTESIAN_POINT('',(-2.05,-3.67394039744206E-17,-4.));
#435=CARTESIAN_POINT('Origin',(-1.75,0.,-4.));
#436=CARTESIAN_POINT('',(-2.05,-3.67394039744206E-17,0.));
#437=CARTESIAN_POINT('',(-2.05,3.67394039744206E-17,0.));
#438=CARTESIAN_POINT('Origin',(-1.75,0.,0.));
#439=CARTESIAN_POINT('Origin',(-1.75,0.,-4.));
#440=CARTESIAN_POINT('Origin',(1.75,0.,0.));
#441=CARTESIAN_POINT('',(1.45,-3.67394039744206E-17,-3.));
#442=CARTESIAN_POINT('Origin',(1.75,0.,-3.));
#443=CARTESIAN_POINT('',(1.45,-3.67394039744206E-17,0.));
#444=CARTESIAN_POINT('',(1.45,3.67394039744206E-17,0.));
#445=CARTESIAN_POINT('Origin',(1.75,0.,0.));
#446=CARTESIAN_POINT('Origin',(1.75,0.,-3.));
#447=CARTESIAN_POINT('Origin',(0.,0.,16.5));
#448=CARTESIAN_POINT('',(2.17944947177034,-2.73861278752583,17.));
#449=CARTESIAN_POINT('',(2.49079939630896,-3.12984318574381,16.5));
#450=CARTESIAN_POINT('Origin',(2.17944947177034,-2.73861278752583,16.5));
#451=CARTESIAN_POINT('',(2.49079939630896,3.12984318574381,16.5));
#452=CARTESIAN_POINT('Origin',(0.,0.,16.5));
#453=CARTESIAN_POINT('',(2.17944947177034,2.73861278752583,17.));
#454=CARTESIAN_POINT('Origin',(2.17944947177034,2.73861278752583,16.5));
#455=CARTESIAN_POINT('Origin',(0.,0.,17.));
#456=CARTESIAN_POINT('Origin',(0.,0.,16.5));
#457=CARTESIAN_POINT('Origin',(0.,0.,17.));
#458=CARTESIAN_POINT('',(-4.,-4.89858719658941E-16,16.5));
#459=CARTESIAN_POINT('Origin',(0.,0.,16.5));
#460=CARTESIAN_POINT('Origin',(0.,0.,16.5));
#461=CARTESIAN_POINT('Origin',(0.,0.,17.));
#462=CARTESIAN_POINT('',(2.17944947177034,0.00249676396022386,17.));
#463=CARTESIAN_POINT('Origin',(0.,0.,0.));
#464=CARTESIAN_POINT('',(-3.99583512798434,0.000695072285870036,1.69092415916037));
#465=CARTESIAN_POINT('',(-4.,-4.89858719658941E-16,0.));
#466=CARTESIAN_POINT('',(3.99999868802301,-0.00323972439701545,1.69092415916037));
#467=CARTESIAN_POINT('Ctrl Pts',(3.99999868802301,-0.00323972439701567,
1.69092415916037));
#468=CARTESIAN_POINT('Ctrl Pts',(3.99902940858951,-1.19998240594074,1.69092415916037));
#469=CARTESIAN_POINT('Ctrl Pts',(2.8530181206055,-3.57907291683965,1.69092415916037));
#470=CARTESIAN_POINT('Ctrl Pts',(-1.02372617854036,-4.46676976122006,1.69092415916038));
#471=CARTESIAN_POINT('Ctrl Pts',(-3.60737869103326,-2.39648643971609,1.69092415916037));
#472=CARTESIAN_POINT('Ctrl Pts',(-3.9955377992766,-0.59796847762926,1.69092415916037));
#473=CARTESIAN_POINT('Ctrl Pts',(-3.99583512798434,0.000695072285869826,
1.69092415916037));
#474=CARTESIAN_POINT('Ctrl Pts',(-3.99583512798434,0.000695072285869826,
1.69092415916037));
#475=CARTESIAN_POINT('Ctrl Pts',(-3.99613354301332,0.601545901511878,1.69092415916037));
#476=CARTESIAN_POINT('Ctrl Pts',(-3.60787396313807,2.40156941937979,1.69092415916037));
#477=CARTESIAN_POINT('Ctrl Pts',(-1.01538518667524,4.4642818929276,1.69092415916037));
#478=CARTESIAN_POINT('Ctrl Pts',(2.86044086695177,3.5764684367227,1.69092415916037));
#479=CARTESIAN_POINT('Ctrl Pts',(4.00096796745652,1.19350295714673,1.69092415916037));
#480=CARTESIAN_POINT('Ctrl Pts',(3.99999868802301,-0.00323972439701506,
1.69092415916037));
#481=CARTESIAN_POINT('Origin',(0.,0.,17.));
#482=CARTESIAN_POINT('Ctrl Pts',(3.89260388372019,-0.0031527419765822,1.41819311937028));
#483=CARTESIAN_POINT('Ctrl Pts',(3.89354713925139,1.16145894250703,1.41819311937028));
#484=CARTESIAN_POINT('Ctrl Pts',(2.78364171998057,3.48044487326328,1.41819311937028));
#485=CARTESIAN_POINT('Ctrl Pts',(-0.988123404379789,4.34442168355324,1.41819311937028));
#486=CARTESIAN_POINT('Ctrl Pts',(-4.01448026669119,1.93650227191593,1.41819311937028));
#487=CARTESIAN_POINT('Ctrl Pts',(-4.01448291760695,-1.928322073199,1.41819311937028));
#488=CARTESIAN_POINT('Ctrl Pts',(-0.99624045137419,-4.34684275579169,1.41819311937028));
#489=CARTESIAN_POINT('Ctrl Pts',(2.77641826479748,-3.48297942644916,1.41819311937028));
#490=CARTESIAN_POINT('Ctrl Pts',(3.89166062818899,-1.1677644264602,1.41819311937028));
#491=CARTESIAN_POINT('Ctrl Pts',(3.89260388372019,-0.00315274197658283,
1.41819311937028));
#492=CARTESIAN_POINT('Ctrl Pts',(3.96081008690494,-0.00320798431982272,
1.49136958505377));
#493=CARTESIAN_POINT('Ctrl Pts',(3.96176995250963,1.18191170147245,1.49136958505377));
#494=CARTESIAN_POINT('Ctrl Pts',(2.8324419793719,3.5413856906098,1.49136958505377));
#495=CARTESIAN_POINT('Ctrl Pts',(-1.0054346925209,4.4205731862034,1.49136958505377));
#496=CARTESIAN_POINT('Ctrl Pts',(-4.08485004769156,1.97042648118009,1.49136958505377));
#497=CARTESIAN_POINT('Ctrl Pts',(-4.08481817368057,-1.96209496012778,1.49136958505377));
#498=CARTESIAN_POINT('Ctrl Pts',(-1.01371242032372,-4.42306922062897,1.49136958505377));
#499=CARTESIAN_POINT('Ctrl Pts',(2.82508610588956,-3.54394666299434,1.49136958505377));
#500=CARTESIAN_POINT('Ctrl Pts',(3.95985022130025,-1.18832767011209,1.49136958505377));
#501=CARTESIAN_POINT('Ctrl Pts',(3.96081008690494,-0.00320798431982334,
1.49136958505377));
#502=CARTESIAN_POINT('Ctrl Pts',(3.99999868802301,-0.00323972439701506,
1.59088974340998));
#503=CARTESIAN_POINT('Ctrl Pts',(4.00096805374732,1.19360949803138,1.59088974340998));
#504=CARTESIAN_POINT('Ctrl Pts',(2.86046736768523,3.57642281778493,1.59088974340998));
#505=CARTESIAN_POINT('Ctrl Pts',(-1.01538245218637,4.46431180709129,1.59088974340998));
#506=CARTESIAN_POINT('Ctrl Pts',(-4.12526697597648,1.98992178037442,1.59088974340998));
#507=CARTESIAN_POINT('Ctrl Pts',(-4.12523347451602,-1.98150752332264,1.59088974340998));
#508=CARTESIAN_POINT('Ctrl Pts',(-1.02374278093168,-4.46683377249421,1.59088974340998));
#509=CARTESIAN_POINT('Ctrl Pts',(2.85303849256414,-3.57900844583362,1.59088974340998));
#510=CARTESIAN_POINT('Ctrl Pts',(3.99902932229871,-1.2000889468254,1.59088974340998));
#511=CARTESIAN_POINT('Ctrl Pts',(3.99999868802301,-0.00323972439701568,
1.59088974340998));
#512=CARTESIAN_POINT('Ctrl Pts',(3.99999868802301,-0.00323972439701506,
1.69092415916037));
#513=CARTESIAN_POINT('Ctrl Pts',(4.00096796745652,1.19350295714673,1.69092415916037));
#514=CARTESIAN_POINT('Ctrl Pts',(2.86044086695177,3.5764684367227,1.69092415916037));
#515=CARTESIAN_POINT('Ctrl Pts',(-1.01538518667524,4.4642818929276,1.69092415916037));
#516=CARTESIAN_POINT('Ctrl Pts',(-4.12523757349601,1.98992930655312,1.69092415916037));
#517=CARTESIAN_POINT('Ctrl Pts',(-4.12524029754908,-1.98152342064412,1.69092415916037));
#518=CARTESIAN_POINT('Ctrl Pts',(-1.02372617854036,-4.46676976122006,1.69092415916038));
#519=CARTESIAN_POINT('Ctrl Pts',(2.8530181206055,-3.57907291683965,1.69092415916037));
#520=CARTESIAN_POINT('Ctrl Pts',(3.99902940858951,-1.19998240594074,1.69092415916037));
#521=CARTESIAN_POINT('Ctrl Pts',(3.99999868802301,-0.00323972439701567,
1.69092415916037));
#522=CARTESIAN_POINT('Origin',(3.59999881922071,-0.00291575195731357,1.69092415916037));
#523=CARTESIAN_POINT('Ctrl Pts',(3.89260388372019,-0.0031527419765822,1.41819311937028));
#524=CARTESIAN_POINT('Ctrl Pts',(3.89260473488828,-0.00210182813496918,
1.41819311937028));
#525=CARTESIAN_POINT('Ctrl Pts',(3.8926051334033,-0.00105091846140919,1.41819311937028));
#526=CARTESIAN_POINT('Ctrl Pts',(3.8926050794157,-1.32723221623395E-8,1.41819311937028));
#527=CARTESIAN_POINT('Ctrl Pts',(3.8926038837202,-0.00315274197658224,1.41819311937028));
#528=CARTESIAN_POINT('Ctrl Pts',(3.89260473490695,-0.00210180507486875,
1.41819311937028));
#529=CARTESIAN_POINT('Ctrl Pts',(3.89260516047229,-0.00105089091505723,
1.41819311937028));
#530=CARTESIAN_POINT('Ctrl Pts',(3.89260516047229,-4.62213700301617E-16,
1.41819311937028));
#531=CARTESIAN_POINT('Ctrl Pts',(3.82439768053545,-0.00309749963334172,
1.34501665368679));
#532=CARTESIAN_POINT('Ctrl Pts',(3.82439851667337,-0.00206514311805863,
1.34501665368679));
#533=CARTESIAN_POINT('Ctrl Pts',(3.82439893491629,-0.00103231134166311,
1.34501665368679));
#534=CARTESIAN_POINT('Ctrl Pts',(3.82439893491629,-4.42576289658013E-16,
1.34501665368679));
#535=CARTESIAN_POINT('Ctrl Pts',(3.7458629410698,-0.00303389188461371,1.14546207958019));
#536=CARTESIAN_POINT('Ctrl Pts',(3.74586376031447,-0.00202239300763573,
1.14546207958019));
#537=CARTESIAN_POINT('Ctrl Pts',(3.7458641696917,-0.00101145461604173,1.14546207958019));
#538=CARTESIAN_POINT('Ctrl Pts',(3.7458641696917,-3.94391558111712E-16,
1.14546207958019));
#539=CARTESIAN_POINT('Ctrl Pts',(3.82439768053544,-0.00309749963334167,
0.945907505473583));
#540=CARTESIAN_POINT('Ctrl Pts',(3.82439851667336,-0.00206514311805858,
0.945907505473583));
#541=CARTESIAN_POINT('Ctrl Pts',(3.82439893491629,-0.00103231134166302,
0.945907505473583));
#542=CARTESIAN_POINT('Ctrl Pts',(3.82439893491629,-3.5405128265965E-16,
0.945907505473583));
#543=CARTESIAN_POINT('Ctrl Pts',(3.89260388372019,-0.00315274197658218,
0.872731039790093));
#544=CARTESIAN_POINT('Ctrl Pts',(3.89260473490695,-0.0021018050748687,0.872731039790093));
#545=CARTESIAN_POINT('Ctrl Pts',(3.89260516047229,-0.00105089091505711,
0.872731039790093));
#546=CARTESIAN_POINT('Ctrl Pts',(3.89260516047229,-3.4122666046964E-16,
0.872731039790093));
#547=CARTESIAN_POINT('Origin',(0.,0.,0.6));
#548=CARTESIAN_POINT('',(4.,-4.89858719658941E-16,0.6));
#549=CARTESIAN_POINT('Origin',(3.6,-4.40872847693047E-16,0.6));
#550=CARTESIAN_POINT('',(-4.,-4.89858719658941E-16,0.6));
#551=CARTESIAN_POINT('Origin',(0.,0.,0.6));
#552=CARTESIAN_POINT('Origin',(0.,0.,0.6));
#553=CARTESIAN_POINT('Origin',(0.,0.,0.));
#554=CARTESIAN_POINT('',(-4.,-4.89858719658941E-16,0.));
#555=CARTESIAN_POINT('',(-4.,-4.89858719658941E-16,0.));
#556=CARTESIAN_POINT('Origin',(0.,0.,0.));
#557=CARTESIAN_POINT('Origin',(0.,0.,0.));
#558=UNCERTAINTY_MEASURE_WITH_UNIT(LENGTH_MEASURE(0.01),#562,
'DISTANCE_ACCURACY_VALUE',
'Maximum model space distance between geometric entities at asserted c
onnectivities');
#559=UNCERTAINTY_MEASURE_WITH_UNIT(LENGTH_MEASURE(0.01),#562,
'DISTANCE_ACCURACY_VALUE',
'Maximum model space distance between geometric entities at asserted c
onnectivities');
#560=(
GEOMETRIC_REPRESENTATION_CONTEXT(3)
GLOBAL_UNCERTAINTY_ASSIGNED_CONTEXT((#558))
GLOBAL_UNIT_ASSIGNED_CONTEXT((#562,#564,#565))
REPRESENTATION_CONTEXT('','3D')
);
#561=(
GEOMETRIC_REPRESENTATION_CONTEXT(3)
GLOBAL_UNCERTAINTY_ASSIGNED_CONTEXT((#559))
GLOBAL_UNIT_ASSIGNED_CONTEXT((#562,#564,#565))
REPRESENTATION_CONTEXT('','3D')
);
#562=(
LENGTH_UNIT()
NAMED_UNIT(*)
SI_UNIT(.MILLI.,.METRE.)
);
#563=(
LENGTH_UNIT()
NAMED_UNIT(*)
SI_UNIT($,.METRE.)
);
#564=(
NAMED_UNIT(*)
PLANE_ANGLE_UNIT()
SI_UNIT($,.RADIAN.)
);
#565=(
NAMED_UNIT(*)
SI_UNIT($,.STERADIAN.)
SOLID_ANGLE_UNIT()
);
#566=SHAPE_DEFINITION_REPRESENTATION(#567,#568);
#567=PRODUCT_DEFINITION_SHAPE('',$,#570);
#568=SHAPE_REPRESENTATION('',(#228),#560);
#569=PRODUCT_DEFINITION_CONTEXT('part definition',#574,'design');
#570=PRODUCT_DEFINITION('CP_Polymer_SH227M063F1700',
'CP_Polymer_SH227M063F1700 v2',#571,#569);
#571=PRODUCT_DEFINITION_FORMATION('',$,#576);
#572=PRODUCT_RELATED_PRODUCT_CATEGORY('CP_Polymer_SH227M063F1700 v2',
'CP_Polymer_SH227M063F1700 v2',(#576));
#573=APPLICATION_PROTOCOL_DEFINITION('international standard',
'automotive_design',2009,#574);
#574=APPLICATION_CONTEXT(
'Core Data for Automotive Mechanical Design Process');
#575=PRODUCT_CONTEXT('part definition',#574,'mechanical');
#576=PRODUCT('CP_Polymer_SH227M063F1700','CP_Polymer_SH227M063F1700 v2',
$,(#575));
#577=PRESENTATION_STYLE_ASSIGNMENT((#580));
#578=PRESENTATION_STYLE_ASSIGNMENT((#581));
#579=PRESENTATION_STYLE_ASSIGNMENT((#582));
#580=SURFACE_STYLE_USAGE(.BOTH.,#583);
#581=SURFACE_STYLE_USAGE(.BOTH.,#584);
#582=SURFACE_STYLE_USAGE(.BOTH.,#585);
#583=SURFACE_SIDE_STYLE('',(#586));
#584=SURFACE_SIDE_STYLE('',(#587));
#585=SURFACE_SIDE_STYLE('',(#588));
#586=SURFACE_STYLE_FILL_AREA(#589);
#587=SURFACE_STYLE_FILL_AREA(#590);
#588=SURFACE_STYLE_FILL_AREA(#591);
#589=FILL_AREA_STYLE('Steel - Satin',(#592));
#590=FILL_AREA_STYLE('Aluminum - Satin',(#593));
#591=FILL_AREA_STYLE('Aluminum - Anodized Rough (Red)',(#594));
#592=FILL_AREA_STYLE_COLOUR('Steel - Satin',#595);
#593=FILL_AREA_STYLE_COLOUR('Aluminum - Satin',#596);
#594=FILL_AREA_STYLE_COLOUR('Aluminum - Anodized Rough (Red)',#597);
#595=COLOUR_RGB('Steel - Satin',0.627450980392157,0.627450980392157,0.627450980392157);
#596=COLOUR_RGB('Aluminum - Satin',0.96078431372549,0.96078431372549,0.964705882352941);
#597=COLOUR_RGB('Aluminum - Anodized Rough (Red)',0.854901960784314,0.349019607843137,
0.349019607843137);
ENDSEC;
END-ISO-10303-21;
