ISO-10303-21;
HEADER;
/* Generated by software containing ST-Developer
 * from STEP Tools, Inc. (www.steptools.com) 
 */

FILE_DESCRIPTION(
/* description */ (''),
/* implementation_level */ '2;1');

FILE_NAME(
/* name */ 'IHSR-6767GZ-5A v2.step',
/* time_stamp */ '2025-11-07T21:31:19+01:00',
/* author */ (''),
/* organization */ (''),
/* preprocessor_version */ 'ST-DEVELOPER v20.1',
/* originating_system */ 'Autodesk Translation Framework v14.17.0.0',
/* authorisation */ '');

FILE_SCHEMA (('AUTOMOTIVE_DESIGN { 1 0 10303 214 3 1 1 }'));
ENDSEC;

DATA;
#10=MECHANICAL_DESIGN_GEOMETRIC_PRESENTATION_REPRESENTATION('',(#25,#26,
#27),#1021);
#11=SHAPE_REPRESENTATION_RELATIONSHIP('SRR','None',#1028,#12);
#12=ADVANCED_BREP_SHAPE_REPRESENTATION('',(#28,#29,#30),#1020);
#13=CIRCLE('',#665,1.);
#14=CIRCLE('',#666,1.);
#15=CIRCLE('',#669,1.);
#16=CIRCLE('',#670,1.);
#17=CIRCLE('',#673,1.);
#18=CIRCLE('',#674,1.);
#19=CIRCLE('',#677,1.);
#20=CIRCLE('',#678,1.);
#21=CYLINDRICAL_SURFACE('',#664,1.);
#22=CYLINDRICAL_SURFACE('',#668,1.);
#23=CYLINDRICAL_SURFACE('',#672,1.);
#24=CYLINDRICAL_SURFACE('',#676,1.);
#25=STYLED_ITEM('',(#1038),#28);
#26=STYLED_ITEM('',(#1038),#29);
#27=STYLED_ITEM('',(#1039),#30);
#28=MANIFOLD_SOLID_BREP('Body2',#623);
#29=MANIFOLD_SOLID_BREP('Body3',#624);
#30=MANIFOLD_SOLID_BREP('Body8',#625);
#31=FACE_OUTER_BOUND('',#65,.T.);
#32=FACE_OUTER_BOUND('',#66,.T.);
#33=FACE_OUTER_BOUND('',#67,.T.);
#34=FACE_OUTER_BOUND('',#68,.T.);
#35=FACE_OUTER_BOUND('',#69,.T.);
#36=FACE_OUTER_BOUND('',#70,.T.);
#37=FACE_OUTER_BOUND('',#71,.T.);
#38=FACE_OUTER_BOUND('',#72,.T.);
#39=FACE_OUTER_BOUND('',#73,.T.);
#40=FACE_OUTER_BOUND('',#74,.T.);
#41=FACE_OUTER_BOUND('',#75,.T.);
#42=FACE_OUTER_BOUND('',#76,.T.);
#43=FACE_OUTER_BOUND('',#77,.T.);
#44=FACE_OUTER_BOUND('',#78,.T.);
#45=FACE_OUTER_BOUND('',#79,.T.);
#46=FACE_OUTER_BOUND('',#80,.T.);
#47=FACE_OUTER_BOUND('',#81,.T.);
#48=FACE_OUTER_BOUND('',#82,.T.);
#49=FACE_OUTER_BOUND('',#83,.T.);
#50=FACE_OUTER_BOUND('',#84,.T.);
#51=FACE_OUTER_BOUND('',#85,.T.);
#52=FACE_OUTER_BOUND('',#86,.T.);
#53=FACE_OUTER_BOUND('',#87,.T.);
#54=FACE_OUTER_BOUND('',#88,.T.);
#55=FACE_OUTER_BOUND('',#89,.T.);
#56=FACE_OUTER_BOUND('',#90,.T.);
#57=FACE_OUTER_BOUND('',#91,.T.);
#58=FACE_OUTER_BOUND('',#92,.T.);
#59=FACE_OUTER_BOUND('',#93,.T.);
#60=FACE_OUTER_BOUND('',#94,.T.);
#61=FACE_OUTER_BOUND('',#95,.T.);
#62=FACE_OUTER_BOUND('',#96,.T.);
#63=FACE_OUTER_BOUND('',#97,.T.);
#64=FACE_OUTER_BOUND('',#98,.T.);
#65=EDGE_LOOP('',(#391,#392,#393,#394));
#66=EDGE_LOOP('',(#395,#396,#397,#398));
#67=EDGE_LOOP('',(#399,#400,#401,#402));
#68=EDGE_LOOP('',(#403,#404,#405,#406));
#69=EDGE_LOOP('',(#407,#408,#409,#410));
#70=EDGE_LOOP('',(#411,#412,#413,#414));
#71=EDGE_LOOP('',(#415,#416,#417,#418,#419,#420));
#72=EDGE_LOOP('',(#421,#422,#423,#424));
#73=EDGE_LOOP('',(#425,#426,#427,#428,#429,#430,#431,#432));
#74=EDGE_LOOP('',(#433,#434,#435,#436,#437,#438));
#75=EDGE_LOOP('',(#439,#440,#441,#442,#443,#444,#445,#446));
#76=EDGE_LOOP('',(#447,#448,#449,#450));
#77=EDGE_LOOP('',(#451,#452,#453,#454));
#78=EDGE_LOOP('',(#455,#456,#457,#458));
#79=EDGE_LOOP('',(#459,#460,#461,#462));
#80=EDGE_LOOP('',(#463,#464,#465,#466));
#81=EDGE_LOOP('',(#467,#468,#469,#470));
#82=EDGE_LOOP('',(#471,#472,#473,#474));
#83=EDGE_LOOP('',(#475,#476,#477,#478,#479,#480));
#84=EDGE_LOOP('',(#481,#482,#483,#484));
#85=EDGE_LOOP('',(#485,#486,#487,#488,#489,#490,#491,#492));
#86=EDGE_LOOP('',(#493,#494,#495,#496,#497,#498));
#87=EDGE_LOOP('',(#499,#500,#501,#502,#503,#504,#505,#506));
#88=EDGE_LOOP('',(#507,#508,#509,#510));
#89=EDGE_LOOP('',(#511,#512,#513,#514));
#90=EDGE_LOOP('',(#515,#516,#517,#518));
#91=EDGE_LOOP('',(#519,#520,#521,#522));
#92=EDGE_LOOP('',(#523,#524,#525,#526));
#93=EDGE_LOOP('',(#527,#528,#529,#530));
#94=EDGE_LOOP('',(#531,#532,#533,#534));
#95=EDGE_LOOP('',(#535,#536,#537,#538));
#96=EDGE_LOOP('',(#539,#540,#541,#542));
#97=EDGE_LOOP('',(#543,#544,#545,#546,#547,#548,#549,#550));
#98=EDGE_LOOP('',(#551,#552,#553,#554,#555,#556,#557,#558));
#99=LINE('',#847,#175);
#100=LINE('',#849,#176);
#101=LINE('',#851,#177);
#102=LINE('',#852,#178);
#103=LINE('',#855,#179);
#104=LINE('',#857,#180);
#105=LINE('',#858,#181);
#106=LINE('',#862,#182);
#107=LINE('',#863,#183);
#108=LINE('',#864,#184);
#109=LINE('',#868,#185);
#110=LINE('',#870,#186);
#111=LINE('',#872,#187);
#112=LINE('',#873,#188);
#113=LINE('',#877,#189);
#114=LINE('',#879,#190);
#115=LINE('',#881,#191);
#116=LINE('',#882,#192);
#117=LINE('',#884,#193);
#118=LINE('',#885,#194);
#119=LINE('',#888,#195);
#120=LINE('',#890,#196);
#121=LINE('',#891,#197);
#122=LINE('',#893,#198);
#123=LINE('',#894,#199);
#124=LINE('',#897,#200);
#125=LINE('',#898,#201);
#126=LINE('',#901,#202);
#127=LINE('',#902,#203);
#128=LINE('',#904,#204);
#129=LINE('',#909,#205);
#130=LINE('',#911,#206);
#131=LINE('',#913,#207);
#132=LINE('',#914,#208);
#133=LINE('',#918,#209);
#134=LINE('',#919,#210);
#135=LINE('',#920,#211);
#136=LINE('',#924,#212);
#137=LINE('',#925,#213);
#138=LINE('',#926,#214);
#139=LINE('',#930,#215);
#140=LINE('',#932,#216);
#141=LINE('',#934,#217);
#142=LINE('',#935,#218);
#143=LINE('',#939,#219);
#144=LINE('',#941,#220);
#145=LINE('',#943,#221);
#146=LINE('',#944,#222);
#147=LINE('',#946,#223);
#148=LINE('',#947,#224);
#149=LINE('',#950,#225);
#150=LINE('',#952,#226);
#151=LINE('',#953,#227);
#152=LINE('',#955,#228);
#153=LINE('',#956,#229);
#154=LINE('',#959,#230);
#155=LINE('',#960,#231);
#156=LINE('',#963,#232);
#157=LINE('',#964,#233);
#158=LINE('',#966,#234);
#159=LINE('',#971,#235);
#160=LINE('',#973,#236);
#161=LINE('',#975,#237);
#162=LINE('',#976,#238);
#163=LINE('',#982,#239);
#164=LINE('',#985,#240);
#165=LINE('',#987,#241);
#166=LINE('',#988,#242);
#167=LINE('',#994,#243);
#168=LINE('',#997,#244);
#169=LINE('',#999,#245);
#170=LINE('',#1000,#246);
#171=LINE('',#1006,#247);
#172=LINE('',#1009,#248);
#173=LINE('',#1011,#249);
#174=LINE('',#1012,#250);
#175=VECTOR('',#685,10.);
#176=VECTOR('',#686,10.);
#177=VECTOR('',#687,10.);
#178=VECTOR('',#688,10.);
#179=VECTOR('',#691,10.);
#180=VECTOR('',#692,10.);
#181=VECTOR('',#693,10.);
#182=VECTOR('',#696,10.);
#183=VECTOR('',#697,10.);
#184=VECTOR('',#698,10.);
#185=VECTOR('',#701,10.);
#186=VECTOR('',#702,10.);
#187=VECTOR('',#703,10.);
#188=VECTOR('',#704,10.);
#189=VECTOR('',#707,10.);
#190=VECTOR('',#708,10.);
#191=VECTOR('',#709,10.);
#192=VECTOR('',#710,10.);
#193=VECTOR('',#713,10.);
#194=VECTOR('',#714,10.);
#195=VECTOR('',#717,10.);
#196=VECTOR('',#718,10.);
#197=VECTOR('',#719,10.);
#198=VECTOR('',#722,10.);
#199=VECTOR('',#723,10.);
#200=VECTOR('',#726,10.);
#201=VECTOR('',#727,10.);
#202=VECTOR('',#730,10.);
#203=VECTOR('',#731,10.);
#204=VECTOR('',#734,10.);
#205=VECTOR('',#739,10.);
#206=VECTOR('',#740,10.);
#207=VECTOR('',#741,10.);
#208=VECTOR('',#742,10.);
#209=VECTOR('',#745,10.);
#210=VECTOR('',#746,10.);
#211=VECTOR('',#747,10.);
#212=VECTOR('',#750,10.);
#213=VECTOR('',#751,10.);
#214=VECTOR('',#752,10.);
#215=VECTOR('',#755,10.);
#216=VECTOR('',#756,10.);
#217=VECTOR('',#757,10.);
#218=VECTOR('',#758,10.);
#219=VECTOR('',#761,10.);
#220=VECTOR('',#762,10.);
#221=VECTOR('',#763,10.);
#222=VECTOR('',#764,10.);
#223=VECTOR('',#767,10.);
#224=VECTOR('',#768,10.);
#225=VECTOR('',#771,10.);
#226=VECTOR('',#772,10.);
#227=VECTOR('',#773,10.);
#228=VECTOR('',#776,10.);
#229=VECTOR('',#777,10.);
#230=VECTOR('',#780,10.);
#231=VECTOR('',#781,10.);
#232=VECTOR('',#784,10.);
#233=VECTOR('',#785,10.);
#234=VECTOR('',#788,10.);
#235=VECTOR('',#793,10.);
#236=VECTOR('',#794,10.);
#237=VECTOR('',#795,10.);
#238=VECTOR('',#796,10.);
#239=VECTOR('',#803,10.);
#240=VECTOR('',#806,10.);
#241=VECTOR('',#807,10.);
#242=VECTOR('',#808,10.);
#243=VECTOR('',#815,10.);
#244=VECTOR('',#818,10.);
#245=VECTOR('',#819,10.);
#246=VECTOR('',#820,10.);
#247=VECTOR('',#827,10.);
#248=VECTOR('',#830,10.);
#249=VECTOR('',#831,10.);
#250=VECTOR('',#832,10.);
#251=VERTEX_POINT('',#845);
#252=VERTEX_POINT('',#846);
#253=VERTEX_POINT('',#848);
#254=VERTEX_POINT('',#850);
#255=VERTEX_POINT('',#854);
#256=VERTEX_POINT('',#856);
#257=VERTEX_POINT('',#860);
#258=VERTEX_POINT('',#861);
#259=VERTEX_POINT('',#866);
#260=VERTEX_POINT('',#867);
#261=VERTEX_POINT('',#869);
#262=VERTEX_POINT('',#871);
#263=VERTEX_POINT('',#875);
#264=VERTEX_POINT('',#876);
#265=VERTEX_POINT('',#878);
#266=VERTEX_POINT('',#880);
#267=VERTEX_POINT('',#887);
#268=VERTEX_POINT('',#889);
#269=VERTEX_POINT('',#896);
#270=VERTEX_POINT('',#900);
#271=VERTEX_POINT('',#907);
#272=VERTEX_POINT('',#908);
#273=VERTEX_POINT('',#910);
#274=VERTEX_POINT('',#912);
#275=VERTEX_POINT('',#916);
#276=VERTEX_POINT('',#917);
#277=VERTEX_POINT('',#922);
#278=VERTEX_POINT('',#923);
#279=VERTEX_POINT('',#928);
#280=VERTEX_POINT('',#929);
#281=VERTEX_POINT('',#931);
#282=VERTEX_POINT('',#933);
#283=VERTEX_POINT('',#937);
#284=VERTEX_POINT('',#938);
#285=VERTEX_POINT('',#940);
#286=VERTEX_POINT('',#942);
#287=VERTEX_POINT('',#949);
#288=VERTEX_POINT('',#951);
#289=VERTEX_POINT('',#958);
#290=VERTEX_POINT('',#962);
#291=VERTEX_POINT('',#969);
#292=VERTEX_POINT('',#970);
#293=VERTEX_POINT('',#972);
#294=VERTEX_POINT('',#974);
#295=VERTEX_POINT('',#978);
#296=VERTEX_POINT('',#980);
#297=VERTEX_POINT('',#984);
#298=VERTEX_POINT('',#986);
#299=VERTEX_POINT('',#990);
#300=VERTEX_POINT('',#992);
#301=VERTEX_POINT('',#996);
#302=VERTEX_POINT('',#998);
#303=VERTEX_POINT('',#1002);
#304=VERTEX_POINT('',#1004);
#305=VERTEX_POINT('',#1008);
#306=VERTEX_POINT('',#1010);
#307=EDGE_CURVE('',#251,#252,#99,.T.);
#308=EDGE_CURVE('',#251,#253,#100,.T.);
#309=EDGE_CURVE('',#254,#253,#101,.T.);
#310=EDGE_CURVE('',#252,#254,#102,.T.);
#311=EDGE_CURVE('',#253,#255,#103,.T.);
#312=EDGE_CURVE('',#255,#256,#104,.T.);
#313=EDGE_CURVE('',#256,#254,#105,.T.);
#314=EDGE_CURVE('',#257,#258,#106,.T.);
#315=EDGE_CURVE('',#251,#257,#107,.T.);
#316=EDGE_CURVE('',#258,#252,#108,.T.);
#317=EDGE_CURVE('',#259,#260,#109,.T.);
#318=EDGE_CURVE('',#259,#261,#110,.T.);
#319=EDGE_CURVE('',#262,#261,#111,.T.);
#320=EDGE_CURVE('',#260,#262,#112,.T.);
#321=EDGE_CURVE('',#263,#264,#113,.T.);
#322=EDGE_CURVE('',#263,#265,#114,.T.);
#323=EDGE_CURVE('',#266,#265,#115,.T.);
#324=EDGE_CURVE('',#264,#266,#116,.T.);
#325=EDGE_CURVE('',#261,#266,#117,.T.);
#326=EDGE_CURVE('',#265,#262,#118,.T.);
#327=EDGE_CURVE('',#256,#267,#119,.T.);
#328=EDGE_CURVE('',#268,#267,#120,.T.);
#329=EDGE_CURVE('',#258,#268,#121,.T.);
#330=EDGE_CURVE('',#264,#268,#122,.T.);
#331=EDGE_CURVE('',#267,#263,#123,.T.);
#332=EDGE_CURVE('',#269,#259,#124,.T.);
#333=EDGE_CURVE('',#257,#269,#125,.T.);
#334=EDGE_CURVE('',#270,#269,#126,.T.);
#335=EDGE_CURVE('',#255,#270,#127,.T.);
#336=EDGE_CURVE('',#260,#270,#128,.T.);
#337=EDGE_CURVE('',#271,#272,#129,.T.);
#338=EDGE_CURVE('',#272,#273,#130,.T.);
#339=EDGE_CURVE('',#274,#273,#131,.T.);
#340=EDGE_CURVE('',#271,#274,#132,.T.);
#341=EDGE_CURVE('',#275,#276,#133,.T.);
#342=EDGE_CURVE('',#276,#274,#134,.T.);
#343=EDGE_CURVE('',#273,#275,#135,.T.);
#344=EDGE_CURVE('',#277,#278,#136,.T.);
#345=EDGE_CURVE('',#272,#278,#137,.T.);
#346=EDGE_CURVE('',#277,#271,#138,.T.);
#347=EDGE_CURVE('',#279,#280,#139,.T.);
#348=EDGE_CURVE('',#279,#281,#140,.T.);
#349=EDGE_CURVE('',#282,#281,#141,.T.);
#350=EDGE_CURVE('',#280,#282,#142,.T.);
#351=EDGE_CURVE('',#283,#284,#143,.T.);
#352=EDGE_CURVE('',#283,#285,#144,.T.);
#353=EDGE_CURVE('',#286,#285,#145,.T.);
#354=EDGE_CURVE('',#284,#286,#146,.T.);
#355=EDGE_CURVE('',#281,#286,#147,.T.);
#356=EDGE_CURVE('',#285,#282,#148,.T.);
#357=EDGE_CURVE('',#278,#287,#149,.T.);
#358=EDGE_CURVE('',#288,#287,#150,.T.);
#359=EDGE_CURVE('',#275,#288,#151,.T.);
#360=EDGE_CURVE('',#284,#288,#152,.T.);
#361=EDGE_CURVE('',#287,#283,#153,.T.);
#362=EDGE_CURVE('',#289,#279,#154,.T.);
#363=EDGE_CURVE('',#276,#289,#155,.T.);
#364=EDGE_CURVE('',#290,#289,#156,.T.);
#365=EDGE_CURVE('',#277,#290,#157,.T.);
#366=EDGE_CURVE('',#280,#290,#158,.T.);
#367=EDGE_CURVE('',#291,#292,#159,.T.);
#368=EDGE_CURVE('',#291,#293,#160,.T.);
#369=EDGE_CURVE('',#294,#293,#161,.T.);
#370=EDGE_CURVE('',#292,#294,#162,.T.);
#371=EDGE_CURVE('',#292,#295,#13,.T.);
#372=EDGE_CURVE('',#296,#294,#14,.T.);
#373=EDGE_CURVE('',#295,#296,#163,.T.);
#374=EDGE_CURVE('',#295,#297,#164,.T.);
#375=EDGE_CURVE('',#298,#296,#165,.T.);
#376=EDGE_CURVE('',#297,#298,#166,.T.);
#377=EDGE_CURVE('',#297,#299,#15,.T.);
#378=EDGE_CURVE('',#300,#298,#16,.T.);
#379=EDGE_CURVE('',#299,#300,#167,.T.);
#380=EDGE_CURVE('',#299,#301,#168,.T.);
#381=EDGE_CURVE('',#302,#300,#169,.T.);
#382=EDGE_CURVE('',#301,#302,#170,.T.);
#383=EDGE_CURVE('',#301,#303,#17,.T.);
#384=EDGE_CURVE('',#304,#302,#18,.T.);
#385=EDGE_CURVE('',#303,#304,#171,.T.);
#386=EDGE_CURVE('',#303,#305,#172,.T.);
#387=EDGE_CURVE('',#306,#304,#173,.T.);
#388=EDGE_CURVE('',#305,#306,#174,.T.);
#389=EDGE_CURVE('',#305,#291,#19,.T.);
#390=EDGE_CURVE('',#293,#306,#20,.T.);
#391=ORIENTED_EDGE('',*,*,#307,.F.);
#392=ORIENTED_EDGE('',*,*,#308,.T.);
#393=ORIENTED_EDGE('',*,*,#309,.F.);
#394=ORIENTED_EDGE('',*,*,#310,.F.);
#395=ORIENTED_EDGE('',*,*,#311,.T.);
#396=ORIENTED_EDGE('',*,*,#312,.T.);
#397=ORIENTED_EDGE('',*,*,#313,.T.);
#398=ORIENTED_EDGE('',*,*,#309,.T.);
#399=ORIENTED_EDGE('',*,*,#314,.F.);
#400=ORIENTED_EDGE('',*,*,#315,.F.);
#401=ORIENTED_EDGE('',*,*,#307,.T.);
#402=ORIENTED_EDGE('',*,*,#316,.F.);
#403=ORIENTED_EDGE('',*,*,#317,.F.);
#404=ORIENTED_EDGE('',*,*,#318,.T.);
#405=ORIENTED_EDGE('',*,*,#319,.F.);
#406=ORIENTED_EDGE('',*,*,#320,.F.);
#407=ORIENTED_EDGE('',*,*,#321,.F.);
#408=ORIENTED_EDGE('',*,*,#322,.T.);
#409=ORIENTED_EDGE('',*,*,#323,.F.);
#410=ORIENTED_EDGE('',*,*,#324,.F.);
#411=ORIENTED_EDGE('',*,*,#319,.T.);
#412=ORIENTED_EDGE('',*,*,#325,.T.);
#413=ORIENTED_EDGE('',*,*,#323,.T.);
#414=ORIENTED_EDGE('',*,*,#326,.T.);
#415=ORIENTED_EDGE('',*,*,#327,.T.);
#416=ORIENTED_EDGE('',*,*,#328,.F.);
#417=ORIENTED_EDGE('',*,*,#329,.F.);
#418=ORIENTED_EDGE('',*,*,#316,.T.);
#419=ORIENTED_EDGE('',*,*,#310,.T.);
#420=ORIENTED_EDGE('',*,*,#313,.F.);
#421=ORIENTED_EDGE('',*,*,#321,.T.);
#422=ORIENTED_EDGE('',*,*,#330,.T.);
#423=ORIENTED_EDGE('',*,*,#328,.T.);
#424=ORIENTED_EDGE('',*,*,#331,.T.);
#425=ORIENTED_EDGE('',*,*,#314,.T.);
#426=ORIENTED_EDGE('',*,*,#329,.T.);
#427=ORIENTED_EDGE('',*,*,#330,.F.);
#428=ORIENTED_EDGE('',*,*,#324,.T.);
#429=ORIENTED_EDGE('',*,*,#325,.F.);
#430=ORIENTED_EDGE('',*,*,#318,.F.);
#431=ORIENTED_EDGE('',*,*,#332,.F.);
#432=ORIENTED_EDGE('',*,*,#333,.F.);
#433=ORIENTED_EDGE('',*,*,#333,.T.);
#434=ORIENTED_EDGE('',*,*,#334,.F.);
#435=ORIENTED_EDGE('',*,*,#335,.F.);
#436=ORIENTED_EDGE('',*,*,#311,.F.);
#437=ORIENTED_EDGE('',*,*,#308,.F.);
#438=ORIENTED_EDGE('',*,*,#315,.T.);
#439=ORIENTED_EDGE('',*,*,#335,.T.);
#440=ORIENTED_EDGE('',*,*,#336,.F.);
#441=ORIENTED_EDGE('',*,*,#320,.T.);
#442=ORIENTED_EDGE('',*,*,#326,.F.);
#443=ORIENTED_EDGE('',*,*,#322,.F.);
#444=ORIENTED_EDGE('',*,*,#331,.F.);
#445=ORIENTED_EDGE('',*,*,#327,.F.);
#446=ORIENTED_EDGE('',*,*,#312,.F.);
#447=ORIENTED_EDGE('',*,*,#317,.T.);
#448=ORIENTED_EDGE('',*,*,#336,.T.);
#449=ORIENTED_EDGE('',*,*,#334,.T.);
#450=ORIENTED_EDGE('',*,*,#332,.T.);
#451=ORIENTED_EDGE('',*,*,#337,.T.);
#452=ORIENTED_EDGE('',*,*,#338,.T.);
#453=ORIENTED_EDGE('',*,*,#339,.F.);
#454=ORIENTED_EDGE('',*,*,#340,.F.);
#455=ORIENTED_EDGE('',*,*,#341,.T.);
#456=ORIENTED_EDGE('',*,*,#342,.T.);
#457=ORIENTED_EDGE('',*,*,#339,.T.);
#458=ORIENTED_EDGE('',*,*,#343,.T.);
#459=ORIENTED_EDGE('',*,*,#344,.T.);
#460=ORIENTED_EDGE('',*,*,#345,.F.);
#461=ORIENTED_EDGE('',*,*,#337,.F.);
#462=ORIENTED_EDGE('',*,*,#346,.F.);
#463=ORIENTED_EDGE('',*,*,#347,.F.);
#464=ORIENTED_EDGE('',*,*,#348,.T.);
#465=ORIENTED_EDGE('',*,*,#349,.F.);
#466=ORIENTED_EDGE('',*,*,#350,.F.);
#467=ORIENTED_EDGE('',*,*,#351,.F.);
#468=ORIENTED_EDGE('',*,*,#352,.T.);
#469=ORIENTED_EDGE('',*,*,#353,.F.);
#470=ORIENTED_EDGE('',*,*,#354,.F.);
#471=ORIENTED_EDGE('',*,*,#355,.T.);
#472=ORIENTED_EDGE('',*,*,#353,.T.);
#473=ORIENTED_EDGE('',*,*,#356,.T.);
#474=ORIENTED_EDGE('',*,*,#349,.T.);
#475=ORIENTED_EDGE('',*,*,#357,.T.);
#476=ORIENTED_EDGE('',*,*,#358,.F.);
#477=ORIENTED_EDGE('',*,*,#359,.F.);
#478=ORIENTED_EDGE('',*,*,#343,.F.);
#479=ORIENTED_EDGE('',*,*,#338,.F.);
#480=ORIENTED_EDGE('',*,*,#345,.T.);
#481=ORIENTED_EDGE('',*,*,#360,.T.);
#482=ORIENTED_EDGE('',*,*,#358,.T.);
#483=ORIENTED_EDGE('',*,*,#361,.T.);
#484=ORIENTED_EDGE('',*,*,#351,.T.);
#485=ORIENTED_EDGE('',*,*,#359,.T.);
#486=ORIENTED_EDGE('',*,*,#360,.F.);
#487=ORIENTED_EDGE('',*,*,#354,.T.);
#488=ORIENTED_EDGE('',*,*,#355,.F.);
#489=ORIENTED_EDGE('',*,*,#348,.F.);
#490=ORIENTED_EDGE('',*,*,#362,.F.);
#491=ORIENTED_EDGE('',*,*,#363,.F.);
#492=ORIENTED_EDGE('',*,*,#341,.F.);
#493=ORIENTED_EDGE('',*,*,#363,.T.);
#494=ORIENTED_EDGE('',*,*,#364,.F.);
#495=ORIENTED_EDGE('',*,*,#365,.F.);
#496=ORIENTED_EDGE('',*,*,#346,.T.);
#497=ORIENTED_EDGE('',*,*,#340,.T.);
#498=ORIENTED_EDGE('',*,*,#342,.F.);
#499=ORIENTED_EDGE('',*,*,#344,.F.);
#500=ORIENTED_EDGE('',*,*,#365,.T.);
#501=ORIENTED_EDGE('',*,*,#366,.F.);
#502=ORIENTED_EDGE('',*,*,#350,.T.);
#503=ORIENTED_EDGE('',*,*,#356,.F.);
#504=ORIENTED_EDGE('',*,*,#352,.F.);
#505=ORIENTED_EDGE('',*,*,#361,.F.);
#506=ORIENTED_EDGE('',*,*,#357,.F.);
#507=ORIENTED_EDGE('',*,*,#366,.T.);
#508=ORIENTED_EDGE('',*,*,#364,.T.);
#509=ORIENTED_EDGE('',*,*,#362,.T.);
#510=ORIENTED_EDGE('',*,*,#347,.T.);
#511=ORIENTED_EDGE('',*,*,#367,.F.);
#512=ORIENTED_EDGE('',*,*,#368,.T.);
#513=ORIENTED_EDGE('',*,*,#369,.F.);
#514=ORIENTED_EDGE('',*,*,#370,.F.);
#515=ORIENTED_EDGE('',*,*,#371,.F.);
#516=ORIENTED_EDGE('',*,*,#370,.T.);
#517=ORIENTED_EDGE('',*,*,#372,.F.);
#518=ORIENTED_EDGE('',*,*,#373,.F.);
#519=ORIENTED_EDGE('',*,*,#374,.F.);
#520=ORIENTED_EDGE('',*,*,#373,.T.);
#521=ORIENTED_EDGE('',*,*,#375,.F.);
#522=ORIENTED_EDGE('',*,*,#376,.F.);
#523=ORIENTED_EDGE('',*,*,#377,.F.);
#524=ORIENTED_EDGE('',*,*,#376,.T.);
#525=ORIENTED_EDGE('',*,*,#378,.F.);
#526=ORIENTED_EDGE('',*,*,#379,.F.);
#527=ORIENTED_EDGE('',*,*,#380,.F.);
#528=ORIENTED_EDGE('',*,*,#379,.T.);
#529=ORIENTED_EDGE('',*,*,#381,.F.);
#530=ORIENTED_EDGE('',*,*,#382,.F.);
#531=ORIENTED_EDGE('',*,*,#383,.F.);
#532=ORIENTED_EDGE('',*,*,#382,.T.);
#533=ORIENTED_EDGE('',*,*,#384,.F.);
#534=ORIENTED_EDGE('',*,*,#385,.F.);
#535=ORIENTED_EDGE('',*,*,#386,.F.);
#536=ORIENTED_EDGE('',*,*,#385,.T.);
#537=ORIENTED_EDGE('',*,*,#387,.F.);
#538=ORIENTED_EDGE('',*,*,#388,.F.);
#539=ORIENTED_EDGE('',*,*,#389,.F.);
#540=ORIENTED_EDGE('',*,*,#388,.T.);
#541=ORIENTED_EDGE('',*,*,#390,.F.);
#542=ORIENTED_EDGE('',*,*,#368,.F.);
#543=ORIENTED_EDGE('',*,*,#389,.T.);
#544=ORIENTED_EDGE('',*,*,#367,.T.);
#545=ORIENTED_EDGE('',*,*,#371,.T.);
#546=ORIENTED_EDGE('',*,*,#374,.T.);
#547=ORIENTED_EDGE('',*,*,#377,.T.);
#548=ORIENTED_EDGE('',*,*,#380,.T.);
#549=ORIENTED_EDGE('',*,*,#383,.T.);
#550=ORIENTED_EDGE('',*,*,#386,.T.);
#551=ORIENTED_EDGE('',*,*,#390,.T.);
#552=ORIENTED_EDGE('',*,*,#387,.T.);
#553=ORIENTED_EDGE('',*,*,#384,.T.);
#554=ORIENTED_EDGE('',*,*,#381,.T.);
#555=ORIENTED_EDGE('',*,*,#378,.T.);
#556=ORIENTED_EDGE('',*,*,#375,.T.);
#557=ORIENTED_EDGE('',*,*,#372,.T.);
#558=ORIENTED_EDGE('',*,*,#369,.T.);
#559=PLANE('',#639);
#560=PLANE('',#640);
#561=PLANE('',#641);
#562=PLANE('',#642);
#563=PLANE('',#643);
#564=PLANE('',#644);
#565=PLANE('',#645);
#566=PLANE('',#646);
#567=PLANE('',#647);
#568=PLANE('',#648);
#569=PLANE('',#649);
#570=PLANE('',#650);
#571=PLANE('',#651);
#572=PLANE('',#652);
#573=PLANE('',#653);
#574=PLANE('',#654);
#575=PLANE('',#655);
#576=PLANE('',#656);
#577=PLANE('',#657);
#578=PLANE('',#658);
#579=PLANE('',#659);
#580=PLANE('',#660);
#581=PLANE('',#661);
#582=PLANE('',#662);
#583=PLANE('',#663);
#584=PLANE('',#667);
#585=PLANE('',#671);
#586=PLANE('',#675);
#587=PLANE('',#679);
#588=PLANE('',#680);
#589=ADVANCED_FACE('',(#31),#559,.T.);
#590=ADVANCED_FACE('',(#32),#560,.T.);
#591=ADVANCED_FACE('',(#33),#561,.F.);
#592=ADVANCED_FACE('',(#34),#562,.T.);
#593=ADVANCED_FACE('',(#35),#563,.T.);
#594=ADVANCED_FACE('',(#36),#564,.T.);
#595=ADVANCED_FACE('',(#37),#565,.T.);
#596=ADVANCED_FACE('',(#38),#566,.T.);
#597=ADVANCED_FACE('',(#39),#567,.T.);
#598=ADVANCED_FACE('',(#40),#568,.T.);
#599=ADVANCED_FACE('',(#41),#569,.T.);
#600=ADVANCED_FACE('',(#42),#570,.T.);
#601=ADVANCED_FACE('',(#43),#571,.T.);
#602=ADVANCED_FACE('',(#44),#572,.T.);
#603=ADVANCED_FACE('',(#45),#573,.F.);
#604=ADVANCED_FACE('',(#46),#574,.T.);
#605=ADVANCED_FACE('',(#47),#575,.T.);
#606=ADVANCED_FACE('',(#48),#576,.T.);
#607=ADVANCED_FACE('',(#49),#577,.T.);
#608=ADVANCED_FACE('',(#50),#578,.T.);
#609=ADVANCED_FACE('',(#51),#579,.T.);
#610=ADVANCED_FACE('',(#52),#580,.T.);
#611=ADVANCED_FACE('',(#53),#581,.T.);
#612=ADVANCED_FACE('',(#54),#582,.T.);
#613=ADVANCED_FACE('',(#55),#583,.T.);
#614=ADVANCED_FACE('',(#56),#21,.T.);
#615=ADVANCED_FACE('',(#57),#584,.T.);
#616=ADVANCED_FACE('',(#58),#22,.T.);
#617=ADVANCED_FACE('',(#59),#585,.T.);
#618=ADVANCED_FACE('',(#60),#23,.T.);
#619=ADVANCED_FACE('',(#61),#586,.T.);
#620=ADVANCED_FACE('',(#62),#24,.T.);
#621=ADVANCED_FACE('',(#63),#587,.T.);
#622=ADVANCED_FACE('',(#64),#588,.F.);
#623=CLOSED_SHELL('',(#589,#590,#591,#592,#593,#594,#595,#596,#597,#598,
#599,#600));
#624=CLOSED_SHELL('',(#601,#602,#603,#604,#605,#606,#607,#608,#609,#610,
#611,#612));
#625=CLOSED_SHELL('',(#613,#614,#615,#616,#617,#618,#619,#620,#621,#622));
#626=DERIVED_UNIT_ELEMENT(#628,1.);
#627=DERIVED_UNIT_ELEMENT(#1023,-3.);
#628=(
MASS_UNIT()
NAMED_UNIT(*)
SI_UNIT(.KILO.,.GRAM.)
);
#629=DERIVED_UNIT((#626,#627));
#630=MEASURE_REPRESENTATION_ITEM('density measure',
POSITIVE_RATIO_MEASURE(7850.),#629);
#631=PROPERTY_DEFINITION_REPRESENTATION(#636,#633);
#632=PROPERTY_DEFINITION_REPRESENTATION(#637,#634);
#633=REPRESENTATION('material name',(#635),#1020);
#634=REPRESENTATION('density',(#630),#1020);
#635=DESCRIPTIVE_REPRESENTATION_ITEM('Steel','Steel');
#636=PROPERTY_DEFINITION('material property','material name',#1030);
#637=PROPERTY_DEFINITION('material property','density of part',#1030);
#638=AXIS2_PLACEMENT_3D('',#843,#681,#682);
#639=AXIS2_PLACEMENT_3D('',#844,#683,#684);
#640=AXIS2_PLACEMENT_3D('',#853,#689,#690);
#641=AXIS2_PLACEMENT_3D('',#859,#694,#695);
#642=AXIS2_PLACEMENT_3D('',#865,#699,#700);
#643=AXIS2_PLACEMENT_3D('',#874,#705,#706);
#644=AXIS2_PLACEMENT_3D('',#883,#711,#712);
#645=AXIS2_PLACEMENT_3D('',#886,#715,#716);
#646=AXIS2_PLACEMENT_3D('',#892,#720,#721);
#647=AXIS2_PLACEMENT_3D('',#895,#724,#725);
#648=AXIS2_PLACEMENT_3D('',#899,#728,#729);
#649=AXIS2_PLACEMENT_3D('',#903,#732,#733);
#650=AXIS2_PLACEMENT_3D('',#905,#735,#736);
#651=AXIS2_PLACEMENT_3D('',#906,#737,#738);
#652=AXIS2_PLACEMENT_3D('',#915,#743,#744);
#653=AXIS2_PLACEMENT_3D('',#921,#748,#749);
#654=AXIS2_PLACEMENT_3D('',#927,#753,#754);
#655=AXIS2_PLACEMENT_3D('',#936,#759,#760);
#656=AXIS2_PLACEMENT_3D('',#945,#765,#766);
#657=AXIS2_PLACEMENT_3D('',#948,#769,#770);
#658=AXIS2_PLACEMENT_3D('',#954,#774,#775);
#659=AXIS2_PLACEMENT_3D('',#957,#778,#779);
#660=AXIS2_PLACEMENT_3D('',#961,#782,#783);
#661=AXIS2_PLACEMENT_3D('',#965,#786,#787);
#662=AXIS2_PLACEMENT_3D('',#967,#789,#790);
#663=AXIS2_PLACEMENT_3D('',#968,#791,#792);
#664=AXIS2_PLACEMENT_3D('',#977,#797,#798);
#665=AXIS2_PLACEMENT_3D('',#979,#799,#800);
#666=AXIS2_PLACEMENT_3D('',#981,#801,#802);
#667=AXIS2_PLACEMENT_3D('',#983,#804,#805);
#668=AXIS2_PLACEMENT_3D('',#989,#809,#810);
#669=AXIS2_PLACEMENT_3D('',#991,#811,#812);
#670=AXIS2_PLACEMENT_3D('',#993,#813,#814);
#671=AXIS2_PLACEMENT_3D('',#995,#816,#817);
#672=AXIS2_PLACEMENT_3D('',#1001,#821,#822);
#673=AXIS2_PLACEMENT_3D('',#1003,#823,#824);
#674=AXIS2_PLACEMENT_3D('',#1005,#825,#826);
#675=AXIS2_PLACEMENT_3D('',#1007,#828,#829);
#676=AXIS2_PLACEMENT_3D('',#1013,#833,#834);
#677=AXIS2_PLACEMENT_3D('',#1014,#835,#836);
#678=AXIS2_PLACEMENT_3D('',#1015,#837,#838);
#679=AXIS2_PLACEMENT_3D('',#1016,#839,#840);
#680=AXIS2_PLACEMENT_3D('',#1017,#841,#842);
#681=DIRECTION('axis',(0.,0.,1.));
#682=DIRECTION('refdir',(1.,0.,0.));
#683=DIRECTION('center_axis',(1.,0.,0.));
#684=DIRECTION('ref_axis',(0.,-1.,0.));
#685=DIRECTION('',(0.,1.,0.));
#686=DIRECTION('',(0.,0.,-1.));
#687=DIRECTION('',(0.,-1.,0.));
#688=DIRECTION('',(0.,0.,-1.));
#689=DIRECTION('center_axis',(0.,0.,-1.));
#690=DIRECTION('ref_axis',(-1.,0.,0.));
#691=DIRECTION('',(-1.,0.,0.));
#692=DIRECTION('',(3.51336400197807E-16,1.,0.));
#693=DIRECTION('',(1.,0.,0.));
#694=DIRECTION('center_axis',(0.,0.,-1.));
#695=DIRECTION('ref_axis',(1.,0.,0.));
#696=DIRECTION('',(0.,1.,0.));
#697=DIRECTION('',(-1.,0.,0.));
#698=DIRECTION('',(1.,0.,0.));
#699=DIRECTION('center_axis',(0.,-1.,0.));
#700=DIRECTION('ref_axis',(1.,0.,0.));
#701=DIRECTION('',(-1.,0.,0.));
#702=DIRECTION('',(0.,0.,1.));
#703=DIRECTION('',(1.,0.,0.));
#704=DIRECTION('',(0.,0.,1.));
#705=DIRECTION('center_axis',(-4.9897664028097E-15,1.,0.));
#706=DIRECTION('ref_axis',(-1.,-4.9897664028097E-15,0.));
#707=DIRECTION('',(1.,4.9897664028097E-15,0.));
#708=DIRECTION('',(0.,0.,1.));
#709=DIRECTION('',(-1.,-4.9897664028097E-15,0.));
#710=DIRECTION('',(0.,0.,1.));
#711=DIRECTION('center_axis',(0.,0.,1.));
#712=DIRECTION('ref_axis',(1.,0.,0.));
#713=DIRECTION('',(0.,1.,0.));
#714=DIRECTION('',(-3.96508223080427E-17,-1.,0.));
#715=DIRECTION('center_axis',(0.,1.,0.));
#716=DIRECTION('ref_axis',(-1.,0.,0.));
#717=DIRECTION('',(0.,0.,1.));
#718=DIRECTION('',(-1.,0.,0.));
#719=DIRECTION('',(0.,0.,1.));
#720=DIRECTION('center_axis',(0.,0.,1.));
#721=DIRECTION('ref_axis',(1.,0.,0.));
#722=DIRECTION('',(0.,1.,0.));
#723=DIRECTION('',(-1.09273919746571E-16,-1.,0.));
#724=DIRECTION('center_axis',(1.,0.,0.));
#725=DIRECTION('ref_axis',(0.,1.,0.));
#726=DIRECTION('',(0.,1.,0.));
#727=DIRECTION('',(0.,0.,1.));
#728=DIRECTION('center_axis',(0.,-1.,0.));
#729=DIRECTION('ref_axis',(1.,0.,0.));
#730=DIRECTION('',(1.,0.,0.));
#731=DIRECTION('',(0.,0.,1.));
#732=DIRECTION('center_axis',(-1.,1.09273919746571E-16,0.));
#733=DIRECTION('ref_axis',(-1.09273919746571E-16,-1.,0.));
#734=DIRECTION('',(-1.09273919746571E-16,-1.,0.));
#735=DIRECTION('center_axis',(0.,0.,1.));
#736=DIRECTION('ref_axis',(1.,0.,0.));
#737=DIRECTION('center_axis',(-1.,0.,0.));
#738=DIRECTION('ref_axis',(0.,1.,0.));
#739=DIRECTION('',(0.,1.,0.));
#740=DIRECTION('',(0.,0.,-1.));
#741=DIRECTION('',(0.,1.,0.));
#742=DIRECTION('',(0.,0.,-1.));
#743=DIRECTION('center_axis',(0.,0.,-1.));
#744=DIRECTION('ref_axis',(-1.,0.,0.));
#745=DIRECTION('',(0.,-1.,0.));
#746=DIRECTION('',(-1.,0.,0.));
#747=DIRECTION('',(1.,0.,0.));
#748=DIRECTION('center_axis',(0.,0.,-1.));
#749=DIRECTION('ref_axis',(1.,0.,0.));
#750=DIRECTION('',(0.,1.,0.));
#751=DIRECTION('',(1.,0.,0.));
#752=DIRECTION('',(-1.,0.,0.));
#753=DIRECTION('center_axis',(0.,-1.,0.));
#754=DIRECTION('ref_axis',(1.,0.,0.));
#755=DIRECTION('',(-1.,0.,0.));
#756=DIRECTION('',(0.,0.,1.));
#757=DIRECTION('',(1.,0.,0.));
#758=DIRECTION('',(0.,0.,1.));
#759=DIRECTION('center_axis',(0.,1.,0.));
#760=DIRECTION('ref_axis',(-1.,0.,0.));
#761=DIRECTION('',(1.,0.,0.));
#762=DIRECTION('',(0.,0.,1.));
#763=DIRECTION('',(-1.,0.,0.));
#764=DIRECTION('',(0.,0.,1.));
#765=DIRECTION('center_axis',(0.,0.,1.));
#766=DIRECTION('ref_axis',(1.,0.,0.));
#767=DIRECTION('',(0.,1.,0.));
#768=DIRECTION('',(0.,-1.,0.));
#769=DIRECTION('center_axis',(0.,1.,0.));
#770=DIRECTION('ref_axis',(-1.,0.,0.));
#771=DIRECTION('',(0.,0.,1.));
#772=DIRECTION('',(-1.,0.,0.));
#773=DIRECTION('',(0.,0.,1.));
#774=DIRECTION('center_axis',(0.,0.,1.));
#775=DIRECTION('ref_axis',(1.,0.,0.));
#776=DIRECTION('',(2.18547839493141E-16,1.,0.));
#777=DIRECTION('',(0.,-1.,0.));
#778=DIRECTION('center_axis',(1.,-2.18547839493141E-16,0.));
#779=DIRECTION('ref_axis',(2.18547839493141E-16,1.,0.));
#780=DIRECTION('',(2.18547839493141E-16,1.,0.));
#781=DIRECTION('',(0.,0.,1.));
#782=DIRECTION('center_axis',(-8.73209120491692E-15,-1.,0.));
#783=DIRECTION('ref_axis',(1.,-8.73209120491692E-15,0.));
#784=DIRECTION('',(1.,-8.73209120491692E-15,0.));
#785=DIRECTION('',(0.,0.,1.));
#786=DIRECTION('center_axis',(-1.,0.,0.));
#787=DIRECTION('ref_axis',(0.,-1.,0.));
#788=DIRECTION('',(0.,-1.,0.));
#789=DIRECTION('center_axis',(0.,0.,1.));
#790=DIRECTION('ref_axis',(1.,0.,0.));
#791=DIRECTION('center_axis',(-1.46564095660087E-16,1.,0.));
#792=DIRECTION('ref_axis',(-1.,-1.46564095660087E-16,0.));
#793=DIRECTION('',(1.,1.46564095660087E-16,0.));
#794=DIRECTION('',(0.,0.,1.));
#795=DIRECTION('',(-1.,-1.46564095660087E-16,0.));
#796=DIRECTION('',(0.,0.,1.));
#797=DIRECTION('center_axis',(0.,0.,1.));
#798=DIRECTION('ref_axis',(2.22044604925031E-15,1.,0.));
#799=DIRECTION('center_axis',(0.,0.,-1.));
#800=DIRECTION('ref_axis',(2.22044604925031E-15,1.,0.));
#801=DIRECTION('center_axis',(0.,0.,1.));
#802=DIRECTION('ref_axis',(2.22044604925031E-15,1.,0.));
#803=DIRECTION('',(0.,0.,1.));
#804=DIRECTION('center_axis',(1.,2.93128191320173E-16,0.));
#805=DIRECTION('ref_axis',(-2.93128191320173E-16,1.,0.));
#806=DIRECTION('',(2.93128191320173E-16,-1.,0.));
#807=DIRECTION('',(-2.93128191320173E-16,1.,0.));
#808=DIRECTION('',(0.,0.,1.));
#809=DIRECTION('center_axis',(0.,0.,1.));
#810=DIRECTION('ref_axis',(1.,-3.88578058618804E-15,0.));
#811=DIRECTION('center_axis',(0.,0.,-1.));
#812=DIRECTION('ref_axis',(1.,-3.88578058618804E-15,0.));
#813=DIRECTION('center_axis',(0.,0.,1.));
#814=DIRECTION('ref_axis',(1.,-3.88578058618804E-15,0.));
#815=DIRECTION('',(0.,0.,1.));
#816=DIRECTION('center_axis',(3.66410239150217E-17,-1.,0.));
#817=DIRECTION('ref_axis',(1.,3.66410239150217E-17,0.));
#818=DIRECTION('',(-1.,-3.66410239150217E-17,0.));
#819=DIRECTION('',(1.,3.66410239150217E-17,0.));
#820=DIRECTION('',(0.,0.,1.));
#821=DIRECTION('center_axis',(0.,0.,1.));
#822=DIRECTION('ref_axis',(-1.38777878078145E-16,-1.,0.));
#823=DIRECTION('center_axis',(0.,0.,-1.));
#824=DIRECTION('ref_axis',(-1.38777878078145E-16,-1.,0.));
#825=DIRECTION('center_axis',(0.,0.,1.));
#826=DIRECTION('ref_axis',(-1.38777878078145E-16,-1.,0.));
#827=DIRECTION('',(0.,0.,1.));
#828=DIRECTION('center_axis',(-1.,-9.16025597875542E-18,0.));
#829=DIRECTION('ref_axis',(9.16025597875542E-18,-1.,0.));
#830=DIRECTION('',(-9.16025597875542E-18,1.,0.));
#831=DIRECTION('',(9.16025597875542E-18,-1.,0.));
#832=DIRECTION('',(0.,0.,1.));
#833=DIRECTION('center_axis',(0.,0.,1.));
#834=DIRECTION('ref_axis',(-1.,2.22044604925031E-15,0.));
#835=DIRECTION('center_axis',(0.,0.,-1.));
#836=DIRECTION('ref_axis',(-1.,2.22044604925031E-15,0.));
#837=DIRECTION('center_axis',(0.,0.,1.));
#838=DIRECTION('ref_axis',(-1.,2.22044604925031E-15,0.));
#839=DIRECTION('center_axis',(0.,0.,-1.));
#840=DIRECTION('ref_axis',(1.,0.,0.));
#841=DIRECTION('center_axis',(0.,0.,-1.));
#842=DIRECTION('ref_axis',(1.,0.,0.));
#843=CARTESIAN_POINT('',(0.,0.,0.));
#844=CARTESIAN_POINT('Origin',(1.103,12.655,0.));
#845=CARTESIAN_POINT('',(1.103,2.495,0.));
#846=CARTESIAN_POINT('',(1.103,12.655,0.));
#847=CARTESIAN_POINT('',(1.103,2.495,0.));
#848=CARTESIAN_POINT('',(1.103,2.495,-0.2));
#849=CARTESIAN_POINT('',(1.103,2.495,0.));
#850=CARTESIAN_POINT('',(1.103,12.655,-0.2));
#851=CARTESIAN_POINT('',(1.103,2.495,-0.2));
#852=CARTESIAN_POINT('',(1.103,12.655,0.));
#853=CARTESIAN_POINT('Origin',(-0.171,7.575,-0.2));
#854=CARTESIAN_POINT('',(-1.445,2.495,-0.2));
#855=CARTESIAN_POINT('',(-1.,2.495,-0.2));
#856=CARTESIAN_POINT('',(-1.445,12.655,-0.2));
#857=CARTESIAN_POINT('',(-1.445,2.495,-0.2));
#858=CARTESIAN_POINT('',(-1.445,12.655,-0.2));
#859=CARTESIAN_POINT('Origin',(-0.171,7.575,0.));
#860=CARTESIAN_POINT('',(-1.,2.495,0.));
#861=CARTESIAN_POINT('',(-1.,12.655,0.));
#862=CARTESIAN_POINT('',(-1.,2.495,0.));
#863=CARTESIAN_POINT('',(-1.,2.495,0.));
#864=CARTESIAN_POINT('',(-1.445,12.655,0.));
#865=CARTESIAN_POINT('Origin',(-1.445,4.07500000000012,0.));
#866=CARTESIAN_POINT('',(-1.,4.07500000000012,2.));
#867=CARTESIAN_POINT('',(-1.445,4.07500000000012,2.));
#868=CARTESIAN_POINT('',(-1.,4.07500000000012,2.));
#869=CARTESIAN_POINT('',(-1.,4.07500000000012,5.));
#870=CARTESIAN_POINT('',(-1.,4.07500000000012,0.));
#871=CARTESIAN_POINT('',(-1.445,4.07500000000012,5.));
#872=CARTESIAN_POINT('',(-1.,4.07500000000012,5.));
#873=CARTESIAN_POINT('',(-1.445,4.07500000000012,0.));
#874=CARTESIAN_POINT('Origin',(-1.,11.0749999999999,0.));
#875=CARTESIAN_POINT('',(-1.445,11.0749999999999,2.));
#876=CARTESIAN_POINT('',(-1.,11.0749999999999,2.));
#877=CARTESIAN_POINT('',(-1.445,11.0749999999999,2.));
#878=CARTESIAN_POINT('',(-1.445,11.0749999999999,5.));
#879=CARTESIAN_POINT('',(-1.445,11.0749999999999,0.));
#880=CARTESIAN_POINT('',(-1.,11.0749999999999,5.));
#881=CARTESIAN_POINT('',(-1.445,11.0749999999999,5.));
#882=CARTESIAN_POINT('',(-1.,11.0749999999999,0.));
#883=CARTESIAN_POINT('Origin',(-1.2225,7.575,5.));
#884=CARTESIAN_POINT('',(-1.,11.0749999999999,5.));
#885=CARTESIAN_POINT('',(-1.445,4.07500000000012,5.));
#886=CARTESIAN_POINT('Origin',(-1.,12.655,0.));
#887=CARTESIAN_POINT('',(-1.445,12.655,2.));
#888=CARTESIAN_POINT('',(-1.445,12.655,0.));
#889=CARTESIAN_POINT('',(-1.,12.655,2.));
#890=CARTESIAN_POINT('',(-1.,12.655,2.));
#891=CARTESIAN_POINT('',(-1.,12.655,0.));
#892=CARTESIAN_POINT('Origin',(-1.2225,11.8649999999999,2.));
#893=CARTESIAN_POINT('',(-1.,2.495,2.));
#894=CARTESIAN_POINT('',(-1.445,12.655,2.));
#895=CARTESIAN_POINT('Origin',(-1.,2.495,0.));
#896=CARTESIAN_POINT('',(-1.,2.495,2.));
#897=CARTESIAN_POINT('',(-1.,2.495,2.));
#898=CARTESIAN_POINT('',(-1.,2.495,0.));
#899=CARTESIAN_POINT('Origin',(-1.445,2.495,0.));
#900=CARTESIAN_POINT('',(-1.445,2.495,2.));
#901=CARTESIAN_POINT('',(-1.445,2.495,2.));
#902=CARTESIAN_POINT('',(-1.445,2.495,0.));
#903=CARTESIAN_POINT('Origin',(-1.445,4.07500000000012,0.));
#904=CARTESIAN_POINT('',(-1.445,12.655,2.));
#905=CARTESIAN_POINT('Origin',(-1.2225,3.28500000000006,2.));
#906=CARTESIAN_POINT('Origin',(14.047,2.495,0.));
#907=CARTESIAN_POINT('',(14.047,2.495,0.));
#908=CARTESIAN_POINT('',(14.047,12.655,0.));
#909=CARTESIAN_POINT('',(14.047,2.495,0.));
#910=CARTESIAN_POINT('',(14.047,12.655,-0.2));
#911=CARTESIAN_POINT('',(14.047,12.655,0.));
#912=CARTESIAN_POINT('',(14.047,2.495,-0.2));
#913=CARTESIAN_POINT('',(14.047,2.495,-0.2));
#914=CARTESIAN_POINT('',(14.047,2.495,0.));
#915=CARTESIAN_POINT('Origin',(15.321,7.575,-0.2));
#916=CARTESIAN_POINT('',(16.595,12.655,-0.2));
#917=CARTESIAN_POINT('',(16.595,2.495,-0.2));
#918=CARTESIAN_POINT('',(16.595,12.655,-0.2));
#919=CARTESIAN_POINT('',(16.595,2.495,-0.2));
#920=CARTESIAN_POINT('',(14.047,12.655,-0.2));
#921=CARTESIAN_POINT('Origin',(15.321,7.575,0.));
#922=CARTESIAN_POINT('',(16.15,2.495,0.));
#923=CARTESIAN_POINT('',(16.15,12.655,0.));
#924=CARTESIAN_POINT('',(16.15,2.495,0.));
#925=CARTESIAN_POINT('',(14.047,12.655,0.));
#926=CARTESIAN_POINT('',(16.595,2.495,0.));
#927=CARTESIAN_POINT('Origin',(16.15,4.075,0.));
#928=CARTESIAN_POINT('',(16.595,4.075,2.));
#929=CARTESIAN_POINT('',(16.15,4.075,2.));
#930=CARTESIAN_POINT('',(16.15,4.075,2.));
#931=CARTESIAN_POINT('',(16.595,4.075,5.));
#932=CARTESIAN_POINT('',(16.595,4.075,0.));
#933=CARTESIAN_POINT('',(16.15,4.075,5.));
#934=CARTESIAN_POINT('',(16.15,4.075,5.));
#935=CARTESIAN_POINT('',(16.15,4.075,0.));
#936=CARTESIAN_POINT('Origin',(16.595,11.075,0.));
#937=CARTESIAN_POINT('',(16.15,11.075,2.));
#938=CARTESIAN_POINT('',(16.595,11.075,2.));
#939=CARTESIAN_POINT('',(16.595,11.075,2.));
#940=CARTESIAN_POINT('',(16.15,11.075,5.));
#941=CARTESIAN_POINT('',(16.15,11.075,0.));
#942=CARTESIAN_POINT('',(16.595,11.075,5.));
#943=CARTESIAN_POINT('',(16.595,11.075,5.));
#944=CARTESIAN_POINT('',(16.595,11.075,0.));
#945=CARTESIAN_POINT('Origin',(16.3725,7.575,5.));
#946=CARTESIAN_POINT('',(16.595,4.075,5.));
#947=CARTESIAN_POINT('',(16.15,11.075,5.));
#948=CARTESIAN_POINT('Origin',(16.595,12.655,0.));
#949=CARTESIAN_POINT('',(16.15,12.655,2.));
#950=CARTESIAN_POINT('',(16.15,12.655,0.));
#951=CARTESIAN_POINT('',(16.595,12.655,2.));
#952=CARTESIAN_POINT('',(16.15,12.655,2.));
#953=CARTESIAN_POINT('',(16.595,12.655,0.));
#954=CARTESIAN_POINT('Origin',(16.3725,11.865,2.));
#955=CARTESIAN_POINT('',(16.595,12.655,2.));
#956=CARTESIAN_POINT('',(16.15,2.495,2.));
#957=CARTESIAN_POINT('Origin',(16.595,2.495,0.));
#958=CARTESIAN_POINT('',(16.595,2.495,2.));
#959=CARTESIAN_POINT('',(16.595,12.655,2.));
#960=CARTESIAN_POINT('',(16.595,2.495,0.));
#961=CARTESIAN_POINT('Origin',(16.15,2.495,0.));
#962=CARTESIAN_POINT('',(16.15,2.495,2.));
#963=CARTESIAN_POINT('',(16.595,2.495,2.));
#964=CARTESIAN_POINT('',(16.15,2.495,0.));
#965=CARTESIAN_POINT('Origin',(16.15,4.075,0.));
#966=CARTESIAN_POINT('',(16.15,2.495,2.));
#967=CARTESIAN_POINT('Origin',(16.3725,3.285,2.));
#968=CARTESIAN_POINT('Origin',(15.15,16.15,0.));
#969=CARTESIAN_POINT('',(1.28491307740063E-15,16.15,0.));
#970=CARTESIAN_POINT('',(15.15,16.15,0.));
#971=CARTESIAN_POINT('',(1.28491307740063E-15,16.15,0.));
#972=CARTESIAN_POINT('',(1.2490009027033E-15,16.15,6.8));
#973=CARTESIAN_POINT('',(1.28491307740063E-15,16.15,0.));
#974=CARTESIAN_POINT('',(15.15,16.15,6.8));
#975=CARTESIAN_POINT('',(1.28491307740063E-15,16.15,6.8));
#976=CARTESIAN_POINT('',(15.15,16.15,0.));
#977=CARTESIAN_POINT('Origin',(15.15,15.15,0.));
#978=CARTESIAN_POINT('',(16.15,15.15,0.));
#979=CARTESIAN_POINT('Origin',(15.15,15.15,0.));
#980=CARTESIAN_POINT('',(16.15,15.15,6.8));
#981=CARTESIAN_POINT('Origin',(15.15,15.15,6.8));
#982=CARTESIAN_POINT('',(16.15,15.15,0.));
#983=CARTESIAN_POINT('Origin',(16.15,0.,0.));
#984=CARTESIAN_POINT('',(16.15,0.,0.));
#985=CARTESIAN_POINT('',(16.15,15.15,0.));
#986=CARTESIAN_POINT('',(16.15,0.,6.8));
#987=CARTESIAN_POINT('',(16.15,15.15,6.8));
#988=CARTESIAN_POINT('',(16.15,0.,0.));
#989=CARTESIAN_POINT('Origin',(15.15,3.88578058618805E-15,0.));
#990=CARTESIAN_POINT('',(15.15,-0.999999999999999,0.));
#991=CARTESIAN_POINT('Origin',(15.15,3.88578058618805E-15,0.));
#992=CARTESIAN_POINT('',(15.15,-0.999999999999999,6.8));
#993=CARTESIAN_POINT('Origin',(15.15,3.88578058618805E-15,6.8));
#994=CARTESIAN_POINT('',(15.15,-0.999999999999999,0.));
#995=CARTESIAN_POINT('Origin',(0.,-1.,0.));
#996=CARTESIAN_POINT('',(1.54074395550979E-32,-1.,0.));
#997=CARTESIAN_POINT('',(15.15,-0.999999999999999,0.));
#998=CARTESIAN_POINT('',(0.,-1.,6.8));
#999=CARTESIAN_POINT('',(15.15,-0.999999999999999,6.8));
#1000=CARTESIAN_POINT('',(1.54074395550979E-32,-1.,0.));
#1001=CARTESIAN_POINT('Origin',(1.38777878078145E-16,1.38777878078145E-16,
0.));
#1002=CARTESIAN_POINT('',(-1.,2.16323416198921E-16,0.));
#1003=CARTESIAN_POINT('Origin',(1.38777878078145E-16,1.38777878078145E-16,
0.));
#1004=CARTESIAN_POINT('',(-1.,0.,6.8));
#1005=CARTESIAN_POINT('Origin',(1.38777878078145E-16,1.38777878078145E-16,
6.8));
#1006=CARTESIAN_POINT('',(-1.,2.16323416198921E-16,0.));
#1007=CARTESIAN_POINT('Origin',(-1.,15.15,0.));
#1008=CARTESIAN_POINT('',(-1.,15.15,0.));
#1009=CARTESIAN_POINT('',(-1.,2.16323416198921E-16,0.));
#1010=CARTESIAN_POINT('',(-1.,15.15,6.8));
#1011=CARTESIAN_POINT('',(-1.,2.16323416198921E-16,6.8));
#1012=CARTESIAN_POINT('',(-1.,15.15,0.));
#1013=CARTESIAN_POINT('Origin',(2.0122792321331E-15,15.15,0.));
#1014=CARTESIAN_POINT('Origin',(2.0122792321331E-15,15.15,0.));
#1015=CARTESIAN_POINT('Origin',(2.0122792321331E-15,15.15,6.8));
#1016=CARTESIAN_POINT('Origin',(7.575,7.575,0.));
#1017=CARTESIAN_POINT('Origin',(7.575,7.575,6.8));
#1018=UNCERTAINTY_MEASURE_WITH_UNIT(LENGTH_MEASURE(0.01),#1022,
'DISTANCE_ACCURACY_VALUE',
'Maximum model space distance between geometric entities at asserted c
onnectivities');
#1019=UNCERTAINTY_MEASURE_WITH_UNIT(LENGTH_MEASURE(0.01),#1022,
'DISTANCE_ACCURACY_VALUE',
'Maximum model space distance between geometric entities at asserted c
onnectivities');
#1020=(
GEOMETRIC_REPRESENTATION_CONTEXT(3)
GLOBAL_UNCERTAINTY_ASSIGNED_CONTEXT((#1018))
GLOBAL_UNIT_ASSIGNED_CONTEXT((#1022,#1024,#1025))
REPRESENTATION_CONTEXT('','3D')
);
#1021=(
GEOMETRIC_REPRESENTATION_CONTEXT(3)
GLOBAL_UNCERTAINTY_ASSIGNED_CONTEXT((#1019))
GLOBAL_UNIT_ASSIGNED_CONTEXT((#1022,#1024,#1025))
REPRESENTATION_CONTEXT('','3D')
);
#1022=(
LENGTH_UNIT()
NAMED_UNIT(*)
SI_UNIT(.MILLI.,.METRE.)
);
#1023=(
LENGTH_UNIT()
NAMED_UNIT(*)
SI_UNIT($,.METRE.)
);
#1024=(
NAMED_UNIT(*)
PLANE_ANGLE_UNIT()
SI_UNIT($,.RADIAN.)
);
#1025=(
NAMED_UNIT(*)
SI_UNIT($,.STERADIAN.)
SOLID_ANGLE_UNIT()
);
#1026=SHAPE_DEFINITION_REPRESENTATION(#1027,#1028);
#1027=PRODUCT_DEFINITION_SHAPE('',$,#1030);
#1028=SHAPE_REPRESENTATION('',(#638),#1020);
#1029=PRODUCT_DEFINITION_CONTEXT('part definition',#1034,'design');
#1030=PRODUCT_DEFINITION('IHSR-6767GZ-5A','IHSR-6767GZ-5A v2',#1031,#1029);
#1031=PRODUCT_DEFINITION_FORMATION('',$,#1036);
#1032=PRODUCT_RELATED_PRODUCT_CATEGORY('IHSR-6767GZ-5A v2',
'IHSR-6767GZ-5A v2',(#1036));
#1033=APPLICATION_PROTOCOL_DEFINITION('international standard',
'automotive_design',2009,#1034);
#1034=APPLICATION_CONTEXT(
'Core Data for Automotive Mechanical Design Process');
#1035=PRODUCT_CONTEXT('part definition',#1034,'mechanical');
#1036=PRODUCT('IHSR-6767GZ-5A','IHSR-6767GZ-5A v2',$,(#1035));
#1037=PRESENTATION_STYLE_ASSIGNMENT((#1040));
#1038=PRESENTATION_STYLE_ASSIGNMENT((#1041));
#1039=PRESENTATION_STYLE_ASSIGNMENT((#1042));
#1040=SURFACE_STYLE_USAGE(.BOTH.,#1043);
#1041=SURFACE_STYLE_USAGE(.BOTH.,#1044);
#1042=SURFACE_STYLE_USAGE(.BOTH.,#1045);
#1043=SURFACE_SIDE_STYLE('',(#1046));
#1044=SURFACE_SIDE_STYLE('',(#1047));
#1045=SURFACE_SIDE_STYLE('',(#1048));
#1046=SURFACE_STYLE_FILL_AREA(#1049);
#1047=SURFACE_STYLE_FILL_AREA(#1050);
#1048=SURFACE_STYLE_FILL_AREA(#1051);
#1049=FILL_AREA_STYLE('Steel - Satin',(#1052));
#1050=FILL_AREA_STYLE('Stainless Steel - Polished',(#1053));
#1051=FILL_AREA_STYLE('Steel - Satin',(#1054));
#1052=FILL_AREA_STYLE_COLOUR('Steel - Satin',#1055);
#1053=FILL_AREA_STYLE_COLOUR('Stainless Steel - Polished',#1056);
#1054=FILL_AREA_STYLE_COLOUR('Steel - Satin',#1057);
#1055=COLOUR_RGB('Steel - Satin',0.627450980392157,0.627450980392157,0.627450980392157);
#1056=COLOUR_RGB('Stainless Steel - Polished',0.796078431372549,0.796078431372549,
0.796078431372549);
#1057=COLOUR_RGB('Steel - Satin',0.454901960784314,0.450980392156863,0.450980392156863);
ENDSEC;
END-ISO-10303-21;
