ISO-10303-21;
HEADER;
/* Generated by software containing ST-Developer
 * from STEP Tools, Inc. (www.steptools.com) 
 */

FILE_DESCRIPTION(
/* description */ (''),
/* implementation_level */ '2;1');

FILE_NAME(
/* name */ 'BPH853025R5-101T.step',
/* time_stamp */ '2025-12-18T22:05:18+01:00',
/* author */ (''),
/* organization */ (''),
/* preprocessor_version */ 'ST-DEVELOPER v20.1',
/* originating_system */ 'Autodesk Translation Framework v14.21.0.0',
/* authorisation */ '');

FILE_SCHEMA (('AUTOMOTIVE_DESIGN { 1 0 10303 214 3 1 1 }'));
ENDSEC;

DATA;
#10=MECHANICAL_DESIGN_GEOMETRIC_PRESENTATION_REPRESENTATION('',(#19,#20),
#804);
#11=SHAPE_REPRESENTATION_RELATIONSHIP('SRR','None',#811,#12);
#12=ADVANCED_BREP_SHAPE_REPRESENTATION('',(#21,#22),#803);
#13=CIRCLE('',#521,0.2);
#14=CIRCLE('',#522,0.2);
#15=CIRCLE('',#524,0.2);
#16=CIRCLE('',#527,0.2);
#17=CYLINDRICAL_SURFACE('',#520,0.2);
#18=CYLINDRICAL_SURFACE('',#526,0.2);
#19=STYLED_ITEM('',(#820),#21);
#20=STYLED_ITEM('',(#821),#22);
#21=MANIFOLD_SOLID_BREP('Body1',#495);
#22=MANIFOLD_SOLID_BREP('Body2',#496);
#23=FACE_BOUND('',#57,.T.);
#24=FACE_BOUND('',#60,.T.);
#25=FACE_OUTER_BOUND('',#51,.T.);
#26=FACE_OUTER_BOUND('',#52,.T.);
#27=FACE_OUTER_BOUND('',#53,.T.);
#28=FACE_OUTER_BOUND('',#54,.T.);
#29=FACE_OUTER_BOUND('',#55,.T.);
#30=FACE_OUTER_BOUND('',#56,.T.);
#31=FACE_OUTER_BOUND('',#58,.T.);
#32=FACE_OUTER_BOUND('',#59,.T.);
#33=FACE_OUTER_BOUND('',#61,.T.);
#34=FACE_OUTER_BOUND('',#62,.T.);
#35=FACE_OUTER_BOUND('',#63,.T.);
#36=FACE_OUTER_BOUND('',#64,.T.);
#37=FACE_OUTER_BOUND('',#65,.T.);
#38=FACE_OUTER_BOUND('',#66,.T.);
#39=FACE_OUTER_BOUND('',#67,.T.);
#40=FACE_OUTER_BOUND('',#68,.T.);
#41=FACE_OUTER_BOUND('',#69,.T.);
#42=FACE_OUTER_BOUND('',#70,.T.);
#43=FACE_OUTER_BOUND('',#71,.T.);
#44=FACE_OUTER_BOUND('',#72,.T.);
#45=FACE_OUTER_BOUND('',#73,.T.);
#46=FACE_OUTER_BOUND('',#74,.T.);
#47=FACE_OUTER_BOUND('',#75,.T.);
#48=FACE_OUTER_BOUND('',#76,.T.);
#49=FACE_OUTER_BOUND('',#77,.T.);
#50=FACE_OUTER_BOUND('',#78,.T.);
#51=EDGE_LOOP('',(#313,#314,#315,#316));
#52=EDGE_LOOP('',(#317,#318,#319,#320));
#53=EDGE_LOOP('',(#321,#322,#323,#324));
#54=EDGE_LOOP('',(#325,#326,#327,#328));
#55=EDGE_LOOP('',(#329,#330,#331,#332));
#56=EDGE_LOOP('',(#333,#334,#335,#336));
#57=EDGE_LOOP('',(#337,#338,#339,#340));
#58=EDGE_LOOP('',(#341,#342,#343,#344));
#59=EDGE_LOOP('',(#345,#346,#347,#348));
#60=EDGE_LOOP('',(#349,#350,#351,#352));
#61=EDGE_LOOP('',(#353,#354,#355,#356));
#62=EDGE_LOOP('',(#357,#358,#359,#360));
#63=EDGE_LOOP('',(#361,#362,#363,#364));
#64=EDGE_LOOP('',(#365,#366,#367,#368,#369,#370,#371,#372,#373,#374,#375,
#376,#377,#378));
#65=EDGE_LOOP('',(#379,#380,#381,#382));
#66=EDGE_LOOP('',(#383,#384,#385,#386));
#67=EDGE_LOOP('',(#387,#388,#389,#390));
#68=EDGE_LOOP('',(#391,#392,#393,#394));
#69=EDGE_LOOP('',(#395,#396,#397,#398));
#70=EDGE_LOOP('',(#399,#400,#401,#402));
#71=EDGE_LOOP('',(#403,#404,#405,#406));
#72=EDGE_LOOP('',(#407,#408,#409,#410));
#73=EDGE_LOOP('',(#411,#412,#413,#414));
#74=EDGE_LOOP('',(#415,#416,#417,#418));
#75=EDGE_LOOP('',(#419,#420,#421,#422,#423,#424,#425,#426,#427,#428,#429,
#430,#431,#432));
#76=EDGE_LOOP('',(#433,#434,#435,#436));
#77=EDGE_LOOP('',(#437,#438,#439,#440));
#78=EDGE_LOOP('',(#441,#442,#443,#444));
#79=LINE('',#668,#141);
#80=LINE('',#670,#142);
#81=LINE('',#672,#143);
#82=LINE('',#673,#144);
#83=LINE('',#676,#145);
#84=LINE('',#678,#146);
#85=LINE('',#679,#147);
#86=LINE('',#682,#148);
#87=LINE('',#684,#149);
#88=LINE('',#685,#150);
#89=LINE('',#687,#151);
#90=LINE('',#688,#152);
#91=LINE('',#692,#153);
#92=LINE('',#694,#154);
#93=LINE('',#696,#155);
#94=LINE('',#697,#156);
#95=LINE('',#700,#157);
#96=LINE('',#702,#158);
#97=LINE('',#703,#159);
#98=LINE('',#706,#160);
#99=LINE('',#708,#161);
#100=LINE('',#709,#162);
#101=LINE('',#711,#163);
#102=LINE('',#712,#164);
#103=LINE('',#720,#165);
#104=LINE('',#723,#166);
#105=LINE('',#726,#167);
#106=LINE('',#730,#168);
#107=LINE('',#732,#169);
#108=LINE('',#734,#170);
#109=LINE('',#736,#171);
#110=LINE('',#738,#172);
#111=LINE('',#740,#173);
#112=LINE('',#742,#174);
#113=LINE('',#744,#175);
#114=LINE('',#746,#176);
#115=LINE('',#748,#177);
#116=LINE('',#749,#178);
#117=LINE('',#752,#179);
#118=LINE('',#753,#180);
#119=LINE('',#757,#181);
#120=LINE('',#760,#182);
#121=LINE('',#762,#183);
#122=LINE('',#763,#184);
#123=LINE('',#766,#185);
#124=LINE('',#767,#186);
#125=LINE('',#770,#187);
#126=LINE('',#772,#188);
#127=LINE('',#773,#189);
#128=LINE('',#776,#190);
#129=LINE('',#777,#191);
#130=LINE('',#780,#192);
#131=LINE('',#781,#193);
#132=LINE('',#784,#194);
#133=LINE('',#785,#195);
#134=LINE('',#788,#196);
#135=LINE('',#789,#197);
#136=LINE('',#791,#198);
#137=LINE('',#793,#199);
#138=LINE('',#795,#200);
#139=LINE('',#796,#201);
#140=LINE('',#799,#202);
#141=VECTOR('',#544,10.);
#142=VECTOR('',#545,10.);
#143=VECTOR('',#546,10.);
#144=VECTOR('',#547,10.);
#145=VECTOR('',#550,10.);
#146=VECTOR('',#551,10.);
#147=VECTOR('',#552,10.);
#148=VECTOR('',#555,10.);
#149=VECTOR('',#556,10.);
#150=VECTOR('',#557,10.);
#151=VECTOR('',#560,10.);
#152=VECTOR('',#561,10.);
#153=VECTOR('',#564,10.);
#154=VECTOR('',#565,10.);
#155=VECTOR('',#566,10.);
#156=VECTOR('',#567,10.);
#157=VECTOR('',#570,10.);
#158=VECTOR('',#571,10.);
#159=VECTOR('',#572,10.);
#160=VECTOR('',#575,10.);
#161=VECTOR('',#576,10.);
#162=VECTOR('',#577,10.);
#163=VECTOR('',#580,10.);
#164=VECTOR('',#581,10.);
#165=VECTOR('',#590,10.);
#166=VECTOR('',#593,10.);
#167=VECTOR('',#596,10.);
#168=VECTOR('',#599,10.);
#169=VECTOR('',#600,10.);
#170=VECTOR('',#601,10.);
#171=VECTOR('',#602,10.);
#172=VECTOR('',#603,10.);
#173=VECTOR('',#604,10.);
#174=VECTOR('',#605,10.);
#175=VECTOR('',#606,10.);
#176=VECTOR('',#607,10.);
#177=VECTOR('',#608,10.);
#178=VECTOR('',#609,10.);
#179=VECTOR('',#612,10.);
#180=VECTOR('',#613,10.);
#181=VECTOR('',#618,10.);
#182=VECTOR('',#621,10.);
#183=VECTOR('',#622,10.);
#184=VECTOR('',#623,10.);
#185=VECTOR('',#626,10.);
#186=VECTOR('',#627,10.);
#187=VECTOR('',#630,10.);
#188=VECTOR('',#631,10.);
#189=VECTOR('',#632,10.);
#190=VECTOR('',#635,10.);
#191=VECTOR('',#636,10.);
#192=VECTOR('',#639,10.);
#193=VECTOR('',#640,10.);
#194=VECTOR('',#643,10.);
#195=VECTOR('',#644,10.);
#196=VECTOR('',#647,10.);
#197=VECTOR('',#648,10.);
#198=VECTOR('',#651,10.);
#199=VECTOR('',#654,10.);
#200=VECTOR('',#655,10.);
#201=VECTOR('',#656,10.);
#202=VECTOR('',#661,10.);
#203=VERTEX_POINT('',#666);
#204=VERTEX_POINT('',#667);
#205=VERTEX_POINT('',#669);
#206=VERTEX_POINT('',#671);
#207=VERTEX_POINT('',#675);
#208=VERTEX_POINT('',#677);
#209=VERTEX_POINT('',#681);
#210=VERTEX_POINT('',#683);
#211=VERTEX_POINT('',#690);
#212=VERTEX_POINT('',#691);
#213=VERTEX_POINT('',#693);
#214=VERTEX_POINT('',#695);
#215=VERTEX_POINT('',#699);
#216=VERTEX_POINT('',#701);
#217=VERTEX_POINT('',#705);
#218=VERTEX_POINT('',#707);
#219=VERTEX_POINT('',#716);
#220=VERTEX_POINT('',#717);
#221=VERTEX_POINT('',#719);
#222=VERTEX_POINT('',#721);
#223=VERTEX_POINT('',#725);
#224=VERTEX_POINT('',#727);
#225=VERTEX_POINT('',#729);
#226=VERTEX_POINT('',#731);
#227=VERTEX_POINT('',#733);
#228=VERTEX_POINT('',#735);
#229=VERTEX_POINT('',#737);
#230=VERTEX_POINT('',#739);
#231=VERTEX_POINT('',#741);
#232=VERTEX_POINT('',#743);
#233=VERTEX_POINT('',#745);
#234=VERTEX_POINT('',#747);
#235=VERTEX_POINT('',#751);
#236=VERTEX_POINT('',#755);
#237=VERTEX_POINT('',#759);
#238=VERTEX_POINT('',#761);
#239=VERTEX_POINT('',#765);
#240=VERTEX_POINT('',#769);
#241=VERTEX_POINT('',#771);
#242=VERTEX_POINT('',#775);
#243=VERTEX_POINT('',#779);
#244=VERTEX_POINT('',#783);
#245=VERTEX_POINT('',#787);
#246=VERTEX_POINT('',#794);
#247=EDGE_CURVE('',#203,#204,#79,.T.);
#248=EDGE_CURVE('',#205,#203,#80,.T.);
#249=EDGE_CURVE('',#206,#205,#81,.T.);
#250=EDGE_CURVE('',#206,#204,#82,.T.);
#251=EDGE_CURVE('',#204,#207,#83,.T.);
#252=EDGE_CURVE('',#208,#206,#84,.T.);
#253=EDGE_CURVE('',#208,#207,#85,.T.);
#254=EDGE_CURVE('',#207,#209,#86,.T.);
#255=EDGE_CURVE('',#210,#208,#87,.T.);
#256=EDGE_CURVE('',#210,#209,#88,.T.);
#257=EDGE_CURVE('',#209,#203,#89,.T.);
#258=EDGE_CURVE('',#205,#210,#90,.T.);
#259=EDGE_CURVE('',#211,#212,#91,.T.);
#260=EDGE_CURVE('',#212,#213,#92,.T.);
#261=EDGE_CURVE('',#214,#213,#93,.T.);
#262=EDGE_CURVE('',#211,#214,#94,.T.);
#263=EDGE_CURVE('',#215,#211,#95,.T.);
#264=EDGE_CURVE('',#216,#214,#96,.T.);
#265=EDGE_CURVE('',#215,#216,#97,.T.);
#266=EDGE_CURVE('',#217,#215,#98,.T.);
#267=EDGE_CURVE('',#218,#216,#99,.T.);
#268=EDGE_CURVE('',#217,#218,#100,.T.);
#269=EDGE_CURVE('',#212,#217,#101,.T.);
#270=EDGE_CURVE('',#213,#218,#102,.T.);
#271=EDGE_CURVE('',#219,#220,#13,.T.);
#272=EDGE_CURVE('',#220,#221,#103,.T.);
#273=EDGE_CURVE('',#221,#222,#14,.T.);
#274=EDGE_CURVE('',#222,#219,#104,.T.);
#275=EDGE_CURVE('',#219,#223,#105,.T.);
#276=EDGE_CURVE('',#224,#223,#15,.T.);
#277=EDGE_CURVE('',#225,#224,#106,.T.);
#278=EDGE_CURVE('',#226,#225,#107,.T.);
#279=EDGE_CURVE('',#227,#226,#108,.T.);
#280=EDGE_CURVE('',#228,#227,#109,.T.);
#281=EDGE_CURVE('',#229,#228,#110,.T.);
#282=EDGE_CURVE('',#230,#229,#111,.T.);
#283=EDGE_CURVE('',#231,#230,#112,.T.);
#284=EDGE_CURVE('',#231,#232,#113,.T.);
#285=EDGE_CURVE('',#233,#232,#114,.T.);
#286=EDGE_CURVE('',#234,#233,#115,.T.);
#287=EDGE_CURVE('',#220,#234,#116,.T.);
#288=EDGE_CURVE('',#222,#235,#117,.T.);
#289=EDGE_CURVE('',#223,#235,#118,.T.);
#290=EDGE_CURVE('',#235,#236,#16,.T.);
#291=EDGE_CURVE('',#236,#224,#119,.T.);
#292=EDGE_CURVE('',#228,#237,#120,.T.);
#293=EDGE_CURVE('',#238,#227,#121,.T.);
#294=EDGE_CURVE('',#237,#238,#122,.T.);
#295=EDGE_CURVE('',#226,#239,#123,.T.);
#296=EDGE_CURVE('',#239,#238,#124,.T.);
#297=EDGE_CURVE('',#240,#231,#125,.T.);
#298=EDGE_CURVE('',#240,#241,#126,.T.);
#299=EDGE_CURVE('',#232,#241,#127,.T.);
#300=EDGE_CURVE('',#241,#242,#128,.T.);
#301=EDGE_CURVE('',#242,#233,#129,.T.);
#302=EDGE_CURVE('',#230,#243,#130,.T.);
#303=EDGE_CURVE('',#243,#240,#131,.T.);
#304=EDGE_CURVE('',#244,#229,#132,.T.);
#305=EDGE_CURVE('',#243,#244,#133,.T.);
#306=EDGE_CURVE('',#234,#245,#134,.T.);
#307=EDGE_CURVE('',#245,#242,#135,.T.);
#308=EDGE_CURVE('',#245,#221,#136,.T.);
#309=EDGE_CURVE('',#237,#244,#137,.T.);
#310=EDGE_CURVE('',#246,#239,#138,.T.);
#311=EDGE_CURVE('',#236,#246,#139,.T.);
#312=EDGE_CURVE('',#246,#225,#140,.T.);
#313=ORIENTED_EDGE('',*,*,#247,.F.);
#314=ORIENTED_EDGE('',*,*,#248,.F.);
#315=ORIENTED_EDGE('',*,*,#249,.F.);
#316=ORIENTED_EDGE('',*,*,#250,.T.);
#317=ORIENTED_EDGE('',*,*,#251,.F.);
#318=ORIENTED_EDGE('',*,*,#250,.F.);
#319=ORIENTED_EDGE('',*,*,#252,.F.);
#320=ORIENTED_EDGE('',*,*,#253,.T.);
#321=ORIENTED_EDGE('',*,*,#254,.F.);
#322=ORIENTED_EDGE('',*,*,#253,.F.);
#323=ORIENTED_EDGE('',*,*,#255,.F.);
#324=ORIENTED_EDGE('',*,*,#256,.T.);
#325=ORIENTED_EDGE('',*,*,#257,.F.);
#326=ORIENTED_EDGE('',*,*,#256,.F.);
#327=ORIENTED_EDGE('',*,*,#258,.F.);
#328=ORIENTED_EDGE('',*,*,#248,.T.);
#329=ORIENTED_EDGE('',*,*,#259,.T.);
#330=ORIENTED_EDGE('',*,*,#260,.T.);
#331=ORIENTED_EDGE('',*,*,#261,.F.);
#332=ORIENTED_EDGE('',*,*,#262,.F.);
#333=ORIENTED_EDGE('',*,*,#263,.T.);
#334=ORIENTED_EDGE('',*,*,#262,.T.);
#335=ORIENTED_EDGE('',*,*,#264,.F.);
#336=ORIENTED_EDGE('',*,*,#265,.F.);
#337=ORIENTED_EDGE('',*,*,#255,.T.);
#338=ORIENTED_EDGE('',*,*,#252,.T.);
#339=ORIENTED_EDGE('',*,*,#249,.T.);
#340=ORIENTED_EDGE('',*,*,#258,.T.);
#341=ORIENTED_EDGE('',*,*,#266,.T.);
#342=ORIENTED_EDGE('',*,*,#265,.T.);
#343=ORIENTED_EDGE('',*,*,#267,.F.);
#344=ORIENTED_EDGE('',*,*,#268,.F.);
#345=ORIENTED_EDGE('',*,*,#269,.T.);
#346=ORIENTED_EDGE('',*,*,#268,.T.);
#347=ORIENTED_EDGE('',*,*,#270,.F.);
#348=ORIENTED_EDGE('',*,*,#260,.F.);
#349=ORIENTED_EDGE('',*,*,#254,.T.);
#350=ORIENTED_EDGE('',*,*,#257,.T.);
#351=ORIENTED_EDGE('',*,*,#247,.T.);
#352=ORIENTED_EDGE('',*,*,#251,.T.);
#353=ORIENTED_EDGE('',*,*,#270,.T.);
#354=ORIENTED_EDGE('',*,*,#267,.T.);
#355=ORIENTED_EDGE('',*,*,#264,.T.);
#356=ORIENTED_EDGE('',*,*,#261,.T.);
#357=ORIENTED_EDGE('',*,*,#269,.F.);
#358=ORIENTED_EDGE('',*,*,#259,.F.);
#359=ORIENTED_EDGE('',*,*,#263,.F.);
#360=ORIENTED_EDGE('',*,*,#266,.F.);
#361=ORIENTED_EDGE('',*,*,#271,.T.);
#362=ORIENTED_EDGE('',*,*,#272,.T.);
#363=ORIENTED_EDGE('',*,*,#273,.T.);
#364=ORIENTED_EDGE('',*,*,#274,.T.);
#365=ORIENTED_EDGE('',*,*,#271,.F.);
#366=ORIENTED_EDGE('',*,*,#275,.T.);
#367=ORIENTED_EDGE('',*,*,#276,.F.);
#368=ORIENTED_EDGE('',*,*,#277,.F.);
#369=ORIENTED_EDGE('',*,*,#278,.F.);
#370=ORIENTED_EDGE('',*,*,#279,.F.);
#371=ORIENTED_EDGE('',*,*,#280,.F.);
#372=ORIENTED_EDGE('',*,*,#281,.F.);
#373=ORIENTED_EDGE('',*,*,#282,.F.);
#374=ORIENTED_EDGE('',*,*,#283,.F.);
#375=ORIENTED_EDGE('',*,*,#284,.T.);
#376=ORIENTED_EDGE('',*,*,#285,.F.);
#377=ORIENTED_EDGE('',*,*,#286,.F.);
#378=ORIENTED_EDGE('',*,*,#287,.F.);
#379=ORIENTED_EDGE('',*,*,#274,.F.);
#380=ORIENTED_EDGE('',*,*,#288,.T.);
#381=ORIENTED_EDGE('',*,*,#289,.F.);
#382=ORIENTED_EDGE('',*,*,#275,.F.);
#383=ORIENTED_EDGE('',*,*,#290,.T.);
#384=ORIENTED_EDGE('',*,*,#291,.T.);
#385=ORIENTED_EDGE('',*,*,#276,.T.);
#386=ORIENTED_EDGE('',*,*,#289,.T.);
#387=ORIENTED_EDGE('',*,*,#292,.F.);
#388=ORIENTED_EDGE('',*,*,#280,.T.);
#389=ORIENTED_EDGE('',*,*,#293,.F.);
#390=ORIENTED_EDGE('',*,*,#294,.F.);
#391=ORIENTED_EDGE('',*,*,#295,.T.);
#392=ORIENTED_EDGE('',*,*,#296,.T.);
#393=ORIENTED_EDGE('',*,*,#293,.T.);
#394=ORIENTED_EDGE('',*,*,#279,.T.);
#395=ORIENTED_EDGE('',*,*,#297,.F.);
#396=ORIENTED_EDGE('',*,*,#298,.T.);
#397=ORIENTED_EDGE('',*,*,#299,.F.);
#398=ORIENTED_EDGE('',*,*,#284,.F.);
#399=ORIENTED_EDGE('',*,*,#285,.T.);
#400=ORIENTED_EDGE('',*,*,#299,.T.);
#401=ORIENTED_EDGE('',*,*,#300,.T.);
#402=ORIENTED_EDGE('',*,*,#301,.T.);
#403=ORIENTED_EDGE('',*,*,#297,.T.);
#404=ORIENTED_EDGE('',*,*,#283,.T.);
#405=ORIENTED_EDGE('',*,*,#302,.T.);
#406=ORIENTED_EDGE('',*,*,#303,.T.);
#407=ORIENTED_EDGE('',*,*,#304,.F.);
#408=ORIENTED_EDGE('',*,*,#305,.F.);
#409=ORIENTED_EDGE('',*,*,#302,.F.);
#410=ORIENTED_EDGE('',*,*,#282,.T.);
#411=ORIENTED_EDGE('',*,*,#306,.F.);
#412=ORIENTED_EDGE('',*,*,#286,.T.);
#413=ORIENTED_EDGE('',*,*,#301,.F.);
#414=ORIENTED_EDGE('',*,*,#307,.F.);
#415=ORIENTED_EDGE('',*,*,#272,.F.);
#416=ORIENTED_EDGE('',*,*,#287,.T.);
#417=ORIENTED_EDGE('',*,*,#306,.T.);
#418=ORIENTED_EDGE('',*,*,#308,.T.);
#419=ORIENTED_EDGE('',*,*,#273,.F.);
#420=ORIENTED_EDGE('',*,*,#308,.F.);
#421=ORIENTED_EDGE('',*,*,#307,.T.);
#422=ORIENTED_EDGE('',*,*,#300,.F.);
#423=ORIENTED_EDGE('',*,*,#298,.F.);
#424=ORIENTED_EDGE('',*,*,#303,.F.);
#425=ORIENTED_EDGE('',*,*,#305,.T.);
#426=ORIENTED_EDGE('',*,*,#309,.F.);
#427=ORIENTED_EDGE('',*,*,#294,.T.);
#428=ORIENTED_EDGE('',*,*,#296,.F.);
#429=ORIENTED_EDGE('',*,*,#310,.F.);
#430=ORIENTED_EDGE('',*,*,#311,.F.);
#431=ORIENTED_EDGE('',*,*,#290,.F.);
#432=ORIENTED_EDGE('',*,*,#288,.F.);
#433=ORIENTED_EDGE('',*,*,#292,.T.);
#434=ORIENTED_EDGE('',*,*,#309,.T.);
#435=ORIENTED_EDGE('',*,*,#304,.T.);
#436=ORIENTED_EDGE('',*,*,#281,.T.);
#437=ORIENTED_EDGE('',*,*,#278,.T.);
#438=ORIENTED_EDGE('',*,*,#312,.F.);
#439=ORIENTED_EDGE('',*,*,#310,.T.);
#440=ORIENTED_EDGE('',*,*,#295,.F.);
#441=ORIENTED_EDGE('',*,*,#291,.F.);
#442=ORIENTED_EDGE('',*,*,#311,.T.);
#443=ORIENTED_EDGE('',*,*,#312,.T.);
#444=ORIENTED_EDGE('',*,*,#277,.T.);
#445=PLANE('',#510);
#446=PLANE('',#511);
#447=PLANE('',#512);
#448=PLANE('',#513);
#449=PLANE('',#514);
#450=PLANE('',#515);
#451=PLANE('',#516);
#452=PLANE('',#517);
#453=PLANE('',#518);
#454=PLANE('',#519);
#455=PLANE('',#523);
#456=PLANE('',#525);
#457=PLANE('',#528);
#458=PLANE('',#529);
#459=PLANE('',#530);
#460=PLANE('',#531);
#461=PLANE('',#532);
#462=PLANE('',#533);
#463=PLANE('',#534);
#464=PLANE('',#535);
#465=PLANE('',#536);
#466=PLANE('',#537);
#467=PLANE('',#538);
#468=PLANE('',#539);
#469=ADVANCED_FACE('',(#25),#445,.F.);
#470=ADVANCED_FACE('',(#26),#446,.F.);
#471=ADVANCED_FACE('',(#27),#447,.F.);
#472=ADVANCED_FACE('',(#28),#448,.F.);
#473=ADVANCED_FACE('',(#29),#449,.T.);
#474=ADVANCED_FACE('',(#30,#23),#450,.T.);
#475=ADVANCED_FACE('',(#31),#451,.T.);
#476=ADVANCED_FACE('',(#32,#24),#452,.T.);
#477=ADVANCED_FACE('',(#33),#453,.T.);
#478=ADVANCED_FACE('',(#34),#454,.F.);
#479=ADVANCED_FACE('',(#35),#17,.T.);
#480=ADVANCED_FACE('',(#36),#455,.T.);
#481=ADVANCED_FACE('',(#37),#456,.T.);
#482=ADVANCED_FACE('',(#38),#18,.T.);
#483=ADVANCED_FACE('',(#39),#457,.T.);
#484=ADVANCED_FACE('',(#40),#458,.T.);
#485=ADVANCED_FACE('',(#41),#459,.T.);
#486=ADVANCED_FACE('',(#42),#460,.T.);
#487=ADVANCED_FACE('',(#43),#461,.T.);
#488=ADVANCED_FACE('',(#44),#462,.T.);
#489=ADVANCED_FACE('',(#45),#463,.T.);
#490=ADVANCED_FACE('',(#46),#464,.F.);
#491=ADVANCED_FACE('',(#47),#465,.T.);
#492=ADVANCED_FACE('',(#48),#466,.F.);
#493=ADVANCED_FACE('',(#49),#467,.T.);
#494=ADVANCED_FACE('',(#50),#468,.T.);
#495=CLOSED_SHELL('',(#469,#470,#471,#472,#473,#474,#475,#476,#477,#478));
#496=CLOSED_SHELL('',(#479,#480,#481,#482,#483,#484,#485,#486,#487,#488,
#489,#490,#491,#492,#493,#494));
#497=DERIVED_UNIT_ELEMENT(#499,1.);
#498=DERIVED_UNIT_ELEMENT(#806,-3.);
#499=(
MASS_UNIT()
NAMED_UNIT(*)
SI_UNIT(.KILO.,.GRAM.)
);
#500=DERIVED_UNIT((#497,#498));
#501=MEASURE_REPRESENTATION_ITEM('density measure',
POSITIVE_RATIO_MEASURE(7850.),#500);
#502=PROPERTY_DEFINITION_REPRESENTATION(#507,#504);
#503=PROPERTY_DEFINITION_REPRESENTATION(#508,#505);
#504=REPRESENTATION('material name',(#506),#803);
#505=REPRESENTATION('density',(#501),#803);
#506=DESCRIPTIVE_REPRESENTATION_ITEM('Steel','Steel');
#507=PROPERTY_DEFINITION('material property','material name',#813);
#508=PROPERTY_DEFINITION('material property','density of part',#813);
#509=AXIS2_PLACEMENT_3D('',#664,#540,#541);
#510=AXIS2_PLACEMENT_3D('',#665,#542,#543);
#511=AXIS2_PLACEMENT_3D('',#674,#548,#549);
#512=AXIS2_PLACEMENT_3D('',#680,#553,#554);
#513=AXIS2_PLACEMENT_3D('',#686,#558,#559);
#514=AXIS2_PLACEMENT_3D('',#689,#562,#563);
#515=AXIS2_PLACEMENT_3D('',#698,#568,#569);
#516=AXIS2_PLACEMENT_3D('',#704,#573,#574);
#517=AXIS2_PLACEMENT_3D('',#710,#578,#579);
#518=AXIS2_PLACEMENT_3D('',#713,#582,#583);
#519=AXIS2_PLACEMENT_3D('',#714,#584,#585);
#520=AXIS2_PLACEMENT_3D('',#715,#586,#587);
#521=AXIS2_PLACEMENT_3D('',#718,#588,#589);
#522=AXIS2_PLACEMENT_3D('',#722,#591,#592);
#523=AXIS2_PLACEMENT_3D('',#724,#594,#595);
#524=AXIS2_PLACEMENT_3D('',#728,#597,#598);
#525=AXIS2_PLACEMENT_3D('',#750,#610,#611);
#526=AXIS2_PLACEMENT_3D('',#754,#614,#615);
#527=AXIS2_PLACEMENT_3D('',#756,#616,#617);
#528=AXIS2_PLACEMENT_3D('',#758,#619,#620);
#529=AXIS2_PLACEMENT_3D('',#764,#624,#625);
#530=AXIS2_PLACEMENT_3D('',#768,#628,#629);
#531=AXIS2_PLACEMENT_3D('',#774,#633,#634);
#532=AXIS2_PLACEMENT_3D('',#778,#637,#638);
#533=AXIS2_PLACEMENT_3D('',#782,#641,#642);
#534=AXIS2_PLACEMENT_3D('',#786,#645,#646);
#535=AXIS2_PLACEMENT_3D('',#790,#649,#650);
#536=AXIS2_PLACEMENT_3D('',#792,#652,#653);
#537=AXIS2_PLACEMENT_3D('',#797,#657,#658);
#538=AXIS2_PLACEMENT_3D('',#798,#659,#660);
#539=AXIS2_PLACEMENT_3D('',#800,#662,#663);
#540=DIRECTION('axis',(0.,0.,1.));
#541=DIRECTION('refdir',(1.,0.,0.));
#542=DIRECTION('center_axis',(0.,-1.,0.));
#543=DIRECTION('ref_axis',(0.,0.,1.));
#544=DIRECTION('',(0.,0.,-1.));
#545=DIRECTION('',(-1.,0.,0.));
#546=DIRECTION('',(0.,0.,1.));
#547=DIRECTION('',(-1.,0.,0.));
#548=DIRECTION('center_axis',(0.,0.,-1.));
#549=DIRECTION('ref_axis',(0.,-1.,0.));
#550=DIRECTION('',(0.,1.,0.));
#551=DIRECTION('',(1.85037170770859E-16,-1.,0.));
#552=DIRECTION('',(-1.,0.,0.));
#553=DIRECTION('center_axis',(0.,1.,0.));
#554=DIRECTION('ref_axis',(0.,0.,-1.));
#555=DIRECTION('',(0.,0.,1.));
#556=DIRECTION('',(0.,0.,-1.));
#557=DIRECTION('',(-1.,0.,0.));
#558=DIRECTION('center_axis',(0.,0.,1.));
#559=DIRECTION('ref_axis',(0.,1.,0.));
#560=DIRECTION('',(0.,-1.,0.));
#561=DIRECTION('',(-1.85037170770859E-16,1.,0.));
#562=DIRECTION('center_axis',(0.,1.,0.));
#563=DIRECTION('ref_axis',(-1.,0.,0.));
#564=DIRECTION('',(-1.,0.,0.));
#565=DIRECTION('',(0.,0.,1.));
#566=DIRECTION('',(-1.,0.,0.));
#567=DIRECTION('',(0.,0.,1.));
#568=DIRECTION('center_axis',(1.,1.85037170770859E-16,0.));
#569=DIRECTION('ref_axis',(-1.85037170770859E-16,1.,0.));
#570=DIRECTION('',(-1.85037170770859E-16,1.,0.));
#571=DIRECTION('',(-1.85037170770859E-16,1.,0.));
#572=DIRECTION('',(0.,0.,1.));
#573=DIRECTION('center_axis',(0.,-1.,0.));
#574=DIRECTION('ref_axis',(1.,0.,0.));
#575=DIRECTION('',(1.,0.,0.));
#576=DIRECTION('',(1.,0.,0.));
#577=DIRECTION('',(0.,0.,1.));
#578=DIRECTION('center_axis',(-1.,0.,0.));
#579=DIRECTION('ref_axis',(0.,-1.,0.));
#580=DIRECTION('',(0.,-1.,0.));
#581=DIRECTION('',(0.,-1.,0.));
#582=DIRECTION('center_axis',(0.,0.,1.));
#583=DIRECTION('ref_axis',(1.,0.,0.));
#584=DIRECTION('center_axis',(0.,0.,1.));
#585=DIRECTION('ref_axis',(1.,0.,0.));
#586=DIRECTION('center_axis',(0.,1.,0.));
#587=DIRECTION('ref_axis',(-0.707106781186548,0.,0.707106781186547));
#588=DIRECTION('center_axis',(0.,-1.,0.));
#589=DIRECTION('ref_axis',(-0.707106781186548,0.,0.707106781186547));
#590=DIRECTION('',(0.,-1.,0.));
#591=DIRECTION('center_axis',(0.,1.,0.));
#592=DIRECTION('ref_axis',(-0.707106781186548,0.,0.707106781186547));
#593=DIRECTION('',(0.,1.,0.));
#594=DIRECTION('center_axis',(0.,1.,0.));
#595=DIRECTION('ref_axis',(0.,0.,1.));
#596=DIRECTION('',(1.,0.,0.));
#597=DIRECTION('center_axis',(0.,-1.,0.));
#598=DIRECTION('ref_axis',(0.707106781186548,0.,0.707106781186547));
#599=DIRECTION('',(0.,0.,1.));
#600=DIRECTION('',(1.,0.,0.));
#601=DIRECTION('',(0.,0.,-1.));
#602=DIRECTION('',(-1.,0.,0.));
#603=DIRECTION('',(0.,0.,-1.));
#604=DIRECTION('',(1.,0.,0.));
#605=DIRECTION('',(0.,0.,1.));
#606=DIRECTION('',(1.,0.,0.));
#607=DIRECTION('',(0.,0.,1.));
#608=DIRECTION('',(1.,0.,0.));
#609=DIRECTION('',(0.,0.,-1.));
#610=DIRECTION('center_axis',(0.,0.,1.));
#611=DIRECTION('ref_axis',(0.,-1.,0.));
#612=DIRECTION('',(1.,0.,0.));
#613=DIRECTION('',(0.,-1.,0.));
#614=DIRECTION('center_axis',(0.,-1.,0.));
#615=DIRECTION('ref_axis',(0.707106781186548,0.,0.707106781186547));
#616=DIRECTION('center_axis',(0.,1.,0.));
#617=DIRECTION('ref_axis',(0.707106781186548,0.,0.707106781186547));
#618=DIRECTION('',(0.,1.,0.));
#619=DIRECTION('center_axis',(0.,0.,1.));
#620=DIRECTION('ref_axis',(0.,1.,0.));
#621=DIRECTION('',(0.,-1.,0.));
#622=DIRECTION('',(0.,1.,0.));
#623=DIRECTION('',(-1.,0.,0.));
#624=DIRECTION('center_axis',(-1.,0.,0.));
#625=DIRECTION('ref_axis',(0.,0.,1.));
#626=DIRECTION('',(0.,-1.,0.));
#627=DIRECTION('',(0.,0.,1.));
#628=DIRECTION('center_axis',(0.,0.,1.));
#629=DIRECTION('ref_axis',(0.,-1.,0.));
#630=DIRECTION('',(0.,1.,0.));
#631=DIRECTION('',(1.,0.,0.));
#632=DIRECTION('',(0.,-1.,0.));
#633=DIRECTION('center_axis',(1.,0.,0.));
#634=DIRECTION('ref_axis',(0.,0.,-1.));
#635=DIRECTION('',(0.,0.,-1.));
#636=DIRECTION('',(0.,1.,0.));
#637=DIRECTION('center_axis',(1.,0.,0.));
#638=DIRECTION('ref_axis',(0.,0.,-1.));
#639=DIRECTION('',(0.,-1.,0.));
#640=DIRECTION('',(0.,0.,-1.));
#641=DIRECTION('center_axis',(0.,0.,-1.));
#642=DIRECTION('ref_axis',(0.,1.,0.));
#643=DIRECTION('',(0.,1.,0.));
#644=DIRECTION('',(1.,0.,0.));
#645=DIRECTION('center_axis',(0.,0.,-1.));
#646=DIRECTION('ref_axis',(0.,1.,0.));
#647=DIRECTION('',(0.,-1.,0.));
#648=DIRECTION('',(1.,0.,0.));
#649=DIRECTION('center_axis',(1.,0.,0.));
#650=DIRECTION('ref_axis',(0.,1.,0.));
#651=DIRECTION('',(0.,0.,1.));
#652=DIRECTION('center_axis',(0.,-1.,0.));
#653=DIRECTION('ref_axis',(0.,0.,-1.));
#654=DIRECTION('',(0.,0.,1.));
#655=DIRECTION('',(-1.,0.,0.));
#656=DIRECTION('',(0.,0.,-1.));
#657=DIRECTION('center_axis',(1.,0.,0.));
#658=DIRECTION('ref_axis',(0.,1.,0.));
#659=DIRECTION('center_axis',(0.,0.,-1.));
#660=DIRECTION('ref_axis',(0.,1.,0.));
#661=DIRECTION('',(0.,1.,0.));
#662=DIRECTION('center_axis',(1.,0.,0.));
#663=DIRECTION('ref_axis',(0.,0.,-1.));
#664=CARTESIAN_POINT('',(0.,0.,0.));
#665=CARTESIAN_POINT('Origin',(4.25,-0.750000000000001,1.));
#666=CARTESIAN_POINT('',(-4.25,-0.750000000000001,1.5));
#667=CARTESIAN_POINT('',(-4.25,-0.750000000000001,1.));
#668=CARTESIAN_POINT('',(-4.25,-0.750000000000001,0.5));
#669=CARTESIAN_POINT('',(4.25,-0.750000000000001,1.5));
#670=CARTESIAN_POINT('',(4.25,-0.750000000000001,1.5));
#671=CARTESIAN_POINT('',(4.25,-0.750000000000001,1.));
#672=CARTESIAN_POINT('',(4.25,-0.750000000000001,0.5));
#673=CARTESIAN_POINT('',(4.25,-0.750000000000001,1.));
#674=CARTESIAN_POINT('Origin',(4.25,0.749999999999999,1.));
#675=CARTESIAN_POINT('',(-4.25,0.749999999999999,1.));
#676=CARTESIAN_POINT('',(-4.25,1.125,1.));
#677=CARTESIAN_POINT('',(4.25,0.749999999999999,1.));
#678=CARTESIAN_POINT('',(4.25,-0.375,1.));
#679=CARTESIAN_POINT('',(4.25,0.749999999999999,1.));
#680=CARTESIAN_POINT('Origin',(4.25,0.749999999999999,1.5));
#681=CARTESIAN_POINT('',(-4.25,0.749999999999999,1.5));
#682=CARTESIAN_POINT('',(-4.25,0.749999999999999,0.75));
#683=CARTESIAN_POINT('',(4.25,0.749999999999999,1.5));
#684=CARTESIAN_POINT('',(4.25,0.749999999999999,0.75));
#685=CARTESIAN_POINT('',(4.25,0.749999999999999,1.5));
#686=CARTESIAN_POINT('Origin',(4.25,-0.750000000000001,1.5));
#687=CARTESIAN_POINT('',(-4.25,0.375,1.5));
#688=CARTESIAN_POINT('',(4.25,-1.125,1.5));
#689=CARTESIAN_POINT('Origin',(4.25,1.5,0.));
#690=CARTESIAN_POINT('',(4.25,1.5,0.));
#691=CARTESIAN_POINT('',(-4.25,1.5,0.));
#692=CARTESIAN_POINT('',(4.25,1.5,0.));
#693=CARTESIAN_POINT('',(-4.25,1.5,2.5));
#694=CARTESIAN_POINT('',(-4.25,1.5,0.));
#695=CARTESIAN_POINT('',(4.25,1.5,2.5));
#696=CARTESIAN_POINT('',(4.25,1.5,2.5));
#697=CARTESIAN_POINT('',(4.25,1.5,0.));
#698=CARTESIAN_POINT('Origin',(4.25,-1.5,0.));
#699=CARTESIAN_POINT('',(4.25,-1.5,0.));
#700=CARTESIAN_POINT('',(4.25,-1.5,0.));
#701=CARTESIAN_POINT('',(4.25,-1.5,2.5));
#702=CARTESIAN_POINT('',(4.25,-1.5,2.5));
#703=CARTESIAN_POINT('',(4.25,-1.5,0.));
#704=CARTESIAN_POINT('Origin',(-4.25,-1.5,0.));
#705=CARTESIAN_POINT('',(-4.25,-1.5,0.));
#706=CARTESIAN_POINT('',(-4.25,-1.5,0.));
#707=CARTESIAN_POINT('',(-4.25,-1.5,2.5));
#708=CARTESIAN_POINT('',(-4.25,-1.5,2.5));
#709=CARTESIAN_POINT('',(-4.25,-1.5,0.));
#710=CARTESIAN_POINT('Origin',(-4.25,1.5,0.));
#711=CARTESIAN_POINT('',(-4.25,1.5,0.));
#712=CARTESIAN_POINT('',(-4.25,1.5,2.5));
#713=CARTESIAN_POINT('Origin',(0.,0.,2.5));
#714=CARTESIAN_POINT('Origin',(0.,0.,0.));
#715=CARTESIAN_POINT('Origin',(-4.35,0.374999999999998,1.1));
#716=CARTESIAN_POINT('',(-4.35,0.749999999999998,1.3));
#717=CARTESIAN_POINT('',(-4.55,0.749999999999998,1.1));
#718=CARTESIAN_POINT('Origin',(-4.35,0.749999999999998,1.1));
#719=CARTESIAN_POINT('',(-4.55,-0.750000000000002,1.1));
#720=CARTESIAN_POINT('',(-4.55,0.374999999999998,1.1));
#721=CARTESIAN_POINT('',(-4.35,-0.750000000000002,1.3));
#722=CARTESIAN_POINT('Origin',(-4.35,-0.750000000000002,1.1));
#723=CARTESIAN_POINT('',(-4.35,0.374999999999998,1.3));
#724=CARTESIAN_POINT('Origin',(4.25,0.749999999999998,-0.3));
#725=CARTESIAN_POINT('',(4.35,0.749999999999998,1.3));
#726=CARTESIAN_POINT('',(4.25,0.749999999999998,1.3));
#727=CARTESIAN_POINT('',(4.55,0.749999999999998,1.1));
#728=CARTESIAN_POINT('Origin',(4.35,0.749999999999998,1.1));
#729=CARTESIAN_POINT('',(4.55,0.749999999999998,-0.3));
#730=CARTESIAN_POINT('',(4.55,0.749999999999998,1.3));
#731=CARTESIAN_POINT('',(3.25,0.749999999999998,-0.3));
#732=CARTESIAN_POINT('',(4.25,0.749999999999998,-0.3));
#733=CARTESIAN_POINT('',(3.25,0.749999999999998,0.));
#734=CARTESIAN_POINT('',(3.25,0.749999999999998,-0.3));
#735=CARTESIAN_POINT('',(4.25,0.749999999999998,0.));
#736=CARTESIAN_POINT('',(4.25,0.749999999999998,0.));
#737=CARTESIAN_POINT('',(4.25,0.749999999999998,1.));
#738=CARTESIAN_POINT('',(4.25,0.749999999999998,1.3));
#739=CARTESIAN_POINT('',(-4.25,0.749999999999998,1.));
#740=CARTESIAN_POINT('',(-4.25,0.749999999999998,1.));
#741=CARTESIAN_POINT('',(-4.25,0.749999999999998,0.));
#742=CARTESIAN_POINT('',(-4.25,0.749999999999998,1.3));
#743=CARTESIAN_POINT('',(-3.25,0.749999999999998,0.));
#744=CARTESIAN_POINT('',(-4.25,0.749999999999998,0.));
#745=CARTESIAN_POINT('',(-3.25,0.749999999999998,-0.3));
#746=CARTESIAN_POINT('',(-3.25,0.749999999999998,-0.3));
#747=CARTESIAN_POINT('',(-4.55,0.749999999999998,-0.3));
#748=CARTESIAN_POINT('',(-4.55,0.749999999999998,-0.3));
#749=CARTESIAN_POINT('',(-4.55,0.749999999999998,1.3));
#750=CARTESIAN_POINT('Origin',(4.25,0.749999999999998,1.3));
#751=CARTESIAN_POINT('',(4.35,-0.750000000000002,1.3));
#752=CARTESIAN_POINT('',(4.25,-0.750000000000002,1.3));
#753=CARTESIAN_POINT('',(4.35,0.374999999999998,1.3));
#754=CARTESIAN_POINT('Origin',(4.35,0.374999999999998,1.1));
#755=CARTESIAN_POINT('',(4.55,-0.750000000000002,1.1));
#756=CARTESIAN_POINT('Origin',(4.35,-0.750000000000002,1.1));
#757=CARTESIAN_POINT('',(4.55,0.374999999999998,1.1));
#758=CARTESIAN_POINT('Origin',(4.25,-0.750000000000002,0.));
#759=CARTESIAN_POINT('',(4.25,-0.750000000000002,0.));
#760=CARTESIAN_POINT('',(4.25,-0.375000000000002,0.));
#761=CARTESIAN_POINT('',(3.25,-0.750000000000002,0.));
#762=CARTESIAN_POINT('',(3.25,0.749999999999998,0.));
#763=CARTESIAN_POINT('',(4.25,-0.750000000000002,0.));
#764=CARTESIAN_POINT('Origin',(3.25,-1.66533453693773E-15,-0.15));
#765=CARTESIAN_POINT('',(3.25,-0.750000000000002,-0.3));
#766=CARTESIAN_POINT('',(3.25,-0.750000000000002,-0.3));
#767=CARTESIAN_POINT('',(3.25,-0.750000000000002,0.));
#768=CARTESIAN_POINT('Origin',(-4.25,0.749999999999998,0.));
#769=CARTESIAN_POINT('',(-4.25,-0.750000000000002,0.));
#770=CARTESIAN_POINT('',(-4.25,0.374999999999998,0.));
#771=CARTESIAN_POINT('',(-3.25,-0.750000000000002,0.));
#772=CARTESIAN_POINT('',(-4.25,-0.750000000000002,0.));
#773=CARTESIAN_POINT('',(-3.25,0.749999999999998,0.));
#774=CARTESIAN_POINT('Origin',(-3.25,-1.66533453693773E-15,-0.15));
#775=CARTESIAN_POINT('',(-3.25,-0.750000000000002,-0.3));
#776=CARTESIAN_POINT('',(-3.25,-0.750000000000002,0.));
#777=CARTESIAN_POINT('',(-3.25,-0.750000000000002,-0.3));
#778=CARTESIAN_POINT('Origin',(-4.25,-1.66533453693773E-15,0.5));
#779=CARTESIAN_POINT('',(-4.25,-0.750000000000002,1.));
#780=CARTESIAN_POINT('',(-4.25,-0.375000000000002,1.));
#781=CARTESIAN_POINT('',(-4.25,-0.750000000000002,-0.3));
#782=CARTESIAN_POINT('Origin',(-4.25,-0.750000000000002,1.));
#783=CARTESIAN_POINT('',(4.25,-0.750000000000002,1.));
#784=CARTESIAN_POINT('',(4.25,-0.375000000000002,1.));
#785=CARTESIAN_POINT('',(-4.25,-0.750000000000002,1.));
#786=CARTESIAN_POINT('Origin',(-4.55,-0.750000000000002,-0.3));
#787=CARTESIAN_POINT('',(-4.55,-0.750000000000002,-0.3));
#788=CARTESIAN_POINT('',(-4.55,0.749999999999998,-0.3));
#789=CARTESIAN_POINT('',(-4.55,-0.750000000000002,-0.3));
#790=CARTESIAN_POINT('Origin',(-4.55,-1.66533453693773E-15,0.5));
#791=CARTESIAN_POINT('',(-4.55,-0.750000000000002,-0.3));
#792=CARTESIAN_POINT('Origin',(4.25,-0.750000000000002,1.3));
#793=CARTESIAN_POINT('',(4.25,-0.750000000000002,-0.3));
#794=CARTESIAN_POINT('',(4.55,-0.750000000000002,-0.3));
#795=CARTESIAN_POINT('',(4.25,-0.750000000000002,-0.3));
#796=CARTESIAN_POINT('',(4.55,-0.750000000000002,-0.3));
#797=CARTESIAN_POINT('Origin',(4.25,-1.66533453693773E-15,0.5));
#798=CARTESIAN_POINT('Origin',(4.25,-0.750000000000002,-0.3));
#799=CARTESIAN_POINT('',(4.55,0.749999999999998,-0.3));
#800=CARTESIAN_POINT('Origin',(4.55,-1.66533453693773E-15,0.5));
#801=UNCERTAINTY_MEASURE_WITH_UNIT(LENGTH_MEASURE(0.01),#805,
'DISTANCE_ACCURACY_VALUE',
'Maximum model space distance between geometric entities at asserted c
onnectivities');
#802=UNCERTAINTY_MEASURE_WITH_UNIT(LENGTH_MEASURE(0.01),#805,
'DISTANCE_ACCURACY_VALUE',
'Maximum model space distance between geometric entities at asserted c
onnectivities');
#803=(
GEOMETRIC_REPRESENTATION_CONTEXT(3)
GLOBAL_UNCERTAINTY_ASSIGNED_CONTEXT((#801))
GLOBAL_UNIT_ASSIGNED_CONTEXT((#805,#807,#808))
REPRESENTATION_CONTEXT('','3D')
);
#804=(
GEOMETRIC_REPRESENTATION_CONTEXT(3)
GLOBAL_UNCERTAINTY_ASSIGNED_CONTEXT((#802))
GLOBAL_UNIT_ASSIGNED_CONTEXT((#805,#807,#808))
REPRESENTATION_CONTEXT('','3D')
);
#805=(
LENGTH_UNIT()
NAMED_UNIT(*)
SI_UNIT(.MILLI.,.METRE.)
);
#806=(
LENGTH_UNIT()
NAMED_UNIT(*)
SI_UNIT($,.METRE.)
);
#807=(
NAMED_UNIT(*)
PLANE_ANGLE_UNIT()
SI_UNIT($,.RADIAN.)
);
#808=(
NAMED_UNIT(*)
SI_UNIT($,.STERADIAN.)
SOLID_ANGLE_UNIT()
);
#809=SHAPE_DEFINITION_REPRESENTATION(#810,#811);
#810=PRODUCT_DEFINITION_SHAPE('',$,#813);
#811=SHAPE_REPRESENTATION('',(#509),#803);
#812=PRODUCT_DEFINITION_CONTEXT('part definition',#817,'design');
#813=PRODUCT_DEFINITION('BPH853025R5-101T','BPH853025R5-101T v2',#814,#812);
#814=PRODUCT_DEFINITION_FORMATION('',$,#819);
#815=PRODUCT_RELATED_PRODUCT_CATEGORY('BPH853025R5-101T v2',
'BPH853025R5-101T v2',(#819));
#816=APPLICATION_PROTOCOL_DEFINITION('international standard',
'automotive_design',2009,#817);
#817=APPLICATION_CONTEXT(
'Core Data for Automotive Mechanical Design Process');
#818=PRODUCT_CONTEXT('part definition',#817,'mechanical');
#819=PRODUCT('BPH853025R5-101T','BPH853025R5-101T v2',$,(#818));
#820=PRESENTATION_STYLE_ASSIGNMENT((#822));
#821=PRESENTATION_STYLE_ASSIGNMENT((#823));
#822=SURFACE_STYLE_USAGE(.BOTH.,#824);
#823=SURFACE_STYLE_USAGE(.BOTH.,#825);
#824=SURFACE_SIDE_STYLE('',(#826));
#825=SURFACE_SIDE_STYLE('',(#827));
#826=SURFACE_STYLE_FILL_AREA(#828);
#827=SURFACE_STYLE_FILL_AREA(#829);
#828=FILL_AREA_STYLE('Steel - Satin',(#830));
#829=FILL_AREA_STYLE('Aluminum nitride (AlN)',(#831));
#830=FILL_AREA_STYLE_COLOUR('Steel - Satin',#832);
#831=FILL_AREA_STYLE_COLOUR('Aluminum nitride (AlN)',#833);
#832=COLOUR_RGB('Steel - Satin',0.627450980392157,0.627450980392157,0.627450980392157);
#833=COLOUR_RGB('Aluminum nitride (AlN)',0.850980392156863,0.827450980392157,
0.788235294117647);
ENDSEC;
END-ISO-10303-21;
