ISO-10303-21;
HEADER;
FILE_DESCRIPTION (( 'STEP AP203' ),
    '1' );
FILE_NAME ('2512-1.0mΩ.STEP',
    '2023-11-22T07:41:36',
    ( 'meks@163.com' ),
    ( '' ),
    'SwSTEP 2.0',
    'SolidWorks 2020',
    '' );
FILE_SCHEMA (( 'CONFIG_CONTROL_DESIGN' ));
ENDSEC;

DATA;
#1 = VERTEX_POINT ( 'NONE', #294 ) ;
#2 = VECTOR ( 'NONE', #380, 1000.000000000000000 ) ;
#3 = AXIS2_PLACEMENT_3D ( 'NONE', #473, #41, #907 ) ;
#4 = PRODUCT ( '2512-1.0mΩ', '2512-1.0mΩ', '', ( #838 ) ) ;
#5 = DIRECTION ( 'NONE',  ( -0.000000000000000000, -0.000000000000000000, -1.000000000000000000 ) ) ;
#6 = EDGE_CURVE ( 'NONE', #931, #278, #365, .T. ) ;
#7 = EDGE_LOOP ( 'NONE', ( #85, #843, #489, #409 ) ) ;
#8 = LINE ( 'NONE', #592, #66 ) ;
#9 = DIRECTION ( 'NONE',  ( -1.000000000000000000, 0.000000000000000000, -0.000000000000000000 ) ) ;
#10 = DIRECTION ( 'NONE',  ( -1.000000000000000000, -0.000000000000000000, -0.000000000000000000 ) ) ;
#11 = EDGE_CURVE ( 'NONE', #340, #366, #401, .T. ) ;
#12 = ADVANCED_FACE ( 'NONE', ( #865 ), #797, .F. ) ;
#13 = PRODUCT_DEFINITION_SHAPE ( 'NONE', 'NONE',  #352 ) ;
#14 = ORIENTED_EDGE ( 'NONE', *, *, #116, .T. ) ;
#15 = DIRECTION ( 'NONE',  ( -1.000000000000000000, -0.000000000000000000, -0.000000000000000000 ) ) ;
#16 = CARTESIAN_POINT ( 'NONE',  ( 3.149999999999999911, -0.3499999999999996447, 1.500000000000000000 ) ) ;
#17 = CARTESIAN_POINT ( 'NONE',  ( -3.149999999999999911, -0.3499999999999996447, 1.500000000000000000 ) ) ;
#18 = ORIENTED_EDGE ( 'NONE', *, *, #64, .F. ) ;
#19 = CARTESIAN_POINT ( 'NONE',  ( -2.015685424949238413, 0.05000000000000023870, 1.500000000000000000 ) ) ;
#20 = VERTEX_POINT ( 'NONE', #369 ) ;
#21 = CARTESIAN_POINT ( 'NONE',  ( -1.500000000000001332, 0.4000000000000000222, -1.500000000000000000 ) ) ;
#22 = FACE_OUTER_BOUND ( 'NONE', #354, .T. ) ;
#23 = DIRECTION ( 'NONE',  ( 0.000000000000000000, 0.000000000000000000, -1.000000000000000000 ) ) ;
#24 = LINE ( 'NONE', #84, #57 ) ;
#25 = ORIENTED_EDGE ( 'NONE', *, *, #135, .F. ) ;
#26 = LINE ( 'NONE', #379, #292 ) ;
#27 = CARTESIAN_POINT ( 'NONE',  ( 3.149999999999999911, -0.3499999999999996447, -1.500000000000000000 ) ) ;
#28 = LINE ( 'NONE', #232, #274 ) ;
#29 = ORIENTED_EDGE ( 'NONE', *, *, #864, .F. ) ;
#30 = DIRECTION ( 'NONE',  ( 0.000000000000000000, 0.000000000000000000, -1.000000000000000000 ) ) ;
#31 = CARTESIAN_POINT ( 'NONE',  ( -1.500000000000001332, 0.4000000000000000222, 1.500000000000000000 ) ) ;
#32 = LINE ( 'NONE', #801, #212 ) ;
#33 = CARTESIAN_POINT ( 'NONE',  ( -3.149999999999999911, -0.3499999999999996447, 1.500000000000000000 ) ) ;
#34 = ORIENTED_EDGE ( 'NONE', *, *, #773, .F. ) ;
#35 = APPROVAL_ROLE ( '' ) ;
#36 = LINE ( 'NONE', #330, #361 ) ;
#37 = CARTESIAN_POINT ( 'NONE',  ( -1.500000000000001332, 0.000000000000000000, 1.500000000000000000 ) ) ;
#38 = ORIENTED_EDGE ( 'NONE', *, *, #392, .T. ) ;
#39 = COORDINATED_UNIVERSAL_TIME_OFFSET ( 8, 0, .AHEAD. ) ;
#40 = FACE_OUTER_BOUND ( 'NONE', #273, .T. ) ;
#41 = DIRECTION ( 'NONE',  ( 0.000000000000000000, 0.000000000000000000, -1.000000000000000000 ) ) ;
#42 = VECTOR ( 'NONE', #595, 1000.000000000000000 ) ;
#43 = DIRECTION ( 'NONE',  ( 1.000000000000000000, 1.668003342285391551E-16, 0.000000000000000000 ) ) ;
#44 = AXIS2_PLACEMENT_3D ( 'NONE', #181, #480, #698 ) ;
#45 = EDGE_CURVE ( 'NONE', #243, #419, #433, .T. ) ;
#46 = ORIENTED_EDGE ( 'NONE', *, *, #64, .T. ) ;
#47 = EDGE_CURVE ( 'NONE', #931, #533, #589, .T. ) ;
#48 = APPLICATION_PROTOCOL_DEFINITION ( 'international standard', 'config_control_design', 1994, #193 ) ;
#49 = FACE_OUTER_BOUND ( 'NONE', #847, .T. ) ;
#50 = ORIENTED_EDGE ( 'NONE', *, *, #882, .F. ) ;
#51 = ORIENTED_EDGE ( 'NONE', *, *, #516, .F. ) ;
#52 = AXIS2_PLACEMENT_3D ( 'NONE', #740, #82, #796 ) ;
#53 = ORIENTED_EDGE ( 'NONE', *, *, #209, .F. ) ;
#54 = ORIENTED_EDGE ( 'NONE', *, *, #446, .T. ) ;
#55 = EDGE_CURVE ( 'NONE', #774, #919, #650, .T. ) ;
#56 = ORIENTED_EDGE ( 'NONE', *, *, #55, .F. ) ;
#57 = VECTOR ( 'NONE', #466, 1000.000000000000000 ) ;
#58 = ORIENTED_EDGE ( 'NONE', *, *, #116, .F. ) ;
#59 = PLANE ( 'NONE',  #97 ) ;
#60 = EDGE_LOOP ( 'NONE', ( #125, #575, #192, #721 ) ) ;
#61 = DIRECTION ( 'NONE',  ( -1.000000000000000000, -0.000000000000000000, 0.000000000000000000 ) ) ;
#62 = AXIS2_PLACEMENT_3D ( 'NONE', #713, #213, #71 ) ;
#63 = CARTESIAN_POINT ( 'NONE',  ( -1.425000000000000044, 0.000000000000000000, 1.500000000000000000 ) ) ;
#64 = EDGE_CURVE ( 'NONE', #919, #704, #588, .T. ) ;
#65 = CARTESIAN_POINT ( 'NONE',  ( 1.782842712474620672, 0.2828427124746184518, -1.500000000000000000 ) ) ;
#66 = VECTOR ( 'NONE', #534, 1000.000000000000000 ) ;
#67 = ORIENTED_EDGE ( 'NONE', *, *, #505, .T. ) ;
#68 = ADVANCED_FACE ( 'NONE', ( #868 ), #358, .T. ) ;
#69 = ADVANCED_FACE ( 'NONE', ( #728 ), #518, .F. ) ;
#70 = EDGE_LOOP ( 'NONE', ( #492, #608, #402, #567 ) ) ;
#71 = DIRECTION ( 'NONE',  ( -1.000000000000000000, -8.809142651444719582E-16, 0.000000000000000000 ) ) ;
#72 = APPROVAL ( #905, '未指定' ) ;
#73 = VECTOR ( 'NONE', #658, 1000.000000000000000 ) ;
#74 = EDGE_LOOP ( 'NONE', ( #229, #764, #344, #149 ) ) ;
#75 = DIRECTION ( 'NONE',  ( 0.000000000000000000, -1.000000000000000000, 0.000000000000000000 ) ) ;
#76 = EDGE_CURVE ( 'NONE', #183, #812, #792, .T. ) ;
#77 = DIRECTION ( 'NONE',  ( -1.478157296106082569E-16, 1.000000000000000000, 0.000000000000000000 ) ) ;
#78 = LINE ( 'NONE', #506, #853 ) ;
#79 = EDGE_CURVE ( 'NONE', #889, #705, #78, .T. ) ;
#80 = EDGE_LOOP ( 'NONE', ( #106, #814, #545, #600 ) ) ;
#81 = CARTESIAN_POINT ( 'NONE',  ( 1.500000000000001332, 0.000000000000000000, 1.500000000000000000 ) ) ;
#82 = DIRECTION ( 'NONE',  ( 1.668003342285391551E-16, -1.000000000000000000, 0.000000000000000000 ) ) ;
#83 = CARTESIAN_POINT ( 'NONE',  ( -1.500000000000001332, 0.000000000000000000, -1.500000000000000000 ) ) ;
#84 = CARTESIAN_POINT ( 'NONE',  ( 1.850000000000000089, -0.3499999999999998113, -1.500000000000000000 ) ) ;
#85 = ORIENTED_EDGE ( 'NONE', *, *, #6, .T. ) ;
#86 = DIRECTION ( 'NONE',  ( -1.000000000000000000, 0.000000000000000000, 0.000000000000000000 ) ) ;
#87 = CARTESIAN_POINT ( 'NONE',  ( 1.425000000000000044, 0.4000000000000000222, 1.500000000000000000 ) ) ;
#88 = DIRECTION ( 'NONE',  ( -1.000000000000000000, 0.000000000000000000, 0.000000000000000000 ) ) ;
#89 = ORIENTED_EDGE ( 'NONE', *, *, #148, .T. ) ;
#90 = AXIS2_PLACEMENT_3D ( 'NONE', #598, #883, #870 ) ;
#91 = DIRECTION ( 'NONE',  ( 0.000000000000000000, -1.000000000000000000, 0.000000000000000000 ) ) ;
#92 = ORIENTED_EDGE ( 'NONE', *, *, #877, .F. ) ;
#93 = FACE_OUTER_BOUND ( 'NONE', #60, .T. ) ;
#94 = PLANE ( 'NONE',  #432 ) ;
#95 = CARTESIAN_POINT ( 'NONE',  ( 3.149999999999999911, 0.05000000000000040523, 1.500000000000000000 ) ) ;
#96 = LOCAL_TIME ( 15, 41, 36.00000000000000000, #322 ) ;
#97 = AXIS2_PLACEMENT_3D ( 'NONE', #205, #206, #211 ) ;
#98 = ORIENTED_EDGE ( 'NONE', *, *, #226, .T. ) ;
#99 = UNCERTAINTY_MEASURE_WITH_UNIT (LENGTH_MEASURE( 1.000000000000000082E-05 ), #331, 'distance_accuracy_value', 'NONE');
#100 = CIRCLE ( 'NONE', #217, 0.3999999999999999667 ) ;
#101 = CARTESIAN_POINT ( 'NONE',  ( -1.500000000000001332, 0.000000000000000000, 1.500000000000000000 ) ) ;
#102 = ORIENTED_EDGE ( 'NONE', *, *, #449, .T. ) ;
#103 = CARTESIAN_POINT ( 'NONE',  ( -1.425000000000000044, 0.000000000000000000, 1.500000000000000000 ) ) ;
#104 = CARTESIAN_POINT ( 'NONE',  ( 3.149999999999999911, -0.3499999999999996447, 1.500000000000000000 ) ) ;
#105 = LINE ( 'NONE', #802, #757 ) ;
#106 = ORIENTED_EDGE ( 'NONE', *, *, #135, .T. ) ;
#107 = FACE_OUTER_BOUND ( 'NONE', #493, .T. ) ;
#108 = FACE_OUTER_BOUND ( 'NONE', #279, .T. ) ;
#109 = ORIENTED_EDGE ( 'NONE', *, *, #516, .T. ) ;
#110 = CC_DESIGN_PERSON_AND_ORGANIZATION_ASSIGNMENT ( #334, #819, ( #352 ) ) ;
#111 = VECTOR ( 'NONE', #210, 1000.000000000000000 ) ;
#112 = EDGE_CURVE ( 'NONE', #421, #563, #729, .T. ) ;
#113 = CARTESIAN_POINT ( 'NONE',  ( 2.015685424949238413, 0.05000000000000022482, -1.500000000000000000 ) ) ;
#114 = LINE ( 'NONE', #417, #349 ) ;
#115 = VECTOR ( 'NONE', #223, 1000.000000000000000 ) ;
#116 = EDGE_CURVE ( 'NONE', #705, #700, #289, .T. ) ;
#117 = ORIENTED_EDGE ( 'NONE', *, *, #185, .T. ) ;
#118 = PERSON_AND_ORGANIZATION ( #459, #227 ) ;
#119 = DIRECTION ( 'NONE',  ( -0.7071067811865486830, -0.7071067811865464625, 0.000000000000000000 ) ) ;
#120 = ORIENTED_EDGE ( 'NONE', *, *, #208, .F. ) ;
#121 = MANIFOLD_SOLID_BREP ( '切除-拉伸2[1]', #357 ) ;
#122 = ORIENTED_EDGE ( 'NONE', *, *, #256, .T. ) ;
#123 = PLANE ( 'NONE',  #130 ) ;
#124 = DIRECTION ( 'NONE',  ( -1.668003342285391551E-16, -1.000000000000000000, 0.000000000000000000 ) ) ;
#125 = ORIENTED_EDGE ( 'NONE', *, *, #851, .F. ) ;
#126 = ORIENTED_EDGE ( 'NONE', *, *, #671, .T. ) ;
#127 = ADVANCED_FACE ( 'NONE', ( #136 ), #941, .T. ) ;
#128 = VECTOR ( 'NONE', #593, 1000.000000000000000 ) ;
#129 = VERTEX_POINT ( 'NONE', #291 ) ;
#130 = AXIS2_PLACEMENT_3D ( 'NONE', #479, #688, #702 ) ;
#131 = ORIENTED_EDGE ( 'NONE', *, *, #690, .F. ) ;
#132 = CARTESIAN_POINT ( 'NONE',  ( -1.500000000000001332, 0.000000000000000000, 1.500000000000000000 ) ) ;
#133 = ORIENTED_EDGE ( 'NONE', *, *, #249, .F. ) ;
#134 = DIRECTION ( 'NONE',  ( -0.7071067811865464625, -0.7071067811865486830, 0.000000000000000000 ) ) ;
#135 = EDGE_CURVE ( 'NONE', #825, #812, #586, .T. ) ;
#136 = FACE_OUTER_BOUND ( 'NONE', #165, .T. ) ;
#137 = LINE ( 'NONE', #431, #511 ) ;
#138 = EDGE_CURVE ( 'NONE', #563, #327, #530, .T. ) ;
#139 = APPLICATION_CONTEXT ( 'configuration controlled 3d designs of mechanical parts and assemblies' ) ;
#140 = ORIENTED_EDGE ( 'NONE', *, *, #882, .T. ) ;
#141 = EDGE_CURVE ( 'NONE', #129, #872, #28, .T. ) ;
#142 = LINE ( 'NONE', #360, #215 ) ;
#143 = LOCAL_TIME ( 15, 41, 36.00000000000000000, #609 ) ;
#144 = AXIS2_PLACEMENT_3D ( 'NONE', #337, #290, #583 ) ;
#145 = EDGE_LOOP ( 'NONE', ( #551, #203, #317, #558 ) ) ;
#146 = CC_DESIGN_PERSON_AND_ORGANIZATION_ASSIGNMENT ( #118, #410, ( #4 ) ) ;
#147 = CARTESIAN_POINT ( 'NONE',  ( -1.425000000000000044, 0.3999999999999999667, 1.500000000000000000 ) ) ;
#148 = EDGE_CURVE ( 'NONE', #900, #540, #390, .T. ) ;
#149 = ORIENTED_EDGE ( 'NONE', *, *, #138, .F. ) ;
#150 = DIRECTION ( 'NONE',  ( -1.000000000000000000, -0.000000000000000000, 0.000000000000000000 ) ) ;
#151 = PLANE ( 'NONE',  #328 ) ;
#152 = ORIENTED_EDGE ( 'NONE', *, *, #826, .T. ) ;
#153 = DESIGN_CONTEXT ( 'detailed design', #193, 'design' ) ;
#154 = ORIENTED_EDGE ( 'NONE', *, *, #76, .T. ) ;
#155 = CYLINDRICAL_SURFACE ( 'NONE', #738, 0.3999999999999999667 ) ;
#156 = PLANE ( 'NONE',  #90 ) ;
#157 = DIRECTION ( 'NONE',  ( 0.000000000000000000, 0.000000000000000000, -1.000000000000000000 ) ) ;
#158 = ADVANCED_BREP_SHAPE_REPRESENTATION ( '2512-1.0mΩ', ( #121, #437, #750, #791 ), #925 ) ;
#159 = LINE ( 'NONE', #454, #436 ) ;
#160 = VERTEX_POINT ( 'NONE', #95 ) ;
#161 = LINE ( 'NONE', #31, #525 ) ;
#162 = CARTESIAN_POINT ( 'NONE',  ( -1.425000000000000044, 0.000000000000000000, -1.500000000000000000 ) ) ;
#163 = DIRECTION ( 'NONE',  ( -0.7071067811865464625, -0.7071067811865486830, 0.000000000000000000 ) ) ;
#164 = EDGE_CURVE ( 'NONE', #637, #20, #304, .T. ) ;
#165 = EDGE_LOOP ( 'NONE', ( #92, #189, #467, #924 ) ) ;
#166 = LINE ( 'NONE', #377, #171 ) ;
#167 = ORIENTED_EDGE ( 'NONE', *, *, #701, .F. ) ;
#168 = LINE ( 'NONE', #103, #555 ) ;
#169 = LINE ( 'NONE', #463, #866 ) ;
#170 = DIRECTION ( 'NONE',  ( -0.000000000000000000, -0.000000000000000000, 1.000000000000000000 ) ) ;
#171 = VECTOR ( 'NONE', #539, 1000.000000000000000 ) ;
#172 = APPROVAL_STATUS ( 'not_yet_approved' ) ;
#173 = CARTESIAN_POINT ( 'NONE',  ( -1.850000000000000089, 0.05000000000000018319, 1.500000000000000000 ) ) ;
#174 = ORIENTED_EDGE ( 'NONE', *, *, #734, .T. ) ;
#175 = DIRECTION ( 'NONE',  ( -1.000000000000000000, -1.668003342285391551E-16, 0.000000000000000000 ) ) ;
#176 = CARTESIAN_POINT ( 'NONE',  ( -1.500000000000001332, 0.4000000000000000222, 1.500000000000000000 ) ) ;
#177 = CARTESIAN_POINT ( 'NONE',  ( 1.500000000000001332, 0.000000000000000000, -1.500000000000000000 ) ) ;
#178 = ORIENTED_EDGE ( 'NONE', *, *, #408, .T. ) ;
#179 = DIRECTION ( 'NONE',  ( -0.000000000000000000, -0.000000000000000000, -1.000000000000000000 ) ) ;
#180 = CARTESIAN_POINT ( 'NONE',  ( -1.425000000000000044, 0.000000000000000000, -1.500000000000000000 ) ) ;
#181 = CARTESIAN_POINT ( 'NONE',  ( 1.424999999999999822, 1.466964544763435185, -5.000000000000000000 ) ) ;
#182 = CC_DESIGN_DATE_AND_TIME_ASSIGNMENT ( #681, #621, ( #352 ) ) ;
#183 = VERTEX_POINT ( 'NONE', #614 ) ;
#184 = APPROVAL_DATE_TIME ( #248, #72 ) ;
#185 = EDGE_CURVE ( 'NONE', #391, #486, #239, .T. ) ;
#186 = FACE_OUTER_BOUND ( 'NONE', #455, .T. ) ;
#187 = FACE_OUTER_BOUND ( 'NONE', #199, .T. ) ;
#188 = EDGE_CURVE ( 'NONE', #563, #886, #759, .T. ) ;
#189 = ORIENTED_EDGE ( 'NONE', *, *, #918, .F. ) ;
#190 = VECTOR ( 'NONE', #364, 1000.000000000000000 ) ;
#191 = CARTESIAN_POINT ( 'NONE',  ( 1.732842712474618851, -0.2328427124746182686, 1.500000000000000000 ) ) ;
#192 = ORIENTED_EDGE ( 'NONE', *, *, #773, .T. ) ;
#193 = APPLICATION_CONTEXT ( 'configuration controlled 3d designs of mechanical parts and assemblies' ) ;
#194 = ORIENTED_EDGE ( 'NONE', *, *, #585, .F. ) ;
#195 = LINE ( 'NONE', #775, #601 ) ;
#196 = FACE_OUTER_BOUND ( 'NONE', #343, .T. ) ;
#197 = ORIENTED_EDGE ( 'NONE', *, *, #208, .T. ) ;
#198 = ORIENTED_EDGE ( 'NONE', *, *, #652, .F. ) ;
#199 = EDGE_LOOP ( 'NONE', ( #109, #140, #841, #461 ) ) ;
#200 = ORIENTED_EDGE ( 'NONE', *, *, #864, .T. ) ;
#201 = CARTESIAN_POINT ( 'NONE',  ( 1.425000000000000044, 0.000000000000000000, 1.500000000000000000 ) ) ;
#202 = VECTOR ( 'NONE', #5, 1000.000000000000000 ) ;
#203 = ORIENTED_EDGE ( 'NONE', *, *, #138, .T. ) ;
#204 = ORIENTED_EDGE ( 'NONE', *, *, #372, .T. ) ;
#205 = CARTESIAN_POINT ( 'NONE',  ( -1.500000000000001332, 0.4000000000000000222, 1.500000000000000000 ) ) ;
#206 = DIRECTION ( 'NONE',  ( 0.000000000000000000, -1.000000000000000000, 0.000000000000000000 ) ) ;
#207 = EDGE_CURVE ( 'NONE', #428, #700, #320, .T. ) ;
#208 = EDGE_CURVE ( 'NONE', #438, #743, #910, .T. ) ;
#209 = EDGE_CURVE ( 'NONE', #160, #736, #810, .T. ) ;
#210 = DIRECTION ( 'NONE',  ( 0.000000000000000000, 0.000000000000000000, -1.000000000000000000 ) ) ;
#211 = DIRECTION ( 'NONE',  ( 0.000000000000000000, 0.000000000000000000, -1.000000000000000000 ) ) ;
#212 = VECTOR ( 'NONE', #77, 1000.000000000000000 ) ;
#213 = DIRECTION ( 'NONE',  ( -0.000000000000000000, -0.000000000000000000, 1.000000000000000000 ) ) ;
#214 = CC_DESIGN_SECURITY_CLASSIFICATION ( #485, ( #751 ) ) ;
#215 = VECTOR ( 'NONE', #504, 1000.000000000000000 ) ;
#216 = CARTESIAN_POINT ( 'NONE',  ( -1.425000000000000044, 0.3999999999999999667, 1.500000000000000000 ) ) ;
#217 = AXIS2_PLACEMENT_3D ( 'NONE', #246, #170, #748 ) ;
#218 = EDGE_CURVE ( 'NONE', #263, #183, #884, .T. ) ;
#219 = FACE_OUTER_BOUND ( 'NONE', #703, .T. ) ;
#220 = DIRECTION ( 'NONE',  ( -0.7071067811865464625, -0.7071067811865486830, 0.000000000000000000 ) ) ;
#221 = DIRECTION ( 'NONE',  ( 0.000000000000000000, 0.000000000000000000, -1.000000000000000000 ) ) ;
#222 = VERTEX_POINT ( 'NONE', #389 ) ;
#223 = DIRECTION ( 'NONE',  ( -0.000000000000000000, -0.000000000000000000, 1.000000000000000000 ) ) ;
#224 = CARTESIAN_POINT ( 'NONE',  ( -1.732842712474618851, -0.2328427124746182408, -1.500000000000000000 ) ) ;
#225 = CARTESIAN_POINT ( 'NONE',  ( 3.149999999999999911, 0.05000000000000040523, -1.500000000000000000 ) ) ;
#226 = EDGE_CURVE ( 'NONE', #495, #849, #100, .T. ) ;
#227 = ORGANIZATION ( '未指定', '未指定', '' ) ;
#228 = DIRECTION ( 'NONE',  ( -0.000000000000000000, -0.000000000000000000, -1.000000000000000000 ) ) ;
#229 = ORIENTED_EDGE ( 'NONE', *, *, #112, .F. ) ;
#230 = CARTESIAN_POINT ( 'NONE',  ( 1.500000000000001332, 0.000000000000000000, -1.500000000000000000 ) ) ;
#231 = DIRECTION ( 'NONE',  ( -1.000000000000000000, 0.000000000000000000, -0.000000000000000000 ) ) ;
#232 = CARTESIAN_POINT ( 'NONE',  ( -1.425000000000000044, 0.3999999999999999667, -1.500000000000000000 ) ) ;
#233 = ORIENTED_EDGE ( 'NONE', *, *, #449, .F. ) ;
#234 = EDGE_CURVE ( 'NONE', #540, #889, #670, .T. ) ;
#235 = LINE ( 'NONE', #828, #452 ) ;
#236 = ORIENTED_EDGE ( 'NONE', *, *, #742, .F. ) ;
#237 = CARTESIAN_POINT ( 'NONE',  ( -2.015685424949238413, 0.05000000000000021094, 1.500000000000000000 ) ) ;
#238 = DIRECTION ( 'NONE',  ( -1.000000000000000000, -1.668003342285391551E-16, -0.000000000000000000 ) ) ;
#239 = LINE ( 'NONE', #225, #793 ) ;
#240 = ORIENTED_EDGE ( 'NONE', *, *, #414, .F. ) ;
#241 = PERSON_AND_ORGANIZATION ( #459, #227 ) ;
#242 = DIRECTION ( 'NONE',  ( -0.000000000000000000, -0.000000000000000000, 1.000000000000000000 ) ) ;
#243 = VERTEX_POINT ( 'NONE', #396 ) ;
#244 = DIRECTION ( 'NONE',  ( -0.000000000000000000, -0.000000000000000000, -1.000000000000000000 ) ) ;
#245 = DIRECTION ( 'NONE',  ( 0.000000000000000000, -0.000000000000000000, -1.000000000000000000 ) ) ;
#246 = CARTESIAN_POINT ( 'NONE',  ( 1.500000000000001332, 0.000000000000000000, 1.500000000000000000 ) ) ;
#247 = ORIENTED_EDGE ( 'NONE', *, *, #716, .F. ) ;
#248 = DATE_AND_TIME ( #893, #143 ) ;
#249 = EDGE_CURVE ( 'NONE', #818, #812, #105, .T. ) ;
#250 = DIRECTION ( 'NONE',  ( 0.7071067811865463515, -0.7071067811865487940, 0.000000000000000000 ) ) ;
#251 = DIRECTION ( 'NONE',  ( 0.7071067811865487940, -0.7071067811865463515, 0.000000000000000000 ) ) ;
#252 = CARTESIAN_POINT ( 'NONE',  ( -1.425000000000000044, 0.000000000000000000, 1.500000000000000000 ) ) ;
#253 = PERSON_AND_ORGANIZATION_ROLE ( 'creator' ) ;
#254 = AXIS2_PLACEMENT_3D ( 'NONE', #833, #902, #250 ) ;
#255 = AXIS2_PLACEMENT_3D ( 'NONE', #313, #157, #88 ) ;
#256 = EDGE_CURVE ( 'NONE', #20, #438, #733, .T. ) ;
#257 = DIRECTION ( 'NONE',  ( -1.000000000000000000, 0.000000000000000000, 0.000000000000000000 ) ) ;
#258 = APPLICATION_PROTOCOL_DEFINITION ( 'international standard', 'config_control_design', 1994, #139 ) ;
#259 = CARTESIAN_POINT ( 'NONE',  ( -1.782842712474620672, 0.2828427124746184518, -1.500000000000000000 ) ) ;
#260 = DATE_AND_TIME ( #477, #566 ) ;
#261 = VECTOR ( 'NONE', #394, 1000.000000000000000 ) ;
#262 = CARTESIAN_POINT ( 'NONE',  ( -1.850000000000000089, -0.3499999999999998113, 1.500000000000000000 ) ) ;
#263 = VERTEX_POINT ( 'NONE', #17 ) ;
#264 = DATE_AND_TIME ( #383, #407 ) ;
#265 = ORIENTED_EDGE ( 'NONE', *, *, #649, .T. ) ;
#266 = VECTOR ( 'NONE', #220, 1000.000000000000000 ) ;
#267 = LINE ( 'NONE', #767, #445 ) ;
#268 = ADVANCED_FACE ( 'NONE', ( #187 ), #549, .F. ) ;
#269 = CARTESIAN_POINT ( 'NONE',  ( 1.424999999999999600, 0.3999999999999999667, 1.500000000000000000 ) ) ;
#270 = ORIENTED_EDGE ( 'NONE', *, *, #808, .T. ) ;
#271 = CIRCLE ( 'NONE', #3, 0.3999999999999999667 ) ;
#272 = VECTOR ( 'NONE', #356, 1000.000000000000000 ) ;
#273 = EDGE_LOOP ( 'NONE', ( #58, #676, #615, #709 ) ) ;
#274 = VECTOR ( 'NONE', #607, 1000.000000000000000 ) ;
#275 = ORIENTED_EDGE ( 'NONE', *, *, #858, .F. ) ;
#276 = ORIENTED_EDGE ( 'NONE', *, *, #858, .T. ) ;
#277 = FACE_OUTER_BOUND ( 'NONE', #321, .T. ) ;
#278 = VERTEX_POINT ( 'NONE', #252 ) ;
#279 = EDGE_LOOP ( 'NONE', ( #198, #200, #333, #152 ) ) ;
#280 = PLANE ( 'NONE',  #654 ) ;
#281 = CLOSED_SHELL ( 'NONE', ( #355, #522, #584, #913, #287, #580, #932, #647, #375, #844, #376, #427 ) ) ;
#282 = ORIENTED_EDGE ( 'NONE', *, *, #414, .T. ) ;
#283 = ADVANCED_FACE ( 'NONE', ( #49 ), #845, .T. ) ;
#284 = CC_DESIGN_APPROVAL ( #72, ( #352 ) ) ;
#285 = CARTESIAN_POINT ( 'NONE',  ( 1.424999999999999822, 0.000000000000000000, -1.500000000000000000 ) ) ;
#286 = ADVANCED_FACE ( 'NONE', ( #763 ), #915, .F. ) ;
#287 = ADVANCED_FACE ( 'NONE', ( #108 ), #484, .T. ) ;
#288 = VECTOR ( 'NONE', #680, 1000.000000000000000 ) ;
#289 = LINE ( 'NONE', #787, #656 ) ;
#290 = DIRECTION ( 'NONE',  ( 0.000000000000000000, 1.000000000000000000, 0.000000000000000000 ) ) ;
#291 = CARTESIAN_POINT ( 'NONE',  ( -1.425000000000000044, 0.3999999999999999667, -1.500000000000000000 ) ) ;
#292 = VECTOR ( 'NONE', #807, 1000.000000000000000 ) ;
#293 = DIRECTION ( 'NONE',  ( 1.000000000000000000, 0.000000000000000000, 0.000000000000000000 ) ) ;
#294 = CARTESIAN_POINT ( 'NONE',  ( -1.425000000000000044, 0.4000000000000000222, 1.500000000000000000 ) ) ;
#295 = VECTOR ( 'NONE', #23, 1000.000000000000000 ) ;
#296 = ORIENTED_EDGE ( 'NONE', *, *, #505, .F. ) ;
#297 = LINE ( 'NONE', #597, #546 ) ;
#298 = DIRECTION ( 'NONE',  ( 0.000000000000000000, -1.000000000000000000, 0.000000000000000000 ) ) ;
#299 = DIRECTION ( 'NONE',  ( 1.000000000000000000, 0.000000000000000000, -0.000000000000000000 ) ) ;
#300 = EDGE_CURVE ( 'NONE', #919, #20, #114, .T. ) ;
#301 = ORIENTED_EDGE ( 'NONE', *, *, #739, .F. ) ;
#302 = CARTESIAN_POINT ( 'NONE',  ( 2.015685424949238413, -0.3499999999999997558, -1.500000000000000000 ) ) ;
#303 = CARTESIAN_POINT ( 'NONE',  ( 0.000000000000000000, 0.000000000000000000, 1.500000000000000000 ) ) ;
#304 = LINE ( 'NONE', #664, #831 ) ;
#305 = ADVANCED_FACE ( 'NONE', ( #619 ), #771, .T. ) ;
#306 = ORIENTED_EDGE ( 'NONE', *, *, #652, .T. ) ;
#307 = ADVANCED_FACE ( 'NONE', ( #903 ), #695, .T. ) ;
#308 = CC_DESIGN_APPROVAL ( #444, ( #485 ) ) ;
#309 = DIRECTION ( 'NONE',  ( -1.000000000000000000, 0.000000000000000000, 0.000000000000000000 ) ) ;
#310 = ORIENTED_EDGE ( 'NONE', *, *, #785, .T. ) ;
#311 = DIRECTION ( 'NONE',  ( -1.000000000000000000, -0.000000000000000000, 0.000000000000000000 ) ) ;
#312 = CARTESIAN_POINT ( 'NONE',  ( 0.000000000000000000, 0.000000000000000000, -1.500000000000000000 ) ) ;
#313 = CARTESIAN_POINT ( 'NONE',  ( 2.015685424949238413, 0.05000000000000021094, -1.500000000000000000 ) ) ;
#314 = EDGE_LOOP ( 'NONE', ( #382, #772, #745, #38 ) ) ;
#315 = SECURITY_CLASSIFICATION_LEVEL ( 'unclassified' ) ;
#316 = LINE ( 'NONE', #478, #887 ) ;
#317 = ORIENTED_EDGE ( 'NONE', *, *, #701, .T. ) ;
#318 = LINE ( 'NONE', #456, #672 ) ;
#319 = FACE_OUTER_BOUND ( 'NONE', #667, .T. ) ;
#320 = LINE ( 'NONE', #741, #927 ) ;
#321 = EDGE_LOOP ( 'NONE', ( #642, #604, #397, #848 ) ) ;
#322 = COORDINATED_UNIVERSAL_TIME_OFFSET ( 8, 0, .AHEAD. ) ;
#323 = DIRECTION ( 'NONE',  ( 1.000000000000000000, -1.668003342285391551E-16, 0.000000000000000000 ) ) ;
#324 = LINE ( 'NONE', #528, #803 ) ;
#325 = LINE ( 'NONE', #891, #345 ) ;
#326 = ADVANCED_FACE ( 'NONE', ( #196 ), #565, .F. ) ;
#327 = VERTEX_POINT ( 'NONE', #259 ) ;
#328 = AXIS2_PLACEMENT_3D ( 'NONE', #303, #747, #9 ) ;
#329 = PERSON_AND_ORGANIZATION ( #459, #227 ) ;
#330 = CARTESIAN_POINT ( 'NONE',  ( 1.500000000000001332, 0.000000000000000000, 1.500000000000000000 ) ) ;
#331 =( LENGTH_UNIT ( ) NAMED_UNIT ( * ) SI_UNIT ( .MILLI., .METRE. ) );
#332 = DIRECTION ( 'NONE',  ( 0.000000000000000000, 0.000000000000000000, -1.000000000000000000 ) ) ;
#333 = ORIENTED_EDGE ( 'NONE', *, *, #761, .T. ) ;
#334 = PERSON_AND_ORGANIZATION ( #459, #227 ) ;
#335 = CIRCLE ( 'NONE', #512, 0.3999999999999999667 ) ;
#336 = VECTOR ( 'NONE', #458, 1000.000000000000000 ) ;
#337 = CARTESIAN_POINT ( 'NONE',  ( -1.425000000000000044, 0.000000000000000000, 1.500000000000000000 ) ) ;
#338 =( NAMED_UNIT ( * ) PLANE_ANGLE_UNIT ( ) SI_UNIT ( $, .RADIAN. ) );
#339 = DIRECTION ( 'NONE',  ( -0.000000000000000000, 0.000000000000000000, 1.000000000000000000 ) ) ;
#340 = VERTEX_POINT ( 'NONE', #474 ) ;
#341 = PERSON_AND_ORGANIZATION ( #459, #227 ) ;
#342 = DIRECTION ( 'NONE',  ( -1.000000000000000000, -0.000000000000000000, -0.000000000000000000 ) ) ;
#343 = EDGE_LOOP ( 'NONE', ( #859, #475, #520, #240 ) ) ;
#344 = ORIENTED_EDGE ( 'NONE', *, *, #537, .F. ) ;
#345 = VECTOR ( 'NONE', #388, 1000.000000000000000 ) ;
#346 = ORIENTED_EDGE ( 'NONE', *, *, #537, .T. ) ;
#347 = VECTOR ( 'NONE', #311, 1000.000000000000000 ) ;
#348 = ORIENTED_EDGE ( 'NONE', *, *, #112, .T. ) ;
#349 = VECTOR ( 'NONE', #342, 1000.000000000000000 ) ;
#350 = VERTEX_POINT ( 'NONE', #191 ) ;
#351 = ORIENTED_EDGE ( 'NONE', *, *, #300, .T. ) ;
#352 = PRODUCT_DEFINITION ( '未知', '', #751, #153 ) ;
#353 = DIRECTION ( 'NONE',  ( -0.7071067811865464625, 0.7071067811865486830, 0.000000000000000000 ) ) ;
#354 = EDGE_LOOP ( 'NONE', ( #296, #131, #500, #51, #799, #117, #496, #89, #880, #412 ) ) ;
#355 = ADVANCED_FACE ( 'NONE', ( #776 ), #400, .T. ) ;
#356 = DIRECTION ( 'NONE',  ( 0.000000000000000000, 0.000000000000000000, -1.000000000000000000 ) ) ;
#357 = CLOSED_SHELL ( 'NONE', ( #561, #722, #12, #413, #590, #283, #68, #488, #268, #786, #307, #286 ) ) ;
#358 = PLANE ( 'NONE',  #715 ) ;
#359 = CC_DESIGN_APPROVAL ( #873, ( #751 ) ) ;
#360 = CARTESIAN_POINT ( 'NONE',  ( -1.425000000000000044, 0.4000000000000000222, 1.500000000000000000 ) ) ;
#361 = VECTOR ( 'NONE', #228, 1000.000000000000000 ) ;
#362 = AXIS2_PLACEMENT_3D ( 'NONE', #398, #879, #687 ) ;
#363 = DIRECTION ( 'NONE',  ( -1.000000000000000000, -8.881784197001254296E-16, 0.000000000000000000 ) ) ;
#364 = DIRECTION ( 'NONE',  ( 0.000000000000000000, -1.000000000000000000, 0.000000000000000000 ) ) ;
#365 = LINE ( 'NONE', #719, #190 ) ;
#366 = VERTEX_POINT ( 'NONE', #623 ) ;
#367 = LINE ( 'NONE', #605, #73 ) ;
#368 = CARTESIAN_POINT ( 'NONE',  ( 1.424999999999999822, 0.000000000000000000, -1.500000000000000000 ) ) ;
#369 = CARTESIAN_POINT ( 'NONE',  ( -1.500000000000001332, 0.000000000000000000, -1.500000000000000000 ) ) ;
#370 = ORIENTED_EDGE ( 'NONE', *, *, #446, .F. ) ;
#371 = LINE ( 'NONE', #468, #435 ) ;
#372 = EDGE_CURVE ( 'NONE', #160, #391, #909, .T. ) ;
#373 = CARTESIAN_POINT ( 'NONE',  ( 1.782842712474620672, 0.2828427124746184518, 1.500000000000000000 ) ) ;
#374 = DIRECTION ( 'NONE',  ( -0.7071067811865464625, -0.7071067811865486830, 0.000000000000000000 ) ) ;
#375 = ADVANCED_FACE ( 'NONE', ( #669 ), #151, .F. ) ;
#376 = ADVANCED_FACE ( 'NONE', ( #684 ), #94, .T. ) ;
#377 = CARTESIAN_POINT ( 'NONE',  ( 1.782842712474620672, 0.2828427124746185073, -1.500000000000000000 ) ) ;
#378 = EDGE_LOOP ( 'NONE', ( #596, #46, #301, #233 ) ) ;
#379 = CARTESIAN_POINT ( 'NONE',  ( 1.424999999999999600, 0.3999999999999999667, 1.500000000000000000 ) ) ;
#380 = DIRECTION ( 'NONE',  ( -0.000000000000000000, -0.000000000000000000, -1.000000000000000000 ) ) ;
#381 = DIRECTION ( 'NONE',  ( 0.000000000000000000, -1.000000000000000000, 0.000000000000000000 ) ) ;
#382 = ORIENTED_EDGE ( 'NONE', *, *, #185, .F. ) ;
#383 = CALENDAR_DATE ( 2023, 22, 11 ) ;
#384 = LOCAL_TIME ( 15, 41, 36.00000000000000000, #842 ) ;
#385 = DIRECTION ( 'NONE',  ( 0.000000000000000000, -1.000000000000000000, 0.000000000000000000 ) ) ;
#386 = VERTEX_POINT ( 'NONE', #529 ) ;
#387 = CARTESIAN_POINT ( 'NONE',  ( -1.425000000000000044, 0.000000000000000000, 1.500000000000000000 ) ) ;
#388 = DIRECTION ( 'NONE',  ( 1.084202172485504631E-15, -1.000000000000000000, 0.000000000000000000 ) ) ;
#389 = CARTESIAN_POINT ( 'NONE',  ( 1.425000000000000044, 0.4000000000000000222, -1.500000000000000000 ) ) ;
#390 = CIRCLE ( 'NONE', #255, 0.3999999999999999667 ) ;
#391 = VERTEX_POINT ( 'NONE', #756 ) ;
#392 = EDGE_CURVE ( 'NONE', #423, #486, #816, .T. ) ;
#393 = FACE_OUTER_BOUND ( 'NONE', #145, .T. ) ;
#394 = DIRECTION ( 'NONE',  ( -1.000000000000000000, 1.668003342285391551E-16, 0.000000000000000000 ) ) ;
#395 = CARTESIAN_POINT ( 'NONE',  ( 1.500000000000001332, 0.4000000000000000222, -1.500000000000000000 ) ) ;
#396 = CARTESIAN_POINT ( 'NONE',  ( 1.425000000000000044, 0.000000000000000000, 1.500000000000000000 ) ) ;
#397 = ORIENTED_EDGE ( 'NONE', *, *, #808, .F. ) ;
#398 = CARTESIAN_POINT ( 'NONE',  ( 0.000000000000000000, 0.000000000000000000, -1.500000000000000000 ) ) ;
#399 = FACE_OUTER_BOUND ( 'NONE', #846, .T. ) ;
#400 = CYLINDRICAL_SURFACE ( 'NONE', #724, 0.3999999999999999667 ) ;
#401 = CIRCLE ( 'NONE', #62, 0.4000000000000001887 ) ;
#402 = ORIENTED_EDGE ( 'NONE', *, *, #804, .T. ) ;
#403 = APPROVAL_STATUS ( 'not_yet_approved' ) ;
#404 = DIRECTION ( 'NONE',  ( -1.668003342285391551E-16, -1.000000000000000000, 0.000000000000000000 ) ) ;
#405 = CARTESIAN_POINT ( 'NONE',  ( 0.000000000000000000, 0.000000000000000000, 0.000000000000000000 ) ) ;
#406 = DIRECTION ( 'NONE',  ( -1.084202172485504631E-15, 1.000000000000000000, 0.000000000000000000 ) ) ;
#407 = LOCAL_TIME ( 15, 41, 36.00000000000000000, #39 ) ;
#408 = EDGE_CURVE ( 'NONE', #637, #366, #659, .T. ) ;
#409 = ORIENTED_EDGE ( 'NONE', *, *, #47, .F. ) ;
#410 = PERSON_AND_ORGANIZATION_ROLE ( 'design_owner' ) ;
#411 = CARTESIAN_POINT ( 'NONE',  ( 1.850000000000000089, -0.3499999999999998113, 1.500000000000000000 ) ) ;
#412 = ORIENTED_EDGE ( 'NONE', *, *, #79, .T. ) ;
#413 = ADVANCED_FACE ( 'NONE', ( #22 ), #442, .T. ) ;
#414 = EDGE_CURVE ( 'NONE', #872, #419, #875, .T. ) ;
#415 = ORIENTED_EDGE ( 'NONE', *, *, #940, .T. ) ;
#416 = DIRECTION ( 'NONE',  ( -0.000000000000000000, -0.000000000000000000, -1.000000000000000000 ) ) ;
#417 = CARTESIAN_POINT ( 'NONE',  ( -1.500000000000001332, 0.000000000000000000, -1.500000000000000000 ) ) ;
#418 = VERTEX_POINT ( 'NONE', #469 ) ;
#419 = VERTEX_POINT ( 'NONE', #823 ) ;
#420 = AXIS2_PLACEMENT_3D ( 'NONE', #632, #554, #922 ) ;
#421 = VERTEX_POINT ( 'NONE', #176 ) ;
#422 = VECTOR ( 'NONE', #643, 1000.000000000000000 ) ;
#423 = VERTEX_POINT ( 'NONE', #104 ) ;
#424 = LINE ( 'NONE', #645, #422 ) ;
#425 = CIRCLE ( 'NONE', #655, 0.3999999999999999667 ) ;
#426 = VECTOR ( 'NONE', #163, 1000.000000000000000 ) ;
#427 = ADVANCED_FACE ( 'NONE', ( #809 ), #156, .F. ) ;
#428 = VERTEX_POINT ( 'NONE', #87 ) ;
#429 = LINE ( 'NONE', #711, #706 ) ;
#430 = CARTESIAN_POINT ( 'NONE',  ( -1.425000000000000044, 0.3999999999999999667, 1.500000000000000000 ) ) ;
#431 = CARTESIAN_POINT ( 'NONE',  ( -1.782842712474620672, 0.2828427124746185073, -1.500000000000000000 ) ) ;
#432 = AXIS2_PLACEMENT_3D ( 'NONE', #613, #298, #245 ) ;
#433 = LINE ( 'NONE', #651, #936 ) ;
#434 = EDGE_CURVE ( 'NONE', #886, #825, #169, .T. ) ;
#435 = VECTOR ( 'NONE', #726, 1000.000000000000000 ) ;
#436 = VECTOR ( 'NONE', #735, 1000.000000000000000 ) ;
#437 = MANIFOLD_SOLID_BREP ( '切除-拉伸2[2]', #281 ) ;
#438 = VERTEX_POINT ( 'NONE', #224 ) ;
#439 = DIRECTION ( 'NONE',  ( -0.000000000000000000, 0.000000000000000000, -1.000000000000000000 ) ) ;
#440 = ORIENTED_EDGE ( 'NONE', *, *, #11, .F. ) ;
#441 = CARTESIAN_POINT ( 'NONE',  ( 1.850000000000000089, 0.05000000000000018319, -1.500000000000000000 ) ) ;
#442 = PLANE ( 'NONE',  #854 ) ;
#443 = DIRECTION ( 'NONE',  ( -1.478157296106082569E-16, 1.000000000000000000, 0.000000000000000000 ) ) ;
#444 = APPROVAL ( #172, '未指定' ) ;
#445 = VECTOR ( 'NONE', #697, 1000.000000000000000 ) ;
#446 = EDGE_CURVE ( 'NONE', #423, #386, #606, .T. ) ;
#447 = VERTEX_POINT ( 'NONE', #395 ) ;
#448 = LINE ( 'NONE', #21, #476 ) ;
#449 = EDGE_CURVE ( 'NONE', #774, #1, #32, .T. ) ;
#450 = CARTESIAN_POINT ( 'NONE',  ( 1.500000000000001332, 0.4000000000000000222, 1.500000000000000000 ) ) ;
#451 = DIRECTION ( 'NONE',  ( 0.000000000000000000, 1.000000000000000000, 0.000000000000000000 ) ) ;
#452 = VECTOR ( 'NONE', #179, 1000.000000000000000 ) ;
#453 = AXIS2_PLACEMENT_3D ( 'NONE', #411, #830, #43 ) ;
#454 = CARTESIAN_POINT ( 'NONE',  ( -1.850000000000000089, -0.3499999999999998113, -1.500000000000000000 ) ) ;
#455 = EDGE_LOOP ( 'NONE', ( #440, #29, #120, #749 ) ) ;
#456 = CARTESIAN_POINT ( 'NONE',  ( 1.424999999999999600, 0.3999999999999999667, 1.500000000000000000 ) ) ;
#457 = PLANE ( 'NONE',  #52 ) ;
#458 = DIRECTION ( 'NONE',  ( -1.000000000000000000, -1.668003342285391551E-16, 0.000000000000000000 ) ) ;
#459 = PERSON ( '未指定', '未指定', '未指定', ('未指定'), ('未指定'), ('未指定') ) ;
#460 = CARTESIAN_POINT ( 'NONE',  ( -1.782842712474620672, 0.2828427124746185073, 1.500000000000000000 ) ) ;
#461 = ORIENTED_EDGE ( 'NONE', *, *, #602, .T. ) ;
#462 = DIRECTION ( 'NONE',  ( -1.000000000000000000, -0.000000000000000000, 0.000000000000000000 ) ) ;
#463 = CARTESIAN_POINT ( 'NONE',  ( -2.015685424949238413, 0.05000000000000021094, 1.500000000000000000 ) ) ;
#464 = CARTESIAN_POINT ( 'NONE',  ( -1.850000000000000089, 0.05000000000000018319, -1.500000000000000000 ) ) ;
#465 = VECTOR ( 'NONE', #732, 1000.000000000000000 ) ;
#466 = DIRECTION ( 'NONE',  ( -1.000000000000000000, -1.668003342285391551E-16, -0.000000000000000000 ) ) ;
#467 = ORIENTED_EDGE ( 'NONE', *, *, #47, .T. ) ;
#468 = CARTESIAN_POINT ( 'NONE',  ( 1.732842712474618851, -0.2328427124746182963, 1.500000000000000000 ) ) ;
#469 = CARTESIAN_POINT ( 'NONE',  ( 1.424999999999999600, 0.3999999999999999667, -1.500000000000000000 ) ) ;
#470 = DIRECTION ( 'NONE',  ( -0.7071067811865464625, 0.7071067811865486830, -0.000000000000000000 ) ) ;
#471 = EDGE_LOOP ( 'NONE', ( #935, #276, #730, #265 ) ) ;
#472 = CARTESIAN_POINT ( 'NONE',  ( 1.424999999999999600, 0.3999999999999999667, 1.500000000000000000 ) ) ;
#473 = CARTESIAN_POINT ( 'NONE',  ( 1.500000000000001332, 0.000000000000000000, -1.500000000000000000 ) ) ;
#474 = CARTESIAN_POINT ( 'NONE',  ( -2.015685424949238413, -0.3499999999999997558, 1.500000000000000000 ) ) ;
#475 = ORIENTED_EDGE ( 'NONE', *, *, #877, .T. ) ;
#476 = VECTOR ( 'NONE', #462, 1000.000000000000000 ) ;
#477 = CALENDAR_DATE ( 2023, 22, 11 ) ;
#478 = CARTESIAN_POINT ( 'NONE',  ( 1.425000000000000044, 0.4000000000000000222, 1.500000000000000000 ) ) ;
#479 = CARTESIAN_POINT ( 'NONE',  ( -3.149999999999999911, -0.3499999999999996447, 1.500000000000000000 ) ) ;
#480 = DIRECTION ( 'NONE',  ( 1.000000000000000000, 0.000000000000000000, 0.000000000000000000 ) ) ;
#481 = AXIS2_PLACEMENT_3D ( 'NONE', #216, #871, #439 ) ;
#482 = ORIENTED_EDGE ( 'NONE', *, *, #45, .F. ) ;
#483 = EDGE_CURVE ( 'NONE', #418, #419, #325, .T. ) ;
#484 = PLANE ( 'NONE',  #581 ) ;
#485 = SECURITY_CLASSIFICATION ( '', '', #315 ) ;
#486 = VERTEX_POINT ( 'NONE', #27 ) ;
#487 = EDGE_CURVE ( 'NONE', #849, #447, #678, .T. ) ;
#488 = ADVANCED_FACE ( 'NONE', ( #319 ), #457, .F. ) ;
#489 = ORIENTED_EDGE ( 'NONE', *, *, #804, .F. ) ;
#490 = CARTESIAN_POINT ( 'NONE',  ( -1.500000000000001332, 0.000000000000000000, 1.500000000000000000 ) ) ;
#491 = CARTESIAN_POINT ( 'NONE',  ( 0.000000000000000000, 0.000000000000000000, -1.500000000000000000 ) ) ;
#492 = ORIENTED_EDGE ( 'NONE', *, *, #483, .F. ) ;
#493 = EDGE_LOOP ( 'NONE', ( #18, #351, #122, #197, #306, #754, #25, #167, #346, #34 ) ) ;
#494 = CC_DESIGN_PERSON_AND_ORGANIZATION_ASSIGNMENT ( #241, #693, ( #751 ) ) ;
#495 = VERTEX_POINT ( 'NONE', #373 ) ;
#496 = ORIENTED_EDGE ( 'NONE', *, *, #585, .T. ) ;
#497 = DIRECTION ( 'NONE',  ( 1.000000000000000000, 0.000000000000000000, 0.000000000000000000 ) ) ;
#498 = AXIS2_PLACEMENT_3D ( 'NONE', #491, #339, #560 ) ;
#499 = ORIENTED_EDGE ( 'NONE', *, *, #692, .F. ) ;
#500 = ORIENTED_EDGE ( 'NONE', *, *, #920, .T. ) ;
#501 = DIRECTION ( 'NONE',  ( 1.000000000000000000, 0.000000000000000000, 0.000000000000000000 ) ) ;
#502 = AXIS2_PLACEMENT_3D ( 'NONE', #876, #503, #363 ) ;
#503 = DIRECTION ( 'NONE',  ( -0.000000000000000000, -0.000000000000000000, 1.000000000000000000 ) ) ;
#504 = DIRECTION ( 'NONE',  ( 0.000000000000000000, 0.000000000000000000, -1.000000000000000000 ) ) ;
#505 = EDGE_CURVE ( 'NONE', #222, #705, #727, .T. ) ;
#506 = CARTESIAN_POINT ( 'NONE',  ( -1.500000000000001332, 0.000000000000000000, -1.500000000000000000 ) ) ;
#507 = DIRECTION ( 'NONE',  ( -0.000000000000000000, 0.000000000000000000, 1.000000000000000000 ) ) ;
#508 = VECTOR ( 'NONE', #542, 1000.000000000000000 ) ;
#509 = DIRECTION ( 'NONE',  ( -0.000000000000000000, -0.000000000000000000, -1.000000000000000000 ) ) ;
#510 = APPROVAL_PERSON_ORGANIZATION ( #329, #873, #35 ) ;
#511 = VECTOR ( 'NONE', #134, 1000.000000000000000 ) ;
#512 = AXIS2_PLACEMENT_3D ( 'NONE', #894, #242, #547 ) ;
#513 = VECTOR ( 'NONE', #470, 1000.000000000000000 ) ;
#514 = CARTESIAN_POINT ( 'NONE',  ( 3.149999999999999911, 0.05000000000000040523, 1.500000000000000000 ) ) ;
#516 = EDGE_CURVE ( 'NONE', #569, #725, #166, .T. ) ;
#515 = LINE ( 'NONE', #668, #347 ) ;
#517 = CARTESIAN_POINT ( 'NONE',  ( -1.500000000000001332, 0.000000000000000000, 1.500000000000000000 ) ) ;
#518 = PLANE ( 'NONE',  #481 ) ;
#519 = CLOSED_SHELL ( 'NONE', ( #69, #665, #305, #127, #714, #326 ) ) ;
#520 = ORIENTED_EDGE ( 'NONE', *, *, #483, .T. ) ;
#521 = DIRECTION ( 'NONE',  ( 0.000000000000000000, 0.000000000000000000, -1.000000000000000000 ) ) ;
#522 = ADVANCED_FACE ( 'NONE', ( #393 ), #820, .F. ) ;
#523 = CARTESIAN_POINT ( 'NONE',  ( 3.149999999999999911, 0.05000000000000040523, 1.500000000000000000 ) ) ;
#524 = DIRECTION ( 'NONE',  ( -1.000000000000000000, 0.000000000000000000, 0.000000000000000000 ) ) ;
#525 = VECTOR ( 'NONE', #541, 1000.000000000000000 ) ;
#526 = CARTESIAN_POINT ( 'NONE',  ( -1.500000000000001332, 0.4000000000000000222, -1.500000000000000000 ) ) ;
#527 = ORIENTED_EDGE ( 'NONE', *, *, #218, .F. ) ;
#528 = CARTESIAN_POINT ( 'NONE',  ( -3.149999999999999911, -0.3499999999999996447, 1.500000000000000000 ) ) ;
#529 = CARTESIAN_POINT ( 'NONE',  ( 2.015685424949238413, -0.3499999999999997558, 1.500000000000000000 ) ) ;
#530 = LINE ( 'NONE', #892, #295 ) ;
#531 = ORIENTED_EDGE ( 'NONE', *, *, #218, .T. ) ;
#532 = CARTESIAN_POINT ( 'NONE',  ( -1.782842712474620672, 0.2828427124746184518, 1.500000000000000000 ) ) ;
#533 = VERTEX_POINT ( 'NONE', #472 ) ;
#534 = DIRECTION ( 'NONE',  ( 1.000000000000000000, 0.000000000000000000, 0.000000000000000000 ) ) ;
#535 = DIRECTION ( 'NONE',  ( 0.000000000000000000, 0.000000000000000000, -1.000000000000000000 ) ) ;
#536 = CARTESIAN_POINT ( 'NONE',  ( 1.850000000000000089, 0.05000000000000018319, 1.500000000000000000 ) ) ;
#537 = EDGE_CURVE ( 'NONE', #327, #570, #425, .T. ) ;
#538 = PERSON_AND_ORGANIZATION ( #459, #227 ) ;
#539 = DIRECTION ( 'NONE',  ( -0.7071067811865464625, 0.7071067811865486830, 0.000000000000000000 ) ) ;
#540 = VERTEX_POINT ( 'NONE', #744 ) ;
#541 = DIRECTION ( 'NONE',  ( -0.000000000000000000, -0.000000000000000000, 1.000000000000000000 ) ) ;
#542 = DIRECTION ( 'NONE',  ( 1.000000000000000000, 0.000000000000000000, 0.000000000000000000 ) ) ;
#543 = DIRECTION ( 'NONE',  ( -0.000000000000000000, -0.000000000000000000, -1.000000000000000000 ) ) ;
#544 = AXIS2_PLACEMENT_3D ( 'NONE', #269, #768, #406 ) ;
#545 = ORIENTED_EDGE ( 'NONE', *, *, #940, .F. ) ;
#546 = VECTOR ( 'NONE', #150, 1000.000000000000000 ) ;
#547 = DIRECTION ( 'NONE',  ( -1.000000000000000000, 8.809142651444724512E-16, 0.000000000000000000 ) ) ;
#548 = VECTOR ( 'NONE', #708, 1000.000000000000000 ) ;
#549 = PLANE ( 'NONE',  #860 ) ;
#550 = VECTOR ( 'NONE', #817, 1000.000000000000000 ) ;
#551 = ORIENTED_EDGE ( 'NONE', *, *, #188, .F. ) ;
#552 = COORDINATED_UNIVERSAL_TIME_OFFSET ( 8, 0, .AHEAD. ) ;
#553 = FACE_OUTER_BOUND ( 'NONE', #80, .T. ) ;
#554 = DIRECTION ( 'NONE',  ( 0.000000000000000000, 0.000000000000000000, -1.000000000000000000 ) ) ;
#555 = VECTOR ( 'NONE', #244, 1000.000000000000000 ) ;
#556 = PERSON_AND_ORGANIZATION_ROLE ( 'classification_officer' ) ;
#557 = EDGE_CURVE ( 'NONE', #222, #428, #316, .T. ) ;
#558 = ORIENTED_EDGE ( 'NONE', *, *, #434, .F. ) ;
#559 = EDGE_CURVE ( 'NONE', #350, #386, #335, .T. ) ;
#560 = DIRECTION ( 'NONE',  ( 1.000000000000000000, 0.000000000000000000, 0.000000000000000000 ) ) ;
#561 = ADVANCED_FACE ( 'NONE', ( #40 ), #682, .T. ) ;
#562 = ORIENTED_EDGE ( 'NONE', *, *, #408, .F. ) ;
#563 = VERTEX_POINT ( 'NONE', #532 ) ;
#564 = DIRECTION ( 'NONE',  ( 0.7071067811865463515, 0.7071067811865487940, 0.000000000000000000 ) ) ;
#565 = PLANE ( 'NONE',  #498 ) ;
#566 = LOCAL_TIME ( 15, 41, 36.00000000000000000, #552 ) ;
#567 = ORIENTED_EDGE ( 'NONE', *, *, #45, .T. ) ;
#568 = AXIS2_PLACEMENT_3D ( 'NONE', #460, #813, #666 ) ;
#569 = VERTEX_POINT ( 'NONE', #113 ) ;
#570 = VERTEX_POINT ( 'NONE', #526 ) ;
#571 = ORIENTED_EDGE ( 'NONE', *, *, #920, .F. ) ;
#572 = FACE_OUTER_BOUND ( 'NONE', #707, .T. ) ;
#573 = ORIENTED_EDGE ( 'NONE', *, *, #899, .F. ) ;
#574 = VECTOR ( 'NONE', #293, 1000.000000000000000 ) ;
#575 = ORIENTED_EDGE ( 'NONE', *, *, #739, .T. ) ;
#576 = CARTESIAN_POINT ( 'NONE',  ( 2.015685424949238413, -0.3499999999999997558, 1.500000000000000000 ) ) ;
#577 = ORIENTED_EDGE ( 'NONE', *, *, #141, .T. ) ;
#578 = AXIS2_PLACEMENT_3D ( 'NONE', #490, #251, #564 ) ;
#579 = CARTESIAN_POINT ( 'NONE',  ( -1.425000000000000044, 0.4000000000000000222, -1.500000000000000000 ) ) ;
#580 = ADVANCED_FACE ( 'NONE', ( #186 ), #766, .T. ) ;
#581 = AXIS2_PLACEMENT_3D ( 'NONE', #262, #124, #689 ) ;
#582 = CARTESIAN_POINT ( 'NONE',  ( -1.425000000000000044, -2.106374146951167519E-16, -1.500000000000000000 ) ) ;
#583 = DIRECTION ( 'NONE',  ( 0.000000000000000000, -0.000000000000000000, 1.000000000000000000 ) ) ;
#584 = ADVANCED_FACE ( 'NONE', ( #553 ), #622, .F. ) ;
#585 = EDGE_CURVE ( 'NONE', #486, #900, #24, .T. ) ;
#586 = LINE ( 'NONE', #464, #288 ) ;
#587 = VECTOR ( 'NONE', #91, 1000.000000000000000 ) ;
#588 = LINE ( 'NONE', #582, #878 ) ;
#589 = LINE ( 'NONE', #147, #574 ) ;
#590 = ADVANCED_FACE ( 'NONE', ( #888 ), #617, .T. ) ;
#591 = ORIENTED_EDGE ( 'NONE', *, *, #857, .T. ) ;
#592 = CARTESIAN_POINT ( 'NONE',  ( -1.425000000000000044, 0.3999999999999999667, -1.500000000000000000 ) ) ;
#593 = DIRECTION ( 'NONE',  ( -0.000000000000000000, -0.000000000000000000, -1.000000000000000000 ) ) ;
#594 = ORIENTED_EDGE ( 'NONE', *, *, #761, .F. ) ;
#595 = DIRECTION ( 'NONE',  ( -0.7071067811865464625, 0.7071067811865486830, -0.000000000000000000 ) ) ;
#596 = ORIENTED_EDGE ( 'NONE', *, *, #55, .T. ) ;
#597 = CARTESIAN_POINT ( 'NONE',  ( -1.500000000000001332, 0.4000000000000000222, 1.500000000000000000 ) ) ;
#598 = CARTESIAN_POINT ( 'NONE',  ( -1.425000000000000266, 1.466964544763435185, -5.000000000000000000 ) ) ;
#599 = CARTESIAN_POINT ( 'NONE',  ( -2.015685424949238413, 0.05000000000000023870, -1.500000000000000000 ) ) ;
#600 = ORIENTED_EDGE ( 'NONE', *, *, #434, .T. ) ;
#601 = VECTOR ( 'NONE', #416, 1000.000000000000000 ) ;
#602 = EDGE_CURVE ( 'NONE', #736, #569, #235, .T. ) ;
#603 = PLANE ( 'NONE',  #362 ) ;
#604 = ORIENTED_EDGE ( 'NONE', *, *, #557, .T. ) ;
#605 = CARTESIAN_POINT ( 'NONE',  ( -2.015685424949238413, -0.3499999999999997558, 1.500000000000000000 ) ) ;
#606 = LINE ( 'NONE', #663, #634 ) ;
#607 = DIRECTION ( 'NONE',  ( 0.000000000000000000, -1.000000000000000000, 0.000000000000000000 ) ) ;
#608 = ORIENTED_EDGE ( 'NONE', *, *, #839, .F. ) ;
#609 = COORDINATED_UNIVERSAL_TIME_OFFSET ( 8, 0, .AHEAD. ) ;
#610 = CARTESIAN_POINT ( 'NONE',  ( -1.500000000000001332, 0.000000000000000000, -1.500000000000000000 ) ) ;
#611 = ORIENTED_EDGE ( 'NONE', *, *, #626, .F. ) ;
#612 = CARTESIAN_POINT ( 'NONE',  ( -1.850000000000000089, -0.3499999999999998113, 1.500000000000000000 ) ) ;
#613 = CARTESIAN_POINT ( 'NONE',  ( -1.500000000000001332, 0.000000000000000000, 1.500000000000000000 ) ) ;
#614 = CARTESIAN_POINT ( 'NONE',  ( -3.149999999999999911, 0.05000000000000040523, 1.500000000000000000 ) ) ;
#615 = ORIENTED_EDGE ( 'NONE', *, *, #649, .F. ) ;
#616 = CALENDAR_DATE ( 2023, 22, 11 ) ;
#617 = PLANE ( 'NONE',  #254 ) ;
#618 = CARTESIAN_POINT ( 'NONE',  ( 1.500000000000001332, 0.4000000000000000222, 1.500000000000000000 ) ) ;
#619 = FACE_OUTER_BOUND ( 'NONE', #70, .T. ) ;
#620 = EDGE_LOOP ( 'NONE', ( #691, #275, #923, #499 ) ) ;
#621 = DATE_TIME_ROLE ( 'creation_date' ) ;
#622 = PLANE ( 'NONE',  #908 ) ;
#623 = CARTESIAN_POINT ( 'NONE',  ( -1.732842712474618851, -0.2328427124746182408, 1.500000000000000000 ) ) ;
#624 = ORIENTED_EDGE ( 'NONE', *, *, #785, .F. ) ;
#625 = CALENDAR_DATE ( 2023, 22, 11 ) ;
#626 = EDGE_CURVE ( 'NONE', #350, #837, #805, .T. ) ;
#627 = PLANE ( 'NONE',  #144 ) ;
#628 = DIRECTION ( 'NONE',  ( 0.000000000000000000, 0.000000000000000000, 1.000000000000000000 ) ) ;
#629 = CARTESIAN_POINT ( 'NONE',  ( 1.782842712474620672, 0.2828427124746185073, 1.500000000000000000 ) ) ;
#630 = ORIENTED_EDGE ( 'NONE', *, *, #164, .F. ) ;
#631 = PLANE ( 'NONE',  #578 ) ;
#632 = CARTESIAN_POINT ( 'NONE',  ( 2.015685424949238413, 0.05000000000000021094, 1.500000000000000000 ) ) ;
#633 = ORIENTED_EDGE ( 'NONE', *, *, #692, .T. ) ;
#634 = VECTOR ( 'NONE', #238, 1000.000000000000000 ) ;
#635 = ORIENTED_EDGE ( 'NONE', *, *, #188, .T. ) ;
#636 = APPROVAL_PERSON_ORGANIZATION ( #538, #444, #832 ) ;
#637 = VERTEX_POINT ( 'NONE', #762 ) ;
#638 = VECTOR ( 'NONE', #353, 1000.000000000000000 ) ;
#639 = VECTOR ( 'NONE', #374, 1000.000000000000000 ) ;
#640 = ORIENTED_EDGE ( 'NONE', *, *, #712, .F. ) ;
#641 = ORIENTED_EDGE ( 'NONE', *, *, #559, .T. ) ;
#642 = ORIENTED_EDGE ( 'NONE', *, *, #690, .T. ) ;
#643 = DIRECTION ( 'NONE',  ( 0.000000000000000000, -1.000000000000000000, 0.000000000000000000 ) ) ;
#644 = ORIENTED_EDGE ( 'NONE', *, *, #557, .F. ) ;
#645 = CARTESIAN_POINT ( 'NONE',  ( 3.149999999999999911, 0.05000000000000040523, 1.500000000000000000 ) ) ;
#646 = DIRECTION ( 'NONE',  ( 0.000000000000000000, 1.000000000000000000, 0.000000000000000000 ) ) ;
#647 = ADVANCED_FACE ( 'NONE', ( #107 ), #603, .T. ) ;
#648 = CARTESIAN_POINT ( 'NONE',  ( -1.425000000000000044, 0.000000000000000000, 1.500000000000000000 ) ) ;
#649 = EDGE_CURVE ( 'NONE', #837, #889, #36, .T. ) ;
#650 = LINE ( 'NONE', #63, #111 ) ;
#651 = CARTESIAN_POINT ( 'NONE',  ( 1.425000000000000044, 0.000000000000000000, 1.500000000000000000 ) ) ;
#652 = EDGE_CURVE ( 'NONE', #743, #818, #159, .T. ) ;
#653 = CARTESIAN_POINT ( 'NONE',  ( 0.000000000000000000, 0.000000000000000000, 1.500000000000000000 ) ) ;
#654 = AXIS2_PLACEMENT_3D ( 'NONE', #717, #507, #497 ) ;
#655 = AXIS2_PLACEMENT_3D ( 'NONE', #610, #30, #309 ) ;
#656 = VECTOR ( 'NONE', #789, 1000.000000000000000 ) ;
#657 = ORIENTED_EDGE ( 'NONE', *, *, #164, .T. ) ;
#658 = DIRECTION ( 'NONE',  ( -0.000000000000000000, -0.000000000000000000, 1.000000000000000000 ) ) ;
#659 = LINE ( 'NONE', #517, #266 ) ;
#660 = DIRECTION ( 'NONE',  ( -0.000000000000000000, 0.000000000000000000, -1.000000000000000000 ) ) ;
#661 = ORIENTED_EDGE ( 'NONE', *, *, #602, .F. ) ;
#662 = CARTESIAN_POINT ( 'NONE',  ( -1.500000000000001332, 0.000000000000000000, 1.500000000000000000 ) ) ;
#663 = CARTESIAN_POINT ( 'NONE',  ( 1.850000000000000089, -0.3499999999999998113, 1.500000000000000000 ) ) ;
#664 = CARTESIAN_POINT ( 'NONE',  ( -1.500000000000001332, 0.000000000000000000, 1.500000000000000000 ) ) ;
#665 = ADVANCED_FACE ( 'NONE', ( #572 ), #627, .F. ) ;
#666 = DIRECTION ( 'NONE',  ( 0.7071067811865464625, 0.7071067811865486830, 0.000000000000000000 ) ) ;
#667 = EDGE_LOOP ( 'NONE', ( #591, #661, #53, #204 ) ) ;
#668 = CARTESIAN_POINT ( 'NONE',  ( -1.500000000000001332, 0.4000000000000000222, 1.500000000000000000 ) ) ;
#669 = FACE_OUTER_BOUND ( 'NONE', #933, .T. ) ;
#670 = LINE ( 'NONE', #177, #513 ) ;
#671 = EDGE_CURVE ( 'NONE', #366, #438, #429, .T. ) ;
#672 = VECTOR ( 'NONE', #881, 1000.000000000000000 ) ;
#673 = PERSON_AND_ORGANIZATION ( #459, #227 ) ;
#674 = VECTOR ( 'NONE', #61, 1000.000000000000000 ) ;
#675 = DIRECTION ( 'NONE',  ( 0.000000000000000000, 0.000000000000000000, -1.000000000000000000 ) ) ;
#676 = ORIENTED_EDGE ( 'NONE', *, *, #79, .F. ) ;
#677 = CARTESIAN_POINT ( 'NONE',  ( -3.149999999999999911, 0.05000000000000040523, -1.500000000000000000 ) ) ;
#678 = LINE ( 'NONE', #450, #465 ) ;
#679 = AXIS2_PLACEMENT_3D ( 'NONE', #430, #646, #938 ) ;
#680 = DIRECTION ( 'NONE',  ( -1.000000000000000000, 1.668003342285391551E-16, 0.000000000000000000 ) ) ;
#681 = DATE_AND_TIME ( #625, #384 ) ;
#682 = PLANE ( 'NONE',  #869 ) ;
#683 = CARTESIAN_POINT ( 'NONE',  ( 1.500000000000001332, 0.000000000000000000, 1.500000000000000000 ) ) ;
#684 = FACE_OUTER_BOUND ( 'NONE', #911, .T. ) ;
#685 = DIRECTION ( 'NONE',  ( 0.000000000000000000, 0.000000000000000000, -1.000000000000000000 ) ) ;
#686 = PRODUCT_RELATED_PRODUCT_CATEGORY ( 'detail', '', ( #4 ) ) ;
#687 = DIRECTION ( 'NONE',  ( -1.000000000000000000, 0.000000000000000000, -0.000000000000000000 ) ) ;
#688 = DIRECTION ( 'NONE',  ( -1.000000000000000000, 0.000000000000000000, 0.000000000000000000 ) ) ;
#689 = DIRECTION ( 'NONE',  ( 1.000000000000000000, -1.668003342285391551E-16, 0.000000000000000000 ) ) ;
#690 = EDGE_CURVE ( 'NONE', #447, #222, #850, .T. ) ;
#691 = ORIENTED_EDGE ( 'NONE', *, *, #559, .F. ) ;
#692 = EDGE_CURVE ( 'NONE', #386, #900, #790, .T. ) ;
#693 = PERSON_AND_ORGANIZATION_ROLE ( 'design_supplier' ) ;
#694 = CARTESIAN_POINT ( 'NONE',  ( 1.500000000000001332, 0.000000000000000000, 1.500000000000000000 ) ) ;
#695 = CYLINDRICAL_SURFACE ( 'NONE', #420, 0.3999999999999999667 ) ;
#696 = EDGE_LOOP ( 'NONE', ( #644, #67, #14, #926 ) ) ;
#697 = DIRECTION ( 'NONE',  ( -1.000000000000000000, 1.668003342285391551E-16, 0.000000000000000000 ) ) ;
#698 = DIRECTION ( 'NONE',  ( 0.000000000000000000, 0.000000000000000000, -1.000000000000000000 ) ) ;
#699 = EDGE_LOOP ( 'NONE', ( #577, #624, #904, #780 ) ) ;
#700 = VERTEX_POINT ( 'NONE', #201 ) ;
#701 = EDGE_CURVE ( 'NONE', #327, #825, #137, .T. ) ;
#702 = DIRECTION ( 'NONE',  ( 0.000000000000000000, 0.000000000000000000, 1.000000000000000000 ) ) ;
#703 = EDGE_LOOP ( 'NONE', ( #794, #50, #571, #916 ) ) ;
#704 = VERTEX_POINT ( 'NONE', #579 ) ;
#705 = VERTEX_POINT ( 'NONE', #285 ) ;
#706 = VECTOR ( 'NONE', #937, 1000.000000000000000 ) ;
#707 = EDGE_LOOP ( 'NONE', ( #282, #482, #236, #310 ) ) ;
#708 = DIRECTION ( 'NONE',  ( -1.000000000000000000, -0.000000000000000000, -0.000000000000000000 ) ) ;
#709 = ORIENTED_EDGE ( 'NONE', *, *, #716, .T. ) ;
#710 = CC_DESIGN_PERSON_AND_ORGANIZATION_ASSIGNMENT ( #760, #556, ( #485 ) ) ;
#711 = CARTESIAN_POINT ( 'NONE',  ( -1.732842712474618851, -0.2328427124746182686, 1.500000000000000000 ) ) ;
#712 = EDGE_CURVE ( 'NONE', #160, #423, #424, .T. ) ;
#713 = CARTESIAN_POINT ( 'NONE',  ( -2.015685424949238413, 0.05000000000000023870, 1.500000000000000000 ) ) ;
#714 = ADVANCED_FACE ( 'NONE', ( #861 ), #280, .T. ) ;
#715 = AXIS2_PLACEMENT_3D ( 'NONE', #514, #299, #660 ) ;
#716 = EDGE_CURVE ( 'NONE', #837, #700, #781, .T. ) ;
#717 = CARTESIAN_POINT ( 'NONE',  ( 0.000000000000000000, 0.000000000000000000, 1.500000000000000000 ) ) ;
#718 = AXIS2_PLACEMENT_3D ( 'NONE', #822, #75, #521 ) ;
#719 = CARTESIAN_POINT ( 'NONE',  ( -1.425000000000000044, 0.3999999999999999667, 1.500000000000000000 ) ) ;
#720 = AXIS2_PLACEMENT_3D ( 'NONE', #19, #675, #257 ) ;
#721 = ORIENTED_EDGE ( 'NONE', *, *, #811, .T. ) ;
#722 = ADVANCED_FACE ( 'NONE', ( #277 ), #59, .F. ) ;
#723 = CARTESIAN_POINT ( 'NONE',  ( -3.149999999999999911, 0.05000000000000040523, 1.500000000000000000 ) ) ;
#724 = AXIS2_PLACEMENT_3D ( 'NONE', #37, #332, #840 ) ;
#725 = VERTEX_POINT ( 'NONE', #65 ) ;
#726 = DIRECTION ( 'NONE',  ( -0.000000000000000000, -0.000000000000000000, 1.000000000000000000 ) ) ;
#727 = LINE ( 'NONE', #368, #587 ) ;
#728 = FACE_OUTER_BOUND ( 'NONE', #699, .T. ) ;
#729 = CIRCLE ( 'NONE', #502, 0.3999999999999999667 ) ;
#730 = ORIENTED_EDGE ( 'NONE', *, *, #626, .T. ) ;
#731 = LINE ( 'NONE', #890, #115 ) ;
#732 = DIRECTION ( 'NONE',  ( 0.000000000000000000, 0.000000000000000000, -1.000000000000000000 ) ) ;
#733 = LINE ( 'NONE', #83, #639 ) ;
#734 = EDGE_CURVE ( 'NONE', #736, #495, #863, .T. ) ;
#735 = DIRECTION ( 'NONE',  ( -1.000000000000000000, 1.668003342285391551E-16, 0.000000000000000000 ) ) ;
#736 = VERTEX_POINT ( 'NONE', #934 ) ;
#737 = PLANE ( 'NONE',  #718 ) ;
#738 = AXIS2_PLACEMENT_3D ( 'NONE', #683, #746, #86 ) ;
#739 = EDGE_CURVE ( 'NONE', #1, #704, #142, .T. ) ;
#740 = CARTESIAN_POINT ( 'NONE',  ( 1.850000000000000089, 0.05000000000000018319, 1.500000000000000000 ) ) ;
#741 = CARTESIAN_POINT ( 'NONE',  ( 1.424999999999999822, 0.000000000000000000, 1.500000000000000000 ) ) ;
#742 = EDGE_CURVE ( 'NONE', #278, #243, #856, .T. ) ;
#743 = VERTEX_POINT ( 'NONE', #939 ) ;
#744 = CARTESIAN_POINT ( 'NONE',  ( 1.732842712474618851, -0.2328427124746182686, -1.500000000000000000 ) ) ;
#745 = ORIENTED_EDGE ( 'NONE', *, *, #712, .T. ) ;
#746 = DIRECTION ( 'NONE',  ( 0.000000000000000000, 0.000000000000000000, -1.000000000000000000 ) ) ;
#747 = DIRECTION ( 'NONE',  ( 0.000000000000000000, 0.000000000000000000, -1.000000000000000000 ) ) ;
#748 = DIRECTION ( 'NONE',  ( -1.000000000000000000, 3.552713678800501718E-15, 0.000000000000000000 ) ) ;
#749 = ORIENTED_EDGE ( 'NONE', *, *, #671, .F. ) ;
#750 = MANIFOLD_SOLID_BREP ( '凸台-拉伸2', #519 ) ;
#751 = PRODUCT_DEFINITION_FORMATION_WITH_SPECIFIED_SOURCE ( '任何', '', #4, .NOT_KNOWN. ) ;
#752 = VECTOR ( 'NONE', #501, 1000.000000000000000 ) ;
#753 = DIRECTION ( 'NONE',  ( 0.000000000000000000, 0.000000000000000000, 1.000000000000000000 ) ) ;
#754 = ORIENTED_EDGE ( 'NONE', *, *, #249, .T. ) ;
#755 = CARTESIAN_POINT ( 'NONE',  ( -2.015685424949238413, 0.05000000000000021094, -1.500000000000000000 ) ) ;
#756 = CARTESIAN_POINT ( 'NONE',  ( 3.149999999999999911, 0.05000000000000040523, -1.500000000000000000 ) ) ;
#757 = VECTOR ( 'NONE', #451, 1000.000000000000000 ) ;
#758 = CC_DESIGN_DATE_AND_TIME_ASSIGNMENT ( #260, #917, ( #485 ) ) ;
#759 = LINE ( 'NONE', #824, #426 ) ;
#760 = PERSON_AND_ORGANIZATION ( #459, #227 ) ;
#761 = EDGE_CURVE ( 'NONE', #340, #263, #784, .T. ) ;
#762 = CARTESIAN_POINT ( 'NONE',  ( -1.500000000000001332, 0.000000000000000000, 1.500000000000000000 ) ) ;
#763 = FACE_OUTER_BOUND ( 'NONE', #696, .T. ) ;
#764 = ORIENTED_EDGE ( 'NONE', *, *, #811, .F. ) ;
#765 = DATE_AND_TIME ( #616, #96 ) ;
#766 = CYLINDRICAL_SURFACE ( 'NONE', #720, 0.4000000000000001887 ) ;
#767 = CARTESIAN_POINT ( 'NONE',  ( -1.850000000000000089, 0.05000000000000018319, 1.500000000000000000 ) ) ;
#768 = DIRECTION ( 'NONE',  ( 1.000000000000000000, 1.084202172485504631E-15, -0.000000000000000000 ) ) ;
#769 = ORIENTED_EDGE ( 'NONE', *, *, #207, .T. ) ;
#770 = APPROVAL_PERSON_ORGANIZATION ( #341, #72, #827 ) ;
#771 = PLANE ( 'NONE',  #544 ) ;
#772 = ORIENTED_EDGE ( 'NONE', *, *, #372, .F. ) ;
#773 = EDGE_CURVE ( 'NONE', #704, #570, #448, .T. ) ;
#774 = VERTEX_POINT ( 'NONE', #387 ) ;
#775 = CARTESIAN_POINT ( 'NONE',  ( -1.425000000000000044, 0.3999999999999999667, 1.500000000000000000 ) ) ;
#776 = FACE_OUTER_BOUND ( 'NONE', #74, .T. ) ;
#777 = ORIENTED_EDGE ( 'NONE', *, *, #256, .F. ) ;
#778 = ORIENTED_EDGE ( 'NONE', *, *, #851, .T. ) ;
#779 = ORIENTED_EDGE ( 'NONE', *, *, #826, .F. ) ;
#780 = ORIENTED_EDGE ( 'NONE', *, *, #918, .T. ) ;
#781 = LINE ( 'NONE', #132, #548 ) ;
#782 = EDGE_LOOP ( 'NONE', ( #270, #769, #247, #611, #641, #370, #640, #852, #174, #98 ) ) ;
#783 = AXIS2_PLACEMENT_3D ( 'NONE', #599, #685, #524 ) ;
#784 = LINE ( 'NONE', #612, #261 ) ;
#785 = EDGE_CURVE ( 'NONE', #278, #872, #168, .T. ) ;
#786 = ADVANCED_FACE ( 'NONE', ( #219 ), #155, .T. ) ;
#787 = CARTESIAN_POINT ( 'NONE',  ( 1.425000000000000044, 0.000000000000000000, 1.500000000000000000 ) ) ;
#788 = CARTESIAN_POINT ( 'NONE',  ( 1.782842712474620672, 0.2828427124746185073, 1.500000000000000000 ) ) ;
#789 = DIRECTION ( 'NONE',  ( -0.000000000000000000, 0.000000000000000000, 1.000000000000000000 ) ) ;
#790 = LINE ( 'NONE', #576, #272 ) ;
#791 = AXIS2_PLACEMENT_3D ( 'NONE', #405, #628, #914 ) ;
#792 = LINE ( 'NONE', #723, #202 ) ;
#793 = VECTOR ( 'NONE', #898, 1000.000000000000000 ) ;
#794 = ORIENTED_EDGE ( 'NONE', *, *, #226, .F. ) ;
#795 = LINE ( 'NONE', #441, #885 ) ;
#796 = DIRECTION ( 'NONE',  ( 1.000000000000000000, 1.668003342285391551E-16, 0.000000000000000000 ) ) ;
#797 = PLANE ( 'NONE',  #798 ) ;
#798 = AXIS2_PLACEMENT_3D ( 'NONE', #653, #221, #862 ) ;
#799 = ORIENTED_EDGE ( 'NONE', *, *, #857, .F. ) ;
#800 = CARTESIAN_POINT ( 'NONE',  ( -1.425000000000000044, 0.000000000000000000, -1.500000000000000000 ) ) ;
#801 = CARTESIAN_POINT ( 'NONE',  ( -1.425000000000000044, -2.106374146951167519E-16, 1.500000000000000000 ) ) ;
#802 = CARTESIAN_POINT ( 'NONE',  ( -3.149999999999999911, -0.3499999999999996447, -1.500000000000000000 ) ) ;
#803 = VECTOR ( 'NONE', #874, 1000.000000000000000 ) ;
#804 = EDGE_CURVE ( 'NONE', #533, #243, #26, .T. ) ;
#805 = LINE ( 'NONE', #694, #42 ) ;
#806 = ORIENTED_EDGE ( 'NONE', *, *, #300, .F. ) ;
#807 = DIRECTION ( 'NONE',  ( 1.084202172485504631E-15, -1.000000000000000000, 0.000000000000000000 ) ) ;
#808 = EDGE_CURVE ( 'NONE', #849, #428, #297, .T. ) ;
#809 = FACE_OUTER_BOUND ( 'NONE', #378, .T. ) ;
#810 = LINE ( 'NONE', #536, #336 ) ;
#811 = EDGE_CURVE ( 'NONE', #570, #421, #161, .T. ) ;
#812 = VERTEX_POINT ( 'NONE', #677 ) ;
#813 = DIRECTION ( 'NONE',  ( 0.7071067811865486830, -0.7071067811865464625, 0.000000000000000000 ) ) ;
#814 = ORIENTED_EDGE ( 'NONE', *, *, #76, .F. ) ;
#815 = LINE ( 'NONE', #662, #867 ) ;
#816 = LINE ( 'NONE', #16, #2 ) ;
#817 = DIRECTION ( 'NONE',  ( 0.000000000000000000, 1.000000000000000000, 0.000000000000000000 ) ) ;
#818 = VERTEX_POINT ( 'NONE', #896 ) ;
#819 = PERSON_AND_ORGANIZATION_ROLE ( 'creator' ) ;
#820 = PLANE ( 'NONE',  #568 ) ;
#821 = EDGE_LOOP ( 'NONE', ( #133, #779, #531, #154 ) ) ;
#822 = CARTESIAN_POINT ( 'NONE',  ( -1.500000000000001332, 0.4000000000000000222, 1.500000000000000000 ) ) ;
#823 = CARTESIAN_POINT ( 'NONE',  ( 1.425000000000000044, 0.000000000000000000, -1.500000000000000000 ) ) ;
#824 = CARTESIAN_POINT ( 'NONE',  ( -1.782842712474620672, 0.2828427124746185073, 1.500000000000000000 ) ) ;
#825 = VERTEX_POINT ( 'NONE', #755 ) ;
#826 = EDGE_CURVE ( 'NONE', #263, #818, #324, .T. ) ;
#827 = APPROVAL_ROLE ( '' ) ;
#828 = CARTESIAN_POINT ( 'NONE',  ( 2.015685424949238413, 0.05000000000000022482, 1.500000000000000000 ) ) ;
#829 = FACE_OUTER_BOUND ( 'NONE', #821, .T. ) ;
#830 = DIRECTION ( 'NONE',  ( 1.668003342285391551E-16, -1.000000000000000000, 0.000000000000000000 ) ) ;
#831 = VECTOR ( 'NONE', #543, 1000.000000000000000 ) ;
#832 = APPROVAL_ROLE ( '' ) ;
#833 = CARTESIAN_POINT ( 'NONE',  ( 1.500000000000001332, 0.000000000000000000, 1.500000000000000000 ) ) ;
#834 =( NAMED_UNIT ( * ) SI_UNIT ( $, .STERADIAN. ) SOLID_ANGLE_UNIT ( ) );
#835 = DIRECTION ( 'NONE',  ( 0.7071067811865464625, -0.7071067811865486830, 0.000000000000000000 ) ) ;
#836 = APPROVAL_DATE_TIME ( #765, #444 ) ;
#837 = VERTEX_POINT ( 'NONE', #81 ) ;
#838 = MECHANICAL_CONTEXT ( 'NONE', #139, 'mechanical' ) ;
#839 = EDGE_CURVE ( 'NONE', #533, #418, #318, .T. ) ;
#840 = DIRECTION ( 'NONE',  ( -1.000000000000000000, 0.000000000000000000, 0.000000000000000000 ) ) ;
#841 = ORIENTED_EDGE ( 'NONE', *, *, #734, .F. ) ;
#842 = COORDINATED_UNIVERSAL_TIME_OFFSET ( 8, 0, .AHEAD. ) ;
#843 = ORIENTED_EDGE ( 'NONE', *, *, #742, .T. ) ;
#844 = ADVANCED_FACE ( 'NONE', ( #93 ), #737, .F. ) ;
#845 = PLANE ( 'NONE',  #453 ) ;
#846 = EDGE_LOOP ( 'NONE', ( #178, #126, #777, #630 ) ) ;
#847 = EDGE_LOOP ( 'NONE', ( #54, #633, #194, #928 ) ) ;
#848 = ORIENTED_EDGE ( 'NONE', *, *, #487, .T. ) ;
#849 = VERTEX_POINT ( 'NONE', #618 ) ;
#850 = LINE ( 'NONE', #930, #674 ) ;
#851 = EDGE_CURVE ( 'NONE', #1, #421, #515, .T. ) ;
#852 = ORIENTED_EDGE ( 'NONE', *, *, #209, .T. ) ;
#853 = VECTOR ( 'NONE', #10, 1000.000000000000000 ) ;
#854 = AXIS2_PLACEMENT_3D ( 'NONE', #312, #535, #231 ) ;
#855 = ORIENTED_EDGE ( 'NONE', *, *, #899, .T. ) ;
#856 = LINE ( 'NONE', #648, #752 ) ;
#857 = EDGE_CURVE ( 'NONE', #391, #569, #795, .T. ) ;
#858 = EDGE_CURVE ( 'NONE', #540, #350, #371, .T. ) ;
#859 = ORIENTED_EDGE ( 'NONE', *, *, #141, .F. ) ;
#860 = AXIS2_PLACEMENT_3D ( 'NONE', #629, #119, #835 ) ;
#861 = FACE_OUTER_BOUND ( 'NONE', #7, .T. ) ;
#862 = DIRECTION ( 'NONE',  ( -1.000000000000000000, 0.000000000000000000, -0.000000000000000000 ) ) ;
#863 = LINE ( 'NONE', #788, #638 ) ;
#864 = EDGE_CURVE ( 'NONE', #743, #340, #367, .T. ) ;
#865 = FACE_OUTER_BOUND ( 'NONE', #782, .T. ) ;
#866 = VECTOR ( 'NONE', #897, 1000.000000000000000 ) ;
#867 = VECTOR ( 'NONE', #15, 1000.000000000000000 ) ;
#868 = FACE_OUTER_BOUND ( 'NONE', #314, .T. ) ;
#869 = AXIS2_PLACEMENT_3D ( 'NONE', #101, #385, #906 ) ;
#870 = DIRECTION ( 'NONE',  ( 1.478157296106082569E-16, -1.000000000000000000, 0.000000000000000000 ) ) ;
#871 = DIRECTION ( 'NONE',  ( 1.000000000000000000, 0.000000000000000000, -0.000000000000000000 ) ) ;
#872 = VERTEX_POINT ( 'NONE', #800 ) ;
#874 = DIRECTION ( 'NONE',  ( -0.000000000000000000, -0.000000000000000000, -1.000000000000000000 ) ) ;
#873 = APPROVAL ( #403, '未指定' ) ;
#875 = LINE ( 'NONE', #162, #508 ) ;
#876 = CARTESIAN_POINT ( 'NONE',  ( -1.500000000000001332, 0.000000000000000000, 1.500000000000000000 ) ) ;
#877 = EDGE_CURVE ( 'NONE', #129, #418, #8, .T. ) ;
#878 = VECTOR ( 'NONE', #443, 1000.000000000000000 ) ;
#879 = DIRECTION ( 'NONE',  ( 0.000000000000000000, 0.000000000000000000, -1.000000000000000000 ) ) ;
#880 = ORIENTED_EDGE ( 'NONE', *, *, #234, .T. ) ;
#881 = DIRECTION ( 'NONE',  ( -0.000000000000000000, -0.000000000000000000, -1.000000000000000000 ) ) ;
#882 = EDGE_CURVE ( 'NONE', #725, #495, #731, .T. ) ;
#883 = DIRECTION ( 'NONE',  ( -1.000000000000000000, -1.478157296106082569E-16, 0.000000000000000000 ) ) ;
#884 = LINE ( 'NONE', #33, #550 ) ;
#885 = VECTOR ( 'NONE', #175, 1000.000000000000000 ) ;
#886 = VERTEX_POINT ( 'NONE', #237 ) ;
#887 = VECTOR ( 'NONE', #753, 1000.000000000000000 ) ;
#888 = FACE_OUTER_BOUND ( 'NONE', #471, .T. ) ;
#889 = VERTEX_POINT ( 'NONE', #230 ) ;
#890 = CARTESIAN_POINT ( 'NONE',  ( 1.782842712474620672, 0.2828427124746185073, 1.500000000000000000 ) ) ;
#891 = CARTESIAN_POINT ( 'NONE',  ( 1.424999999999999600, 0.3999999999999999667, -1.500000000000000000 ) ) ;
#892 = CARTESIAN_POINT ( 'NONE',  ( -1.782842712474620672, 0.2828427124746185073, 1.500000000000000000 ) ) ;
#893 = CALENDAR_DATE ( 2023, 22, 11 ) ;
#894 = CARTESIAN_POINT ( 'NONE',  ( 2.015685424949238413, 0.05000000000000021094, 1.500000000000000000 ) ) ;
#895 = ORIENTED_EDGE ( 'NONE', *, *, #11, .T. ) ;
#896 = CARTESIAN_POINT ( 'NONE',  ( -3.149999999999999911, -0.3499999999999996447, -1.500000000000000000 ) ) ;
#897 = DIRECTION ( 'NONE',  ( -0.000000000000000000, -0.000000000000000000, -1.000000000000000000 ) ) ;
#898 = DIRECTION ( 'NONE',  ( 0.000000000000000000, -1.000000000000000000, 0.000000000000000000 ) ) ;
#899 = EDGE_CURVE ( 'NONE', #774, #637, #815, .T. ) ;
#900 = VERTEX_POINT ( 'NONE', #302 ) ;
#901 = SHAPE_DEFINITION_REPRESENTATION ( #13, #158 ) ;
#902 = DIRECTION ( 'NONE',  ( -0.7071067811865487940, -0.7071067811865463515, 0.000000000000000000 ) ) ;
#903 = FACE_OUTER_BOUND ( 'NONE', #620, .T. ) ;
#904 = ORIENTED_EDGE ( 'NONE', *, *, #6, .F. ) ;
#905 = APPROVAL_STATUS ( 'not_yet_approved' ) ;
#906 = DIRECTION ( 'NONE',  ( 0.000000000000000000, -0.000000000000000000, -1.000000000000000000 ) ) ;
#907 = DIRECTION ( 'NONE',  ( -1.000000000000000000, 0.000000000000000000, 0.000000000000000000 ) ) ;
#908 = AXIS2_PLACEMENT_3D ( 'NONE', #173, #404, #323 ) ;
#909 = LINE ( 'NONE', #523, #128 ) ;
#910 = CIRCLE ( 'NONE', #783, 0.4000000000000001887 ) ;
#911 = EDGE_LOOP ( 'NONE', ( #56, #855, #657, #806 ) ) ;
#912 = APPROVAL_DATE_TIME ( #264, #873 ) ;
#913 = ADVANCED_FACE ( 'NONE', ( #829 ), #123, .T. ) ;
#914 = DIRECTION ( 'NONE',  ( 1.000000000000000000, 0.000000000000000000, 0.000000000000000000 ) ) ;
#915 = PLANE ( 'NONE',  #44 ) ;
#916 = ORIENTED_EDGE ( 'NONE', *, *, #487, .F. ) ;
#917 = DATE_TIME_ROLE ( 'classification_date' ) ;
#918 = EDGE_CURVE ( 'NONE', #931, #129, #195, .T. ) ;
#919 = VERTEX_POINT ( 'NONE', #180 ) ;
#920 = EDGE_CURVE ( 'NONE', #447, #725, #271, .T. ) ;
#921 = CARTESIAN_POINT ( 'NONE',  ( -1.425000000000000044, 0.3999999999999999667, 1.500000000000000000 ) ) ;
#922 = DIRECTION ( 'NONE',  ( -1.000000000000000000, 0.000000000000000000, 0.000000000000000000 ) ) ;
#923 = ORIENTED_EDGE ( 'NONE', *, *, #148, .F. ) ;
#924 = ORIENTED_EDGE ( 'NONE', *, *, #839, .T. ) ;
#925 =( GEOMETRIC_REPRESENTATION_CONTEXT ( 3 ) GLOBAL_UNCERTAINTY_ASSIGNED_CONTEXT ( ( #99 ) ) GLOBAL_UNIT_ASSIGNED_CONTEXT ( ( #331, #338, #834 ) ) REPRESENTATION_CONTEXT ( 'NONE', 'WORKASPACE' ) );
#926 = ORIENTED_EDGE ( 'NONE', *, *, #207, .F. ) ;
#927 = VECTOR ( 'NONE', #381, 1000.000000000000000 ) ;
#928 = ORIENTED_EDGE ( 'NONE', *, *, #392, .F. ) ;
#929 = CC_DESIGN_PERSON_AND_ORGANIZATION_ASSIGNMENT ( #673, #253, ( #751 ) ) ;
#930 = CARTESIAN_POINT ( 'NONE',  ( -1.500000000000001332, 0.4000000000000000222, -1.500000000000000000 ) ) ;
#931 = VERTEX_POINT ( 'NONE', #921 ) ;
#932 = ADVANCED_FACE ( 'NONE', ( #399 ), #631, .T. ) ;
#933 = EDGE_LOOP ( 'NONE', ( #573, #102, #778, #348, #635, #415, #527, #594, #895, #562 ) ) ;
#934 = CARTESIAN_POINT ( 'NONE',  ( 2.015685424949238413, 0.05000000000000022482, 1.500000000000000000 ) ) ;
#935 = ORIENTED_EDGE ( 'NONE', *, *, #234, .F. ) ;
#936 = VECTOR ( 'NONE', #509, 1000.000000000000000 ) ;
#937 = DIRECTION ( 'NONE',  ( 0.000000000000000000, 0.000000000000000000, -1.000000000000000000 ) ) ;
#938 = DIRECTION ( 'NONE',  ( 0.000000000000000000, -0.000000000000000000, 1.000000000000000000 ) ) ;
#939 = CARTESIAN_POINT ( 'NONE',  ( -2.015685424949238413, -0.3499999999999997558, -1.500000000000000000 ) ) ;
#940 = EDGE_CURVE ( 'NONE', #886, #183, #267, .T. ) ;
#941 = PLANE ( 'NONE',  #679 ) ;
ENDSEC;
END-ISO-10303-21;
