ISO-10303-21;
HEADER;
FILE_DESCRIPTION (( 'STEP AP203' ),
    '1' );
FILE_NAME ('SEWF 5930-1mΩ.STEP',
    '2024-12-20T08:31:20',
    ( 'Administrator' ),
    ( 'Administrator' ),
    'SwSTEP 2.0',
    'SolidWorks 2020',
    '' );
FILE_SCHEMA (( 'CONFIG_CONTROL_DESIGN' ));
ENDSEC;

DATA;
#1 = EDGE_LOOP ( 'NONE', ( #217, #15, #812, #810, #511, #257, #10, #816, #807, #233 ) ) ;
#2 = DIRECTION ( 'NONE',  ( 0.000000000000000000, 0.000000000000000000, 1.000000000000000000 ) ) ;
#3 = LINE ( 'NONE', #874, #708 ) ;
#4 = VECTOR ( 'NONE', #401, 1000.000000000000114 ) ;
#5 = CARTESIAN_POINT ( 'NONE',  ( 10.37500000000000000, 0.5000000000000000000, 0.000000000000000000 ) ) ;
#6 = EDGE_CURVE ( 'NONE', #424, #745, #632, .T. ) ;
#7 = ORIENTED_EDGE ( 'NONE', *, *, #439, .F. ) ;
#8 = CARTESIAN_POINT ( 'NONE',  ( 3.365075759508249220, 1.050000000000000044, -7.750000000000000000 ) ) ;
#9 = LINE ( 'NONE', #519, #590 ) ;
#10 = ORIENTED_EDGE ( 'NONE', *, *, #686, .F. ) ;
#11 = CARTESIAN_POINT ( 'NONE',  ( 10.37500000000000000, 0.4999999999999995559, -7.750000000000000000 ) ) ;
#12 = ORIENTED_EDGE ( 'NONE', *, *, #6, .F. ) ;
#13 = AXIS2_PLACEMENT_3D ( 'NONE', #446, #733, #442 ) ;
#14 = CARTESIAN_POINT ( 'NONE',  ( 11.44246212024587628, 1.242462120245874102, -7.750000000000000000 ) ) ;
#15 = ORIENTED_EDGE ( 'NONE', *, *, #192, .T. ) ;
#16 = ORIENTED_EDGE ( 'NONE', *, *, #70, .T. ) ;
#17 = DIRECTION ( 'NONE',  ( 0.000000000000000000, 1.000000000000000000, 0.000000000000000000 ) ) ;
#18 = ORIENTED_EDGE ( 'NONE', *, *, #476, .F. ) ;
#19 = ADVANCED_FACE ( 'NONE', ( #282 ), #561, .T. ) ;
#20 = CC_DESIGN_APPROVAL ( #105, ( #274 ) ) ;
#21 = DIRECTION ( 'NONE',  ( -0.000000000000000000, -0.000000000000000000, -1.000000000000000000 ) ) ;
#22 = CARTESIAN_POINT ( 'NONE',  ( 4.299999999999998046, 1.550000000000000266, -7.750000000000000000 ) ) ;
#23 = EDGE_LOOP ( 'NONE', ( #416, #56, #162, #144 ) ) ;
#24 = CARTESIAN_POINT ( 'NONE',  ( 11.19999999999999929, 0.000000000000000000, -7.750000000000000000 ) ) ;
#25 = ORIENTED_EDGE ( 'NONE', *, *, #256, .F. ) ;
#26 = DIRECTION ( 'NONE',  ( 0.000000000000000000, -0.000000000000000000, -1.000000000000000000 ) ) ;
#27 = DIRECTION ( 'NONE',  ( 0.000000000000000000, 0.000000000000000000, -1.000000000000000000 ) ) ;
#28 = ORIENTED_EDGE ( 'NONE', *, *, #595, .F. ) ;
#29 = DIRECTION ( 'NONE',  ( 0.000000000000000000, -0.000000000000000000, -1.000000000000000000 ) ) ;
#30 = VERTEX_POINT ( 'NONE', #596 ) ;
#31 = DIRECTION ( 'NONE',  ( 1.000000000000000000, 0.000000000000000000, 0.000000000000000000 ) ) ;
#32 = LINE ( 'NONE', #766, #562 ) ;
#33 = AXIS2_PLACEMENT_3D ( 'NONE', #692, #270, #551 ) ;
#34 = ORIENTED_EDGE ( 'NONE', *, *, #640, .F. ) ;
#35 = CARTESIAN_POINT ( 'NONE',  ( 0.000000000000000000, 1.050000000000000044, 0.000000000000000000 ) ) ;
#36 = VERTEX_POINT ( 'NONE', #819 ) ;
#37 = CARTESIAN_POINT ( 'NONE',  ( 4.299999999999998046, 0.5000000000000000000, -7.750000000000000000 ) ) ;
#38 = ADVANCED_FACE ( 'NONE', ( #406 ), #409, .F. ) ;
#39 = LINE ( 'NONE', #695, #178 ) ;
#40 = EDGE_CURVE ( 'NONE', #899, #172, #826, .T. ) ;
#41 = VECTOR ( 'NONE', #676, 1000.000000000000000 ) ;
#42 = CARTESIAN_POINT ( 'NONE',  ( 10.70000000000000107, 0.5000000000000000000, 0.000000000000000000 ) ) ;
#43 = EDGE_LOOP ( 'NONE', ( #329, #677, #752, #275 ) ) ;
#44 = CARTESIAN_POINT ( 'NONE',  ( 11.19999999999999929, 1.050000000000000044, -7.750000000000000000 ) ) ;
#45 = APPROVAL_STATUS ( 'not_yet_approved' ) ;
#46 = PLANE ( 'NONE',  #216 ) ;
#47 = ORIENTED_EDGE ( 'NONE', *, *, #408, .F. ) ;
#48 = AXIS2_PLACEMENT_3D ( 'NONE', #565, #857, #415 ) ;
#49 = VECTOR ( 'NONE', #242, 1000.000000000000000 ) ;
#50 = DIRECTION ( 'NONE',  ( 0.7071067811865489050, -0.7071067811865462405, 0.000000000000000000 ) ) ;
#51 = ADVANCED_FACE ( 'NONE', ( #396 ), #241, .F. ) ;
#52 = VERTEX_POINT ( 'NONE', #669 ) ;
#53 = DATE_AND_TIME ( #342, #671 ) ;
#54 = CARTESIAN_POINT ( 'NONE',  ( 10.37500000000000000, 1.550000000000000266, -7.750000000000000000 ) ) ;
#55 = AXIS2_PLACEMENT_3D ( 'NONE', #908, #27, #255 ) ;
#56 = ORIENTED_EDGE ( 'NONE', *, *, #697, .T. ) ;
#57 = DIRECTION ( 'NONE',  ( -1.000000000000000000, 0.000000000000000000, -0.000000000000000000 ) ) ;
#58 = PRODUCT_DEFINITION ( '未知', '', #274, #673 ) ;
#59 = COORDINATED_UNIVERSAL_TIME_OFFSET ( 8, 0, .AHEAD. ) ;
#60 = VECTOR ( 'NONE', #218, 1000.000000000000114 ) ;
#61 = LINE ( 'NONE', #774, #742 ) ;
#62 = EDGE_CURVE ( 'NONE', #895, #451, #170, .T. ) ;
#63 = APPROVAL_PERSON_ORGANIZATION ( #288, #307, #493 ) ;
#64 = ORIENTED_EDGE ( 'NONE', *, *, #146, .T. ) ;
#65 = DIRECTION ( 'NONE',  ( 0.000000000000000000, 0.000000000000000000, -1.000000000000000000 ) ) ;
#66 = AXIS2_PLACEMENT_3D ( 'NONE', #24, #480, #399 ) ;
#67 = VERTEX_POINT ( 'NONE', #473 ) ;
#68 = FACE_OUTER_BOUND ( 'NONE', #317, .T. ) ;
#69 = CARTESIAN_POINT ( 'NONE',  ( 4.299999999999998046, 0.5000000000000000000, -7.750000000000000000 ) ) ;
#70 = EDGE_CURVE ( 'NONE', #67, #355, #254, .T. ) ;
#71 = EDGE_LOOP ( 'NONE', ( #572, #458, #862, #349 ) ) ;
#72 = PLANE ( 'NONE',  #94 ) ;
#73 = AXIS2_PLACEMENT_3D ( 'NONE', #69, #648, #500 ) ;
#74 = LINE ( 'NONE', #376, #492 ) ;
#75 = AXIS2_PLACEMENT_3D ( 'NONE', #326, #547, #913 ) ;
#76 = ADVANCED_FACE ( 'NONE', ( #678 ), #536, .T. ) ;
#77 = DIRECTION ( 'NONE',  ( 0.000000000000000000, 0.000000000000000000, 1.000000000000000000 ) ) ;
#78 = EDGE_LOOP ( 'NONE', ( #304, #855, #206, #263 ) ) ;
#79 = CARTESIAN_POINT ( 'NONE',  ( 3.365075759508249664, 1.050000000000000044, 0.000000000000000000 ) ) ;
#80 = CARTESIAN_POINT ( 'NONE',  ( 15.00000000000000000, 0.000000000000000000, -7.750000000000000000 ) ) ;
#81 = AXIS2_PLACEMENT_3D ( 'NONE', #544, #528, #760 ) ;
#82 = CIRCLE ( 'NONE', #425, 1.050000000000000044 ) ;
#83 = PLANE ( 'NONE',  #611 ) ;
#84 = ORIENTED_EDGE ( 'NONE', *, *, #284, .T. ) ;
#85 = DIRECTION ( 'NONE',  ( 1.000000000000000000, 0.000000000000000000, 0.000000000000000000 ) ) ;
#86 = VERTEX_POINT ( 'NONE', #524 ) ;
#87 = DIRECTION ( 'NONE',  ( -0.000000000000000000, -0.000000000000000000, 1.000000000000000000 ) ) ;
#88 = EDGE_CURVE ( 'NONE', #86, #582, #814, .T. ) ;
#89 = EDGE_CURVE ( 'NONE', #829, #121, #335, .T. ) ;
#90 = ORIENTED_EDGE ( 'NONE', *, *, #595, .T. ) ;
#91 = DIRECTION ( 'NONE',  ( 0.000000000000000000, 0.000000000000000000, 1.000000000000000000 ) ) ;
#92 = ORIENTED_EDGE ( 'NONE', *, *, #729, .F. ) ;
#93 = DIRECTION ( 'NONE',  ( 0.7071067811865463515, 0.7071067811865487940, 0.000000000000000000 ) ) ;
#94 = AXIS2_PLACEMENT_3D ( 'NONE', #385, #667, #573 ) ;
#95 = LINE ( 'NONE', #870, #283 ) ;
#96 = ORIENTED_EDGE ( 'NONE', *, *, #410, .T. ) ;
#97 = DIRECTION ( 'NONE',  ( 1.000000000000000000, 0.000000000000000000, 0.000000000000000000 ) ) ;
#98 = ORIENTED_EDGE ( 'NONE', *, *, #555, .F. ) ;
#99 = DIRECTION ( 'NONE',  ( 0.000000000000000000, -1.000000000000000000, 0.000000000000000000 ) ) ;
#100 = CARTESIAN_POINT ( 'NONE',  ( 4.625000000000000000, 0.000000000000000000, -0.000000000000000000 ) ) ;
#101 = AXIS2_PLACEMENT_3D ( 'NONE', #37, #762, #546 ) ;
#102 = ORIENTED_EDGE ( 'NONE', *, *, #158, .F. ) ;
#103 = CARTESIAN_POINT ( 'NONE',  ( 0.000000000000000000, 1.050000000000000044, -7.750000000000000000 ) ) ;
#104 = VERTEX_POINT ( 'NONE', #834 ) ;
#105 = APPROVAL ( #45, '未指定' ) ;
#106 = CARTESIAN_POINT ( 'NONE',  ( 11.44246212024587628, 1.242462120245873880, -7.750000000000000000 ) ) ;
#107 = CARTESIAN_POINT ( 'NONE',  ( 3.557537879754122390, 1.242462120245873880, -7.750000000000000000 ) ) ;
#108 = ORIENTED_EDGE ( 'NONE', *, *, #850, .F. ) ;
#109 = ORIENTED_EDGE ( 'NONE', *, *, #88, .F. ) ;
#110 = CC_DESIGN_DATE_AND_TIME_ASSIGNMENT ( #559, #914, ( #390 ) ) ;
#111 = EDGE_CURVE ( 'NONE', #846, #663, #530, .T. ) ;
#112 = CARTESIAN_POINT ( 'NONE',  ( 10.69999999999999929, 0.4999999999999997780, -7.750000000000000000 ) ) ;
#113 = EDGE_CURVE ( 'NONE', #243, #104, #478, .T. ) ;
#114 = CARTESIAN_POINT ( 'NONE',  ( 0.000000000000000000, 0.000000000000000000, 0.000000000000000000 ) ) ;
#115 =( NAMED_UNIT ( * ) PLANE_ANGLE_UNIT ( ) SI_UNIT ( $, .RADIAN. ) );
#116 = LINE ( 'NONE', #694, #261 ) ;
#117 = LINE ( 'NONE', #100, #830 ) ;
#118 = VECTOR ( 'NONE', #97, 1000.000000000000000 ) ;
#119 = FACE_OUTER_BOUND ( 'NONE', #644, .T. ) ;
#120 = CARTESIAN_POINT ( 'NONE',  ( 0.000000000000000000, 1.050000000000000044, -7.750000000000000000 ) ) ;
#121 = VERTEX_POINT ( 'NONE', #765 ) ;
#122 = COORDINATED_UNIVERSAL_TIME_OFFSET ( 8, 0, .AHEAD. ) ;
#123 = EDGE_CURVE ( 'NONE', #867, #52, #116, .T. ) ;
#124 = DIRECTION ( 'NONE',  ( 0.7071067811865465735, -0.7071067811865483499, 0.000000000000000000 ) ) ;
#125 = VERTEX_POINT ( 'NONE', #757 ) ;
#126 = VECTOR ( 'NONE', #869, 1000.000000000000000 ) ;
#127 = DIRECTION ( 'NONE',  ( 0.000000000000000000, 0.000000000000000000, 1.000000000000000000 ) ) ;
#128 = ORIENTED_EDGE ( 'NONE', *, *, #353, .T. ) ;
#129 = VECTOR ( 'NONE', #31, 1000.000000000000000 ) ;
#130 = LINE ( 'NONE', #194, #904 ) ;
#131 = CARTESIAN_POINT ( 'NONE',  ( 10.89246212024587379, 0.3075378797541261644, 0.000000000000000000 ) ) ;
#132 = ADVANCED_FACE ( 'NONE', ( #318 ), #246, .F. ) ;
#133 = EDGE_CURVE ( 'NONE', #732, #737, #324, .T. ) ;
#134 = PERSON_AND_ORGANIZATION ( #440, #858 ) ;
#135 = AXIS2_PLACEMENT_3D ( 'NONE', #224, #647, #508 ) ;
#136 = DIRECTION ( 'NONE',  ( 0.000000000000000000, 0.000000000000000000, 1.000000000000000000 ) ) ;
#137 = APPLICATION_CONTEXT ( 'configuration controlled 3d designs of mechanical parts and assemblies' ) ;
#138 = ORIENTED_EDGE ( 'NONE', *, *, #750, .F. ) ;
#139 = FACE_OUTER_BOUND ( 'NONE', #591, .T. ) ;
#140 = VECTOR ( 'NONE', #741, 1000.000000000000114 ) ;
#141 = DIRECTION ( 'NONE',  ( 0.000000000000000000, -0.000000000000000000, 1.000000000000000000 ) ) ;
#142 = PRODUCT ( 'SEWF 5930-1mΩ', 'SEWF 5930-1mΩ', '', ( #927 ) ) ;
#143 = EDGE_CURVE ( 'NONE', #630, #290, #907, .T. ) ;
#144 = ORIENTED_EDGE ( 'NONE', *, *, #210, .F. ) ;
#145 = DIRECTION ( 'NONE',  ( 1.000000000000000000, 0.000000000000000000, 0.000000000000000000 ) ) ;
#146 = EDGE_CURVE ( 'NONE', #104, #199, #615, .T. ) ;
#147 = FACE_OUTER_BOUND ( 'NONE', #78, .T. ) ;
#148 = CARTESIAN_POINT ( 'NONE',  ( 3.557537879754122390, 1.242462120245873880, -7.750000000000000000 ) ) ;
#149 = PRODUCT_DEFINITION_SHAPE ( 'NONE', 'NONE',  #58 ) ;
#150 = ORIENTED_EDGE ( 'NONE', *, *, #735, .F. ) ;
#151 = DIRECTION ( 'NONE',  ( -1.000000000000000000, 0.000000000000000000, 0.000000000000000000 ) ) ;
#152 = LINE ( 'NONE', #80, #126 ) ;
#153 = AXIS2_PLACEMENT_3D ( 'NONE', #383, #319, #444 ) ;
#154 = FACE_OUTER_BOUND ( 'NONE', #503, .T. ) ;
#155 = EDGE_LOOP ( 'NONE', ( #160, #554, #823, #466 ) ) ;
#156 = LINE ( 'NONE', #718, #429 ) ;
#157 = AXIS2_PLACEMENT_3D ( 'NONE', #264, #465, #29 ) ;
#158 = EDGE_CURVE ( 'NONE', #895, #327, #82, .T. ) ;
#159 = DIRECTION ( 'NONE',  ( 1.000000000000000000, 0.000000000000000000, 0.000000000000000000 ) ) ;
#160 = ORIENTED_EDGE ( 'NONE', *, *, #439, .T. ) ;
#161 = CARTESIAN_POINT ( 'NONE',  ( 4.299999999999998046, 0.5000000000000000000, -7.750000000000000000 ) ) ;
#162 = ORIENTED_EDGE ( 'NONE', *, *, #838, .F. ) ;
#163 = EDGE_CURVE ( 'NONE', #775, #867, #642, .T. ) ;
#164 = CARTESIAN_POINT ( 'NONE',  ( 4.625000000000000000, 1.550000000000000266, -7.750000000000000000 ) ) ;
#165 = FACE_OUTER_BOUND ( 'NONE', #813, .T. ) ;
#166 = ORIENTED_EDGE ( 'NONE', *, *, #920, .F. ) ;
#167 = DIRECTION ( 'NONE',  ( 0.000000000000000000, 0.000000000000000000, 1.000000000000000000 ) ) ;
#168 = ORIENTED_EDGE ( 'NONE', *, *, #293, .F. ) ;
#169 = VECTOR ( 'NONE', #127, 1000.000000000000000 ) ;
#170 = LINE ( 'NONE', #831, #919 ) ;
#171 = DIRECTION ( 'NONE',  ( 0.000000000000000000, -0.000000000000000000, -1.000000000000000000 ) ) ;
#172 = VERTEX_POINT ( 'NONE', #131 ) ;
#173 = PLANE ( 'NONE',  #157 ) ;
#174 = EDGE_LOOP ( 'NONE', ( #166, #881, #842, #345 ) ) ;
#175 = DIRECTION ( 'NONE',  ( 0.000000000000000000, 0.000000000000000000, 1.000000000000000000 ) ) ;
#176 = LINE ( 'NONE', #107, #634 ) ;
#177 = ADVANCED_FACE ( 'NONE', ( #713 ), #932, .T. ) ;
#178 = VECTOR ( 'NONE', #542, 1000.000000000000000 ) ;
#179 = ORIENTED_EDGE ( 'NONE', *, *, #208, .F. ) ;
#180 = LINE ( 'NONE', #836, #336 ) ;
#181 = ORIENTED_EDGE ( 'NONE', *, *, #594, .F. ) ;
#182 = DIRECTION ( 'NONE',  ( 1.000000000000000000, 0.000000000000000000, 0.000000000000000000 ) ) ;
#183 = DIRECTION ( 'NONE',  ( -1.000000000000000000, 0.000000000000000000, -0.000000000000000000 ) ) ;
#184 =( NAMED_UNIT ( * ) SI_UNIT ( $, .STERADIAN. ) SOLID_ANGLE_UNIT ( ) );
#185 = CARTESIAN_POINT ( 'NONE',  ( 3.057537879754123722, 0.7424621202458737690, -7.750000000000000000 ) ) ;
#186 = DIRECTION ( 'NONE',  ( 0.000000000000000000, 1.000000000000000000, 0.000000000000000000 ) ) ;
#187 = VECTOR ( 'NONE', #77, 1000.000000000000000 ) ;
#188 = CARTESIAN_POINT ( 'NONE',  ( 0.000000000000000000, 0.000000000000000000, -7.750000000000000000 ) ) ;
#189 = DIRECTION ( 'NONE',  ( 1.000000000000000000, 0.000000000000000000, 0.000000000000000000 ) ) ;
#190 = LOCAL_TIME ( 16, 31, 20.00000000000000000, #844 ) ;
#191 = ORIENTED_EDGE ( 'NONE', *, *, #62, .T. ) ;
#192 = EDGE_CURVE ( 'NONE', #872, #587, #921, .T. ) ;
#193 = DIRECTION ( 'NONE',  ( 0.000000000000000000, 0.000000000000000000, 1.000000000000000000 ) ) ;
#194 = CARTESIAN_POINT ( 'NONE',  ( 11.19999999999999929, 0.000000000000000000, -7.750000000000000000 ) ) ;
#195 = EDGE_LOOP ( 'NONE', ( #539, #652, #431, #721 ) ) ;
#196 = CC_DESIGN_PERSON_AND_ORGANIZATION_ASSIGNMENT ( #134, #924, ( #390 ) ) ;
#197 = DIRECTION ( 'NONE',  ( 1.000000000000000000, 0.000000000000000000, 0.000000000000000000 ) ) ;
#198 = DIRECTION ( 'NONE',  ( 0.000000000000000000, 0.000000000000000000, -1.000000000000000000 ) ) ;
#199 = VERTEX_POINT ( 'NONE', #711 ) ;
#200 = VECTOR ( 'NONE', #815, 1000.000000000000000 ) ;
#201 = MANIFOLD_SOLID_BREP ( '凸台-拉伸1', #377 ) ;
#202 = APPROVAL_STATUS ( 'not_yet_approved' ) ;
#203 = CC_DESIGN_PERSON_AND_ORGANIZATION_ASSIGNMENT ( #851, #213, ( #274 ) ) ;
#204 = DIRECTION ( 'NONE',  ( 1.000000000000000000, 0.000000000000000000, 0.000000000000000000 ) ) ;
#205 = ORIENTED_EDGE ( 'NONE', *, *, #920, .T. ) ;
#206 = ORIENTED_EDGE ( 'NONE', *, *, #378, .F. ) ;
#207 = CALENDAR_DATE ( 2024, 20, 12 ) ;
#208 = EDGE_CURVE ( 'NONE', #637, #657, #130, .T. ) ;
#209 = AXIS2_PLACEMENT_3D ( 'NONE', #552, #193, #197 ) ;
#210 = EDGE_CURVE ( 'NONE', #630, #775, #426, .T. ) ;
#211 = PLANE ( 'NONE',  #421 ) ;
#212 = CLOSED_SHELL ( 'NONE', ( #413, #876, #579, #51, #877, #570, #268, #132, #806, #19, #543, #362 ) ) ;
#213 = PERSON_AND_ORGANIZATION_ROLE ( 'creator' ) ;
#214 = PLANE ( 'NONE',  #871 ) ;
#215 = MANIFOLD_SOLID_BREP ( '切除-拉伸1[1]', #212 ) ;
#216 = AXIS2_PLACEMENT_3D ( 'NONE', #354, #343, #57 ) ;
#217 = ORIENTED_EDGE ( 'NONE', *, *, #840, .F. ) ;
#218 = DIRECTION ( 'NONE',  ( 0.7071067811865465735, -0.7071067811865483499, 0.000000000000000000 ) ) ;
#219 = VECTOR ( 'NONE', #653, 1000.000000000000000 ) ;
#220 = PLANE ( 'NONE',  #650 ) ;
#221 = ADVANCED_FACE ( 'NONE', ( #490 ), #46, .F. ) ;
#222 = MANIFOLD_SOLID_BREP ( '切除-拉伸1[2]', #623 ) ;
#223 = ORIENTED_EDGE ( 'NONE', *, *, #113, .T. ) ;
#224 = CARTESIAN_POINT ( 'NONE',  ( 4.625000000000000000, 0.4999999999999995559, -7.750000000000000000 ) ) ;
#225 = VECTOR ( 'NONE', #602, 1000.000000000000000 ) ;
#226 = CARTESIAN_POINT ( 'NONE',  ( 4.625000000000000000, 1.550000000000000266, 0.000000000000000000 ) ) ;
#227 = LINE ( 'NONE', #437, #461 ) ;
#228 = ORIENTED_EDGE ( 'NONE', *, *, #501, .F. ) ;
#229 = DIRECTION ( 'NONE',  ( -0.000000000000000000, -1.000000000000000000, -0.000000000000000000 ) ) ;
#230 = CARTESIAN_POINT ( 'NONE',  ( 4.625000000000000000, 0.4999999999999995559, -7.750000000000000000 ) ) ;
#231 = ADVANCED_BREP_SHAPE_REPRESENTATION ( 'SEWF 5930-1mΩ', ( #215, #222, #201, #209 ), #769 ) ;
#232 = CARTESIAN_POINT ( 'NONE',  ( 15.00000000000000000, 0.000000000000000000, -7.750000000000000000 ) ) ;
#233 = ORIENTED_EDGE ( 'NONE', *, *, #408, .T. ) ;
#234 = FACE_OUTER_BOUND ( 'NONE', #380, .T. ) ;
#235 = CC_DESIGN_PERSON_AND_ORGANIZATION_ASSIGNMENT ( #709, #556, ( #142 ) ) ;
#236 = CARTESIAN_POINT ( 'NONE',  ( 15.00000000000000000, 1.050000000000000044, 0.000000000000000000 ) ) ;
#237 = LOCAL_TIME ( 16, 31, 20.00000000000000000, #776 ) ;
#238 = VERTEX_POINT ( 'NONE', #636 ) ;
#239 = DIRECTION ( 'NONE',  ( 1.000000000000000000, 0.000000000000000000, 0.000000000000000000 ) ) ;
#240 = ORIENTED_EDGE ( 'NONE', *, *, #861, .F. ) ;
#241 = PLANE ( 'NONE',  #674 ) ;
#242 = DIRECTION ( 'NONE',  ( 0.7071067811865463515, 0.7071067811865487940, 0.000000000000000000 ) ) ;
#243 = VERTEX_POINT ( 'NONE', #358 ) ;
#244 = CARTESIAN_POINT ( 'NONE',  ( 4.625000000000000000, 1.550000000000000266, -7.750000000000000000 ) ) ;
#245 = VERTEX_POINT ( 'NONE', #916 ) ;
#246 = PLANE ( 'NONE',  #375 ) ;
#247 = ORIENTED_EDGE ( 'NONE', *, *, #253, .T. ) ;
#248 = LINE ( 'NONE', #796, #200 ) ;
#249 = ORIENTED_EDGE ( 'NONE', *, *, #286, .T. ) ;
#250 = DIRECTION ( 'NONE',  ( 0.000000000000000000, -1.000000000000000000, 0.000000000000000000 ) ) ;
#251 = ORIENTED_EDGE ( 'NONE', *, *, #501, .T. ) ;
#252 = VECTOR ( 'NONE', #430, 1000.000000000000000 ) ;
#253 = EDGE_CURVE ( 'NONE', #680, #36, #61, .T. ) ;
#254 = LINE ( 'NONE', #164, #350 ) ;
#255 = DIRECTION ( 'NONE',  ( -1.000000000000000000, 0.000000000000000000, 0.000000000000000000 ) ) ;
#256 = EDGE_CURVE ( 'NONE', #121, #732, #457, .T. ) ;
#257 = ORIENTED_EDGE ( 'NONE', *, *, #325, .T. ) ;
#258 = DIRECTION ( 'NONE',  ( 0.000000000000000000, 0.000000000000000000, 1.000000000000000000 ) ) ;
#259 = ORIENTED_EDGE ( 'NONE', *, *, #780, .F. ) ;
#260 = DIRECTION ( 'NONE',  ( 1.000000000000000000, 0.000000000000000000, 0.000000000000000000 ) ) ;
#261 = VECTOR ( 'NONE', #388, 1000.000000000000000 ) ;
#262 = DIRECTION ( 'NONE',  ( 0.000000000000000000, 0.000000000000000000, -1.000000000000000000 ) ) ;
#263 = ORIENTED_EDGE ( 'NONE', *, *, #789, .F. ) ;
#264 = CARTESIAN_POINT ( 'NONE',  ( 0.000000000000000000, 1.050000000000000044, -7.750000000000000000 ) ) ;
#265 = DIRECTION ( 'NONE',  ( 1.000000000000000000, 0.000000000000000000, 0.000000000000000000 ) ) ;
#266 = DIRECTION ( 'NONE',  ( 1.000000000000000000, 0.000000000000000000, 0.000000000000000000 ) ) ;
#267 = CARTESIAN_POINT ( 'NONE',  ( 3.365075759508249664, 1.050000000000000044, -7.750000000000000000 ) ) ;
#268 = ADVANCED_FACE ( 'NONE', ( #638 ), #553, .F. ) ;
#269 = ORIENTED_EDGE ( 'NONE', *, *, #256, .T. ) ;
#270 = DIRECTION ( 'NONE',  ( 0.000000000000000000, 0.000000000000000000, -1.000000000000000000 ) ) ;
#271 = VECTOR ( 'NONE', #799, 1000.000000000000000 ) ;
#272 = CALENDAR_DATE ( 2024, 20, 12 ) ;
#273 = DIRECTION ( 'NONE',  ( 0.000000000000000000, -1.000000000000000000, 0.000000000000000000 ) ) ;
#274 = PRODUCT_DEFINITION_FORMATION_WITH_SPECIFIED_SOURCE ( '任何', '', #142, .NOT_KNOWN. ) ;
#275 = ORIENTED_EDGE ( 'NONE', *, *, #801, .F. ) ;
#276 = VECTOR ( 'NONE', #175, 1000.000000000000000 ) ;
#277 = APPROVAL_STATUS ( 'not_yet_approved' ) ;
#278 = DIRECTION ( 'NONE',  ( 0.000000000000000000, 0.000000000000000000, -1.000000000000000000 ) ) ;
#279 = DIRECTION ( 'NONE',  ( 0.000000000000000000, 0.000000000000000000, 1.000000000000000000 ) ) ;
#280 = APPROVAL_DATE_TIME ( #285, #338 ) ;
#281 = DIRECTION ( 'NONE',  ( 0.7071067811865465735, -0.7071067811865483499, 0.000000000000000000 ) ) ;
#282 = FACE_OUTER_BOUND ( 'NONE', #818, .T. ) ;
#283 = VECTOR ( 'NONE', #736, 1000.000000000000000 ) ;
#284 = EDGE_CURVE ( 'NONE', #369, #846, #928, .T. ) ;
#285 = DATE_AND_TIME ( #207, #411 ) ;
#286 = EDGE_CURVE ( 'NONE', #243, #290, #575, .T. ) ;
#287 = DIRECTION ( 'NONE',  ( -1.000000000000000000, 2.684691093773629783E-15, 0.000000000000000000 ) ) ;
#288 = PERSON_AND_ORGANIZATION ( #440, #858 ) ;
#289 = CARTESIAN_POINT ( 'NONE',  ( 3.799999999999999822, 0.000000000000000000, -7.750000000000000000 ) ) ;
#290 = VERTEX_POINT ( 'NONE', #845 ) ;
#291 = LINE ( 'NONE', #432, #788 ) ;
#292 = CARTESIAN_POINT ( 'NONE',  ( 15.00000000000000000, 1.050000000000000044, -7.750000000000000000 ) ) ;
#293 = EDGE_CURVE ( 'NONE', #759, #382, #418, .T. ) ;
#294 = VECTOR ( 'NONE', #278, 1000.000000000000000 ) ;
#295 = EDGE_LOOP ( 'NONE', ( #707, #315, #593, #249, #601, #646, #84, #889, #448, #849 ) ) ;
#296 = CARTESIAN_POINT ( 'NONE',  ( 11.63492424049174900, 1.050000000000000044, -7.750000000000000000 ) ) ;
#297 = DIRECTION ( 'NONE',  ( 1.000000000000000000, 0.000000000000000000, 0.000000000000000000 ) ) ;
#298 = DIRECTION ( 'NONE',  ( 0.000000000000000000, 0.000000000000000000, 1.000000000000000000 ) ) ;
#299 = ORIENTED_EDGE ( 'NONE', *, *, #308, .T. ) ;
#300 = PLANE ( 'NONE',  #13 ) ;
#301 = CARTESIAN_POINT ( 'NONE',  ( 4.299999999999998046, 0.5000000000000000000, -7.750000000000000000 ) ) ;
#302 = VECTOR ( 'NONE', #627, 1000.000000000000000 ) ;
#303 = CARTESIAN_POINT ( 'NONE',  ( 4.299999999999998046, 1.550000000000000266, -7.750000000000000000 ) ) ;
#304 = ORIENTED_EDGE ( 'NONE', *, *, #710, .T. ) ;
#305 = PLANE ( 'NONE',  #665 ) ;
#306 = CARTESIAN_POINT ( 'NONE',  ( 4.299999999999998046, 0.5000000000000000000, -7.750000000000000000 ) ) ;
#307 = APPROVAL ( #202, '未指定' ) ;
#308 = EDGE_CURVE ( 'NONE', #451, #905, #778, .T. ) ;
#309 = ORIENTED_EDGE ( 'NONE', *, *, #513, .T. ) ;
#310 = CARTESIAN_POINT ( 'NONE',  ( 10.37500000000000000, -5.000000000000000000, -7.750000000000000000 ) ) ;
#311 = ORIENTED_EDGE ( 'NONE', *, *, #293, .T. ) ;
#312 = VECTOR ( 'NONE', #239, 1000.000000000000000 ) ;
#313 = DIRECTION ( 'NONE',  ( -1.000000000000000000, 0.000000000000000000, -0.000000000000000000 ) ) ;
#314 = LINE ( 'NONE', #743, #549 ) ;
#315 = ORIENTED_EDGE ( 'NONE', *, *, #146, .F. ) ;
#316 = PLANE ( 'NONE',  #447 ) ;
#317 = EDGE_LOOP ( 'NONE', ( #483, #935, #610, #361 ) ) ;
#318 = FACE_OUTER_BOUND ( 'NONE', #754, .T. ) ;
#319 = DIRECTION ( 'NONE',  ( 0.000000000000000000, -1.000000000000000000, 0.000000000000000000 ) ) ;
#320 = ORIENTED_EDGE ( 'NONE', *, *, #801, .T. ) ;
#321 = DIRECTION ( 'NONE',  ( 0.000000000000000000, 0.000000000000000000, 1.000000000000000000 ) ) ;
#322 = EDGE_CURVE ( 'NONE', #67, #125, #705, .T. ) ;
#323 = ORIENTED_EDGE ( 'NONE', *, *, #325, .F. ) ;
#324 = LINE ( 'NONE', #106, #4 ) ;
#325 = EDGE_CURVE ( 'NONE', #675, #238, #848, .T. ) ;
#326 = CARTESIAN_POINT ( 'NONE',  ( 10.70000000000000107, 0.5000000000000000000, -7.750000000000000000 ) ) ;
#327 = VERTEX_POINT ( 'NONE', #854 ) ;
#328 = CARTESIAN_POINT ( 'NONE',  ( 3.365075759508249220, 1.050000000000000044, -7.750000000000000000 ) ) ;
#329 = ORIENTED_EDGE ( 'NONE', *, *, #735, .T. ) ;
#330 = VECTOR ( 'NONE', #389, 1000.000000000000000 ) ;
#331 = DIRECTION ( 'NONE',  ( 0.000000000000000000, 0.000000000000000000, 1.000000000000000000 ) ) ;
#332 = LINE ( 'NONE', #412, #302 ) ;
#333 = VERTEX_POINT ( 'NONE', #494 ) ;
#334 = FACE_OUTER_BOUND ( 'NONE', #797, .T. ) ;
#335 = LINE ( 'NONE', #454, #633 ) ;
#336 = VECTOR ( 'NONE', #17, 1000.000000000000000 ) ;
#337 = LINE ( 'NONE', #44, #724 ) ;
#338 = APPROVAL ( #277, '未指定' ) ;
#339 = ORIENTED_EDGE ( 'NONE', *, *, #133, .F. ) ;
#340 = CYLINDRICAL_SURFACE ( 'NONE', #352, 1.050000000000000488 ) ;
#341 = ADVANCED_FACE ( 'NONE', ( #781 ), #211, .T. ) ;
#342 = CALENDAR_DATE ( 2024, 20, 12 ) ;
#343 = DIRECTION ( 'NONE',  ( 0.000000000000000000, 0.000000000000000000, -1.000000000000000000 ) ) ;
#344 = AXIS2_PLACEMENT_3D ( 'NONE', #422, #198, #770 ) ;
#345 = ORIENTED_EDGE ( 'NONE', *, *, #89, .T. ) ;
#346 = AXIS2_PLACEMENT_3D ( 'NONE', #510, #821, #171 ) ;
#347 = SHAPE_DEFINITION_REPRESENTATION ( #149, #231 ) ;
#348 = CARTESIAN_POINT ( 'NONE',  ( 4.625000000000000000, 1.550000000000000266, -7.750000000000000000 ) ) ;
#349 = ORIENTED_EDGE ( 'NONE', *, *, #6, .T. ) ;
#350 = VECTOR ( 'NONE', #884, 1000.000000000000000 ) ;
#351 = PERSON_AND_ORGANIZATION ( #440, #858 ) ;
#352 = AXIS2_PLACEMENT_3D ( 'NONE', #402, #832, #266 ) ;
#353 = EDGE_CURVE ( 'NONE', #657, #238, #152, .T. ) ;
#354 = CARTESIAN_POINT ( 'NONE',  ( 0.000000000000000000, 0.000000000000000000, 0.000000000000000000 ) ) ;
#355 = VERTEX_POINT ( 'NONE', #436 ) ;
#356 = EDGE_CURVE ( 'NONE', #663, #783, #939, .T. ) ;
#357 = PERSON_AND_ORGANIZATION ( #440, #858 ) ;
#358 = CARTESIAN_POINT ( 'NONE',  ( 4.107537879754126209, 0.3075378797541269416, -7.750000000000000000 ) ) ;
#359 = CARTESIAN_POINT ( 'NONE',  ( 11.44246212024587628, 1.242462120245873880, -7.750000000000000000 ) ) ;
#360 = APPROVAL_PERSON_ORGANIZATION ( #357, #338, #859 ) ;
#361 = ORIENTED_EDGE ( 'NONE', *, *, #88, .T. ) ;
#362 = ADVANCED_FACE ( 'NONE', ( #147 ), #220, .F. ) ;
#363 = CARTESIAN_POINT ( 'NONE',  ( 10.37500000000000000, 1.550000000000000266, -7.750000000000000000 ) ) ;
#364 = ORIENTED_EDGE ( 'NONE', *, *, #617, .F. ) ;
#365 = PLANE ( 'NONE',  #135 ) ;
#366 = CARTESIAN_POINT ( 'NONE',  ( 3.057537879754123722, 0.7424621202458737690, -7.750000000000000000 ) ) ;
#367 = LINE ( 'NONE', #303, #689 ) ;
#368 = CIRCLE ( 'NONE', #897, 1.050000000000000488 ) ;
#369 = VERTEX_POINT ( 'NONE', #940 ) ;
#370 = CARTESIAN_POINT ( 'NONE',  ( 4.299999999999998046, 1.550000000000000266, -7.750000000000000000 ) ) ;
#371 = DIRECTION ( 'NONE',  ( -0.000000000000000000, -0.000000000000000000, 1.000000000000000000 ) ) ;
#372 = LINE ( 'NONE', #808, #744 ) ;
#373 = ORIENTED_EDGE ( 'NONE', *, *, #210, .T. ) ;
#374 = DIRECTION ( 'NONE',  ( -0.000000000000000000, -0.000000000000000000, 1.000000000000000000 ) ) ;
#375 = AXIS2_PLACEMENT_3D ( 'NONE', #622, #99, #26 ) ;
#376 = CARTESIAN_POINT ( 'NONE',  ( 4.107537879754126209, 0.3075378797541268860, -7.750000000000000000 ) ) ;
#377 = CLOSED_SHELL ( 'NONE', ( #833, #341, #822, #782, #852, #221 ) ) ;
#378 = EDGE_CURVE ( 'NONE', #613, #872, #728, .T. ) ;
#379 = CARTESIAN_POINT ( 'NONE',  ( 10.37500000000000000, 1.550000000000000266, -7.750000000000000000 ) ) ;
#380 = EDGE_LOOP ( 'NONE', ( #364, #168, #604, #599 ) ) ;
#381 = DIRECTION ( 'NONE',  ( 0.000000000000000000, 0.000000000000000000, 1.000000000000000000 ) ) ;
#382 = VERTEX_POINT ( 'NONE', #787 ) ;
#383 = CARTESIAN_POINT ( 'NONE',  ( 0.000000000000000000, 0.000000000000000000, -7.750000000000000000 ) ) ;
#384 = ORIENTED_EDGE ( 'NONE', *, *, #564, .F. ) ;
#385 = CARTESIAN_POINT ( 'NONE',  ( 10.37500000000000000, 0.4999999999999995559, -7.750000000000000000 ) ) ;
#386 = ORIENTED_EDGE ( 'NONE', *, *, #476, .T. ) ;
#387 = VECTOR ( 'NONE', #91, 1000.000000000000000 ) ;
#388 = DIRECTION ( 'NONE',  ( 1.000000000000000000, 0.000000000000000000, 0.000000000000000000 ) ) ;
#389 = DIRECTION ( 'NONE',  ( 1.000000000000000000, 0.000000000000000000, 0.000000000000000000 ) ) ;
#390 = SECURITY_CLASSIFICATION ( '', '', #641 ) ;
#391 = ORIENTED_EDGE ( 'NONE', *, *, #805, .T. ) ;
#392 = CARTESIAN_POINT ( 'NONE',  ( 4.299999999999998046, 1.550000000000000266, -7.750000000000000000 ) ) ;
#393 = ORIENTED_EDGE ( 'NONE', *, *, #564, .T. ) ;
#394 = EDGE_CURVE ( 'NONE', #86, #759, #723, .T. ) ;
#395 = VECTOR ( 'NONE', #93, 1000.000000000000000 ) ;
#396 = FACE_OUTER_BOUND ( 'NONE', #1, .T. ) ;
#397 = FACE_OUTER_BOUND ( 'NONE', #893, .T. ) ;
#398 = ORIENTED_EDGE ( 'NONE', *, *, #772, .T. ) ;
#399 = DIRECTION ( 'NONE',  ( 0.000000000000000000, -0.000000000000000000, -1.000000000000000000 ) ) ;
#400 = ORIENTED_EDGE ( 'NONE', *, *, #734, .F. ) ;
#401 = DIRECTION ( 'NONE',  ( 0.7071067811865465735, -0.7071067811865483499, 0.000000000000000000 ) ) ;
#402 = CARTESIAN_POINT ( 'NONE',  ( 11.63492424049175078, 1.050000000000000044, -7.750000000000000000 ) ) ;
#403 = ORIENTED_EDGE ( 'NONE', *, *, #710, .F. ) ;
#404 =( LENGTH_UNIT ( ) NAMED_UNIT ( * ) SI_UNIT ( .MILLI., .METRE. ) );
#405 = EDGE_LOOP ( 'NONE', ( #386, #684, #487, #523 ) ) ;
#406 = FACE_OUTER_BOUND ( 'NONE', #405, .T. ) ;
#407 = FACE_OUTER_BOUND ( 'NONE', #43, .T. ) ;
#408 = EDGE_CURVE ( 'NONE', #680, #829, #368, .T. ) ;
#409 = PLANE ( 'NONE',  #751 ) ;
#410 = EDGE_CURVE ( 'NONE', #245, #243, #74, .T. ) ;
#411 = LOCAL_TIME ( 16, 31, 20.00000000000000000, #59 ) ;
#412 = CARTESIAN_POINT ( 'NONE',  ( 4.625000000000000000, 0.5000000000000000000, -7.750000000000000000 ) ) ;
#413 = ADVANCED_FACE ( 'NONE', ( #571 ), #443, .T. ) ;
#414 = FACE_OUTER_BOUND ( 'NONE', #174, .T. ) ;
#415 = DIRECTION ( 'NONE',  ( -1.000000000000000000, 0.000000000000000000, 0.000000000000000000 ) ) ;
#416 = ORIENTED_EDGE ( 'NONE', *, *, #143, .T. ) ;
#417 = DATE_AND_TIME ( #272, #481 ) ;
#418 = LINE ( 'NONE', #702, #169 ) ;
#419 = VECTOR ( 'NONE', #204, 1000.000000000000000 ) ;
#420 = DIRECTION ( 'NONE',  ( -0.000000000000000000, -1.000000000000000000, -0.000000000000000000 ) ) ;
#421 = AXIS2_PLACEMENT_3D ( 'NONE', #514, #792, #141 ) ;
#422 = CARTESIAN_POINT ( 'NONE',  ( 10.69999999999999929, 0.4999999999999997780, -7.750000000000000000 ) ) ;
#423 = EDGE_CURVE ( 'NONE', #355, #491, #936, .T. ) ;
#424 = VERTEX_POINT ( 'NONE', #292 ) ;
#425 = AXIS2_PLACEMENT_3D ( 'NONE', #925, #785, #287 ) ;
#426 = LINE ( 'NONE', #486, #497 ) ;
#427 = DIRECTION ( 'NONE',  ( 0.000000000000000000, 1.000000000000000000, 0.000000000000000000 ) ) ;
#428 = ADVANCED_FACE ( 'NONE', ( #585 ), #214, .F. ) ;
#429 = VECTOR ( 'NONE', #811, 1000.000000000000000 ) ;
#430 = DIRECTION ( 'NONE',  ( 0.000000000000000000, 0.000000000000000000, 1.000000000000000000 ) ) ;
#431 = ORIENTED_EDGE ( 'NONE', *, *, #284, .F. ) ;
#432 = CARTESIAN_POINT ( 'NONE',  ( 10.70000000000000107, 0.5000000000000000000, -7.750000000000000000 ) ) ;
#433 = CARTESIAN_POINT ( 'NONE',  ( 10.69999999999999929, 0.4999999999999997780, 0.000000000000000000 ) ) ;
#434 = ORIENTED_EDGE ( 'NONE', *, *, #767, .F. ) ;
#435 = LINE ( 'NONE', #722, #219 ) ;
#436 = CARTESIAN_POINT ( 'NONE',  ( 4.625000000000000000, 1.550000000000000266, -7.750000000000000000 ) ) ;
#437 = CARTESIAN_POINT ( 'NONE',  ( 10.37500000000000000, 0.5000000000000000000, -7.750000000000000000 ) ) ;
#438 = AXIS2_PLACEMENT_3D ( 'NONE', #114, #262, #183 ) ;
#439 = EDGE_CURVE ( 'NONE', #52, #327, #865, .T. ) ;
#440 = PERSON ( '未指定', '未指定', '未指定', ('未指定'), ('未指定'), ('未指定') ) ;
#441 = EDGE_LOOP ( 'NONE', ( #228, #529, #34, #98 ) ) ;
#442 = DIRECTION ( 'NONE',  ( 0.000000000000000000, -0.000000000000000000, -1.000000000000000000 ) ) ;
#443 = PLANE ( 'NONE',  #73 ) ;
#444 = DIRECTION ( 'NONE',  ( 0.000000000000000000, -0.000000000000000000, -1.000000000000000000 ) ) ;
#445 = ORIENTED_EDGE ( 'NONE', *, *, #911, .T. ) ;
#446 = CARTESIAN_POINT ( 'NONE',  ( 4.625000000000000000, 0.4999999999999995559, -7.750000000000000000 ) ) ;
#447 = AXIS2_PLACEMENT_3D ( 'NONE', #900, #250, #600 ) ;
#448 = ORIENTED_EDGE ( 'NONE', *, *, #356, .T. ) ;
#449 = CARTESIAN_POINT ( 'NONE',  ( 0.000000000000000000, 0.000000000000000000, -7.750000000000000000 ) ) ;
#450 = ORIENTED_EDGE ( 'NONE', *, *, #89, .F. ) ;
#451 = VERTEX_POINT ( 'NONE', #226 ) ;
#452 = CARTESIAN_POINT ( 'NONE',  ( 0.000000000000000000, 0.000000000000000000, 0.000000000000000000 ) ) ;
#453 = ORIENTED_EDGE ( 'NONE', *, *, #525, .F. ) ;
#454 = CARTESIAN_POINT ( 'NONE',  ( 10.69999999999999929, 1.550000000000000266, -7.750000000000000000 ) ) ;
#455 = CARTESIAN_POINT ( 'NONE',  ( 4.625000000000000000, 0.4999999999999995559, 0.000000000000000000 ) ) ;
#456 = EDGE_CURVE ( 'NONE', #491, #582, #3, .T. ) ;
#457 = CIRCLE ( 'NONE', #344, 1.050000000000000488 ) ;
#458 = ORIENTED_EDGE ( 'NONE', *, *, #353, .F. ) ;
#459 = LINE ( 'NONE', #746, #118 ) ;
#460 = ORIENTED_EDGE ( 'NONE', *, *, #322, .F. ) ;
#461 = VECTOR ( 'NONE', #725, 1000.000000000000000 ) ;
#462 = DIRECTION ( 'NONE',  ( 0.000000000000000000, 0.000000000000000000, -1.000000000000000000 ) ) ;
#463 = DIRECTION ( 'NONE',  ( 0.000000000000000000, -0.000000000000000000, -1.000000000000000000 ) ) ;
#464 = ORIENTED_EDGE ( 'NONE', *, *, #163, .F. ) ;
#465 = DIRECTION ( 'NONE',  ( 0.000000000000000000, -1.000000000000000000, 0.000000000000000000 ) ) ;
#466 = ORIENTED_EDGE ( 'NONE', *, *, #923, .T. ) ;
#467 = CARTESIAN_POINT ( 'NONE',  ( 3.799999999999999822, 0.000000000000000000, -7.750000000000000000 ) ) ;
#468 = CIRCLE ( 'NONE', #55, 1.050000000000000488 ) ;
#469 = PLANE ( 'NONE',  #153 ) ;
#470 = ORIENTED_EDGE ( 'NONE', *, *, #356, .F. ) ;
#471 = LINE ( 'NONE', #625, #566 ) ;
#472 = EDGE_LOOP ( 'NONE', ( #28, #460, #16, #683 ) ) ;
#473 = CARTESIAN_POINT ( 'NONE',  ( 10.37500000000000000, 1.550000000000000266, -7.750000000000000000 ) ) ;
#474 = DIRECTION ( 'NONE',  ( -0.000000000000000000, 1.000000000000000000, -0.000000000000000000 ) ) ;
#475 = PLANE ( 'NONE',  #66 ) ;
#476 = EDGE_CURVE ( 'NONE', #333, #199, #332, .T. ) ;
#477 = VECTOR ( 'NONE', #651, 1000.000000000000000 ) ;
#478 = LINE ( 'NONE', #467, #225 ) ;
#479 = FACE_OUTER_BOUND ( 'NONE', #828, .T. ) ;
#480 = DIRECTION ( 'NONE',  ( 0.000000000000000000, -1.000000000000000000, 0.000000000000000000 ) ) ;
#481 = LOCAL_TIME ( 16, 31, 20.00000000000000000, #122 ) ;
#482 = CARTESIAN_POINT ( 'NONE',  ( 10.37500000000000000, 0.000000000000000000, 0.000000000000000000 ) ) ;
#483 = ORIENTED_EDGE ( 'NONE', *, *, #456, .F. ) ;
#484 = VECTOR ( 'NONE', #167, 1000.000000000000000 ) ;
#485 = PERSON_AND_ORGANIZATION_ROLE ( 'creator' ) ;
#486 = CARTESIAN_POINT ( 'NONE',  ( 0.000000000000000000, 0.000000000000000000, -7.750000000000000000 ) ) ;
#487 = ORIENTED_EDGE ( 'NONE', *, *, #308, .F. ) ;
#488 = APPLICATION_PROTOCOL_DEFINITION ( 'international standard', 'config_control_design', 1994, #841 ) ;
#489 = EDGE_CURVE ( 'NONE', #333, #451, #117, .T. ) ;
#490 = FACE_OUTER_BOUND ( 'NONE', #533, .T. ) ;
#491 = VERTEX_POINT ( 'NONE', #898 ) ;
#492 = VECTOR ( 'NONE', #720, 1000.000000000000000 ) ;
#493 = APPROVAL_ROLE ( '' ) ;
#494 = CARTESIAN_POINT ( 'NONE',  ( 4.625000000000000000, 0.4999999999999995559, 3.697785493223492838E-29 ) ) ;
#495 = VERTEX_POINT ( 'NONE', #758 ) ;
#496 = AXIS2_PLACEMENT_3D ( 'NONE', #267, #258, #906 ) ;
#497 = VECTOR ( 'NONE', #628, 1000.000000000000000 ) ;
#498 = DIRECTION ( 'NONE',  ( -0.7071067811865484609, -0.7071067811865466846, 0.000000000000000000 ) ) ;
#499 = PERSON_AND_ORGANIZATION ( #440, #858 ) ;
#500 = DIRECTION ( 'NONE',  ( 0.000000000000000000, -0.000000000000000000, -1.000000000000000000 ) ) ;
#501 = EDGE_CURVE ( 'NONE', #637, #699, #468, .T. ) ;
#502 = VECTOR ( 'NONE', #229, 1000.000000000000000 ) ;
#503 = EDGE_LOOP ( 'NONE', ( #18, #688, #538, #64 ) ) ;
#504 = LINE ( 'NONE', #161, #312 ) ;
#505 = DIRECTION ( 'NONE',  ( -0.000000000000000000, 0.000000000000000000, -1.000000000000000000 ) ) ;
#506 = AXIS2_PLACEMENT_3D ( 'NONE', #112, #331, #265 ) ;
#507 = ORIENTED_EDGE ( 'NONE', *, *, #734, .T. ) ;
#508 = DIRECTION ( 'NONE',  ( 0.000000000000000000, 0.000000000000000000, 1.000000000000000000 ) ) ;
#509 = CARTESIAN_POINT ( 'NONE',  ( 3.057537879754123722, 0.7424621202458737690, 0.000000000000000000 ) ) ;
#510 = CARTESIAN_POINT ( 'NONE',  ( 4.299999999999998046, 0.5000000000000000000, -7.750000000000000000 ) ) ;
#511 = ORIENTED_EDGE ( 'NONE', *, *, #640, .T. ) ;
#512 = LINE ( 'NONE', #310, #271 ) ;
#513 = EDGE_CURVE ( 'NONE', #675, #637, #39, .T. ) ;
#514 = CARTESIAN_POINT ( 'NONE',  ( 4.625000000000000000, 1.550000000000000266, -7.750000000000000000 ) ) ;
#515 = CARTESIAN_POINT ( 'NONE',  ( 11.63492424049175078, 0.000000000000000000, 0.000000000000000000 ) ) ;
#516 = ORIENTED_EDGE ( 'NONE', *, *, #394, .T. ) ;
#517 = CARTESIAN_POINT ( 'NONE',  ( 3.365075759508248776, 0.000000000000000000, 0.000000000000000000 ) ) ;
#518 = APPROVAL_PERSON_ORGANIZATION ( #499, #105, #635 ) ;
#519 = CARTESIAN_POINT ( 'NONE',  ( 3.365075759508249664, 0.000000000000000000, -7.750000000000000000 ) ) ;
#520 = ORIENTED_EDGE ( 'NONE', *, *, #286, .F. ) ;
#521 = LINE ( 'NONE', #938, #502 ) ;
#522 = CC_DESIGN_APPROVAL ( #338, ( #58 ) ) ;
#523 = ORIENTED_EDGE ( 'NONE', *, *, #489, .F. ) ;
#524 = CARTESIAN_POINT ( 'NONE',  ( 4.625000000000000000, 0.4999999999999995559, -7.750000000000000000 ) ) ;
#525 = EDGE_CURVE ( 'NONE', #327, #663, #176, .T. ) ;
#526 = FACE_OUTER_BOUND ( 'NONE', #771, .T. ) ;
#527 = EDGE_LOOP ( 'NONE', ( #470, #453, #102, #259 ) ) ;
#528 = DIRECTION ( 'NONE',  ( 0.000000000000000000, 0.000000000000000000, -1.000000000000000000 ) ) ;
#529 = ORIENTED_EDGE ( 'NONE', *, *, #513, .F. ) ;
#530 = LINE ( 'NONE', #185, #395 ) ;
#531 = PLANE ( 'NONE',  #346 ) ;
#532 = VECTOR ( 'NONE', #297, 1000.000000000000000 ) ;
#533 = EDGE_LOOP ( 'NONE', ( #740, #507, #883, #90 ) ) ;
#534 = CARTESIAN_POINT ( 'NONE',  ( 10.37500000000000000, 1.550000000000000266, 0.000000000000000000 ) ) ;
#535 = ORIENTED_EDGE ( 'NONE', *, *, #772, .F. ) ;
#536 = CYLINDRICAL_SURFACE ( 'NONE', #101, 1.050000000000000488 ) ;
#537 = CARTESIAN_POINT ( 'NONE',  ( 4.625000000000000000, -5.000000000000000000, -7.750000000000000000 ) ) ;
#538 = ORIENTED_EDGE ( 'NONE', *, *, #719, .F. ) ;
#539 = ORIENTED_EDGE ( 'NONE', *, *, #123, .T. ) ;
#540 = VECTOR ( 'NONE', #427, 1000.000000000000000 ) ;
#541 = CARTESIAN_POINT ( 'NONE',  ( 10.70000000000000107, 0.5000000000000000000, 0.000000000000000000 ) ) ;
#542 = DIRECTION ( 'NONE',  ( -0.000000000000000000, -0.000000000000000000, -1.000000000000000000 ) ) ;
#543 = ADVANCED_FACE ( 'NONE', ( #763 ), #340, .T. ) ;
#544 = CARTESIAN_POINT ( 'NONE',  ( 0.000000000000000000, 0.000000000000000000, -7.750000000000000000 ) ) ;
#545 = EDGE_CURVE ( 'NONE', #199, #905, #687, .T. ) ;
#546 = DIRECTION ( 'NONE',  ( 1.000000000000000000, 0.000000000000000000, 0.000000000000000000 ) ) ;
#547 = DIRECTION ( 'NONE',  ( -0.7071067811865484609, -0.7071067811865466846, 0.000000000000000000 ) ) ;
#548 = LINE ( 'NONE', #103, #484 ) ;
#549 = VECTOR ( 'NONE', #85, 1000.000000000000000 ) ;
#550 = ORIENTED_EDGE ( 'NONE', *, *, #410, .F. ) ;
#551 = DIRECTION ( 'NONE',  ( -1.000000000000000000, 0.000000000000000000, -0.000000000000000000 ) ) ;
#552 = CARTESIAN_POINT ( 'NONE',  ( 0.000000000000000000, 0.000000000000000000, 0.000000000000000000 ) ) ;
#553 = PLANE ( 'NONE',  #701 ) ;
#554 = ORIENTED_EDGE ( 'NONE', *, *, #525, .T. ) ;
#555 = EDGE_CURVE ( 'NONE', #699, #172, #32, .T. ) ;
#556 = PERSON_AND_ORGANIZATION_ROLE ( 'design_owner' ) ;
#557 = DIRECTION ( 'NONE',  ( 0.000000000000000000, 0.000000000000000000, 1.000000000000000000 ) ) ;
#558 = CARTESIAN_POINT ( 'NONE',  ( 15.00000000000000000, 1.050000000000000044, -7.750000000000000000 ) ) ;
#559 = DATE_AND_TIME ( #786, #190 ) ;
#560 = CARTESIAN_POINT ( 'NONE',  ( 11.19999999999999929, 0.000000000000000000, 0.000000000000000000 ) ) ;
#561 = CYLINDRICAL_SURFACE ( 'NONE', #506, 1.050000000000000488 ) ;
#562 = VECTOR ( 'NONE', #616, 1000.000000000000000 ) ;
#563 = PERSON_AND_ORGANIZATION ( #440, #858 ) ;
#564 = EDGE_CURVE ( 'NONE', #737, #424, #337, .T. ) ;
#565 = CARTESIAN_POINT ( 'NONE',  ( 3.365075759508249664, 1.050000000000000044, -7.750000000000000000 ) ) ;
#566 = VECTOR ( 'NONE', #605, 1000.000000000000000 ) ;
#567 = APPLICATION_PROTOCOL_DEFINITION ( 'international standard', 'config_control_design', 1994, #137 ) ;
#568 = ADVANCED_FACE ( 'NONE', ( #397 ), #903, .F. ) ;
#569 = PRODUCT_RELATED_PRODUCT_CATEGORY ( 'detail', '', ( #142 ) ) ;
#570 = ADVANCED_FACE ( 'NONE', ( #407 ), #624, .T. ) ;
#571 = FACE_OUTER_BOUND ( 'NONE', #793, .T. ) ;
#572 = ORIENTED_EDGE ( 'NONE', *, *, #686, .T. ) ;
#573 = DIRECTION ( 'NONE',  ( 0.000000000000000000, 0.000000000000000000, -1.000000000000000000 ) ) ;
#574 = CARTESIAN_POINT ( 'NONE',  ( 4.625000000000000000, 1.550000000000000266, -7.750000000000000000 ) ) ;
#575 = CIRCLE ( 'NONE', #48, 1.050000000000000044 ) ;
#576 = VERTEX_POINT ( 'NONE', #835 ) ;
#577 = CARTESIAN_POINT ( 'NONE',  ( 11.63492424049174900, 1.050000000000000044, -7.750000000000000000 ) ) ;
#578 = DIRECTION ( 'NONE',  ( 0.7071067811865463515, 0.7071067811865487940, 0.000000000000000000 ) ) ;
#579 = ADVANCED_FACE ( 'NONE', ( #479 ), #827, .T. ) ;
#580 = CARTESIAN_POINT ( 'NONE',  ( 10.89246212024587379, 0.3075378797541261644, -7.750000000000000000 ) ) ;
#581 = ADVANCED_FACE ( 'NONE', ( #843 ), #469, .T. ) ;
#582 = VERTEX_POINT ( 'NONE', #455 ) ;
#583 = VECTOR ( 'NONE', #578, 1000.000000000000000 ) ;
#584 = LINE ( 'NONE', #592, #60 ) ;
#585 = FACE_OUTER_BOUND ( 'NONE', #155, .T. ) ;
#586 = LINE ( 'NONE', #885, #330 ) ;
#587 = VERTEX_POINT ( 'NONE', #5 ) ;
#588 = LINE ( 'NONE', #296, #837 ) ;
#589 = CARTESIAN_POINT ( 'NONE',  ( 3.799999999999999822, 0.000000000000000000, 0.000000000000000000 ) ) ;
#590 = VECTOR ( 'NONE', #298, 1000.000000000000000 ) ;
#591 = EDGE_LOOP ( 'NONE', ( #400, #109, #516, #311 ) ) ;
#592 = CARTESIAN_POINT ( 'NONE',  ( 10.70000000000000107, 0.5000000000000000000, -7.750000000000000000 ) ) ;
#593 = ORIENTED_EDGE ( 'NONE', *, *, #113, .F. ) ;
#594 = EDGE_CURVE ( 'NONE', #783, #905, #367, .T. ) ;
#595 = EDGE_CURVE ( 'NONE', #125, #491, #95, .T. ) ;
#596 = CARTESIAN_POINT ( 'NONE',  ( 10.70000000000000107, 0.5000000000000000000, -7.750000000000000000 ) ) ;
#597 = CC_DESIGN_APPROVAL ( #307, ( #390 ) ) ;
#598 = LINE ( 'NONE', #236, #477 ) ;
#599 = ORIENTED_EDGE ( 'NONE', *, *, #322, .T. ) ;
#600 = DIRECTION ( 'NONE',  ( 0.000000000000000000, -0.000000000000000000, -1.000000000000000000 ) ) ;
#601 = ORIENTED_EDGE ( 'NONE', *, *, #143, .F. ) ;
#602 = DIRECTION ( 'NONE',  ( 0.7071067811865463515, 0.7071067811865487940, 0.000000000000000000 ) ) ;
#603 = PLANE ( 'NONE',  #853 ) ;
#604 = ORIENTED_EDGE ( 'NONE', *, *, #756, .T. ) ;
#605 = DIRECTION ( 'NONE',  ( 0.000000000000000000, -1.000000000000000000, 0.000000000000000000 ) ) ;
#606 = ORIENTED_EDGE ( 'NONE', *, *, #163, .T. ) ;
#607 = DIRECTION ( 'NONE',  ( -1.000000000000000000, 0.000000000000000000, 0.000000000000000000 ) ) ;
#608 = DIRECTION ( 'NONE',  ( 1.000000000000000000, 0.000000000000000000, 0.000000000000000000 ) ) ;
#609 = VECTOR ( 'NONE', #136, 1000.000000000000000 ) ;
#610 = ORIENTED_EDGE ( 'NONE', *, *, #767, .T. ) ;
#611 = AXIS2_PLACEMENT_3D ( 'NONE', #22, #880, #463 ) ;
#612 = FACE_OUTER_BOUND ( 'NONE', #668, .T. ) ;
#613 = VERTEX_POINT ( 'NONE', #379 ) ;
#614 = ADVANCED_FACE ( 'NONE', ( #526 ), #83, .F. ) ;
#615 = LINE ( 'NONE', #902, #621 ) ;
#616 = DIRECTION ( 'NONE',  ( 0.000000000000000000, 0.000000000000000000, 1.000000000000000000 ) ) ;
#617 = EDGE_CURVE ( 'NONE', #382, #125, #248, .T. ) ;
#618 = EDGE_CURVE ( 'NONE', #36, #745, #586, .T. ) ;
#619 = ORIENTED_EDGE ( 'NONE', *, *, #123, .F. ) ;
#620 = CYLINDRICAL_SURFACE ( 'NONE', #496, 1.050000000000000044 ) ;
#621 = VECTOR ( 'NONE', #260, 1000.000000000000000 ) ;
#622 = CARTESIAN_POINT ( 'NONE',  ( 11.19999999999999929, 1.050000000000000044, -7.750000000000000000 ) ) ;
#623 = CLOSED_SHELL ( 'NONE', ( #177, #934, #581, #639, #931, #428, #76, #909, #568, #614, #682, #38 ) ) ;
#624 = PLANE ( 'NONE',  #75 ) ;
#625 = CARTESIAN_POINT ( 'NONE',  ( 15.00000000000000000, 1.050000000000000044, -7.750000000000000000 ) ) ;
#626 = ORIENTED_EDGE ( 'NONE', *, *, #62, .F. ) ;
#627 = DIRECTION ( 'NONE',  ( 0.000000000000000000, 0.000000000000000000, -1.000000000000000000 ) ) ;
#628 = DIRECTION ( 'NONE',  ( 0.000000000000000000, 0.000000000000000000, 1.000000000000000000 ) ) ;
#629 = VECTOR ( 'NONE', #145, 1000.000000000000000 ) ;
#630 = VERTEX_POINT ( 'NONE', #449 ) ;
#631 = DIRECTION ( 'NONE',  ( 1.000000000000000000, 0.000000000000000000, 0.000000000000000000 ) ) ;
#632 = LINE ( 'NONE', #558, #731 ) ;
#633 = VECTOR ( 'NONE', #21, 1000.000000000000000 ) ;
#634 = VECTOR ( 'NONE', #679, 1000.000000000000000 ) ;
#635 = APPROVAL_ROLE ( '' ) ;
#636 = CARTESIAN_POINT ( 'NONE',  ( 15.00000000000000000, 0.000000000000000000, 0.000000000000000000 ) ) ;
#637 = VERTEX_POINT ( 'NONE', #941 ) ;
#638 = FACE_OUTER_BOUND ( 'NONE', #738, .T. ) ;
#639 = ADVANCED_FACE ( 'NONE', ( #165 ), #603, .F. ) ;
#640 = EDGE_CURVE ( 'NONE', #172, #675, #915, .T. ) ;
#641 = SECURITY_CLASSIFICATION_LEVEL ( 'unclassified' ) ;
#642 = LINE ( 'NONE', #839, #540 ) ;
#643 = AXIS2_PLACEMENT_3D ( 'NONE', #188, #764, #824 ) ;
#644 = EDGE_LOOP ( 'NONE', ( #323, #309, #803, #128 ) ) ;
#645 = CARTESIAN_POINT ( 'NONE',  ( 10.37500000000000000, -5.000000000000000000, -7.750000000000000000 ) ) ;
#646 = ORIENTED_EDGE ( 'NONE', *, *, #891, .T. ) ;
#647 = DIRECTION ( 'NONE',  ( -1.000000000000000000, 0.000000000000000000, 0.000000000000000000 ) ) ;
#648 = DIRECTION ( 'NONE',  ( 0.000000000000000000, -1.000000000000000000, 0.000000000000000000 ) ) ;
#649 = EDGE_CURVE ( 'NONE', #245, #576, #655, .T. ) ;
#650 = AXIS2_PLACEMENT_3D ( 'NONE', #645, #800, #505 ) ;
#651 = DIRECTION ( 'NONE',  ( 0.000000000000000000, -1.000000000000000000, 0.000000000000000000 ) ) ;
#652 = ORIENTED_EDGE ( 'NONE', *, *, #923, .F. ) ;
#653 = DIRECTION ( 'NONE',  ( 1.000000000000000000, 0.000000000000000000, 0.000000000000000000 ) ) ;
#654 = DIRECTION ( 'NONE',  ( -1.000000000000000000, -2.684691093773628600E-15, 0.000000000000000000 ) ) ;
#655 = LINE ( 'NONE', #589, #49 ) ;
#656 = AXIS2_PLACEMENT_3D ( 'NONE', #289, #50, #698 ) ;
#657 = VERTEX_POINT ( 'NONE', #232 ) ;
#658 = LINE ( 'NONE', #11, #866 ) ;
#659 = DIRECTION ( 'NONE',  ( 1.000000000000000000, 0.000000000000000000, 0.000000000000000000 ) ) ;
#660 = CC_DESIGN_PERSON_AND_ORGANIZATION_ASSIGNMENT ( #563, #485, ( #58 ) ) ;
#661 = ORIENTED_EDGE ( 'NONE', *, *, #649, .F. ) ;
#662 = FACE_OUTER_BOUND ( 'NONE', #71, .T. ) ;
#663 = VERTEX_POINT ( 'NONE', #148 ) ;
#664 = DIRECTION ( 'NONE',  ( 0.000000000000000000, 0.000000000000000000, -1.000000000000000000 ) ) ;
#665 = AXIS2_PLACEMENT_3D ( 'NONE', #739, #151, #727 ) ;
#666 = ORIENTED_EDGE ( 'NONE', *, *, #891, .F. ) ;
#667 = DIRECTION ( 'NONE',  ( 1.000000000000000000, 0.000000000000000000, 0.000000000000000000 ) ) ;
#668 = EDGE_LOOP ( 'NONE', ( #520, #550, #108, #790 ) ) ;
#669 = CARTESIAN_POINT ( 'NONE',  ( 3.365075759508249220, 1.050000000000000044, 0.000000000000000000 ) ) ;
#670 = EDGE_LOOP ( 'NONE', ( #661, #96, #223, #761 ) ) ;
#671 = LOCAL_TIME ( 16, 31, 20.00000000000000000, #704 ) ;
#672 = CARTESIAN_POINT ( 'NONE',  ( 11.44246212024587628, 1.242462120245874102, 0.000000000000000000 ) ) ;
#673 = DESIGN_CONTEXT ( 'detailed design', #137, 'design' ) ;
#674 = AXIS2_PLACEMENT_3D ( 'NONE', #896, #462, #313 ) ;
#675 = VERTEX_POINT ( 'NONE', #515 ) ;
#676 = DIRECTION ( 'NONE',  ( 1.000000000000000000, 0.000000000000000000, 0.000000000000000000 ) ) ;
#677 = ORIENTED_EDGE ( 'NONE', *, *, #555, .T. ) ;
#678 = FACE_OUTER_BOUND ( 'NONE', #527, .T. ) ;
#679 = DIRECTION ( 'NONE',  ( -0.000000000000000000, -0.000000000000000000, -1.000000000000000000 ) ) ;
#680 = VERTEX_POINT ( 'NONE', #672 ) ;
#681 = LINE ( 'NONE', #328, #933 ) ;
#682 = ADVANCED_FACE ( 'NONE', ( #154 ), #531, .T. ) ;
#683 = ORIENTED_EDGE ( 'NONE', *, *, #423, .T. ) ;
#684 = ORIENTED_EDGE ( 'NONE', *, *, #545, .T. ) ;
#685 = CARTESIAN_POINT ( 'NONE',  ( 0.000000000000000000, 0.000000000000000000, -7.750000000000000000 ) ) ;
#686 = EDGE_CURVE ( 'NONE', #745, #238, #598, .T. ) ;
#687 = LINE ( 'NONE', #537, #755 ) ;
#688 = ORIENTED_EDGE ( 'NONE', *, *, #911, .F. ) ;
#689 = VECTOR ( 'NONE', #730, 1000.000000000000000 ) ;
#690 = ORIENTED_EDGE ( 'NONE', *, *, #489, .T. ) ;
#691 = CARTESIAN_POINT ( 'NONE',  ( 4.625000000000000000, 0.4999999999999995559, -7.750000000000000000 ) ) ;
#692 = CARTESIAN_POINT ( 'NONE',  ( 0.000000000000000000, 0.000000000000000000, -7.750000000000000000 ) ) ;
#693 = PLANE ( 'NONE',  #643 ) ;
#694 = CARTESIAN_POINT ( 'NONE',  ( 0.000000000000000000, 1.050000000000000044, 0.000000000000000000 ) ) ;
#695 = CARTESIAN_POINT ( 'NONE',  ( 11.63492424049175078, 0.000000000000000000, -7.750000000000000000 ) ) ;
#696 = DATE_TIME_ROLE ( 'creation_date' ) ;
#697 = EDGE_CURVE ( 'NONE', #290, #747, #9, .T. ) ;
#698 = DIRECTION ( 'NONE',  ( 0.7071067811865462405, 0.7071067811865489050, 0.000000000000000000 ) ) ;
#699 = VERTEX_POINT ( 'NONE', #580 ) ;
#700 = APPROVAL_DATE_TIME ( #417, #307 ) ;
#701 = AXIS2_PLACEMENT_3D ( 'NONE', #359, #498, #281 ) ;
#702 = CARTESIAN_POINT ( 'NONE',  ( 10.37500000000000000, 0.4999999999999995559, -7.750000000000000000 ) ) ;
#703 = ORIENTED_EDGE ( 'NONE', *, *, #850, .T. ) ;
#704 = COORDINATED_UNIVERSAL_TIME_OFFSET ( 8, 0, .AHEAD. ) ;
#705 = LINE ( 'NONE', #54, #820 ) ;
#706 = CC_DESIGN_PERSON_AND_ORGANIZATION_ASSIGNMENT ( #351, #856, ( #274 ) ) ;
#707 = ORIENTED_EDGE ( 'NONE', *, *, #545, .F. ) ;
#708 = VECTOR ( 'NONE', #420, 1000.000000000000000 ) ;
#709 = PERSON_AND_ORGANIZATION ( #440, #858 ) ;
#710 = EDGE_CURVE ( 'NONE', #495, #587, #227, .T. ) ;
#711 = CARTESIAN_POINT ( 'NONE',  ( 4.625000000000000000, 0.4999999999999995559, -7.750000000000000000 ) ) ;
#712 = APPROVAL_DATE_TIME ( #53, #105 ) ;
#713 = FACE_OUTER_BOUND ( 'NONE', #670, .T. ) ;
#714 = AXIS2_PLACEMENT_3D ( 'NONE', #892, #87, #749 ) ;
#715 = ORIENTED_EDGE ( 'NONE', *, *, #750, .T. ) ;
#716 = DIRECTION ( 'NONE',  ( 0.7071067811865487940, -0.7071067811865463515, 0.000000000000000000 ) ) ;
#717 = ORIENTED_EDGE ( 'NONE', *, *, #756, .F. ) ;
#718 = CARTESIAN_POINT ( 'NONE',  ( 4.299999999999998046, 1.550000000000000266, -7.750000000000000000 ) ) ;
#719 = EDGE_CURVE ( 'NONE', #104, #576, #802, .T. ) ;
#720 = DIRECTION ( 'NONE',  ( -0.000000000000000000, -0.000000000000000000, -1.000000000000000000 ) ) ;
#721 = ORIENTED_EDGE ( 'NONE', *, *, #861, .T. ) ;
#722 = CARTESIAN_POINT ( 'NONE',  ( 4.299999999999998046, 1.550000000000000266, 0.000000000000000000 ) ) ;
#723 = LINE ( 'NONE', #230, #532 ) ;
#724 = VECTOR ( 'NONE', #608, 1000.000000000000000 ) ;
#725 = DIRECTION ( 'NONE',  ( 0.000000000000000000, 0.000000000000000000, 1.000000000000000000 ) ) ;
#726 = ORIENTED_EDGE ( 'NONE', *, *, #805, .F. ) ;
#727 = DIRECTION ( 'NONE',  ( 0.000000000000000000, 0.000000000000000000, 1.000000000000000000 ) ) ;
#728 = LINE ( 'NONE', #363, #252 ) ;
#729 = EDGE_CURVE ( 'NONE', #587, #899, #372, .T. ) ;
#730 = DIRECTION ( 'NONE',  ( 1.000000000000000000, 0.000000000000000000, 0.000000000000000000 ) ) ;
#731 = VECTOR ( 'NONE', #279, 1000.000000000000000 ) ;
#732 = VERTEX_POINT ( 'NONE', #14 ) ;
#733 = DIRECTION ( 'NONE',  ( 0.000000000000000000, -1.000000000000000000, 0.000000000000000000 ) ) ;
#734 = EDGE_CURVE ( 'NONE', #582, #382, #314, .T. ) ;
#735 = EDGE_CURVE ( 'NONE', #30, #699, #584, .T. ) ;
#736 = DIRECTION ( 'NONE',  ( -1.000000000000000000, -0.000000000000000000, -0.000000000000000000 ) ) ;
#737 = VERTEX_POINT ( 'NONE', #577 ) ;
#738 = EDGE_LOOP ( 'NONE', ( #339, #391, #247, #535 ) ) ;
#739 = CARTESIAN_POINT ( 'NONE',  ( 15.00000000000000000, 1.050000000000000044, -7.750000000000000000 ) ) ;
#740 = ORIENTED_EDGE ( 'NONE', *, *, #456, .T. ) ;
#741 = DIRECTION ( 'NONE',  ( 0.7071067811865465735, -0.7071067811865483499, 0.000000000000000000 ) ) ;
#742 = VECTOR ( 'NONE', #124, 1000.000000000000114 ) ;
#743 = CARTESIAN_POINT ( 'NONE',  ( 4.625000000000000000, 0.4999999999999995559, 0.000000000000000000 ) ) ;
#744 = VECTOR ( 'NONE', #159, 1000.000000000000000 ) ;
#745 = VERTEX_POINT ( 'NONE', #882 ) ;
#746 = CARTESIAN_POINT ( 'NONE',  ( 4.299999999999998046, 0.5000000000000000000, 0.000000000000000000 ) ) ;
#747 = VERTEX_POINT ( 'NONE', #517 ) ;
#748 = DIRECTION ( 'NONE',  ( 0.000000000000000000, 0.000000000000000000, 1.000000000000000000 ) ) ;
#749 = DIRECTION ( 'NONE',  ( -1.000000000000000000, -8.260587980841934835E-16, 0.000000000000000000 ) ) ;
#750 = EDGE_CURVE ( 'NONE', #495, #30, #504, .T. ) ;
#751 = AXIS2_PLACEMENT_3D ( 'NONE', #890, #607, #748 ) ;
#752 = ORIENTED_EDGE ( 'NONE', *, *, #40, .F. ) ;
#753 = PLANE ( 'NONE',  #81 ) ;
#754 = EDGE_LOOP ( 'NONE', ( #922, #12, #384, #398 ) ) ;
#755 = VECTOR ( 'NONE', #474, 1000.000000000000000 ) ;
#756 = EDGE_CURVE ( 'NONE', #759, #67, #658, .T. ) ;
#757 = CARTESIAN_POINT ( 'NONE',  ( 10.37500000000000000, 1.550000000000000266, 0.000000000000000000 ) ) ;
#758 = CARTESIAN_POINT ( 'NONE',  ( 10.37500000000000000, 0.4999999999999995559, -7.750000000000000000 ) ) ;
#759 = VERTEX_POINT ( 'NONE', #868 ) ;
#760 = DIRECTION ( 'NONE',  ( -1.000000000000000000, 0.000000000000000000, -0.000000000000000000 ) ) ;
#761 = ORIENTED_EDGE ( 'NONE', *, *, #719, .T. ) ;
#762 = DIRECTION ( 'NONE',  ( 0.000000000000000000, 0.000000000000000000, 1.000000000000000000 ) ) ;
#763 = FACE_OUTER_BOUND ( 'NONE', #441, .T. ) ;
#764 = DIRECTION ( 'NONE',  ( 0.000000000000000000, 0.000000000000000000, -1.000000000000000000 ) ) ;
#765 = CARTESIAN_POINT ( 'NONE',  ( 10.69999999999999929, 1.550000000000000266, -7.750000000000000000 ) ) ;
#766 = CARTESIAN_POINT ( 'NONE',  ( 10.89246212024587379, 0.3075378797541261089, -7.750000000000000000 ) ) ;
#767 = EDGE_CURVE ( 'NONE', #355, #86, #521, .T. ) ;
#768 = LINE ( 'NONE', #392, #41 ) ;
#769 =( GEOMETRIC_REPRESENTATION_CONTEXT ( 3 ) GLOBAL_UNCERTAINTY_ASSIGNED_CONTEXT ( ( #847 ) ) GLOBAL_UNIT_ASSIGNED_CONTEXT ( ( #404, #115, #184 ) ) REPRESENTATION_CONTEXT ( 'NONE', 'WORKASPACE' ) );
#770 = DIRECTION ( 'NONE',  ( -1.000000000000000000, 0.000000000000000000, 0.000000000000000000 ) ) ;
#771 = EDGE_LOOP ( 'NONE', ( #191, #299, #181, #912 ) ) ;
#772 = EDGE_CURVE ( 'NONE', #737, #36, #588, .T. ) ;
#773 = DATE_AND_TIME ( #918, #237 ) ;
#774 = CARTESIAN_POINT ( 'NONE',  ( 11.44246212024587628, 1.242462120245873880, 0.000000000000000000 ) ) ;
#775 = VERTEX_POINT ( 'NONE', #452 ) ;
#776 = COORDINATED_UNIVERSAL_TIME_OFFSET ( 8, 0, .AHEAD. ) ;
#777 = AXIS2_PLACEMENT_3D ( 'NONE', #301, #65, #860 ) ;
#778 = LINE ( 'NONE', #348, #294 ) ;
#779 = ORIENTED_EDGE ( 'NONE', *, *, #70, .F. ) ;
#780 = EDGE_CURVE ( 'NONE', #783, #895, #156, .T. ) ;
#781 = FACE_OUTER_BOUND ( 'NONE', #472, .T. ) ;
#782 = ADVANCED_FACE ( 'NONE', ( #139 ), #300, .T. ) ;
#783 = VERTEX_POINT ( 'NONE', #370 ) ;
#784 = VECTOR ( 'NONE', #273, 1000.000000000000000 ) ;
#785 = DIRECTION ( 'NONE',  ( -0.000000000000000000, -0.000000000000000000, 1.000000000000000000 ) ) ;
#786 = CALENDAR_DATE ( 2024, 20, 12 ) ;
#787 = CARTESIAN_POINT ( 'NONE',  ( 10.37500000000000000, 0.4999999999999995559, 0.000000000000000000 ) ) ;
#788 = VECTOR ( 'NONE', #381, 1000.000000000000000 ) ;
#789 = EDGE_CURVE ( 'NONE', #495, #613, #512, .T. ) ;
#790 = ORIENTED_EDGE ( 'NONE', *, *, #697, .F. ) ;
#791 = LINE ( 'NONE', #879, #387 ) ;
#792 = DIRECTION ( 'NONE',  ( 0.000000000000000000, 1.000000000000000000, 0.000000000000000000 ) ) ;
#793 = EDGE_LOOP ( 'NONE', ( #403, #715, #320, #92 ) ) ;
#794 = CARTESIAN_POINT ( 'NONE',  ( 0.000000000000000000, 0.000000000000000000, 0.000000000000000000 ) ) ;
#795 = DIRECTION ( 'NONE',  ( 0.7071067811865463515, 0.7071067811865487940, 0.000000000000000000 ) ) ;
#796 = CARTESIAN_POINT ( 'NONE',  ( 10.37500000000000000, 0.4999999999999995559, 0.000000000000000000 ) ) ;
#797 = EDGE_LOOP ( 'NONE', ( #434, #779, #717, #937 ) ) ;
#798 = CC_DESIGN_DATE_AND_TIME_ASSIGNMENT ( #773, #696, ( #58 ) ) ;
#799 = DIRECTION ( 'NONE',  ( -0.000000000000000000, 1.000000000000000000, -0.000000000000000000 ) ) ;
#800 = DIRECTION ( 'NONE',  ( 1.000000000000000000, 0.000000000000000000, -0.000000000000000000 ) ) ;
#801 = EDGE_CURVE ( 'NONE', #30, #899, #291, .T. ) ;
#802 = LINE ( 'NONE', #306, #187 ) ;
#803 = ORIENTED_EDGE ( 'NONE', *, *, #208, .T. ) ;
#804 = LINE ( 'NONE', #794, #629 ) ;
#805 = EDGE_CURVE ( 'NONE', #732, #680, #791, .T. ) ;
#806 = ADVANCED_FACE ( 'NONE', ( #662 ), #305, .F. ) ;
#807 = ORIENTED_EDGE ( 'NONE', *, *, #253, .F. ) ;
#808 = CARTESIAN_POINT ( 'NONE',  ( 4.299999999999998046, 0.5000000000000000000, 0.000000000000000000 ) ) ;
#809 = CIRCLE ( 'NONE', #886, 1.050000000000000044 ) ;
#810 = ORIENTED_EDGE ( 'NONE', *, *, #40, .T. ) ;
#811 = DIRECTION ( 'NONE',  ( 0.000000000000000000, 0.000000000000000000, 1.000000000000000000 ) ) ;
#812 = ORIENTED_EDGE ( 'NONE', *, *, #729, .T. ) ;
#813 = EDGE_LOOP ( 'NONE', ( #606, #240, #666, #373 ) ) ;
#814 = LINE ( 'NONE', #691, #276 ) ;
#815 = DIRECTION ( 'NONE',  ( 0.000000000000000000, 1.000000000000000000, 0.000000000000000000 ) ) ;
#816 = ORIENTED_EDGE ( 'NONE', *, *, #618, .F. ) ;
#817 = CARTESIAN_POINT ( 'NONE',  ( 4.299999999999998046, 1.550000000000000266, 0.000000000000000000 ) ) ;
#818 = EDGE_LOOP ( 'NONE', ( #25, #450, #47, #726 ) ) ;
#819 = CARTESIAN_POINT ( 'NONE',  ( 11.63492424049174900, 1.050000000000000044, 0.000000000000000000 ) ) ;
#820 = VECTOR ( 'NONE', #557, 1000.000000000000000 ) ;
#821 = DIRECTION ( 'NONE',  ( 0.000000000000000000, -1.000000000000000000, 0.000000000000000000 ) ) ;
#822 = ADVANCED_FACE ( 'NONE', ( #234 ), #72, .T. ) ;
#823 = ORIENTED_EDGE ( 'NONE', *, *, #111, .F. ) ;
#824 = DIRECTION ( 'NONE',  ( -1.000000000000000000, 0.000000000000000000, -0.000000000000000000 ) ) ;
#825 = ORIENTED_EDGE ( 'NONE', *, *, #930, .T. ) ;
#826 = LINE ( 'NONE', #541, #140 ) ;
#827 = PLANE ( 'NONE',  #33 ) ;
#828 = EDGE_LOOP ( 'NONE', ( #917, #205, #269, #887, #393, #825, #179, #251, #150, #138 ) ) ;
#829 = VERTEX_POINT ( 'NONE', #863 ) ;
#830 = VECTOR ( 'NONE', #186, 1000.000000000000000 ) ;
#831 = CARTESIAN_POINT ( 'NONE',  ( 4.299999999999998046, 1.550000000000000266, 0.000000000000000000 ) ) ;
#832 = DIRECTION ( 'NONE',  ( 0.000000000000000000, 0.000000000000000000, 1.000000000000000000 ) ) ;
#833 = ADVANCED_FACE ( 'NONE', ( #68 ), #365, .T. ) ;
#834 = CARTESIAN_POINT ( 'NONE',  ( 4.299999999999998046, 0.5000000000000000000, -7.750000000000000000 ) ) ;
#835 = CARTESIAN_POINT ( 'NONE',  ( 4.299999999999998046, 0.5000000000000000000, 0.000000000000000000 ) ) ;
#836 = CARTESIAN_POINT ( 'NONE',  ( 0.000000000000000000, 0.000000000000000000, -7.750000000000000000 ) ) ;
#837 = VECTOR ( 'NONE', #2, 1000.000000000000000 ) ;
#838 = EDGE_CURVE ( 'NONE', #775, #747, #804, .T. ) ;
#839 = CARTESIAN_POINT ( 'NONE',  ( 0.000000000000000000, 0.000000000000000000, 0.000000000000000000 ) ) ;
#840 = EDGE_CURVE ( 'NONE', #872, #829, #435, .T. ) ;
#841 = APPLICATION_CONTEXT ( 'configuration controlled 3d designs of mechanical parts and assemblies' ) ;
#842 = ORIENTED_EDGE ( 'NONE', *, *, #840, .T. ) ;
#843 = FACE_OUTER_BOUND ( 'NONE', #23, .T. ) ;
#844 = COORDINATED_UNIVERSAL_TIME_OFFSET ( 8, 0, .AHEAD. ) ;
#845 = CARTESIAN_POINT ( 'NONE',  ( 3.365075759508248776, 0.000000000000000000, -7.750000000000000000 ) ) ;
#846 = VERTEX_POINT ( 'NONE', #8 ) ;
#847 = UNCERTAINTY_MEASURE_WITH_UNIT (LENGTH_MEASURE( 1.000000000000000082E-05 ), #404, 'distance_accuracy_value', 'NONE');
#848 = LINE ( 'NONE', #560, #419 ) ;
#849 = ORIENTED_EDGE ( 'NONE', *, *, #594, .T. ) ;
#850 = EDGE_CURVE ( 'NONE', #747, #245, #809, .T. ) ;
#851 = PERSON_AND_ORGANIZATION ( #440, #858 ) ;
#852 = ADVANCED_FACE ( 'NONE', ( #334 ), #753, .T. ) ;
#853 = AXIS2_PLACEMENT_3D ( 'NONE', #875, #659, #664 ) ;
#854 = CARTESIAN_POINT ( 'NONE',  ( 3.557537879754122390, 1.242462120245873880, 0.000000000000000000 ) ) ;
#855 = ORIENTED_EDGE ( 'NONE', *, *, #192, .F. ) ;
#856 = PERSON_AND_ORGANIZATION_ROLE ( 'design_supplier' ) ;
#857 = DIRECTION ( 'NONE',  ( 0.000000000000000000, 0.000000000000000000, -1.000000000000000000 ) ) ;
#858 = ORGANIZATION ( '未指定', '未指定', '' ) ;
#859 = APPROVAL_ROLE ( '' ) ;
#860 = DIRECTION ( 'NONE',  ( -1.000000000000000000, 0.000000000000000000, 0.000000000000000000 ) ) ;
#861 = EDGE_CURVE ( 'NONE', #369, #867, #548, .T. ) ;
#862 = ORIENTED_EDGE ( 'NONE', *, *, #930, .F. ) ;
#863 = CARTESIAN_POINT ( 'NONE',  ( 10.69999999999999929, 1.550000000000000266, 0.000000000000000000 ) ) ;
#864 = VECTOR ( 'NONE', #631, 1000.000000000000000 ) ;
#865 = LINE ( 'NONE', #509, #583 ) ;
#866 = VECTOR ( 'NONE', #873, 1000.000000000000000 ) ;
#867 = VERTEX_POINT ( 'NONE', #35 ) ;
#868 = CARTESIAN_POINT ( 'NONE',  ( 10.37500000000000000, 0.4999999999999995559, -7.750000000000000000 ) ) ;
#869 = DIRECTION ( 'NONE',  ( 0.000000000000000000, 0.000000000000000000, 1.000000000000000000 ) ) ;
#870 = CARTESIAN_POINT ( 'NONE',  ( 4.625000000000000000, 1.550000000000000266, 0.000000000000000000 ) ) ;
#871 = AXIS2_PLACEMENT_3D ( 'NONE', #366, #716, #795 ) ;
#872 = VERTEX_POINT ( 'NONE', #534 ) ;
#873 = DIRECTION ( 'NONE',  ( 0.000000000000000000, 1.000000000000000000, 0.000000000000000000 ) ) ;
#874 = CARTESIAN_POINT ( 'NONE',  ( 4.625000000000000000, 0.4999999999999995559, 0.000000000000000000 ) ) ;
#875 = CARTESIAN_POINT ( 'NONE',  ( 0.000000000000000000, 0.000000000000000000, -7.750000000000000000 ) ) ;
#876 = ADVANCED_FACE ( 'NONE', ( #414 ), #316, .F. ) ;
#877 = ADVANCED_FACE ( 'NONE', ( #119 ), #475, .T. ) ;
#878 = ORIENTED_EDGE ( 'NONE', *, *, #838, .T. ) ;
#879 = CARTESIAN_POINT ( 'NONE',  ( 11.44246212024587628, 1.242462120245873880, -7.750000000000000000 ) ) ;
#880 = DIRECTION ( 'NONE',  ( 0.000000000000000000, -1.000000000000000000, 0.000000000000000000 ) ) ;
#881 = ORIENTED_EDGE ( 'NONE', *, *, #378, .T. ) ;
#882 = CARTESIAN_POINT ( 'NONE',  ( 15.00000000000000000, 1.050000000000000044, 0.000000000000000000 ) ) ;
#883 = ORIENTED_EDGE ( 'NONE', *, *, #617, .T. ) ;
#884 = DIRECTION ( 'NONE',  ( -1.000000000000000000, -0.000000000000000000, -0.000000000000000000 ) ) ;
#885 = CARTESIAN_POINT ( 'NONE',  ( 11.19999999999999929, 1.050000000000000044, 0.000000000000000000 ) ) ;
#886 = AXIS2_PLACEMENT_3D ( 'NONE', #79, #374, #910 ) ;
#887 = ORIENTED_EDGE ( 'NONE', *, *, #133, .T. ) ;
#888 = FACE_OUTER_BOUND ( 'NONE', #295, .T. ) ;
#889 = ORIENTED_EDGE ( 'NONE', *, *, #111, .T. ) ;
#890 = CARTESIAN_POINT ( 'NONE',  ( 4.625000000000000000, -5.000000000000000000, -7.750000000000000000 ) ) ;
#891 = EDGE_CURVE ( 'NONE', #630, #369, #180, .T. ) ;
#892 = CARTESIAN_POINT ( 'NONE',  ( 11.63492424049175078, 1.050000000000000044, 0.000000000000000000 ) ) ;
#893 = EDGE_LOOP ( 'NONE', ( #445, #690, #626, #926, #7, #619, #464, #878, #703, #901 ) ) ;
#894 = FACE_OUTER_BOUND ( 'NONE', #195, .T. ) ;
#895 = VERTEX_POINT ( 'NONE', #817 ) ;
#896 = CARTESIAN_POINT ( 'NONE',  ( 0.000000000000000000, 0.000000000000000000, 0.000000000000000000 ) ) ;
#897 = AXIS2_PLACEMENT_3D ( 'NONE', #433, #371, #654 ) ;
#898 = CARTESIAN_POINT ( 'NONE',  ( 4.625000000000000000, 1.550000000000000266, 0.000000000000000000 ) ) ;
#899 = VERTEX_POINT ( 'NONE', #42 ) ;
#900 = CARTESIAN_POINT ( 'NONE',  ( 4.299999999999998046, 1.550000000000000266, -7.750000000000000000 ) ) ;
#901 = ORIENTED_EDGE ( 'NONE', *, *, #649, .T. ) ;
#902 = CARTESIAN_POINT ( 'NONE',  ( 4.299999999999998046, 0.5000000000000000000, -7.750000000000000000 ) ) ;
#903 = PLANE ( 'NONE',  #438 ) ;
#904 = VECTOR ( 'NONE', #189, 1000.000000000000000 ) ;
#905 = VERTEX_POINT ( 'NONE', #244 ) ;
#906 = DIRECTION ( 'NONE',  ( 1.000000000000000000, 0.000000000000000000, 0.000000000000000000 ) ) ;
#907 = LINE ( 'NONE', #685, #129 ) ;
#908 = CARTESIAN_POINT ( 'NONE',  ( 11.63492424049175078, 1.050000000000000044, -7.750000000000000000 ) ) ;
#909 = ADVANCED_FACE ( 'NONE', ( #888 ), #693, .T. ) ;
#910 = DIRECTION ( 'NONE',  ( -1.000000000000000000, -8.260587980841937794E-16, 0.000000000000000000 ) ) ;
#911 = EDGE_CURVE ( 'NONE', #576, #333, #459, .T. ) ;
#912 = ORIENTED_EDGE ( 'NONE', *, *, #780, .T. ) ;
#913 = DIRECTION ( 'NONE',  ( 0.7071067811865465735, -0.7071067811865483499, 0.000000000000000000 ) ) ;
#914 = DATE_TIME_ROLE ( 'classification_date' ) ;
#915 = CIRCLE ( 'NONE', #714, 1.050000000000000488 ) ;
#916 = CARTESIAN_POINT ( 'NONE',  ( 4.107537879754126209, 0.3075378797541269416, 0.000000000000000000 ) ) ;
#917 = ORIENTED_EDGE ( 'NONE', *, *, #789, .T. ) ;
#918 = CALENDAR_DATE ( 2024, 20, 12 ) ;
#919 = VECTOR ( 'NONE', #182, 1000.000000000000000 ) ;
#920 = EDGE_CURVE ( 'NONE', #613, #121, #768, .T. ) ;
#921 = LINE ( 'NONE', #482, #784 ) ;
#922 = ORIENTED_EDGE ( 'NONE', *, *, #618, .T. ) ;
#923 = EDGE_CURVE ( 'NONE', #846, #52, #681, .T. ) ;
#924 = PERSON_AND_ORGANIZATION_ROLE ( 'classification_officer' ) ;
#925 = CARTESIAN_POINT ( 'NONE',  ( 4.299999999999998046, 0.5000000000000000000, 0.000000000000000000 ) ) ;
#926 = ORIENTED_EDGE ( 'NONE', *, *, #158, .T. ) ;
#927 = MECHANICAL_CONTEXT ( 'NONE', #841, 'mechanical' ) ;
#928 = LINE ( 'NONE', #120, #864 ) ;
#929 = CC_DESIGN_SECURITY_CLASSIFICATION ( #390, ( #274 ) ) ;
#930 = EDGE_CURVE ( 'NONE', #424, #657, #471, .T. ) ;
#931 = ADVANCED_FACE ( 'NONE', ( #894 ), #173, .F. ) ;
#932 = PLANE ( 'NONE',  #656 ) ;
#933 = VECTOR ( 'NONE', #321, 1000.000000000000000 ) ;
#934 = ADVANCED_FACE ( 'NONE', ( #612 ), #620, .T. ) ;
#935 = ORIENTED_EDGE ( 'NONE', *, *, #423, .F. ) ;
#936 = LINE ( 'NONE', #574, #609 ) ;
#937 = ORIENTED_EDGE ( 'NONE', *, *, #394, .F. ) ;
#938 = CARTESIAN_POINT ( 'NONE',  ( 4.625000000000000000, 0.4999999999999995559, -7.750000000000000000 ) ) ;
#939 = CIRCLE ( 'NONE', #777, 1.050000000000000044 ) ;
#940 = CARTESIAN_POINT ( 'NONE',  ( 0.000000000000000000, 1.050000000000000044, -7.750000000000000000 ) ) ;
#941 = CARTESIAN_POINT ( 'NONE',  ( 11.63492424049175078, 0.000000000000000000, -7.750000000000000000 ) ) ;
ENDSEC;
END-ISO-10303-21;
