ISO-10303-21;
HEADER;
FILE_DESCRIPTION (( 'STEP AP214' ),
    '1' );
FILE_NAME ('CUI_DEVICES_CMC-2742PBJ-A.step',
    '2021-12-15T21:38:39',
    ( '' ),
    ( '' ),
    'SwSTEP 2.0',
    'SolidWorks 2021',
    '' );
FILE_SCHEMA (( 'AUTOMOTIVE_DESIGN' ));
ENDSEC;

DATA;
#1 = ORIENTED_EDGE ( 'NONE', *, *, #102, .F. ) ;
#2 = DIRECTION ( 'NONE',  ( -1.000000000000000000, 0.0000000000000000000, 0.0000000000000000000 ) ) ;
#3 = CIRCLE ( 'NONE', #196, 0.1181102362204724532 ) ;
#4 = STYLED_ITEM ( 'NONE', ( #435 ), #525 ) ;
#5 = ORIENTED_EDGE ( 'NONE', *, *, #181, .T. ) ;
#6 = CARTESIAN_POINT ( 'NONE',  ( -0.03937007874015747977, 0.1043307086614173318, -0.03740157480314913047 ) ) ;
#7 = PRESENTATION_STYLE_ASSIGNMENT (( #208 ) ) ;
#8 = ORIENTED_EDGE ( 'NONE', *, *, #464, .F. ) ;
#9 = CARTESIAN_POINT ( 'NONE',  ( 0.0000000000000000000, 0.1909448818897638012, -4.851100417311771481E-16 ) ) ;
#10 = AXIS2_PLACEMENT_3D ( 'NONE', #556, #80, #130 ) ;
#11 = CARTESIAN_POINT ( 'NONE',  ( -0.03937007874015747977, -0.005905511811023110222, -0.03740157480314790922 ) ) ;
#12 = FILL_AREA_STYLE_COLOUR ( '', #437 ) ;
#13 =( LENGTH_UNIT ( ) NAMED_UNIT ( * ) SI_UNIT ( $, .METRE. ) );
#14 = CARTESIAN_POINT ( 'NONE',  ( 0.0000000000000000000, 0.2106299212598425064, -7.056384710197243460E-16 ) ) ;
#15 = COLOUR_RGB ( '',0.7568627450980391913, 0.7568627450980391913, 0.0000000000000000000 ) ;
#16 = AXIS2_PLACEMENT_3D ( 'NONE', #353, #565, #516 ) ;
#17 = AXIS2_PLACEMENT_3D ( 'NONE', #379, #433, #72 ) ;
#18 =( NAMED_UNIT ( * ) SI_UNIT ( $, .STERADIAN. ) SOLID_ANGLE_UNIT ( ) );
#19 = EDGE_CURVE ( 'NONE', #22, #567, #164, .T. ) ;
#20 = PRODUCT_DEFINITION_FORMATION_WITH_SPECIFIED_SOURCE ( 'ANY', '', #279, .NOT_KNOWN. ) ;
#21 = DIRECTION ( 'NONE',  ( 0.0000000000000000000, 1.000000000000000000, -1.120284420785822179E-14 ) ) ;
#22 = VERTEX_POINT ( 'NONE', #195 ) ;
#23 = CYLINDRICAL_SURFACE ( 'NONE', #365, 0.09448818897637795144 ) ;
#24 = DIRECTION ( 'NONE',  ( 1.000000000000000000, 0.0000000000000000000, 0.0000000000000000000 ) ) ;
#25 = ADVANCED_FACE ( 'NONE', ( #288, #408 ), #144, .F. ) ;
#26 = COLOUR_RGB ( '',0.7568627450980391913, 0.7568627450980391913, 0.0000000000000000000 ) ;
#27 = CYLINDRICAL_SURFACE ( 'NONE', #554, 0.1181102362204724532 ) ;
#28 = MECHANICAL_DESIGN_GEOMETRIC_PRESENTATION_REPRESENTATION (  '', ( #75 ), #211 ) ;
#29 =( NAMED_UNIT ( * ) SI_UNIT ( $, .STERADIAN. ) SOLID_ANGLE_UNIT ( ) );
#30 = CARTESIAN_POINT ( 'NONE',  ( -0.03937007874015747977, 0.1043307086614187057, 0.03740157480315012273 ) ) ;
#31 = CIRCLE ( 'NONE', #611, 0.09842519685039370636 ) ;
#32 = SURFACE_STYLE_USAGE ( .BOTH. , #514 ) ;
#33 =( NAMED_UNIT ( * ) PLANE_ANGLE_UNIT ( ) SI_UNIT ( $, .RADIAN. ) );
#34 = CARTESIAN_POINT ( 'NONE',  ( -0.03149606299212598381, -0.005905511811023110222, -0.03740157480314851290 ) ) ;
#35 = DIRECTION ( 'NONE',  ( 1.000000000000000000, 0.0000000000000000000, 0.0000000000000000000 ) ) ;
#36 = UNCERTAINTY_MEASURE_WITH_UNIT (LENGTH_MEASURE( 1.000000000000000082E-05 ), #155, 'distance_accuracy_value', 'NONE');
#37 = DIMENSIONAL_EXPONENTS ( 1.000000000000000000, 0.0000000000000000000, 0.0000000000000000000, 0.0000000000000000000, 0.0000000000000000000, 0.0000000000000000000, 0.0000000000000000000 ) ;
#38 = CARTESIAN_POINT ( 'NONE',  ( -0.09842417179192469723, 0.1240157480314960647, 0.0004492016389626467200 ) ) ;
#39 = ORIENTED_EDGE ( 'NONE', *, *, #151, .F. ) ;
#40 = CIRCLE ( 'NONE', #596, 0.007874015748031499423 ) ;
#41 = VERTEX_POINT ( 'NONE', #233 ) ;
#42 = STYLED_ITEM ( 'NONE', ( #667 ), #228 ) ;
#43 = FACE_OUTER_BOUND ( 'NONE', #627, .T. ) ;
#44 = ORIENTED_EDGE ( 'NONE', *, *, #605, .T. ) ;
#45 = ORIENTED_EDGE ( 'NONE', *, *, #392, .T. ) ;
#46 =( NAMED_UNIT ( * ) SI_UNIT ( $, .STERADIAN. ) SOLID_ANGLE_UNIT ( ) );
#47 = DIRECTION ( 'NONE',  ( 0.0000000000000000000, -1.000000000000000000, 1.120284420785822179E-14 ) ) ;
#48 =( CONVERSION_BASED_UNIT ( 'INCH', #688 ) LENGTH_UNIT ( ) NAMED_UNIT ( #530 ) );
#49 = ORIENTED_EDGE ( 'NONE', *, *, #605, .F. ) ;
#50 = CARTESIAN_POINT ( 'NONE',  ( 0.0000000000000000000, 0.1909448818897638012, -4.851100417311771481E-16 ) ) ;
#51 = FACE_OUTER_BOUND ( 'NONE', #201, .T. ) ;
#52 = DIRECTION ( 'NONE',  ( 0.0000000000000000000, -1.120342244901688020E-14, -1.000000000000000000 ) ) ;
#53 = CARTESIAN_POINT ( 'NONE',  ( -1.157146581871514797E-17, 0.2165354330708672004, 0.09448818897637717429 ) ) ;
#54 = PRESENTATION_LAYER_ASSIGNMENT (  '', '', ( #42 ) ) ;
#55 = DIRECTION ( 'NONE',  ( 1.000000000000000000, 0.0000000000000000000, 0.0000000000000000000 ) ) ;
#56 = AXIS2_PLACEMENT_3D ( 'NONE', #581, #99, #310 ) ;
#57 = CARTESIAN_POINT ( 'NONE',  ( 0.0000000000000000000, 0.2106299212598425064, -7.056384710197243460E-16 ) ) ;
#58 = EDGE_CURVE ( 'NONE', #567, #585, #219, .T. ) ;
#59 = EDGE_LOOP ( 'NONE', ( #314, #465 ) ) ;
#60 = FACE_OUTER_BOUND ( 'NONE', #469, .T. ) ;
#61 = FILL_AREA_STYLE ('',( #206 ) ) ;
#62 = UNCERTAINTY_MEASURE_WITH_UNIT (LENGTH_MEASURE( 1.000000000000000082E-05 ), #416, 'distance_accuracy_value', 'NONE');
#63 = EDGE_CURVE ( 'NONE', #133, #580, #649, .T. ) ;
#64 =( NAMED_UNIT ( * ) PLANE_ANGLE_UNIT ( ) SI_UNIT ( $, .RADIAN. ) );
#65 = SURFACE_STYLE_USAGE ( .BOTH. , #327 ) ;
#66 = AXIS2_PLACEMENT_3D ( 'NONE', #443, #656, #176 ) ;
#67 = AXIS2_PLACEMENT_3D ( 'NONE', #612, #445, #35 ) ;
#68 =( CONVERSION_BASED_UNIT ( 'INCH', #666 ) LENGTH_UNIT ( ) NAMED_UNIT ( #154 ) );
#69 = DIRECTION ( 'NONE',  ( 0.0000000000000000000, -1.120342244901688020E-14, -1.000000000000000000 ) ) ;
#70 = DIRECTION ( 'NONE',  ( 1.000000000000000000, 0.0000000000000000000, 0.0000000000000000000 ) ) ;
#71 = PRODUCT_DEFINITION_SHAPE ( 'NONE', 'NONE',  #276 ) ;
#72 = DIRECTION ( 'NONE',  ( -0.9999895854059547284, 5.112853354877502800E-17, 0.004563888651857800696 ) ) ;
#73 = CLOSED_SHELL ( 'NONE', ( #378, #584, #124, #525, #231, #685, #228, #112, #538, #502, #239, #115, #25, #253, #141, #265, #304 ) ) ;
#74 = VECTOR ( 'NONE', #664, 39.37007874015748143 ) ;
#75 = STYLED_ITEM ( 'NONE', ( #593 ), #538 ) ;
#76 = CARTESIAN_POINT ( 'NONE',  ( -0.09842312830826849268, 0.1909448818897638012, -0.0006381136676734231079 ) ) ;
#77 =( GEOMETRIC_REPRESENTATION_CONTEXT ( 3 ) GLOBAL_UNCERTAINTY_ASSIGNED_CONTEXT ( ( #62 ) ) GLOBAL_UNIT_ASSIGNED_CONTEXT ( ( #416, #641, #258 ) ) REPRESENTATION_CONTEXT ( 'NONE', 'WORKASPACE' ) );
#78 = FACE_OUTER_BOUND ( 'NONE', #249, .T. ) ;
#79 = EDGE_CURVE ( 'NONE', #515, #585, #618, .T. ) ;
#80 = DIRECTION ( 'NONE',  ( 0.006483234863556926533, -1.120260876453773248E-14, -0.9999789836120077657 ) ) ;
#81 = ORIENTED_EDGE ( 'NONE', *, *, #343, .T. ) ;
#82 = ORIENTED_EDGE ( 'NONE', *, *, #63, .F. ) ;
#83 = FILL_AREA_STYLE_COLOUR ( '', #26 ) ;
#84 = DIRECTION ( 'NONE',  ( 0.0000000000000000000, -1.000000000000000000, 1.120284420785822179E-14 ) ) ;
#85 = EDGE_CURVE ( 'NONE', #215, #22, #298, .T. ) ;
#86 = COLOUR_RGB ( '',0.7568627450980391913, 0.7568627450980391913, 0.0000000000000000000 ) ;
#87 = DIRECTION ( 'NONE',  ( 0.0000000000000000000, -1.120342244901688020E-14, -1.000000000000000000 ) ) ;
#88 = AXIS2_PLACEMENT_3D ( 'NONE', #260, #104, #248 ) ;
#89 = LENGTH_MEASURE_WITH_UNIT ( LENGTH_MEASURE( 0.02539999999999999897 ), #139 );
#90 = DIRECTION ( 'NONE',  ( -0.9999895854059548395, 0.0000000000000000000, 0.004563888651857922994 ) ) ;
#91 = CIRCLE ( 'NONE', #442, 0.01968503937007875029 ) ;
#92 = CARTESIAN_POINT ( 'NONE',  ( 0.0000000000000000000, 0.1043307086614173318, 4.852150471384330274E-16 ) ) ;
#93 = DIRECTION ( 'NONE',  ( 0.0000000000000000000, -1.000000000000000000, 1.120284420785822179E-14 ) ) ;
#94 = ORIENTED_EDGE ( 'NONE', *, *, #448, .T. ) ;
#95 = DIRECTION ( 'NONE',  ( 0.0000000000000000000, -1.000000000000000000, 1.120284420785822179E-14 ) ) ;
#96 = LENGTH_MEASURE_WITH_UNIT ( LENGTH_MEASURE( 0.02539999999999999897 ), #143 );
#97 = VERTEX_POINT ( 'NONE', #34 ) ;
#98 = EDGE_CURVE ( 'NONE', #689, #580, #512, .T. ) ;
#99 = DIRECTION ( 'NONE',  ( 0.0000000000000000000, -1.000000000000000000, 1.120284420785822179E-14 ) ) ;
#100 = FACE_OUTER_BOUND ( 'NONE', #356, .T. ) ;
#101 = PLANE ( 'NONE',  #88 ) ;
#102 = EDGE_CURVE ( 'NONE', #240, #689, #40, .T. ) ;
#103 = ORIENTED_EDGE ( 'NONE', *, *, #645, .F. ) ;
#104 = DIRECTION ( 'NONE',  ( 0.0000000000000000000, 1.000000000000000000, -1.120284420785822179E-14 ) ) ;
#105 = ORIENTED_EDGE ( 'NONE', *, *, #398, .T. ) ;
#106 = PRESENTATION_LAYER_ASSIGNMENT (  '', '', ( #595 ) ) ;
#107 = LINE ( 'NONE', #147, #451 ) ;
#108 = CIRCLE ( 'NONE', #509, 0.01968503937007874682 ) ;
#109 = CARTESIAN_POINT ( 'NONE',  ( 0.0000000000000000000, 0.1909448818897638012, -4.851100417311771481E-16 ) ) ;
#110 = EDGE_CURVE ( 'NONE', #619, #346, #207, .T. ) ;
#111 = AXIS2_PLACEMENT_3D ( 'NONE', #617, #504, #87 ) ;
#112 = ADVANCED_FACE ( 'NONE', ( #680 ), #403, .T. ) ;
#113 = ORIENTED_EDGE ( 'NONE', *, *, #547, .T. ) ;
#114 = CARTESIAN_POINT ( 'NONE',  ( -0.03937007874015747977, 0.1043307086614187057, 0.03740157480315012273 ) ) ;
#115 = ADVANCED_FACE ( 'NONE', ( #588 ), #292, .T. ) ;
#116 = CARTESIAN_POINT ( 'NONE',  ( -0.09842417179192469723, 0.1043307086614173318, 0.0004492016389628671925 ) ) ;
#117 = SURFACE_STYLE_FILL_AREA ( #545 ) ;
#118 = SURFACE_STYLE_FILL_AREA ( #177 ) ;
#119 = AXIS2_PLACEMENT_3D ( 'NONE', #505, #93, #569 ) ;
#120 = STYLED_ITEM ( 'NONE', ( #526 ), #685 ) ;
#121 =( CONVERSION_BASED_UNIT ( 'INCH', #655 ) LENGTH_UNIT ( ) NAMED_UNIT ( #623 ) );
#122 = SURFACE_SIDE_STYLE ('',( #118 ) ) ;
#123 = CIRCLE ( 'NONE', #622, 0.09842519685039370636 ) ;
#124 = ADVANCED_FACE ( 'NONE', ( #100 ), #210, .T. ) ;
#125 = ORIENTED_EDGE ( 'NONE', *, *, #58, .F. ) ;
#126 = DIRECTION ( 'NONE',  ( 0.0000000000000000000, 1.120342244901688020E-14, 1.000000000000000000 ) ) ;
#127 = DIRECTION ( 'NONE',  ( 0.0000000000000000000, -1.000000000000000000, 1.120284420785822179E-14 ) ) ;
#128 = ORIENTED_EDGE ( 'NONE', *, *, #392, .F. ) ;
#129 = EDGE_CURVE ( 'NONE', #215, #354, #3, .T. ) ;
#130 = DIRECTION ( 'NONE',  ( -0.9999789836120076547, 0.0000000000000000000, -0.006483234863556923064 ) ) ;
#131 = DIRECTION ( 'NONE',  ( 0.0000000000000000000, -1.000000000000000000, 1.120284420785822179E-14 ) ) ;
#132 =( LENGTH_UNIT ( ) NAMED_UNIT ( * ) SI_UNIT ( $, .METRE. ) );
#133 = VERTEX_POINT ( 'NONE', #366 ) ;
#134 =( CONVERSION_BASED_UNIT ( 'INCH', #89 ) LENGTH_UNIT ( ) NAMED_UNIT ( #480 ) );
#135 = SURFACE_STYLE_USAGE ( .BOTH. , #616 ) ;
#136 = AXIS2_PLACEMENT_3D ( 'NONE', #203, #127, #140 ) ;
#137 = STYLED_ITEM ( 'NONE', ( #436 ), #231 ) ;
#138 = MECHANICAL_DESIGN_GEOMETRIC_PRESENTATION_REPRESENTATION (  '', ( #4 ), #363 ) ;
#139 =( LENGTH_UNIT ( ) NAMED_UNIT ( * ) SI_UNIT ( $, .METRE. ) );
#140 = DIRECTION ( 'NONE',  ( 1.000000000000000000, 0.0000000000000000000, 0.0000000000000000000 ) ) ;
#141 = ADVANCED_FACE ( 'NONE', ( #51 ), #252, .T. ) ;
#142 = ORIENTED_EDGE ( 'NONE', *, *, #98, .T. ) ;
#143 =( LENGTH_UNIT ( ) NAMED_UNIT ( * ) SI_UNIT ( $, .METRE. ) );
#144 = PLANE ( 'NONE',  #560 ) ;
#145 = SURFACE_STYLE_FILL_AREA ( #308 ) ;
#146 = VERTEX_POINT ( 'NONE', #591 ) ;
#147 = CARTESIAN_POINT ( 'NONE',  ( 0.0000000000000000000, 0.2106299212598414516, -0.09448818897637864533 ) ) ;
#148 = FILL_AREA_STYLE_COLOUR ( '', #454 ) ;
#149 = AXIS2_PLACEMENT_3D ( 'NONE', #306, #686, #674 ) ;
#150 =( GEOMETRIC_REPRESENTATION_CONTEXT ( 3 ) GLOBAL_UNCERTAINTY_ASSIGNED_CONTEXT ( ( #482 ) ) GLOBAL_UNIT_ASSIGNED_CONTEXT ( ( #134, #33, #402 ) ) REPRESENTATION_CONTEXT ( 'NONE', 'WORKASPACE' ) );
#151 = EDGE_CURVE ( 'NONE', #573, #344, #370, .T. ) ;
#152 = FILL_AREA_STYLE_COLOUR ( '', #684 ) ;
#153 = AXIS2_PLACEMENT_3D ( 'NONE', #430, #659, #653 ) ;
#154 = DIMENSIONAL_EXPONENTS ( 1.000000000000000000, 0.0000000000000000000, 0.0000000000000000000, 0.0000000000000000000, 0.0000000000000000000, 0.0000000000000000000, 0.0000000000000000000 ) ;
#155 =( CONVERSION_BASED_UNIT ( 'INCH', #167 ) LENGTH_UNIT ( ) NAMED_UNIT ( #411 ) );
#156 = VERTEX_POINT ( 'NONE', #550 ) ;
#157 = DIRECTION ( 'NONE',  ( 0.0000000000000000000, 1.000000000000000000, -1.120284420785822179E-14 ) ) ;
#158 = EDGE_CURVE ( 'NONE', #240, #133, #227, .T. ) ;
#159 = DIRECTION ( 'NONE',  ( 0.0000000000000000000, -1.000000000000000000, 1.120284420785822179E-14 ) ) ;
#160 = ORIENTED_EDGE ( 'NONE', *, *, #320, .F. ) ;
#161 = SURFACE_STYLE_FILL_AREA ( #360 ) ;
#162 = DIRECTION ( 'NONE',  ( -0.9999895854059547284, 5.112853354877502800E-17, 0.004563888651857800696 ) ) ;
#163 = ADVANCED_BREP_SHAPE_REPRESENTATION ( 'CUI_DEVICES_CMC-2742PBJ-A', ( #589, #432 ), #77 ) ;
#164 = CIRCLE ( 'NONE', #149, 0.1181102362204724532 ) ;
#165 = LENGTH_MEASURE_WITH_UNIT ( LENGTH_MEASURE( 0.02539999999999999897 ), #648 );
#166 = COLOUR_RGB ( '',0.7568627450980391913, 0.7568627450980391913, 0.0000000000000000000 ) ;
#167 = LENGTH_MEASURE_WITH_UNIT ( LENGTH_MEASURE( 0.02539999999999999897 ), #375 );
#168 = PRESENTATION_LAYER_ASSIGNMENT (  '', '', ( #483 ) ) ;
#169 = EDGE_CURVE ( 'NONE', #580, #133, #542, .T. ) ;
#170 = FACE_OUTER_BOUND ( 'NONE', #615, .T. ) ;
#171 = FILL_AREA_STYLE_COLOUR ( '', #330 ) ;
#172 = CARTESIAN_POINT ( 'NONE',  ( 0.0000000000000000000, 0.2106299212598414516, -0.09448818897637864533 ) ) ;
#173 = LENGTH_MEASURE_WITH_UNIT ( LENGTH_MEASURE( 0.02539999999999999897 ), #274 );
#174 = AXIS2_PLACEMENT_3D ( 'NONE', #9, #479, #2 ) ;
#175 = APPLICATION_PROTOCOL_DEFINITION ( 'draft international standard', 'automotive_design', 1998, #312 ) ;
#176 = DIRECTION ( 'NONE',  ( -1.000000000000000000, 0.0000000000000000000, 0.0000000000000000000 ) ) ;
#177 = FILL_AREA_STYLE ('',( #12 ) ) ;
#178 = EDGE_LOOP ( 'NONE', ( #676, #8, #198, #389, #555 ) ) ;
#179 = DIRECTION ( 'NONE',  ( 1.000000000000000000, 0.0000000000000000000, 0.0000000000000000000 ) ) ;
#180 = DIRECTION ( 'NONE',  ( 0.0000000000000000000, -1.000000000000000000, 1.120284420785822179E-14 ) ) ;
#181 = EDGE_CURVE ( 'NONE', #602, #519, #184, .T. ) ;
#182 = FILL_AREA_STYLE ('',( #189 ) ) ;
#183 = ORIENTED_EDGE ( 'NONE', *, *, #629, .F. ) ;
#184 = CIRCLE ( 'NONE', #521, 0.1181102362204724532 ) ;
#185 = CIRCLE ( 'NONE', #307, 0.007874015748031499423 ) ;
#186 = LENGTH_MEASURE_WITH_UNIT ( LENGTH_MEASURE( 0.02539999999999999897 ), #132 );
#187 = DIRECTION ( 'NONE',  ( 1.000000000000000000, 0.0000000000000000000, 0.0000000000000000000 ) ) ;
#188 = CARTESIAN_POINT ( 'NONE',  ( -0.03149606299212598381, 0.1043307086614187057, 0.03740157480315012273 ) ) ;
#189 = FILL_AREA_STYLE_COLOUR ( '', #598 ) ;
#190 = ORIENTED_EDGE ( 'NONE', *, *, #169, .F. ) ;
#191 = CARTESIAN_POINT ( 'NONE',  ( 0.0000000000000000000, 0.2106299212598425064, -7.056384710197243460E-16 ) ) ;
#192 = DIRECTION ( 'NONE',  ( -1.000000000000000000, 0.0000000000000000000, 0.0000000000000000000 ) ) ;
#193 = CARTESIAN_POINT ( 'NONE',  ( 0.0000000000000000000, 0.2165354330708650632, -0.09448818897637871472 ) ) ;
#194 = CARTESIAN_POINT ( 'NONE',  ( -0.03937007874015747977, 0.1043307086614173318, -0.03740157480314913047 ) ) ;
#195 = CARTESIAN_POINT ( 'NONE',  ( -0.1181102362204724532, 0.1240157480314960647, -9.574737966725185727E-17 ) ) ;
#196 = AXIS2_PLACEMENT_3D ( 'NONE', #109, #540, #695 ) ;
#197 = CARTESIAN_POINT ( 'NONE',  ( 0.1181102362204724532, 0.1240157480314960647, -1.102117119406458196E-16 ) ) ;
#198 = ORIENTED_EDGE ( 'NONE', *, *, #629, .T. ) ;
#199 = AXIS2_PLACEMENT_3D ( 'NONE', #238, #21, #229 ) ;
#200 = EDGE_LOOP ( 'NONE', ( #647, #264, #446, #49 ) ) ;
#201 = EDGE_LOOP ( 'NONE', ( #679, #460 ) ) ;
#202 = CARTESIAN_POINT ( 'NONE',  ( 0.0000000000000000000, 0.1240157480314960647, 2.646866178498854350E-16 ) ) ;
#203 = CARTESIAN_POINT ( 'NONE',  ( -0.03937007874015747977, -0.005905511811022283626, 0.03740157480315133703 ) ) ;
#204 = EDGE_LOOP ( 'NONE', ( #609, #296, #103, #251, #160, #286 ) ) ;
#205 = CARTESIAN_POINT ( 'NONE',  ( 0.1181102362204724532, 0.2106299212598425064, -7.056384710197243460E-16 ) ) ;
#206 = FILL_AREA_STYLE_COLOUR ( '', #166 ) ;
#207 = CIRCLE ( 'NONE', #321, 0.007874015748031499423 ) ;
#208 = SURFACE_STYLE_USAGE ( .BOTH. , #486 ) ;
#209 = VERTEX_POINT ( 'NONE', #172 ) ;
#210 = TOROIDAL_SURFACE ( 'NONE', #682, 0.09842519685039370636, 0.01968503937007873988 ) ;
#211 =( GEOMETRIC_REPRESENTATION_CONTEXT ( 3 ) GLOBAL_UNCERTAINTY_ASSIGNED_CONTEXT ( ( #572 ) ) GLOBAL_UNIT_ASSIGNED_CONTEXT ( ( #548, #277, #18 ) ) REPRESENTATION_CONTEXT ( 'NONE', 'WORKASPACE' ) );
#212 =( NAMED_UNIT ( * ) SI_UNIT ( $, .STERADIAN. ) SOLID_ANGLE_UNIT ( ) );
#213 = EDGE_LOOP ( 'NONE', ( #128, #642 ) ) ;
#214 =( NAMED_UNIT ( * ) SI_UNIT ( $, .STERADIAN. ) SOLID_ANGLE_UNIT ( ) );
#215 = VERTEX_POINT ( 'NONE', #497 ) ;
#216 = DIRECTION ( 'NONE',  ( -1.000000000000000000, 0.0000000000000000000, 0.0000000000000000000 ) ) ;
#217 = DIRECTION ( 'NONE',  ( 1.000000000000000000, 0.0000000000000000000, 0.0000000000000000000 ) ) ;
#218 = DIRECTION ( 'NONE',  ( -0.9999789836120076547, -7.263067013938455961E-17, -0.006483234863557047964 ) ) ;
#219 = CIRCLE ( 'NONE', #551, 0.01968503937007874682 ) ;
#220 = DIRECTION ( 'NONE',  ( 0.0000000000000000000, 1.000000000000000000, -1.120284420785822179E-14 ) ) ;
#221 = FILL_AREA_STYLE ('',( #171 ) ) ;
#222 = CARTESIAN_POINT ( 'NONE',  ( -0.04724409448818898266, 0.1043307086614173318, -0.03740157480314913047 ) ) ;
#223 = PRESENTATION_LAYER_ASSIGNMENT (  '', '', ( #137 ) ) ;
#224 = CIRCLE ( 'NONE', #575, 0.1181102362204724532 ) ;
#225 =( NAMED_UNIT ( * ) PLANE_ANGLE_UNIT ( ) SI_UNIT ( $, .RADIAN. ) );
#226 = EDGE_CURVE ( 'NONE', #619, #359, #499, .T. ) ;
#227 = LINE ( 'NONE', #431, #650 ) ;
#228 = ADVANCED_FACE ( 'NONE', ( #604 ), #284, .T. ) ;
#229 = DIRECTION ( 'NONE',  ( -1.000000000000000000, 0.0000000000000000000, 0.0000000000000000000 ) ) ;
#230 = ORIENTED_EDGE ( 'NONE', *, *, #273, .F. ) ;
#231 = ADVANCED_FACE ( 'NONE', ( #493 ), #549, .T. ) ;
#232 = FILL_AREA_STYLE ('',( #342 ) ) ;
#233 = CARTESIAN_POINT ( 'NONE',  ( -0.1181077539699221940, 0.1909448818897638012, -0.0007657364012080106501 ) ) ;
#234 = AXIS2_PLACEMENT_3D ( 'NONE', #194, #305, #355 ) ;
#235 = CIRCLE ( 'NONE', #383, 0.1181102362204724532 ) ;
#236 = CARTESIAN_POINT ( 'NONE',  ( -0.03149606299212598381, 0.1043307086614173318, -0.03740157480314913047 ) ) ;
#237 = ORIENTED_EDGE ( 'NONE', *, *, #398, .F. ) ;
#238 = CARTESIAN_POINT ( 'NONE',  ( 0.0000000000000000000, 0.1909448818897638012, -4.851100417311771481E-16 ) ) ;
#239 = ADVANCED_FACE ( 'NONE', ( #673 ), #449, .T. ) ;
#240 = VERTEX_POINT ( 'NONE', #390 ) ;
#241 = PRESENTATION_STYLE_ASSIGNMENT (( #297 ) ) ;
#242 = DIRECTION ( 'NONE',  ( -1.000000000000000000, 0.0000000000000000000, 0.0000000000000000000 ) ) ;
#243 = SURFACE_SIDE_STYLE ('',( #290 ) ) ;
#244 = EDGE_LOOP ( 'NONE', ( #237, #1 ) ) ;
#245 = AXIS2_PLACEMENT_3D ( 'NONE', #319, #533, #55 ) ;
#246 = UNCERTAINTY_MEASURE_WITH_UNIT (LENGTH_MEASURE( 1.000000000000000082E-05 ), #694, 'distance_accuracy_value', 'NONE');
#247 = ORIENTED_EDGE ( 'NONE', *, *, #283, .T. ) ;
#248 = DIRECTION ( 'NONE',  ( 0.0000000000000000000, -1.120284420785822179E-14, -1.000000000000000000 ) ) ;
#249 = EDGE_LOOP ( 'NONE', ( #247, #347, #39, #339 ) ) ;
#250 = EDGE_CURVE ( 'NONE', #346, #97, #287, .T. ) ;
#251 = ORIENTED_EDGE ( 'NONE', *, *, #409, .T. ) ;
#252 = PLANE ( 'NONE',  #245 ) ;
#253 = ADVANCED_FACE ( 'NONE', ( #508, #447, #394 ), #301, .T. ) ;
#254 = UNCERTAINTY_MEASURE_WITH_UNIT (LENGTH_MEASURE( 1.000000000000000082E-05 ), #571, 'distance_accuracy_value', 'NONE');
#255 = DIMENSIONAL_EXPONENTS ( 1.000000000000000000, 0.0000000000000000000, 0.0000000000000000000, 0.0000000000000000000, 0.0000000000000000000, 0.0000000000000000000, 0.0000000000000000000 ) ;
#256 = ORIENTED_EDGE ( 'NONE', *, *, #102, .T. ) ;
#257 = LENGTH_MEASURE_WITH_UNIT ( LENGTH_MEASURE( 0.02539999999999999897 ), #640 );
#258 =( NAMED_UNIT ( * ) SI_UNIT ( $, .STERADIAN. ) SOLID_ANGLE_UNIT ( ) );
#259 = STYLED_ITEM ( 'NONE', ( #369 ), #304 ) ;
#260 = CARTESIAN_POINT ( 'NONE',  ( 0.0000000000000000000, 0.2165354330708661457, -7.717969998062893732E-16 ) ) ;
#261 = CARTESIAN_POINT ( 'NONE',  ( 0.0000000000000000000, 0.1240157480314960647, 2.646866178498854350E-16 ) ) ;
#262 = STYLED_ITEM ( 'NONE', ( #7 ), #163 ) ;
#263 = LENGTH_MEASURE_WITH_UNIT ( LENGTH_MEASURE( 0.02539999999999999897 ), #357 );
#264 = ORIENTED_EDGE ( 'NONE', *, *, #440, .T. ) ;
#265 = ADVANCED_FACE ( 'NONE', ( #558 ), #621, .T. ) ;
#266 = SURFACE_STYLE_USAGE ( .BOTH. , #311 ) ;
#267 =( CONVERSION_BASED_UNIT ( 'INCH', #257 ) LENGTH_UNIT ( ) NAMED_UNIT ( #513 ) );
#268 = DIRECTION ( 'NONE',  ( 1.000000000000000000, 0.0000000000000000000, 0.0000000000000000000 ) ) ;
#269 = VECTOR ( 'NONE', #84, 39.37007874015748143 ) ;
#270 = SURFACE_STYLE_FILL_AREA ( #221 ) ;
#271 = CARTESIAN_POINT ( 'NONE',  ( 0.0000000000000000000, 0.2165354330708661457, -7.717969998062893732E-16 ) ) ;
#272 = CIRCLE ( 'NONE', #174, 0.1181102362204724532 ) ;
#273 = EDGE_CURVE ( 'NONE', #519, #515, #108, .T. ) ;
#274 =( LENGTH_UNIT ( ) NAMED_UNIT ( * ) SI_UNIT ( $, .METRE. ) );
#275 = LENGTH_MEASURE_WITH_UNIT ( LENGTH_MEASURE( 0.02539999999999999897 ), #380 );
#276 = PRODUCT_DEFINITION ( 'UNKNOWN', '', #20, #632 ) ;
#277 =( NAMED_UNIT ( * ) PLANE_ANGLE_UNIT ( ) SI_UNIT ( $, .RADIAN. ) );
#278 = CARTESIAN_POINT ( 'NONE',  ( 0.0000000000000000000, 0.1240157480314960647, 2.646866178498854350E-16 ) ) ;
#279 = PRODUCT ( 'CUI_DEVICES_CMC-2742PBJ-A', 'CUI_DEVICES_CMC-2742PBJ-A', '', ( #592 ) ) ;
#280 = AXIS2_PLACEMENT_3D ( 'NONE', #387, #384, #70 ) ;
#281 =( GEOMETRIC_REPRESENTATION_CONTEXT ( 3 ) GLOBAL_UNCERTAINTY_ASSIGNED_CONTEXT ( ( #423 ) ) GLOBAL_UNIT_ASSIGNED_CONTEXT ( ( #48, #313, #412 ) ) REPRESENTATION_CONTEXT ( 'NONE', 'WORKASPACE' ) );
#282 = CARTESIAN_POINT ( 'NONE',  ( -0.03149606299212598381, -0.005905511811022283626, 0.03740157480315133703 ) ) ;
#283 = EDGE_CURVE ( 'NONE', #209, #156, #336, .T. ) ;
#284 = CYLINDRICAL_SURFACE ( 'NONE', #582, 0.09448818897637795144 ) ;
#285 = CARTESIAN_POINT ( 'NONE',  ( 0.0000000000000000000, 0.2106299212598425064, -7.056384710197243460E-16 ) ) ;
#286 = ORIENTED_EDGE ( 'NONE', *, *, #19, .F. ) ;
#287 = LINE ( 'NONE', #236, #349 ) ;
#288 = FACE_OUTER_BOUND ( 'NONE', #524, .T. ) ;
#289 = SURFACE_SIDE_STYLE ('',( #393 ) ) ;
#290 = SURFACE_STYLE_FILL_AREA ( #561 ) ;
#291 = FILL_AREA_STYLE_COLOUR ( '', #15 ) ;
#292 = TOROIDAL_SURFACE ( 'NONE', #498, 0.09842519685039370636, 0.01968503937007873988 ) ;
#293 = CIRCLE ( 'NONE', #429, 0.007874015748031499423 ) ;
#294 = DIRECTION ( 'NONE',  ( -1.000000000000000000, 0.0000000000000000000, 0.0000000000000000000 ) ) ;
#295 = CIRCLE ( 'NONE', #111, 0.09448818897637795144 ) ;
#296 = ORIENTED_EDGE ( 'NONE', *, *, #417, .F. ) ;
#297 = SURFACE_STYLE_USAGE ( .BOTH. , #243 ) ;
#298 = LINE ( 'NONE', #457, #269 ) ;
#299 = SURFACE_STYLE_FILL_AREA ( #182 ) ;
#300 = VERTEX_POINT ( 'NONE', #340 ) ;
#301 = PLANE ( 'NONE',  #119 ) ;
#302 = EDGE_CURVE ( 'NONE', #300, #354, #543, .T. ) ;
#303 = ORIENTED_EDGE ( 'NONE', *, *, #547, .F. ) ;
#304 = ADVANCED_FACE ( 'NONE', ( #43 ), #101, .T. ) ;
#305 = DIRECTION ( 'NONE',  ( 0.0000000000000000000, -1.000000000000000000, 1.120284420785822179E-14 ) ) ;
#306 = CARTESIAN_POINT ( 'NONE',  ( 0.0000000000000000000, 0.1240157480314960647, 2.646866178498854350E-16 ) ) ;
#307 = AXIS2_PLACEMENT_3D ( 'NONE', #114, #325, #216 ) ;
#308 = FILL_AREA_STYLE ('',( #148 ) ) ;
#309 = VERTEX_POINT ( 'NONE', #470 ) ;
#310 = DIRECTION ( 'NONE',  ( -1.000000000000000000, 0.0000000000000000000, 0.0000000000000000000 ) ) ;
#311 = SURFACE_SIDE_STYLE ('',( #326 ) ) ;
#312 = APPLICATION_CONTEXT ( 'automotive_design' ) ;
#313 =( NAMED_UNIT ( * ) PLANE_ANGLE_UNIT ( ) SI_UNIT ( $, .RADIAN. ) );
#314 = ORIENTED_EDGE ( 'NONE', *, *, #283, .F. ) ;
#315 = DIRECTION ( 'NONE',  ( 0.0000000000000000000, 1.000000000000000000, -1.120284420785822179E-14 ) ) ;
#316 = DIMENSIONAL_EXPONENTS ( 1.000000000000000000, 0.0000000000000000000, 0.0000000000000000000, 0.0000000000000000000, 0.0000000000000000000, 0.0000000000000000000, 0.0000000000000000000 ) ;
#317 = UNCERTAINTY_MEASURE_WITH_UNIT (LENGTH_MEASURE( 1.000000000000000082E-05 ), #660, 'distance_accuracy_value', 'NONE');
#318 = ORIENTED_EDGE ( 'NONE', *, *, #58, .T. ) ;
#319 = CARTESIAN_POINT ( 'NONE',  ( 0.0000000000000000000, -0.005905511811022701694, 1.720174251154299071E-15 ) ) ;
#320 = EDGE_CURVE ( 'NONE', #567, #602, #235, .T. ) ;
#321 = AXIS2_PLACEMENT_3D ( 'NONE', #395, #348, #242 ) ;
#322 = MECHANICAL_DESIGN_GEOMETRIC_PRESENTATION_REPRESENTATION (  '', ( #391 ), #150 ) ;
#323 = ORIENTED_EDGE ( 'NONE', *, *, #250, .F. ) ;
#324 =( NAMED_UNIT ( * ) SI_UNIT ( $, .STERADIAN. ) SOLID_ANGLE_UNIT ( ) );
#325 = DIRECTION ( 'NONE',  ( 0.0000000000000000000, -1.000000000000000000, 1.120284420785822179E-14 ) ) ;
#326 = SURFACE_STYLE_FILL_AREA ( #61 ) ;
#327 = SURFACE_SIDE_STYLE ('',( #270 ) ) ;
#328 = SURFACE_SIDE_STYLE ('',( #117 ) ) ;
#329 = COLOUR_RGB ( '',0.7568627450980391913, 0.7568627450980391913, 0.0000000000000000000 ) ;
#330 = COLOUR_RGB ( '',0.7568627450980391913, 0.7568627450980391913, 0.0000000000000000000 ) ;
#331 = FACE_OUTER_BOUND ( 'NONE', #506, .T. ) ;
#332 = DIRECTION ( 'NONE',  ( -1.000000000000000000, 0.0000000000000000000, 0.0000000000000000000 ) ) ;
#333 = DIRECTION ( 'NONE',  ( 0.0000000000000000000, 1.000000000000000000, -1.120284420785822179E-14 ) ) ;
#334 = EDGE_CURVE ( 'NONE', #156, #344, #537, .T. ) ;
#335 = AXIS2_PLACEMENT_3D ( 'NONE', #452, #131, #563 ) ;
#336 = CIRCLE ( 'NONE', #661, 0.09448818897637795144 ) ;
#337 = MECHANICAL_DESIGN_GEOMETRIC_PRESENTATION_REPRESENTATION (  '', ( #120 ), #281 ) ;
#338 =( NAMED_UNIT ( * ) SI_UNIT ( $, .STERADIAN. ) SOLID_ANGLE_UNIT ( ) );
#339 = ORIENTED_EDGE ( 'NONE', *, *, #358, .F. ) ;
#340 = CARTESIAN_POINT ( 'NONE',  ( 0.09842312830826849268, 0.2106299212598425619, 0.0006381136676722202940 ) ) ;
#341 = ORIENTED_EDGE ( 'NONE', *, *, #409, .F. ) ;
#342 = FILL_AREA_STYLE_COLOUR ( '', #665 ) ;
#343 = EDGE_CURVE ( 'NONE', #519, #22, #224, .T. ) ;
#344 = VERTEX_POINT ( 'NONE', #53 ) ;
#345 =( NAMED_UNIT ( * ) PLANE_ANGLE_UNIT ( ) SI_UNIT ( $, .RADIAN. ) );
#346 = VERTEX_POINT ( 'NONE', #413 ) ;
#347 = ORIENTED_EDGE ( 'NONE', *, *, #334, .T. ) ;
#348 = DIRECTION ( 'NONE',  ( 0.0000000000000000000, -1.000000000000000000, 1.120284420785822179E-14 ) ) ;
#349 = VECTOR ( 'NONE', #613, 39.37007874015748143 ) ;
#350 = MECHANICAL_DESIGN_GEOMETRIC_PRESENTATION_REPRESENTATION (  '', ( #483 ), #374 ) ;
#351 = DIRECTION ( 'NONE',  ( 0.0000000000000000000, -1.000000000000000000, 1.120284420785822179E-14 ) ) ;
#352 = ORIENTED_EDGE ( 'NONE', *, *, #181, .F. ) ;
#353 = CARTESIAN_POINT ( 'NONE',  ( 0.0000000000000000000, -0.005905511811022701694, 1.720174251154299071E-15 ) ) ;
#354 = VERTEX_POINT ( 'NONE', #373 ) ;
#355 = DIRECTION ( 'NONE',  ( 1.000000000000000000, 0.0000000000000000000, 0.0000000000000000000 ) ) ;
#356 = EDGE_LOOP ( 'NONE', ( #81, #484, #318, #531, #230 ) ) ;
#357 =( LENGTH_UNIT ( ) NAMED_UNIT ( * ) SI_UNIT ( $, .METRE. ) );
#358 = EDGE_CURVE ( 'NONE', #209, #573, #107, .T. ) ;
#359 = VERTEX_POINT ( 'NONE', #586 ) ;
#360 = FILL_AREA_STYLE ('',( #152 ) ) ;
#361 = DIRECTION ( 'NONE',  ( 0.0000000000000000000, -1.000000000000000000, 1.120284420785822179E-14 ) ) ;
#362 = AXIS2_PLACEMENT_3D ( 'NONE', #191, #610, #187 ) ;
#363 =( GEOMETRIC_REPRESENTATION_CONTEXT ( 3 ) GLOBAL_UNCERTAINTY_ASSIGNED_CONTEXT ( ( #626 ) ) GLOBAL_UNIT_ASSIGNED_CONTEXT ( ( #68, #225, #489 ) ) REPRESENTATION_CONTEXT ( 'NONE', 'WORKASPACE' ) );
#364 = ORIENTED_EDGE ( 'NONE', *, *, #464, .T. ) ;
#365 = AXIS2_PLACEMENT_3D ( 'NONE', #57, #523, #52 ) ;
#366 = CARTESIAN_POINT ( 'NONE',  ( -0.04724409448818898266, -0.005905511811022283626, 0.03740157480315074029 ) ) ;
#367 = ORIENTED_EDGE ( 'NONE', *, *, #320, .T. ) ;
#368 = DIRECTION ( 'NONE',  ( 0.0000000000000000000, 1.120342244901688020E-14, 1.000000000000000000 ) ) ;
#369 = PRESENTATION_STYLE_ASSIGNMENT (( #690 ) ) ;
#370 = CIRCLE ( 'NONE', #606, 0.09448818897637795144 ) ;
#371 = EDGE_LOOP ( 'NONE', ( #693, #472, #692, #401 ) ) ;
#372 = CIRCLE ( 'NONE', #66, 0.007874015748031499423 ) ;
#373 = CARTESIAN_POINT ( 'NONE',  ( 0.1181077539699221940, 0.1909448818897638012, 0.0007657364012070259776 ) ) ;
#374 =( GEOMETRIC_REPRESENTATION_CONTEXT ( 3 ) GLOBAL_UNCERTAINTY_ASSIGNED_CONTEXT ( ( #474 ) ) GLOBAL_UNIT_ASSIGNED_CONTEXT ( ( #458, #396, #338 ) ) REPRESENTATION_CONTEXT ( 'NONE', 'WORKASPACE' ) );
#375 =( LENGTH_UNIT ( ) NAMED_UNIT ( * ) SI_UNIT ( $, .METRE. ) );
#376 = CYLINDRICAL_SURFACE ( 'NONE', #67, 0.007874015748031495954 ) ;
#377 = FILL_AREA_STYLE_COLOUR ( '', #329 ) ;
#378 = ADVANCED_FACE ( 'NONE', ( #60 ), #608, .T. ) ;
#379 = CARTESIAN_POINT ( 'NONE',  ( 0.0000000000000000000, 0.1240157480314960647, 2.646866178498854350E-16 ) ) ;
#380 =( LENGTH_UNIT ( ) NAMED_UNIT ( * ) SI_UNIT ( $, .METRE. ) );
#381 =( GEOMETRIC_REPRESENTATION_CONTEXT ( 3 ) GLOBAL_UNCERTAINTY_ASSIGNED_CONTEXT ( ( #518 ) ) GLOBAL_UNIT_ASSIGNED_CONTEXT ( ( #267, #64, #212 ) ) REPRESENTATION_CONTEXT ( 'NONE', 'WORKASPACE' ) );
#382 = CARTESIAN_POINT ( 'NONE',  ( 0.0000000000000000000, 0.2106299212598425064, -7.056384710197243460E-16 ) ) ;
#383 = AXIS2_PLACEMENT_3D ( 'NONE', #202, #488, #485 ) ;
#384 = DIRECTION ( 'NONE',  ( 0.0000000000000000000, -1.000000000000000000, 1.120284420785822179E-14 ) ) ;
#385 = CIRCLE ( 'NONE', #439, 0.09448818897637795144 ) ;
#386 = SURFACE_STYLE_USAGE ( .BOTH. , #539 ) ;
#387 = CARTESIAN_POINT ( 'NONE',  ( -0.03937007874015747977, -0.005905511811022283626, 0.03740157480315133703 ) ) ;
#388 = DIRECTION ( 'NONE',  ( -1.000000000000000000, 0.0000000000000000000, 0.0000000000000000000 ) ) ;
#389 = ORIENTED_EDGE ( 'NONE', *, *, #417, .T. ) ;
#390 = CARTESIAN_POINT ( 'NONE',  ( -0.04724409448818898266, 0.1043307086614187057, 0.03740157480315074029 ) ) ;
#391 = STYLED_ITEM ( 'NONE', ( #241 ), #265 ) ;
#392 = EDGE_CURVE ( 'NONE', #346, #619, #583, .T. ) ;
#393 = SURFACE_STYLE_FILL_AREA ( #232 ) ;
#394 = FACE_BOUND ( 'NONE', #213, .T. ) ;
#395 = CARTESIAN_POINT ( 'NONE',  ( -0.03937007874015747977, 0.1043307086614173318, -0.03740157480314913047 ) ) ;
#396 =( NAMED_UNIT ( * ) PLANE_ANGLE_UNIT ( ) SI_UNIT ( $, .RADIAN. ) );
#397 = ORIENTED_EDGE ( 'NONE', *, *, #129, .F. ) ;
#398 = EDGE_CURVE ( 'NONE', #689, #240, #185, .T. ) ;
#399 = EDGE_LOOP ( 'NONE', ( #45, #424, #476, #323 ) ) ;
#400 = CARTESIAN_POINT ( 'NONE',  ( 0.0000000000000000000, 0.1909448818897638012, -4.851100417311771481E-16 ) ) ;
#401 = ORIENTED_EDGE ( 'NONE', *, *, #529, .F. ) ;
#402 =( NAMED_UNIT ( * ) SI_UNIT ( $, .STERADIAN. ) SOLID_ANGLE_UNIT ( ) );
#403 = CYLINDRICAL_SURFACE ( 'NONE', #450, 0.007874015748031495954 ) ;
#404 = MECHANICAL_DESIGN_GEOMETRIC_PRESENTATION_REPRESENTATION (  '', ( #42 ), #415 ) ;
#405 = CARTESIAN_POINT ( 'NONE',  ( -0.04724409448818898266, 0.1043307086614173318, -0.03740157480314851290 ) ) ;
#406 = ORIENTED_EDGE ( 'NONE', *, *, #273, .T. ) ;
#407 = CARTESIAN_POINT ( 'NONE',  ( 0.0000000000000000000, 0.2106299212598425064, -7.056384710197243460E-16 ) ) ;
#408 = FACE_BOUND ( 'NONE', #59, .T. ) ;
#409 = EDGE_CURVE ( 'NONE', #309, #602, #643, .T. ) ;
#410 = ORIENTED_EDGE ( 'NONE', *, *, #675, .F. ) ;
#411 = DIMENSIONAL_EXPONENTS ( 1.000000000000000000, 0.0000000000000000000, 0.0000000000000000000, 0.0000000000000000000, 0.0000000000000000000, 0.0000000000000000000, 0.0000000000000000000 ) ;
#412 =( NAMED_UNIT ( * ) SI_UNIT ( $, .STERADIAN. ) SOLID_ANGLE_UNIT ( ) );
#413 = CARTESIAN_POINT ( 'NONE',  ( -0.03149606299212598381, 0.1043307086614173318, -0.03740157480314851290 ) ) ;
#414 = DIRECTION ( 'NONE',  ( -0.9999789836120076547, -7.263067013938455961E-17, -0.006483234863557047964 ) ) ;
#415 =( GEOMETRIC_REPRESENTATION_CONTEXT ( 3 ) GLOBAL_UNCERTAINTY_ASSIGNED_CONTEXT ( ( #462 ) ) GLOBAL_UNIT_ASSIGNED_CONTEXT ( ( #121, #434, #601 ) ) REPRESENTATION_CONTEXT ( 'NONE', 'WORKASPACE' ) );
#416 =( CONVERSION_BASED_UNIT ( 'INCH', #96 ) LENGTH_UNIT ( ) NAMED_UNIT ( #316 ) );
#417 = EDGE_CURVE ( 'NONE', #41, #215, #272, .T. ) ;
#418 = CARTESIAN_POINT ( 'NONE',  ( 0.0000000000000000000, 0.2106299212598425064, -7.056384710197243460E-16 ) ) ;
#419 =( NAMED_UNIT ( * ) PLANE_ANGLE_UNIT ( ) SI_UNIT ( $, .RADIAN. ) );
#420 = ORIENTED_EDGE ( 'NONE', *, *, #151, .T. ) ;
#421 =( NAMED_UNIT ( * ) PLANE_ANGLE_UNIT ( ) SI_UNIT ( $, .RADIAN. ) );
#422 =( NAMED_UNIT ( * ) PLANE_ANGLE_UNIT ( ) SI_UNIT ( $, .RADIAN. ) );
#423 = UNCERTAINTY_MEASURE_WITH_UNIT (LENGTH_MEASURE( 1.000000000000000082E-05 ), #48, 'distance_accuracy_value', 'NONE');
#424 = ORIENTED_EDGE ( 'NONE', *, *, #226, .T. ) ;
#425 = SURFACE_SIDE_STYLE ('',( #161 ) ) ;
#426 = MECHANICAL_DESIGN_GEOMETRIC_PRESENTATION_REPRESENTATION (  '', ( #595 ), #634 ) ;
#427 = DIRECTION ( 'NONE',  ( 0.0000000000000000000, 0.0000000000000000000, 1.000000000000000000 ) ) ;
#428 = MECHANICAL_DESIGN_GEOMETRIC_PRESENTATION_REPRESENTATION (  '', ( #137 ), #620 ) ;
#429 = AXIS2_PLACEMENT_3D ( 'NONE', #11, #438, #603 ) ;
#430 = CARTESIAN_POINT ( 'NONE',  ( -0.03937007874015747977, 0.1043307086614187057, 0.03740157480315012273 ) ) ;
#431 = CARTESIAN_POINT ( 'NONE',  ( -0.04724409448818898266, 0.1043307086614187057, 0.03740157480315012273 ) ) ;
#432 = AXIS2_PLACEMENT_3D ( 'NONE', #652, #427, #268 ) ;
#433 = DIRECTION ( 'NONE',  ( 0.0000000000000000000, -1.000000000000000000, 1.120284420785822179E-14 ) ) ;
#434 =( NAMED_UNIT ( * ) PLANE_ANGLE_UNIT ( ) SI_UNIT ( $, .RADIAN. ) );
#435 = PRESENTATION_STYLE_ASSIGNMENT (( #386 ) ) ;
#436 = PRESENTATION_STYLE_ASSIGNMENT (( #541 ) ) ;
#437 = COLOUR_RGB ( '',0.2509803921568627416, 0.2509803921568627416, 0.2509803921568627416 ) ;
#438 = DIRECTION ( 'NONE',  ( 0.0000000000000000000, -1.000000000000000000, 1.120284420785822179E-14 ) ) ;
#439 = AXIS2_PLACEMENT_3D ( 'NONE', #418, #157, #368 ) ;
#440 = EDGE_CURVE ( 'NONE', #156, #209, #385, .T. ) ;
#441 = DIRECTION ( 'NONE',  ( 0.0000000000000000000, -1.000000000000000000, 1.120284420785822179E-14 ) ) ;
#442 = AXIS2_PLACEMENT_3D ( 'NONE', #76, #625, #501 ) ;
#443 = CARTESIAN_POINT ( 'NONE',  ( -0.03937007874015747977, -0.005905511811023110222, -0.03740157480314790922 ) ) ;
#444 = DIRECTION ( 'NONE',  ( 0.0000000000000000000, 1.000000000000000000, -1.120284420785822179E-14 ) ) ;
#445 = DIRECTION ( 'NONE',  ( 0.0000000000000000000, -1.000000000000000000, 1.120284420785822179E-14 ) ) ;
#446 = ORIENTED_EDGE ( 'NONE', *, *, #358, .T. ) ;
#447 = FACE_BOUND ( 'NONE', #244, .T. ) ;
#448 = EDGE_CURVE ( 'NONE', #97, #359, #293, .T. ) ;
#449 = CYLINDRICAL_SURFACE ( 'NONE', #362, 0.1181102362204724532 ) ;
#450 = AXIS2_PLACEMENT_3D ( 'NONE', #6, #159, #217 ) ;
#451 = VECTOR ( 'NONE', #638, 39.37007874015748143 ) ;
#452 = CARTESIAN_POINT ( 'NONE',  ( 0.0000000000000000000, 0.1043307086614173318, 4.852150471384330274E-16 ) ) ;
#453 = ORIENTED_EDGE ( 'NONE', *, *, #158, .F. ) ;
#454 = COLOUR_RGB ( '',0.7921568627450980005, 0.8196078431372548767, 0.9333333333333333481 ) ;
#455 = DIRECTION ( 'NONE',  ( 1.000000000000000000, 0.0000000000000000000, 0.0000000000000000000 ) ) ;
#456 = ORIENTED_EDGE ( 'NONE', *, *, #79, .T. ) ;
#457 = CARTESIAN_POINT ( 'NONE',  ( -0.1181102362204724532, 0.2106299212598425064, -6.911741387463304084E-16 ) ) ;
#458 =( CONVERSION_BASED_UNIT ( 'INCH', #186 ) LENGTH_UNIT ( ) NAMED_UNIT ( #467 ) );
#459 = DIMENSIONAL_EXPONENTS ( 1.000000000000000000, 0.0000000000000000000, 0.0000000000000000000, 0.0000000000000000000, 0.0000000000000000000, 0.0000000000000000000, 0.0000000000000000000 ) ;
#460 = ORIENTED_EDGE ( 'NONE', *, *, #63, .T. ) ;
#461 = PRESENTATION_STYLE_ASSIGNMENT (( #32 ) ) ;
#462 = UNCERTAINTY_MEASURE_WITH_UNIT (LENGTH_MEASURE( 1.000000000000000082E-05 ), #121, 'distance_accuracy_value', 'NONE');
#463 = DIRECTION ( 'NONE',  ( 0.004563888651857800696, 1.120272753478364638E-14, 0.9999895854059548395 ) ) ;
#464 = EDGE_CURVE ( 'NONE', #146, #300, #123, .T. ) ;
#465 = ORIENTED_EDGE ( 'NONE', *, *, #440, .F. ) ;
#466 = STYLED_ITEM ( 'NONE', ( #577 ), #141 ) ;
#467 = DIMENSIONAL_EXPONENTS ( 1.000000000000000000, 0.0000000000000000000, 0.0000000000000000000, 0.0000000000000000000, 0.0000000000000000000, 0.0000000000000000000, 0.0000000000000000000 ) ;
#468 = AXIS2_PLACEMENT_3D ( 'NONE', #92, #351, #388 ) ;
#469 = EDGE_LOOP ( 'NONE', ( #410, #527, #628, #517, #183 ) ) ;
#470 = CARTESIAN_POINT ( 'NONE',  ( 0.1181102362204724532, 0.1909448818897638012, -1.102117119406458196E-16 ) ) ;
#471 = CARTESIAN_POINT ( 'NONE',  ( 0.09842417179192469723, 0.1240157480314960647, -0.0004492016389621292845 ) ) ;
#472 = ORIENTED_EDGE ( 'NONE', *, *, #110, .T. ) ;
#473 = APPLICATION_PROTOCOL_DEFINITION ( 'draft international standard', 'automotive_design', 1998, #594 ) ;
#474 = UNCERTAINTY_MEASURE_WITH_UNIT (LENGTH_MEASURE( 1.000000000000000082E-05 ), #458, 'distance_accuracy_value', 'NONE');
#475 = DIMENSIONAL_EXPONENTS ( 1.000000000000000000, 0.0000000000000000000, 0.0000000000000000000, 0.0000000000000000000, 0.0000000000000000000, 0.0000000000000000000, 0.0000000000000000000 ) ;
#476 = ORIENTED_EDGE ( 'NONE', *, *, #448, .F. ) ;
#477 = CARTESIAN_POINT ( 'NONE',  ( -0.03149606299212598381, 0.1043307086614187057, 0.03740157480315074029 ) ) ;
#478 = ORIENTED_EDGE ( 'NONE', *, *, #158, .T. ) ;
#479 = DIRECTION ( 'NONE',  ( 0.0000000000000000000, 1.000000000000000000, -1.120284420785822179E-14 ) ) ;
#480 = DIMENSIONAL_EXPONENTS ( 1.000000000000000000, 0.0000000000000000000, 0.0000000000000000000, 0.0000000000000000000, 0.0000000000000000000, 0.0000000000000000000, 0.0000000000000000000 ) ;
#481 = PRESENTATION_LAYER_ASSIGNMENT (  '', '', ( #4 ) ) ;
#482 = UNCERTAINTY_MEASURE_WITH_UNIT (LENGTH_MEASURE( 1.000000000000000082E-05 ), #134, 'distance_accuracy_value', 'NONE');
#483 = STYLED_ITEM ( 'NONE', ( #461 ), #589 ) ;
#484 = ORIENTED_EDGE ( 'NONE', *, *, #19, .T. ) ;
#485 = DIRECTION ( 'NONE',  ( -1.000000000000000000, 0.0000000000000000000, 0.0000000000000000000 ) ) ;
#486 = SURFACE_SIDE_STYLE ('',( #145 ) ) ;
#487 = ORIENTED_EDGE ( 'NONE', *, *, #98, .F. ) ;
#488 = DIRECTION ( 'NONE',  ( 0.0000000000000000000, -1.000000000000000000, 1.120284420785822179E-14 ) ) ;
#489 =( NAMED_UNIT ( * ) SI_UNIT ( $, .STERADIAN. ) SOLID_ANGLE_UNIT ( ) );
#490 = PRESENTATION_LAYER_ASSIGNMENT (  '', '', ( #391 ) ) ;
#491 = AXIS2_PLACEMENT_3D ( 'NONE', #50, #579, #218 ) ;
#492 = SURFACE_STYLE_FILL_AREA ( #544 ) ;
#493 = FACE_OUTER_BOUND ( 'NONE', #399, .T. ) ;
#494 = SURFACE_STYLE_USAGE ( .BOTH. , #122 ) ;
#495 = EDGE_LOOP ( 'NONE', ( #456, #113 ) ) ;
#496 = FACE_OUTER_BOUND ( 'NONE', #637, .T. ) ;
#497 = CARTESIAN_POINT ( 'NONE',  ( -0.1181102362204724532, 0.1909448818897638012, -9.574737966725185727E-17 ) ) ;
#498 = AXIS2_PLACEMENT_3D ( 'NONE', #644, #361, #414 ) ;
#499 = LINE ( 'NONE', #222, #74 ) ;
#500 = CIRCLE ( 'NONE', #687, 0.1181102362204724532 ) ;
#501 = DIRECTION ( 'NONE',  ( 0.9999789836120076547, 0.0000000000000000000, 0.006483234863557045362 ) ) ;
#502 = ADVANCED_FACE ( 'NONE', ( #496 ), #672, .T. ) ;
#503 = DIRECTION ( 'NONE',  ( 0.0000000000000000000, -1.120342244901688020E-14, -1.000000000000000000 ) ) ;
#504 = DIRECTION ( 'NONE',  ( 0.0000000000000000000, 1.000000000000000000, -1.120284420785822179E-14 ) ) ;
#505 = CARTESIAN_POINT ( 'NONE',  ( 0.0000000000000000000, 0.1043307086614173318, 4.852150471384330274E-16 ) ) ;
#506 = EDGE_LOOP ( 'NONE', ( #105, #478, #190, #487 ) ) ;
#507 = CARTESIAN_POINT ( 'NONE',  ( 0.1181090061503096422, 0.1240157480314960647, -0.0005390419667546079855 ) ) ;
#508 = FACE_OUTER_BOUND ( 'NONE', #495, .T. ) ;
#509 = AXIS2_PLACEMENT_3D ( 'NONE', #38, #463, #683 ) ;
#510 = SURFACE_STYLE_FILL_AREA ( #624 ) ;
#511 = DIRECTION ( 'NONE',  ( 0.0000000000000000000, 1.000000000000000000, -1.120284420785822179E-14 ) ) ;
#512 = LINE ( 'NONE', #188, #670 ) ;
#513 = DIMENSIONAL_EXPONENTS ( 1.000000000000000000, 0.0000000000000000000, 0.0000000000000000000, 0.0000000000000000000, 0.0000000000000000000, 0.0000000000000000000, 0.0000000000000000000 ) ;
#514 = SURFACE_SIDE_STYLE ('',( #299 ) ) ;
#515 = VERTEX_POINT ( 'NONE', #116 ) ;
#516 = DIRECTION ( 'NONE',  ( 1.000000000000000000, 0.0000000000000000000, 0.0000000000000000000 ) ) ;
#517 = ORIENTED_EDGE ( 'NONE', *, *, #645, .T. ) ;
#518 = UNCERTAINTY_MEASURE_WITH_UNIT (LENGTH_MEASURE( 1.000000000000000082E-05 ), #267, 'distance_accuracy_value', 'NONE');
#519 = VERTEX_POINT ( 'NONE', #590 ) ;
#520 = EDGE_LOOP ( 'NONE', ( #397, #559, #578, #352, #341, #557 ) ) ;
#521 = AXIS2_PLACEMENT_3D ( 'NONE', #278, #441, #332 ) ;
#522 = PRESENTATION_LAYER_ASSIGNMENT (  '', '', ( #75 ) ) ;
#523 = DIRECTION ( 'NONE',  ( 0.0000000000000000000, 1.000000000000000000, -1.120284420785822179E-14 ) ) ;
#524 = EDGE_LOOP ( 'NONE', ( #364, #536 ) ) ;
#525 = ADVANCED_FACE ( 'NONE', ( #331 ), #662, .T. ) ;
#526 = PRESENTATION_STYLE_ASSIGNMENT (( #535 ) ) ;
#527 = ORIENTED_EDGE ( 'NONE', *, *, #302, .T. ) ;
#528 = CARTESIAN_POINT ( 'NONE',  ( 0.0000000000000000000, 0.1240157480314960647, 2.646866178498854350E-16 ) ) ;
#529 = EDGE_CURVE ( 'NONE', #359, #97, #372, .T. ) ;
#530 = DIMENSIONAL_EXPONENTS ( 1.000000000000000000, 0.0000000000000000000, 0.0000000000000000000, 0.0000000000000000000, 0.0000000000000000000, 0.0000000000000000000, 0.0000000000000000000 ) ;
#531 = ORIENTED_EDGE ( 'NONE', *, *, #79, .F. ) ;
#532 = CARTESIAN_POINT ( 'NONE',  ( -1.157146581871514797E-17, 0.2106299212598435611, 0.09448818897637724368 ) ) ;
#533 = DIRECTION ( 'NONE',  ( 0.0000000000000000000, -1.000000000000000000, 1.120284420785822179E-14 ) ) ;
#534 = MECHANICAL_DESIGN_GEOMETRIC_PRESENTATION_REPRESENTATION (  '', ( #466 ), #381 ) ;
#535 = SURFACE_STYLE_USAGE ( .BOTH. , #289 ) ;
#536 = ORIENTED_EDGE ( 'NONE', *, *, #675, .T. ) ;
#537 = LINE ( 'NONE', #532, #635 ) ;
#538 = ADVANCED_FACE ( 'NONE', ( #170 ), #376, .T. ) ;
#539 = SURFACE_SIDE_STYLE ('',( #492 ) ) ;
#540 = DIRECTION ( 'NONE',  ( 0.0000000000000000000, 1.000000000000000000, -1.120284420785822179E-14 ) ) ;
#541 = SURFACE_STYLE_USAGE ( .BOTH. , #328 ) ;
#542 = CIRCLE ( 'NONE', #280, 0.007874015748031495954 ) ;
#543 = CIRCLE ( 'NONE', #10, 0.01968503937007875029 ) ;
#544 = FILL_AREA_STYLE ('',( #600 ) ) ;
#545 = FILL_AREA_STYLE ('',( #377 ) ) ;
#546 = PRESENTATION_LAYER_ASSIGNMENT (  '', '', ( #262 ) ) ;
#547 = EDGE_CURVE ( 'NONE', #585, #515, #636, .T. ) ;
#548 =( CONVERSION_BASED_UNIT ( 'INCH', #173 ) LENGTH_UNIT ( ) NAMED_UNIT ( #475 ) );
#549 = CYLINDRICAL_SURFACE ( 'NONE', #234, 0.007874015748031495954 ) ;
#550 = CARTESIAN_POINT ( 'NONE',  ( -1.157146581871515259E-17, 0.2106299212598435611, 0.09448818897637724368 ) ) ;
#551 = AXIS2_PLACEMENT_3D ( 'NONE', #471, #691, #90 ) ;
#552 = PRESENTATION_LAYER_ASSIGNMENT (  '', '', ( #466 ) ) ;
#553 = PRESENTATION_LAYER_ASSIGNMENT (  '', '', ( #259 ) ) ;
#554 = AXIS2_PLACEMENT_3D ( 'NONE', #285, #671, #455 ) ;
#555 = ORIENTED_EDGE ( 'NONE', *, *, #129, .T. ) ;
#556 = CARTESIAN_POINT ( 'NONE',  ( 0.09842312830826849268, 0.1909448818897638012, 0.0006381136676724408208 ) ) ;
#557 = ORIENTED_EDGE ( 'NONE', *, *, #658, .F. ) ;
#558 = FACE_OUTER_BOUND ( 'NONE', #576, .T. ) ;
#559 = ORIENTED_EDGE ( 'NONE', *, *, #85, .T. ) ;
#560 = AXIS2_PLACEMENT_3D ( 'NONE', #570, #95, #24 ) ;
#561 = FILL_AREA_STYLE ('',( #83 ) ) ;
#562 =( GEOMETRIC_REPRESENTATION_CONTEXT ( 3 ) GLOBAL_UNCERTAINTY_ASSIGNED_CONTEXT ( ( #246 ) ) GLOBAL_UNIT_ASSIGNED_CONTEXT ( ( #694, #421, #46 ) ) REPRESENTATION_CONTEXT ( 'NONE', 'WORKASPACE' ) );
#563 = DIRECTION ( 'NONE',  ( -1.000000000000000000, 0.0000000000000000000, 0.0000000000000000000 ) ) ;
#564 = CARTESIAN_POINT ( 'NONE',  ( 0.09842417179192469723, 0.1043307086614173318, -0.0004492016389619087036 ) ) ;
#565 = DIRECTION ( 'NONE',  ( 0.0000000000000000000, -1.000000000000000000, 1.120284420785822179E-14 ) ) ;
#566 = PRESENTATION_STYLE_ASSIGNMENT (( #135 ) ) ;
#567 = VERTEX_POINT ( 'NONE', #507 ) ;
#568 = ORIENTED_EDGE ( 'NONE', *, *, #529, .T. ) ;
#569 = DIRECTION ( 'NONE',  ( 1.000000000000000000, 0.0000000000000000000, 0.0000000000000000000 ) ) ;
#570 = CARTESIAN_POINT ( 'NONE',  ( 0.0000000000000000000, 0.2106299212598425064, -7.056384710197243460E-16 ) ) ;
#571 =( CONVERSION_BASED_UNIT ( 'INCH', #263 ) LENGTH_UNIT ( ) NAMED_UNIT ( #37 ) );
#572 = UNCERTAINTY_MEASURE_WITH_UNIT (LENGTH_MEASURE( 1.000000000000000082E-05 ), #548, 'distance_accuracy_value', 'NONE');
#573 = VERTEX_POINT ( 'NONE', #193 ) ;
#574 = DIRECTION ( 'NONE',  ( -1.000000000000000000, 0.0000000000000000000, 0.0000000000000000000 ) ) ;
#575 = AXIS2_PLACEMENT_3D ( 'NONE', #528, #631, #574 ) ;
#576 = EDGE_LOOP ( 'NONE', ( #94, #568 ) ) ;
#577 = PRESENTATION_STYLE_ASSIGNMENT (( #266 ) ) ;
#578 = ORIENTED_EDGE ( 'NONE', *, *, #343, .F. ) ;
#579 = DIRECTION ( 'NONE',  ( 0.0000000000000000000, -1.000000000000000000, 1.120284420785822179E-14 ) ) ;
#580 = VERTEX_POINT ( 'NONE', #282 ) ;
#581 = CARTESIAN_POINT ( 'NONE',  ( -0.03937007874015747977, 0.1043307086614173318, -0.03740157480314913047 ) ) ;
#582 = AXIS2_PLACEMENT_3D ( 'NONE', #14, #333, #503 ) ;
#583 = CIRCLE ( 'NONE', #56, 0.007874015748031499423 ) ;
#584 = ADVANCED_FACE ( 'NONE', ( #681 ), #27, .T. ) ;
#585 = VERTEX_POINT ( 'NONE', #564 ) ;
#586 = CARTESIAN_POINT ( 'NONE',  ( -0.04724409448818898266, -0.005905511811023110222, -0.03740157480314851290 ) ) ;
#587 = CIRCLE ( 'NONE', #199, 0.1181102362204724532 ) ;
#588 = FACE_OUTER_BOUND ( 'NONE', #178, .T. ) ;
#589 = MANIFOLD_SOLID_BREP ( 'Imported1', #73 ) ;
#590 = CARTESIAN_POINT ( 'NONE',  ( -0.1181090061503096422, 0.1240157480314960647, 0.0005390419667551230899 ) ) ;
#591 = CARTESIAN_POINT ( 'NONE',  ( -0.09842312830826849268, 0.2106299212598425619, -0.0006381136676736435262 ) ) ;
#592 = PRODUCT_CONTEXT ( 'NONE', #594, 'mechanical' ) ;
#593 = PRESENTATION_STYLE_ASSIGNMENT (( #65 ) ) ;
#594 = APPLICATION_CONTEXT ( 'automotive_design' ) ;
#595 = STYLED_ITEM ( 'NONE', ( #566 ), #112 ) ;
#596 = AXIS2_PLACEMENT_3D ( 'NONE', #30, #614, #192 ) ;
#597 = MECHANICAL_DESIGN_GEOMETRIC_PRESENTATION_REPRESENTATION (  '', ( #259 ), #562 ) ;
#598 = COLOUR_RGB ( '',1.000000000000000000, 1.000000000000000000, 1.000000000000000000 ) ;
#599 =( GEOMETRIC_REPRESENTATION_CONTEXT ( 3 ) GLOBAL_UNCERTAINTY_ASSIGNED_CONTEXT ( ( #254 ) ) GLOBAL_UNIT_ASSIGNED_CONTEXT ( ( #571, #422, #214 ) ) REPRESENTATION_CONTEXT ( 'NONE', 'WORKASPACE' ) );
#600 = FILL_AREA_STYLE_COLOUR ( '', #86 ) ;
#601 =( NAMED_UNIT ( * ) SI_UNIT ( $, .STERADIAN. ) SOLID_ANGLE_UNIT ( ) );
#602 = VERTEX_POINT ( 'NONE', #197 ) ;
#603 = DIRECTION ( 'NONE',  ( -1.000000000000000000, 0.0000000000000000000, 0.0000000000000000000 ) ) ;
#604 = FACE_OUTER_BOUND ( 'NONE', #200, .T. ) ;
#605 = EDGE_CURVE ( 'NONE', #344, #573, #295, .T. ) ;
#606 = AXIS2_PLACEMENT_3D ( 'NONE', #271, #444, #69 ) ;
#607 = DIRECTION ( 'NONE',  ( 1.000000000000000000, 0.0000000000000000000, 0.0000000000000000000 ) ) ;
#608 = TOROIDAL_SURFACE ( 'NONE', #491, 0.09842519685039370636, 0.01968503937007873988 ) ;
#609 = ORIENTED_EDGE ( 'NONE', *, *, #85, .F. ) ;
#610 = DIRECTION ( 'NONE',  ( 0.0000000000000000000, -1.000000000000000000, 1.120284420785822179E-14 ) ) ;
#611 = AXIS2_PLACEMENT_3D ( 'NONE', #668, #678, #607 ) ;
#612 = CARTESIAN_POINT ( 'NONE',  ( -0.03937007874015747977, 0.1043307086614187057, 0.03740157480315012273 ) ) ;
#613 = DIRECTION ( 'NONE',  ( 0.0000000000000000000, -1.000000000000000000, 1.120284420785822179E-14 ) ) ;
#614 = DIRECTION ( 'NONE',  ( 0.0000000000000000000, -1.000000000000000000, 1.120284420785822179E-14 ) ) ;
#615 = EDGE_LOOP ( 'NONE', ( #453, #256, #142, #82 ) ) ;
#616 = SURFACE_SIDE_STYLE ('',( #510 ) ) ;
#617 = CARTESIAN_POINT ( 'NONE',  ( 0.0000000000000000000, 0.2165354330708661457, -7.717969998062893732E-16 ) ) ;
#618 = CIRCLE ( 'NONE', #335, 0.09842519685039370636 ) ;
#619 = VERTEX_POINT ( 'NONE', #405 ) ;
#620 =( GEOMETRIC_REPRESENTATION_CONTEXT ( 3 ) GLOBAL_UNCERTAINTY_ASSIGNED_CONTEXT ( ( #317 ) ) GLOBAL_UNIT_ASSIGNED_CONTEXT ( ( #660, #345, #29 ) ) REPRESENTATION_CONTEXT ( 'NONE', 'WORKASPACE' ) );
#621 = PLANE ( 'NONE',  #16 ) ;
#622 = AXIS2_PLACEMENT_3D ( 'NONE', #382, #220, #179 ) ;
#623 = DIMENSIONAL_EXPONENTS ( 1.000000000000000000, 0.0000000000000000000, 0.0000000000000000000, 0.0000000000000000000, 0.0000000000000000000, 0.0000000000000000000, 0.0000000000000000000 ) ;
#624 = FILL_AREA_STYLE ('',( #291 ) ) ;
#625 = DIRECTION ( 'NONE',  ( -0.006483234863557048831, 1.120260876453773248E-14, 0.9999789836120077657 ) ) ;
#626 = UNCERTAINTY_MEASURE_WITH_UNIT (LENGTH_MEASURE( 1.000000000000000082E-05 ), #68, 'distance_accuracy_value', 'NONE');
#627 = EDGE_LOOP ( 'NONE', ( #420, #44 ) ) ;
#628 = ORIENTED_EDGE ( 'NONE', *, *, #658, .T. ) ;
#629 = EDGE_CURVE ( 'NONE', #146, #41, #91, .T. ) ;
#630 =( LENGTH_UNIT ( ) NAMED_UNIT ( * ) SI_UNIT ( $, .METRE. ) );
#631 = DIRECTION ( 'NONE',  ( 0.0000000000000000000, -1.000000000000000000, 1.120284420785822179E-14 ) ) ;
#632 = PRODUCT_DEFINITION_CONTEXT ( 'detailed design', #312, 'design' ) ;
#633 = DIRECTION ( 'NONE',  ( 0.0000000000000000000, -1.000000000000000000, 1.120284420785822179E-14 ) ) ;
#634 =( GEOMETRIC_REPRESENTATION_CONTEXT ( 3 ) GLOBAL_UNCERTAINTY_ASSIGNED_CONTEXT ( ( #36 ) ) GLOBAL_UNIT_ASSIGNED_CONTEXT ( ( #155, #419, #324 ) ) REPRESENTATION_CONTEXT ( 'NONE', 'WORKASPACE' ) );
#635 = VECTOR ( 'NONE', #315, 39.37007874015748143 ) ;
#636 = CIRCLE ( 'NONE', #468, 0.09842519685039370636 ) ;
#637 = EDGE_LOOP ( 'NONE', ( #125, #367, #5, #406, #303 ) ) ;
#638 = DIRECTION ( 'NONE',  ( 0.0000000000000000000, 1.000000000000000000, -1.120284420785822179E-14 ) ) ;
#639 = PRODUCT_RELATED_PRODUCT_CATEGORY ( 'part', '', ( #279 ) ) ;
#640 =( LENGTH_UNIT ( ) NAMED_UNIT ( * ) SI_UNIT ( $, .METRE. ) );
#641 =( NAMED_UNIT ( * ) PLANE_ANGLE_UNIT ( ) SI_UNIT ( $, .RADIAN. ) );
#642 = ORIENTED_EDGE ( 'NONE', *, *, #110, .F. ) ;
#643 = LINE ( 'NONE', #205, #651 ) ;
#644 = CARTESIAN_POINT ( 'NONE',  ( 0.0000000000000000000, 0.1909448818897638012, -4.851100417311771481E-16 ) ) ;
#645 = EDGE_CURVE ( 'NONE', #309, #41, #500, .T. ) ;
#646 = SHAPE_DEFINITION_REPRESENTATION ( #71, #163 ) ;
#647 = ORIENTED_EDGE ( 'NONE', *, *, #334, .F. ) ;
#648 =( LENGTH_UNIT ( ) NAMED_UNIT ( * ) SI_UNIT ( $, .METRE. ) );
#649 = CIRCLE ( 'NONE', #136, 0.007874015748031495954 ) ;
#650 = VECTOR ( 'NONE', #180, 39.37007874015748143 ) ;
#651 = VECTOR ( 'NONE', #633, 39.37007874015748143 ) ;
#652 = CARTESIAN_POINT ( 'NONE',  ( 0.0000000000000000000, 0.0000000000000000000, 0.0000000000000000000 ) ) ;
#653 = DIRECTION ( 'NONE',  ( 1.000000000000000000, 0.0000000000000000000, 0.0000000000000000000 ) ) ;
#654 = PRESENTATION_LAYER_ASSIGNMENT (  '', '', ( #120 ) ) ;
#655 = LENGTH_MEASURE_WITH_UNIT ( LENGTH_MEASURE( 0.02539999999999999897 ), #657 );
#656 = DIRECTION ( 'NONE',  ( 0.0000000000000000000, -1.000000000000000000, 1.120284420785822179E-14 ) ) ;
#657 =( LENGTH_UNIT ( ) NAMED_UNIT ( * ) SI_UNIT ( $, .METRE. ) );
#658 = EDGE_CURVE ( 'NONE', #354, #309, #587, .T. ) ;
#659 = DIRECTION ( 'NONE',  ( 0.0000000000000000000, -1.000000000000000000, 1.120284420785822179E-14 ) ) ;
#660 =( CONVERSION_BASED_UNIT ( 'INCH', #275 ) LENGTH_UNIT ( ) NAMED_UNIT ( #255 ) );
#661 = AXIS2_PLACEMENT_3D ( 'NONE', #407, #669, #126 ) ;
#662 = CYLINDRICAL_SURFACE ( 'NONE', #153, 0.007874015748031495954 ) ;
#663 = MECHANICAL_DESIGN_GEOMETRIC_PRESENTATION_REPRESENTATION (  '', ( #262 ), #599 ) ;
#664 = DIRECTION ( 'NONE',  ( 0.0000000000000000000, -1.000000000000000000, 1.120284420785822179E-14 ) ) ;
#665 = COLOUR_RGB ( '',0.2509803921568627416, 0.2509803921568627416, 0.2509803921568627416 ) ;
#666 = LENGTH_MEASURE_WITH_UNIT ( LENGTH_MEASURE( 0.02539999999999999897 ), #13 );
#667 = PRESENTATION_STYLE_ASSIGNMENT (( #494 ) ) ;
#668 = CARTESIAN_POINT ( 'NONE',  ( 0.0000000000000000000, 0.2106299212598425064, -7.056384710197243460E-16 ) ) ;
#669 = DIRECTION ( 'NONE',  ( 0.0000000000000000000, 1.000000000000000000, -1.120284420785822179E-14 ) ) ;
#670 = VECTOR ( 'NONE', #677, 39.37007874015748143 ) ;
#671 = DIRECTION ( 'NONE',  ( 0.0000000000000000000, -1.000000000000000000, 1.120284420785822179E-14 ) ) ;
#672 = TOROIDAL_SURFACE ( 'NONE', #17, 0.09842519685039370636, 0.01968503937007873988 ) ;
#673 = FACE_OUTER_BOUND ( 'NONE', #204, .T. ) ;
#674 = DIRECTION ( 'NONE',  ( -1.000000000000000000, 0.0000000000000000000, 0.0000000000000000000 ) ) ;
#675 = EDGE_CURVE ( 'NONE', #300, #146, #31, .T. ) ;
#676 = ORIENTED_EDGE ( 'NONE', *, *, #302, .F. ) ;
#677 = DIRECTION ( 'NONE',  ( 0.0000000000000000000, -1.000000000000000000, 1.120284420785822179E-14 ) ) ;
#678 = DIRECTION ( 'NONE',  ( 0.0000000000000000000, 1.000000000000000000, -1.120284420785822179E-14 ) ) ;
#679 = ORIENTED_EDGE ( 'NONE', *, *, #169, .T. ) ;
#680 = FACE_OUTER_BOUND ( 'NONE', #371, .T. ) ;
#681 = FACE_OUTER_BOUND ( 'NONE', #520, .T. ) ;
#682 = AXIS2_PLACEMENT_3D ( 'NONE', #261, #47, #162 ) ;
#683 = DIRECTION ( 'NONE',  ( 0.9999895854059548395, 0.0000000000000000000, -0.004563888651857797227 ) ) ;
#684 = COLOUR_RGB ( '',0.2509803921568627416, 0.2509803921568627416, 0.2509803921568627416 ) ;
#685 = ADVANCED_FACE ( 'NONE', ( #78 ), #23, .T. ) ;
#686 = DIRECTION ( 'NONE',  ( 0.0000000000000000000, -1.000000000000000000, 1.120284420785822179E-14 ) ) ;
#687 = AXIS2_PLACEMENT_3D ( 'NONE', #400, #511, #294 ) ;
#688 = LENGTH_MEASURE_WITH_UNIT ( LENGTH_MEASURE( 0.02539999999999999897 ), #630 );
#689 = VERTEX_POINT ( 'NONE', #477 ) ;
#690 = SURFACE_STYLE_USAGE ( .BOTH. , #425 ) ;
#691 = DIRECTION ( 'NONE',  ( -0.004563888651857922994, -1.120272753478364638E-14, -0.9999895854059548395 ) ) ;
#692 = ORIENTED_EDGE ( 'NONE', *, *, #250, .T. ) ;
#693 = ORIENTED_EDGE ( 'NONE', *, *, #226, .F. ) ;
#694 =( CONVERSION_BASED_UNIT ( 'INCH', #165 ) LENGTH_UNIT ( ) NAMED_UNIT ( #459 ) );
#695 = DIRECTION ( 'NONE',  ( -1.000000000000000000, 0.0000000000000000000, 0.0000000000000000000 ) ) ;
ENDSEC;
END-ISO-10303-21;
