#VRML V2.0 utf8
DEF CASE Appearance { material Material { diffuseColor 0.025 0.32 0.67 specularColor 0.12 0.18 0.24 shininess 0.42 } }
DEF LID Appearance { material Material { diffuseColor 0.035 0.37 0.72 specularColor 0.12 0.19 0.27 shininess 0.45 } }
DEF SEAM Appearance { material Material { diffuseColor 0.012 0.19 0.43 specularColor 0.06 0.10 0.15 shininess 0.24 } }
DEF TIN Appearance { material Material { diffuseColor 0.68 0.71 0.73 specularColor 0.38 0.39 0.41 shininess 0.72 } }
# moulded blue case
Shape { appearance USE CASE geometry IndexedFaceSet { coord Coordinate { point [ 5.83858 2.84055 0.00000, 5.83838 2.84208 0.00000, 5.83779 2.84350 0.00000, 5.83685 2.84473 0.00000, 5.83563 2.84567 0.00000, 5.83421 2.84626 0.00000, 5.83268 2.84646 0.00000, -5.83268 2.84646 0.00000, -5.83421 2.84626 0.00000, -5.83563 2.84567 0.00000, -5.83685 2.84473 0.00000, -5.83779 2.84350 0.00000, -5.83838 2.84208 0.00000, -5.83858 2.84055 0.00000, -5.83858 -2.84055 0.00000, -5.83838 -2.84208 0.00000, -5.83779 -2.84350 0.00000, -5.83685 -2.84473 0.00000, -5.83563 -2.84567 0.00000, -5.83421 -2.84626 0.00000, -5.83268 -2.84646 0.00000, 5.83268 -2.84646 0.00000, 5.83421 -2.84626 0.00000, 5.83563 -2.84567 0.00000, 5.83685 -2.84473 0.00000, 5.83779 -2.84350 0.00000, 5.83838 -2.84208 0.00000, 5.83858 -2.84055 0.00000, 5.89646 2.84646 0.04134, 5.89448 2.86144 0.04134, 5.88870 2.87539 0.04134, 5.87951 2.88738 0.04134, 5.86752 2.89658 0.04134, 5.85356 2.90236 0.04134, 5.83858 2.90433 0.04134, -5.83858 2.90433 0.04134, -5.85356 2.90236 0.04134, -5.86752 2.89658 0.04134, -5.87951 2.88738 0.04134, -5.88870 2.87539 0.04134, -5.89448 2.86144 0.04134, -5.89646 2.84646 0.04134, -5.89646 -2.84646 0.04134, -5.89448 -2.86144 0.04134, -5.88870 -2.87539 0.04134, -5.87951 -2.88738 0.04134, -5.86752 -2.89658 0.04134, -5.85356 -2.90236 0.04134, -5.83858 -2.90433 0.04134, 5.83858 -2.90433 0.04134, 5.85356 -2.90236 0.04134, 5.86752 -2.89658 0.04134, 5.87951 -2.88738 0.04134, 5.88870 -2.87539 0.04134, 5.89448 -2.86144 0.04134, 5.89646 -2.84646 0.04134, 5.96260 2.84646 0.10748, 5.95837 2.87855 0.10748, 5.94598 2.90846 0.10748, 5.92628 2.93415 0.10748, 5.90059 2.95386 0.10748, 5.87068 2.96625 0.10748, 5.83858 2.97047 0.10748, -5.83858 2.97047 0.10748, -5.87068 2.96625 0.10748, -5.90059 2.95386 0.10748, -5.92628 2.93415 0.10748, -5.94598 2.90846 0.10748, -5.95837 2.87855 0.10748, -5.96260 2.84646 0.10748, -5.96260 -2.84646 0.10748, -5.95837 -2.87855 0.10748, -5.94598 -2.90846 0.10748, -5.92628 -2.93415 0.10748, -5.90059 -2.95386 0.10748, -5.87068 -2.96625 0.10748, -5.83858 -2.97047 0.10748, 5.83858 -2.97047 0.10748, 5.87068 -2.96625 0.10748, 5.90059 -2.95386 0.10748, 5.92628 -2.93415 0.10748, 5.94598 -2.90846 0.10748, 5.95837 -2.87855 0.10748, 5.96260 -2.84646 0.10748, 6.00394 2.84646 0.16535, 5.99830 2.88925 0.16535, 5.98178 2.92913 0.16535, 5.95551 2.96338 0.16535, 5.92126 2.98966 0.16535, 5.88138 3.00618 0.16535, 5.83858 3.01181 0.16535, -5.83858 3.01181 0.16535, -5.88138 3.00618 0.16535, -5.92126 2.98966 0.16535, -5.95551 2.96338 0.16535, -5.98178 2.92913 0.16535, -5.99830 2.88925 0.16535, -6.00394 2.84646 0.16535, -6.00394 -2.84646 0.16535, -5.99830 -2.88925 0.16535, -5.98178 -2.92913 0.16535, -5.95551 -2.96338 0.16535, -5.92126 -2.98966 0.16535, -5.88138 -3.00618 0.16535, -5.83858 -3.01181 0.16535, 5.83858 -3.01181 0.16535, 5.88138 -3.00618 0.16535, 5.92126 -2.98966 0.16535, 5.95551 -2.96338 0.16535, 5.98178 -2.92913 0.16535, 5.99830 -2.88925 0.16535, 6.00394 -2.84646 0.16535, 6.00394 2.84646 8.44976, 5.99830 2.88925 8.44976, 5.98178 2.92913 8.44976, 5.95551 2.96338 8.44976, 5.92126 2.98966 8.44976, 5.88138 3.00618 8.44976, 5.83858 3.01181 8.44976, -5.83858 3.01181 8.44976, -5.88138 3.00618 8.44976, -5.92126 2.98966 8.44976, -5.95551 2.96338 8.44976, -5.98178 2.92913 8.44976, -5.99830 2.88925 8.44976, -6.00394 2.84646 8.44976, -6.00394 -2.84646 8.44976, -5.99830 -2.88925 8.44976, -5.98178 -2.92913 8.44976, -5.95551 -2.96338 8.44976, -5.92126 -2.98966 8.44976, -5.88138 -3.00618 8.44976, -5.83858 -3.01181 8.44976, 5.83858 -3.01181 8.44976, 5.88138 -3.00618 8.44976, 5.92126 -2.98966 8.44976, 5.95551 -2.96338 8.44976, 5.98178 -2.92913 8.44976, 5.99830 -2.88925 8.44976, 6.00394 -2.84646 8.44976, 5.96260 2.84646 8.50764, 5.95837 2.87855 8.50764, 5.94598 2.90846 8.50764, 5.92628 2.93415 8.50764, 5.90059 2.95386 8.50764, 5.87068 2.96625 8.50764, 5.83858 2.97047 8.50764, -5.83858 2.97047 8.50764, -5.87068 2.96625 8.50764, -5.90059 2.95386 8.50764, -5.92628 2.93415 8.50764, -5.94598 2.90846 8.50764, -5.95837 2.87855 8.50764, -5.96260 2.84646 8.50764, -5.96260 -2.84646 8.50764, -5.95837 -2.87855 8.50764, -5.94598 -2.90846 8.50764, -5.92628 -2.93415 8.50764, -5.90059 -2.95386 8.50764, -5.87068 -2.96625 8.50764, -5.83858 -2.97047 8.50764, 5.83858 -2.97047 8.50764, 5.87068 -2.96625 8.50764, 5.90059 -2.95386 8.50764, 5.92628 -2.93415 8.50764, 5.94598 -2.90846 8.50764, 5.95837 -2.87855 8.50764, 5.96260 -2.84646 8.50764, 5.89646 2.84646 8.57378, 5.89448 2.86144 8.57378, 5.88870 2.87539 8.57378, 5.87951 2.88738 8.57378, 5.86752 2.89658 8.57378, 5.85356 2.90236 8.57378, 5.83858 2.90433 8.57378, -5.83858 2.90433 8.57378, -5.85356 2.90236 8.57378, -5.86752 2.89658 8.57378, -5.87951 2.88738 8.57378, -5.88870 2.87539 8.57378, -5.89448 2.86144 8.57378, -5.89646 2.84646 8.57378, -5.89646 -2.84646 8.57378, -5.89448 -2.86144 8.57378, -5.88870 -2.87539 8.57378, -5.87951 -2.88738 8.57378, -5.86752 -2.89658 8.57378, -5.85356 -2.90236 8.57378, -5.83858 -2.90433 8.57378, 5.83858 -2.90433 8.57378, 5.85356 -2.90236 8.57378, 5.86752 -2.89658 8.57378, 5.87951 -2.88738 8.57378, 5.88870 -2.87539 8.57378, 5.89448 -2.86144 8.57378, 5.89646 -2.84646 8.57378, 5.83858 2.84055 8.61512, 5.83838 2.84208 8.61512, 5.83779 2.84350 8.61512, 5.83685 2.84473 8.61512, 5.83563 2.84567 8.61512, 5.83421 2.84626 8.61512, 5.83268 2.84646 8.61512, -5.83268 2.84646 8.61512, -5.83421 2.84626 8.61512, -5.83563 2.84567 8.61512, -5.83685 2.84473 8.61512, -5.83779 2.84350 8.61512, -5.83838 2.84208 8.61512, -5.83858 2.84055 8.61512, -5.83858 -2.84055 8.61512, -5.83838 -2.84208 8.61512, -5.83779 -2.84350 8.61512, -5.83685 -2.84473 8.61512, -5.83563 -2.84567 8.61512, -5.83421 -2.84626 8.61512, -5.83268 -2.84646 8.61512, 5.83268 -2.84646 8.61512, 5.83421 -2.84626 8.61512, 5.83563 -2.84567 8.61512, 5.83685 -2.84473 8.61512, 5.83779 -2.84350 8.61512, 5.83838 -2.84208 8.61512, 5.83858 -2.84055 8.61512 ] } coordIndex [ 0, 1, 29, 28, -1, 1, 2, 30, 29, -1, 2, 3, 31, 30, -1, 3, 4, 32, 31, -1, 4, 5, 33, 32, -1, 5, 6, 34, 33, -1, 6, 7, 35, 34, -1, 7, 8, 36, 35, -1, 8, 9, 37, 36, -1, 9, 10, 38, 37, -1, 10, 11, 39, 38, -1, 11, 12, 40, 39, -1, 12, 13, 41, 40, -1, 13, 14, 42, 41, -1, 14, 15, 43, 42, -1, 15, 16, 44, 43, -1, 16, 17, 45, 44, -1, 17, 18, 46, 45, -1, 18, 19, 47, 46, -1, 19, 20, 48, 47, -1, 20, 21, 49, 48, -1, 21, 22, 50, 49, -1, 22, 23, 51, 50, -1, 23, 24, 52, 51, -1, 24, 25, 53, 52, -1, 25, 26, 54, 53, -1, 26, 27, 55, 54, -1, 27, 0, 28, 55, -1, 28, 29, 57, 56, -1, 29, 30, 58, 57, -1, 30, 31, 59, 58, -1, 31, 32, 60, 59, -1, 32, 33, 61, 60, -1, 33, 34, 62, 61, -1, 34, 35, 63, 62, -1, 35, 36, 64, 63, -1, 36, 37, 65, 64, -1, 37, 38, 66, 65, -1, 38, 39, 67, 66, -1, 39, 40, 68, 67, -1, 40, 41, 69, 68, -1, 41, 42, 70, 69, -1, 42, 43, 71, 70, -1, 43, 44, 72, 71, -1, 44, 45, 73, 72, -1, 45, 46, 74, 73, -1, 46, 47, 75, 74, -1, 47, 48, 76, 75, -1, 48, 49, 77, 76, -1, 49, 50, 78, 77, -1, 50, 51, 79, 78, -1, 51, 52, 80, 79, -1, 52, 53, 81, 80, -1, 53, 54, 82, 81, -1, 54, 55, 83, 82, -1, 55, 28, 56, 83, -1, 56, 57, 85, 84, -1, 57, 58, 86, 85, -1, 58, 59, 87, 86, -1, 59, 60, 88, 87, -1, 60, 61, 89, 88, -1, 61, 62, 90, 89, -1, 62, 63, 91, 90, -1, 63, 64, 92, 91, -1, 64, 65, 93, 92, -1, 65, 66, 94, 93, -1, 66, 67, 95, 94, -1, 67, 68, 96, 95, -1, 68, 69, 97, 96, -1, 69, 70, 98, 97, -1, 70, 71, 99, 98, -1, 71, 72, 100, 99, -1, 72, 73, 101, 100, -1, 73, 74, 102, 101, -1, 74, 75, 103, 102, -1, 75, 76, 104, 103, -1, 76, 77, 105, 104, -1, 77, 78, 106, 105, -1, 78, 79, 107, 106, -1, 79, 80, 108, 107, -1, 80, 81, 109, 108, -1, 81, 82, 110, 109, -1, 82, 83, 111, 110, -1, 83, 56, 84, 111, -1, 84, 85, 113, 112, -1, 85, 86, 114, 113, -1, 86, 87, 115, 114, -1, 87, 88, 116, 115, -1, 88, 89, 117, 116, -1, 89, 90, 118, 117, -1, 90, 91, 119, 118, -1, 91, 92, 120, 119, -1, 92, 93, 121, 120, -1, 93, 94, 122, 121, -1, 94, 95, 123, 122, -1, 95, 96, 124, 123, -1, 96, 97, 125, 124, -1, 97, 98, 126, 125, -1, 98, 99, 127, 126, -1, 99, 100, 128, 127, -1, 100, 101, 129, 128, -1, 101, 102, 130, 129, -1, 102, 103, 131, 130, -1, 103, 104, 132, 131, -1, 104, 105, 133, 132, -1, 105, 106, 134, 133, -1, 106, 107, 135, 134, -1, 107, 108, 136, 135, -1, 108, 109, 137, 136, -1, 109, 110, 138, 137, -1, 110, 111, 139, 138, -1, 111, 84, 112, 139, -1, 112, 113, 141, 140, -1, 113, 114, 142, 141, -1, 114, 115, 143, 142, -1, 115, 116, 144, 143, -1, 116, 117, 145, 144, -1, 117, 118, 146, 145, -1, 118, 119, 147, 146, -1, 119, 120, 148, 147, -1, 120, 121, 149, 148, -1, 121, 122, 150, 149, -1, 122, 123, 151, 150, -1, 123, 124, 152, 151, -1, 124, 125, 153, 152, -1, 125, 126, 154, 153, -1, 126, 127, 155, 154, -1, 127, 128, 156, 155, -1, 128, 129, 157, 156, -1, 129, 130, 158, 157, -1, 130, 131, 159, 158, -1, 131, 132, 160, 159, -1, 132, 133, 161, 160, -1, 133, 134, 162, 161, -1, 134, 135, 163, 162, -1, 135, 136, 164, 163, -1, 136, 137, 165, 164, -1, 137, 138, 166, 165, -1, 138, 139, 167, 166, -1, 139, 112, 140, 167, -1, 140, 141, 169, 168, -1, 141, 142, 170, 169, -1, 142, 143, 171, 170, -1, 143, 144, 172, 171, -1, 144, 145, 173, 172, -1, 145, 146, 174, 173, -1, 146, 147, 175, 174, -1, 147, 148, 176, 175, -1, 148, 149, 177, 176, -1, 149, 150, 178, 177, -1, 150, 151, 179, 178, -1, 151, 152, 180, 179, -1, 152, 153, 181, 180, -1, 153, 154, 182, 181, -1, 154, 155, 183, 182, -1, 155, 156, 184, 183, -1, 156, 157, 185, 184, -1, 157, 158, 186, 185, -1, 158, 159, 187, 186, -1, 159, 160, 188, 187, -1, 160, 161, 189, 188, -1, 161, 162, 190, 189, -1, 162, 163, 191, 190, -1, 163, 164, 192, 191, -1, 164, 165, 193, 192, -1, 165, 166, 194, 193, -1, 166, 167, 195, 194, -1, 167, 140, 168, 195, -1, 168, 169, 197, 196, -1, 169, 170, 198, 197, -1, 170, 171, 199, 198, -1, 171, 172, 200, 199, -1, 172, 173, 201, 200, -1, 173, 174, 202, 201, -1, 174, 175, 203, 202, -1, 175, 176, 204, 203, -1, 176, 177, 205, 204, -1, 177, 178, 206, 205, -1, 178, 179, 207, 206, -1, 179, 180, 208, 207, -1, 180, 181, 209, 208, -1, 181, 182, 210, 209, -1, 182, 183, 211, 210, -1, 183, 184, 212, 211, -1, 184, 185, 213, 212, -1, 185, 186, 214, 213, -1, 186, 187, 215, 214, -1, 187, 188, 216, 215, -1, 188, 189, 217, 216, -1, 189, 190, 218, 217, -1, 190, 191, 219, 218, -1, 191, 192, 220, 219, -1, 192, 193, 221, 220, -1, 193, 194, 222, 221, -1, 194, 195, 223, 222, -1, 195, 168, 196, 223, -1, 27, 26, 25, 24, 23, 22, 21, 20, 19, 18, 17, 16, 15, 14, 13, 12, 11, 10, 9, 8, 7, 6, 5, 4, 3, 2, 1, 0, -1, 196, 197, 198, 199, 200, 201, 202, 203, 204, 205, 206, 207, 208, 209, 210, 211, 212, 213, 214, 215, 216, 217, 218, 219, 220, 221, 222, 223, -1 ] creaseAngle 0.6 solid TRUE } }
# fine lid seam
Shape { appearance USE SEAM geometry IndexedFaceSet { coord Coordinate { point [ 5.96244 2.96441 8.55559, 5.96224 2.96594 8.55559, 5.96165 2.96736 8.55559, 5.96071 2.96859 8.55559, 5.95949 2.96952 8.55559, 5.95806 2.97011 8.55559, 5.95654 2.97031 8.55559, -5.95654 2.97031 8.55559, -5.95806 2.97011 8.55559, -5.95949 2.96952 8.55559, -5.96071 2.96859 8.55559, -5.96165 2.96736 8.55559, -5.96224 2.96594 8.55559, -5.96244 2.96441 8.55559, -5.96244 -2.96441 8.55559, -5.96224 -2.96594 8.55559, -5.96165 -2.96736 8.55559, -5.96071 -2.96859 8.55559, -5.95949 -2.96952 8.55559, -5.95806 -2.97011 8.55559, -5.95654 -2.97031 8.55559, 5.95654 -2.97031 8.55559, 5.95806 -2.97011 8.55559, 5.95949 -2.96952 8.55559, 5.96071 -2.96859 8.55559, 5.96165 -2.96736 8.55559, 5.96224 -2.96594 8.55559, 5.96244 -2.96441 8.55559, 5.96939 2.97031 8.56055, 5.96915 2.97211 8.56055, 5.96846 2.97379 8.56055, 5.96735 2.97523 8.56055, 5.96591 2.97633 8.56055, 5.96424 2.97702 8.56055, 5.96244 2.97726 8.56055, -5.96244 2.97726 8.56055, -5.96424 2.97702 8.56055, -5.96591 2.97633 8.56055, -5.96735 2.97523 8.56055, -5.96846 2.97379 8.56055, -5.96915 2.97211 8.56055, -5.96939 2.97031 8.56055, -5.96939 -2.97031 8.56055, -5.96915 -2.97211 8.56055, -5.96846 -2.97379 8.56055, -5.96735 -2.97523 8.56055, -5.96591 -2.97633 8.56055, -5.96424 -2.97702 8.56055, -5.96244 -2.97726 8.56055, 5.96244 -2.97726 8.56055, 5.96424 -2.97702 8.56055, 5.96591 -2.97633 8.56055, 5.96735 -2.97523 8.56055, 5.96846 -2.97379 8.56055, 5.96915 -2.97211 8.56055, 5.96939 -2.97031 8.56055, 5.97732 2.97031 8.56849, 5.97682 2.97417 8.56849, 5.97533 2.97776 8.56849, 5.97296 2.98084 8.56849, 5.96988 2.98320 8.56849, 5.96629 2.98469 8.56849, 5.96244 2.98520 8.56849, -5.96244 2.98520 8.56849, -5.96629 2.98469 8.56849, -5.96988 2.98320 8.56849, -5.97296 2.98084 8.56849, -5.97533 2.97776 8.56849, -5.97682 2.97417 8.56849, -5.97732 2.97031 8.56849, -5.97732 -2.97031 8.56849, -5.97682 -2.97417 8.56849, -5.97533 -2.97776 8.56849, -5.97296 -2.98084 8.56849, -5.96988 -2.98320 8.56849, -5.96629 -2.98469 8.56849, -5.96244 -2.98520 8.56849, 5.96244 -2.98520 8.56849, 5.96629 -2.98469 8.56849, 5.96988 -2.98320 8.56849, 5.97296 -2.98084 8.56849, 5.97533 -2.97776 8.56849, 5.97682 -2.97417 8.56849, 5.97732 -2.97031 8.56849, 5.98228 2.97031 8.57543, 5.98161 2.97545 8.57543, 5.97963 2.98024 8.57543, 5.97647 2.98435 8.57543, 5.97236 2.98750 8.57543, 5.96758 2.98948 8.57543, 5.96244 2.99016 8.57543, -5.96244 2.99016 8.57543, -5.96758 2.98948 8.57543, -5.97236 2.98750 8.57543, -5.97647 2.98435 8.57543, -5.97963 2.98024 8.57543, -5.98161 2.97545 8.57543, -5.98228 2.97031 8.57543, -5.98228 -2.97031 8.57543, -5.98161 -2.97545 8.57543, -5.97963 -2.98024 8.57543, -5.97647 -2.98435 8.57543, -5.97236 -2.98750 8.57543, -5.96758 -2.98948 8.57543, -5.96244 -2.99016 8.57543, 5.96244 -2.99016 8.57543, 5.96758 -2.98948 8.57543, 5.97236 -2.98750 8.57543, 5.97647 -2.98435 8.57543, 5.97963 -2.98024 8.57543, 5.98161 -2.97545 8.57543, 5.98228 -2.97031 8.57543, 5.98228 2.97031 8.58535, 5.98161 2.97545 8.58535, 5.97963 2.98024 8.58535, 5.97647 2.98435 8.58535, 5.97236 2.98750 8.58535, 5.96758 2.98948 8.58535, 5.96244 2.99016 8.58535, -5.96244 2.99016 8.58535, -5.96758 2.98948 8.58535, -5.97236 2.98750 8.58535, -5.97647 2.98435 8.58535, -5.97963 2.98024 8.58535, -5.98161 2.97545 8.58535, -5.98228 2.97031 8.58535, -5.98228 -2.97031 8.58535, -5.98161 -2.97545 8.58535, -5.97963 -2.98024 8.58535, -5.97647 -2.98435 8.58535, -5.97236 -2.98750 8.58535, -5.96758 -2.98948 8.58535, -5.96244 -2.99016 8.58535, 5.96244 -2.99016 8.58535, 5.96758 -2.98948 8.58535, 5.97236 -2.98750 8.58535, 5.97647 -2.98435 8.58535, 5.97963 -2.98024 8.58535, 5.98161 -2.97545 8.58535, 5.98228 -2.97031 8.58535, 5.97732 2.97031 8.59230, 5.97682 2.97417 8.59230, 5.97533 2.97776 8.59230, 5.97296 2.98084 8.59230, 5.96988 2.98320 8.59230, 5.96629 2.98469 8.59230, 5.96244 2.98520 8.59230, -5.96244 2.98520 8.59230, -5.96629 2.98469 8.59230, -5.96988 2.98320 8.59230, -5.97296 2.98084 8.59230, -5.97533 2.97776 8.59230, -5.97682 2.97417 8.59230, -5.97732 2.97031 8.59230, -5.97732 -2.97031 8.59230, -5.97682 -2.97417 8.59230, -5.97533 -2.97776 8.59230, -5.97296 -2.98084 8.59230, -5.96988 -2.98320 8.59230, -5.96629 -2.98469 8.59230, -5.96244 -2.98520 8.59230, 5.96244 -2.98520 8.59230, 5.96629 -2.98469 8.59230, 5.96988 -2.98320 8.59230, 5.97296 -2.98084 8.59230, 5.97533 -2.97776 8.59230, 5.97682 -2.97417 8.59230, 5.97732 -2.97031 8.59230, 5.96939 2.97031 8.60024, 5.96915 2.97211 8.60024, 5.96846 2.97379 8.60024, 5.96735 2.97523 8.60024, 5.96591 2.97633 8.60024, 5.96424 2.97702 8.60024, 5.96244 2.97726 8.60024, -5.96244 2.97726 8.60024, -5.96424 2.97702 8.60024, -5.96591 2.97633 8.60024, -5.96735 2.97523 8.60024, -5.96846 2.97379 8.60024, -5.96915 2.97211 8.60024, -5.96939 2.97031 8.60024, -5.96939 -2.97031 8.60024, -5.96915 -2.97211 8.60024, -5.96846 -2.97379 8.60024, -5.96735 -2.97523 8.60024, -5.96591 -2.97633 8.60024, -5.96424 -2.97702 8.60024, -5.96244 -2.97726 8.60024, 5.96244 -2.97726 8.60024, 5.96424 -2.97702 8.60024, 5.96591 -2.97633 8.60024, 5.96735 -2.97523 8.60024, 5.96846 -2.97379 8.60024, 5.96915 -2.97211 8.60024, 5.96939 -2.97031 8.60024, 5.96244 2.96441 8.60520, 5.96224 2.96594 8.60520, 5.96165 2.96736 8.60520, 5.96071 2.96859 8.60520, 5.95949 2.96952 8.60520, 5.95806 2.97011 8.60520, 5.95654 2.97031 8.60520, -5.95654 2.97031 8.60520, -5.95806 2.97011 8.60520, -5.95949 2.96952 8.60520, -5.96071 2.96859 8.60520, -5.96165 2.96736 8.60520, -5.96224 2.96594 8.60520, -5.96244 2.96441 8.60520, -5.96244 -2.96441 8.60520, -5.96224 -2.96594 8.60520, -5.96165 -2.96736 8.60520, -5.96071 -2.96859 8.60520, -5.95949 -2.96952 8.60520, -5.95806 -2.97011 8.60520, -5.95654 -2.97031 8.60520, 5.95654 -2.97031 8.60520, 5.95806 -2.97011 8.60520, 5.95949 -2.96952 8.60520, 5.96071 -2.96859 8.60520, 5.96165 -2.96736 8.60520, 5.96224 -2.96594 8.60520, 5.96244 -2.96441 8.60520 ] } coordIndex [ 0, 1, 29, 28, -1, 1, 2, 30, 29, -1, 2, 3, 31, 30, -1, 3, 4, 32, 31, -1, 4, 5, 33, 32, -1, 5, 6, 34, 33, -1, 6, 7, 35, 34, -1, 7, 8, 36, 35, -1, 8, 9, 37, 36, -1, 9, 10, 38, 37, -1, 10, 11, 39, 38, -1, 11, 12, 40, 39, -1, 12, 13, 41, 40, -1, 13, 14, 42, 41, -1, 14, 15, 43, 42, -1, 15, 16, 44, 43, -1, 16, 17, 45, 44, -1, 17, 18, 46, 45, -1, 18, 19, 47, 46, -1, 19, 20, 48, 47, -1, 20, 21, 49, 48, -1, 21, 22, 50, 49, -1, 22, 23, 51, 50, -1, 23, 24, 52, 51, -1, 24, 25, 53, 52, -1, 25, 26, 54, 53, -1, 26, 27, 55, 54, -1, 27, 0, 28, 55, -1, 28, 29, 57, 56, -1, 29, 30, 58, 57, -1, 30, 31, 59, 58, -1, 31, 32, 60, 59, -1, 32, 33, 61, 60, -1, 33, 34, 62, 61, -1, 34, 35, 63, 62, -1, 35, 36, 64, 63, -1, 36, 37, 65, 64, -1, 37, 38, 66, 65, -1, 38, 39, 67, 66, -1, 39, 40, 68, 67, -1, 40, 41, 69, 68, -1, 41, 42, 70, 69, -1, 42, 43, 71, 70, -1, 43, 44, 72, 71, -1, 44, 45, 73, 72, -1, 45, 46, 74, 73, -1, 46, 47, 75, 74, -1, 47, 48, 76, 75, -1, 48, 49, 77, 76, -1, 49, 50, 78, 77, -1, 50, 51, 79, 78, -1, 51, 52, 80, 79, -1, 52, 53, 81, 80, -1, 53, 54, 82, 81, -1, 54, 55, 83, 82, -1, 55, 28, 56, 83, -1, 56, 57, 85, 84, -1, 57, 58, 86, 85, -1, 58, 59, 87, 86, -1, 59, 60, 88, 87, -1, 60, 61, 89, 88, -1, 61, 62, 90, 89, -1, 62, 63, 91, 90, -1, 63, 64, 92, 91, -1, 64, 65, 93, 92, -1, 65, 66, 94, 93, -1, 66, 67, 95, 94, -1, 67, 68, 96, 95, -1, 68, 69, 97, 96, -1, 69, 70, 98, 97, -1, 70, 71, 99, 98, -1, 71, 72, 100, 99, -1, 72, 73, 101, 100, -1, 73, 74, 102, 101, -1, 74, 75, 103, 102, -1, 75, 76, 104, 103, -1, 76, 77, 105, 104, -1, 77, 78, 106, 105, -1, 78, 79, 107, 106, -1, 79, 80, 108, 107, -1, 80, 81, 109, 108, -1, 81, 82, 110, 109, -1, 82, 83, 111, 110, -1, 83, 56, 84, 111, -1, 84, 85, 113, 112, -1, 85, 86, 114, 113, -1, 86, 87, 115, 114, -1, 87, 88, 116, 115, -1, 88, 89, 117, 116, -1, 89, 90, 118, 117, -1, 90, 91, 119, 118, -1, 91, 92, 120, 119, -1, 92, 93, 121, 120, -1, 93, 94, 122, 121, -1, 94, 95, 123, 122, -1, 95, 96, 124, 123, -1, 96, 97, 125, 124, -1, 97, 98, 126, 125, -1, 98, 99, 127, 126, -1, 99, 100, 128, 127, -1, 100, 101, 129, 128, -1, 101, 102, 130, 129, -1, 102, 103, 131, 130, -1, 103, 104, 132, 131, -1, 104, 105, 133, 132, -1, 105, 106, 134, 133, -1, 106, 107, 135, 134, -1, 107, 108, 136, 135, -1, 108, 109, 137, 136, -1, 109, 110, 138, 137, -1, 110, 111, 139, 138, -1, 111, 84, 112, 139, -1, 112, 113, 141, 140, -1, 113, 114, 142, 141, -1, 114, 115, 143, 142, -1, 115, 116, 144, 143, -1, 116, 117, 145, 144, -1, 117, 118, 146, 145, -1, 118, 119, 147, 146, -1, 119, 120, 148, 147, -1, 120, 121, 149, 148, -1, 121, 122, 150, 149, -1, 122, 123, 151, 150, -1, 123, 124, 152, 151, -1, 124, 125, 153, 152, -1, 125, 126, 154, 153, -1, 126, 127, 155, 154, -1, 127, 128, 156, 155, -1, 128, 129, 157, 156, -1, 129, 130, 158, 157, -1, 130, 131, 159, 158, -1, 131, 132, 160, 159, -1, 132, 133, 161, 160, -1, 133, 134, 162, 161, -1, 134, 135, 163, 162, -1, 135, 136, 164, 163, -1, 136, 137, 165, 164, -1, 137, 138, 166, 165, -1, 138, 139, 167, 166, -1, 139, 112, 140, 167, -1, 140, 141, 169, 168, -1, 141, 142, 170, 169, -1, 142, 143, 171, 170, -1, 143, 144, 172, 171, -1, 144, 145, 173, 172, -1, 145, 146, 174, 173, -1, 146, 147, 175, 174, -1, 147, 148, 176, 175, -1, 148, 149, 177, 176, -1, 149, 150, 178, 177, -1, 150, 151, 179, 178, -1, 151, 152, 180, 179, -1, 152, 153, 181, 180, -1, 153, 154, 182, 181, -1, 154, 155, 183, 182, -1, 155, 156, 184, 183, -1, 156, 157, 185, 184, -1, 157, 158, 186, 185, -1, 158, 159, 187, 186, -1, 159, 160, 188, 187, -1, 160, 161, 189, 188, -1, 161, 162, 190, 189, -1, 162, 163, 191, 190, -1, 163, 164, 192, 191, -1, 164, 165, 193, 192, -1, 165, 166, 194, 193, -1, 166, 167, 195, 194, -1, 167, 140, 168, 195, -1, 168, 169, 197, 196, -1, 169, 170, 198, 197, -1, 170, 171, 199, 198, -1, 171, 172, 200, 199, -1, 172, 173, 201, 200, -1, 173, 174, 202, 201, -1, 174, 175, 203, 202, -1, 175, 176, 204, 203, -1, 176, 177, 205, 204, -1, 177, 178, 206, 205, -1, 178, 179, 207, 206, -1, 179, 180, 208, 207, -1, 180, 181, 209, 208, -1, 181, 182, 210, 209, -1, 182, 183, 211, 210, -1, 183, 184, 212, 211, -1, 184, 185, 213, 212, -1, 185, 186, 214, 213, -1, 186, 187, 215, 214, -1, 187, 188, 216, 215, -1, 188, 189, 217, 216, -1, 189, 190, 218, 217, -1, 190, 191, 219, 218, -1, 191, 192, 220, 219, -1, 192, 193, 221, 220, -1, 193, 194, 222, 221, -1, 194, 195, 223, 222, -1, 195, 168, 196, 223, -1, 27, 26, 25, 24, 23, 22, 21, 20, 19, 18, 17, 16, 15, 14, 13, 12, 11, 10, 9, 8, 7, 6, 5, 4, 3, 2, 1, 0, -1, 196, 197, 198, 199, 200, 201, 202, 203, 204, 205, 206, 207, 208, 209, 210, 211, 212, 213, 214, 215, 216, 217, 218, 219, 220, 221, 222, 223, -1 ] creaseAngle 0.6 solid TRUE } }
# integral rounded lid
Shape { appearance USE LID geometry IndexedFaceSet { coord Coordinate { point [ 5.95707 2.95904 8.57378, 5.95687 2.96057 8.57378, 5.95628 2.96199 8.57378, 5.95534 2.96322 8.57378, 5.95412 2.96415 8.57378, 5.95269 2.96474 8.57378, 5.95117 2.96494 8.57378, -5.95117 2.96494 8.57378, -5.95269 2.96474 8.57378, -5.95412 2.96415 8.57378, -5.95534 2.96322 8.57378, -5.95628 2.96199 8.57378, -5.95687 2.96057 8.57378, -5.95707 2.95904 8.57378, -5.95707 -2.95904 8.57378, -5.95687 -2.96057 8.57378, -5.95628 -2.96199 8.57378, -5.95534 -2.96322 8.57378, -5.95412 -2.96415 8.57378, -5.95269 -2.96474 8.57378, -5.95117 -2.96494 8.57378, 5.95117 -2.96494 8.57378, 5.95269 -2.96474 8.57378, 5.95412 -2.96415 8.57378, 5.95534 -2.96322 8.57378, 5.95628 -2.96199 8.57378, 5.95687 -2.96057 8.57378, 5.95707 -2.95904 8.57378, 5.96934 2.96494 8.58254, 5.96892 2.96812 8.58254, 5.96770 2.97108 8.58254, 5.96575 2.97362 8.58254, 5.96321 2.97557 8.58254, 5.96025 2.97680 8.58254, 5.95707 2.97721 8.58254, -5.95707 2.97721 8.58254, -5.96025 2.97680 8.58254, -5.96321 2.97557 8.58254, -5.96575 2.97362 8.58254, -5.96770 2.97108 8.58254, -5.96892 2.96812 8.58254, -5.96934 2.96494 8.58254, -5.96934 -2.96494 8.58254, -5.96892 -2.96812 8.58254, -5.96770 -2.97108 8.58254, -5.96575 -2.97362 8.58254, -5.96321 -2.97557 8.58254, -5.96025 -2.97680 8.58254, -5.95707 -2.97721 8.58254, 5.95707 -2.97721 8.58254, 5.96025 -2.97680 8.58254, 5.96321 -2.97557 8.58254, 5.96575 -2.97362 8.58254, 5.96770 -2.97108 8.58254, 5.96892 -2.96812 8.58254, 5.96934 -2.96494 8.58254, 5.98336 2.96494 8.59657, 5.98247 2.97175 8.59657, 5.97984 2.97809 8.59657, 5.97566 2.98354 8.59657, 5.97022 2.98771 8.59657, 5.96388 2.99034 8.59657, 5.95707 2.99124 8.59657, -5.95707 2.99124 8.59657, -5.96388 2.99034 8.59657, -5.97022 2.98771 8.59657, -5.97566 2.98354 8.59657, -5.97984 2.97809 8.59657, -5.98247 2.97175 8.59657, -5.98336 2.96494 8.59657, -5.98336 -2.96494 8.59657, -5.98247 -2.97175 8.59657, -5.97984 -2.97809 8.59657, -5.97566 -2.98354 8.59657, -5.97022 -2.98771 8.59657, -5.96388 -2.99034 8.59657, -5.95707 -2.99124 8.59657, 5.95707 -2.99124 8.59657, 5.96388 -2.99034 8.59657, 5.97022 -2.98771 8.59657, 5.97566 -2.98354 8.59657, 5.97984 -2.97809 8.59657, 5.98247 -2.97175 8.59657, 5.98336 -2.96494 8.59657, 5.99213 2.96494 8.60883, 5.99093 2.97402 8.60883, 5.98743 2.98247 8.60883, 5.98186 2.98973 8.60883, 5.97460 2.99530 8.60883, 5.96614 2.99881 8.60883, 5.95707 3.00000 8.60883, -5.95707 3.00000 8.60883, -5.96614 2.99881 8.60883, -5.97460 2.99530 8.60883, -5.98186 2.98973 8.60883, -5.98743 2.98247 8.60883, -5.99093 2.97402 8.60883, -5.99213 2.96494 8.60883, -5.99213 -2.96494 8.60883, -5.99093 -2.97402 8.60883, -5.98743 -2.98247 8.60883, -5.98186 -2.98973 8.60883, -5.97460 -2.99530 8.60883, -5.96614 -2.99881 8.60883, -5.95707 -3.00000 8.60883, 5.95707 -3.00000 8.60883, 5.96614 -2.99881 8.60883, 5.97460 -2.99530 8.60883, 5.98186 -2.98973 8.60883, 5.98743 -2.98247 8.60883, 5.99093 -2.97402 8.60883, 5.99213 -2.96494 8.60883, 5.99213 2.96494 8.62636, 5.99093 2.97402 8.62636, 5.98743 2.98247 8.62636, 5.98186 2.98973 8.62636, 5.97460 2.99530 8.62636, 5.96614 2.99881 8.62636, 5.95707 3.00000 8.62636, -5.95707 3.00000 8.62636, -5.96614 2.99881 8.62636, -5.97460 2.99530 8.62636, -5.98186 2.98973 8.62636, -5.98743 2.98247 8.62636, -5.99093 2.97402 8.62636, -5.99213 2.96494 8.62636, -5.99213 -2.96494 8.62636, -5.99093 -2.97402 8.62636, -5.98743 -2.98247 8.62636, -5.98186 -2.98973 8.62636, -5.97460 -2.99530 8.62636, -5.96614 -2.99881 8.62636, -5.95707 -3.00000 8.62636, 5.95707 -3.00000 8.62636, 5.96614 -2.99881 8.62636, 5.97460 -2.99530 8.62636, 5.98186 -2.98973 8.62636, 5.98743 -2.98247 8.62636, 5.99093 -2.97402 8.62636, 5.99213 -2.96494 8.62636, 5.98336 2.96494 8.63863, 5.98247 2.97175 8.63863, 5.97984 2.97809 8.63863, 5.97566 2.98354 8.63863, 5.97022 2.98771 8.63863, 5.96388 2.99034 8.63863, 5.95707 2.99124 8.63863, -5.95707 2.99124 8.63863, -5.96388 2.99034 8.63863, -5.97022 2.98771 8.63863, -5.97566 2.98354 8.63863, -5.97984 2.97809 8.63863, -5.98247 2.97175 8.63863, -5.98336 2.96494 8.63863, -5.98336 -2.96494 8.63863, -5.98247 -2.97175 8.63863, -5.97984 -2.97809 8.63863, -5.97566 -2.98354 8.63863, -5.97022 -2.98771 8.63863, -5.96388 -2.99034 8.63863, -5.95707 -2.99124 8.63863, 5.95707 -2.99124 8.63863, 5.96388 -2.99034 8.63863, 5.97022 -2.98771 8.63863, 5.97566 -2.98354 8.63863, 5.97984 -2.97809 8.63863, 5.98247 -2.97175 8.63863, 5.98336 -2.96494 8.63863, 5.96934 2.96494 8.65265, 5.96892 2.96812 8.65265, 5.96770 2.97108 8.65265, 5.96575 2.97362 8.65265, 5.96321 2.97557 8.65265, 5.96025 2.97680 8.65265, 5.95707 2.97721 8.65265, -5.95707 2.97721 8.65265, -5.96025 2.97680 8.65265, -5.96321 2.97557 8.65265, -5.96575 2.97362 8.65265, -5.96770 2.97108 8.65265, -5.96892 2.96812 8.65265, -5.96934 2.96494 8.65265, -5.96934 -2.96494 8.65265, -5.96892 -2.96812 8.65265, -5.96770 -2.97108 8.65265, -5.96575 -2.97362 8.65265, -5.96321 -2.97557 8.65265, -5.96025 -2.97680 8.65265, -5.95707 -2.97721 8.65265, 5.95707 -2.97721 8.65265, 5.96025 -2.97680 8.65265, 5.96321 -2.97557 8.65265, 5.96575 -2.97362 8.65265, 5.96770 -2.97108 8.65265, 5.96892 -2.96812 8.65265, 5.96934 -2.96494 8.65265, 5.95707 2.95904 8.66142, 5.95687 2.96057 8.66142, 5.95628 2.96199 8.66142, 5.95534 2.96322 8.66142, 5.95412 2.96415 8.66142, 5.95269 2.96474 8.66142, 5.95117 2.96494 8.66142, -5.95117 2.96494 8.66142, -5.95269 2.96474 8.66142, -5.95412 2.96415 8.66142, -5.95534 2.96322 8.66142, -5.95628 2.96199 8.66142, -5.95687 2.96057 8.66142, -5.95707 2.95904 8.66142, -5.95707 -2.95904 8.66142, -5.95687 -2.96057 8.66142, -5.95628 -2.96199 8.66142, -5.95534 -2.96322 8.66142, -5.95412 -2.96415 8.66142, -5.95269 -2.96474 8.66142, -5.95117 -2.96494 8.66142, 5.95117 -2.96494 8.66142, 5.95269 -2.96474 8.66142, 5.95412 -2.96415 8.66142, 5.95534 -2.96322 8.66142, 5.95628 -2.96199 8.66142, 5.95687 -2.96057 8.66142, 5.95707 -2.95904 8.66142 ] } coordIndex [ 0, 1, 29, 28, -1, 1, 2, 30, 29, -1, 2, 3, 31, 30, -1, 3, 4, 32, 31, -1, 4, 5, 33, 32, -1, 5, 6, 34, 33, -1, 6, 7, 35, 34, -1, 7, 8, 36, 35, -1, 8, 9, 37, 36, -1, 9, 10, 38, 37, -1, 10, 11, 39, 38, -1, 11, 12, 40, 39, -1, 12, 13, 41, 40, -1, 13, 14, 42, 41, -1, 14, 15, 43, 42, -1, 15, 16, 44, 43, -1, 16, 17, 45, 44, -1, 17, 18, 46, 45, -1, 18, 19, 47, 46, -1, 19, 20, 48, 47, -1, 20, 21, 49, 48, -1, 21, 22, 50, 49, -1, 22, 23, 51, 50, -1, 23, 24, 52, 51, -1, 24, 25, 53, 52, -1, 25, 26, 54, 53, -1, 26, 27, 55, 54, -1, 27, 0, 28, 55, -1, 28, 29, 57, 56, -1, 29, 30, 58, 57, -1, 30, 31, 59, 58, -1, 31, 32, 60, 59, -1, 32, 33, 61, 60, -1, 33, 34, 62, 61, -1, 34, 35, 63, 62, -1, 35, 36, 64, 63, -1, 36, 37, 65, 64, -1, 37, 38, 66, 65, -1, 38, 39, 67, 66, -1, 39, 40, 68, 67, -1, 40, 41, 69, 68, -1, 41, 42, 70, 69, -1, 42, 43, 71, 70, -1, 43, 44, 72, 71, -1, 44, 45, 73, 72, -1, 45, 46, 74, 73, -1, 46, 47, 75, 74, -1, 47, 48, 76, 75, -1, 48, 49, 77, 76, -1, 49, 50, 78, 77, -1, 50, 51, 79, 78, -1, 51, 52, 80, 79, -1, 52, 53, 81, 80, -1, 53, 54, 82, 81, -1, 54, 55, 83, 82, -1, 55, 28, 56, 83, -1, 56, 57, 85, 84, -1, 57, 58, 86, 85, -1, 58, 59, 87, 86, -1, 59, 60, 88, 87, -1, 60, 61, 89, 88, -1, 61, 62, 90, 89, -1, 62, 63, 91, 90, -1, 63, 64, 92, 91, -1, 64, 65, 93, 92, -1, 65, 66, 94, 93, -1, 66, 67, 95, 94, -1, 67, 68, 96, 95, -1, 68, 69, 97, 96, -1, 69, 70, 98, 97, -1, 70, 71, 99, 98, -1, 71, 72, 100, 99, -1, 72, 73, 101, 100, -1, 73, 74, 102, 101, -1, 74, 75, 103, 102, -1, 75, 76, 104, 103, -1, 76, 77, 105, 104, -1, 77, 78, 106, 105, -1, 78, 79, 107, 106, -1, 79, 80, 108, 107, -1, 80, 81, 109, 108, -1, 81, 82, 110, 109, -1, 82, 83, 111, 110, -1, 83, 56, 84, 111, -1, 84, 85, 113, 112, -1, 85, 86, 114, 113, -1, 86, 87, 115, 114, -1, 87, 88, 116, 115, -1, 88, 89, 117, 116, -1, 89, 90, 118, 117, -1, 90, 91, 119, 118, -1, 91, 92, 120, 119, -1, 92, 93, 121, 120, -1, 93, 94, 122, 121, -1, 94, 95, 123, 122, -1, 95, 96, 124, 123, -1, 96, 97, 125, 124, -1, 97, 98, 126, 125, -1, 98, 99, 127, 126, -1, 99, 100, 128, 127, -1, 100, 101, 129, 128, -1, 101, 102, 130, 129, -1, 102, 103, 131, 130, -1, 103, 104, 132, 131, -1, 104, 105, 133, 132, -1, 105, 106, 134, 133, -1, 106, 107, 135, 134, -1, 107, 108, 136, 135, -1, 108, 109, 137, 136, -1, 109, 110, 138, 137, -1, 110, 111, 139, 138, -1, 111, 84, 112, 139, -1, 112, 113, 141, 140, -1, 113, 114, 142, 141, -1, 114, 115, 143, 142, -1, 115, 116, 144, 143, -1, 116, 117, 145, 144, -1, 117, 118, 146, 145, -1, 118, 119, 147, 146, -1, 119, 120, 148, 147, -1, 120, 121, 149, 148, -1, 121, 122, 150, 149, -1, 122, 123, 151, 150, -1, 123, 124, 152, 151, -1, 124, 125, 153, 152, -1, 125, 126, 154, 153, -1, 126, 127, 155, 154, -1, 127, 128, 156, 155, -1, 128, 129, 157, 156, -1, 129, 130, 158, 157, -1, 130, 131, 159, 158, -1, 131, 132, 160, 159, -1, 132, 133, 161, 160, -1, 133, 134, 162, 161, -1, 134, 135, 163, 162, -1, 135, 136, 164, 163, -1, 136, 137, 165, 164, -1, 137, 138, 166, 165, -1, 138, 139, 167, 166, -1, 139, 112, 140, 167, -1, 140, 141, 169, 168, -1, 141, 142, 170, 169, -1, 142, 143, 171, 170, -1, 143, 144, 172, 171, -1, 144, 145, 173, 172, -1, 145, 146, 174, 173, -1, 146, 147, 175, 174, -1, 147, 148, 176, 175, -1, 148, 149, 177, 176, -1, 149, 150, 178, 177, -1, 150, 151, 179, 178, -1, 151, 152, 180, 179, -1, 152, 153, 181, 180, -1, 153, 154, 182, 181, -1, 154, 155, 183, 182, -1, 155, 156, 184, 183, -1, 156, 157, 185, 184, -1, 157, 158, 186, 185, -1, 158, 159, 187, 186, -1, 159, 160, 188, 187, -1, 160, 161, 189, 188, -1, 161, 162, 190, 189, -1, 162, 163, 191, 190, -1, 163, 164, 192, 191, -1, 164, 165, 193, 192, -1, 165, 166, 194, 193, -1, 166, 167, 195, 194, -1, 167, 140, 168, 195, -1, 168, 169, 197, 196, -1, 169, 170, 198, 197, -1, 170, 171, 199, 198, -1, 171, 172, 200, 199, -1, 172, 173, 201, 200, -1, 173, 174, 202, 201, -1, 174, 175, 203, 202, -1, 175, 176, 204, 203, -1, 176, 177, 205, 204, -1, 177, 178, 206, 205, -1, 178, 179, 207, 206, -1, 179, 180, 208, 207, -1, 180, 181, 209, 208, -1, 181, 182, 210, 209, -1, 182, 183, 211, 210, -1, 183, 184, 212, 211, -1, 184, 185, 213, 212, -1, 185, 186, 214, 213, -1, 186, 187, 215, 214, -1, 187, 188, 216, 215, -1, 188, 189, 217, 216, -1, 189, 190, 218, 217, -1, 190, 191, 219, 218, -1, 191, 192, 220, 219, -1, 192, 193, 221, 220, -1, 193, 194, 222, 221, -1, 194, 195, 223, 222, -1, 195, 168, 196, 223, -1, 27, 26, 25, 24, 23, 22, 21, 20, 19, 18, 17, 16, 15, 14, 13, 12, 11, 10, 9, 8, 7, 6, 5, 4, 3, 2, 1, 0, -1, 196, 197, 198, 199, 200, 201, 202, 203, 204, 205, 206, 207, 208, 209, 210, 211, 212, 213, 214, 215, 216, 217, 218, 219, 220, 221, 222, 223, -1 ] creaseAngle 0.6 solid TRUE } }
# tinned lead 1
Shape { appearance USE TIN geometry IndexedFaceSet { coord Coordinate { point [ -4.82283 0.00000 -1.37795, -4.83151 0.05475 -1.37795, -4.85667 0.10414 -1.37795, -4.89586 0.14333 -1.37795, -4.94525 0.16849 -1.37795, -5.00000 0.17717 -1.37795, -5.05475 0.16849 -1.37795, -5.10414 0.14333 -1.37795, -5.14333 0.10414 -1.37795, -5.16849 0.05475 -1.37795, -5.17717 0.00000 -1.37795, -5.16849 -0.05475 -1.37795, -5.14333 -0.10414 -1.37795, -5.10414 -0.14333 -1.37795, -5.05475 -0.16849 -1.37795, -5.00000 -0.17717 -1.37795, -4.94525 -0.16849 -1.37795, -4.89586 -0.14333 -1.37795, -4.85667 -0.10414 -1.37795, -4.83151 -0.05475 -1.37795, -4.82283 0.00000 0.13780, -4.83151 0.05475 0.13780, -4.85667 0.10414 0.13780, -4.89586 0.14333 0.13780, -4.94525 0.16849 0.13780, -5.00000 0.17717 0.13780, -5.05475 0.16849 0.13780, -5.10414 0.14333 0.13780, -5.14333 0.10414 0.13780, -5.16849 0.05475 0.13780, -5.17717 0.00000 0.13780, -5.16849 -0.05475 0.13780, -5.14333 -0.10414 0.13780, -5.10414 -0.14333 0.13780, -5.05475 -0.16849 0.13780, -5.00000 -0.17717 0.13780, -4.94525 -0.16849 0.13780, -4.89586 -0.14333 0.13780, -4.85667 -0.10414 0.13780, -4.83151 -0.05475 0.13780 ] } coordIndex [ 0, 1, 21, 20, -1, 1, 2, 22, 21, -1, 2, 3, 23, 22, -1, 3, 4, 24, 23, -1, 4, 5, 25, 24, -1, 5, 6, 26, 25, -1, 6, 7, 27, 26, -1, 7, 8, 28, 27, -1, 8, 9, 29, 28, -1, 9, 10, 30, 29, -1, 10, 11, 31, 30, -1, 11, 12, 32, 31, -1, 12, 13, 33, 32, -1, 13, 14, 34, 33, -1, 14, 15, 35, 34, -1, 15, 16, 36, 35, -1, 16, 17, 37, 36, -1, 17, 18, 38, 37, -1, 18, 19, 39, 38, -1, 19, 0, 20, 39, -1, 19, 18, 17, 16, 15, 14, 13, 12, 11, 10, 9, 8, 7, 6, 5, 4, 3, 2, 1, 0, -1, 20, 21, 22, 23, 24, 25, 26, 27, 28, 29, 30, 31, 32, 33, 34, 35, 36, 37, 38, 39, -1 ] creaseAngle 0.6 solid TRUE } }
# tinned lead 2
Shape { appearance USE TIN geometry IndexedFaceSet { coord Coordinate { point [ 5.17717 0.00000 -1.37795, 5.16849 0.05475 -1.37795, 5.14333 0.10414 -1.37795, 5.10414 0.14333 -1.37795, 5.05475 0.16849 -1.37795, 5.00000 0.17717 -1.37795, 4.94525 0.16849 -1.37795, 4.89586 0.14333 -1.37795, 4.85667 0.10414 -1.37795, 4.83151 0.05475 -1.37795, 4.82283 0.00000 -1.37795, 4.83151 -0.05475 -1.37795, 4.85667 -0.10414 -1.37795, 4.89586 -0.14333 -1.37795, 4.94525 -0.16849 -1.37795, 5.00000 -0.17717 -1.37795, 5.05475 -0.16849 -1.37795, 5.10414 -0.14333 -1.37795, 5.14333 -0.10414 -1.37795, 5.16849 -0.05475 -1.37795, 5.17717 0.00000 0.13780, 5.16849 0.05475 0.13780, 5.14333 0.10414 0.13780, 5.10414 0.14333 0.13780, 5.05475 0.16849 0.13780, 5.00000 0.17717 0.13780, 4.94525 0.16849 0.13780, 4.89586 0.14333 0.13780, 4.85667 0.10414 0.13780, 4.83151 0.05475 0.13780, 4.82283 0.00000 0.13780, 4.83151 -0.05475 0.13780, 4.85667 -0.10414 0.13780, 4.89586 -0.14333 0.13780, 4.94525 -0.16849 0.13780, 5.00000 -0.17717 0.13780, 5.05475 -0.16849 0.13780, 5.10414 -0.14333 0.13780, 5.14333 -0.10414 0.13780, 5.16849 -0.05475 0.13780 ] } coordIndex [ 0, 1, 21, 20, -1, 1, 2, 22, 21, -1, 2, 3, 23, 22, -1, 3, 4, 24, 23, -1, 4, 5, 25, 24, -1, 5, 6, 26, 25, -1, 6, 7, 27, 26, -1, 7, 8, 28, 27, -1, 8, 9, 29, 28, -1, 9, 10, 30, 29, -1, 10, 11, 31, 30, -1, 11, 12, 32, 31, -1, 12, 13, 33, 32, -1, 13, 14, 34, 33, -1, 14, 15, 35, 34, -1, 15, 16, 36, 35, -1, 16, 17, 37, 36, -1, 17, 18, 38, 37, -1, 18, 19, 39, 38, -1, 19, 0, 20, 39, -1, 19, 18, 17, 16, 15, 14, 13, 12, 11, 10, 9, 8, 7, 6, 5, 4, 3, 2, 1, 0, -1, 20, 21, 22, 23, 24, 25, 26, 27, 28, 29, 30, 31, 32, 33, 34, 35, 36, 37, 38, 39, -1 ] creaseAngle 0.6 solid TRUE } }
