#VRML V2.0 utf8
DEF CASE Appearance { material Material { diffuseColor 0.025 0.32 0.67 specularColor 0.12 0.18 0.24 shininess 0.42 } }
DEF LID Appearance { material Material { diffuseColor 0.035 0.37 0.72 specularColor 0.12 0.19 0.27 shininess 0.45 } }
DEF SEAM Appearance { material Material { diffuseColor 0.012 0.19 0.43 specularColor 0.06 0.10 0.15 shininess 0.24 } }
DEF TIN Appearance { material Material { diffuseColor 0.68 0.71 0.73 specularColor 0.38 0.39 0.41 shininess 0.72 } }
# moulded blue case
Shape { appearance USE CASE geometry IndexedFaceSet { coord Coordinate { point [ 5.05118 2.68307 0.00000, 5.05098 2.68460 0.00000, 5.05039 2.68602 0.00000, 5.04945 2.68725 0.00000, 5.04823 2.68819 0.00000, 5.04680 2.68878 0.00000, 5.04528 2.68898 0.00000, -5.04528 2.68898 0.00000, -5.04680 2.68878 0.00000, -5.04823 2.68819 0.00000, -5.04945 2.68725 0.00000, -5.05039 2.68602 0.00000, -5.05098 2.68460 0.00000, -5.05118 2.68307 0.00000, -5.05118 -2.68307 0.00000, -5.05098 -2.68460 0.00000, -5.05039 -2.68602 0.00000, -5.04945 -2.68725 0.00000, -5.04823 -2.68819 0.00000, -5.04680 -2.68878 0.00000, -5.04528 -2.68898 0.00000, 5.04528 -2.68898 0.00000, 5.04680 -2.68878 0.00000, 5.04823 -2.68819 0.00000, 5.04945 -2.68725 0.00000, 5.05039 -2.68602 0.00000, 5.05098 -2.68460 0.00000, 5.05118 -2.68307 0.00000, 5.10906 2.68898 0.04134, 5.10708 2.70396 0.04134, 5.10130 2.71791 0.04134, 5.09210 2.72990 0.04134, 5.08012 2.73910 0.04134, 5.06616 2.74488 0.04134, 5.05118 2.74685 0.04134, -5.05118 2.74685 0.04134, -5.06616 2.74488 0.04134, -5.08012 2.73910 0.04134, -5.09210 2.72990 0.04134, -5.10130 2.71791 0.04134, -5.10708 2.70396 0.04134, -5.10906 2.68898 0.04134, -5.10906 -2.68898 0.04134, -5.10708 -2.70396 0.04134, -5.10130 -2.71791 0.04134, -5.09210 -2.72990 0.04134, -5.08012 -2.73910 0.04134, -5.06616 -2.74488 0.04134, -5.05118 -2.74685 0.04134, 5.05118 -2.74685 0.04134, 5.06616 -2.74488 0.04134, 5.08012 -2.73910 0.04134, 5.09210 -2.72990 0.04134, 5.10130 -2.71791 0.04134, 5.10708 -2.70396 0.04134, 5.10906 -2.68898 0.04134, 5.17520 2.68898 0.10748, 5.17097 2.72107 0.10748, 5.15858 2.75098 0.10748, 5.13887 2.77667 0.10748, 5.11319 2.79638 0.10748, 5.08328 2.80877 0.10748, 5.05118 2.81299 0.10748, -5.05118 2.81299 0.10748, -5.08328 2.80877 0.10748, -5.11319 2.79638 0.10748, -5.13887 2.77667 0.10748, -5.15858 2.75098 0.10748, -5.17097 2.72107 0.10748, -5.17520 2.68898 0.10748, -5.17520 -2.68898 0.10748, -5.17097 -2.72107 0.10748, -5.15858 -2.75098 0.10748, -5.13887 -2.77667 0.10748, -5.11319 -2.79638 0.10748, -5.08328 -2.80877 0.10748, -5.05118 -2.81299 0.10748, 5.05118 -2.81299 0.10748, 5.08328 -2.80877 0.10748, 5.11319 -2.79638 0.10748, 5.13887 -2.77667 0.10748, 5.15858 -2.75098 0.10748, 5.17097 -2.72107 0.10748, 5.17520 -2.68898 0.10748, 5.21654 2.68898 0.16535, 5.21090 2.73177 0.16535, 5.19438 2.77165 0.16535, 5.16810 2.80590 0.16535, 5.13386 2.83218 0.16535, 5.09398 2.84870 0.16535, 5.05118 2.85433 0.16535, -5.05118 2.85433 0.16535, -5.09398 2.84870 0.16535, -5.13386 2.83218 0.16535, -5.16810 2.80590 0.16535, -5.19438 2.77165 0.16535, -5.21090 2.73177 0.16535, -5.21654 2.68898 0.16535, -5.21654 -2.68898 0.16535, -5.21090 -2.73177 0.16535, -5.19438 -2.77165 0.16535, -5.16810 -2.80590 0.16535, -5.13386 -2.83218 0.16535, -5.09398 -2.84870 0.16535, -5.05118 -2.85433 0.16535, 5.05118 -2.85433 0.16535, 5.09398 -2.84870 0.16535, 5.13386 -2.83218 0.16535, 5.16810 -2.80590 0.16535, 5.19438 -2.77165 0.16535, 5.21090 -2.73177 0.16535, 5.21654 -2.68898 0.16535, 5.21654 2.68898 11.40252, 5.21090 2.73177 11.40252, 5.19438 2.77165 11.40252, 5.16810 2.80590 11.40252, 5.13386 2.83218 11.40252, 5.09398 2.84870 11.40252, 5.05118 2.85433 11.40252, -5.05118 2.85433 11.40252, -5.09398 2.84870 11.40252, -5.13386 2.83218 11.40252, -5.16810 2.80590 11.40252, -5.19438 2.77165 11.40252, -5.21090 2.73177 11.40252, -5.21654 2.68898 11.40252, -5.21654 -2.68898 11.40252, -5.21090 -2.73177 11.40252, -5.19438 -2.77165 11.40252, -5.16810 -2.80590 11.40252, -5.13386 -2.83218 11.40252, -5.09398 -2.84870 11.40252, -5.05118 -2.85433 11.40252, 5.05118 -2.85433 11.40252, 5.09398 -2.84870 11.40252, 5.13386 -2.83218 11.40252, 5.16810 -2.80590 11.40252, 5.19438 -2.77165 11.40252, 5.21090 -2.73177 11.40252, 5.21654 -2.68898 11.40252, 5.17520 2.68898 11.46039, 5.17097 2.72107 11.46039, 5.15858 2.75098 11.46039, 5.13887 2.77667 11.46039, 5.11319 2.79638 11.46039, 5.08328 2.80877 11.46039, 5.05118 2.81299 11.46039, -5.05118 2.81299 11.46039, -5.08328 2.80877 11.46039, -5.11319 2.79638 11.46039, -5.13887 2.77667 11.46039, -5.15858 2.75098 11.46039, -5.17097 2.72107 11.46039, -5.17520 2.68898 11.46039, -5.17520 -2.68898 11.46039, -5.17097 -2.72107 11.46039, -5.15858 -2.75098 11.46039, -5.13887 -2.77667 11.46039, -5.11319 -2.79638 11.46039, -5.08328 -2.80877 11.46039, -5.05118 -2.81299 11.46039, 5.05118 -2.81299 11.46039, 5.08328 -2.80877 11.46039, 5.11319 -2.79638 11.46039, 5.13887 -2.77667 11.46039, 5.15858 -2.75098 11.46039, 5.17097 -2.72107 11.46039, 5.17520 -2.68898 11.46039, 5.10906 2.68898 11.52654, 5.10708 2.70396 11.52654, 5.10130 2.71791 11.52654, 5.09210 2.72990 11.52654, 5.08012 2.73910 11.52654, 5.06616 2.74488 11.52654, 5.05118 2.74685 11.52654, -5.05118 2.74685 11.52654, -5.06616 2.74488 11.52654, -5.08012 2.73910 11.52654, -5.09210 2.72990 11.52654, -5.10130 2.71791 11.52654, -5.10708 2.70396 11.52654, -5.10906 2.68898 11.52654, -5.10906 -2.68898 11.52654, -5.10708 -2.70396 11.52654, -5.10130 -2.71791 11.52654, -5.09210 -2.72990 11.52654, -5.08012 -2.73910 11.52654, -5.06616 -2.74488 11.52654, -5.05118 -2.74685 11.52654, 5.05118 -2.74685 11.52654, 5.06616 -2.74488 11.52654, 5.08012 -2.73910 11.52654, 5.09210 -2.72990 11.52654, 5.10130 -2.71791 11.52654, 5.10708 -2.70396 11.52654, 5.10906 -2.68898 11.52654, 5.05118 2.68307 11.56787, 5.05098 2.68460 11.56787, 5.05039 2.68602 11.56787, 5.04945 2.68725 11.56787, 5.04823 2.68819 11.56787, 5.04680 2.68878 11.56787, 5.04528 2.68898 11.56787, -5.04528 2.68898 11.56787, -5.04680 2.68878 11.56787, -5.04823 2.68819 11.56787, -5.04945 2.68725 11.56787, -5.05039 2.68602 11.56787, -5.05098 2.68460 11.56787, -5.05118 2.68307 11.56787, -5.05118 -2.68307 11.56787, -5.05098 -2.68460 11.56787, -5.05039 -2.68602 11.56787, -5.04945 -2.68725 11.56787, -5.04823 -2.68819 11.56787, -5.04680 -2.68878 11.56787, -5.04528 -2.68898 11.56787, 5.04528 -2.68898 11.56787, 5.04680 -2.68878 11.56787, 5.04823 -2.68819 11.56787, 5.04945 -2.68725 11.56787, 5.05039 -2.68602 11.56787, 5.05098 -2.68460 11.56787, 5.05118 -2.68307 11.56787 ] } coordIndex [ 0, 1, 29, 28, -1, 1, 2, 30, 29, -1, 2, 3, 31, 30, -1, 3, 4, 32, 31, -1, 4, 5, 33, 32, -1, 5, 6, 34, 33, -1, 6, 7, 35, 34, -1, 7, 8, 36, 35, -1, 8, 9, 37, 36, -1, 9, 10, 38, 37, -1, 10, 11, 39, 38, -1, 11, 12, 40, 39, -1, 12, 13, 41, 40, -1, 13, 14, 42, 41, -1, 14, 15, 43, 42, -1, 15, 16, 44, 43, -1, 16, 17, 45, 44, -1, 17, 18, 46, 45, -1, 18, 19, 47, 46, -1, 19, 20, 48, 47, -1, 20, 21, 49, 48, -1, 21, 22, 50, 49, -1, 22, 23, 51, 50, -1, 23, 24, 52, 51, -1, 24, 25, 53, 52, -1, 25, 26, 54, 53, -1, 26, 27, 55, 54, -1, 27, 0, 28, 55, -1, 28, 29, 57, 56, -1, 29, 30, 58, 57, -1, 30, 31, 59, 58, -1, 31, 32, 60, 59, -1, 32, 33, 61, 60, -1, 33, 34, 62, 61, -1, 34, 35, 63, 62, -1, 35, 36, 64, 63, -1, 36, 37, 65, 64, -1, 37, 38, 66, 65, -1, 38, 39, 67, 66, -1, 39, 40, 68, 67, -1, 40, 41, 69, 68, -1, 41, 42, 70, 69, -1, 42, 43, 71, 70, -1, 43, 44, 72, 71, -1, 44, 45, 73, 72, -1, 45, 46, 74, 73, -1, 46, 47, 75, 74, -1, 47, 48, 76, 75, -1, 48, 49, 77, 76, -1, 49, 50, 78, 77, -1, 50, 51, 79, 78, -1, 51, 52, 80, 79, -1, 52, 53, 81, 80, -1, 53, 54, 82, 81, -1, 54, 55, 83, 82, -1, 55, 28, 56, 83, -1, 56, 57, 85, 84, -1, 57, 58, 86, 85, -1, 58, 59, 87, 86, -1, 59, 60, 88, 87, -1, 60, 61, 89, 88, -1, 61, 62, 90, 89, -1, 62, 63, 91, 90, -1, 63, 64, 92, 91, -1, 64, 65, 93, 92, -1, 65, 66, 94, 93, -1, 66, 67, 95, 94, -1, 67, 68, 96, 95, -1, 68, 69, 97, 96, -1, 69, 70, 98, 97, -1, 70, 71, 99, 98, -1, 71, 72, 100, 99, -1, 72, 73, 101, 100, -1, 73, 74, 102, 101, -1, 74, 75, 103, 102, -1, 75, 76, 104, 103, -1, 76, 77, 105, 104, -1, 77, 78, 106, 105, -1, 78, 79, 107, 106, -1, 79, 80, 108, 107, -1, 80, 81, 109, 108, -1, 81, 82, 110, 109, -1, 82, 83, 111, 110, -1, 83, 56, 84, 111, -1, 84, 85, 113, 112, -1, 85, 86, 114, 113, -1, 86, 87, 115, 114, -1, 87, 88, 116, 115, -1, 88, 89, 117, 116, -1, 89, 90, 118, 117, -1, 90, 91, 119, 118, -1, 91, 92, 120, 119, -1, 92, 93, 121, 120, -1, 93, 94, 122, 121, -1, 94, 95, 123, 122, -1, 95, 96, 124, 123, -1, 96, 97, 125, 124, -1, 97, 98, 126, 125, -1, 98, 99, 127, 126, -1, 99, 100, 128, 127, -1, 100, 101, 129, 128, -1, 101, 102, 130, 129, -1, 102, 103, 131, 130, -1, 103, 104, 132, 131, -1, 104, 105, 133, 132, -1, 105, 106, 134, 133, -1, 106, 107, 135, 134, -1, 107, 108, 136, 135, -1, 108, 109, 137, 136, -1, 109, 110, 138, 137, -1, 110, 111, 139, 138, -1, 111, 84, 112, 139, -1, 112, 113, 141, 140, -1, 113, 114, 142, 141, -1, 114, 115, 143, 142, -1, 115, 116, 144, 143, -1, 116, 117, 145, 144, -1, 117, 118, 146, 145, -1, 118, 119, 147, 146, -1, 119, 120, 148, 147, -1, 120, 121, 149, 148, -1, 121, 122, 150, 149, -1, 122, 123, 151, 150, -1, 123, 124, 152, 151, -1, 124, 125, 153, 152, -1, 125, 126, 154, 153, -1, 126, 127, 155, 154, -1, 127, 128, 156, 155, -1, 128, 129, 157, 156, -1, 129, 130, 158, 157, -1, 130, 131, 159, 158, -1, 131, 132, 160, 159, -1, 132, 133, 161, 160, -1, 133, 134, 162, 161, -1, 134, 135, 163, 162, -1, 135, 136, 164, 163, -1, 136, 137, 165, 164, -1, 137, 138, 166, 165, -1, 138, 139, 167, 166, -1, 139, 112, 140, 167, -1, 140, 141, 169, 168, -1, 141, 142, 170, 169, -1, 142, 143, 171, 170, -1, 143, 144, 172, 171, -1, 144, 145, 173, 172, -1, 145, 146, 174, 173, -1, 146, 147, 175, 174, -1, 147, 148, 176, 175, -1, 148, 149, 177, 176, -1, 149, 150, 178, 177, -1, 150, 151, 179, 178, -1, 151, 152, 180, 179, -1, 152, 153, 181, 180, -1, 153, 154, 182, 181, -1, 154, 155, 183, 182, -1, 155, 156, 184, 183, -1, 156, 157, 185, 184, -1, 157, 158, 186, 185, -1, 158, 159, 187, 186, -1, 159, 160, 188, 187, -1, 160, 161, 189, 188, -1, 161, 162, 190, 189, -1, 162, 163, 191, 190, -1, 163, 164, 192, 191, -1, 164, 165, 193, 192, -1, 165, 166, 194, 193, -1, 166, 167, 195, 194, -1, 167, 140, 168, 195, -1, 168, 169, 197, 196, -1, 169, 170, 198, 197, -1, 170, 171, 199, 198, -1, 171, 172, 200, 199, -1, 172, 173, 201, 200, -1, 173, 174, 202, 201, -1, 174, 175, 203, 202, -1, 175, 176, 204, 203, -1, 176, 177, 205, 204, -1, 177, 178, 206, 205, -1, 178, 179, 207, 206, -1, 179, 180, 208, 207, -1, 180, 181, 209, 208, -1, 181, 182, 210, 209, -1, 182, 183, 211, 210, -1, 183, 184, 212, 211, -1, 184, 185, 213, 212, -1, 185, 186, 214, 213, -1, 186, 187, 215, 214, -1, 187, 188, 216, 215, -1, 188, 189, 217, 216, -1, 189, 190, 218, 217, -1, 190, 191, 219, 218, -1, 191, 192, 220, 219, -1, 192, 193, 221, 220, -1, 193, 194, 222, 221, -1, 194, 195, 223, 222, -1, 195, 168, 196, 223, -1, 27, 26, 25, 24, 23, 22, 21, 20, 19, 18, 17, 16, 15, 14, 13, 12, 11, 10, 9, 8, 7, 6, 5, 4, 3, 2, 1, 0, -1, 196, 197, 198, 199, 200, 201, 202, 203, 204, 205, 206, 207, 208, 209, 210, 211, 212, 213, 214, 215, 216, 217, 218, 219, 220, 221, 222, 223, -1 ] creaseAngle 0.6 solid TRUE } }
# fine lid seam
Shape { appearance USE SEAM geometry IndexedFaceSet { coord Coordinate { point [ 5.17504 2.80693 11.50835, 5.17484 2.80846 11.50835, 5.17425 2.80988 11.50835, 5.17331 2.81110 11.50835, 5.17209 2.81204 11.50835, 5.17066 2.81263 11.50835, 5.16913 2.81283 11.50835, -5.16913 2.81283 11.50835, -5.17066 2.81263 11.50835, -5.17209 2.81204 11.50835, -5.17331 2.81110 11.50835, -5.17425 2.80988 11.50835, -5.17484 2.80846 11.50835, -5.17504 2.80693 11.50835, -5.17504 -2.80693 11.50835, -5.17484 -2.80846 11.50835, -5.17425 -2.80988 11.50835, -5.17331 -2.81110 11.50835, -5.17209 -2.81204 11.50835, -5.17066 -2.81263 11.50835, -5.16913 -2.81283 11.50835, 5.16913 -2.81283 11.50835, 5.17066 -2.81263 11.50835, 5.17209 -2.81204 11.50835, 5.17331 -2.81110 11.50835, 5.17425 -2.80988 11.50835, 5.17484 -2.80846 11.50835, 5.17504 -2.80693 11.50835, 5.18198 2.81283 11.51331, 5.18175 2.81463 11.51331, 5.18105 2.81631 11.51331, 5.17995 2.81775 11.51331, 5.17851 2.81885 11.51331, 5.17684 2.81954 11.51331, 5.17504 2.81978 11.51331, -5.17504 2.81978 11.51331, -5.17684 2.81954 11.51331, -5.17851 2.81885 11.51331, -5.17995 2.81775 11.51331, -5.18105 2.81631 11.51331, -5.18175 2.81463 11.51331, -5.18198 2.81283 11.51331, -5.18198 -2.81283 11.51331, -5.18175 -2.81463 11.51331, -5.18105 -2.81631 11.51331, -5.17995 -2.81775 11.51331, -5.17851 -2.81885 11.51331, -5.17684 -2.81954 11.51331, -5.17504 -2.81978 11.51331, 5.17504 -2.81978 11.51331, 5.17684 -2.81954 11.51331, 5.17851 -2.81885 11.51331, 5.17995 -2.81775 11.51331, 5.18105 -2.81631 11.51331, 5.18175 -2.81463 11.51331, 5.18198 -2.81283 11.51331, 5.18992 2.81283 11.52124, 5.18941 2.81669 11.52124, 5.18793 2.82028 11.52124, 5.18556 2.82336 11.52124, 5.18248 2.82572 11.52124, 5.17889 2.82721 11.52124, 5.17504 2.82772 11.52124, -5.17504 2.82772 11.52124, -5.17889 2.82721 11.52124, -5.18248 2.82572 11.52124, -5.18556 2.82336 11.52124, -5.18793 2.82028 11.52124, -5.18941 2.81669 11.52124, -5.18992 2.81283 11.52124, -5.18992 -2.81283 11.52124, -5.18941 -2.81669 11.52124, -5.18793 -2.82028 11.52124, -5.18556 -2.82336 11.52124, -5.18248 -2.82572 11.52124, -5.17889 -2.82721 11.52124, -5.17504 -2.82772 11.52124, 5.17504 -2.82772 11.52124, 5.17889 -2.82721 11.52124, 5.18248 -2.82572 11.52124, 5.18556 -2.82336 11.52124, 5.18793 -2.82028 11.52124, 5.18941 -2.81669 11.52124, 5.18992 -2.81283 11.52124, 5.19488 2.81283 11.52819, 5.19421 2.81797 11.52819, 5.19222 2.82276 11.52819, 5.18907 2.82687 11.52819, 5.18496 2.83002 11.52819, 5.18017 2.83200 11.52819, 5.17504 2.83268 11.52819, -5.17504 2.83268 11.52819, -5.18017 2.83200 11.52819, -5.18496 2.83002 11.52819, -5.18907 2.82687 11.52819, -5.19222 2.82276 11.52819, -5.19421 2.81797 11.52819, -5.19488 2.81283 11.52819, -5.19488 -2.81283 11.52819, -5.19421 -2.81797 11.52819, -5.19222 -2.82276 11.52819, -5.18907 -2.82687 11.52819, -5.18496 -2.83002 11.52819, -5.18017 -2.83200 11.52819, -5.17504 -2.83268 11.52819, 5.17504 -2.83268 11.52819, 5.18017 -2.83200 11.52819, 5.18496 -2.83002 11.52819, 5.18907 -2.82687 11.52819, 5.19222 -2.82276 11.52819, 5.19421 -2.81797 11.52819, 5.19488 -2.81283 11.52819, 5.19488 2.81283 11.53811, 5.19421 2.81797 11.53811, 5.19222 2.82276 11.53811, 5.18907 2.82687 11.53811, 5.18496 2.83002 11.53811, 5.18017 2.83200 11.53811, 5.17504 2.83268 11.53811, -5.17504 2.83268 11.53811, -5.18017 2.83200 11.53811, -5.18496 2.83002 11.53811, -5.18907 2.82687 11.53811, -5.19222 2.82276 11.53811, -5.19421 2.81797 11.53811, -5.19488 2.81283 11.53811, -5.19488 -2.81283 11.53811, -5.19421 -2.81797 11.53811, -5.19222 -2.82276 11.53811, -5.18907 -2.82687 11.53811, -5.18496 -2.83002 11.53811, -5.18017 -2.83200 11.53811, -5.17504 -2.83268 11.53811, 5.17504 -2.83268 11.53811, 5.18017 -2.83200 11.53811, 5.18496 -2.83002 11.53811, 5.18907 -2.82687 11.53811, 5.19222 -2.82276 11.53811, 5.19421 -2.81797 11.53811, 5.19488 -2.81283 11.53811, 5.18992 2.81283 11.54506, 5.18941 2.81669 11.54506, 5.18793 2.82028 11.54506, 5.18556 2.82336 11.54506, 5.18248 2.82572 11.54506, 5.17889 2.82721 11.54506, 5.17504 2.82772 11.54506, -5.17504 2.82772 11.54506, -5.17889 2.82721 11.54506, -5.18248 2.82572 11.54506, -5.18556 2.82336 11.54506, -5.18793 2.82028 11.54506, -5.18941 2.81669 11.54506, -5.18992 2.81283 11.54506, -5.18992 -2.81283 11.54506, -5.18941 -2.81669 11.54506, -5.18793 -2.82028 11.54506, -5.18556 -2.82336 11.54506, -5.18248 -2.82572 11.54506, -5.17889 -2.82721 11.54506, -5.17504 -2.82772 11.54506, 5.17504 -2.82772 11.54506, 5.17889 -2.82721 11.54506, 5.18248 -2.82572 11.54506, 5.18556 -2.82336 11.54506, 5.18793 -2.82028 11.54506, 5.18941 -2.81669 11.54506, 5.18992 -2.81283 11.54506, 5.18198 2.81283 11.55299, 5.18175 2.81463 11.55299, 5.18105 2.81631 11.55299, 5.17995 2.81775 11.55299, 5.17851 2.81885 11.55299, 5.17684 2.81954 11.55299, 5.17504 2.81978 11.55299, -5.17504 2.81978 11.55299, -5.17684 2.81954 11.55299, -5.17851 2.81885 11.55299, -5.17995 2.81775 11.55299, -5.18105 2.81631 11.55299, -5.18175 2.81463 11.55299, -5.18198 2.81283 11.55299, -5.18198 -2.81283 11.55299, -5.18175 -2.81463 11.55299, -5.18105 -2.81631 11.55299, -5.17995 -2.81775 11.55299, -5.17851 -2.81885 11.55299, -5.17684 -2.81954 11.55299, -5.17504 -2.81978 11.55299, 5.17504 -2.81978 11.55299, 5.17684 -2.81954 11.55299, 5.17851 -2.81885 11.55299, 5.17995 -2.81775 11.55299, 5.18105 -2.81631 11.55299, 5.18175 -2.81463 11.55299, 5.18198 -2.81283 11.55299, 5.17504 2.80693 11.55795, 5.17484 2.80846 11.55795, 5.17425 2.80988 11.55795, 5.17331 2.81110 11.55795, 5.17209 2.81204 11.55795, 5.17066 2.81263 11.55795, 5.16913 2.81283 11.55795, -5.16913 2.81283 11.55795, -5.17066 2.81263 11.55795, -5.17209 2.81204 11.55795, -5.17331 2.81110 11.55795, -5.17425 2.80988 11.55795, -5.17484 2.80846 11.55795, -5.17504 2.80693 11.55795, -5.17504 -2.80693 11.55795, -5.17484 -2.80846 11.55795, -5.17425 -2.80988 11.55795, -5.17331 -2.81110 11.55795, -5.17209 -2.81204 11.55795, -5.17066 -2.81263 11.55795, -5.16913 -2.81283 11.55795, 5.16913 -2.81283 11.55795, 5.17066 -2.81263 11.55795, 5.17209 -2.81204 11.55795, 5.17331 -2.81110 11.55795, 5.17425 -2.80988 11.55795, 5.17484 -2.80846 11.55795, 5.17504 -2.80693 11.55795 ] } coordIndex [ 0, 1, 29, 28, -1, 1, 2, 30, 29, -1, 2, 3, 31, 30, -1, 3, 4, 32, 31, -1, 4, 5, 33, 32, -1, 5, 6, 34, 33, -1, 6, 7, 35, 34, -1, 7, 8, 36, 35, -1, 8, 9, 37, 36, -1, 9, 10, 38, 37, -1, 10, 11, 39, 38, -1, 11, 12, 40, 39, -1, 12, 13, 41, 40, -1, 13, 14, 42, 41, -1, 14, 15, 43, 42, -1, 15, 16, 44, 43, -1, 16, 17, 45, 44, -1, 17, 18, 46, 45, -1, 18, 19, 47, 46, -1, 19, 20, 48, 47, -1, 20, 21, 49, 48, -1, 21, 22, 50, 49, -1, 22, 23, 51, 50, -1, 23, 24, 52, 51, -1, 24, 25, 53, 52, -1, 25, 26, 54, 53, -1, 26, 27, 55, 54, -1, 27, 0, 28, 55, -1, 28, 29, 57, 56, -1, 29, 30, 58, 57, -1, 30, 31, 59, 58, -1, 31, 32, 60, 59, -1, 32, 33, 61, 60, -1, 33, 34, 62, 61, -1, 34, 35, 63, 62, -1, 35, 36, 64, 63, -1, 36, 37, 65, 64, -1, 37, 38, 66, 65, -1, 38, 39, 67, 66, -1, 39, 40, 68, 67, -1, 40, 41, 69, 68, -1, 41, 42, 70, 69, -1, 42, 43, 71, 70, -1, 43, 44, 72, 71, -1, 44, 45, 73, 72, -1, 45, 46, 74, 73, -1, 46, 47, 75, 74, -1, 47, 48, 76, 75, -1, 48, 49, 77, 76, -1, 49, 50, 78, 77, -1, 50, 51, 79, 78, -1, 51, 52, 80, 79, -1, 52, 53, 81, 80, -1, 53, 54, 82, 81, -1, 54, 55, 83, 82, -1, 55, 28, 56, 83, -1, 56, 57, 85, 84, -1, 57, 58, 86, 85, -1, 58, 59, 87, 86, -1, 59, 60, 88, 87, -1, 60, 61, 89, 88, -1, 61, 62, 90, 89, -1, 62, 63, 91, 90, -1, 63, 64, 92, 91, -1, 64, 65, 93, 92, -1, 65, 66, 94, 93, -1, 66, 67, 95, 94, -1, 67, 68, 96, 95, -1, 68, 69, 97, 96, -1, 69, 70, 98, 97, -1, 70, 71, 99, 98, -1, 71, 72, 100, 99, -1, 72, 73, 101, 100, -1, 73, 74, 102, 101, -1, 74, 75, 103, 102, -1, 75, 76, 104, 103, -1, 76, 77, 105, 104, -1, 77, 78, 106, 105, -1, 78, 79, 107, 106, -1, 79, 80, 108, 107, -1, 80, 81, 109, 108, -1, 81, 82, 110, 109, -1, 82, 83, 111, 110, -1, 83, 56, 84, 111, -1, 84, 85, 113, 112, -1, 85, 86, 114, 113, -1, 86, 87, 115, 114, -1, 87, 88, 116, 115, -1, 88, 89, 117, 116, -1, 89, 90, 118, 117, -1, 90, 91, 119, 118, -1, 91, 92, 120, 119, -1, 92, 93, 121, 120, -1, 93, 94, 122, 121, -1, 94, 95, 123, 122, -1, 95, 96, 124, 123, -1, 96, 97, 125, 124, -1, 97, 98, 126, 125, -1, 98, 99, 127, 126, -1, 99, 100, 128, 127, -1, 100, 101, 129, 128, -1, 101, 102, 130, 129, -1, 102, 103, 131, 130, -1, 103, 104, 132, 131, -1, 104, 105, 133, 132, -1, 105, 106, 134, 133, -1, 106, 107, 135, 134, -1, 107, 108, 136, 135, -1, 108, 109, 137, 136, -1, 109, 110, 138, 137, -1, 110, 111, 139, 138, -1, 111, 84, 112, 139, -1, 112, 113, 141, 140, -1, 113, 114, 142, 141, -1, 114, 115, 143, 142, -1, 115, 116, 144, 143, -1, 116, 117, 145, 144, -1, 117, 118, 146, 145, -1, 118, 119, 147, 146, -1, 119, 120, 148, 147, -1, 120, 121, 149, 148, -1, 121, 122, 150, 149, -1, 122, 123, 151, 150, -1, 123, 124, 152, 151, -1, 124, 125, 153, 152, -1, 125, 126, 154, 153, -1, 126, 127, 155, 154, -1, 127, 128, 156, 155, -1, 128, 129, 157, 156, -1, 129, 130, 158, 157, -1, 130, 131, 159, 158, -1, 131, 132, 160, 159, -1, 132, 133, 161, 160, -1, 133, 134, 162, 161, -1, 134, 135, 163, 162, -1, 135, 136, 164, 163, -1, 136, 137, 165, 164, -1, 137, 138, 166, 165, -1, 138, 139, 167, 166, -1, 139, 112, 140, 167, -1, 140, 141, 169, 168, -1, 141, 142, 170, 169, -1, 142, 143, 171, 170, -1, 143, 144, 172, 171, -1, 144, 145, 173, 172, -1, 145, 146, 174, 173, -1, 146, 147, 175, 174, -1, 147, 148, 176, 175, -1, 148, 149, 177, 176, -1, 149, 150, 178, 177, -1, 150, 151, 179, 178, -1, 151, 152, 180, 179, -1, 152, 153, 181, 180, -1, 153, 154, 182, 181, -1, 154, 155, 183, 182, -1, 155, 156, 184, 183, -1, 156, 157, 185, 184, -1, 157, 158, 186, 185, -1, 158, 159, 187, 186, -1, 159, 160, 188, 187, -1, 160, 161, 189, 188, -1, 161, 162, 190, 189, -1, 162, 163, 191, 190, -1, 163, 164, 192, 191, -1, 164, 165, 193, 192, -1, 165, 166, 194, 193, -1, 166, 167, 195, 194, -1, 167, 140, 168, 195, -1, 168, 169, 197, 196, -1, 169, 170, 198, 197, -1, 170, 171, 199, 198, -1, 171, 172, 200, 199, -1, 172, 173, 201, 200, -1, 173, 174, 202, 201, -1, 174, 175, 203, 202, -1, 175, 176, 204, 203, -1, 176, 177, 205, 204, -1, 177, 178, 206, 205, -1, 178, 179, 207, 206, -1, 179, 180, 208, 207, -1, 180, 181, 209, 208, -1, 181, 182, 210, 209, -1, 182, 183, 211, 210, -1, 183, 184, 212, 211, -1, 184, 185, 213, 212, -1, 185, 186, 214, 213, -1, 186, 187, 215, 214, -1, 187, 188, 216, 215, -1, 188, 189, 217, 216, -1, 189, 190, 218, 217, -1, 190, 191, 219, 218, -1, 191, 192, 220, 219, -1, 192, 193, 221, 220, -1, 193, 194, 222, 221, -1, 194, 195, 223, 222, -1, 195, 168, 196, 223, -1, 27, 26, 25, 24, 23, 22, 21, 20, 19, 18, 17, 16, 15, 14, 13, 12, 11, 10, 9, 8, 7, 6, 5, 4, 3, 2, 1, 0, -1, 196, 197, 198, 199, 200, 201, 202, 203, 204, 205, 206, 207, 208, 209, 210, 211, 212, 213, 214, 215, 216, 217, 218, 219, 220, 221, 222, 223, -1 ] creaseAngle 0.6 solid TRUE } }
# integral rounded lid
Shape { appearance USE LID geometry IndexedFaceSet { coord Coordinate { point [ 5.16967 2.80156 11.52654, 5.16947 2.80309 11.52654, 5.16888 2.80451 11.52654, 5.16794 2.80573 11.52654, 5.16672 2.80667 11.52654, 5.16529 2.80726 11.52654, 5.16376 2.80746 11.52654, -5.16376 2.80746 11.52654, -5.16529 2.80726 11.52654, -5.16672 2.80667 11.52654, -5.16794 2.80573 11.52654, -5.16888 2.80451 11.52654, -5.16947 2.80309 11.52654, -5.16967 2.80156 11.52654, -5.16967 -2.80156 11.52654, -5.16947 -2.80309 11.52654, -5.16888 -2.80451 11.52654, -5.16794 -2.80573 11.52654, -5.16672 -2.80667 11.52654, -5.16529 -2.80726 11.52654, -5.16376 -2.80746 11.52654, 5.16376 -2.80746 11.52654, 5.16529 -2.80726 11.52654, 5.16672 -2.80667 11.52654, 5.16794 -2.80573 11.52654, 5.16888 -2.80451 11.52654, 5.16947 -2.80309 11.52654, 5.16967 -2.80156 11.52654, 5.18194 2.80746 11.53530, 5.18152 2.81064 11.53530, 5.18029 2.81360 11.53530, 5.17834 2.81614 11.53530, 5.17580 2.81809 11.53530, 5.17284 2.81932 11.53530, 5.16967 2.81973 11.53530, -5.16967 2.81973 11.53530, -5.17284 2.81932 11.53530, -5.17580 2.81809 11.53530, -5.17834 2.81614 11.53530, -5.18029 2.81360 11.53530, -5.18152 2.81064 11.53530, -5.18194 2.80746 11.53530, -5.18194 -2.80746 11.53530, -5.18152 -2.81064 11.53530, -5.18029 -2.81360 11.53530, -5.17834 -2.81614 11.53530, -5.17580 -2.81809 11.53530, -5.17284 -2.81932 11.53530, -5.16967 -2.81973 11.53530, 5.16967 -2.81973 11.53530, 5.17284 -2.81932 11.53530, 5.17580 -2.81809 11.53530, 5.17834 -2.81614 11.53530, 5.18029 -2.81360 11.53530, 5.18152 -2.81064 11.53530, 5.18194 -2.80746 11.53530, 5.19596 2.80746 11.54932, 5.19506 2.81427 11.54932, 5.19244 2.82061 11.54932, 5.18826 2.82606 11.54932, 5.18281 2.83023 11.54932, 5.17647 2.83286 11.54932, 5.16967 2.83376 11.54932, -5.16967 2.83376 11.54932, -5.17647 2.83286 11.54932, -5.18281 2.83023 11.54932, -5.18826 2.82606 11.54932, -5.19244 2.82061 11.54932, -5.19506 2.81427 11.54932, -5.19596 2.80746 11.54932, -5.19596 -2.80746 11.54932, -5.19506 -2.81427 11.54932, -5.19244 -2.82061 11.54932, -5.18826 -2.82606 11.54932, -5.18281 -2.83023 11.54932, -5.17647 -2.83286 11.54932, -5.16967 -2.83376 11.54932, 5.16967 -2.83376 11.54932, 5.17647 -2.83286 11.54932, 5.18281 -2.83023 11.54932, 5.18826 -2.82606 11.54932, 5.19244 -2.82061 11.54932, 5.19506 -2.81427 11.54932, 5.19596 -2.80746 11.54932, 5.20472 2.80746 11.56159, 5.20353 2.81654 11.56159, 5.20003 2.82499 11.56159, 5.19446 2.83225 11.56159, 5.18720 2.83782 11.56159, 5.17874 2.84133 11.56159, 5.16967 2.84252 11.56159, -5.16967 2.84252 11.56159, -5.17874 2.84133 11.56159, -5.18720 2.83782 11.56159, -5.19446 2.83225 11.56159, -5.20003 2.82499 11.56159, -5.20353 2.81654 11.56159, -5.20472 2.80746 11.56159, -5.20472 -2.80746 11.56159, -5.20353 -2.81654 11.56159, -5.20003 -2.82499 11.56159, -5.19446 -2.83225 11.56159, -5.18720 -2.83782 11.56159, -5.17874 -2.84133 11.56159, -5.16967 -2.84252 11.56159, 5.16967 -2.84252 11.56159, 5.17874 -2.84133 11.56159, 5.18720 -2.83782 11.56159, 5.19446 -2.83225 11.56159, 5.20003 -2.82499 11.56159, 5.20353 -2.81654 11.56159, 5.20472 -2.80746 11.56159, 5.20472 2.80746 11.57912, 5.20353 2.81654 11.57912, 5.20003 2.82499 11.57912, 5.19446 2.83225 11.57912, 5.18720 2.83782 11.57912, 5.17874 2.84133 11.57912, 5.16967 2.84252 11.57912, -5.16967 2.84252 11.57912, -5.17874 2.84133 11.57912, -5.18720 2.83782 11.57912, -5.19446 2.83225 11.57912, -5.20003 2.82499 11.57912, -5.20353 2.81654 11.57912, -5.20472 2.80746 11.57912, -5.20472 -2.80746 11.57912, -5.20353 -2.81654 11.57912, -5.20003 -2.82499 11.57912, -5.19446 -2.83225 11.57912, -5.18720 -2.83782 11.57912, -5.17874 -2.84133 11.57912, -5.16967 -2.84252 11.57912, 5.16967 -2.84252 11.57912, 5.17874 -2.84133 11.57912, 5.18720 -2.83782 11.57912, 5.19446 -2.83225 11.57912, 5.20003 -2.82499 11.57912, 5.20353 -2.81654 11.57912, 5.20472 -2.80746 11.57912, 5.19596 2.80746 11.59139, 5.19506 2.81427 11.59139, 5.19244 2.82061 11.59139, 5.18826 2.82606 11.59139, 5.18281 2.83023 11.59139, 5.17647 2.83286 11.59139, 5.16967 2.83376 11.59139, -5.16967 2.83376 11.59139, -5.17647 2.83286 11.59139, -5.18281 2.83023 11.59139, -5.18826 2.82606 11.59139, -5.19244 2.82061 11.59139, -5.19506 2.81427 11.59139, -5.19596 2.80746 11.59139, -5.19596 -2.80746 11.59139, -5.19506 -2.81427 11.59139, -5.19244 -2.82061 11.59139, -5.18826 -2.82606 11.59139, -5.18281 -2.83023 11.59139, -5.17647 -2.83286 11.59139, -5.16967 -2.83376 11.59139, 5.16967 -2.83376 11.59139, 5.17647 -2.83286 11.59139, 5.18281 -2.83023 11.59139, 5.18826 -2.82606 11.59139, 5.19244 -2.82061 11.59139, 5.19506 -2.81427 11.59139, 5.19596 -2.80746 11.59139, 5.18194 2.80746 11.60541, 5.18152 2.81064 11.60541, 5.18029 2.81360 11.60541, 5.17834 2.81614 11.60541, 5.17580 2.81809 11.60541, 5.17284 2.81932 11.60541, 5.16967 2.81973 11.60541, -5.16967 2.81973 11.60541, -5.17284 2.81932 11.60541, -5.17580 2.81809 11.60541, -5.17834 2.81614 11.60541, -5.18029 2.81360 11.60541, -5.18152 2.81064 11.60541, -5.18194 2.80746 11.60541, -5.18194 -2.80746 11.60541, -5.18152 -2.81064 11.60541, -5.18029 -2.81360 11.60541, -5.17834 -2.81614 11.60541, -5.17580 -2.81809 11.60541, -5.17284 -2.81932 11.60541, -5.16967 -2.81973 11.60541, 5.16967 -2.81973 11.60541, 5.17284 -2.81932 11.60541, 5.17580 -2.81809 11.60541, 5.17834 -2.81614 11.60541, 5.18029 -2.81360 11.60541, 5.18152 -2.81064 11.60541, 5.18194 -2.80746 11.60541, 5.16967 2.80156 11.61417, 5.16947 2.80309 11.61417, 5.16888 2.80451 11.61417, 5.16794 2.80573 11.61417, 5.16672 2.80667 11.61417, 5.16529 2.80726 11.61417, 5.16376 2.80746 11.61417, -5.16376 2.80746 11.61417, -5.16529 2.80726 11.61417, -5.16672 2.80667 11.61417, -5.16794 2.80573 11.61417, -5.16888 2.80451 11.61417, -5.16947 2.80309 11.61417, -5.16967 2.80156 11.61417, -5.16967 -2.80156 11.61417, -5.16947 -2.80309 11.61417, -5.16888 -2.80451 11.61417, -5.16794 -2.80573 11.61417, -5.16672 -2.80667 11.61417, -5.16529 -2.80726 11.61417, -5.16376 -2.80746 11.61417, 5.16376 -2.80746 11.61417, 5.16529 -2.80726 11.61417, 5.16672 -2.80667 11.61417, 5.16794 -2.80573 11.61417, 5.16888 -2.80451 11.61417, 5.16947 -2.80309 11.61417, 5.16967 -2.80156 11.61417 ] } coordIndex [ 0, 1, 29, 28, -1, 1, 2, 30, 29, -1, 2, 3, 31, 30, -1, 3, 4, 32, 31, -1, 4, 5, 33, 32, -1, 5, 6, 34, 33, -1, 6, 7, 35, 34, -1, 7, 8, 36, 35, -1, 8, 9, 37, 36, -1, 9, 10, 38, 37, -1, 10, 11, 39, 38, -1, 11, 12, 40, 39, -1, 12, 13, 41, 40, -1, 13, 14, 42, 41, -1, 14, 15, 43, 42, -1, 15, 16, 44, 43, -1, 16, 17, 45, 44, -1, 17, 18, 46, 45, -1, 18, 19, 47, 46, -1, 19, 20, 48, 47, -1, 20, 21, 49, 48, -1, 21, 22, 50, 49, -1, 22, 23, 51, 50, -1, 23, 24, 52, 51, -1, 24, 25, 53, 52, -1, 25, 26, 54, 53, -1, 26, 27, 55, 54, -1, 27, 0, 28, 55, -1, 28, 29, 57, 56, -1, 29, 30, 58, 57, -1, 30, 31, 59, 58, -1, 31, 32, 60, 59, -1, 32, 33, 61, 60, -1, 33, 34, 62, 61, -1, 34, 35, 63, 62, -1, 35, 36, 64, 63, -1, 36, 37, 65, 64, -1, 37, 38, 66, 65, -1, 38, 39, 67, 66, -1, 39, 40, 68, 67, -1, 40, 41, 69, 68, -1, 41, 42, 70, 69, -1, 42, 43, 71, 70, -1, 43, 44, 72, 71, -1, 44, 45, 73, 72, -1, 45, 46, 74, 73, -1, 46, 47, 75, 74, -1, 47, 48, 76, 75, -1, 48, 49, 77, 76, -1, 49, 50, 78, 77, -1, 50, 51, 79, 78, -1, 51, 52, 80, 79, -1, 52, 53, 81, 80, -1, 53, 54, 82, 81, -1, 54, 55, 83, 82, -1, 55, 28, 56, 83, -1, 56, 57, 85, 84, -1, 57, 58, 86, 85, -1, 58, 59, 87, 86, -1, 59, 60, 88, 87, -1, 60, 61, 89, 88, -1, 61, 62, 90, 89, -1, 62, 63, 91, 90, -1, 63, 64, 92, 91, -1, 64, 65, 93, 92, -1, 65, 66, 94, 93, -1, 66, 67, 95, 94, -1, 67, 68, 96, 95, -1, 68, 69, 97, 96, -1, 69, 70, 98, 97, -1, 70, 71, 99, 98, -1, 71, 72, 100, 99, -1, 72, 73, 101, 100, -1, 73, 74, 102, 101, -1, 74, 75, 103, 102, -1, 75, 76, 104, 103, -1, 76, 77, 105, 104, -1, 77, 78, 106, 105, -1, 78, 79, 107, 106, -1, 79, 80, 108, 107, -1, 80, 81, 109, 108, -1, 81, 82, 110, 109, -1, 82, 83, 111, 110, -1, 83, 56, 84, 111, -1, 84, 85, 113, 112, -1, 85, 86, 114, 113, -1, 86, 87, 115, 114, -1, 87, 88, 116, 115, -1, 88, 89, 117, 116, -1, 89, 90, 118, 117, -1, 90, 91, 119, 118, -1, 91, 92, 120, 119, -1, 92, 93, 121, 120, -1, 93, 94, 122, 121, -1, 94, 95, 123, 122, -1, 95, 96, 124, 123, -1, 96, 97, 125, 124, -1, 97, 98, 126, 125, -1, 98, 99, 127, 126, -1, 99, 100, 128, 127, -1, 100, 101, 129, 128, -1, 101, 102, 130, 129, -1, 102, 103, 131, 130, -1, 103, 104, 132, 131, -1, 104, 105, 133, 132, -1, 105, 106, 134, 133, -1, 106, 107, 135, 134, -1, 107, 108, 136, 135, -1, 108, 109, 137, 136, -1, 109, 110, 138, 137, -1, 110, 111, 139, 138, -1, 111, 84, 112, 139, -1, 112, 113, 141, 140, -1, 113, 114, 142, 141, -1, 114, 115, 143, 142, -1, 115, 116, 144, 143, -1, 116, 117, 145, 144, -1, 117, 118, 146, 145, -1, 118, 119, 147, 146, -1, 119, 120, 148, 147, -1, 120, 121, 149, 148, -1, 121, 122, 150, 149, -1, 122, 123, 151, 150, -1, 123, 124, 152, 151, -1, 124, 125, 153, 152, -1, 125, 126, 154, 153, -1, 126, 127, 155, 154, -1, 127, 128, 156, 155, -1, 128, 129, 157, 156, -1, 129, 130, 158, 157, -1, 130, 131, 159, 158, -1, 131, 132, 160, 159, -1, 132, 133, 161, 160, -1, 133, 134, 162, 161, -1, 134, 135, 163, 162, -1, 135, 136, 164, 163, -1, 136, 137, 165, 164, -1, 137, 138, 166, 165, -1, 138, 139, 167, 166, -1, 139, 112, 140, 167, -1, 140, 141, 169, 168, -1, 141, 142, 170, 169, -1, 142, 143, 171, 170, -1, 143, 144, 172, 171, -1, 144, 145, 173, 172, -1, 145, 146, 174, 173, -1, 146, 147, 175, 174, -1, 147, 148, 176, 175, -1, 148, 149, 177, 176, -1, 149, 150, 178, 177, -1, 150, 151, 179, 178, -1, 151, 152, 180, 179, -1, 152, 153, 181, 180, -1, 153, 154, 182, 181, -1, 154, 155, 183, 182, -1, 155, 156, 184, 183, -1, 156, 157, 185, 184, -1, 157, 158, 186, 185, -1, 158, 159, 187, 186, -1, 159, 160, 188, 187, -1, 160, 161, 189, 188, -1, 161, 162, 190, 189, -1, 162, 163, 191, 190, -1, 163, 164, 192, 191, -1, 164, 165, 193, 192, -1, 165, 166, 194, 193, -1, 166, 167, 195, 194, -1, 167, 140, 168, 195, -1, 168, 169, 197, 196, -1, 169, 170, 198, 197, -1, 170, 171, 199, 198, -1, 171, 172, 200, 199, -1, 172, 173, 201, 200, -1, 173, 174, 202, 201, -1, 174, 175, 203, 202, -1, 175, 176, 204, 203, -1, 176, 177, 205, 204, -1, 177, 178, 206, 205, -1, 178, 179, 207, 206, -1, 179, 180, 208, 207, -1, 180, 181, 209, 208, -1, 181, 182, 210, 209, -1, 182, 183, 211, 210, -1, 183, 184, 212, 211, -1, 184, 185, 213, 212, -1, 185, 186, 214, 213, -1, 186, 187, 215, 214, -1, 187, 188, 216, 215, -1, 188, 189, 217, 216, -1, 189, 190, 218, 217, -1, 190, 191, 219, 218, -1, 191, 192, 220, 219, -1, 192, 193, 221, 220, -1, 193, 194, 222, 221, -1, 194, 195, 223, 222, -1, 195, 168, 196, 223, -1, 27, 26, 25, 24, 23, 22, 21, 20, 19, 18, 17, 16, 15, 14, 13, 12, 11, 10, 9, 8, 7, 6, 5, 4, 3, 2, 1, 0, -1, 196, 197, 198, 199, 200, 201, 202, 203, 204, 205, 206, 207, 208, 209, 210, 211, 212, 213, 214, 215, 216, 217, 218, 219, 220, 221, 222, 223, -1 ] creaseAngle 0.6 solid TRUE } }
# tinned lead 1
Shape { appearance USE TIN geometry IndexedFaceSet { coord Coordinate { point [ -4.25197 0.00000 -1.37795, -4.26064 0.05475 -1.37795, -4.28580 0.10414 -1.37795, -4.32500 0.14333 -1.37795, -4.37439 0.16849 -1.37795, -4.42913 0.17717 -1.37795, -4.48388 0.16849 -1.37795, -4.53327 0.14333 -1.37795, -4.57246 0.10414 -1.37795, -4.59763 0.05475 -1.37795, -4.60630 0.00000 -1.37795, -4.59763 -0.05475 -1.37795, -4.57246 -0.10414 -1.37795, -4.53327 -0.14333 -1.37795, -4.48388 -0.16849 -1.37795, -4.42913 -0.17717 -1.37795, -4.37439 -0.16849 -1.37795, -4.32500 -0.14333 -1.37795, -4.28580 -0.10414 -1.37795, -4.26064 -0.05475 -1.37795, -4.25197 0.00000 0.13780, -4.26064 0.05475 0.13780, -4.28580 0.10414 0.13780, -4.32500 0.14333 0.13780, -4.37439 0.16849 0.13780, -4.42913 0.17717 0.13780, -4.48388 0.16849 0.13780, -4.53327 0.14333 0.13780, -4.57246 0.10414 0.13780, -4.59763 0.05475 0.13780, -4.60630 0.00000 0.13780, -4.59763 -0.05475 0.13780, -4.57246 -0.10414 0.13780, -4.53327 -0.14333 0.13780, -4.48388 -0.16849 0.13780, -4.42913 -0.17717 0.13780, -4.37439 -0.16849 0.13780, -4.32500 -0.14333 0.13780, -4.28580 -0.10414 0.13780, -4.26064 -0.05475 0.13780 ] } coordIndex [ 0, 1, 21, 20, -1, 1, 2, 22, 21, -1, 2, 3, 23, 22, -1, 3, 4, 24, 23, -1, 4, 5, 25, 24, -1, 5, 6, 26, 25, -1, 6, 7, 27, 26, -1, 7, 8, 28, 27, -1, 8, 9, 29, 28, -1, 9, 10, 30, 29, -1, 10, 11, 31, 30, -1, 11, 12, 32, 31, -1, 12, 13, 33, 32, -1, 13, 14, 34, 33, -1, 14, 15, 35, 34, -1, 15, 16, 36, 35, -1, 16, 17, 37, 36, -1, 17, 18, 38, 37, -1, 18, 19, 39, 38, -1, 19, 0, 20, 39, -1, 19, 18, 17, 16, 15, 14, 13, 12, 11, 10, 9, 8, 7, 6, 5, 4, 3, 2, 1, 0, -1, 20, 21, 22, 23, 24, 25, 26, 27, 28, 29, 30, 31, 32, 33, 34, 35, 36, 37, 38, 39, -1 ] creaseAngle 0.6 solid TRUE } }
# tinned lead 2
Shape { appearance USE TIN geometry IndexedFaceSet { coord Coordinate { point [ 4.60630 0.00000 -1.37795, 4.59763 0.05475 -1.37795, 4.57246 0.10414 -1.37795, 4.53327 0.14333 -1.37795, 4.48388 0.16849 -1.37795, 4.42913 0.17717 -1.37795, 4.37439 0.16849 -1.37795, 4.32500 0.14333 -1.37795, 4.28580 0.10414 -1.37795, 4.26064 0.05475 -1.37795, 4.25197 0.00000 -1.37795, 4.26064 -0.05475 -1.37795, 4.28580 -0.10414 -1.37795, 4.32500 -0.14333 -1.37795, 4.37439 -0.16849 -1.37795, 4.42913 -0.17717 -1.37795, 4.48388 -0.16849 -1.37795, 4.53327 -0.14333 -1.37795, 4.57246 -0.10414 -1.37795, 4.59763 -0.05475 -1.37795, 4.60630 0.00000 0.13780, 4.59763 0.05475 0.13780, 4.57246 0.10414 0.13780, 4.53327 0.14333 0.13780, 4.48388 0.16849 0.13780, 4.42913 0.17717 0.13780, 4.37439 0.16849 0.13780, 4.32500 0.14333 0.13780, 4.28580 0.10414 0.13780, 4.26064 0.05475 0.13780, 4.25197 0.00000 0.13780, 4.26064 -0.05475 0.13780, 4.28580 -0.10414 0.13780, 4.32500 -0.14333 0.13780, 4.37439 -0.16849 0.13780, 4.42913 -0.17717 0.13780, 4.48388 -0.16849 0.13780, 4.53327 -0.14333 0.13780, 4.57246 -0.10414 0.13780, 4.59763 -0.05475 0.13780 ] } coordIndex [ 0, 1, 21, 20, -1, 1, 2, 22, 21, -1, 2, 3, 23, 22, -1, 3, 4, 24, 23, -1, 4, 5, 25, 24, -1, 5, 6, 26, 25, -1, 6, 7, 27, 26, -1, 7, 8, 28, 27, -1, 8, 9, 29, 28, -1, 9, 10, 30, 29, -1, 10, 11, 31, 30, -1, 11, 12, 32, 31, -1, 12, 13, 33, 32, -1, 13, 14, 34, 33, -1, 14, 15, 35, 34, -1, 15, 16, 36, 35, -1, 16, 17, 37, 36, -1, 17, 18, 38, 37, -1, 18, 19, 39, 38, -1, 19, 0, 20, 39, -1, 19, 18, 17, 16, 15, 14, 13, 12, 11, 10, 9, 8, 7, 6, 5, 4, 3, 2, 1, 0, -1, 20, 21, 22, 23, 24, 25, 26, 27, 28, 29, 30, 31, 32, 33, 34, 35, 36, 37, 38, 39, -1 ] creaseAngle 0.6 solid TRUE } }
