#VRML V2.0 utf8
DEF CASE Appearance { material Material { diffuseColor 0.025 0.32 0.67 specularColor 0.12 0.18 0.24 shininess 0.42 } }
DEF LID Appearance { material Material { diffuseColor 0.035 0.37 0.72 specularColor 0.12 0.19 0.27 shininess 0.45 } }
DEF SEAM Appearance { material Material { diffuseColor 0.012 0.19 0.43 specularColor 0.06 0.10 0.15 shininess 0.24 } }
DEF TIN Appearance { material Material { diffuseColor 0.68 0.71 0.73 specularColor 0.38 0.39 0.41 shininess 0.72 } }
# moulded blue case
Shape { appearance USE CASE geometry IndexedFaceSet { coord Coordinate { point [ 7.90551 3.56890 0.00000, 7.90531 3.57043 0.00000, 7.90472 3.57185 0.00000, 7.90378 3.57307 0.00000, 7.90256 3.57401 0.00000, 7.90113 3.57460 0.00000, 7.89961 3.57480 0.00000, -7.89961 3.57480 0.00000, -7.90113 3.57460 0.00000, -7.90256 3.57401 0.00000, -7.90378 3.57307 0.00000, -7.90472 3.57185 0.00000, -7.90531 3.57043 0.00000, -7.90551 3.56890 0.00000, -7.90551 -3.56890 0.00000, -7.90531 -3.57043 0.00000, -7.90472 -3.57185 0.00000, -7.90378 -3.57307 0.00000, -7.90256 -3.57401 0.00000, -7.90113 -3.57460 0.00000, -7.89961 -3.57480 0.00000, 7.89961 -3.57480 0.00000, 7.90113 -3.57460 0.00000, 7.90256 -3.57401 0.00000, 7.90378 -3.57307 0.00000, 7.90472 -3.57185 0.00000, 7.90531 -3.57043 0.00000, 7.90551 -3.56890 0.00000, 7.96339 3.57480 0.04134, 7.96141 3.58978 0.04134, 7.95563 3.60374 0.04134, 7.94643 3.61573 0.04134, 7.93445 3.62492 0.04134, 7.92049 3.63071 0.04134, 7.90551 3.63268 0.04134, -7.90551 3.63268 0.04134, -7.92049 3.63071 0.04134, -7.93445 3.62492 0.04134, -7.94643 3.61573 0.04134, -7.95563 3.60374 0.04134, -7.96141 3.58978 0.04134, -7.96339 3.57480 0.04134, -7.96339 -3.57480 0.04134, -7.96141 -3.58978 0.04134, -7.95563 -3.60374 0.04134, -7.94643 -3.61573 0.04134, -7.93445 -3.62492 0.04134, -7.92049 -3.63071 0.04134, -7.90551 -3.63268 0.04134, 7.90551 -3.63268 0.04134, 7.92049 -3.63071 0.04134, 7.93445 -3.62492 0.04134, 7.94643 -3.61573 0.04134, 7.95563 -3.60374 0.04134, 7.96141 -3.58978 0.04134, 7.96339 -3.57480 0.04134, 8.02953 3.57480 0.10748, 8.02530 3.60690 0.10748, 8.01291 3.63681 0.10748, 7.99320 3.66250 0.10748, 7.96752 3.68220 0.10748, 7.93761 3.69459 0.10748, 7.90551 3.69882 0.10748, -7.90551 3.69882 0.10748, -7.93761 3.69459 0.10748, -7.96752 3.68220 0.10748, -7.99320 3.66250 0.10748, -8.01291 3.63681 0.10748, -8.02530 3.60690 0.10748, -8.02953 3.57480 0.10748, -8.02953 -3.57480 0.10748, -8.02530 -3.60690 0.10748, -8.01291 -3.63681 0.10748, -7.99320 -3.66250 0.10748, -7.96752 -3.68220 0.10748, -7.93761 -3.69459 0.10748, -7.90551 -3.69882 0.10748, 7.90551 -3.69882 0.10748, 7.93761 -3.69459 0.10748, 7.96752 -3.68220 0.10748, 7.99320 -3.66250 0.10748, 8.01291 -3.63681 0.10748, 8.02530 -3.60690 0.10748, 8.02953 -3.57480 0.10748, 8.07087 3.57480 0.16535, 8.06523 3.61760 0.16535, 8.04871 3.65748 0.16535, 8.02243 3.69173 0.16535, 7.98819 3.71800 0.16535, 7.94831 3.73452 0.16535, 7.90551 3.74016 0.16535, -7.90551 3.74016 0.16535, -7.94831 3.73452 0.16535, -7.98819 3.71800 0.16535, -8.02243 3.69173 0.16535, -8.04871 3.65748 0.16535, -8.06523 3.61760 0.16535, -8.07087 3.57480 0.16535, -8.07087 -3.57480 0.16535, -8.06523 -3.61760 0.16535, -8.04871 -3.65748 0.16535, -8.02243 -3.69173 0.16535, -7.98819 -3.71800 0.16535, -7.94831 -3.73452 0.16535, -7.90551 -3.74016 0.16535, 7.90551 -3.74016 0.16535, 7.94831 -3.73452 0.16535, 7.98819 -3.71800 0.16535, 8.02243 -3.69173 0.16535, 8.04871 -3.65748 0.16535, 8.06523 -3.61760 0.16535, 8.07087 -3.57480 0.16535, 8.07087 3.57480 13.96157, 8.06523 3.61760 13.96157, 8.04871 3.65748 13.96157, 8.02243 3.69173 13.96157, 7.98819 3.71800 13.96157, 7.94831 3.73452 13.96157, 7.90551 3.74016 13.96157, -7.90551 3.74016 13.96157, -7.94831 3.73452 13.96157, -7.98819 3.71800 13.96157, -8.02243 3.69173 13.96157, -8.04871 3.65748 13.96157, -8.06523 3.61760 13.96157, -8.07087 3.57480 13.96157, -8.07087 -3.57480 13.96157, -8.06523 -3.61760 13.96157, -8.04871 -3.65748 13.96157, -8.02243 -3.69173 13.96157, -7.98819 -3.71800 13.96157, -7.94831 -3.73452 13.96157, -7.90551 -3.74016 13.96157, 7.90551 -3.74016 13.96157, 7.94831 -3.73452 13.96157, 7.98819 -3.71800 13.96157, 8.02243 -3.69173 13.96157, 8.04871 -3.65748 13.96157, 8.06523 -3.61760 13.96157, 8.07087 -3.57480 13.96157, 8.02953 3.57480 14.01945, 8.02530 3.60690 14.01945, 8.01291 3.63681 14.01945, 7.99320 3.66250 14.01945, 7.96752 3.68220 14.01945, 7.93761 3.69459 14.01945, 7.90551 3.69882 14.01945, -7.90551 3.69882 14.01945, -7.93761 3.69459 14.01945, -7.96752 3.68220 14.01945, -7.99320 3.66250 14.01945, -8.01291 3.63681 14.01945, -8.02530 3.60690 14.01945, -8.02953 3.57480 14.01945, -8.02953 -3.57480 14.01945, -8.02530 -3.60690 14.01945, -8.01291 -3.63681 14.01945, -7.99320 -3.66250 14.01945, -7.96752 -3.68220 14.01945, -7.93761 -3.69459 14.01945, -7.90551 -3.69882 14.01945, 7.90551 -3.69882 14.01945, 7.93761 -3.69459 14.01945, 7.96752 -3.68220 14.01945, 7.99320 -3.66250 14.01945, 8.01291 -3.63681 14.01945, 8.02530 -3.60690 14.01945, 8.02953 -3.57480 14.01945, 7.96339 3.57480 14.08559, 7.96141 3.58978 14.08559, 7.95563 3.60374 14.08559, 7.94643 3.61573 14.08559, 7.93445 3.62492 14.08559, 7.92049 3.63071 14.08559, 7.90551 3.63268 14.08559, -7.90551 3.63268 14.08559, -7.92049 3.63071 14.08559, -7.93445 3.62492 14.08559, -7.94643 3.61573 14.08559, -7.95563 3.60374 14.08559, -7.96141 3.58978 14.08559, -7.96339 3.57480 14.08559, -7.96339 -3.57480 14.08559, -7.96141 -3.58978 14.08559, -7.95563 -3.60374 14.08559, -7.94643 -3.61573 14.08559, -7.93445 -3.62492 14.08559, -7.92049 -3.63071 14.08559, -7.90551 -3.63268 14.08559, 7.90551 -3.63268 14.08559, 7.92049 -3.63071 14.08559, 7.93445 -3.62492 14.08559, 7.94643 -3.61573 14.08559, 7.95563 -3.60374 14.08559, 7.96141 -3.58978 14.08559, 7.96339 -3.57480 14.08559, 7.90551 3.56890 14.12693, 7.90531 3.57043 14.12693, 7.90472 3.57185 14.12693, 7.90378 3.57307 14.12693, 7.90256 3.57401 14.12693, 7.90113 3.57460 14.12693, 7.89961 3.57480 14.12693, -7.89961 3.57480 14.12693, -7.90113 3.57460 14.12693, -7.90256 3.57401 14.12693, -7.90378 3.57307 14.12693, -7.90472 3.57185 14.12693, -7.90531 3.57043 14.12693, -7.90551 3.56890 14.12693, -7.90551 -3.56890 14.12693, -7.90531 -3.57043 14.12693, -7.90472 -3.57185 14.12693, -7.90378 -3.57307 14.12693, -7.90256 -3.57401 14.12693, -7.90113 -3.57460 14.12693, -7.89961 -3.57480 14.12693, 7.89961 -3.57480 14.12693, 7.90113 -3.57460 14.12693, 7.90256 -3.57401 14.12693, 7.90378 -3.57307 14.12693, 7.90472 -3.57185 14.12693, 7.90531 -3.57043 14.12693, 7.90551 -3.56890 14.12693 ] } coordIndex [ 0, 1, 29, 28, -1, 1, 2, 30, 29, -1, 2, 3, 31, 30, -1, 3, 4, 32, 31, -1, 4, 5, 33, 32, -1, 5, 6, 34, 33, -1, 6, 7, 35, 34, -1, 7, 8, 36, 35, -1, 8, 9, 37, 36, -1, 9, 10, 38, 37, -1, 10, 11, 39, 38, -1, 11, 12, 40, 39, -1, 12, 13, 41, 40, -1, 13, 14, 42, 41, -1, 14, 15, 43, 42, -1, 15, 16, 44, 43, -1, 16, 17, 45, 44, -1, 17, 18, 46, 45, -1, 18, 19, 47, 46, -1, 19, 20, 48, 47, -1, 20, 21, 49, 48, -1, 21, 22, 50, 49, -1, 22, 23, 51, 50, -1, 23, 24, 52, 51, -1, 24, 25, 53, 52, -1, 25, 26, 54, 53, -1, 26, 27, 55, 54, -1, 27, 0, 28, 55, -1, 28, 29, 57, 56, -1, 29, 30, 58, 57, -1, 30, 31, 59, 58, -1, 31, 32, 60, 59, -1, 32, 33, 61, 60, -1, 33, 34, 62, 61, -1, 34, 35, 63, 62, -1, 35, 36, 64, 63, -1, 36, 37, 65, 64, -1, 37, 38, 66, 65, -1, 38, 39, 67, 66, -1, 39, 40, 68, 67, -1, 40, 41, 69, 68, -1, 41, 42, 70, 69, -1, 42, 43, 71, 70, -1, 43, 44, 72, 71, -1, 44, 45, 73, 72, -1, 45, 46, 74, 73, -1, 46, 47, 75, 74, -1, 47, 48, 76, 75, -1, 48, 49, 77, 76, -1, 49, 50, 78, 77, -1, 50, 51, 79, 78, -1, 51, 52, 80, 79, -1, 52, 53, 81, 80, -1, 53, 54, 82, 81, -1, 54, 55, 83, 82, -1, 55, 28, 56, 83, -1, 56, 57, 85, 84, -1, 57, 58, 86, 85, -1, 58, 59, 87, 86, -1, 59, 60, 88, 87, -1, 60, 61, 89, 88, -1, 61, 62, 90, 89, -1, 62, 63, 91, 90, -1, 63, 64, 92, 91, -1, 64, 65, 93, 92, -1, 65, 66, 94, 93, -1, 66, 67, 95, 94, -1, 67, 68, 96, 95, -1, 68, 69, 97, 96, -1, 69, 70, 98, 97, -1, 70, 71, 99, 98, -1, 71, 72, 100, 99, -1, 72, 73, 101, 100, -1, 73, 74, 102, 101, -1, 74, 75, 103, 102, -1, 75, 76, 104, 103, -1, 76, 77, 105, 104, -1, 77, 78, 106, 105, -1, 78, 79, 107, 106, -1, 79, 80, 108, 107, -1, 80, 81, 109, 108, -1, 81, 82, 110, 109, -1, 82, 83, 111, 110, -1, 83, 56, 84, 111, -1, 84, 85, 113, 112, -1, 85, 86, 114, 113, -1, 86, 87, 115, 114, -1, 87, 88, 116, 115, -1, 88, 89, 117, 116, -1, 89, 90, 118, 117, -1, 90, 91, 119, 118, -1, 91, 92, 120, 119, -1, 92, 93, 121, 120, -1, 93, 94, 122, 121, -1, 94, 95, 123, 122, -1, 95, 96, 124, 123, -1, 96, 97, 125, 124, -1, 97, 98, 126, 125, -1, 98, 99, 127, 126, -1, 99, 100, 128, 127, -1, 100, 101, 129, 128, -1, 101, 102, 130, 129, -1, 102, 103, 131, 130, -1, 103, 104, 132, 131, -1, 104, 105, 133, 132, -1, 105, 106, 134, 133, -1, 106, 107, 135, 134, -1, 107, 108, 136, 135, -1, 108, 109, 137, 136, -1, 109, 110, 138, 137, -1, 110, 111, 139, 138, -1, 111, 84, 112, 139, -1, 112, 113, 141, 140, -1, 113, 114, 142, 141, -1, 114, 115, 143, 142, -1, 115, 116, 144, 143, -1, 116, 117, 145, 144, -1, 117, 118, 146, 145, -1, 118, 119, 147, 146, -1, 119, 120, 148, 147, -1, 120, 121, 149, 148, -1, 121, 122, 150, 149, -1, 122, 123, 151, 150, -1, 123, 124, 152, 151, -1, 124, 125, 153, 152, -1, 125, 126, 154, 153, -1, 126, 127, 155, 154, -1, 127, 128, 156, 155, -1, 128, 129, 157, 156, -1, 129, 130, 158, 157, -1, 130, 131, 159, 158, -1, 131, 132, 160, 159, -1, 132, 133, 161, 160, -1, 133, 134, 162, 161, -1, 134, 135, 163, 162, -1, 135, 136, 164, 163, -1, 136, 137, 165, 164, -1, 137, 138, 166, 165, -1, 138, 139, 167, 166, -1, 139, 112, 140, 167, -1, 140, 141, 169, 168, -1, 141, 142, 170, 169, -1, 142, 143, 171, 170, -1, 143, 144, 172, 171, -1, 144, 145, 173, 172, -1, 145, 146, 174, 173, -1, 146, 147, 175, 174, -1, 147, 148, 176, 175, -1, 148, 149, 177, 176, -1, 149, 150, 178, 177, -1, 150, 151, 179, 178, -1, 151, 152, 180, 179, -1, 152, 153, 181, 180, -1, 153, 154, 182, 181, -1, 154, 155, 183, 182, -1, 155, 156, 184, 183, -1, 156, 157, 185, 184, -1, 157, 158, 186, 185, -1, 158, 159, 187, 186, -1, 159, 160, 188, 187, -1, 160, 161, 189, 188, -1, 161, 162, 190, 189, -1, 162, 163, 191, 190, -1, 163, 164, 192, 191, -1, 164, 165, 193, 192, -1, 165, 166, 194, 193, -1, 166, 167, 195, 194, -1, 167, 140, 168, 195, -1, 168, 169, 197, 196, -1, 169, 170, 198, 197, -1, 170, 171, 199, 198, -1, 171, 172, 200, 199, -1, 172, 173, 201, 200, -1, 173, 174, 202, 201, -1, 174, 175, 203, 202, -1, 175, 176, 204, 203, -1, 176, 177, 205, 204, -1, 177, 178, 206, 205, -1, 178, 179, 207, 206, -1, 179, 180, 208, 207, -1, 180, 181, 209, 208, -1, 181, 182, 210, 209, -1, 182, 183, 211, 210, -1, 183, 184, 212, 211, -1, 184, 185, 213, 212, -1, 185, 186, 214, 213, -1, 186, 187, 215, 214, -1, 187, 188, 216, 215, -1, 188, 189, 217, 216, -1, 189, 190, 218, 217, -1, 190, 191, 219, 218, -1, 191, 192, 220, 219, -1, 192, 193, 221, 220, -1, 193, 194, 222, 221, -1, 194, 195, 223, 222, -1, 195, 168, 196, 223, -1, 27, 26, 25, 24, 23, 22, 21, 20, 19, 18, 17, 16, 15, 14, 13, 12, 11, 10, 9, 8, 7, 6, 5, 4, 3, 2, 1, 0, -1, 196, 197, 198, 199, 200, 201, 202, 203, 204, 205, 206, 207, 208, 209, 210, 211, 212, 213, 214, 215, 216, 217, 218, 219, 220, 221, 222, 223, -1 ] creaseAngle 0.6 solid TRUE } }
# fine lid seam
Shape { appearance USE SEAM geometry IndexedFaceSet { coord Coordinate { point [ 8.02937 3.69276 14.06740, 8.02917 3.69428 14.06740, 8.02858 3.69571 14.06740, 8.02764 3.69693 14.06740, 8.02642 3.69787 14.06740, 8.02499 3.69846 14.06740, 8.02346 3.69866 14.06740, -8.02346 3.69866 14.06740, -8.02499 3.69846 14.06740, -8.02642 3.69787 14.06740, -8.02764 3.69693 14.06740, -8.02858 3.69571 14.06740, -8.02917 3.69428 14.06740, -8.02937 3.69276 14.06740, -8.02937 -3.69276 14.06740, -8.02917 -3.69428 14.06740, -8.02858 -3.69571 14.06740, -8.02764 -3.69693 14.06740, -8.02642 -3.69787 14.06740, -8.02499 -3.69846 14.06740, -8.02346 -3.69866 14.06740, 8.02346 -3.69866 14.06740, 8.02499 -3.69846 14.06740, 8.02642 -3.69787 14.06740, 8.02764 -3.69693 14.06740, 8.02858 -3.69571 14.06740, 8.02917 -3.69428 14.06740, 8.02937 -3.69276 14.06740, 8.03631 3.69866 14.07236, 8.03608 3.70046 14.07236, 8.03538 3.70213 14.07236, 8.03428 3.70357 14.07236, 8.03284 3.70468 14.07236, 8.03117 3.70537 14.07236, 8.02937 3.70561 14.07236, -8.02937 3.70561 14.07236, -8.03117 3.70537 14.07236, -8.03284 3.70468 14.07236, -8.03428 3.70357 14.07236, -8.03538 3.70213 14.07236, -8.03608 3.70046 14.07236, -8.03631 3.69866 14.07236, -8.03631 -3.69866 14.07236, -8.03608 -3.70046 14.07236, -8.03538 -3.70213 14.07236, -8.03428 -3.70357 14.07236, -8.03284 -3.70468 14.07236, -8.03117 -3.70537 14.07236, -8.02937 -3.70561 14.07236, 8.02937 -3.70561 14.07236, 8.03117 -3.70537 14.07236, 8.03284 -3.70468 14.07236, 8.03428 -3.70357 14.07236, 8.03538 -3.70213 14.07236, 8.03608 -3.70046 14.07236, 8.03631 -3.69866 14.07236, 8.04425 3.69866 14.08030, 8.04374 3.70251 14.08030, 8.04226 3.70610 14.08030, 8.03989 3.70918 14.08030, 8.03681 3.71155 14.08030, 8.03322 3.71304 14.08030, 8.02937 3.71354 14.08030, -8.02937 3.71354 14.08030, -8.03322 3.71304 14.08030, -8.03681 3.71155 14.08030, -8.03989 3.70918 14.08030, -8.04226 3.70610 14.08030, -8.04374 3.70251 14.08030, -8.04425 3.69866 14.08030, -8.04425 -3.69866 14.08030, -8.04374 -3.70251 14.08030, -8.04226 -3.70610 14.08030, -8.03989 -3.70918 14.08030, -8.03681 -3.71155 14.08030, -8.03322 -3.71304 14.08030, -8.02937 -3.71354 14.08030, 8.02937 -3.71354 14.08030, 8.03322 -3.71304 14.08030, 8.03681 -3.71155 14.08030, 8.03989 -3.70918 14.08030, 8.04226 -3.70610 14.08030, 8.04374 -3.70251 14.08030, 8.04425 -3.69866 14.08030, 8.04921 3.69866 14.08724, 8.04854 3.70380 14.08724, 8.04655 3.70858 14.08724, 8.04340 3.71269 14.08724, 8.03929 3.71585 14.08724, 8.03451 3.71783 14.08724, 8.02937 3.71850 14.08724, -8.02937 3.71850 14.08724, -8.03451 3.71783 14.08724, -8.03929 3.71585 14.08724, -8.04340 3.71269 14.08724, -8.04655 3.70858 14.08724, -8.04854 3.70380 14.08724, -8.04921 3.69866 14.08724, -8.04921 -3.69866 14.08724, -8.04854 -3.70380 14.08724, -8.04655 -3.70858 14.08724, -8.04340 -3.71269 14.08724, -8.03929 -3.71585 14.08724, -8.03451 -3.71783 14.08724, -8.02937 -3.71850 14.08724, 8.02937 -3.71850 14.08724, 8.03451 -3.71783 14.08724, 8.03929 -3.71585 14.08724, 8.04340 -3.71269 14.08724, 8.04655 -3.70858 14.08724, 8.04854 -3.70380 14.08724, 8.04921 -3.69866 14.08724, 8.04921 3.69866 14.09717, 8.04854 3.70380 14.09717, 8.04655 3.70858 14.09717, 8.04340 3.71269 14.09717, 8.03929 3.71585 14.09717, 8.03451 3.71783 14.09717, 8.02937 3.71850 14.09717, -8.02937 3.71850 14.09717, -8.03451 3.71783 14.09717, -8.03929 3.71585 14.09717, -8.04340 3.71269 14.09717, -8.04655 3.70858 14.09717, -8.04854 3.70380 14.09717, -8.04921 3.69866 14.09717, -8.04921 -3.69866 14.09717, -8.04854 -3.70380 14.09717, -8.04655 -3.70858 14.09717, -8.04340 -3.71269 14.09717, -8.03929 -3.71585 14.09717, -8.03451 -3.71783 14.09717, -8.02937 -3.71850 14.09717, 8.02937 -3.71850 14.09717, 8.03451 -3.71783 14.09717, 8.03929 -3.71585 14.09717, 8.04340 -3.71269 14.09717, 8.04655 -3.70858 14.09717, 8.04854 -3.70380 14.09717, 8.04921 -3.69866 14.09717, 8.04425 3.69866 14.10411, 8.04374 3.70251 14.10411, 8.04226 3.70610 14.10411, 8.03989 3.70918 14.10411, 8.03681 3.71155 14.10411, 8.03322 3.71304 14.10411, 8.02937 3.71354 14.10411, -8.02937 3.71354 14.10411, -8.03322 3.71304 14.10411, -8.03681 3.71155 14.10411, -8.03989 3.70918 14.10411, -8.04226 3.70610 14.10411, -8.04374 3.70251 14.10411, -8.04425 3.69866 14.10411, -8.04425 -3.69866 14.10411, -8.04374 -3.70251 14.10411, -8.04226 -3.70610 14.10411, -8.03989 -3.70918 14.10411, -8.03681 -3.71155 14.10411, -8.03322 -3.71304 14.10411, -8.02937 -3.71354 14.10411, 8.02937 -3.71354 14.10411, 8.03322 -3.71304 14.10411, 8.03681 -3.71155 14.10411, 8.03989 -3.70918 14.10411, 8.04226 -3.70610 14.10411, 8.04374 -3.70251 14.10411, 8.04425 -3.69866 14.10411, 8.03631 3.69866 14.11205, 8.03608 3.70046 14.11205, 8.03538 3.70213 14.11205, 8.03428 3.70357 14.11205, 8.03284 3.70468 14.11205, 8.03117 3.70537 14.11205, 8.02937 3.70561 14.11205, -8.02937 3.70561 14.11205, -8.03117 3.70537 14.11205, -8.03284 3.70468 14.11205, -8.03428 3.70357 14.11205, -8.03538 3.70213 14.11205, -8.03608 3.70046 14.11205, -8.03631 3.69866 14.11205, -8.03631 -3.69866 14.11205, -8.03608 -3.70046 14.11205, -8.03538 -3.70213 14.11205, -8.03428 -3.70357 14.11205, -8.03284 -3.70468 14.11205, -8.03117 -3.70537 14.11205, -8.02937 -3.70561 14.11205, 8.02937 -3.70561 14.11205, 8.03117 -3.70537 14.11205, 8.03284 -3.70468 14.11205, 8.03428 -3.70357 14.11205, 8.03538 -3.70213 14.11205, 8.03608 -3.70046 14.11205, 8.03631 -3.69866 14.11205, 8.02937 3.69276 14.11701, 8.02917 3.69428 14.11701, 8.02858 3.69571 14.11701, 8.02764 3.69693 14.11701, 8.02642 3.69787 14.11701, 8.02499 3.69846 14.11701, 8.02346 3.69866 14.11701, -8.02346 3.69866 14.11701, -8.02499 3.69846 14.11701, -8.02642 3.69787 14.11701, -8.02764 3.69693 14.11701, -8.02858 3.69571 14.11701, -8.02917 3.69428 14.11701, -8.02937 3.69276 14.11701, -8.02937 -3.69276 14.11701, -8.02917 -3.69428 14.11701, -8.02858 -3.69571 14.11701, -8.02764 -3.69693 14.11701, -8.02642 -3.69787 14.11701, -8.02499 -3.69846 14.11701, -8.02346 -3.69866 14.11701, 8.02346 -3.69866 14.11701, 8.02499 -3.69846 14.11701, 8.02642 -3.69787 14.11701, 8.02764 -3.69693 14.11701, 8.02858 -3.69571 14.11701, 8.02917 -3.69428 14.11701, 8.02937 -3.69276 14.11701 ] } coordIndex [ 0, 1, 29, 28, -1, 1, 2, 30, 29, -1, 2, 3, 31, 30, -1, 3, 4, 32, 31, -1, 4, 5, 33, 32, -1, 5, 6, 34, 33, -1, 6, 7, 35, 34, -1, 7, 8, 36, 35, -1, 8, 9, 37, 36, -1, 9, 10, 38, 37, -1, 10, 11, 39, 38, -1, 11, 12, 40, 39, -1, 12, 13, 41, 40, -1, 13, 14, 42, 41, -1, 14, 15, 43, 42, -1, 15, 16, 44, 43, -1, 16, 17, 45, 44, -1, 17, 18, 46, 45, -1, 18, 19, 47, 46, -1, 19, 20, 48, 47, -1, 20, 21, 49, 48, -1, 21, 22, 50, 49, -1, 22, 23, 51, 50, -1, 23, 24, 52, 51, -1, 24, 25, 53, 52, -1, 25, 26, 54, 53, -1, 26, 27, 55, 54, -1, 27, 0, 28, 55, -1, 28, 29, 57, 56, -1, 29, 30, 58, 57, -1, 30, 31, 59, 58, -1, 31, 32, 60, 59, -1, 32, 33, 61, 60, -1, 33, 34, 62, 61, -1, 34, 35, 63, 62, -1, 35, 36, 64, 63, -1, 36, 37, 65, 64, -1, 37, 38, 66, 65, -1, 38, 39, 67, 66, -1, 39, 40, 68, 67, -1, 40, 41, 69, 68, -1, 41, 42, 70, 69, -1, 42, 43, 71, 70, -1, 43, 44, 72, 71, -1, 44, 45, 73, 72, -1, 45, 46, 74, 73, -1, 46, 47, 75, 74, -1, 47, 48, 76, 75, -1, 48, 49, 77, 76, -1, 49, 50, 78, 77, -1, 50, 51, 79, 78, -1, 51, 52, 80, 79, -1, 52, 53, 81, 80, -1, 53, 54, 82, 81, -1, 54, 55, 83, 82, -1, 55, 28, 56, 83, -1, 56, 57, 85, 84, -1, 57, 58, 86, 85, -1, 58, 59, 87, 86, -1, 59, 60, 88, 87, -1, 60, 61, 89, 88, -1, 61, 62, 90, 89, -1, 62, 63, 91, 90, -1, 63, 64, 92, 91, -1, 64, 65, 93, 92, -1, 65, 66, 94, 93, -1, 66, 67, 95, 94, -1, 67, 68, 96, 95, -1, 68, 69, 97, 96, -1, 69, 70, 98, 97, -1, 70, 71, 99, 98, -1, 71, 72, 100, 99, -1, 72, 73, 101, 100, -1, 73, 74, 102, 101, -1, 74, 75, 103, 102, -1, 75, 76, 104, 103, -1, 76, 77, 105, 104, -1, 77, 78, 106, 105, -1, 78, 79, 107, 106, -1, 79, 80, 108, 107, -1, 80, 81, 109, 108, -1, 81, 82, 110, 109, -1, 82, 83, 111, 110, -1, 83, 56, 84, 111, -1, 84, 85, 113, 112, -1, 85, 86, 114, 113, -1, 86, 87, 115, 114, -1, 87, 88, 116, 115, -1, 88, 89, 117, 116, -1, 89, 90, 118, 117, -1, 90, 91, 119, 118, -1, 91, 92, 120, 119, -1, 92, 93, 121, 120, -1, 93, 94, 122, 121, -1, 94, 95, 123, 122, -1, 95, 96, 124, 123, -1, 96, 97, 125, 124, -1, 97, 98, 126, 125, -1, 98, 99, 127, 126, -1, 99, 100, 128, 127, -1, 100, 101, 129, 128, -1, 101, 102, 130, 129, -1, 102, 103, 131, 130, -1, 103, 104, 132, 131, -1, 104, 105, 133, 132, -1, 105, 106, 134, 133, -1, 106, 107, 135, 134, -1, 107, 108, 136, 135, -1, 108, 109, 137, 136, -1, 109, 110, 138, 137, -1, 110, 111, 139, 138, -1, 111, 84, 112, 139, -1, 112, 113, 141, 140, -1, 113, 114, 142, 141, -1, 114, 115, 143, 142, -1, 115, 116, 144, 143, -1, 116, 117, 145, 144, -1, 117, 118, 146, 145, -1, 118, 119, 147, 146, -1, 119, 120, 148, 147, -1, 120, 121, 149, 148, -1, 121, 122, 150, 149, -1, 122, 123, 151, 150, -1, 123, 124, 152, 151, -1, 124, 125, 153, 152, -1, 125, 126, 154, 153, -1, 126, 127, 155, 154, -1, 127, 128, 156, 155, -1, 128, 129, 157, 156, -1, 129, 130, 158, 157, -1, 130, 131, 159, 158, -1, 131, 132, 160, 159, -1, 132, 133, 161, 160, -1, 133, 134, 162, 161, -1, 134, 135, 163, 162, -1, 135, 136, 164, 163, -1, 136, 137, 165, 164, -1, 137, 138, 166, 165, -1, 138, 139, 167, 166, -1, 139, 112, 140, 167, -1, 140, 141, 169, 168, -1, 141, 142, 170, 169, -1, 142, 143, 171, 170, -1, 143, 144, 172, 171, -1, 144, 145, 173, 172, -1, 145, 146, 174, 173, -1, 146, 147, 175, 174, -1, 147, 148, 176, 175, -1, 148, 149, 177, 176, -1, 149, 150, 178, 177, -1, 150, 151, 179, 178, -1, 151, 152, 180, 179, -1, 152, 153, 181, 180, -1, 153, 154, 182, 181, -1, 154, 155, 183, 182, -1, 155, 156, 184, 183, -1, 156, 157, 185, 184, -1, 157, 158, 186, 185, -1, 158, 159, 187, 186, -1, 159, 160, 188, 187, -1, 160, 161, 189, 188, -1, 161, 162, 190, 189, -1, 162, 163, 191, 190, -1, 163, 164, 192, 191, -1, 164, 165, 193, 192, -1, 165, 166, 194, 193, -1, 166, 167, 195, 194, -1, 167, 140, 168, 195, -1, 168, 169, 197, 196, -1, 169, 170, 198, 197, -1, 170, 171, 199, 198, -1, 171, 172, 200, 199, -1, 172, 173, 201, 200, -1, 173, 174, 202, 201, -1, 174, 175, 203, 202, -1, 175, 176, 204, 203, -1, 176, 177, 205, 204, -1, 177, 178, 206, 205, -1, 178, 179, 207, 206, -1, 179, 180, 208, 207, -1, 180, 181, 209, 208, -1, 181, 182, 210, 209, -1, 182, 183, 211, 210, -1, 183, 184, 212, 211, -1, 184, 185, 213, 212, -1, 185, 186, 214, 213, -1, 186, 187, 215, 214, -1, 187, 188, 216, 215, -1, 188, 189, 217, 216, -1, 189, 190, 218, 217, -1, 190, 191, 219, 218, -1, 191, 192, 220, 219, -1, 192, 193, 221, 220, -1, 193, 194, 222, 221, -1, 194, 195, 223, 222, -1, 195, 168, 196, 223, -1, 27, 26, 25, 24, 23, 22, 21, 20, 19, 18, 17, 16, 15, 14, 13, 12, 11, 10, 9, 8, 7, 6, 5, 4, 3, 2, 1, 0, -1, 196, 197, 198, 199, 200, 201, 202, 203, 204, 205, 206, 207, 208, 209, 210, 211, 212, 213, 214, 215, 216, 217, 218, 219, 220, 221, 222, 223, -1 ] creaseAngle 0.6 solid TRUE } }
# integral rounded lid
Shape { appearance USE LID geometry IndexedFaceSet { coord Coordinate { point [ 8.02400 3.68739 14.08559, 8.02380 3.68891 14.08559, 8.02321 3.69034 14.08559, 8.02227 3.69156 14.08559, 8.02105 3.69250 14.08559, 8.01962 3.69309 14.08559, 8.01809 3.69329 14.08559, -8.01809 3.69329 14.08559, -8.01962 3.69309 14.08559, -8.02105 3.69250 14.08559, -8.02227 3.69156 14.08559, -8.02321 3.69034 14.08559, -8.02380 3.68891 14.08559, -8.02400 3.68739 14.08559, -8.02400 -3.68739 14.08559, -8.02380 -3.68891 14.08559, -8.02321 -3.69034 14.08559, -8.02227 -3.69156 14.08559, -8.02105 -3.69250 14.08559, -8.01962 -3.69309 14.08559, -8.01809 -3.69329 14.08559, 8.01809 -3.69329 14.08559, 8.01962 -3.69309 14.08559, 8.02105 -3.69250 14.08559, 8.02227 -3.69156 14.08559, 8.02321 -3.69034 14.08559, 8.02380 -3.68891 14.08559, 8.02400 -3.68739 14.08559, 8.03627 3.69329 14.09435, 8.03585 3.69647 14.09435, 8.03463 3.69943 14.09435, 8.03268 3.70197 14.09435, 8.03013 3.70392 14.09435, 8.02718 3.70514 14.09435, 8.02400 3.70556 14.09435, -8.02400 3.70556 14.09435, -8.02718 3.70514 14.09435, -8.03013 3.70392 14.09435, -8.03268 3.70197 14.09435, -8.03463 3.69943 14.09435, -8.03585 3.69647 14.09435, -8.03627 3.69329 14.09435, -8.03627 -3.69329 14.09435, -8.03585 -3.69647 14.09435, -8.03463 -3.69943 14.09435, -8.03268 -3.70197 14.09435, -8.03013 -3.70392 14.09435, -8.02718 -3.70514 14.09435, -8.02400 -3.70556 14.09435, 8.02400 -3.70556 14.09435, 8.02718 -3.70514 14.09435, 8.03013 -3.70392 14.09435, 8.03268 -3.70197 14.09435, 8.03463 -3.69943 14.09435, 8.03585 -3.69647 14.09435, 8.03627 -3.69329 14.09435, 8.05029 3.69329 14.10838, 8.04940 3.70010 14.10838, 8.04677 3.70644 14.10838, 8.04259 3.71188 14.10838, 8.03715 3.71606 14.10838, 8.03080 3.71869 14.10838, 8.02400 3.71958 14.10838, -8.02400 3.71958 14.10838, -8.03080 3.71869 14.10838, -8.03715 3.71606 14.10838, -8.04259 3.71188 14.10838, -8.04677 3.70644 14.10838, -8.04940 3.70010 14.10838, -8.05029 3.69329 14.10838, -8.05029 -3.69329 14.10838, -8.04940 -3.70010 14.10838, -8.04677 -3.70644 14.10838, -8.04259 -3.71188 14.10838, -8.03715 -3.71606 14.10838, -8.03080 -3.71869 14.10838, -8.02400 -3.71958 14.10838, 8.02400 -3.71958 14.10838, 8.03080 -3.71869 14.10838, 8.03715 -3.71606 14.10838, 8.04259 -3.71188 14.10838, 8.04677 -3.70644 14.10838, 8.04940 -3.70010 14.10838, 8.05029 -3.69329 14.10838, 8.05906 3.69329 14.12065, 8.05786 3.70236 14.12065, 8.05436 3.71082 14.12065, 8.04879 3.71808 14.12065, 8.04153 3.72365 14.12065, 8.03307 3.72715 14.12065, 8.02400 3.72835 14.12065, -8.02400 3.72835 14.12065, -8.03307 3.72715 14.12065, -8.04153 3.72365 14.12065, -8.04879 3.71808 14.12065, -8.05436 3.71082 14.12065, -8.05786 3.70236 14.12065, -8.05906 3.69329 14.12065, -8.05906 -3.69329 14.12065, -8.05786 -3.70236 14.12065, -8.05436 -3.71082 14.12065, -8.04879 -3.71808 14.12065, -8.04153 -3.72365 14.12065, -8.03307 -3.72715 14.12065, -8.02400 -3.72835 14.12065, 8.02400 -3.72835 14.12065, 8.03307 -3.72715 14.12065, 8.04153 -3.72365 14.12065, 8.04879 -3.71808 14.12065, 8.05436 -3.71082 14.12065, 8.05786 -3.70236 14.12065, 8.05906 -3.69329 14.12065, 8.05906 3.69329 14.13817, 8.05786 3.70236 14.13817, 8.05436 3.71082 14.13817, 8.04879 3.71808 14.13817, 8.04153 3.72365 14.13817, 8.03307 3.72715 14.13817, 8.02400 3.72835 14.13817, -8.02400 3.72835 14.13817, -8.03307 3.72715 14.13817, -8.04153 3.72365 14.13817, -8.04879 3.71808 14.13817, -8.05436 3.71082 14.13817, -8.05786 3.70236 14.13817, -8.05906 3.69329 14.13817, -8.05906 -3.69329 14.13817, -8.05786 -3.70236 14.13817, -8.05436 -3.71082 14.13817, -8.04879 -3.71808 14.13817, -8.04153 -3.72365 14.13817, -8.03307 -3.72715 14.13817, -8.02400 -3.72835 14.13817, 8.02400 -3.72835 14.13817, 8.03307 -3.72715 14.13817, 8.04153 -3.72365 14.13817, 8.04879 -3.71808 14.13817, 8.05436 -3.71082 14.13817, 8.05786 -3.70236 14.13817, 8.05906 -3.69329 14.13817, 8.05029 3.69329 14.15044, 8.04940 3.70010 14.15044, 8.04677 3.70644 14.15044, 8.04259 3.71188 14.15044, 8.03715 3.71606 14.15044, 8.03080 3.71869 14.15044, 8.02400 3.71958 14.15044, -8.02400 3.71958 14.15044, -8.03080 3.71869 14.15044, -8.03715 3.71606 14.15044, -8.04259 3.71188 14.15044, -8.04677 3.70644 14.15044, -8.04940 3.70010 14.15044, -8.05029 3.69329 14.15044, -8.05029 -3.69329 14.15044, -8.04940 -3.70010 14.15044, -8.04677 -3.70644 14.15044, -8.04259 -3.71188 14.15044, -8.03715 -3.71606 14.15044, -8.03080 -3.71869 14.15044, -8.02400 -3.71958 14.15044, 8.02400 -3.71958 14.15044, 8.03080 -3.71869 14.15044, 8.03715 -3.71606 14.15044, 8.04259 -3.71188 14.15044, 8.04677 -3.70644 14.15044, 8.04940 -3.70010 14.15044, 8.05029 -3.69329 14.15044, 8.03627 3.69329 14.16446, 8.03585 3.69647 14.16446, 8.03463 3.69943 14.16446, 8.03268 3.70197 14.16446, 8.03013 3.70392 14.16446, 8.02718 3.70514 14.16446, 8.02400 3.70556 14.16446, -8.02400 3.70556 14.16446, -8.02718 3.70514 14.16446, -8.03013 3.70392 14.16446, -8.03268 3.70197 14.16446, -8.03463 3.69943 14.16446, -8.03585 3.69647 14.16446, -8.03627 3.69329 14.16446, -8.03627 -3.69329 14.16446, -8.03585 -3.69647 14.16446, -8.03463 -3.69943 14.16446, -8.03268 -3.70197 14.16446, -8.03013 -3.70392 14.16446, -8.02718 -3.70514 14.16446, -8.02400 -3.70556 14.16446, 8.02400 -3.70556 14.16446, 8.02718 -3.70514 14.16446, 8.03013 -3.70392 14.16446, 8.03268 -3.70197 14.16446, 8.03463 -3.69943 14.16446, 8.03585 -3.69647 14.16446, 8.03627 -3.69329 14.16446, 8.02400 3.68739 14.17323, 8.02380 3.68891 14.17323, 8.02321 3.69034 14.17323, 8.02227 3.69156 14.17323, 8.02105 3.69250 14.17323, 8.01962 3.69309 14.17323, 8.01809 3.69329 14.17323, -8.01809 3.69329 14.17323, -8.01962 3.69309 14.17323, -8.02105 3.69250 14.17323, -8.02227 3.69156 14.17323, -8.02321 3.69034 14.17323, -8.02380 3.68891 14.17323, -8.02400 3.68739 14.17323, -8.02400 -3.68739 14.17323, -8.02380 -3.68891 14.17323, -8.02321 -3.69034 14.17323, -8.02227 -3.69156 14.17323, -8.02105 -3.69250 14.17323, -8.01962 -3.69309 14.17323, -8.01809 -3.69329 14.17323, 8.01809 -3.69329 14.17323, 8.01962 -3.69309 14.17323, 8.02105 -3.69250 14.17323, 8.02227 -3.69156 14.17323, 8.02321 -3.69034 14.17323, 8.02380 -3.68891 14.17323, 8.02400 -3.68739 14.17323 ] } coordIndex [ 0, 1, 29, 28, -1, 1, 2, 30, 29, -1, 2, 3, 31, 30, -1, 3, 4, 32, 31, -1, 4, 5, 33, 32, -1, 5, 6, 34, 33, -1, 6, 7, 35, 34, -1, 7, 8, 36, 35, -1, 8, 9, 37, 36, -1, 9, 10, 38, 37, -1, 10, 11, 39, 38, -1, 11, 12, 40, 39, -1, 12, 13, 41, 40, -1, 13, 14, 42, 41, -1, 14, 15, 43, 42, -1, 15, 16, 44, 43, -1, 16, 17, 45, 44, -1, 17, 18, 46, 45, -1, 18, 19, 47, 46, -1, 19, 20, 48, 47, -1, 20, 21, 49, 48, -1, 21, 22, 50, 49, -1, 22, 23, 51, 50, -1, 23, 24, 52, 51, -1, 24, 25, 53, 52, -1, 25, 26, 54, 53, -1, 26, 27, 55, 54, -1, 27, 0, 28, 55, -1, 28, 29, 57, 56, -1, 29, 30, 58, 57, -1, 30, 31, 59, 58, -1, 31, 32, 60, 59, -1, 32, 33, 61, 60, -1, 33, 34, 62, 61, -1, 34, 35, 63, 62, -1, 35, 36, 64, 63, -1, 36, 37, 65, 64, -1, 37, 38, 66, 65, -1, 38, 39, 67, 66, -1, 39, 40, 68, 67, -1, 40, 41, 69, 68, -1, 41, 42, 70, 69, -1, 42, 43, 71, 70, -1, 43, 44, 72, 71, -1, 44, 45, 73, 72, -1, 45, 46, 74, 73, -1, 46, 47, 75, 74, -1, 47, 48, 76, 75, -1, 48, 49, 77, 76, -1, 49, 50, 78, 77, -1, 50, 51, 79, 78, -1, 51, 52, 80, 79, -1, 52, 53, 81, 80, -1, 53, 54, 82, 81, -1, 54, 55, 83, 82, -1, 55, 28, 56, 83, -1, 56, 57, 85, 84, -1, 57, 58, 86, 85, -1, 58, 59, 87, 86, -1, 59, 60, 88, 87, -1, 60, 61, 89, 88, -1, 61, 62, 90, 89, -1, 62, 63, 91, 90, -1, 63, 64, 92, 91, -1, 64, 65, 93, 92, -1, 65, 66, 94, 93, -1, 66, 67, 95, 94, -1, 67, 68, 96, 95, -1, 68, 69, 97, 96, -1, 69, 70, 98, 97, -1, 70, 71, 99, 98, -1, 71, 72, 100, 99, -1, 72, 73, 101, 100, -1, 73, 74, 102, 101, -1, 74, 75, 103, 102, -1, 75, 76, 104, 103, -1, 76, 77, 105, 104, -1, 77, 78, 106, 105, -1, 78, 79, 107, 106, -1, 79, 80, 108, 107, -1, 80, 81, 109, 108, -1, 81, 82, 110, 109, -1, 82, 83, 111, 110, -1, 83, 56, 84, 111, -1, 84, 85, 113, 112, -1, 85, 86, 114, 113, -1, 86, 87, 115, 114, -1, 87, 88, 116, 115, -1, 88, 89, 117, 116, -1, 89, 90, 118, 117, -1, 90, 91, 119, 118, -1, 91, 92, 120, 119, -1, 92, 93, 121, 120, -1, 93, 94, 122, 121, -1, 94, 95, 123, 122, -1, 95, 96, 124, 123, -1, 96, 97, 125, 124, -1, 97, 98, 126, 125, -1, 98, 99, 127, 126, -1, 99, 100, 128, 127, -1, 100, 101, 129, 128, -1, 101, 102, 130, 129, -1, 102, 103, 131, 130, -1, 103, 104, 132, 131, -1, 104, 105, 133, 132, -1, 105, 106, 134, 133, -1, 106, 107, 135, 134, -1, 107, 108, 136, 135, -1, 108, 109, 137, 136, -1, 109, 110, 138, 137, -1, 110, 111, 139, 138, -1, 111, 84, 112, 139, -1, 112, 113, 141, 140, -1, 113, 114, 142, 141, -1, 114, 115, 143, 142, -1, 115, 116, 144, 143, -1, 116, 117, 145, 144, -1, 117, 118, 146, 145, -1, 118, 119, 147, 146, -1, 119, 120, 148, 147, -1, 120, 121, 149, 148, -1, 121, 122, 150, 149, -1, 122, 123, 151, 150, -1, 123, 124, 152, 151, -1, 124, 125, 153, 152, -1, 125, 126, 154, 153, -1, 126, 127, 155, 154, -1, 127, 128, 156, 155, -1, 128, 129, 157, 156, -1, 129, 130, 158, 157, -1, 130, 131, 159, 158, -1, 131, 132, 160, 159, -1, 132, 133, 161, 160, -1, 133, 134, 162, 161, -1, 134, 135, 163, 162, -1, 135, 136, 164, 163, -1, 136, 137, 165, 164, -1, 137, 138, 166, 165, -1, 138, 139, 167, 166, -1, 139, 112, 140, 167, -1, 140, 141, 169, 168, -1, 141, 142, 170, 169, -1, 142, 143, 171, 170, -1, 143, 144, 172, 171, -1, 144, 145, 173, 172, -1, 145, 146, 174, 173, -1, 146, 147, 175, 174, -1, 147, 148, 176, 175, -1, 148, 149, 177, 176, -1, 149, 150, 178, 177, -1, 150, 151, 179, 178, -1, 151, 152, 180, 179, -1, 152, 153, 181, 180, -1, 153, 154, 182, 181, -1, 154, 155, 183, 182, -1, 155, 156, 184, 183, -1, 156, 157, 185, 184, -1, 157, 158, 186, 185, -1, 158, 159, 187, 186, -1, 159, 160, 188, 187, -1, 160, 161, 189, 188, -1, 161, 162, 190, 189, -1, 162, 163, 191, 190, -1, 163, 164, 192, 191, -1, 164, 165, 193, 192, -1, 165, 166, 194, 193, -1, 166, 167, 195, 194, -1, 167, 140, 168, 195, -1, 168, 169, 197, 196, -1, 169, 170, 198, 197, -1, 170, 171, 199, 198, -1, 171, 172, 200, 199, -1, 172, 173, 201, 200, -1, 173, 174, 202, 201, -1, 174, 175, 203, 202, -1, 175, 176, 204, 203, -1, 176, 177, 205, 204, -1, 177, 178, 206, 205, -1, 178, 179, 207, 206, -1, 179, 180, 208, 207, -1, 180, 181, 209, 208, -1, 181, 182, 210, 209, -1, 182, 183, 211, 210, -1, 183, 184, 212, 211, -1, 184, 185, 213, 212, -1, 185, 186, 214, 213, -1, 186, 187, 215, 214, -1, 187, 188, 216, 215, -1, 188, 189, 217, 216, -1, 189, 190, 218, 217, -1, 190, 191, 219, 218, -1, 191, 192, 220, 219, -1, 192, 193, 221, 220, -1, 193, 194, 222, 221, -1, 194, 195, 223, 222, -1, 195, 168, 196, 223, -1, 27, 26, 25, 24, 23, 22, 21, 20, 19, 18, 17, 16, 15, 14, 13, 12, 11, 10, 9, 8, 7, 6, 5, 4, 3, 2, 1, 0, -1, 196, 197, 198, 199, 200, 201, 202, 203, 204, 205, 206, 207, 208, 209, 210, 211, 212, 213, 214, 215, 216, 217, 218, 219, 220, 221, 222, 223, -1 ] creaseAngle 0.6 solid TRUE } }
# tinned lead 1
Shape { appearance USE TIN geometry IndexedFaceSet { coord Coordinate { point [ -7.20472 0.00000 -1.37795, -7.21340 0.05475 -1.37795, -7.23856 0.10414 -1.37795, -7.27775 0.14333 -1.37795, -7.32714 0.16849 -1.37795, -7.38189 0.17717 -1.37795, -7.43664 0.16849 -1.37795, -7.48602 0.14333 -1.37795, -7.52522 0.10414 -1.37795, -7.55038 0.05475 -1.37795, -7.55906 0.00000 -1.37795, -7.55038 -0.05475 -1.37795, -7.52522 -0.10414 -1.37795, -7.48602 -0.14333 -1.37795, -7.43664 -0.16849 -1.37795, -7.38189 -0.17717 -1.37795, -7.32714 -0.16849 -1.37795, -7.27775 -0.14333 -1.37795, -7.23856 -0.10414 -1.37795, -7.21340 -0.05475 -1.37795, -7.20472 0.00000 0.13780, -7.21340 0.05475 0.13780, -7.23856 0.10414 0.13780, -7.27775 0.14333 0.13780, -7.32714 0.16849 0.13780, -7.38189 0.17717 0.13780, -7.43664 0.16849 0.13780, -7.48602 0.14333 0.13780, -7.52522 0.10414 0.13780, -7.55038 0.05475 0.13780, -7.55906 0.00000 0.13780, -7.55038 -0.05475 0.13780, -7.52522 -0.10414 0.13780, -7.48602 -0.14333 0.13780, -7.43664 -0.16849 0.13780, -7.38189 -0.17717 0.13780, -7.32714 -0.16849 0.13780, -7.27775 -0.14333 0.13780, -7.23856 -0.10414 0.13780, -7.21340 -0.05475 0.13780 ] } coordIndex [ 0, 1, 21, 20, -1, 1, 2, 22, 21, -1, 2, 3, 23, 22, -1, 3, 4, 24, 23, -1, 4, 5, 25, 24, -1, 5, 6, 26, 25, -1, 6, 7, 27, 26, -1, 7, 8, 28, 27, -1, 8, 9, 29, 28, -1, 9, 10, 30, 29, -1, 10, 11, 31, 30, -1, 11, 12, 32, 31, -1, 12, 13, 33, 32, -1, 13, 14, 34, 33, -1, 14, 15, 35, 34, -1, 15, 16, 36, 35, -1, 16, 17, 37, 36, -1, 17, 18, 38, 37, -1, 18, 19, 39, 38, -1, 19, 0, 20, 39, -1, 19, 18, 17, 16, 15, 14, 13, 12, 11, 10, 9, 8, 7, 6, 5, 4, 3, 2, 1, 0, -1, 20, 21, 22, 23, 24, 25, 26, 27, 28, 29, 30, 31, 32, 33, 34, 35, 36, 37, 38, 39, -1 ] creaseAngle 0.6 solid TRUE } }
# tinned lead 2
Shape { appearance USE TIN geometry IndexedFaceSet { coord Coordinate { point [ 7.55906 0.00000 -1.37795, 7.55038 0.05475 -1.37795, 7.52522 0.10414 -1.37795, 7.48602 0.14333 -1.37795, 7.43664 0.16849 -1.37795, 7.38189 0.17717 -1.37795, 7.32714 0.16849 -1.37795, 7.27775 0.14333 -1.37795, 7.23856 0.10414 -1.37795, 7.21340 0.05475 -1.37795, 7.20472 0.00000 -1.37795, 7.21340 -0.05475 -1.37795, 7.23856 -0.10414 -1.37795, 7.27775 -0.14333 -1.37795, 7.32714 -0.16849 -1.37795, 7.38189 -0.17717 -1.37795, 7.43664 -0.16849 -1.37795, 7.48602 -0.14333 -1.37795, 7.52522 -0.10414 -1.37795, 7.55038 -0.05475 -1.37795, 7.55906 0.00000 0.13780, 7.55038 0.05475 0.13780, 7.52522 0.10414 0.13780, 7.48602 0.14333 0.13780, 7.43664 0.16849 0.13780, 7.38189 0.17717 0.13780, 7.32714 0.16849 0.13780, 7.27775 0.14333 0.13780, 7.23856 0.10414 0.13780, 7.21340 0.05475 0.13780, 7.20472 0.00000 0.13780, 7.21340 -0.05475 0.13780, 7.23856 -0.10414 0.13780, 7.27775 -0.14333 0.13780, 7.32714 -0.16849 0.13780, 7.38189 -0.17717 0.13780, 7.43664 -0.16849 0.13780, 7.48602 -0.14333 0.13780, 7.52522 -0.10414 0.13780, 7.55038 -0.05475 0.13780 ] } coordIndex [ 0, 1, 21, 20, -1, 1, 2, 22, 21, -1, 2, 3, 23, 22, -1, 3, 4, 24, 23, -1, 4, 5, 25, 24, -1, 5, 6, 26, 25, -1, 6, 7, 27, 26, -1, 7, 8, 28, 27, -1, 8, 9, 29, 28, -1, 9, 10, 30, 29, -1, 10, 11, 31, 30, -1, 11, 12, 32, 31, -1, 12, 13, 33, 32, -1, 13, 14, 34, 33, -1, 14, 15, 35, 34, -1, 15, 16, 36, 35, -1, 16, 17, 37, 36, -1, 17, 18, 38, 37, -1, 18, 19, 39, 38, -1, 19, 0, 20, 39, -1, 19, 18, 17, 16, 15, 14, 13, 12, 11, 10, 9, 8, 7, 6, 5, 4, 3, 2, 1, 0, -1, 20, 21, 22, 23, 24, 25, 26, 27, 28, 29, 30, 31, 32, 33, 34, 35, 36, 37, 38, 39, -1 ] creaseAngle 0.6 solid TRUE } }
