#VRML V2.0 utf8
DEF CASE Appearance { material Material { diffuseColor 0.025 0.32 0.67 specularColor 0.12 0.18 0.24 shininess 0.42 } }
DEF LID Appearance { material Material { diffuseColor 0.035 0.37 0.72 specularColor 0.12 0.19 0.27 shininess 0.45 } }
DEF SEAM Appearance { material Material { diffuseColor 0.012 0.19 0.43 specularColor 0.06 0.10 0.15 shininess 0.24 } }
DEF TIN Appearance { material Material { diffuseColor 0.68 0.71 0.73 specularColor 0.38 0.39 0.41 shininess 0.72 } }
# moulded blue case
Shape { appearance USE CASE geometry IndexedFaceSet { coord Coordinate { point [ 2.49213 0.81299 0.00000, 2.49192 0.81452 0.00000, 2.49133 0.81594 0.00000, 2.49040 0.81717 0.00000, 2.48917 0.81811 0.00000, 2.48775 0.81870 0.00000, 2.48622 0.81890 0.00000, -2.48622 0.81890 0.00000, -2.48775 0.81870 0.00000, -2.48917 0.81811 0.00000, -2.49040 0.81717 0.00000, -2.49133 0.81594 0.00000, -2.49192 0.81452 0.00000, -2.49213 0.81299 0.00000, -2.49213 -0.81299 0.00000, -2.49192 -0.81452 0.00000, -2.49133 -0.81594 0.00000, -2.49040 -0.81717 0.00000, -2.48917 -0.81811 0.00000, -2.48775 -0.81870 0.00000, -2.48622 -0.81890 0.00000, 2.48622 -0.81890 0.00000, 2.48775 -0.81870 0.00000, 2.48917 -0.81811 0.00000, 2.49040 -0.81717 0.00000, 2.49133 -0.81594 0.00000, 2.49192 -0.81452 0.00000, 2.49213 -0.81299 0.00000, 2.55000 0.81890 0.04134, 2.54803 0.83388 0.04134, 2.54225 0.84783 0.04134, 2.53305 0.85982 0.04134, 2.52106 0.86902 0.04134, 2.50710 0.87480 0.04134, 2.49213 0.87677 0.04134, -2.49213 0.87677 0.04134, -2.50710 0.87480 0.04134, -2.52106 0.86902 0.04134, -2.53305 0.85982 0.04134, -2.54225 0.84783 0.04134, -2.54803 0.83388 0.04134, -2.55000 0.81890 0.04134, -2.55000 -0.81890 0.04134, -2.54803 -0.83388 0.04134, -2.54225 -0.84783 0.04134, -2.53305 -0.85982 0.04134, -2.52106 -0.86902 0.04134, -2.50710 -0.87480 0.04134, -2.49213 -0.87677 0.04134, 2.49213 -0.87677 0.04134, 2.50710 -0.87480 0.04134, 2.52106 -0.86902 0.04134, 2.53305 -0.85982 0.04134, 2.54225 -0.84783 0.04134, 2.54803 -0.83388 0.04134, 2.55000 -0.81890 0.04134, 2.61614 0.81890 0.10748, 2.61192 0.85100 0.10748, 2.59953 0.88091 0.10748, 2.57982 0.90659 0.10748, 2.55413 0.92630 0.10748, 2.52422 0.93869 0.10748, 2.49213 0.94291 0.10748, -2.49213 0.94291 0.10748, -2.52422 0.93869 0.10748, -2.55413 0.92630 0.10748, -2.57982 0.90659 0.10748, -2.59953 0.88091 0.10748, -2.61192 0.85100 0.10748, -2.61614 0.81890 0.10748, -2.61614 -0.81890 0.10748, -2.61192 -0.85100 0.10748, -2.59953 -0.88091 0.10748, -2.57982 -0.90659 0.10748, -2.55413 -0.92630 0.10748, -2.52422 -0.93869 0.10748, -2.49213 -0.94291 0.10748, 2.49213 -0.94291 0.10748, 2.52422 -0.93869 0.10748, 2.55413 -0.92630 0.10748, 2.57982 -0.90659 0.10748, 2.59953 -0.88091 0.10748, 2.61192 -0.85100 0.10748, 2.61614 -0.81890 0.10748, 2.65748 0.81890 0.16535, 2.65185 0.86169 0.16535, 2.63533 0.90157 0.16535, 2.60905 0.93582 0.16535, 2.57480 0.96210 0.16535, 2.53492 0.97862 0.16535, 2.49213 0.98425 0.16535, -2.49213 0.98425 0.16535, -2.53492 0.97862 0.16535, -2.57480 0.96210 0.16535, -2.60905 0.93582 0.16535, -2.63533 0.90157 0.16535, -2.65185 0.86169 0.16535, -2.65748 0.81890 0.16535, -2.65748 -0.81890 0.16535, -2.65185 -0.86169 0.16535, -2.63533 -0.90157 0.16535, -2.60905 -0.93582 0.16535, -2.57480 -0.96210 0.16535, -2.53492 -0.97862 0.16535, -2.49213 -0.98425 0.16535, 2.49213 -0.98425 0.16535, 2.53492 -0.97862 0.16535, 2.57480 -0.96210 0.16535, 2.60905 -0.93582 0.16535, 2.63533 -0.90157 0.16535, 2.65185 -0.86169 0.16535, 2.65748 -0.81890 0.16535, 2.65748 0.81890 2.93795, 2.65185 0.86169 2.93795, 2.63533 0.90157 2.93795, 2.60905 0.93582 2.93795, 2.57480 0.96210 2.93795, 2.53492 0.97862 2.93795, 2.49213 0.98425 2.93795, -2.49213 0.98425 2.93795, -2.53492 0.97862 2.93795, -2.57480 0.96210 2.93795, -2.60905 0.93582 2.93795, -2.63533 0.90157 2.93795, -2.65185 0.86169 2.93795, -2.65748 0.81890 2.93795, -2.65748 -0.81890 2.93795, -2.65185 -0.86169 2.93795, -2.63533 -0.90157 2.93795, -2.60905 -0.93582 2.93795, -2.57480 -0.96210 2.93795, -2.53492 -0.97862 2.93795, -2.49213 -0.98425 2.93795, 2.49213 -0.98425 2.93795, 2.53492 -0.97862 2.93795, 2.57480 -0.96210 2.93795, 2.60905 -0.93582 2.93795, 2.63533 -0.90157 2.93795, 2.65185 -0.86169 2.93795, 2.65748 -0.81890 2.93795, 2.61614 0.81890 2.99583, 2.61192 0.85100 2.99583, 2.59953 0.88091 2.99583, 2.57982 0.90659 2.99583, 2.55413 0.92630 2.99583, 2.52422 0.93869 2.99583, 2.49213 0.94291 2.99583, -2.49213 0.94291 2.99583, -2.52422 0.93869 2.99583, -2.55413 0.92630 2.99583, -2.57982 0.90659 2.99583, -2.59953 0.88091 2.99583, -2.61192 0.85100 2.99583, -2.61614 0.81890 2.99583, -2.61614 -0.81890 2.99583, -2.61192 -0.85100 2.99583, -2.59953 -0.88091 2.99583, -2.57982 -0.90659 2.99583, -2.55413 -0.92630 2.99583, -2.52422 -0.93869 2.99583, -2.49213 -0.94291 2.99583, 2.49213 -0.94291 2.99583, 2.52422 -0.93869 2.99583, 2.55413 -0.92630 2.99583, 2.57982 -0.90659 2.99583, 2.59953 -0.88091 2.99583, 2.61192 -0.85100 2.99583, 2.61614 -0.81890 2.99583, 2.55000 0.81890 3.06197, 2.54803 0.83388 3.06197, 2.54225 0.84783 3.06197, 2.53305 0.85982 3.06197, 2.52106 0.86902 3.06197, 2.50710 0.87480 3.06197, 2.49213 0.87677 3.06197, -2.49213 0.87677 3.06197, -2.50710 0.87480 3.06197, -2.52106 0.86902 3.06197, -2.53305 0.85982 3.06197, -2.54225 0.84783 3.06197, -2.54803 0.83388 3.06197, -2.55000 0.81890 3.06197, -2.55000 -0.81890 3.06197, -2.54803 -0.83388 3.06197, -2.54225 -0.84783 3.06197, -2.53305 -0.85982 3.06197, -2.52106 -0.86902 3.06197, -2.50710 -0.87480 3.06197, -2.49213 -0.87677 3.06197, 2.49213 -0.87677 3.06197, 2.50710 -0.87480 3.06197, 2.52106 -0.86902 3.06197, 2.53305 -0.85982 3.06197, 2.54225 -0.84783 3.06197, 2.54803 -0.83388 3.06197, 2.55000 -0.81890 3.06197, 2.49213 0.81299 3.10331, 2.49192 0.81452 3.10331, 2.49133 0.81594 3.10331, 2.49040 0.81717 3.10331, 2.48917 0.81811 3.10331, 2.48775 0.81870 3.10331, 2.48622 0.81890 3.10331, -2.48622 0.81890 3.10331, -2.48775 0.81870 3.10331, -2.48917 0.81811 3.10331, -2.49040 0.81717 3.10331, -2.49133 0.81594 3.10331, -2.49192 0.81452 3.10331, -2.49213 0.81299 3.10331, -2.49213 -0.81299 3.10331, -2.49192 -0.81452 3.10331, -2.49133 -0.81594 3.10331, -2.49040 -0.81717 3.10331, -2.48917 -0.81811 3.10331, -2.48775 -0.81870 3.10331, -2.48622 -0.81890 3.10331, 2.48622 -0.81890 3.10331, 2.48775 -0.81870 3.10331, 2.48917 -0.81811 3.10331, 2.49040 -0.81717 3.10331, 2.49133 -0.81594 3.10331, 2.49192 -0.81452 3.10331, 2.49213 -0.81299 3.10331 ] } coordIndex [ 0, 1, 29, 28, -1, 1, 2, 30, 29, -1, 2, 3, 31, 30, -1, 3, 4, 32, 31, -1, 4, 5, 33, 32, -1, 5, 6, 34, 33, -1, 6, 7, 35, 34, -1, 7, 8, 36, 35, -1, 8, 9, 37, 36, -1, 9, 10, 38, 37, -1, 10, 11, 39, 38, -1, 11, 12, 40, 39, -1, 12, 13, 41, 40, -1, 13, 14, 42, 41, -1, 14, 15, 43, 42, -1, 15, 16, 44, 43, -1, 16, 17, 45, 44, -1, 17, 18, 46, 45, -1, 18, 19, 47, 46, -1, 19, 20, 48, 47, -1, 20, 21, 49, 48, -1, 21, 22, 50, 49, -1, 22, 23, 51, 50, -1, 23, 24, 52, 51, -1, 24, 25, 53, 52, -1, 25, 26, 54, 53, -1, 26, 27, 55, 54, -1, 27, 0, 28, 55, -1, 28, 29, 57, 56, -1, 29, 30, 58, 57, -1, 30, 31, 59, 58, -1, 31, 32, 60, 59, -1, 32, 33, 61, 60, -1, 33, 34, 62, 61, -1, 34, 35, 63, 62, -1, 35, 36, 64, 63, -1, 36, 37, 65, 64, -1, 37, 38, 66, 65, -1, 38, 39, 67, 66, -1, 39, 40, 68, 67, -1, 40, 41, 69, 68, -1, 41, 42, 70, 69, -1, 42, 43, 71, 70, -1, 43, 44, 72, 71, -1, 44, 45, 73, 72, -1, 45, 46, 74, 73, -1, 46, 47, 75, 74, -1, 47, 48, 76, 75, -1, 48, 49, 77, 76, -1, 49, 50, 78, 77, -1, 50, 51, 79, 78, -1, 51, 52, 80, 79, -1, 52, 53, 81, 80, -1, 53, 54, 82, 81, -1, 54, 55, 83, 82, -1, 55, 28, 56, 83, -1, 56, 57, 85, 84, -1, 57, 58, 86, 85, -1, 58, 59, 87, 86, -1, 59, 60, 88, 87, -1, 60, 61, 89, 88, -1, 61, 62, 90, 89, -1, 62, 63, 91, 90, -1, 63, 64, 92, 91, -1, 64, 65, 93, 92, -1, 65, 66, 94, 93, -1, 66, 67, 95, 94, -1, 67, 68, 96, 95, -1, 68, 69, 97, 96, -1, 69, 70, 98, 97, -1, 70, 71, 99, 98, -1, 71, 72, 100, 99, -1, 72, 73, 101, 100, -1, 73, 74, 102, 101, -1, 74, 75, 103, 102, -1, 75, 76, 104, 103, -1, 76, 77, 105, 104, -1, 77, 78, 106, 105, -1, 78, 79, 107, 106, -1, 79, 80, 108, 107, -1, 80, 81, 109, 108, -1, 81, 82, 110, 109, -1, 82, 83, 111, 110, -1, 83, 56, 84, 111, -1, 84, 85, 113, 112, -1, 85, 86, 114, 113, -1, 86, 87, 115, 114, -1, 87, 88, 116, 115, -1, 88, 89, 117, 116, -1, 89, 90, 118, 117, -1, 90, 91, 119, 118, -1, 91, 92, 120, 119, -1, 92, 93, 121, 120, -1, 93, 94, 122, 121, -1, 94, 95, 123, 122, -1, 95, 96, 124, 123, -1, 96, 97, 125, 124, -1, 97, 98, 126, 125, -1, 98, 99, 127, 126, -1, 99, 100, 128, 127, -1, 100, 101, 129, 128, -1, 101, 102, 130, 129, -1, 102, 103, 131, 130, -1, 103, 104, 132, 131, -1, 104, 105, 133, 132, -1, 105, 106, 134, 133, -1, 106, 107, 135, 134, -1, 107, 108, 136, 135, -1, 108, 109, 137, 136, -1, 109, 110, 138, 137, -1, 110, 111, 139, 138, -1, 111, 84, 112, 139, -1, 112, 113, 141, 140, -1, 113, 114, 142, 141, -1, 114, 115, 143, 142, -1, 115, 116, 144, 143, -1, 116, 117, 145, 144, -1, 117, 118, 146, 145, -1, 118, 119, 147, 146, -1, 119, 120, 148, 147, -1, 120, 121, 149, 148, -1, 121, 122, 150, 149, -1, 122, 123, 151, 150, -1, 123, 124, 152, 151, -1, 124, 125, 153, 152, -1, 125, 126, 154, 153, -1, 126, 127, 155, 154, -1, 127, 128, 156, 155, -1, 128, 129, 157, 156, -1, 129, 130, 158, 157, -1, 130, 131, 159, 158, -1, 131, 132, 160, 159, -1, 132, 133, 161, 160, -1, 133, 134, 162, 161, -1, 134, 135, 163, 162, -1, 135, 136, 164, 163, -1, 136, 137, 165, 164, -1, 137, 138, 166, 165, -1, 138, 139, 167, 166, -1, 139, 112, 140, 167, -1, 140, 141, 169, 168, -1, 141, 142, 170, 169, -1, 142, 143, 171, 170, -1, 143, 144, 172, 171, -1, 144, 145, 173, 172, -1, 145, 146, 174, 173, -1, 146, 147, 175, 174, -1, 147, 148, 176, 175, -1, 148, 149, 177, 176, -1, 149, 150, 178, 177, -1, 150, 151, 179, 178, -1, 151, 152, 180, 179, -1, 152, 153, 181, 180, -1, 153, 154, 182, 181, -1, 154, 155, 183, 182, -1, 155, 156, 184, 183, -1, 156, 157, 185, 184, -1, 157, 158, 186, 185, -1, 158, 159, 187, 186, -1, 159, 160, 188, 187, -1, 160, 161, 189, 188, -1, 161, 162, 190, 189, -1, 162, 163, 191, 190, -1, 163, 164, 192, 191, -1, 164, 165, 193, 192, -1, 165, 166, 194, 193, -1, 166, 167, 195, 194, -1, 167, 140, 168, 195, -1, 168, 169, 197, 196, -1, 169, 170, 198, 197, -1, 170, 171, 199, 198, -1, 171, 172, 200, 199, -1, 172, 173, 201, 200, -1, 173, 174, 202, 201, -1, 174, 175, 203, 202, -1, 175, 176, 204, 203, -1, 176, 177, 205, 204, -1, 177, 178, 206, 205, -1, 178, 179, 207, 206, -1, 179, 180, 208, 207, -1, 180, 181, 209, 208, -1, 181, 182, 210, 209, -1, 182, 183, 211, 210, -1, 183, 184, 212, 211, -1, 184, 185, 213, 212, -1, 185, 186, 214, 213, -1, 186, 187, 215, 214, -1, 187, 188, 216, 215, -1, 188, 189, 217, 216, -1, 189, 190, 218, 217, -1, 190, 191, 219, 218, -1, 191, 192, 220, 219, -1, 192, 193, 221, 220, -1, 193, 194, 222, 221, -1, 194, 195, 223, 222, -1, 195, 168, 196, 223, -1, 27, 26, 25, 24, 23, 22, 21, 20, 19, 18, 17, 16, 15, 14, 13, 12, 11, 10, 9, 8, 7, 6, 5, 4, 3, 2, 1, 0, -1, 196, 197, 198, 199, 200, 201, 202, 203, 204, 205, 206, 207, 208, 209, 210, 211, 212, 213, 214, 215, 216, 217, 218, 219, 220, 221, 222, 223, -1 ] creaseAngle 0.6 solid TRUE } }
# fine lid seam
Shape { appearance USE SEAM geometry IndexedFaceSet { coord Coordinate { point [ 2.61598 0.93685 3.04378, 2.61578 0.93838 3.04378, 2.61519 0.93980 3.04378, 2.61425 0.94103 3.04378, 2.61303 0.94196 3.04378, 2.61161 0.94255 3.04378, 2.61008 0.94276 3.04378, -2.61008 0.94276 3.04378, -2.61161 0.94255 3.04378, -2.61303 0.94196 3.04378, -2.61425 0.94103 3.04378, -2.61519 0.93980 3.04378, -2.61578 0.93838 3.04378, -2.61598 0.93685 3.04378, -2.61598 -0.93685 3.04378, -2.61578 -0.93838 3.04378, -2.61519 -0.93980 3.04378, -2.61425 -0.94103 3.04378, -2.61303 -0.94196 3.04378, -2.61161 -0.94255 3.04378, -2.61008 -0.94276 3.04378, 2.61008 -0.94276 3.04378, 2.61161 -0.94255 3.04378, 2.61303 -0.94196 3.04378, 2.61425 -0.94103 3.04378, 2.61519 -0.93980 3.04378, 2.61578 -0.93838 3.04378, 2.61598 -0.93685 3.04378, 2.62293 0.94276 3.04874, 2.62269 0.94455 3.04874, 2.62200 0.94623 3.04874, 2.62090 0.94767 3.04874, 2.61946 0.94877 3.04874, 2.61778 0.94946 3.04874, 2.61598 0.94970 3.04874, -2.61598 0.94970 3.04874, -2.61778 0.94946 3.04874, -2.61946 0.94877 3.04874, -2.62090 0.94767 3.04874, -2.62200 0.94623 3.04874, -2.62269 0.94455 3.04874, -2.62293 0.94276 3.04874, -2.62293 -0.94276 3.04874, -2.62269 -0.94455 3.04874, -2.62200 -0.94623 3.04874, -2.62090 -0.94767 3.04874, -2.61946 -0.94877 3.04874, -2.61778 -0.94946 3.04874, -2.61598 -0.94970 3.04874, 2.61598 -0.94970 3.04874, 2.61778 -0.94946 3.04874, 2.61946 -0.94877 3.04874, 2.62090 -0.94767 3.04874, 2.62200 -0.94623 3.04874, 2.62269 -0.94455 3.04874, 2.62293 -0.94276 3.04874, 2.63087 0.94276 3.05668, 2.63036 0.94661 3.05668, 2.62887 0.95020 3.05668, 2.62651 0.95328 3.05668, 2.62343 0.95564 3.05668, 2.61984 0.95713 3.05668, 2.61598 0.95764 3.05668, -2.61598 0.95764 3.05668, -2.61984 0.95713 3.05668, -2.62343 0.95564 3.05668, -2.62651 0.95328 3.05668, -2.62887 0.95020 3.05668, -2.63036 0.94661 3.05668, -2.63087 0.94276 3.05668, -2.63087 -0.94276 3.05668, -2.63036 -0.94661 3.05668, -2.62887 -0.95020 3.05668, -2.62651 -0.95328 3.05668, -2.62343 -0.95564 3.05668, -2.61984 -0.95713 3.05668, -2.61598 -0.95764 3.05668, 2.61598 -0.95764 3.05668, 2.61984 -0.95713 3.05668, 2.62343 -0.95564 3.05668, 2.62651 -0.95328 3.05668, 2.62887 -0.95020 3.05668, 2.63036 -0.94661 3.05668, 2.63087 -0.94276 3.05668, 2.63583 0.94276 3.06362, 2.63515 0.94789 3.06362, 2.63317 0.95268 3.06362, 2.63002 0.95679 3.06362, 2.62591 0.95994 3.06362, 2.62112 0.96192 3.06362, 2.61598 0.96260 3.06362, -2.61598 0.96260 3.06362, -2.62112 0.96192 3.06362, -2.62591 0.95994 3.06362, -2.63002 0.95679 3.06362, -2.63317 0.95268 3.06362, -2.63515 0.94789 3.06362, -2.63583 0.94276 3.06362, -2.63583 -0.94276 3.06362, -2.63515 -0.94789 3.06362, -2.63317 -0.95268 3.06362, -2.63002 -0.95679 3.06362, -2.62591 -0.95994 3.06362, -2.62112 -0.96192 3.06362, -2.61598 -0.96260 3.06362, 2.61598 -0.96260 3.06362, 2.62112 -0.96192 3.06362, 2.62591 -0.95994 3.06362, 2.63002 -0.95679 3.06362, 2.63317 -0.95268 3.06362, 2.63515 -0.94789 3.06362, 2.63583 -0.94276 3.06362, 2.63583 0.94276 3.07354, 2.63515 0.94789 3.07354, 2.63317 0.95268 3.07354, 2.63002 0.95679 3.07354, 2.62591 0.95994 3.07354, 2.62112 0.96192 3.07354, 2.61598 0.96260 3.07354, -2.61598 0.96260 3.07354, -2.62112 0.96192 3.07354, -2.62591 0.95994 3.07354, -2.63002 0.95679 3.07354, -2.63317 0.95268 3.07354, -2.63515 0.94789 3.07354, -2.63583 0.94276 3.07354, -2.63583 -0.94276 3.07354, -2.63515 -0.94789 3.07354, -2.63317 -0.95268 3.07354, -2.63002 -0.95679 3.07354, -2.62591 -0.95994 3.07354, -2.62112 -0.96192 3.07354, -2.61598 -0.96260 3.07354, 2.61598 -0.96260 3.07354, 2.62112 -0.96192 3.07354, 2.62591 -0.95994 3.07354, 2.63002 -0.95679 3.07354, 2.63317 -0.95268 3.07354, 2.63515 -0.94789 3.07354, 2.63583 -0.94276 3.07354, 2.63087 0.94276 3.08049, 2.63036 0.94661 3.08049, 2.62887 0.95020 3.08049, 2.62651 0.95328 3.08049, 2.62343 0.95564 3.08049, 2.61984 0.95713 3.08049, 2.61598 0.95764 3.08049, -2.61598 0.95764 3.08049, -2.61984 0.95713 3.08049, -2.62343 0.95564 3.08049, -2.62651 0.95328 3.08049, -2.62887 0.95020 3.08049, -2.63036 0.94661 3.08049, -2.63087 0.94276 3.08049, -2.63087 -0.94276 3.08049, -2.63036 -0.94661 3.08049, -2.62887 -0.95020 3.08049, -2.62651 -0.95328 3.08049, -2.62343 -0.95564 3.08049, -2.61984 -0.95713 3.08049, -2.61598 -0.95764 3.08049, 2.61598 -0.95764 3.08049, 2.61984 -0.95713 3.08049, 2.62343 -0.95564 3.08049, 2.62651 -0.95328 3.08049, 2.62887 -0.95020 3.08049, 2.63036 -0.94661 3.08049, 2.63087 -0.94276 3.08049, 2.62293 0.94276 3.08843, 2.62269 0.94455 3.08843, 2.62200 0.94623 3.08843, 2.62090 0.94767 3.08843, 2.61946 0.94877 3.08843, 2.61778 0.94946 3.08843, 2.61598 0.94970 3.08843, -2.61598 0.94970 3.08843, -2.61778 0.94946 3.08843, -2.61946 0.94877 3.08843, -2.62090 0.94767 3.08843, -2.62200 0.94623 3.08843, -2.62269 0.94455 3.08843, -2.62293 0.94276 3.08843, -2.62293 -0.94276 3.08843, -2.62269 -0.94455 3.08843, -2.62200 -0.94623 3.08843, -2.62090 -0.94767 3.08843, -2.61946 -0.94877 3.08843, -2.61778 -0.94946 3.08843, -2.61598 -0.94970 3.08843, 2.61598 -0.94970 3.08843, 2.61778 -0.94946 3.08843, 2.61946 -0.94877 3.08843, 2.62090 -0.94767 3.08843, 2.62200 -0.94623 3.08843, 2.62269 -0.94455 3.08843, 2.62293 -0.94276 3.08843, 2.61598 0.93685 3.09339, 2.61578 0.93838 3.09339, 2.61519 0.93980 3.09339, 2.61425 0.94103 3.09339, 2.61303 0.94196 3.09339, 2.61161 0.94255 3.09339, 2.61008 0.94276 3.09339, -2.61008 0.94276 3.09339, -2.61161 0.94255 3.09339, -2.61303 0.94196 3.09339, -2.61425 0.94103 3.09339, -2.61519 0.93980 3.09339, -2.61578 0.93838 3.09339, -2.61598 0.93685 3.09339, -2.61598 -0.93685 3.09339, -2.61578 -0.93838 3.09339, -2.61519 -0.93980 3.09339, -2.61425 -0.94103 3.09339, -2.61303 -0.94196 3.09339, -2.61161 -0.94255 3.09339, -2.61008 -0.94276 3.09339, 2.61008 -0.94276 3.09339, 2.61161 -0.94255 3.09339, 2.61303 -0.94196 3.09339, 2.61425 -0.94103 3.09339, 2.61519 -0.93980 3.09339, 2.61578 -0.93838 3.09339, 2.61598 -0.93685 3.09339 ] } coordIndex [ 0, 1, 29, 28, -1, 1, 2, 30, 29, -1, 2, 3, 31, 30, -1, 3, 4, 32, 31, -1, 4, 5, 33, 32, -1, 5, 6, 34, 33, -1, 6, 7, 35, 34, -1, 7, 8, 36, 35, -1, 8, 9, 37, 36, -1, 9, 10, 38, 37, -1, 10, 11, 39, 38, -1, 11, 12, 40, 39, -1, 12, 13, 41, 40, -1, 13, 14, 42, 41, -1, 14, 15, 43, 42, -1, 15, 16, 44, 43, -1, 16, 17, 45, 44, -1, 17, 18, 46, 45, -1, 18, 19, 47, 46, -1, 19, 20, 48, 47, -1, 20, 21, 49, 48, -1, 21, 22, 50, 49, -1, 22, 23, 51, 50, -1, 23, 24, 52, 51, -1, 24, 25, 53, 52, -1, 25, 26, 54, 53, -1, 26, 27, 55, 54, -1, 27, 0, 28, 55, -1, 28, 29, 57, 56, -1, 29, 30, 58, 57, -1, 30, 31, 59, 58, -1, 31, 32, 60, 59, -1, 32, 33, 61, 60, -1, 33, 34, 62, 61, -1, 34, 35, 63, 62, -1, 35, 36, 64, 63, -1, 36, 37, 65, 64, -1, 37, 38, 66, 65, -1, 38, 39, 67, 66, -1, 39, 40, 68, 67, -1, 40, 41, 69, 68, -1, 41, 42, 70, 69, -1, 42, 43, 71, 70, -1, 43, 44, 72, 71, -1, 44, 45, 73, 72, -1, 45, 46, 74, 73, -1, 46, 47, 75, 74, -1, 47, 48, 76, 75, -1, 48, 49, 77, 76, -1, 49, 50, 78, 77, -1, 50, 51, 79, 78, -1, 51, 52, 80, 79, -1, 52, 53, 81, 80, -1, 53, 54, 82, 81, -1, 54, 55, 83, 82, -1, 55, 28, 56, 83, -1, 56, 57, 85, 84, -1, 57, 58, 86, 85, -1, 58, 59, 87, 86, -1, 59, 60, 88, 87, -1, 60, 61, 89, 88, -1, 61, 62, 90, 89, -1, 62, 63, 91, 90, -1, 63, 64, 92, 91, -1, 64, 65, 93, 92, -1, 65, 66, 94, 93, -1, 66, 67, 95, 94, -1, 67, 68, 96, 95, -1, 68, 69, 97, 96, -1, 69, 70, 98, 97, -1, 70, 71, 99, 98, -1, 71, 72, 100, 99, -1, 72, 73, 101, 100, -1, 73, 74, 102, 101, -1, 74, 75, 103, 102, -1, 75, 76, 104, 103, -1, 76, 77, 105, 104, -1, 77, 78, 106, 105, -1, 78, 79, 107, 106, -1, 79, 80, 108, 107, -1, 80, 81, 109, 108, -1, 81, 82, 110, 109, -1, 82, 83, 111, 110, -1, 83, 56, 84, 111, -1, 84, 85, 113, 112, -1, 85, 86, 114, 113, -1, 86, 87, 115, 114, -1, 87, 88, 116, 115, -1, 88, 89, 117, 116, -1, 89, 90, 118, 117, -1, 90, 91, 119, 118, -1, 91, 92, 120, 119, -1, 92, 93, 121, 120, -1, 93, 94, 122, 121, -1, 94, 95, 123, 122, -1, 95, 96, 124, 123, -1, 96, 97, 125, 124, -1, 97, 98, 126, 125, -1, 98, 99, 127, 126, -1, 99, 100, 128, 127, -1, 100, 101, 129, 128, -1, 101, 102, 130, 129, -1, 102, 103, 131, 130, -1, 103, 104, 132, 131, -1, 104, 105, 133, 132, -1, 105, 106, 134, 133, -1, 106, 107, 135, 134, -1, 107, 108, 136, 135, -1, 108, 109, 137, 136, -1, 109, 110, 138, 137, -1, 110, 111, 139, 138, -1, 111, 84, 112, 139, -1, 112, 113, 141, 140, -1, 113, 114, 142, 141, -1, 114, 115, 143, 142, -1, 115, 116, 144, 143, -1, 116, 117, 145, 144, -1, 117, 118, 146, 145, -1, 118, 119, 147, 146, -1, 119, 120, 148, 147, -1, 120, 121, 149, 148, -1, 121, 122, 150, 149, -1, 122, 123, 151, 150, -1, 123, 124, 152, 151, -1, 124, 125, 153, 152, -1, 125, 126, 154, 153, -1, 126, 127, 155, 154, -1, 127, 128, 156, 155, -1, 128, 129, 157, 156, -1, 129, 130, 158, 157, -1, 130, 131, 159, 158, -1, 131, 132, 160, 159, -1, 132, 133, 161, 160, -1, 133, 134, 162, 161, -1, 134, 135, 163, 162, -1, 135, 136, 164, 163, -1, 136, 137, 165, 164, -1, 137, 138, 166, 165, -1, 138, 139, 167, 166, -1, 139, 112, 140, 167, -1, 140, 141, 169, 168, -1, 141, 142, 170, 169, -1, 142, 143, 171, 170, -1, 143, 144, 172, 171, -1, 144, 145, 173, 172, -1, 145, 146, 174, 173, -1, 146, 147, 175, 174, -1, 147, 148, 176, 175, -1, 148, 149, 177, 176, -1, 149, 150, 178, 177, -1, 150, 151, 179, 178, -1, 151, 152, 180, 179, -1, 152, 153, 181, 180, -1, 153, 154, 182, 181, -1, 154, 155, 183, 182, -1, 155, 156, 184, 183, -1, 156, 157, 185, 184, -1, 157, 158, 186, 185, -1, 158, 159, 187, 186, -1, 159, 160, 188, 187, -1, 160, 161, 189, 188, -1, 161, 162, 190, 189, -1, 162, 163, 191, 190, -1, 163, 164, 192, 191, -1, 164, 165, 193, 192, -1, 165, 166, 194, 193, -1, 166, 167, 195, 194, -1, 167, 140, 168, 195, -1, 168, 169, 197, 196, -1, 169, 170, 198, 197, -1, 170, 171, 199, 198, -1, 171, 172, 200, 199, -1, 172, 173, 201, 200, -1, 173, 174, 202, 201, -1, 174, 175, 203, 202, -1, 175, 176, 204, 203, -1, 176, 177, 205, 204, -1, 177, 178, 206, 205, -1, 178, 179, 207, 206, -1, 179, 180, 208, 207, -1, 180, 181, 209, 208, -1, 181, 182, 210, 209, -1, 182, 183, 211, 210, -1, 183, 184, 212, 211, -1, 184, 185, 213, 212, -1, 185, 186, 214, 213, -1, 186, 187, 215, 214, -1, 187, 188, 216, 215, -1, 188, 189, 217, 216, -1, 189, 190, 218, 217, -1, 190, 191, 219, 218, -1, 191, 192, 220, 219, -1, 192, 193, 221, 220, -1, 193, 194, 222, 221, -1, 194, 195, 223, 222, -1, 195, 168, 196, 223, -1, 27, 26, 25, 24, 23, 22, 21, 20, 19, 18, 17, 16, 15, 14, 13, 12, 11, 10, 9, 8, 7, 6, 5, 4, 3, 2, 1, 0, -1, 196, 197, 198, 199, 200, 201, 202, 203, 204, 205, 206, 207, 208, 209, 210, 211, 212, 213, 214, 215, 216, 217, 218, 219, 220, 221, 222, 223, -1 ] creaseAngle 0.6 solid TRUE } }
# integral rounded lid
Shape { appearance USE LID geometry IndexedFaceSet { coord Coordinate { point [ 2.61061 0.93148 3.06197, 2.61041 0.93301 3.06197, 2.60982 0.93443 3.06197, 2.60888 0.93566 3.06197, 2.60766 0.93659 3.06197, 2.60624 0.93718 3.06197, 2.60471 0.93739 3.06197, -2.60471 0.93739 3.06197, -2.60624 0.93718 3.06197, -2.60766 0.93659 3.06197, -2.60888 0.93566 3.06197, -2.60982 0.93443 3.06197, -2.61041 0.93301 3.06197, -2.61061 0.93148 3.06197, -2.61061 -0.93148 3.06197, -2.61041 -0.93301 3.06197, -2.60982 -0.93443 3.06197, -2.60888 -0.93566 3.06197, -2.60766 -0.93659 3.06197, -2.60624 -0.93718 3.06197, -2.60471 -0.93739 3.06197, 2.60471 -0.93739 3.06197, 2.60624 -0.93718 3.06197, 2.60766 -0.93659 3.06197, 2.60888 -0.93566 3.06197, 2.60982 -0.93443 3.06197, 2.61041 -0.93301 3.06197, 2.61061 -0.93148 3.06197, 2.62288 0.93739 3.07073, 2.62247 0.94056 3.07073, 2.62124 0.94352 3.07073, 2.61929 0.94606 3.07073, 2.61675 0.94801 3.07073, 2.61379 0.94924 3.07073, 2.61061 0.94966 3.07073, -2.61061 0.94966 3.07073, -2.61379 0.94924 3.07073, -2.61675 0.94801 3.07073, -2.61929 0.94606 3.07073, -2.62124 0.94352 3.07073, -2.62247 0.94056 3.07073, -2.62288 0.93739 3.07073, -2.62288 -0.93739 3.07073, -2.62247 -0.94056 3.07073, -2.62124 -0.94352 3.07073, -2.61929 -0.94606 3.07073, -2.61675 -0.94801 3.07073, -2.61379 -0.94924 3.07073, -2.61061 -0.94966 3.07073, 2.61061 -0.94966 3.07073, 2.61379 -0.94924 3.07073, 2.61675 -0.94801 3.07073, 2.61929 -0.94606 3.07073, 2.62124 -0.94352 3.07073, 2.62247 -0.94056 3.07073, 2.62288 -0.93739 3.07073, 2.63691 0.93739 3.08475, 2.63601 0.94419 3.08475, 2.63338 0.95053 3.08475, 2.62920 0.95598 3.08475, 2.62376 0.96015 3.08475, 2.61742 0.96278 3.08475, 2.61061 0.96368 3.08475, -2.61061 0.96368 3.08475, -2.61742 0.96278 3.08475, -2.62376 0.96015 3.08475, -2.62920 0.95598 3.08475, -2.63338 0.95053 3.08475, -2.63601 0.94419 3.08475, -2.63691 0.93739 3.08475, -2.63691 -0.93739 3.08475, -2.63601 -0.94419 3.08475, -2.63338 -0.95053 3.08475, -2.62920 -0.95598 3.08475, -2.62376 -0.96015 3.08475, -2.61742 -0.96278 3.08475, -2.61061 -0.96368 3.08475, 2.61061 -0.96368 3.08475, 2.61742 -0.96278 3.08475, 2.62376 -0.96015 3.08475, 2.62920 -0.95598 3.08475, 2.63338 -0.95053 3.08475, 2.63601 -0.94419 3.08475, 2.63691 -0.93739 3.08475, 2.64567 0.93739 3.09702, 2.64447 0.94646 3.09702, 2.64097 0.95491 3.09702, 2.63540 0.96217 3.09702, 2.62814 0.96774 3.09702, 2.61969 0.97125 3.09702, 2.61061 0.97244 3.09702, -2.61061 0.97244 3.09702, -2.61969 0.97125 3.09702, -2.62814 0.96774 3.09702, -2.63540 0.96217 3.09702, -2.64097 0.95491 3.09702, -2.64447 0.94646 3.09702, -2.64567 0.93739 3.09702, -2.64567 -0.93739 3.09702, -2.64447 -0.94646 3.09702, -2.64097 -0.95491 3.09702, -2.63540 -0.96217 3.09702, -2.62814 -0.96774 3.09702, -2.61969 -0.97125 3.09702, -2.61061 -0.97244 3.09702, 2.61061 -0.97244 3.09702, 2.61969 -0.97125 3.09702, 2.62814 -0.96774 3.09702, 2.63540 -0.96217 3.09702, 2.64097 -0.95491 3.09702, 2.64447 -0.94646 3.09702, 2.64567 -0.93739 3.09702, 2.64567 0.93739 3.11455, 2.64447 0.94646 3.11455, 2.64097 0.95491 3.11455, 2.63540 0.96217 3.11455, 2.62814 0.96774 3.11455, 2.61969 0.97125 3.11455, 2.61061 0.97244 3.11455, -2.61061 0.97244 3.11455, -2.61969 0.97125 3.11455, -2.62814 0.96774 3.11455, -2.63540 0.96217 3.11455, -2.64097 0.95491 3.11455, -2.64447 0.94646 3.11455, -2.64567 0.93739 3.11455, -2.64567 -0.93739 3.11455, -2.64447 -0.94646 3.11455, -2.64097 -0.95491 3.11455, -2.63540 -0.96217 3.11455, -2.62814 -0.96774 3.11455, -2.61969 -0.97125 3.11455, -2.61061 -0.97244 3.11455, 2.61061 -0.97244 3.11455, 2.61969 -0.97125 3.11455, 2.62814 -0.96774 3.11455, 2.63540 -0.96217 3.11455, 2.64097 -0.95491 3.11455, 2.64447 -0.94646 3.11455, 2.64567 -0.93739 3.11455, 2.63691 0.93739 3.12682, 2.63601 0.94419 3.12682, 2.63338 0.95053 3.12682, 2.62920 0.95598 3.12682, 2.62376 0.96015 3.12682, 2.61742 0.96278 3.12682, 2.61061 0.96368 3.12682, -2.61061 0.96368 3.12682, -2.61742 0.96278 3.12682, -2.62376 0.96015 3.12682, -2.62920 0.95598 3.12682, -2.63338 0.95053 3.12682, -2.63601 0.94419 3.12682, -2.63691 0.93739 3.12682, -2.63691 -0.93739 3.12682, -2.63601 -0.94419 3.12682, -2.63338 -0.95053 3.12682, -2.62920 -0.95598 3.12682, -2.62376 -0.96015 3.12682, -2.61742 -0.96278 3.12682, -2.61061 -0.96368 3.12682, 2.61061 -0.96368 3.12682, 2.61742 -0.96278 3.12682, 2.62376 -0.96015 3.12682, 2.62920 -0.95598 3.12682, 2.63338 -0.95053 3.12682, 2.63601 -0.94419 3.12682, 2.63691 -0.93739 3.12682, 2.62288 0.93739 3.14084, 2.62247 0.94056 3.14084, 2.62124 0.94352 3.14084, 2.61929 0.94606 3.14084, 2.61675 0.94801 3.14084, 2.61379 0.94924 3.14084, 2.61061 0.94966 3.14084, -2.61061 0.94966 3.14084, -2.61379 0.94924 3.14084, -2.61675 0.94801 3.14084, -2.61929 0.94606 3.14084, -2.62124 0.94352 3.14084, -2.62247 0.94056 3.14084, -2.62288 0.93739 3.14084, -2.62288 -0.93739 3.14084, -2.62247 -0.94056 3.14084, -2.62124 -0.94352 3.14084, -2.61929 -0.94606 3.14084, -2.61675 -0.94801 3.14084, -2.61379 -0.94924 3.14084, -2.61061 -0.94966 3.14084, 2.61061 -0.94966 3.14084, 2.61379 -0.94924 3.14084, 2.61675 -0.94801 3.14084, 2.61929 -0.94606 3.14084, 2.62124 -0.94352 3.14084, 2.62247 -0.94056 3.14084, 2.62288 -0.93739 3.14084, 2.61061 0.93148 3.14961, 2.61041 0.93301 3.14961, 2.60982 0.93443 3.14961, 2.60888 0.93566 3.14961, 2.60766 0.93659 3.14961, 2.60624 0.93718 3.14961, 2.60471 0.93739 3.14961, -2.60471 0.93739 3.14961, -2.60624 0.93718 3.14961, -2.60766 0.93659 3.14961, -2.60888 0.93566 3.14961, -2.60982 0.93443 3.14961, -2.61041 0.93301 3.14961, -2.61061 0.93148 3.14961, -2.61061 -0.93148 3.14961, -2.61041 -0.93301 3.14961, -2.60982 -0.93443 3.14961, -2.60888 -0.93566 3.14961, -2.60766 -0.93659 3.14961, -2.60624 -0.93718 3.14961, -2.60471 -0.93739 3.14961, 2.60471 -0.93739 3.14961, 2.60624 -0.93718 3.14961, 2.60766 -0.93659 3.14961, 2.60888 -0.93566 3.14961, 2.60982 -0.93443 3.14961, 2.61041 -0.93301 3.14961, 2.61061 -0.93148 3.14961 ] } coordIndex [ 0, 1, 29, 28, -1, 1, 2, 30, 29, -1, 2, 3, 31, 30, -1, 3, 4, 32, 31, -1, 4, 5, 33, 32, -1, 5, 6, 34, 33, -1, 6, 7, 35, 34, -1, 7, 8, 36, 35, -1, 8, 9, 37, 36, -1, 9, 10, 38, 37, -1, 10, 11, 39, 38, -1, 11, 12, 40, 39, -1, 12, 13, 41, 40, -1, 13, 14, 42, 41, -1, 14, 15, 43, 42, -1, 15, 16, 44, 43, -1, 16, 17, 45, 44, -1, 17, 18, 46, 45, -1, 18, 19, 47, 46, -1, 19, 20, 48, 47, -1, 20, 21, 49, 48, -1, 21, 22, 50, 49, -1, 22, 23, 51, 50, -1, 23, 24, 52, 51, -1, 24, 25, 53, 52, -1, 25, 26, 54, 53, -1, 26, 27, 55, 54, -1, 27, 0, 28, 55, -1, 28, 29, 57, 56, -1, 29, 30, 58, 57, -1, 30, 31, 59, 58, -1, 31, 32, 60, 59, -1, 32, 33, 61, 60, -1, 33, 34, 62, 61, -1, 34, 35, 63, 62, -1, 35, 36, 64, 63, -1, 36, 37, 65, 64, -1, 37, 38, 66, 65, -1, 38, 39, 67, 66, -1, 39, 40, 68, 67, -1, 40, 41, 69, 68, -1, 41, 42, 70, 69, -1, 42, 43, 71, 70, -1, 43, 44, 72, 71, -1, 44, 45, 73, 72, -1, 45, 46, 74, 73, -1, 46, 47, 75, 74, -1, 47, 48, 76, 75, -1, 48, 49, 77, 76, -1, 49, 50, 78, 77, -1, 50, 51, 79, 78, -1, 51, 52, 80, 79, -1, 52, 53, 81, 80, -1, 53, 54, 82, 81, -1, 54, 55, 83, 82, -1, 55, 28, 56, 83, -1, 56, 57, 85, 84, -1, 57, 58, 86, 85, -1, 58, 59, 87, 86, -1, 59, 60, 88, 87, -1, 60, 61, 89, 88, -1, 61, 62, 90, 89, -1, 62, 63, 91, 90, -1, 63, 64, 92, 91, -1, 64, 65, 93, 92, -1, 65, 66, 94, 93, -1, 66, 67, 95, 94, -1, 67, 68, 96, 95, -1, 68, 69, 97, 96, -1, 69, 70, 98, 97, -1, 70, 71, 99, 98, -1, 71, 72, 100, 99, -1, 72, 73, 101, 100, -1, 73, 74, 102, 101, -1, 74, 75, 103, 102, -1, 75, 76, 104, 103, -1, 76, 77, 105, 104, -1, 77, 78, 106, 105, -1, 78, 79, 107, 106, -1, 79, 80, 108, 107, -1, 80, 81, 109, 108, -1, 81, 82, 110, 109, -1, 82, 83, 111, 110, -1, 83, 56, 84, 111, -1, 84, 85, 113, 112, -1, 85, 86, 114, 113, -1, 86, 87, 115, 114, -1, 87, 88, 116, 115, -1, 88, 89, 117, 116, -1, 89, 90, 118, 117, -1, 90, 91, 119, 118, -1, 91, 92, 120, 119, -1, 92, 93, 121, 120, -1, 93, 94, 122, 121, -1, 94, 95, 123, 122, -1, 95, 96, 124, 123, -1, 96, 97, 125, 124, -1, 97, 98, 126, 125, -1, 98, 99, 127, 126, -1, 99, 100, 128, 127, -1, 100, 101, 129, 128, -1, 101, 102, 130, 129, -1, 102, 103, 131, 130, -1, 103, 104, 132, 131, -1, 104, 105, 133, 132, -1, 105, 106, 134, 133, -1, 106, 107, 135, 134, -1, 107, 108, 136, 135, -1, 108, 109, 137, 136, -1, 109, 110, 138, 137, -1, 110, 111, 139, 138, -1, 111, 84, 112, 139, -1, 112, 113, 141, 140, -1, 113, 114, 142, 141, -1, 114, 115, 143, 142, -1, 115, 116, 144, 143, -1, 116, 117, 145, 144, -1, 117, 118, 146, 145, -1, 118, 119, 147, 146, -1, 119, 120, 148, 147, -1, 120, 121, 149, 148, -1, 121, 122, 150, 149, -1, 122, 123, 151, 150, -1, 123, 124, 152, 151, -1, 124, 125, 153, 152, -1, 125, 126, 154, 153, -1, 126, 127, 155, 154, -1, 127, 128, 156, 155, -1, 128, 129, 157, 156, -1, 129, 130, 158, 157, -1, 130, 131, 159, 158, -1, 131, 132, 160, 159, -1, 132, 133, 161, 160, -1, 133, 134, 162, 161, -1, 134, 135, 163, 162, -1, 135, 136, 164, 163, -1, 136, 137, 165, 164, -1, 137, 138, 166, 165, -1, 138, 139, 167, 166, -1, 139, 112, 140, 167, -1, 140, 141, 169, 168, -1, 141, 142, 170, 169, -1, 142, 143, 171, 170, -1, 143, 144, 172, 171, -1, 144, 145, 173, 172, -1, 145, 146, 174, 173, -1, 146, 147, 175, 174, -1, 147, 148, 176, 175, -1, 148, 149, 177, 176, -1, 149, 150, 178, 177, -1, 150, 151, 179, 178, -1, 151, 152, 180, 179, -1, 152, 153, 181, 180, -1, 153, 154, 182, 181, -1, 154, 155, 183, 182, -1, 155, 156, 184, 183, -1, 156, 157, 185, 184, -1, 157, 158, 186, 185, -1, 158, 159, 187, 186, -1, 159, 160, 188, 187, -1, 160, 161, 189, 188, -1, 161, 162, 190, 189, -1, 162, 163, 191, 190, -1, 163, 164, 192, 191, -1, 164, 165, 193, 192, -1, 165, 166, 194, 193, -1, 166, 167, 195, 194, -1, 167, 140, 168, 195, -1, 168, 169, 197, 196, -1, 169, 170, 198, 197, -1, 170, 171, 199, 198, -1, 171, 172, 200, 199, -1, 172, 173, 201, 200, -1, 173, 174, 202, 201, -1, 174, 175, 203, 202, -1, 175, 176, 204, 203, -1, 176, 177, 205, 204, -1, 177, 178, 206, 205, -1, 178, 179, 207, 206, -1, 179, 180, 208, 207, -1, 180, 181, 209, 208, -1, 181, 182, 210, 209, -1, 182, 183, 211, 210, -1, 183, 184, 212, 211, -1, 184, 185, 213, 212, -1, 185, 186, 214, 213, -1, 186, 187, 215, 214, -1, 187, 188, 216, 215, -1, 188, 189, 217, 216, -1, 189, 190, 218, 217, -1, 190, 191, 219, 218, -1, 191, 192, 220, 219, -1, 192, 193, 221, 220, -1, 193, 194, 222, 221, -1, 194, 195, 223, 222, -1, 195, 168, 196, 223, -1, 27, 26, 25, 24, 23, 22, 21, 20, 19, 18, 17, 16, 15, 14, 13, 12, 11, 10, 9, 8, 7, 6, 5, 4, 3, 2, 1, 0, -1, 196, 197, 198, 199, 200, 201, 202, 203, 204, 205, 206, 207, 208, 209, 210, 211, 212, 213, 214, 215, 216, 217, 218, 219, 220, 221, 222, 223, -1 ] creaseAngle 0.6 solid TRUE } }
# tinned lead 1
Shape { appearance USE TIN geometry IndexedFaceSet { coord Coordinate { point [ -1.82087 0.00000 -1.37795, -1.82809 0.04562 -1.37795, -1.84906 0.08678 -1.37795, -1.88172 0.11944 -1.37795, -1.92288 0.14041 -1.37795, -1.96850 0.14764 -1.37795, -2.01413 0.14041 -1.37795, -2.05528 0.11944 -1.37795, -2.08795 0.08678 -1.37795, -2.10892 0.04562 -1.37795, -2.11614 0.00000 -1.37795, -2.10892 -0.04562 -1.37795, -2.08795 -0.08678 -1.37795, -2.05528 -0.11944 -1.37795, -2.01413 -0.14041 -1.37795, -1.96850 -0.14764 -1.37795, -1.92288 -0.14041 -1.37795, -1.88172 -0.11944 -1.37795, -1.84906 -0.08678 -1.37795, -1.82809 -0.04562 -1.37795, -1.82087 0.00000 0.13780, -1.82809 0.04562 0.13780, -1.84906 0.08678 0.13780, -1.88172 0.11944 0.13780, -1.92288 0.14041 0.13780, -1.96850 0.14764 0.13780, -2.01413 0.14041 0.13780, -2.05528 0.11944 0.13780, -2.08795 0.08678 0.13780, -2.10892 0.04562 0.13780, -2.11614 0.00000 0.13780, -2.10892 -0.04562 0.13780, -2.08795 -0.08678 0.13780, -2.05528 -0.11944 0.13780, -2.01413 -0.14041 0.13780, -1.96850 -0.14764 0.13780, -1.92288 -0.14041 0.13780, -1.88172 -0.11944 0.13780, -1.84906 -0.08678 0.13780, -1.82809 -0.04562 0.13780 ] } coordIndex [ 0, 1, 21, 20, -1, 1, 2, 22, 21, -1, 2, 3, 23, 22, -1, 3, 4, 24, 23, -1, 4, 5, 25, 24, -1, 5, 6, 26, 25, -1, 6, 7, 27, 26, -1, 7, 8, 28, 27, -1, 8, 9, 29, 28, -1, 9, 10, 30, 29, -1, 10, 11, 31, 30, -1, 11, 12, 32, 31, -1, 12, 13, 33, 32, -1, 13, 14, 34, 33, -1, 14, 15, 35, 34, -1, 15, 16, 36, 35, -1, 16, 17, 37, 36, -1, 17, 18, 38, 37, -1, 18, 19, 39, 38, -1, 19, 0, 20, 39, -1, 19, 18, 17, 16, 15, 14, 13, 12, 11, 10, 9, 8, 7, 6, 5, 4, 3, 2, 1, 0, -1, 20, 21, 22, 23, 24, 25, 26, 27, 28, 29, 30, 31, 32, 33, 34, 35, 36, 37, 38, 39, -1 ] creaseAngle 0.6 solid TRUE } }
# tinned lead 2
Shape { appearance USE TIN geometry IndexedFaceSet { coord Coordinate { point [ 2.11614 0.00000 -1.37795, 2.10892 0.04562 -1.37795, 2.08795 0.08678 -1.37795, 2.05528 0.11944 -1.37795, 2.01413 0.14041 -1.37795, 1.96850 0.14764 -1.37795, 1.92288 0.14041 -1.37795, 1.88172 0.11944 -1.37795, 1.84906 0.08678 -1.37795, 1.82809 0.04562 -1.37795, 1.82087 0.00000 -1.37795, 1.82809 -0.04562 -1.37795, 1.84906 -0.08678 -1.37795, 1.88172 -0.11944 -1.37795, 1.92288 -0.14041 -1.37795, 1.96850 -0.14764 -1.37795, 2.01413 -0.14041 -1.37795, 2.05528 -0.11944 -1.37795, 2.08795 -0.08678 -1.37795, 2.10892 -0.04562 -1.37795, 2.11614 0.00000 0.13780, 2.10892 0.04562 0.13780, 2.08795 0.08678 0.13780, 2.05528 0.11944 0.13780, 2.01413 0.14041 0.13780, 1.96850 0.14764 0.13780, 1.92288 0.14041 0.13780, 1.88172 0.11944 0.13780, 1.84906 0.08678 0.13780, 1.82809 0.04562 0.13780, 1.82087 0.00000 0.13780, 1.82809 -0.04562 0.13780, 1.84906 -0.08678 0.13780, 1.88172 -0.11944 0.13780, 1.92288 -0.14041 0.13780, 1.96850 -0.14764 0.13780, 2.01413 -0.14041 0.13780, 2.05528 -0.11944 0.13780, 2.08795 -0.08678 0.13780, 2.10892 -0.04562 0.13780 ] } coordIndex [ 0, 1, 21, 20, -1, 1, 2, 22, 21, -1, 2, 3, 23, 22, -1, 3, 4, 24, 23, -1, 4, 5, 25, 24, -1, 5, 6, 26, 25, -1, 6, 7, 27, 26, -1, 7, 8, 28, 27, -1, 8, 9, 29, 28, -1, 9, 10, 30, 29, -1, 10, 11, 31, 30, -1, 11, 12, 32, 31, -1, 12, 13, 33, 32, -1, 13, 14, 34, 33, -1, 14, 15, 35, 34, -1, 15, 16, 36, 35, -1, 16, 17, 37, 36, -1, 17, 18, 38, 37, -1, 18, 19, 39, 38, -1, 19, 0, 20, 39, -1, 19, 18, 17, 16, 15, 14, 13, 12, 11, 10, 9, 8, 7, 6, 5, 4, 3, 2, 1, 0, -1, 20, 21, 22, 23, 24, 25, 26, 27, 28, 29, 30, 31, 32, 33, 34, 35, 36, 37, 38, 39, -1 ] creaseAngle 0.6 solid TRUE } }
