#VRML V2.0 utf8
DEF CASE Appearance { material Material { diffuseColor 0.025 0.32 0.67 specularColor 0.12 0.18 0.24 shininess 0.42 } }
DEF LID Appearance { material Material { diffuseColor 0.035 0.37 0.72 specularColor 0.12 0.19 0.27 shininess 0.45 } }
DEF SEAM Appearance { material Material { diffuseColor 0.012 0.19 0.43 specularColor 0.06 0.10 0.15 shininess 0.24 } }
DEF TIN Appearance { material Material { diffuseColor 0.68 0.71 0.73 specularColor 0.38 0.39 0.41 shininess 0.72 } }
# moulded blue case
Shape { appearance USE CASE geometry IndexedFaceSet { coord Coordinate { point [ 1.25197 0.51772 0.00000, 1.25177 0.51924 0.00000, 1.25118 0.52067 0.00000, 1.25024 0.52189 0.00000, 1.24902 0.52283 0.00000, 1.24759 0.52342 0.00000, 1.24606 0.52362 0.00000, -1.24606 0.52362 0.00000, -1.24759 0.52342 0.00000, -1.24902 0.52283 0.00000, -1.25024 0.52189 0.00000, -1.25118 0.52067 0.00000, -1.25177 0.51924 0.00000, -1.25197 0.51772 0.00000, -1.25197 -0.51772 0.00000, -1.25177 -0.51924 0.00000, -1.25118 -0.52067 0.00000, -1.25024 -0.52189 0.00000, -1.24902 -0.52283 0.00000, -1.24759 -0.52342 0.00000, -1.24606 -0.52362 0.00000, 1.24606 -0.52362 0.00000, 1.24759 -0.52342 0.00000, 1.24902 -0.52283 0.00000, 1.25024 -0.52189 0.00000, 1.25118 -0.52067 0.00000, 1.25177 -0.51924 0.00000, 1.25197 -0.51772 0.00000, 1.30984 0.52362 0.04134, 1.30787 0.53860 0.04134, 1.30209 0.55256 0.04134, 1.29289 0.56455 0.04134, 1.28091 0.57374 0.04134, 1.26695 0.57952 0.04134, 1.25197 0.58150 0.04134, -1.25197 0.58150 0.04134, -1.26695 0.57952 0.04134, -1.28091 0.57374 0.04134, -1.29289 0.56455 0.04134, -1.30209 0.55256 0.04134, -1.30787 0.53860 0.04134, -1.30984 0.52362 0.04134, -1.30984 -0.52362 0.04134, -1.30787 -0.53860 0.04134, -1.30209 -0.55256 0.04134, -1.29289 -0.56455 0.04134, -1.28091 -0.57374 0.04134, -1.26695 -0.57952 0.04134, -1.25197 -0.58150 0.04134, 1.25197 -0.58150 0.04134, 1.26695 -0.57952 0.04134, 1.28091 -0.57374 0.04134, 1.29289 -0.56455 0.04134, 1.30209 -0.55256 0.04134, 1.30787 -0.53860 0.04134, 1.30984 -0.52362 0.04134, 1.37598 0.52362 0.10748, 1.37176 0.55572 0.10748, 1.35937 0.58563 0.10748, 1.33966 0.61131 0.10748, 1.31398 0.63102 0.10748, 1.28407 0.64341 0.10748, 1.25197 0.64764 0.10748, -1.25197 0.64764 0.10748, -1.28407 0.64341 0.10748, -1.31398 0.63102 0.10748, -1.33966 0.61131 0.10748, -1.35937 0.58563 0.10748, -1.37176 0.55572 0.10748, -1.37598 0.52362 0.10748, -1.37598 -0.52362 0.10748, -1.37176 -0.55572 0.10748, -1.35937 -0.58563 0.10748, -1.33966 -0.61131 0.10748, -1.31398 -0.63102 0.10748, -1.28407 -0.64341 0.10748, -1.25197 -0.64764 0.10748, 1.25197 -0.64764 0.10748, 1.28407 -0.64341 0.10748, 1.31398 -0.63102 0.10748, 1.33966 -0.61131 0.10748, 1.35937 -0.58563 0.10748, 1.37176 -0.55572 0.10748, 1.37598 -0.52362 0.10748, 1.41732 0.52362 0.16535, 1.41169 0.56642 0.16535, 1.39517 0.60630 0.16535, 1.36889 0.64055 0.16535, 1.33465 0.66682 0.16535, 1.29477 0.68334 0.16535, 1.25197 0.68898 0.16535, -1.25197 0.68898 0.16535, -1.29477 0.68334 0.16535, -1.33465 0.66682 0.16535, -1.36889 0.64055 0.16535, -1.39517 0.60630 0.16535, -1.41169 0.56642 0.16535, -1.41732 0.52362 0.16535, -1.41732 -0.52362 0.16535, -1.41169 -0.56642 0.16535, -1.39517 -0.60630 0.16535, -1.36889 -0.64055 0.16535, -1.33465 -0.66682 0.16535, -1.29477 -0.68334 0.16535, -1.25197 -0.68898 0.16535, 1.25197 -0.68898 0.16535, 1.29477 -0.68334 0.16535, 1.33465 -0.66682 0.16535, 1.36889 -0.64055 0.16535, 1.39517 -0.60630 0.16535, 1.41169 -0.56642 0.16535, 1.41732 -0.52362 0.16535, 1.41732 0.52362 2.78047, 1.41169 0.56642 2.78047, 1.39517 0.60630 2.78047, 1.36889 0.64055 2.78047, 1.33465 0.66682 2.78047, 1.29477 0.68334 2.78047, 1.25197 0.68898 2.78047, -1.25197 0.68898 2.78047, -1.29477 0.68334 2.78047, -1.33465 0.66682 2.78047, -1.36889 0.64055 2.78047, -1.39517 0.60630 2.78047, -1.41169 0.56642 2.78047, -1.41732 0.52362 2.78047, -1.41732 -0.52362 2.78047, -1.41169 -0.56642 2.78047, -1.39517 -0.60630 2.78047, -1.36889 -0.64055 2.78047, -1.33465 -0.66682 2.78047, -1.29477 -0.68334 2.78047, -1.25197 -0.68898 2.78047, 1.25197 -0.68898 2.78047, 1.29477 -0.68334 2.78047, 1.33465 -0.66682 2.78047, 1.36889 -0.64055 2.78047, 1.39517 -0.60630 2.78047, 1.41169 -0.56642 2.78047, 1.41732 -0.52362 2.78047, 1.37598 0.52362 2.83835, 1.37176 0.55572 2.83835, 1.35937 0.58563 2.83835, 1.33966 0.61131 2.83835, 1.31398 0.63102 2.83835, 1.28407 0.64341 2.83835, 1.25197 0.64764 2.83835, -1.25197 0.64764 2.83835, -1.28407 0.64341 2.83835, -1.31398 0.63102 2.83835, -1.33966 0.61131 2.83835, -1.35937 0.58563 2.83835, -1.37176 0.55572 2.83835, -1.37598 0.52362 2.83835, -1.37598 -0.52362 2.83835, -1.37176 -0.55572 2.83835, -1.35937 -0.58563 2.83835, -1.33966 -0.61131 2.83835, -1.31398 -0.63102 2.83835, -1.28407 -0.64341 2.83835, -1.25197 -0.64764 2.83835, 1.25197 -0.64764 2.83835, 1.28407 -0.64341 2.83835, 1.31398 -0.63102 2.83835, 1.33966 -0.61131 2.83835, 1.35937 -0.58563 2.83835, 1.37176 -0.55572 2.83835, 1.37598 -0.52362 2.83835, 1.30984 0.52362 2.90449, 1.30787 0.53860 2.90449, 1.30209 0.55256 2.90449, 1.29289 0.56455 2.90449, 1.28091 0.57374 2.90449, 1.26695 0.57952 2.90449, 1.25197 0.58150 2.90449, -1.25197 0.58150 2.90449, -1.26695 0.57952 2.90449, -1.28091 0.57374 2.90449, -1.29289 0.56455 2.90449, -1.30209 0.55256 2.90449, -1.30787 0.53860 2.90449, -1.30984 0.52362 2.90449, -1.30984 -0.52362 2.90449, -1.30787 -0.53860 2.90449, -1.30209 -0.55256 2.90449, -1.29289 -0.56455 2.90449, -1.28091 -0.57374 2.90449, -1.26695 -0.57952 2.90449, -1.25197 -0.58150 2.90449, 1.25197 -0.58150 2.90449, 1.26695 -0.57952 2.90449, 1.28091 -0.57374 2.90449, 1.29289 -0.56455 2.90449, 1.30209 -0.55256 2.90449, 1.30787 -0.53860 2.90449, 1.30984 -0.52362 2.90449, 1.25197 0.51772 2.94583, 1.25177 0.51924 2.94583, 1.25118 0.52067 2.94583, 1.25024 0.52189 2.94583, 1.24902 0.52283 2.94583, 1.24759 0.52342 2.94583, 1.24606 0.52362 2.94583, -1.24606 0.52362 2.94583, -1.24759 0.52342 2.94583, -1.24902 0.52283 2.94583, -1.25024 0.52189 2.94583, -1.25118 0.52067 2.94583, -1.25177 0.51924 2.94583, -1.25197 0.51772 2.94583, -1.25197 -0.51772 2.94583, -1.25177 -0.51924 2.94583, -1.25118 -0.52067 2.94583, -1.25024 -0.52189 2.94583, -1.24902 -0.52283 2.94583, -1.24759 -0.52342 2.94583, -1.24606 -0.52362 2.94583, 1.24606 -0.52362 2.94583, 1.24759 -0.52342 2.94583, 1.24902 -0.52283 2.94583, 1.25024 -0.52189 2.94583, 1.25118 -0.52067 2.94583, 1.25177 -0.51924 2.94583, 1.25197 -0.51772 2.94583 ] } coordIndex [ 0, 1, 29, 28, -1, 1, 2, 30, 29, -1, 2, 3, 31, 30, -1, 3, 4, 32, 31, -1, 4, 5, 33, 32, -1, 5, 6, 34, 33, -1, 6, 7, 35, 34, -1, 7, 8, 36, 35, -1, 8, 9, 37, 36, -1, 9, 10, 38, 37, -1, 10, 11, 39, 38, -1, 11, 12, 40, 39, -1, 12, 13, 41, 40, -1, 13, 14, 42, 41, -1, 14, 15, 43, 42, -1, 15, 16, 44, 43, -1, 16, 17, 45, 44, -1, 17, 18, 46, 45, -1, 18, 19, 47, 46, -1, 19, 20, 48, 47, -1, 20, 21, 49, 48, -1, 21, 22, 50, 49, -1, 22, 23, 51, 50, -1, 23, 24, 52, 51, -1, 24, 25, 53, 52, -1, 25, 26, 54, 53, -1, 26, 27, 55, 54, -1, 27, 0, 28, 55, -1, 28, 29, 57, 56, -1, 29, 30, 58, 57, -1, 30, 31, 59, 58, -1, 31, 32, 60, 59, -1, 32, 33, 61, 60, -1, 33, 34, 62, 61, -1, 34, 35, 63, 62, -1, 35, 36, 64, 63, -1, 36, 37, 65, 64, -1, 37, 38, 66, 65, -1, 38, 39, 67, 66, -1, 39, 40, 68, 67, -1, 40, 41, 69, 68, -1, 41, 42, 70, 69, -1, 42, 43, 71, 70, -1, 43, 44, 72, 71, -1, 44, 45, 73, 72, -1, 45, 46, 74, 73, -1, 46, 47, 75, 74, -1, 47, 48, 76, 75, -1, 48, 49, 77, 76, -1, 49, 50, 78, 77, -1, 50, 51, 79, 78, -1, 51, 52, 80, 79, -1, 52, 53, 81, 80, -1, 53, 54, 82, 81, -1, 54, 55, 83, 82, -1, 55, 28, 56, 83, -1, 56, 57, 85, 84, -1, 57, 58, 86, 85, -1, 58, 59, 87, 86, -1, 59, 60, 88, 87, -1, 60, 61, 89, 88, -1, 61, 62, 90, 89, -1, 62, 63, 91, 90, -1, 63, 64, 92, 91, -1, 64, 65, 93, 92, -1, 65, 66, 94, 93, -1, 66, 67, 95, 94, -1, 67, 68, 96, 95, -1, 68, 69, 97, 96, -1, 69, 70, 98, 97, -1, 70, 71, 99, 98, -1, 71, 72, 100, 99, -1, 72, 73, 101, 100, -1, 73, 74, 102, 101, -1, 74, 75, 103, 102, -1, 75, 76, 104, 103, -1, 76, 77, 105, 104, -1, 77, 78, 106, 105, -1, 78, 79, 107, 106, -1, 79, 80, 108, 107, -1, 80, 81, 109, 108, -1, 81, 82, 110, 109, -1, 82, 83, 111, 110, -1, 83, 56, 84, 111, -1, 84, 85, 113, 112, -1, 85, 86, 114, 113, -1, 86, 87, 115, 114, -1, 87, 88, 116, 115, -1, 88, 89, 117, 116, -1, 89, 90, 118, 117, -1, 90, 91, 119, 118, -1, 91, 92, 120, 119, -1, 92, 93, 121, 120, -1, 93, 94, 122, 121, -1, 94, 95, 123, 122, -1, 95, 96, 124, 123, -1, 96, 97, 125, 124, -1, 97, 98, 126, 125, -1, 98, 99, 127, 126, -1, 99, 100, 128, 127, -1, 100, 101, 129, 128, -1, 101, 102, 130, 129, -1, 102, 103, 131, 130, -1, 103, 104, 132, 131, -1, 104, 105, 133, 132, -1, 105, 106, 134, 133, -1, 106, 107, 135, 134, -1, 107, 108, 136, 135, -1, 108, 109, 137, 136, -1, 109, 110, 138, 137, -1, 110, 111, 139, 138, -1, 111, 84, 112, 139, -1, 112, 113, 141, 140, -1, 113, 114, 142, 141, -1, 114, 115, 143, 142, -1, 115, 116, 144, 143, -1, 116, 117, 145, 144, -1, 117, 118, 146, 145, -1, 118, 119, 147, 146, -1, 119, 120, 148, 147, -1, 120, 121, 149, 148, -1, 121, 122, 150, 149, -1, 122, 123, 151, 150, -1, 123, 124, 152, 151, -1, 124, 125, 153, 152, -1, 125, 126, 154, 153, -1, 126, 127, 155, 154, -1, 127, 128, 156, 155, -1, 128, 129, 157, 156, -1, 129, 130, 158, 157, -1, 130, 131, 159, 158, -1, 131, 132, 160, 159, -1, 132, 133, 161, 160, -1, 133, 134, 162, 161, -1, 134, 135, 163, 162, -1, 135, 136, 164, 163, -1, 136, 137, 165, 164, -1, 137, 138, 166, 165, -1, 138, 139, 167, 166, -1, 139, 112, 140, 167, -1, 140, 141, 169, 168, -1, 141, 142, 170, 169, -1, 142, 143, 171, 170, -1, 143, 144, 172, 171, -1, 144, 145, 173, 172, -1, 145, 146, 174, 173, -1, 146, 147, 175, 174, -1, 147, 148, 176, 175, -1, 148, 149, 177, 176, -1, 149, 150, 178, 177, -1, 150, 151, 179, 178, -1, 151, 152, 180, 179, -1, 152, 153, 181, 180, -1, 153, 154, 182, 181, -1, 154, 155, 183, 182, -1, 155, 156, 184, 183, -1, 156, 157, 185, 184, -1, 157, 158, 186, 185, -1, 158, 159, 187, 186, -1, 159, 160, 188, 187, -1, 160, 161, 189, 188, -1, 161, 162, 190, 189, -1, 162, 163, 191, 190, -1, 163, 164, 192, 191, -1, 164, 165, 193, 192, -1, 165, 166, 194, 193, -1, 166, 167, 195, 194, -1, 167, 140, 168, 195, -1, 168, 169, 197, 196, -1, 169, 170, 198, 197, -1, 170, 171, 199, 198, -1, 171, 172, 200, 199, -1, 172, 173, 201, 200, -1, 173, 174, 202, 201, -1, 174, 175, 203, 202, -1, 175, 176, 204, 203, -1, 176, 177, 205, 204, -1, 177, 178, 206, 205, -1, 178, 179, 207, 206, -1, 179, 180, 208, 207, -1, 180, 181, 209, 208, -1, 181, 182, 210, 209, -1, 182, 183, 211, 210, -1, 183, 184, 212, 211, -1, 184, 185, 213, 212, -1, 185, 186, 214, 213, -1, 186, 187, 215, 214, -1, 187, 188, 216, 215, -1, 188, 189, 217, 216, -1, 189, 190, 218, 217, -1, 190, 191, 219, 218, -1, 191, 192, 220, 219, -1, 192, 193, 221, 220, -1, 193, 194, 222, 221, -1, 194, 195, 223, 222, -1, 195, 168, 196, 223, -1, 27, 26, 25, 24, 23, 22, 21, 20, 19, 18, 17, 16, 15, 14, 13, 12, 11, 10, 9, 8, 7, 6, 5, 4, 3, 2, 1, 0, -1, 196, 197, 198, 199, 200, 201, 202, 203, 204, 205, 206, 207, 208, 209, 210, 211, 212, 213, 214, 215, 216, 217, 218, 219, 220, 221, 222, 223, -1 ] creaseAngle 0.6 solid TRUE } }
# fine lid seam
Shape { appearance USE SEAM geometry IndexedFaceSet { coord Coordinate { point [ 1.37583 0.64157 2.88630, 1.37563 0.64310 2.88630, 1.37504 0.64453 2.88630, 1.37410 0.64575 2.88630, 1.37287 0.64669 2.88630, 1.37145 0.64728 2.88630, 1.36992 0.64748 2.88630, -1.36992 0.64748 2.88630, -1.37145 0.64728 2.88630, -1.37287 0.64669 2.88630, -1.37410 0.64575 2.88630, -1.37504 0.64453 2.88630, -1.37563 0.64310 2.88630, -1.37583 0.64157 2.88630, -1.37583 -0.64157 2.88630, -1.37563 -0.64310 2.88630, -1.37504 -0.64453 2.88630, -1.37410 -0.64575 2.88630, -1.37287 -0.64669 2.88630, -1.37145 -0.64728 2.88630, -1.36992 -0.64748 2.88630, 1.36992 -0.64748 2.88630, 1.37145 -0.64728 2.88630, 1.37287 -0.64669 2.88630, 1.37410 -0.64575 2.88630, 1.37504 -0.64453 2.88630, 1.37563 -0.64310 2.88630, 1.37583 -0.64157 2.88630, 1.38277 0.64748 2.89126, 1.38254 0.64928 2.89126, 1.38184 0.65095 2.89126, 1.38074 0.65239 2.89126, 1.37930 0.65349 2.89126, 1.37762 0.65419 2.89126, 1.37583 0.65443 2.89126, -1.37583 0.65443 2.89126, -1.37762 0.65419 2.89126, -1.37930 0.65349 2.89126, -1.38074 0.65239 2.89126, -1.38184 0.65095 2.89126, -1.38254 0.64928 2.89126, -1.38277 0.64748 2.89126, -1.38277 -0.64748 2.89126, -1.38254 -0.64928 2.89126, -1.38184 -0.65095 2.89126, -1.38074 -0.65239 2.89126, -1.37930 -0.65349 2.89126, -1.37762 -0.65419 2.89126, -1.37583 -0.65443 2.89126, 1.37583 -0.65443 2.89126, 1.37762 -0.65419 2.89126, 1.37930 -0.65349 2.89126, 1.38074 -0.65239 2.89126, 1.38184 -0.65095 2.89126, 1.38254 -0.64928 2.89126, 1.38277 -0.64748 2.89126, 1.39071 0.64748 2.89920, 1.39020 0.65133 2.89920, 1.38871 0.65492 2.89920, 1.38635 0.65800 2.89920, 1.38327 0.66037 2.89920, 1.37968 0.66186 2.89920, 1.37583 0.66236 2.89920, -1.37583 0.66236 2.89920, -1.37968 0.66186 2.89920, -1.38327 0.66037 2.89920, -1.38635 0.65800 2.89920, -1.38871 0.65492 2.89920, -1.39020 0.65133 2.89920, -1.39071 0.64748 2.89920, -1.39071 -0.64748 2.89920, -1.39020 -0.65133 2.89920, -1.38871 -0.65492 2.89920, -1.38635 -0.65800 2.89920, -1.38327 -0.66037 2.89920, -1.37968 -0.66186 2.89920, -1.37583 -0.66236 2.89920, 1.37583 -0.66236 2.89920, 1.37968 -0.66186 2.89920, 1.38327 -0.66037 2.89920, 1.38635 -0.65800 2.89920, 1.38871 -0.65492 2.89920, 1.39020 -0.65133 2.89920, 1.39071 -0.64748 2.89920, 1.39567 0.64748 2.90614, 1.39499 0.65262 2.90614, 1.39301 0.65740 2.90614, 1.38986 0.66151 2.90614, 1.38575 0.66466 2.90614, 1.38096 0.66665 2.90614, 1.37583 0.66732 2.90614, -1.37583 0.66732 2.90614, -1.38096 0.66665 2.90614, -1.38575 0.66466 2.90614, -1.38986 0.66151 2.90614, -1.39301 0.65740 2.90614, -1.39499 0.65262 2.90614, -1.39567 0.64748 2.90614, -1.39567 -0.64748 2.90614, -1.39499 -0.65262 2.90614, -1.39301 -0.65740 2.90614, -1.38986 -0.66151 2.90614, -1.38575 -0.66466 2.90614, -1.38096 -0.66665 2.90614, -1.37583 -0.66732 2.90614, 1.37583 -0.66732 2.90614, 1.38096 -0.66665 2.90614, 1.38575 -0.66466 2.90614, 1.38986 -0.66151 2.90614, 1.39301 -0.65740 2.90614, 1.39499 -0.65262 2.90614, 1.39567 -0.64748 2.90614, 1.39567 0.64748 2.91606, 1.39499 0.65262 2.91606, 1.39301 0.65740 2.91606, 1.38986 0.66151 2.91606, 1.38575 0.66466 2.91606, 1.38096 0.66665 2.91606, 1.37583 0.66732 2.91606, -1.37583 0.66732 2.91606, -1.38096 0.66665 2.91606, -1.38575 0.66466 2.91606, -1.38986 0.66151 2.91606, -1.39301 0.65740 2.91606, -1.39499 0.65262 2.91606, -1.39567 0.64748 2.91606, -1.39567 -0.64748 2.91606, -1.39499 -0.65262 2.91606, -1.39301 -0.65740 2.91606, -1.38986 -0.66151 2.91606, -1.38575 -0.66466 2.91606, -1.38096 -0.66665 2.91606, -1.37583 -0.66732 2.91606, 1.37583 -0.66732 2.91606, 1.38096 -0.66665 2.91606, 1.38575 -0.66466 2.91606, 1.38986 -0.66151 2.91606, 1.39301 -0.65740 2.91606, 1.39499 -0.65262 2.91606, 1.39567 -0.64748 2.91606, 1.39071 0.64748 2.92301, 1.39020 0.65133 2.92301, 1.38871 0.65492 2.92301, 1.38635 0.65800 2.92301, 1.38327 0.66037 2.92301, 1.37968 0.66186 2.92301, 1.37583 0.66236 2.92301, -1.37583 0.66236 2.92301, -1.37968 0.66186 2.92301, -1.38327 0.66037 2.92301, -1.38635 0.65800 2.92301, -1.38871 0.65492 2.92301, -1.39020 0.65133 2.92301, -1.39071 0.64748 2.92301, -1.39071 -0.64748 2.92301, -1.39020 -0.65133 2.92301, -1.38871 -0.65492 2.92301, -1.38635 -0.65800 2.92301, -1.38327 -0.66037 2.92301, -1.37968 -0.66186 2.92301, -1.37583 -0.66236 2.92301, 1.37583 -0.66236 2.92301, 1.37968 -0.66186 2.92301, 1.38327 -0.66037 2.92301, 1.38635 -0.65800 2.92301, 1.38871 -0.65492 2.92301, 1.39020 -0.65133 2.92301, 1.39071 -0.64748 2.92301, 1.38277 0.64748 2.93094, 1.38254 0.64928 2.93094, 1.38184 0.65095 2.93094, 1.38074 0.65239 2.93094, 1.37930 0.65349 2.93094, 1.37762 0.65419 2.93094, 1.37583 0.65443 2.93094, -1.37583 0.65443 2.93094, -1.37762 0.65419 2.93094, -1.37930 0.65349 2.93094, -1.38074 0.65239 2.93094, -1.38184 0.65095 2.93094, -1.38254 0.64928 2.93094, -1.38277 0.64748 2.93094, -1.38277 -0.64748 2.93094, -1.38254 -0.64928 2.93094, -1.38184 -0.65095 2.93094, -1.38074 -0.65239 2.93094, -1.37930 -0.65349 2.93094, -1.37762 -0.65419 2.93094, -1.37583 -0.65443 2.93094, 1.37583 -0.65443 2.93094, 1.37762 -0.65419 2.93094, 1.37930 -0.65349 2.93094, 1.38074 -0.65239 2.93094, 1.38184 -0.65095 2.93094, 1.38254 -0.64928 2.93094, 1.38277 -0.64748 2.93094, 1.37583 0.64157 2.93591, 1.37563 0.64310 2.93591, 1.37504 0.64453 2.93591, 1.37410 0.64575 2.93591, 1.37287 0.64669 2.93591, 1.37145 0.64728 2.93591, 1.36992 0.64748 2.93591, -1.36992 0.64748 2.93591, -1.37145 0.64728 2.93591, -1.37287 0.64669 2.93591, -1.37410 0.64575 2.93591, -1.37504 0.64453 2.93591, -1.37563 0.64310 2.93591, -1.37583 0.64157 2.93591, -1.37583 -0.64157 2.93591, -1.37563 -0.64310 2.93591, -1.37504 -0.64453 2.93591, -1.37410 -0.64575 2.93591, -1.37287 -0.64669 2.93591, -1.37145 -0.64728 2.93591, -1.36992 -0.64748 2.93591, 1.36992 -0.64748 2.93591, 1.37145 -0.64728 2.93591, 1.37287 -0.64669 2.93591, 1.37410 -0.64575 2.93591, 1.37504 -0.64453 2.93591, 1.37563 -0.64310 2.93591, 1.37583 -0.64157 2.93591 ] } coordIndex [ 0, 1, 29, 28, -1, 1, 2, 30, 29, -1, 2, 3, 31, 30, -1, 3, 4, 32, 31, -1, 4, 5, 33, 32, -1, 5, 6, 34, 33, -1, 6, 7, 35, 34, -1, 7, 8, 36, 35, -1, 8, 9, 37, 36, -1, 9, 10, 38, 37, -1, 10, 11, 39, 38, -1, 11, 12, 40, 39, -1, 12, 13, 41, 40, -1, 13, 14, 42, 41, -1, 14, 15, 43, 42, -1, 15, 16, 44, 43, -1, 16, 17, 45, 44, -1, 17, 18, 46, 45, -1, 18, 19, 47, 46, -1, 19, 20, 48, 47, -1, 20, 21, 49, 48, -1, 21, 22, 50, 49, -1, 22, 23, 51, 50, -1, 23, 24, 52, 51, -1, 24, 25, 53, 52, -1, 25, 26, 54, 53, -1, 26, 27, 55, 54, -1, 27, 0, 28, 55, -1, 28, 29, 57, 56, -1, 29, 30, 58, 57, -1, 30, 31, 59, 58, -1, 31, 32, 60, 59, -1, 32, 33, 61, 60, -1, 33, 34, 62, 61, -1, 34, 35, 63, 62, -1, 35, 36, 64, 63, -1, 36, 37, 65, 64, -1, 37, 38, 66, 65, -1, 38, 39, 67, 66, -1, 39, 40, 68, 67, -1, 40, 41, 69, 68, -1, 41, 42, 70, 69, -1, 42, 43, 71, 70, -1, 43, 44, 72, 71, -1, 44, 45, 73, 72, -1, 45, 46, 74, 73, -1, 46, 47, 75, 74, -1, 47, 48, 76, 75, -1, 48, 49, 77, 76, -1, 49, 50, 78, 77, -1, 50, 51, 79, 78, -1, 51, 52, 80, 79, -1, 52, 53, 81, 80, -1, 53, 54, 82, 81, -1, 54, 55, 83, 82, -1, 55, 28, 56, 83, -1, 56, 57, 85, 84, -1, 57, 58, 86, 85, -1, 58, 59, 87, 86, -1, 59, 60, 88, 87, -1, 60, 61, 89, 88, -1, 61, 62, 90, 89, -1, 62, 63, 91, 90, -1, 63, 64, 92, 91, -1, 64, 65, 93, 92, -1, 65, 66, 94, 93, -1, 66, 67, 95, 94, -1, 67, 68, 96, 95, -1, 68, 69, 97, 96, -1, 69, 70, 98, 97, -1, 70, 71, 99, 98, -1, 71, 72, 100, 99, -1, 72, 73, 101, 100, -1, 73, 74, 102, 101, -1, 74, 75, 103, 102, -1, 75, 76, 104, 103, -1, 76, 77, 105, 104, -1, 77, 78, 106, 105, -1, 78, 79, 107, 106, -1, 79, 80, 108, 107, -1, 80, 81, 109, 108, -1, 81, 82, 110, 109, -1, 82, 83, 111, 110, -1, 83, 56, 84, 111, -1, 84, 85, 113, 112, -1, 85, 86, 114, 113, -1, 86, 87, 115, 114, -1, 87, 88, 116, 115, -1, 88, 89, 117, 116, -1, 89, 90, 118, 117, -1, 90, 91, 119, 118, -1, 91, 92, 120, 119, -1, 92, 93, 121, 120, -1, 93, 94, 122, 121, -1, 94, 95, 123, 122, -1, 95, 96, 124, 123, -1, 96, 97, 125, 124, -1, 97, 98, 126, 125, -1, 98, 99, 127, 126, -1, 99, 100, 128, 127, -1, 100, 101, 129, 128, -1, 101, 102, 130, 129, -1, 102, 103, 131, 130, -1, 103, 104, 132, 131, -1, 104, 105, 133, 132, -1, 105, 106, 134, 133, -1, 106, 107, 135, 134, -1, 107, 108, 136, 135, -1, 108, 109, 137, 136, -1, 109, 110, 138, 137, -1, 110, 111, 139, 138, -1, 111, 84, 112, 139, -1, 112, 113, 141, 140, -1, 113, 114, 142, 141, -1, 114, 115, 143, 142, -1, 115, 116, 144, 143, -1, 116, 117, 145, 144, -1, 117, 118, 146, 145, -1, 118, 119, 147, 146, -1, 119, 120, 148, 147, -1, 120, 121, 149, 148, -1, 121, 122, 150, 149, -1, 122, 123, 151, 150, -1, 123, 124, 152, 151, -1, 124, 125, 153, 152, -1, 125, 126, 154, 153, -1, 126, 127, 155, 154, -1, 127, 128, 156, 155, -1, 128, 129, 157, 156, -1, 129, 130, 158, 157, -1, 130, 131, 159, 158, -1, 131, 132, 160, 159, -1, 132, 133, 161, 160, -1, 133, 134, 162, 161, -1, 134, 135, 163, 162, -1, 135, 136, 164, 163, -1, 136, 137, 165, 164, -1, 137, 138, 166, 165, -1, 138, 139, 167, 166, -1, 139, 112, 140, 167, -1, 140, 141, 169, 168, -1, 141, 142, 170, 169, -1, 142, 143, 171, 170, -1, 143, 144, 172, 171, -1, 144, 145, 173, 172, -1, 145, 146, 174, 173, -1, 146, 147, 175, 174, -1, 147, 148, 176, 175, -1, 148, 149, 177, 176, -1, 149, 150, 178, 177, -1, 150, 151, 179, 178, -1, 151, 152, 180, 179, -1, 152, 153, 181, 180, -1, 153, 154, 182, 181, -1, 154, 155, 183, 182, -1, 155, 156, 184, 183, -1, 156, 157, 185, 184, -1, 157, 158, 186, 185, -1, 158, 159, 187, 186, -1, 159, 160, 188, 187, -1, 160, 161, 189, 188, -1, 161, 162, 190, 189, -1, 162, 163, 191, 190, -1, 163, 164, 192, 191, -1, 164, 165, 193, 192, -1, 165, 166, 194, 193, -1, 166, 167, 195, 194, -1, 167, 140, 168, 195, -1, 168, 169, 197, 196, -1, 169, 170, 198, 197, -1, 170, 171, 199, 198, -1, 171, 172, 200, 199, -1, 172, 173, 201, 200, -1, 173, 174, 202, 201, -1, 174, 175, 203, 202, -1, 175, 176, 204, 203, -1, 176, 177, 205, 204, -1, 177, 178, 206, 205, -1, 178, 179, 207, 206, -1, 179, 180, 208, 207, -1, 180, 181, 209, 208, -1, 181, 182, 210, 209, -1, 182, 183, 211, 210, -1, 183, 184, 212, 211, -1, 184, 185, 213, 212, -1, 185, 186, 214, 213, -1, 186, 187, 215, 214, -1, 187, 188, 216, 215, -1, 188, 189, 217, 216, -1, 189, 190, 218, 217, -1, 190, 191, 219, 218, -1, 191, 192, 220, 219, -1, 192, 193, 221, 220, -1, 193, 194, 222, 221, -1, 194, 195, 223, 222, -1, 195, 168, 196, 223, -1, 27, 26, 25, 24, 23, 22, 21, 20, 19, 18, 17, 16, 15, 14, 13, 12, 11, 10, 9, 8, 7, 6, 5, 4, 3, 2, 1, 0, -1, 196, 197, 198, 199, 200, 201, 202, 203, 204, 205, 206, 207, 208, 209, 210, 211, 212, 213, 214, 215, 216, 217, 218, 219, 220, 221, 222, 223, -1 ] creaseAngle 0.6 solid TRUE } }
# integral rounded lid
Shape { appearance USE LID geometry IndexedFaceSet { coord Coordinate { point [ 1.37046 0.63620 2.90449, 1.37026 0.63773 2.90449, 1.36967 0.63916 2.90449, 1.36873 0.64038 2.90449, 1.36750 0.64132 2.90449, 1.36608 0.64191 2.90449, 1.36455 0.64211 2.90449, -1.36455 0.64211 2.90449, -1.36608 0.64191 2.90449, -1.36750 0.64132 2.90449, -1.36873 0.64038 2.90449, -1.36967 0.63916 2.90449, -1.37026 0.63773 2.90449, -1.37046 0.63620 2.90449, -1.37046 -0.63620 2.90449, -1.37026 -0.63773 2.90449, -1.36967 -0.63916 2.90449, -1.36873 -0.64038 2.90449, -1.36750 -0.64132 2.90449, -1.36608 -0.64191 2.90449, -1.36455 -0.64211 2.90449, 1.36455 -0.64211 2.90449, 1.36608 -0.64191 2.90449, 1.36750 -0.64132 2.90449, 1.36873 -0.64038 2.90449, 1.36967 -0.63916 2.90449, 1.37026 -0.63773 2.90449, 1.37046 -0.63620 2.90449, 1.38273 0.64211 2.91325, 1.38231 0.64529 2.91325, 1.38108 0.64824 2.91325, 1.37913 0.65079 2.91325, 1.37659 0.65274 2.91325, 1.37363 0.65396 2.91325, 1.37046 0.65438 2.91325, -1.37046 0.65438 2.91325, -1.37363 0.65396 2.91325, -1.37659 0.65274 2.91325, -1.37913 0.65079 2.91325, -1.38108 0.64824 2.91325, -1.38231 0.64529 2.91325, -1.38273 0.64211 2.91325, -1.38273 -0.64211 2.91325, -1.38231 -0.64529 2.91325, -1.38108 -0.64824 2.91325, -1.37913 -0.65079 2.91325, -1.37659 -0.65274 2.91325, -1.37363 -0.65396 2.91325, -1.37046 -0.65438 2.91325, 1.37046 -0.65438 2.91325, 1.37363 -0.65396 2.91325, 1.37659 -0.65274 2.91325, 1.37913 -0.65079 2.91325, 1.38108 -0.64824 2.91325, 1.38231 -0.64529 2.91325, 1.38273 -0.64211 2.91325, 1.39675 0.64211 2.92727, 1.39585 0.64891 2.92727, 1.39323 0.65526 2.92727, 1.38905 0.66070 2.92727, 1.38360 0.66488 2.92727, 1.37726 0.66751 2.92727, 1.37046 0.66840 2.92727, -1.37046 0.66840 2.92727, -1.37726 0.66751 2.92727, -1.38360 0.66488 2.92727, -1.38905 0.66070 2.92727, -1.39323 0.65526 2.92727, -1.39585 0.64891 2.92727, -1.39675 0.64211 2.92727, -1.39675 -0.64211 2.92727, -1.39585 -0.64891 2.92727, -1.39323 -0.65526 2.92727, -1.38905 -0.66070 2.92727, -1.38360 -0.66488 2.92727, -1.37726 -0.66751 2.92727, -1.37046 -0.66840 2.92727, 1.37046 -0.66840 2.92727, 1.37726 -0.66751 2.92727, 1.38360 -0.66488 2.92727, 1.38905 -0.66070 2.92727, 1.39323 -0.65526 2.92727, 1.39585 -0.64891 2.92727, 1.39675 -0.64211 2.92727, 1.40551 0.64211 2.93954, 1.40432 0.65118 2.93954, 1.40082 0.65964 2.93954, 1.39524 0.66690 2.93954, 1.38798 0.67247 2.93954, 1.37953 0.67597 2.93954, 1.37046 0.67717 2.93954, -1.37046 0.67717 2.93954, -1.37953 0.67597 2.93954, -1.38798 0.67247 2.93954, -1.39524 0.66690 2.93954, -1.40082 0.65964 2.93954, -1.40432 0.65118 2.93954, -1.40551 0.64211 2.93954, -1.40551 -0.64211 2.93954, -1.40432 -0.65118 2.93954, -1.40082 -0.65964 2.93954, -1.39524 -0.66690 2.93954, -1.38798 -0.67247 2.93954, -1.37953 -0.67597 2.93954, -1.37046 -0.67717 2.93954, 1.37046 -0.67717 2.93954, 1.37953 -0.67597 2.93954, 1.38798 -0.67247 2.93954, 1.39524 -0.66690 2.93954, 1.40082 -0.65964 2.93954, 1.40432 -0.65118 2.93954, 1.40551 -0.64211 2.93954, 1.40551 0.64211 2.95707, 1.40432 0.65118 2.95707, 1.40082 0.65964 2.95707, 1.39524 0.66690 2.95707, 1.38798 0.67247 2.95707, 1.37953 0.67597 2.95707, 1.37046 0.67717 2.95707, -1.37046 0.67717 2.95707, -1.37953 0.67597 2.95707, -1.38798 0.67247 2.95707, -1.39524 0.66690 2.95707, -1.40082 0.65964 2.95707, -1.40432 0.65118 2.95707, -1.40551 0.64211 2.95707, -1.40551 -0.64211 2.95707, -1.40432 -0.65118 2.95707, -1.40082 -0.65964 2.95707, -1.39524 -0.66690 2.95707, -1.38798 -0.67247 2.95707, -1.37953 -0.67597 2.95707, -1.37046 -0.67717 2.95707, 1.37046 -0.67717 2.95707, 1.37953 -0.67597 2.95707, 1.38798 -0.67247 2.95707, 1.39524 -0.66690 2.95707, 1.40082 -0.65964 2.95707, 1.40432 -0.65118 2.95707, 1.40551 -0.64211 2.95707, 1.39675 0.64211 2.96934, 1.39585 0.64891 2.96934, 1.39323 0.65526 2.96934, 1.38905 0.66070 2.96934, 1.38360 0.66488 2.96934, 1.37726 0.66751 2.96934, 1.37046 0.66840 2.96934, -1.37046 0.66840 2.96934, -1.37726 0.66751 2.96934, -1.38360 0.66488 2.96934, -1.38905 0.66070 2.96934, -1.39323 0.65526 2.96934, -1.39585 0.64891 2.96934, -1.39675 0.64211 2.96934, -1.39675 -0.64211 2.96934, -1.39585 -0.64891 2.96934, -1.39323 -0.65526 2.96934, -1.38905 -0.66070 2.96934, -1.38360 -0.66488 2.96934, -1.37726 -0.66751 2.96934, -1.37046 -0.66840 2.96934, 1.37046 -0.66840 2.96934, 1.37726 -0.66751 2.96934, 1.38360 -0.66488 2.96934, 1.38905 -0.66070 2.96934, 1.39323 -0.65526 2.96934, 1.39585 -0.64891 2.96934, 1.39675 -0.64211 2.96934, 1.38273 0.64211 2.98336, 1.38231 0.64529 2.98336, 1.38108 0.64824 2.98336, 1.37913 0.65079 2.98336, 1.37659 0.65274 2.98336, 1.37363 0.65396 2.98336, 1.37046 0.65438 2.98336, -1.37046 0.65438 2.98336, -1.37363 0.65396 2.98336, -1.37659 0.65274 2.98336, -1.37913 0.65079 2.98336, -1.38108 0.64824 2.98336, -1.38231 0.64529 2.98336, -1.38273 0.64211 2.98336, -1.38273 -0.64211 2.98336, -1.38231 -0.64529 2.98336, -1.38108 -0.64824 2.98336, -1.37913 -0.65079 2.98336, -1.37659 -0.65274 2.98336, -1.37363 -0.65396 2.98336, -1.37046 -0.65438 2.98336, 1.37046 -0.65438 2.98336, 1.37363 -0.65396 2.98336, 1.37659 -0.65274 2.98336, 1.37913 -0.65079 2.98336, 1.38108 -0.64824 2.98336, 1.38231 -0.64529 2.98336, 1.38273 -0.64211 2.98336, 1.37046 0.63620 2.99213, 1.37026 0.63773 2.99213, 1.36967 0.63916 2.99213, 1.36873 0.64038 2.99213, 1.36750 0.64132 2.99213, 1.36608 0.64191 2.99213, 1.36455 0.64211 2.99213, -1.36455 0.64211 2.99213, -1.36608 0.64191 2.99213, -1.36750 0.64132 2.99213, -1.36873 0.64038 2.99213, -1.36967 0.63916 2.99213, -1.37026 0.63773 2.99213, -1.37046 0.63620 2.99213, -1.37046 -0.63620 2.99213, -1.37026 -0.63773 2.99213, -1.36967 -0.63916 2.99213, -1.36873 -0.64038 2.99213, -1.36750 -0.64132 2.99213, -1.36608 -0.64191 2.99213, -1.36455 -0.64211 2.99213, 1.36455 -0.64211 2.99213, 1.36608 -0.64191 2.99213, 1.36750 -0.64132 2.99213, 1.36873 -0.64038 2.99213, 1.36967 -0.63916 2.99213, 1.37026 -0.63773 2.99213, 1.37046 -0.63620 2.99213 ] } coordIndex [ 0, 1, 29, 28, -1, 1, 2, 30, 29, -1, 2, 3, 31, 30, -1, 3, 4, 32, 31, -1, 4, 5, 33, 32, -1, 5, 6, 34, 33, -1, 6, 7, 35, 34, -1, 7, 8, 36, 35, -1, 8, 9, 37, 36, -1, 9, 10, 38, 37, -1, 10, 11, 39, 38, -1, 11, 12, 40, 39, -1, 12, 13, 41, 40, -1, 13, 14, 42, 41, -1, 14, 15, 43, 42, -1, 15, 16, 44, 43, -1, 16, 17, 45, 44, -1, 17, 18, 46, 45, -1, 18, 19, 47, 46, -1, 19, 20, 48, 47, -1, 20, 21, 49, 48, -1, 21, 22, 50, 49, -1, 22, 23, 51, 50, -1, 23, 24, 52, 51, -1, 24, 25, 53, 52, -1, 25, 26, 54, 53, -1, 26, 27, 55, 54, -1, 27, 0, 28, 55, -1, 28, 29, 57, 56, -1, 29, 30, 58, 57, -1, 30, 31, 59, 58, -1, 31, 32, 60, 59, -1, 32, 33, 61, 60, -1, 33, 34, 62, 61, -1, 34, 35, 63, 62, -1, 35, 36, 64, 63, -1, 36, 37, 65, 64, -1, 37, 38, 66, 65, -1, 38, 39, 67, 66, -1, 39, 40, 68, 67, -1, 40, 41, 69, 68, -1, 41, 42, 70, 69, -1, 42, 43, 71, 70, -1, 43, 44, 72, 71, -1, 44, 45, 73, 72, -1, 45, 46, 74, 73, -1, 46, 47, 75, 74, -1, 47, 48, 76, 75, -1, 48, 49, 77, 76, -1, 49, 50, 78, 77, -1, 50, 51, 79, 78, -1, 51, 52, 80, 79, -1, 52, 53, 81, 80, -1, 53, 54, 82, 81, -1, 54, 55, 83, 82, -1, 55, 28, 56, 83, -1, 56, 57, 85, 84, -1, 57, 58, 86, 85, -1, 58, 59, 87, 86, -1, 59, 60, 88, 87, -1, 60, 61, 89, 88, -1, 61, 62, 90, 89, -1, 62, 63, 91, 90, -1, 63, 64, 92, 91, -1, 64, 65, 93, 92, -1, 65, 66, 94, 93, -1, 66, 67, 95, 94, -1, 67, 68, 96, 95, -1, 68, 69, 97, 96, -1, 69, 70, 98, 97, -1, 70, 71, 99, 98, -1, 71, 72, 100, 99, -1, 72, 73, 101, 100, -1, 73, 74, 102, 101, -1, 74, 75, 103, 102, -1, 75, 76, 104, 103, -1, 76, 77, 105, 104, -1, 77, 78, 106, 105, -1, 78, 79, 107, 106, -1, 79, 80, 108, 107, -1, 80, 81, 109, 108, -1, 81, 82, 110, 109, -1, 82, 83, 111, 110, -1, 83, 56, 84, 111, -1, 84, 85, 113, 112, -1, 85, 86, 114, 113, -1, 86, 87, 115, 114, -1, 87, 88, 116, 115, -1, 88, 89, 117, 116, -1, 89, 90, 118, 117, -1, 90, 91, 119, 118, -1, 91, 92, 120, 119, -1, 92, 93, 121, 120, -1, 93, 94, 122, 121, -1, 94, 95, 123, 122, -1, 95, 96, 124, 123, -1, 96, 97, 125, 124, -1, 97, 98, 126, 125, -1, 98, 99, 127, 126, -1, 99, 100, 128, 127, -1, 100, 101, 129, 128, -1, 101, 102, 130, 129, -1, 102, 103, 131, 130, -1, 103, 104, 132, 131, -1, 104, 105, 133, 132, -1, 105, 106, 134, 133, -1, 106, 107, 135, 134, -1, 107, 108, 136, 135, -1, 108, 109, 137, 136, -1, 109, 110, 138, 137, -1, 110, 111, 139, 138, -1, 111, 84, 112, 139, -1, 112, 113, 141, 140, -1, 113, 114, 142, 141, -1, 114, 115, 143, 142, -1, 115, 116, 144, 143, -1, 116, 117, 145, 144, -1, 117, 118, 146, 145, -1, 118, 119, 147, 146, -1, 119, 120, 148, 147, -1, 120, 121, 149, 148, -1, 121, 122, 150, 149, -1, 122, 123, 151, 150, -1, 123, 124, 152, 151, -1, 124, 125, 153, 152, -1, 125, 126, 154, 153, -1, 126, 127, 155, 154, -1, 127, 128, 156, 155, -1, 128, 129, 157, 156, -1, 129, 130, 158, 157, -1, 130, 131, 159, 158, -1, 131, 132, 160, 159, -1, 132, 133, 161, 160, -1, 133, 134, 162, 161, -1, 134, 135, 163, 162, -1, 135, 136, 164, 163, -1, 136, 137, 165, 164, -1, 137, 138, 166, 165, -1, 138, 139, 167, 166, -1, 139, 112, 140, 167, -1, 140, 141, 169, 168, -1, 141, 142, 170, 169, -1, 142, 143, 171, 170, -1, 143, 144, 172, 171, -1, 144, 145, 173, 172, -1, 145, 146, 174, 173, -1, 146, 147, 175, 174, -1, 147, 148, 176, 175, -1, 148, 149, 177, 176, -1, 149, 150, 178, 177, -1, 150, 151, 179, 178, -1, 151, 152, 180, 179, -1, 152, 153, 181, 180, -1, 153, 154, 182, 181, -1, 154, 155, 183, 182, -1, 155, 156, 184, 183, -1, 156, 157, 185, 184, -1, 157, 158, 186, 185, -1, 158, 159, 187, 186, -1, 159, 160, 188, 187, -1, 160, 161, 189, 188, -1, 161, 162, 190, 189, -1, 162, 163, 191, 190, -1, 163, 164, 192, 191, -1, 164, 165, 193, 192, -1, 165, 166, 194, 193, -1, 166, 167, 195, 194, -1, 167, 140, 168, 195, -1, 168, 169, 197, 196, -1, 169, 170, 198, 197, -1, 170, 171, 199, 198, -1, 171, 172, 200, 199, -1, 172, 173, 201, 200, -1, 173, 174, 202, 201, -1, 174, 175, 203, 202, -1, 175, 176, 204, 203, -1, 176, 177, 205, 204, -1, 177, 178, 206, 205, -1, 178, 179, 207, 206, -1, 179, 180, 208, 207, -1, 180, 181, 209, 208, -1, 181, 182, 210, 209, -1, 182, 183, 211, 210, -1, 183, 184, 212, 211, -1, 184, 185, 213, 212, -1, 185, 186, 214, 213, -1, 186, 187, 215, 214, -1, 187, 188, 216, 215, -1, 188, 189, 217, 216, -1, 189, 190, 218, 217, -1, 190, 191, 219, 218, -1, 191, 192, 220, 219, -1, 192, 193, 221, 220, -1, 193, 194, 222, 221, -1, 194, 195, 223, 222, -1, 195, 168, 196, 223, -1, 27, 26, 25, 24, 23, 22, 21, 20, 19, 18, 17, 16, 15, 14, 13, 12, 11, 10, 9, 8, 7, 6, 5, 4, 3, 2, 1, 0, -1, 196, 197, 198, 199, 200, 201, 202, 203, 204, 205, 206, 207, 208, 209, 210, 211, 212, 213, 214, 215, 216, 217, 218, 219, 220, 221, 222, 223, -1 ] creaseAngle 0.6 solid TRUE } }
# tinned lead 1
Shape { appearance USE TIN geometry IndexedFaceSet { coord Coordinate { point [ -0.87598 0.00000 -1.37795, -0.88128 0.03346 -1.37795, -0.89666 0.06364 -1.37795, -0.92061 0.08759 -1.37795, -0.95080 0.10297 -1.37795, -0.98425 0.10827 -1.37795, -1.01771 0.10297 -1.37795, -1.04789 0.08759 -1.37795, -1.07184 0.06364 -1.37795, -1.08722 0.03346 -1.37795, -1.09252 0.00000 -1.37795, -1.08722 -0.03346 -1.37795, -1.07184 -0.06364 -1.37795, -1.04789 -0.08759 -1.37795, -1.01771 -0.10297 -1.37795, -0.98425 -0.10827 -1.37795, -0.95080 -0.10297 -1.37795, -0.92061 -0.08759 -1.37795, -0.89666 -0.06364 -1.37795, -0.88128 -0.03346 -1.37795, -0.87598 0.00000 0.13780, -0.88128 0.03346 0.13780, -0.89666 0.06364 0.13780, -0.92061 0.08759 0.13780, -0.95080 0.10297 0.13780, -0.98425 0.10827 0.13780, -1.01771 0.10297 0.13780, -1.04789 0.08759 0.13780, -1.07184 0.06364 0.13780, -1.08722 0.03346 0.13780, -1.09252 0.00000 0.13780, -1.08722 -0.03346 0.13780, -1.07184 -0.06364 0.13780, -1.04789 -0.08759 0.13780, -1.01771 -0.10297 0.13780, -0.98425 -0.10827 0.13780, -0.95080 -0.10297 0.13780, -0.92061 -0.08759 0.13780, -0.89666 -0.06364 0.13780, -0.88128 -0.03346 0.13780 ] } coordIndex [ 0, 1, 21, 20, -1, 1, 2, 22, 21, -1, 2, 3, 23, 22, -1, 3, 4, 24, 23, -1, 4, 5, 25, 24, -1, 5, 6, 26, 25, -1, 6, 7, 27, 26, -1, 7, 8, 28, 27, -1, 8, 9, 29, 28, -1, 9, 10, 30, 29, -1, 10, 11, 31, 30, -1, 11, 12, 32, 31, -1, 12, 13, 33, 32, -1, 13, 14, 34, 33, -1, 14, 15, 35, 34, -1, 15, 16, 36, 35, -1, 16, 17, 37, 36, -1, 17, 18, 38, 37, -1, 18, 19, 39, 38, -1, 19, 0, 20, 39, -1, 19, 18, 17, 16, 15, 14, 13, 12, 11, 10, 9, 8, 7, 6, 5, 4, 3, 2, 1, 0, -1, 20, 21, 22, 23, 24, 25, 26, 27, 28, 29, 30, 31, 32, 33, 34, 35, 36, 37, 38, 39, -1 ] creaseAngle 0.6 solid TRUE } }
# tinned lead 2
Shape { appearance USE TIN geometry IndexedFaceSet { coord Coordinate { point [ 1.09252 0.00000 -1.37795, 1.08722 0.03346 -1.37795, 1.07184 0.06364 -1.37795, 1.04789 0.08759 -1.37795, 1.01771 0.10297 -1.37795, 0.98425 0.10827 -1.37795, 0.95080 0.10297 -1.37795, 0.92061 0.08759 -1.37795, 0.89666 0.06364 -1.37795, 0.88128 0.03346 -1.37795, 0.87598 0.00000 -1.37795, 0.88128 -0.03346 -1.37795, 0.89666 -0.06364 -1.37795, 0.92061 -0.08759 -1.37795, 0.95080 -0.10297 -1.37795, 0.98425 -0.10827 -1.37795, 1.01771 -0.10297 -1.37795, 1.04789 -0.08759 -1.37795, 1.07184 -0.06364 -1.37795, 1.08722 -0.03346 -1.37795, 1.09252 0.00000 0.13780, 1.08722 0.03346 0.13780, 1.07184 0.06364 0.13780, 1.04789 0.08759 0.13780, 1.01771 0.10297 0.13780, 0.98425 0.10827 0.13780, 0.95080 0.10297 0.13780, 0.92061 0.08759 0.13780, 0.89666 0.06364 0.13780, 0.88128 0.03346 0.13780, 0.87598 0.00000 0.13780, 0.88128 -0.03346 0.13780, 0.89666 -0.06364 0.13780, 0.92061 -0.08759 0.13780, 0.95080 -0.10297 0.13780, 0.98425 -0.10827 0.13780, 1.01771 -0.10297 0.13780, 1.04789 -0.08759 0.13780, 1.07184 -0.06364 0.13780, 1.08722 -0.03346 0.13780 ] } coordIndex [ 0, 1, 21, 20, -1, 1, 2, 22, 21, -1, 2, 3, 23, 22, -1, 3, 4, 24, 23, -1, 4, 5, 25, 24, -1, 5, 6, 26, 25, -1, 6, 7, 27, 26, -1, 7, 8, 28, 27, -1, 8, 9, 29, 28, -1, 9, 10, 30, 29, -1, 10, 11, 31, 30, -1, 11, 12, 32, 31, -1, 12, 13, 33, 32, -1, 13, 14, 34, 33, -1, 14, 15, 35, 34, -1, 15, 16, 36, 35, -1, 16, 17, 37, 36, -1, 17, 18, 38, 37, -1, 18, 19, 39, 38, -1, 19, 0, 20, 39, -1, 19, 18, 17, 16, 15, 14, 13, 12, 11, 10, 9, 8, 7, 6, 5, 4, 3, 2, 1, 0, -1, 20, 21, 22, 23, 24, 25, 26, 27, 28, 29, 30, 31, 32, 33, 34, 35, 36, 37, 38, 39, -1 ] creaseAngle 0.6 solid TRUE } }
