#VRML V2.0 utf8
DEF CASE Appearance { material Material { diffuseColor 0.025 0.32 0.67 specularColor 0.12 0.18 0.24 shininess 0.42 } }
DEF LID Appearance { material Material { diffuseColor 0.035 0.37 0.72 specularColor 0.12 0.19 0.27 shininess 0.45 } }
DEF SEAM Appearance { material Material { diffuseColor 0.012 0.19 0.43 specularColor 0.06 0.10 0.15 shininess 0.24 } }
DEF TIN Appearance { material Material { diffuseColor 0.68 0.71 0.73 specularColor 0.38 0.39 0.41 shininess 0.72 } }
# moulded blue case
Shape { appearance USE CASE geometry IndexedFaceSet { coord Coordinate { point [ 3.37795 2.19094 0.00000, 3.37775 2.19247 0.00000, 3.37716 2.19390 0.00000, 3.37622 2.19512 0.00000, 3.37500 2.19606 0.00000, 3.37358 2.19665 0.00000, 3.37205 2.19685 0.00000, -3.37205 2.19685 0.00000, -3.37358 2.19665 0.00000, -3.37500 2.19606 0.00000, -3.37622 2.19512 0.00000, -3.37716 2.19390 0.00000, -3.37775 2.19247 0.00000, -3.37795 2.19094 0.00000, -3.37795 -2.19094 0.00000, -3.37775 -2.19247 0.00000, -3.37716 -2.19390 0.00000, -3.37622 -2.19512 0.00000, -3.37500 -2.19606 0.00000, -3.37358 -2.19665 0.00000, -3.37205 -2.19685 0.00000, 3.37205 -2.19685 0.00000, 3.37358 -2.19665 0.00000, 3.37500 -2.19606 0.00000, 3.37622 -2.19512 0.00000, 3.37716 -2.19390 0.00000, 3.37775 -2.19247 0.00000, 3.37795 -2.19094 0.00000, 3.43583 2.19685 0.04134, 3.43385 2.21183 0.04134, 3.42807 2.22579 0.04134, 3.41888 2.23777 0.04134, 3.40689 2.24697 0.04134, 3.39293 2.25275 0.04134, 3.37795 2.25472 0.04134, -3.37795 2.25472 0.04134, -3.39293 2.25275 0.04134, -3.40689 2.24697 0.04134, -3.41888 2.23777 0.04134, -3.42807 2.22579 0.04134, -3.43385 2.21183 0.04134, -3.43583 2.19685 0.04134, -3.43583 -2.19685 0.04134, -3.43385 -2.21183 0.04134, -3.42807 -2.22579 0.04134, -3.41888 -2.23777 0.04134, -3.40689 -2.24697 0.04134, -3.39293 -2.25275 0.04134, -3.37795 -2.25472 0.04134, 3.37795 -2.25472 0.04134, 3.39293 -2.25275 0.04134, 3.40689 -2.24697 0.04134, 3.41888 -2.23777 0.04134, 3.42807 -2.22579 0.04134, 3.43385 -2.21183 0.04134, 3.43583 -2.19685 0.04134, 3.50197 2.19685 0.10748, 3.49774 2.22895 0.10748, 3.48535 2.25886 0.10748, 3.46565 2.28454 0.10748, 3.43996 2.30425 0.10748, 3.41005 2.31664 0.10748, 3.37795 2.32087 0.10748, -3.37795 2.32087 0.10748, -3.41005 2.31664 0.10748, -3.43996 2.30425 0.10748, -3.46565 2.28454 0.10748, -3.48535 2.25886 0.10748, -3.49774 2.22895 0.10748, -3.50197 2.19685 0.10748, -3.50197 -2.19685 0.10748, -3.49774 -2.22895 0.10748, -3.48535 -2.25886 0.10748, -3.46565 -2.28454 0.10748, -3.43996 -2.30425 0.10748, -3.41005 -2.31664 0.10748, -3.37795 -2.32087 0.10748, 3.37795 -2.32087 0.10748, 3.41005 -2.31664 0.10748, 3.43996 -2.30425 0.10748, 3.46565 -2.28454 0.10748, 3.48535 -2.25886 0.10748, 3.49774 -2.22895 0.10748, 3.50197 -2.19685 0.10748, 3.54331 2.19685 0.16535, 3.53767 2.23965 0.16535, 3.52115 2.27953 0.16535, 3.49488 2.31377 0.16535, 3.46063 2.34005 0.16535, 3.42075 2.35657 0.16535, 3.37795 2.36220 0.16535, -3.37795 2.36220 0.16535, -3.42075 2.35657 0.16535, -3.46063 2.34005 0.16535, -3.49488 2.31377 0.16535, -3.52115 2.27953 0.16535, -3.53767 2.23965 0.16535, -3.54331 2.19685 0.16535, -3.54331 -2.19685 0.16535, -3.53767 -2.23965 0.16535, -3.52115 -2.27953 0.16535, -3.49488 -2.31377 0.16535, -3.46063 -2.34005 0.16535, -3.42075 -2.35657 0.16535, -3.37795 -2.36220 0.16535, 3.37795 -2.36220 0.16535, 3.42075 -2.35657 0.16535, 3.46063 -2.34005 0.16535, 3.49488 -2.31377 0.16535, 3.52115 -2.27953 0.16535, 3.53767 -2.23965 0.16535, 3.54331 -2.19685 0.16535, 3.54331 2.19685 7.66236, 3.53767 2.23965 7.66236, 3.52115 2.27953 7.66236, 3.49488 2.31377 7.66236, 3.46063 2.34005 7.66236, 3.42075 2.35657 7.66236, 3.37795 2.36220 7.66236, -3.37795 2.36220 7.66236, -3.42075 2.35657 7.66236, -3.46063 2.34005 7.66236, -3.49488 2.31377 7.66236, -3.52115 2.27953 7.66236, -3.53767 2.23965 7.66236, -3.54331 2.19685 7.66236, -3.54331 -2.19685 7.66236, -3.53767 -2.23965 7.66236, -3.52115 -2.27953 7.66236, -3.49488 -2.31377 7.66236, -3.46063 -2.34005 7.66236, -3.42075 -2.35657 7.66236, -3.37795 -2.36220 7.66236, 3.37795 -2.36220 7.66236, 3.42075 -2.35657 7.66236, 3.46063 -2.34005 7.66236, 3.49488 -2.31377 7.66236, 3.52115 -2.27953 7.66236, 3.53767 -2.23965 7.66236, 3.54331 -2.19685 7.66236, 3.50197 2.19685 7.72024, 3.49774 2.22895 7.72024, 3.48535 2.25886 7.72024, 3.46565 2.28454 7.72024, 3.43996 2.30425 7.72024, 3.41005 2.31664 7.72024, 3.37795 2.32087 7.72024, -3.37795 2.32087 7.72024, -3.41005 2.31664 7.72024, -3.43996 2.30425 7.72024, -3.46565 2.28454 7.72024, -3.48535 2.25886 7.72024, -3.49774 2.22895 7.72024, -3.50197 2.19685 7.72024, -3.50197 -2.19685 7.72024, -3.49774 -2.22895 7.72024, -3.48535 -2.25886 7.72024, -3.46565 -2.28454 7.72024, -3.43996 -2.30425 7.72024, -3.41005 -2.31664 7.72024, -3.37795 -2.32087 7.72024, 3.37795 -2.32087 7.72024, 3.41005 -2.31664 7.72024, 3.43996 -2.30425 7.72024, 3.46565 -2.28454 7.72024, 3.48535 -2.25886 7.72024, 3.49774 -2.22895 7.72024, 3.50197 -2.19685 7.72024, 3.43583 2.19685 7.78638, 3.43385 2.21183 7.78638, 3.42807 2.22579 7.78638, 3.41888 2.23777 7.78638, 3.40689 2.24697 7.78638, 3.39293 2.25275 7.78638, 3.37795 2.25472 7.78638, -3.37795 2.25472 7.78638, -3.39293 2.25275 7.78638, -3.40689 2.24697 7.78638, -3.41888 2.23777 7.78638, -3.42807 2.22579 7.78638, -3.43385 2.21183 7.78638, -3.43583 2.19685 7.78638, -3.43583 -2.19685 7.78638, -3.43385 -2.21183 7.78638, -3.42807 -2.22579 7.78638, -3.41888 -2.23777 7.78638, -3.40689 -2.24697 7.78638, -3.39293 -2.25275 7.78638, -3.37795 -2.25472 7.78638, 3.37795 -2.25472 7.78638, 3.39293 -2.25275 7.78638, 3.40689 -2.24697 7.78638, 3.41888 -2.23777 7.78638, 3.42807 -2.22579 7.78638, 3.43385 -2.21183 7.78638, 3.43583 -2.19685 7.78638, 3.37795 2.19094 7.82772, 3.37775 2.19247 7.82772, 3.37716 2.19390 7.82772, 3.37622 2.19512 7.82772, 3.37500 2.19606 7.82772, 3.37358 2.19665 7.82772, 3.37205 2.19685 7.82772, -3.37205 2.19685 7.82772, -3.37358 2.19665 7.82772, -3.37500 2.19606 7.82772, -3.37622 2.19512 7.82772, -3.37716 2.19390 7.82772, -3.37775 2.19247 7.82772, -3.37795 2.19094 7.82772, -3.37795 -2.19094 7.82772, -3.37775 -2.19247 7.82772, -3.37716 -2.19390 7.82772, -3.37622 -2.19512 7.82772, -3.37500 -2.19606 7.82772, -3.37358 -2.19665 7.82772, -3.37205 -2.19685 7.82772, 3.37205 -2.19685 7.82772, 3.37358 -2.19665 7.82772, 3.37500 -2.19606 7.82772, 3.37622 -2.19512 7.82772, 3.37716 -2.19390 7.82772, 3.37775 -2.19247 7.82772, 3.37795 -2.19094 7.82772 ] } coordIndex [ 0, 1, 29, 28, -1, 1, 2, 30, 29, -1, 2, 3, 31, 30, -1, 3, 4, 32, 31, -1, 4, 5, 33, 32, -1, 5, 6, 34, 33, -1, 6, 7, 35, 34, -1, 7, 8, 36, 35, -1, 8, 9, 37, 36, -1, 9, 10, 38, 37, -1, 10, 11, 39, 38, -1, 11, 12, 40, 39, -1, 12, 13, 41, 40, -1, 13, 14, 42, 41, -1, 14, 15, 43, 42, -1, 15, 16, 44, 43, -1, 16, 17, 45, 44, -1, 17, 18, 46, 45, -1, 18, 19, 47, 46, -1, 19, 20, 48, 47, -1, 20, 21, 49, 48, -1, 21, 22, 50, 49, -1, 22, 23, 51, 50, -1, 23, 24, 52, 51, -1, 24, 25, 53, 52, -1, 25, 26, 54, 53, -1, 26, 27, 55, 54, -1, 27, 0, 28, 55, -1, 28, 29, 57, 56, -1, 29, 30, 58, 57, -1, 30, 31, 59, 58, -1, 31, 32, 60, 59, -1, 32, 33, 61, 60, -1, 33, 34, 62, 61, -1, 34, 35, 63, 62, -1, 35, 36, 64, 63, -1, 36, 37, 65, 64, -1, 37, 38, 66, 65, -1, 38, 39, 67, 66, -1, 39, 40, 68, 67, -1, 40, 41, 69, 68, -1, 41, 42, 70, 69, -1, 42, 43, 71, 70, -1, 43, 44, 72, 71, -1, 44, 45, 73, 72, -1, 45, 46, 74, 73, -1, 46, 47, 75, 74, -1, 47, 48, 76, 75, -1, 48, 49, 77, 76, -1, 49, 50, 78, 77, -1, 50, 51, 79, 78, -1, 51, 52, 80, 79, -1, 52, 53, 81, 80, -1, 53, 54, 82, 81, -1, 54, 55, 83, 82, -1, 55, 28, 56, 83, -1, 56, 57, 85, 84, -1, 57, 58, 86, 85, -1, 58, 59, 87, 86, -1, 59, 60, 88, 87, -1, 60, 61, 89, 88, -1, 61, 62, 90, 89, -1, 62, 63, 91, 90, -1, 63, 64, 92, 91, -1, 64, 65, 93, 92, -1, 65, 66, 94, 93, -1, 66, 67, 95, 94, -1, 67, 68, 96, 95, -1, 68, 69, 97, 96, -1, 69, 70, 98, 97, -1, 70, 71, 99, 98, -1, 71, 72, 100, 99, -1, 72, 73, 101, 100, -1, 73, 74, 102, 101, -1, 74, 75, 103, 102, -1, 75, 76, 104, 103, -1, 76, 77, 105, 104, -1, 77, 78, 106, 105, -1, 78, 79, 107, 106, -1, 79, 80, 108, 107, -1, 80, 81, 109, 108, -1, 81, 82, 110, 109, -1, 82, 83, 111, 110, -1, 83, 56, 84, 111, -1, 84, 85, 113, 112, -1, 85, 86, 114, 113, -1, 86, 87, 115, 114, -1, 87, 88, 116, 115, -1, 88, 89, 117, 116, -1, 89, 90, 118, 117, -1, 90, 91, 119, 118, -1, 91, 92, 120, 119, -1, 92, 93, 121, 120, -1, 93, 94, 122, 121, -1, 94, 95, 123, 122, -1, 95, 96, 124, 123, -1, 96, 97, 125, 124, -1, 97, 98, 126, 125, -1, 98, 99, 127, 126, -1, 99, 100, 128, 127, -1, 100, 101, 129, 128, -1, 101, 102, 130, 129, -1, 102, 103, 131, 130, -1, 103, 104, 132, 131, -1, 104, 105, 133, 132, -1, 105, 106, 134, 133, -1, 106, 107, 135, 134, -1, 107, 108, 136, 135, -1, 108, 109, 137, 136, -1, 109, 110, 138, 137, -1, 110, 111, 139, 138, -1, 111, 84, 112, 139, -1, 112, 113, 141, 140, -1, 113, 114, 142, 141, -1, 114, 115, 143, 142, -1, 115, 116, 144, 143, -1, 116, 117, 145, 144, -1, 117, 118, 146, 145, -1, 118, 119, 147, 146, -1, 119, 120, 148, 147, -1, 120, 121, 149, 148, -1, 121, 122, 150, 149, -1, 122, 123, 151, 150, -1, 123, 124, 152, 151, -1, 124, 125, 153, 152, -1, 125, 126, 154, 153, -1, 126, 127, 155, 154, -1, 127, 128, 156, 155, -1, 128, 129, 157, 156, -1, 129, 130, 158, 157, -1, 130, 131, 159, 158, -1, 131, 132, 160, 159, -1, 132, 133, 161, 160, -1, 133, 134, 162, 161, -1, 134, 135, 163, 162, -1, 135, 136, 164, 163, -1, 136, 137, 165, 164, -1, 137, 138, 166, 165, -1, 138, 139, 167, 166, -1, 139, 112, 140, 167, -1, 140, 141, 169, 168, -1, 141, 142, 170, 169, -1, 142, 143, 171, 170, -1, 143, 144, 172, 171, -1, 144, 145, 173, 172, -1, 145, 146, 174, 173, -1, 146, 147, 175, 174, -1, 147, 148, 176, 175, -1, 148, 149, 177, 176, -1, 149, 150, 178, 177, -1, 150, 151, 179, 178, -1, 151, 152, 180, 179, -1, 152, 153, 181, 180, -1, 153, 154, 182, 181, -1, 154, 155, 183, 182, -1, 155, 156, 184, 183, -1, 156, 157, 185, 184, -1, 157, 158, 186, 185, -1, 158, 159, 187, 186, -1, 159, 160, 188, 187, -1, 160, 161, 189, 188, -1, 161, 162, 190, 189, -1, 162, 163, 191, 190, -1, 163, 164, 192, 191, -1, 164, 165, 193, 192, -1, 165, 166, 194, 193, -1, 166, 167, 195, 194, -1, 167, 140, 168, 195, -1, 168, 169, 197, 196, -1, 169, 170, 198, 197, -1, 170, 171, 199, 198, -1, 171, 172, 200, 199, -1, 172, 173, 201, 200, -1, 173, 174, 202, 201, -1, 174, 175, 203, 202, -1, 175, 176, 204, 203, -1, 176, 177, 205, 204, -1, 177, 178, 206, 205, -1, 178, 179, 207, 206, -1, 179, 180, 208, 207, -1, 180, 181, 209, 208, -1, 181, 182, 210, 209, -1, 182, 183, 211, 210, -1, 183, 184, 212, 211, -1, 184, 185, 213, 212, -1, 185, 186, 214, 213, -1, 186, 187, 215, 214, -1, 187, 188, 216, 215, -1, 188, 189, 217, 216, -1, 189, 190, 218, 217, -1, 190, 191, 219, 218, -1, 191, 192, 220, 219, -1, 192, 193, 221, 220, -1, 193, 194, 222, 221, -1, 194, 195, 223, 222, -1, 195, 168, 196, 223, -1, 27, 26, 25, 24, 23, 22, 21, 20, 19, 18, 17, 16, 15, 14, 13, 12, 11, 10, 9, 8, 7, 6, 5, 4, 3, 2, 1, 0, -1, 196, 197, 198, 199, 200, 201, 202, 203, 204, 205, 206, 207, 208, 209, 210, 211, 212, 213, 214, 215, 216, 217, 218, 219, 220, 221, 222, 223, -1 ] creaseAngle 0.6 solid TRUE } }
# fine lid seam
Shape { appearance USE SEAM geometry IndexedFaceSet { coord Coordinate { point [ 3.50181 2.31480 7.76819, 3.50161 2.31633 7.76819, 3.50102 2.31776 7.76819, 3.50008 2.31898 7.76819, 3.49886 2.31992 7.76819, 3.49743 2.32051 7.76819, 3.49591 2.32071 7.76819, -3.49591 2.32071 7.76819, -3.49743 2.32051 7.76819, -3.49886 2.31992 7.76819, -3.50008 2.31898 7.76819, -3.50102 2.31776 7.76819, -3.50161 2.31633 7.76819, -3.50181 2.31480 7.76819, -3.50181 -2.31480 7.76819, -3.50161 -2.31633 7.76819, -3.50102 -2.31776 7.76819, -3.50008 -2.31898 7.76819, -3.49886 -2.31992 7.76819, -3.49743 -2.32051 7.76819, -3.49591 -2.32071 7.76819, 3.49591 -2.32071 7.76819, 3.49743 -2.32051 7.76819, 3.49886 -2.31992 7.76819, 3.50008 -2.31898 7.76819, 3.50102 -2.31776 7.76819, 3.50161 -2.31633 7.76819, 3.50181 -2.31480 7.76819, 3.50876 2.32071 7.77315, 3.50852 2.32251 7.77315, 3.50783 2.32418 7.77315, 3.50672 2.32562 7.77315, 3.50528 2.32672 7.77315, 3.50361 2.32742 7.77315, 3.50181 2.32765 7.77315, -3.50181 2.32765 7.77315, -3.50361 2.32742 7.77315, -3.50528 2.32672 7.77315, -3.50672 2.32562 7.77315, -3.50783 2.32418 7.77315, -3.50852 2.32251 7.77315, -3.50876 2.32071 7.77315, -3.50876 -2.32071 7.77315, -3.50852 -2.32251 7.77315, -3.50783 -2.32418 7.77315, -3.50672 -2.32562 7.77315, -3.50528 -2.32672 7.77315, -3.50361 -2.32742 7.77315, -3.50181 -2.32765 7.77315, 3.50181 -2.32765 7.77315, 3.50361 -2.32742 7.77315, 3.50528 -2.32672 7.77315, 3.50672 -2.32562 7.77315, 3.50783 -2.32418 7.77315, 3.50852 -2.32251 7.77315, 3.50876 -2.32071 7.77315, 3.51669 2.32071 7.78109, 3.51619 2.32456 7.78109, 3.51470 2.32815 7.78109, 3.51233 2.33123 7.78109, 3.50925 2.33360 7.78109, 3.50566 2.33508 7.78109, 3.50181 2.33559 7.78109, -3.50181 2.33559 7.78109, -3.50566 2.33508 7.78109, -3.50925 2.33360 7.78109, -3.51233 2.33123 7.78109, -3.51470 2.32815 7.78109, -3.51619 2.32456 7.78109, -3.51669 2.32071 7.78109, -3.51669 -2.32071 7.78109, -3.51619 -2.32456 7.78109, -3.51470 -2.32815 7.78109, -3.51233 -2.33123 7.78109, -3.50925 -2.33360 7.78109, -3.50566 -2.33508 7.78109, -3.50181 -2.33559 7.78109, 3.50181 -2.33559 7.78109, 3.50566 -2.33508 7.78109, 3.50925 -2.33360 7.78109, 3.51233 -2.33123 7.78109, 3.51470 -2.32815 7.78109, 3.51619 -2.32456 7.78109, 3.51669 -2.32071 7.78109, 3.52165 2.32071 7.78803, 3.52098 2.32584 7.78803, 3.51900 2.33063 7.78803, 3.51584 2.33474 7.78803, 3.51173 2.33789 7.78803, 3.50695 2.33988 7.78803, 3.50181 2.34055 7.78803, -3.50181 2.34055 7.78803, -3.50695 2.33988 7.78803, -3.51173 2.33789 7.78803, -3.51584 2.33474 7.78803, -3.51900 2.33063 7.78803, -3.52098 2.32584 7.78803, -3.52165 2.32071 7.78803, -3.52165 -2.32071 7.78803, -3.52098 -2.32584 7.78803, -3.51900 -2.33063 7.78803, -3.51584 -2.33474 7.78803, -3.51173 -2.33789 7.78803, -3.50695 -2.33988 7.78803, -3.50181 -2.34055 7.78803, 3.50181 -2.34055 7.78803, 3.50695 -2.33988 7.78803, 3.51173 -2.33789 7.78803, 3.51584 -2.33474 7.78803, 3.51900 -2.33063 7.78803, 3.52098 -2.32584 7.78803, 3.52165 -2.32071 7.78803, 3.52165 2.32071 7.79795, 3.52098 2.32584 7.79795, 3.51900 2.33063 7.79795, 3.51584 2.33474 7.79795, 3.51173 2.33789 7.79795, 3.50695 2.33988 7.79795, 3.50181 2.34055 7.79795, -3.50181 2.34055 7.79795, -3.50695 2.33988 7.79795, -3.51173 2.33789 7.79795, -3.51584 2.33474 7.79795, -3.51900 2.33063 7.79795, -3.52098 2.32584 7.79795, -3.52165 2.32071 7.79795, -3.52165 -2.32071 7.79795, -3.52098 -2.32584 7.79795, -3.51900 -2.33063 7.79795, -3.51584 -2.33474 7.79795, -3.51173 -2.33789 7.79795, -3.50695 -2.33988 7.79795, -3.50181 -2.34055 7.79795, 3.50181 -2.34055 7.79795, 3.50695 -2.33988 7.79795, 3.51173 -2.33789 7.79795, 3.51584 -2.33474 7.79795, 3.51900 -2.33063 7.79795, 3.52098 -2.32584 7.79795, 3.52165 -2.32071 7.79795, 3.51669 2.32071 7.80490, 3.51619 2.32456 7.80490, 3.51470 2.32815 7.80490, 3.51233 2.33123 7.80490, 3.50925 2.33360 7.80490, 3.50566 2.33508 7.80490, 3.50181 2.33559 7.80490, -3.50181 2.33559 7.80490, -3.50566 2.33508 7.80490, -3.50925 2.33360 7.80490, -3.51233 2.33123 7.80490, -3.51470 2.32815 7.80490, -3.51619 2.32456 7.80490, -3.51669 2.32071 7.80490, -3.51669 -2.32071 7.80490, -3.51619 -2.32456 7.80490, -3.51470 -2.32815 7.80490, -3.51233 -2.33123 7.80490, -3.50925 -2.33360 7.80490, -3.50566 -2.33508 7.80490, -3.50181 -2.33559 7.80490, 3.50181 -2.33559 7.80490, 3.50566 -2.33508 7.80490, 3.50925 -2.33360 7.80490, 3.51233 -2.33123 7.80490, 3.51470 -2.32815 7.80490, 3.51619 -2.32456 7.80490, 3.51669 -2.32071 7.80490, 3.50876 2.32071 7.81283, 3.50852 2.32251 7.81283, 3.50783 2.32418 7.81283, 3.50672 2.32562 7.81283, 3.50528 2.32672 7.81283, 3.50361 2.32742 7.81283, 3.50181 2.32765 7.81283, -3.50181 2.32765 7.81283, -3.50361 2.32742 7.81283, -3.50528 2.32672 7.81283, -3.50672 2.32562 7.81283, -3.50783 2.32418 7.81283, -3.50852 2.32251 7.81283, -3.50876 2.32071 7.81283, -3.50876 -2.32071 7.81283, -3.50852 -2.32251 7.81283, -3.50783 -2.32418 7.81283, -3.50672 -2.32562 7.81283, -3.50528 -2.32672 7.81283, -3.50361 -2.32742 7.81283, -3.50181 -2.32765 7.81283, 3.50181 -2.32765 7.81283, 3.50361 -2.32742 7.81283, 3.50528 -2.32672 7.81283, 3.50672 -2.32562 7.81283, 3.50783 -2.32418 7.81283, 3.50852 -2.32251 7.81283, 3.50876 -2.32071 7.81283, 3.50181 2.31480 7.81780, 3.50161 2.31633 7.81780, 3.50102 2.31776 7.81780, 3.50008 2.31898 7.81780, 3.49886 2.31992 7.81780, 3.49743 2.32051 7.81780, 3.49591 2.32071 7.81780, -3.49591 2.32071 7.81780, -3.49743 2.32051 7.81780, -3.49886 2.31992 7.81780, -3.50008 2.31898 7.81780, -3.50102 2.31776 7.81780, -3.50161 2.31633 7.81780, -3.50181 2.31480 7.81780, -3.50181 -2.31480 7.81780, -3.50161 -2.31633 7.81780, -3.50102 -2.31776 7.81780, -3.50008 -2.31898 7.81780, -3.49886 -2.31992 7.81780, -3.49743 -2.32051 7.81780, -3.49591 -2.32071 7.81780, 3.49591 -2.32071 7.81780, 3.49743 -2.32051 7.81780, 3.49886 -2.31992 7.81780, 3.50008 -2.31898 7.81780, 3.50102 -2.31776 7.81780, 3.50161 -2.31633 7.81780, 3.50181 -2.31480 7.81780 ] } coordIndex [ 0, 1, 29, 28, -1, 1, 2, 30, 29, -1, 2, 3, 31, 30, -1, 3, 4, 32, 31, -1, 4, 5, 33, 32, -1, 5, 6, 34, 33, -1, 6, 7, 35, 34, -1, 7, 8, 36, 35, -1, 8, 9, 37, 36, -1, 9, 10, 38, 37, -1, 10, 11, 39, 38, -1, 11, 12, 40, 39, -1, 12, 13, 41, 40, -1, 13, 14, 42, 41, -1, 14, 15, 43, 42, -1, 15, 16, 44, 43, -1, 16, 17, 45, 44, -1, 17, 18, 46, 45, -1, 18, 19, 47, 46, -1, 19, 20, 48, 47, -1, 20, 21, 49, 48, -1, 21, 22, 50, 49, -1, 22, 23, 51, 50, -1, 23, 24, 52, 51, -1, 24, 25, 53, 52, -1, 25, 26, 54, 53, -1, 26, 27, 55, 54, -1, 27, 0, 28, 55, -1, 28, 29, 57, 56, -1, 29, 30, 58, 57, -1, 30, 31, 59, 58, -1, 31, 32, 60, 59, -1, 32, 33, 61, 60, -1, 33, 34, 62, 61, -1, 34, 35, 63, 62, -1, 35, 36, 64, 63, -1, 36, 37, 65, 64, -1, 37, 38, 66, 65, -1, 38, 39, 67, 66, -1, 39, 40, 68, 67, -1, 40, 41, 69, 68, -1, 41, 42, 70, 69, -1, 42, 43, 71, 70, -1, 43, 44, 72, 71, -1, 44, 45, 73, 72, -1, 45, 46, 74, 73, -1, 46, 47, 75, 74, -1, 47, 48, 76, 75, -1, 48, 49, 77, 76, -1, 49, 50, 78, 77, -1, 50, 51, 79, 78, -1, 51, 52, 80, 79, -1, 52, 53, 81, 80, -1, 53, 54, 82, 81, -1, 54, 55, 83, 82, -1, 55, 28, 56, 83, -1, 56, 57, 85, 84, -1, 57, 58, 86, 85, -1, 58, 59, 87, 86, -1, 59, 60, 88, 87, -1, 60, 61, 89, 88, -1, 61, 62, 90, 89, -1, 62, 63, 91, 90, -1, 63, 64, 92, 91, -1, 64, 65, 93, 92, -1, 65, 66, 94, 93, -1, 66, 67, 95, 94, -1, 67, 68, 96, 95, -1, 68, 69, 97, 96, -1, 69, 70, 98, 97, -1, 70, 71, 99, 98, -1, 71, 72, 100, 99, -1, 72, 73, 101, 100, -1, 73, 74, 102, 101, -1, 74, 75, 103, 102, -1, 75, 76, 104, 103, -1, 76, 77, 105, 104, -1, 77, 78, 106, 105, -1, 78, 79, 107, 106, -1, 79, 80, 108, 107, -1, 80, 81, 109, 108, -1, 81, 82, 110, 109, -1, 82, 83, 111, 110, -1, 83, 56, 84, 111, -1, 84, 85, 113, 112, -1, 85, 86, 114, 113, -1, 86, 87, 115, 114, -1, 87, 88, 116, 115, -1, 88, 89, 117, 116, -1, 89, 90, 118, 117, -1, 90, 91, 119, 118, -1, 91, 92, 120, 119, -1, 92, 93, 121, 120, -1, 93, 94, 122, 121, -1, 94, 95, 123, 122, -1, 95, 96, 124, 123, -1, 96, 97, 125, 124, -1, 97, 98, 126, 125, -1, 98, 99, 127, 126, -1, 99, 100, 128, 127, -1, 100, 101, 129, 128, -1, 101, 102, 130, 129, -1, 102, 103, 131, 130, -1, 103, 104, 132, 131, -1, 104, 105, 133, 132, -1, 105, 106, 134, 133, -1, 106, 107, 135, 134, -1, 107, 108, 136, 135, -1, 108, 109, 137, 136, -1, 109, 110, 138, 137, -1, 110, 111, 139, 138, -1, 111, 84, 112, 139, -1, 112, 113, 141, 140, -1, 113, 114, 142, 141, -1, 114, 115, 143, 142, -1, 115, 116, 144, 143, -1, 116, 117, 145, 144, -1, 117, 118, 146, 145, -1, 118, 119, 147, 146, -1, 119, 120, 148, 147, -1, 120, 121, 149, 148, -1, 121, 122, 150, 149, -1, 122, 123, 151, 150, -1, 123, 124, 152, 151, -1, 124, 125, 153, 152, -1, 125, 126, 154, 153, -1, 126, 127, 155, 154, -1, 127, 128, 156, 155, -1, 128, 129, 157, 156, -1, 129, 130, 158, 157, -1, 130, 131, 159, 158, -1, 131, 132, 160, 159, -1, 132, 133, 161, 160, -1, 133, 134, 162, 161, -1, 134, 135, 163, 162, -1, 135, 136, 164, 163, -1, 136, 137, 165, 164, -1, 137, 138, 166, 165, -1, 138, 139, 167, 166, -1, 139, 112, 140, 167, -1, 140, 141, 169, 168, -1, 141, 142, 170, 169, -1, 142, 143, 171, 170, -1, 143, 144, 172, 171, -1, 144, 145, 173, 172, -1, 145, 146, 174, 173, -1, 146, 147, 175, 174, -1, 147, 148, 176, 175, -1, 148, 149, 177, 176, -1, 149, 150, 178, 177, -1, 150, 151, 179, 178, -1, 151, 152, 180, 179, -1, 152, 153, 181, 180, -1, 153, 154, 182, 181, -1, 154, 155, 183, 182, -1, 155, 156, 184, 183, -1, 156, 157, 185, 184, -1, 157, 158, 186, 185, -1, 158, 159, 187, 186, -1, 159, 160, 188, 187, -1, 160, 161, 189, 188, -1, 161, 162, 190, 189, -1, 162, 163, 191, 190, -1, 163, 164, 192, 191, -1, 164, 165, 193, 192, -1, 165, 166, 194, 193, -1, 166, 167, 195, 194, -1, 167, 140, 168, 195, -1, 168, 169, 197, 196, -1, 169, 170, 198, 197, -1, 170, 171, 199, 198, -1, 171, 172, 200, 199, -1, 172, 173, 201, 200, -1, 173, 174, 202, 201, -1, 174, 175, 203, 202, -1, 175, 176, 204, 203, -1, 176, 177, 205, 204, -1, 177, 178, 206, 205, -1, 178, 179, 207, 206, -1, 179, 180, 208, 207, -1, 180, 181, 209, 208, -1, 181, 182, 210, 209, -1, 182, 183, 211, 210, -1, 183, 184, 212, 211, -1, 184, 185, 213, 212, -1, 185, 186, 214, 213, -1, 186, 187, 215, 214, -1, 187, 188, 216, 215, -1, 188, 189, 217, 216, -1, 189, 190, 218, 217, -1, 190, 191, 219, 218, -1, 191, 192, 220, 219, -1, 192, 193, 221, 220, -1, 193, 194, 222, 221, -1, 194, 195, 223, 222, -1, 195, 168, 196, 223, -1, 27, 26, 25, 24, 23, 22, 21, 20, 19, 18, 17, 16, 15, 14, 13, 12, 11, 10, 9, 8, 7, 6, 5, 4, 3, 2, 1, 0, -1, 196, 197, 198, 199, 200, 201, 202, 203, 204, 205, 206, 207, 208, 209, 210, 211, 212, 213, 214, 215, 216, 217, 218, 219, 220, 221, 222, 223, -1 ] creaseAngle 0.6 solid TRUE } }
# integral rounded lid
Shape { appearance USE LID geometry IndexedFaceSet { coord Coordinate { point [ 3.49644 2.30943 7.78638, 3.49624 2.31096 7.78638, 3.49565 2.31239 7.78638, 3.49471 2.31361 7.78638, 3.49349 2.31455 7.78638, 3.49206 2.31514 7.78638, 3.49054 2.31534 7.78638, -3.49054 2.31534 7.78638, -3.49206 2.31514 7.78638, -3.49349 2.31455 7.78638, -3.49471 2.31361 7.78638, -3.49565 2.31239 7.78638, -3.49624 2.31096 7.78638, -3.49644 2.30943 7.78638, -3.49644 -2.30943 7.78638, -3.49624 -2.31096 7.78638, -3.49565 -2.31239 7.78638, -3.49471 -2.31361 7.78638, -3.49349 -2.31455 7.78638, -3.49206 -2.31514 7.78638, -3.49054 -2.31534 7.78638, 3.49054 -2.31534 7.78638, 3.49206 -2.31514 7.78638, 3.49349 -2.31455 7.78638, 3.49471 -2.31361 7.78638, 3.49565 -2.31239 7.78638, 3.49624 -2.31096 7.78638, 3.49644 -2.30943 7.78638, 3.50871 2.31534 7.79514, 3.50829 2.31851 7.79514, 3.50707 2.32147 7.79514, 3.50512 2.32401 7.79514, 3.50258 2.32596 7.79514, 3.49962 2.32719 7.79514, 3.49644 2.32761 7.79514, -3.49644 2.32761 7.79514, -3.49962 2.32719 7.79514, -3.50258 2.32596 7.79514, -3.50512 2.32401 7.79514, -3.50707 2.32147 7.79514, -3.50829 2.31851 7.79514, -3.50871 2.31534 7.79514, -3.50871 -2.31534 7.79514, -3.50829 -2.31851 7.79514, -3.50707 -2.32147 7.79514, -3.50512 -2.32401 7.79514, -3.50258 -2.32596 7.79514, -3.49962 -2.32719 7.79514, -3.49644 -2.32761 7.79514, 3.49644 -2.32761 7.79514, 3.49962 -2.32719 7.79514, 3.50258 -2.32596 7.79514, 3.50512 -2.32401 7.79514, 3.50707 -2.32147 7.79514, 3.50829 -2.31851 7.79514, 3.50871 -2.31534 7.79514, 3.52273 2.31534 7.80916, 3.52184 2.32214 7.80916, 3.51921 2.32848 7.80916, 3.51503 2.33393 7.80916, 3.50959 2.33811 7.80916, 3.50325 2.34073 7.80916, 3.49644 2.34163 7.80916, -3.49644 2.34163 7.80916, -3.50325 2.34073 7.80916, -3.50959 2.33811 7.80916, -3.51503 2.33393 7.80916, -3.51921 2.32848 7.80916, -3.52184 2.32214 7.80916, -3.52273 2.31534 7.80916, -3.52273 -2.31534 7.80916, -3.52184 -2.32214 7.80916, -3.51921 -2.32848 7.80916, -3.51503 -2.33393 7.80916, -3.50959 -2.33811 7.80916, -3.50325 -2.34073 7.80916, -3.49644 -2.34163 7.80916, 3.49644 -2.34163 7.80916, 3.50325 -2.34073 7.80916, 3.50959 -2.33811 7.80916, 3.51503 -2.33393 7.80916, 3.51921 -2.32848 7.80916, 3.52184 -2.32214 7.80916, 3.52273 -2.31534 7.80916, 3.53150 2.31534 7.82143, 3.53030 2.32441 7.82143, 3.52680 2.33287 7.82143, 3.52123 2.34013 7.82143, 3.51397 2.34570 7.82143, 3.50551 2.34920 7.82143, 3.49644 2.35039 7.82143, -3.49644 2.35039 7.82143, -3.50551 2.34920 7.82143, -3.51397 2.34570 7.82143, -3.52123 2.34013 7.82143, -3.52680 2.33287 7.82143, -3.53030 2.32441 7.82143, -3.53150 2.31534 7.82143, -3.53150 -2.31534 7.82143, -3.53030 -2.32441 7.82143, -3.52680 -2.33287 7.82143, -3.52123 -2.34013 7.82143, -3.51397 -2.34570 7.82143, -3.50551 -2.34920 7.82143, -3.49644 -2.35039 7.82143, 3.49644 -2.35039 7.82143, 3.50551 -2.34920 7.82143, 3.51397 -2.34570 7.82143, 3.52123 -2.34013 7.82143, 3.52680 -2.33287 7.82143, 3.53030 -2.32441 7.82143, 3.53150 -2.31534 7.82143, 3.53150 2.31534 7.83896, 3.53030 2.32441 7.83896, 3.52680 2.33287 7.83896, 3.52123 2.34013 7.83896, 3.51397 2.34570 7.83896, 3.50551 2.34920 7.83896, 3.49644 2.35039 7.83896, -3.49644 2.35039 7.83896, -3.50551 2.34920 7.83896, -3.51397 2.34570 7.83896, -3.52123 2.34013 7.83896, -3.52680 2.33287 7.83896, -3.53030 2.32441 7.83896, -3.53150 2.31534 7.83896, -3.53150 -2.31534 7.83896, -3.53030 -2.32441 7.83896, -3.52680 -2.33287 7.83896, -3.52123 -2.34013 7.83896, -3.51397 -2.34570 7.83896, -3.50551 -2.34920 7.83896, -3.49644 -2.35039 7.83896, 3.49644 -2.35039 7.83896, 3.50551 -2.34920 7.83896, 3.51397 -2.34570 7.83896, 3.52123 -2.34013 7.83896, 3.52680 -2.33287 7.83896, 3.53030 -2.32441 7.83896, 3.53150 -2.31534 7.83896, 3.52273 2.31534 7.85123, 3.52184 2.32214 7.85123, 3.51921 2.32848 7.85123, 3.51503 2.33393 7.85123, 3.50959 2.33811 7.85123, 3.50325 2.34073 7.85123, 3.49644 2.34163 7.85123, -3.49644 2.34163 7.85123, -3.50325 2.34073 7.85123, -3.50959 2.33811 7.85123, -3.51503 2.33393 7.85123, -3.51921 2.32848 7.85123, -3.52184 2.32214 7.85123, -3.52273 2.31534 7.85123, -3.52273 -2.31534 7.85123, -3.52184 -2.32214 7.85123, -3.51921 -2.32848 7.85123, -3.51503 -2.33393 7.85123, -3.50959 -2.33811 7.85123, -3.50325 -2.34073 7.85123, -3.49644 -2.34163 7.85123, 3.49644 -2.34163 7.85123, 3.50325 -2.34073 7.85123, 3.50959 -2.33811 7.85123, 3.51503 -2.33393 7.85123, 3.51921 -2.32848 7.85123, 3.52184 -2.32214 7.85123, 3.52273 -2.31534 7.85123, 3.50871 2.31534 7.86525, 3.50829 2.31851 7.86525, 3.50707 2.32147 7.86525, 3.50512 2.32401 7.86525, 3.50258 2.32596 7.86525, 3.49962 2.32719 7.86525, 3.49644 2.32761 7.86525, -3.49644 2.32761 7.86525, -3.49962 2.32719 7.86525, -3.50258 2.32596 7.86525, -3.50512 2.32401 7.86525, -3.50707 2.32147 7.86525, -3.50829 2.31851 7.86525, -3.50871 2.31534 7.86525, -3.50871 -2.31534 7.86525, -3.50829 -2.31851 7.86525, -3.50707 -2.32147 7.86525, -3.50512 -2.32401 7.86525, -3.50258 -2.32596 7.86525, -3.49962 -2.32719 7.86525, -3.49644 -2.32761 7.86525, 3.49644 -2.32761 7.86525, 3.49962 -2.32719 7.86525, 3.50258 -2.32596 7.86525, 3.50512 -2.32401 7.86525, 3.50707 -2.32147 7.86525, 3.50829 -2.31851 7.86525, 3.50871 -2.31534 7.86525, 3.49644 2.30943 7.87402, 3.49624 2.31096 7.87402, 3.49565 2.31239 7.87402, 3.49471 2.31361 7.87402, 3.49349 2.31455 7.87402, 3.49206 2.31514 7.87402, 3.49054 2.31534 7.87402, -3.49054 2.31534 7.87402, -3.49206 2.31514 7.87402, -3.49349 2.31455 7.87402, -3.49471 2.31361 7.87402, -3.49565 2.31239 7.87402, -3.49624 2.31096 7.87402, -3.49644 2.30943 7.87402, -3.49644 -2.30943 7.87402, -3.49624 -2.31096 7.87402, -3.49565 -2.31239 7.87402, -3.49471 -2.31361 7.87402, -3.49349 -2.31455 7.87402, -3.49206 -2.31514 7.87402, -3.49054 -2.31534 7.87402, 3.49054 -2.31534 7.87402, 3.49206 -2.31514 7.87402, 3.49349 -2.31455 7.87402, 3.49471 -2.31361 7.87402, 3.49565 -2.31239 7.87402, 3.49624 -2.31096 7.87402, 3.49644 -2.30943 7.87402 ] } coordIndex [ 0, 1, 29, 28, -1, 1, 2, 30, 29, -1, 2, 3, 31, 30, -1, 3, 4, 32, 31, -1, 4, 5, 33, 32, -1, 5, 6, 34, 33, -1, 6, 7, 35, 34, -1, 7, 8, 36, 35, -1, 8, 9, 37, 36, -1, 9, 10, 38, 37, -1, 10, 11, 39, 38, -1, 11, 12, 40, 39, -1, 12, 13, 41, 40, -1, 13, 14, 42, 41, -1, 14, 15, 43, 42, -1, 15, 16, 44, 43, -1, 16, 17, 45, 44, -1, 17, 18, 46, 45, -1, 18, 19, 47, 46, -1, 19, 20, 48, 47, -1, 20, 21, 49, 48, -1, 21, 22, 50, 49, -1, 22, 23, 51, 50, -1, 23, 24, 52, 51, -1, 24, 25, 53, 52, -1, 25, 26, 54, 53, -1, 26, 27, 55, 54, -1, 27, 0, 28, 55, -1, 28, 29, 57, 56, -1, 29, 30, 58, 57, -1, 30, 31, 59, 58, -1, 31, 32, 60, 59, -1, 32, 33, 61, 60, -1, 33, 34, 62, 61, -1, 34, 35, 63, 62, -1, 35, 36, 64, 63, -1, 36, 37, 65, 64, -1, 37, 38, 66, 65, -1, 38, 39, 67, 66, -1, 39, 40, 68, 67, -1, 40, 41, 69, 68, -1, 41, 42, 70, 69, -1, 42, 43, 71, 70, -1, 43, 44, 72, 71, -1, 44, 45, 73, 72, -1, 45, 46, 74, 73, -1, 46, 47, 75, 74, -1, 47, 48, 76, 75, -1, 48, 49, 77, 76, -1, 49, 50, 78, 77, -1, 50, 51, 79, 78, -1, 51, 52, 80, 79, -1, 52, 53, 81, 80, -1, 53, 54, 82, 81, -1, 54, 55, 83, 82, -1, 55, 28, 56, 83, -1, 56, 57, 85, 84, -1, 57, 58, 86, 85, -1, 58, 59, 87, 86, -1, 59, 60, 88, 87, -1, 60, 61, 89, 88, -1, 61, 62, 90, 89, -1, 62, 63, 91, 90, -1, 63, 64, 92, 91, -1, 64, 65, 93, 92, -1, 65, 66, 94, 93, -1, 66, 67, 95, 94, -1, 67, 68, 96, 95, -1, 68, 69, 97, 96, -1, 69, 70, 98, 97, -1, 70, 71, 99, 98, -1, 71, 72, 100, 99, -1, 72, 73, 101, 100, -1, 73, 74, 102, 101, -1, 74, 75, 103, 102, -1, 75, 76, 104, 103, -1, 76, 77, 105, 104, -1, 77, 78, 106, 105, -1, 78, 79, 107, 106, -1, 79, 80, 108, 107, -1, 80, 81, 109, 108, -1, 81, 82, 110, 109, -1, 82, 83, 111, 110, -1, 83, 56, 84, 111, -1, 84, 85, 113, 112, -1, 85, 86, 114, 113, -1, 86, 87, 115, 114, -1, 87, 88, 116, 115, -1, 88, 89, 117, 116, -1, 89, 90, 118, 117, -1, 90, 91, 119, 118, -1, 91, 92, 120, 119, -1, 92, 93, 121, 120, -1, 93, 94, 122, 121, -1, 94, 95, 123, 122, -1, 95, 96, 124, 123, -1, 96, 97, 125, 124, -1, 97, 98, 126, 125, -1, 98, 99, 127, 126, -1, 99, 100, 128, 127, -1, 100, 101, 129, 128, -1, 101, 102, 130, 129, -1, 102, 103, 131, 130, -1, 103, 104, 132, 131, -1, 104, 105, 133, 132, -1, 105, 106, 134, 133, -1, 106, 107, 135, 134, -1, 107, 108, 136, 135, -1, 108, 109, 137, 136, -1, 109, 110, 138, 137, -1, 110, 111, 139, 138, -1, 111, 84, 112, 139, -1, 112, 113, 141, 140, -1, 113, 114, 142, 141, -1, 114, 115, 143, 142, -1, 115, 116, 144, 143, -1, 116, 117, 145, 144, -1, 117, 118, 146, 145, -1, 118, 119, 147, 146, -1, 119, 120, 148, 147, -1, 120, 121, 149, 148, -1, 121, 122, 150, 149, -1, 122, 123, 151, 150, -1, 123, 124, 152, 151, -1, 124, 125, 153, 152, -1, 125, 126, 154, 153, -1, 126, 127, 155, 154, -1, 127, 128, 156, 155, -1, 128, 129, 157, 156, -1, 129, 130, 158, 157, -1, 130, 131, 159, 158, -1, 131, 132, 160, 159, -1, 132, 133, 161, 160, -1, 133, 134, 162, 161, -1, 134, 135, 163, 162, -1, 135, 136, 164, 163, -1, 136, 137, 165, 164, -1, 137, 138, 166, 165, -1, 138, 139, 167, 166, -1, 139, 112, 140, 167, -1, 140, 141, 169, 168, -1, 141, 142, 170, 169, -1, 142, 143, 171, 170, -1, 143, 144, 172, 171, -1, 144, 145, 173, 172, -1, 145, 146, 174, 173, -1, 146, 147, 175, 174, -1, 147, 148, 176, 175, -1, 148, 149, 177, 176, -1, 149, 150, 178, 177, -1, 150, 151, 179, 178, -1, 151, 152, 180, 179, -1, 152, 153, 181, 180, -1, 153, 154, 182, 181, -1, 154, 155, 183, 182, -1, 155, 156, 184, 183, -1, 156, 157, 185, 184, -1, 157, 158, 186, 185, -1, 158, 159, 187, 186, -1, 159, 160, 188, 187, -1, 160, 161, 189, 188, -1, 161, 162, 190, 189, -1, 162, 163, 191, 190, -1, 163, 164, 192, 191, -1, 164, 165, 193, 192, -1, 165, 166, 194, 193, -1, 166, 167, 195, 194, -1, 167, 140, 168, 195, -1, 168, 169, 197, 196, -1, 169, 170, 198, 197, -1, 170, 171, 199, 198, -1, 171, 172, 200, 199, -1, 172, 173, 201, 200, -1, 173, 174, 202, 201, -1, 174, 175, 203, 202, -1, 175, 176, 204, 203, -1, 176, 177, 205, 204, -1, 177, 178, 206, 205, -1, 178, 179, 207, 206, -1, 179, 180, 208, 207, -1, 180, 181, 209, 208, -1, 181, 182, 210, 209, -1, 182, 183, 211, 210, -1, 183, 184, 212, 211, -1, 184, 185, 213, 212, -1, 185, 186, 214, 213, -1, 186, 187, 215, 214, -1, 187, 188, 216, 215, -1, 188, 189, 217, 216, -1, 189, 190, 218, 217, -1, 190, 191, 219, 218, -1, 191, 192, 220, 219, -1, 192, 193, 221, 220, -1, 193, 194, 222, 221, -1, 194, 195, 223, 222, -1, 195, 168, 196, 223, -1, 27, 26, 25, 24, 23, 22, 21, 20, 19, 18, 17, 16, 15, 14, 13, 12, 11, 10, 9, 8, 7, 6, 5, 4, 3, 2, 1, 0, -1, 196, 197, 198, 199, 200, 201, 202, 203, 204, 205, 206, 207, 208, 209, 210, 211, 212, 213, 214, 215, 216, 217, 218, 219, 220, 221, 222, 223, -1 ] creaseAngle 0.6 solid TRUE } }
# tinned lead 1
Shape { appearance USE TIN geometry IndexedFaceSet { coord Coordinate { point [ -2.80512 0.00000 -1.37795, -2.81234 0.04562 -1.37795, -2.83331 0.08678 -1.37795, -2.86598 0.11944 -1.37795, -2.90713 0.14041 -1.37795, -2.95276 0.14764 -1.37795, -2.99838 0.14041 -1.37795, -3.03954 0.11944 -1.37795, -3.07220 0.08678 -1.37795, -3.09317 0.04562 -1.37795, -3.10039 0.00000 -1.37795, -3.09317 -0.04562 -1.37795, -3.07220 -0.08678 -1.37795, -3.03954 -0.11944 -1.37795, -2.99838 -0.14041 -1.37795, -2.95276 -0.14764 -1.37795, -2.90713 -0.14041 -1.37795, -2.86598 -0.11944 -1.37795, -2.83331 -0.08678 -1.37795, -2.81234 -0.04562 -1.37795, -2.80512 0.00000 0.13780, -2.81234 0.04562 0.13780, -2.83331 0.08678 0.13780, -2.86598 0.11944 0.13780, -2.90713 0.14041 0.13780, -2.95276 0.14764 0.13780, -2.99838 0.14041 0.13780, -3.03954 0.11944 0.13780, -3.07220 0.08678 0.13780, -3.09317 0.04562 0.13780, -3.10039 0.00000 0.13780, -3.09317 -0.04562 0.13780, -3.07220 -0.08678 0.13780, -3.03954 -0.11944 0.13780, -2.99838 -0.14041 0.13780, -2.95276 -0.14764 0.13780, -2.90713 -0.14041 0.13780, -2.86598 -0.11944 0.13780, -2.83331 -0.08678 0.13780, -2.81234 -0.04562 0.13780 ] } coordIndex [ 0, 1, 21, 20, -1, 1, 2, 22, 21, -1, 2, 3, 23, 22, -1, 3, 4, 24, 23, -1, 4, 5, 25, 24, -1, 5, 6, 26, 25, -1, 6, 7, 27, 26, -1, 7, 8, 28, 27, -1, 8, 9, 29, 28, -1, 9, 10, 30, 29, -1, 10, 11, 31, 30, -1, 11, 12, 32, 31, -1, 12, 13, 33, 32, -1, 13, 14, 34, 33, -1, 14, 15, 35, 34, -1, 15, 16, 36, 35, -1, 16, 17, 37, 36, -1, 17, 18, 38, 37, -1, 18, 19, 39, 38, -1, 19, 0, 20, 39, -1, 19, 18, 17, 16, 15, 14, 13, 12, 11, 10, 9, 8, 7, 6, 5, 4, 3, 2, 1, 0, -1, 20, 21, 22, 23, 24, 25, 26, 27, 28, 29, 30, 31, 32, 33, 34, 35, 36, 37, 38, 39, -1 ] creaseAngle 0.6 solid TRUE } }
# tinned lead 2
Shape { appearance USE TIN geometry IndexedFaceSet { coord Coordinate { point [ 3.10039 0.00000 -1.37795, 3.09317 0.04562 -1.37795, 3.07220 0.08678 -1.37795, 3.03954 0.11944 -1.37795, 2.99838 0.14041 -1.37795, 2.95276 0.14764 -1.37795, 2.90713 0.14041 -1.37795, 2.86598 0.11944 -1.37795, 2.83331 0.08678 -1.37795, 2.81234 0.04562 -1.37795, 2.80512 0.00000 -1.37795, 2.81234 -0.04562 -1.37795, 2.83331 -0.08678 -1.37795, 2.86598 -0.11944 -1.37795, 2.90713 -0.14041 -1.37795, 2.95276 -0.14764 -1.37795, 2.99838 -0.14041 -1.37795, 3.03954 -0.11944 -1.37795, 3.07220 -0.08678 -1.37795, 3.09317 -0.04562 -1.37795, 3.10039 0.00000 0.13780, 3.09317 0.04562 0.13780, 3.07220 0.08678 0.13780, 3.03954 0.11944 0.13780, 2.99838 0.14041 0.13780, 2.95276 0.14764 0.13780, 2.90713 0.14041 0.13780, 2.86598 0.11944 0.13780, 2.83331 0.08678 0.13780, 2.81234 0.04562 0.13780, 2.80512 0.00000 0.13780, 2.81234 -0.04562 0.13780, 2.83331 -0.08678 0.13780, 2.86598 -0.11944 0.13780, 2.90713 -0.14041 0.13780, 2.95276 -0.14764 0.13780, 2.99838 -0.14041 0.13780, 3.03954 -0.11944 0.13780, 3.07220 -0.08678 0.13780, 3.09317 -0.04562 0.13780 ] } coordIndex [ 0, 1, 21, 20, -1, 1, 2, 22, 21, -1, 2, 3, 23, 22, -1, 3, 4, 24, 23, -1, 4, 5, 25, 24, -1, 5, 6, 26, 25, -1, 6, 7, 27, 26, -1, 7, 8, 28, 27, -1, 8, 9, 29, 28, -1, 9, 10, 30, 29, -1, 10, 11, 31, 30, -1, 11, 12, 32, 31, -1, 12, 13, 33, 32, -1, 13, 14, 34, 33, -1, 14, 15, 35, 34, -1, 15, 16, 36, 35, -1, 16, 17, 37, 36, -1, 17, 18, 38, 37, -1, 18, 19, 39, 38, -1, 19, 0, 20, 39, -1, 19, 18, 17, 16, 15, 14, 13, 12, 11, 10, 9, 8, 7, 6, 5, 4, 3, 2, 1, 0, -1, 20, 21, 22, 23, 24, 25, 26, 27, 28, 29, 30, 31, 32, 33, 34, 35, 36, 37, 38, 39, -1 ] creaseAngle 0.6 solid TRUE } }
