#VRML V2.0 utf8
DEF CASE Appearance { material Material { diffuseColor 0.025 0.32 0.67 specularColor 0.12 0.18 0.24 shininess 0.42 } }
DEF LID Appearance { material Material { diffuseColor 0.035 0.37 0.72 specularColor 0.12 0.19 0.27 shininess 0.45 } }
DEF SEAM Appearance { material Material { diffuseColor 0.012 0.19 0.43 specularColor 0.06 0.10 0.15 shininess 0.24 } }
DEF TIN Appearance { material Material { diffuseColor 0.68 0.71 0.73 specularColor 0.38 0.39 0.41 shininess 0.72 } }
# moulded blue case
Shape { appearance USE CASE geometry IndexedFaceSet { coord Coordinate { point [ 6.03543 3.37205 0.00000, 6.03523 3.37358 0.00000, 6.03464 3.37500 0.00000, 6.03370 3.37622 0.00000, 6.03248 3.37716 0.00000, 6.03106 3.37775 0.00000, 6.02953 3.37795 0.00000, -6.02953 3.37795 0.00000, -6.03106 3.37775 0.00000, -6.03248 3.37716 0.00000, -6.03370 3.37622 0.00000, -6.03464 3.37500 0.00000, -6.03523 3.37358 0.00000, -6.03543 3.37205 0.00000, -6.03543 -3.37205 0.00000, -6.03523 -3.37358 0.00000, -6.03464 -3.37500 0.00000, -6.03370 -3.37622 0.00000, -6.03248 -3.37716 0.00000, -6.03106 -3.37775 0.00000, -6.02953 -3.37795 0.00000, 6.02953 -3.37795 0.00000, 6.03106 -3.37775 0.00000, 6.03248 -3.37716 0.00000, 6.03370 -3.37622 0.00000, 6.03464 -3.37500 0.00000, 6.03523 -3.37358 0.00000, 6.03543 -3.37205 0.00000, 6.09331 3.37795 0.04134, 6.09134 3.39293 0.04134, 6.08555 3.40689 0.04134, 6.07636 3.41888 0.04134, 6.06437 3.42807 0.04134, 6.05041 3.43385 0.04134, 6.03543 3.43583 0.04134, -6.03543 3.43583 0.04134, -6.05041 3.43385 0.04134, -6.06437 3.42807 0.04134, -6.07636 3.41888 0.04134, -6.08555 3.40689 0.04134, -6.09134 3.39293 0.04134, -6.09331 3.37795 0.04134, -6.09331 -3.37795 0.04134, -6.09134 -3.39293 0.04134, -6.08555 -3.40689 0.04134, -6.07636 -3.41888 0.04134, -6.06437 -3.42807 0.04134, -6.05041 -3.43385 0.04134, -6.03543 -3.43583 0.04134, 6.03543 -3.43583 0.04134, 6.05041 -3.43385 0.04134, 6.06437 -3.42807 0.04134, 6.07636 -3.41888 0.04134, 6.08555 -3.40689 0.04134, 6.09134 -3.39293 0.04134, 6.09331 -3.37795 0.04134, 6.15945 3.37795 0.10748, 6.15522 3.41005 0.10748, 6.14283 3.43996 0.10748, 6.12313 3.46565 0.10748, 6.09744 3.48535 0.10748, 6.06753 3.49774 0.10748, 6.03543 3.50197 0.10748, -6.03543 3.50197 0.10748, -6.06753 3.49774 0.10748, -6.09744 3.48535 0.10748, -6.12313 3.46565 0.10748, -6.14283 3.43996 0.10748, -6.15522 3.41005 0.10748, -6.15945 3.37795 0.10748, -6.15945 -3.37795 0.10748, -6.15522 -3.41005 0.10748, -6.14283 -3.43996 0.10748, -6.12313 -3.46565 0.10748, -6.09744 -3.48535 0.10748, -6.06753 -3.49774 0.10748, -6.03543 -3.50197 0.10748, 6.03543 -3.50197 0.10748, 6.06753 -3.49774 0.10748, 6.09744 -3.48535 0.10748, 6.12313 -3.46565 0.10748, 6.14283 -3.43996 0.10748, 6.15522 -3.41005 0.10748, 6.15945 -3.37795 0.10748, 6.20079 3.37795 0.16535, 6.19515 3.42075 0.16535, 6.17863 3.46063 0.16535, 6.15236 3.49488 0.16535, 6.11811 3.52115 0.16535, 6.07823 3.53767 0.16535, 6.03543 3.54331 0.16535, -6.03543 3.54331 0.16535, -6.07823 3.53767 0.16535, -6.11811 3.52115 0.16535, -6.15236 3.49488 0.16535, -6.17863 3.46063 0.16535, -6.19515 3.42075 0.16535, -6.20079 3.37795 0.16535, -6.20079 -3.37795 0.16535, -6.19515 -3.42075 0.16535, -6.17863 -3.46063 0.16535, -6.15236 -3.49488 0.16535, -6.11811 -3.52115 0.16535, -6.07823 -3.53767 0.16535, -6.03543 -3.54331 0.16535, 6.03543 -3.54331 0.16535, 6.07823 -3.53767 0.16535, 6.11811 -3.52115 0.16535, 6.15236 -3.49488 0.16535, 6.17863 -3.46063 0.16535, 6.19515 -3.42075 0.16535, 6.20079 -3.37795 0.16535, 6.20079 3.37795 10.61512, 6.19515 3.42075 10.61512, 6.17863 3.46063 10.61512, 6.15236 3.49488 10.61512, 6.11811 3.52115 10.61512, 6.07823 3.53767 10.61512, 6.03543 3.54331 10.61512, -6.03543 3.54331 10.61512, -6.07823 3.53767 10.61512, -6.11811 3.52115 10.61512, -6.15236 3.49488 10.61512, -6.17863 3.46063 10.61512, -6.19515 3.42075 10.61512, -6.20079 3.37795 10.61512, -6.20079 -3.37795 10.61512, -6.19515 -3.42075 10.61512, -6.17863 -3.46063 10.61512, -6.15236 -3.49488 10.61512, -6.11811 -3.52115 10.61512, -6.07823 -3.53767 10.61512, -6.03543 -3.54331 10.61512, 6.03543 -3.54331 10.61512, 6.07823 -3.53767 10.61512, 6.11811 -3.52115 10.61512, 6.15236 -3.49488 10.61512, 6.17863 -3.46063 10.61512, 6.19515 -3.42075 10.61512, 6.20079 -3.37795 10.61512, 6.15945 3.37795 10.67299, 6.15522 3.41005 10.67299, 6.14283 3.43996 10.67299, 6.12313 3.46565 10.67299, 6.09744 3.48535 10.67299, 6.06753 3.49774 10.67299, 6.03543 3.50197 10.67299, -6.03543 3.50197 10.67299, -6.06753 3.49774 10.67299, -6.09744 3.48535 10.67299, -6.12313 3.46565 10.67299, -6.14283 3.43996 10.67299, -6.15522 3.41005 10.67299, -6.15945 3.37795 10.67299, -6.15945 -3.37795 10.67299, -6.15522 -3.41005 10.67299, -6.14283 -3.43996 10.67299, -6.12313 -3.46565 10.67299, -6.09744 -3.48535 10.67299, -6.06753 -3.49774 10.67299, -6.03543 -3.50197 10.67299, 6.03543 -3.50197 10.67299, 6.06753 -3.49774 10.67299, 6.09744 -3.48535 10.67299, 6.12313 -3.46565 10.67299, 6.14283 -3.43996 10.67299, 6.15522 -3.41005 10.67299, 6.15945 -3.37795 10.67299, 6.09331 3.37795 10.73913, 6.09134 3.39293 10.73913, 6.08555 3.40689 10.73913, 6.07636 3.41888 10.73913, 6.06437 3.42807 10.73913, 6.05041 3.43385 10.73913, 6.03543 3.43583 10.73913, -6.03543 3.43583 10.73913, -6.05041 3.43385 10.73913, -6.06437 3.42807 10.73913, -6.07636 3.41888 10.73913, -6.08555 3.40689 10.73913, -6.09134 3.39293 10.73913, -6.09331 3.37795 10.73913, -6.09331 -3.37795 10.73913, -6.09134 -3.39293 10.73913, -6.08555 -3.40689 10.73913, -6.07636 -3.41888 10.73913, -6.06437 -3.42807 10.73913, -6.05041 -3.43385 10.73913, -6.03543 -3.43583 10.73913, 6.03543 -3.43583 10.73913, 6.05041 -3.43385 10.73913, 6.06437 -3.42807 10.73913, 6.07636 -3.41888 10.73913, 6.08555 -3.40689 10.73913, 6.09134 -3.39293 10.73913, 6.09331 -3.37795 10.73913, 6.03543 3.37205 10.78047, 6.03523 3.37358 10.78047, 6.03464 3.37500 10.78047, 6.03370 3.37622 10.78047, 6.03248 3.37716 10.78047, 6.03106 3.37775 10.78047, 6.02953 3.37795 10.78047, -6.02953 3.37795 10.78047, -6.03106 3.37775 10.78047, -6.03248 3.37716 10.78047, -6.03370 3.37622 10.78047, -6.03464 3.37500 10.78047, -6.03523 3.37358 10.78047, -6.03543 3.37205 10.78047, -6.03543 -3.37205 10.78047, -6.03523 -3.37358 10.78047, -6.03464 -3.37500 10.78047, -6.03370 -3.37622 10.78047, -6.03248 -3.37716 10.78047, -6.03106 -3.37775 10.78047, -6.02953 -3.37795 10.78047, 6.02953 -3.37795 10.78047, 6.03106 -3.37775 10.78047, 6.03248 -3.37716 10.78047, 6.03370 -3.37622 10.78047, 6.03464 -3.37500 10.78047, 6.03523 -3.37358 10.78047, 6.03543 -3.37205 10.78047 ] } coordIndex [ 0, 1, 29, 28, -1, 1, 2, 30, 29, -1, 2, 3, 31, 30, -1, 3, 4, 32, 31, -1, 4, 5, 33, 32, -1, 5, 6, 34, 33, -1, 6, 7, 35, 34, -1, 7, 8, 36, 35, -1, 8, 9, 37, 36, -1, 9, 10, 38, 37, -1, 10, 11, 39, 38, -1, 11, 12, 40, 39, -1, 12, 13, 41, 40, -1, 13, 14, 42, 41, -1, 14, 15, 43, 42, -1, 15, 16, 44, 43, -1, 16, 17, 45, 44, -1, 17, 18, 46, 45, -1, 18, 19, 47, 46, -1, 19, 20, 48, 47, -1, 20, 21, 49, 48, -1, 21, 22, 50, 49, -1, 22, 23, 51, 50, -1, 23, 24, 52, 51, -1, 24, 25, 53, 52, -1, 25, 26, 54, 53, -1, 26, 27, 55, 54, -1, 27, 0, 28, 55, -1, 28, 29, 57, 56, -1, 29, 30, 58, 57, -1, 30, 31, 59, 58, -1, 31, 32, 60, 59, -1, 32, 33, 61, 60, -1, 33, 34, 62, 61, -1, 34, 35, 63, 62, -1, 35, 36, 64, 63, -1, 36, 37, 65, 64, -1, 37, 38, 66, 65, -1, 38, 39, 67, 66, -1, 39, 40, 68, 67, -1, 40, 41, 69, 68, -1, 41, 42, 70, 69, -1, 42, 43, 71, 70, -1, 43, 44, 72, 71, -1, 44, 45, 73, 72, -1, 45, 46, 74, 73, -1, 46, 47, 75, 74, -1, 47, 48, 76, 75, -1, 48, 49, 77, 76, -1, 49, 50, 78, 77, -1, 50, 51, 79, 78, -1, 51, 52, 80, 79, -1, 52, 53, 81, 80, -1, 53, 54, 82, 81, -1, 54, 55, 83, 82, -1, 55, 28, 56, 83, -1, 56, 57, 85, 84, -1, 57, 58, 86, 85, -1, 58, 59, 87, 86, -1, 59, 60, 88, 87, -1, 60, 61, 89, 88, -1, 61, 62, 90, 89, -1, 62, 63, 91, 90, -1, 63, 64, 92, 91, -1, 64, 65, 93, 92, -1, 65, 66, 94, 93, -1, 66, 67, 95, 94, -1, 67, 68, 96, 95, -1, 68, 69, 97, 96, -1, 69, 70, 98, 97, -1, 70, 71, 99, 98, -1, 71, 72, 100, 99, -1, 72, 73, 101, 100, -1, 73, 74, 102, 101, -1, 74, 75, 103, 102, -1, 75, 76, 104, 103, -1, 76, 77, 105, 104, -1, 77, 78, 106, 105, -1, 78, 79, 107, 106, -1, 79, 80, 108, 107, -1, 80, 81, 109, 108, -1, 81, 82, 110, 109, -1, 82, 83, 111, 110, -1, 83, 56, 84, 111, -1, 84, 85, 113, 112, -1, 85, 86, 114, 113, -1, 86, 87, 115, 114, -1, 87, 88, 116, 115, -1, 88, 89, 117, 116, -1, 89, 90, 118, 117, -1, 90, 91, 119, 118, -1, 91, 92, 120, 119, -1, 92, 93, 121, 120, -1, 93, 94, 122, 121, -1, 94, 95, 123, 122, -1, 95, 96, 124, 123, -1, 96, 97, 125, 124, -1, 97, 98, 126, 125, -1, 98, 99, 127, 126, -1, 99, 100, 128, 127, -1, 100, 101, 129, 128, -1, 101, 102, 130, 129, -1, 102, 103, 131, 130, -1, 103, 104, 132, 131, -1, 104, 105, 133, 132, -1, 105, 106, 134, 133, -1, 106, 107, 135, 134, -1, 107, 108, 136, 135, -1, 108, 109, 137, 136, -1, 109, 110, 138, 137, -1, 110, 111, 139, 138, -1, 111, 84, 112, 139, -1, 112, 113, 141, 140, -1, 113, 114, 142, 141, -1, 114, 115, 143, 142, -1, 115, 116, 144, 143, -1, 116, 117, 145, 144, -1, 117, 118, 146, 145, -1, 118, 119, 147, 146, -1, 119, 120, 148, 147, -1, 120, 121, 149, 148, -1, 121, 122, 150, 149, -1, 122, 123, 151, 150, -1, 123, 124, 152, 151, -1, 124, 125, 153, 152, -1, 125, 126, 154, 153, -1, 126, 127, 155, 154, -1, 127, 128, 156, 155, -1, 128, 129, 157, 156, -1, 129, 130, 158, 157, -1, 130, 131, 159, 158, -1, 131, 132, 160, 159, -1, 132, 133, 161, 160, -1, 133, 134, 162, 161, -1, 134, 135, 163, 162, -1, 135, 136, 164, 163, -1, 136, 137, 165, 164, -1, 137, 138, 166, 165, -1, 138, 139, 167, 166, -1, 139, 112, 140, 167, -1, 140, 141, 169, 168, -1, 141, 142, 170, 169, -1, 142, 143, 171, 170, -1, 143, 144, 172, 171, -1, 144, 145, 173, 172, -1, 145, 146, 174, 173, -1, 146, 147, 175, 174, -1, 147, 148, 176, 175, -1, 148, 149, 177, 176, -1, 149, 150, 178, 177, -1, 150, 151, 179, 178, -1, 151, 152, 180, 179, -1, 152, 153, 181, 180, -1, 153, 154, 182, 181, -1, 154, 155, 183, 182, -1, 155, 156, 184, 183, -1, 156, 157, 185, 184, -1, 157, 158, 186, 185, -1, 158, 159, 187, 186, -1, 159, 160, 188, 187, -1, 160, 161, 189, 188, -1, 161, 162, 190, 189, -1, 162, 163, 191, 190, -1, 163, 164, 192, 191, -1, 164, 165, 193, 192, -1, 165, 166, 194, 193, -1, 166, 167, 195, 194, -1, 167, 140, 168, 195, -1, 168, 169, 197, 196, -1, 169, 170, 198, 197, -1, 170, 171, 199, 198, -1, 171, 172, 200, 199, -1, 172, 173, 201, 200, -1, 173, 174, 202, 201, -1, 174, 175, 203, 202, -1, 175, 176, 204, 203, -1, 176, 177, 205, 204, -1, 177, 178, 206, 205, -1, 178, 179, 207, 206, -1, 179, 180, 208, 207, -1, 180, 181, 209, 208, -1, 181, 182, 210, 209, -1, 182, 183, 211, 210, -1, 183, 184, 212, 211, -1, 184, 185, 213, 212, -1, 185, 186, 214, 213, -1, 186, 187, 215, 214, -1, 187, 188, 216, 215, -1, 188, 189, 217, 216, -1, 189, 190, 218, 217, -1, 190, 191, 219, 218, -1, 191, 192, 220, 219, -1, 192, 193, 221, 220, -1, 193, 194, 222, 221, -1, 194, 195, 223, 222, -1, 195, 168, 196, 223, -1, 27, 26, 25, 24, 23, 22, 21, 20, 19, 18, 17, 16, 15, 14, 13, 12, 11, 10, 9, 8, 7, 6, 5, 4, 3, 2, 1, 0, -1, 196, 197, 198, 199, 200, 201, 202, 203, 204, 205, 206, 207, 208, 209, 210, 211, 212, 213, 214, 215, 216, 217, 218, 219, 220, 221, 222, 223, -1 ] creaseAngle 0.6 solid TRUE } }
# fine lid seam
Shape { appearance USE SEAM geometry IndexedFaceSet { coord Coordinate { point [ 6.15929 3.49591 10.72094, 6.15909 3.49743 10.72094, 6.15850 3.49886 10.72094, 6.15756 3.50008 10.72094, 6.15634 3.50102 10.72094, 6.15491 3.50161 10.72094, 6.15339 3.50181 10.72094, -6.15339 3.50181 10.72094, -6.15491 3.50161 10.72094, -6.15634 3.50102 10.72094, -6.15756 3.50008 10.72094, -6.15850 3.49886 10.72094, -6.15909 3.49743 10.72094, -6.15929 3.49591 10.72094, -6.15929 -3.49591 10.72094, -6.15909 -3.49743 10.72094, -6.15850 -3.49886 10.72094, -6.15756 -3.50008 10.72094, -6.15634 -3.50102 10.72094, -6.15491 -3.50161 10.72094, -6.15339 -3.50181 10.72094, 6.15339 -3.50181 10.72094, 6.15491 -3.50161 10.72094, 6.15634 -3.50102 10.72094, 6.15756 -3.50008 10.72094, 6.15850 -3.49886 10.72094, 6.15909 -3.49743 10.72094, 6.15929 -3.49591 10.72094, 6.16624 3.50181 10.72591, 6.16600 3.50361 10.72591, 6.16531 3.50528 10.72591, 6.16420 3.50672 10.72591, 6.16276 3.50783 10.72591, 6.16109 3.50852 10.72591, 6.15929 3.50876 10.72591, -6.15929 3.50876 10.72591, -6.16109 3.50852 10.72591, -6.16276 3.50783 10.72591, -6.16420 3.50672 10.72591, -6.16531 3.50528 10.72591, -6.16600 3.50361 10.72591, -6.16624 3.50181 10.72591, -6.16624 -3.50181 10.72591, -6.16600 -3.50361 10.72591, -6.16531 -3.50528 10.72591, -6.16420 -3.50672 10.72591, -6.16276 -3.50783 10.72591, -6.16109 -3.50852 10.72591, -6.15929 -3.50876 10.72591, 6.15929 -3.50876 10.72591, 6.16109 -3.50852 10.72591, 6.16276 -3.50783 10.72591, 6.16420 -3.50672 10.72591, 6.16531 -3.50528 10.72591, 6.16600 -3.50361 10.72591, 6.16624 -3.50181 10.72591, 6.17417 3.50181 10.73384, 6.17367 3.50566 10.73384, 6.17218 3.50925 10.73384, 6.16981 3.51233 10.73384, 6.16673 3.51470 10.73384, 6.16314 3.51619 10.73384, 6.15929 3.51669 10.73384, -6.15929 3.51669 10.73384, -6.16314 3.51619 10.73384, -6.16673 3.51470 10.73384, -6.16981 3.51233 10.73384, -6.17218 3.50925 10.73384, -6.17367 3.50566 10.73384, -6.17417 3.50181 10.73384, -6.17417 -3.50181 10.73384, -6.17367 -3.50566 10.73384, -6.17218 -3.50925 10.73384, -6.16981 -3.51233 10.73384, -6.16673 -3.51470 10.73384, -6.16314 -3.51619 10.73384, -6.15929 -3.51669 10.73384, 6.15929 -3.51669 10.73384, 6.16314 -3.51619 10.73384, 6.16673 -3.51470 10.73384, 6.16981 -3.51233 10.73384, 6.17218 -3.50925 10.73384, 6.17367 -3.50566 10.73384, 6.17417 -3.50181 10.73384, 6.17913 3.50181 10.74079, 6.17846 3.50695 10.74079, 6.17648 3.51173 10.74079, 6.17332 3.51584 10.74079, 6.16921 3.51900 10.74079, 6.16443 3.52098 10.74079, 6.15929 3.52165 10.74079, -6.15929 3.52165 10.74079, -6.16443 3.52098 10.74079, -6.16921 3.51900 10.74079, -6.17332 3.51584 10.74079, -6.17648 3.51173 10.74079, -6.17846 3.50695 10.74079, -6.17913 3.50181 10.74079, -6.17913 -3.50181 10.74079, -6.17846 -3.50695 10.74079, -6.17648 -3.51173 10.74079, -6.17332 -3.51584 10.74079, -6.16921 -3.51900 10.74079, -6.16443 -3.52098 10.74079, -6.15929 -3.52165 10.74079, 6.15929 -3.52165 10.74079, 6.16443 -3.52098 10.74079, 6.16921 -3.51900 10.74079, 6.17332 -3.51584 10.74079, 6.17648 -3.51173 10.74079, 6.17846 -3.50695 10.74079, 6.17913 -3.50181 10.74079, 6.17913 3.50181 10.75071, 6.17846 3.50695 10.75071, 6.17648 3.51173 10.75071, 6.17332 3.51584 10.75071, 6.16921 3.51900 10.75071, 6.16443 3.52098 10.75071, 6.15929 3.52165 10.75071, -6.15929 3.52165 10.75071, -6.16443 3.52098 10.75071, -6.16921 3.51900 10.75071, -6.17332 3.51584 10.75071, -6.17648 3.51173 10.75071, -6.17846 3.50695 10.75071, -6.17913 3.50181 10.75071, -6.17913 -3.50181 10.75071, -6.17846 -3.50695 10.75071, -6.17648 -3.51173 10.75071, -6.17332 -3.51584 10.75071, -6.16921 -3.51900 10.75071, -6.16443 -3.52098 10.75071, -6.15929 -3.52165 10.75071, 6.15929 -3.52165 10.75071, 6.16443 -3.52098 10.75071, 6.16921 -3.51900 10.75071, 6.17332 -3.51584 10.75071, 6.17648 -3.51173 10.75071, 6.17846 -3.50695 10.75071, 6.17913 -3.50181 10.75071, 6.17417 3.50181 10.75765, 6.17367 3.50566 10.75765, 6.17218 3.50925 10.75765, 6.16981 3.51233 10.75765, 6.16673 3.51470 10.75765, 6.16314 3.51619 10.75765, 6.15929 3.51669 10.75765, -6.15929 3.51669 10.75765, -6.16314 3.51619 10.75765, -6.16673 3.51470 10.75765, -6.16981 3.51233 10.75765, -6.17218 3.50925 10.75765, -6.17367 3.50566 10.75765, -6.17417 3.50181 10.75765, -6.17417 -3.50181 10.75765, -6.17367 -3.50566 10.75765, -6.17218 -3.50925 10.75765, -6.16981 -3.51233 10.75765, -6.16673 -3.51470 10.75765, -6.16314 -3.51619 10.75765, -6.15929 -3.51669 10.75765, 6.15929 -3.51669 10.75765, 6.16314 -3.51619 10.75765, 6.16673 -3.51470 10.75765, 6.16981 -3.51233 10.75765, 6.17218 -3.50925 10.75765, 6.17367 -3.50566 10.75765, 6.17417 -3.50181 10.75765, 6.16624 3.50181 10.76559, 6.16600 3.50361 10.76559, 6.16531 3.50528 10.76559, 6.16420 3.50672 10.76559, 6.16276 3.50783 10.76559, 6.16109 3.50852 10.76559, 6.15929 3.50876 10.76559, -6.15929 3.50876 10.76559, -6.16109 3.50852 10.76559, -6.16276 3.50783 10.76559, -6.16420 3.50672 10.76559, -6.16531 3.50528 10.76559, -6.16600 3.50361 10.76559, -6.16624 3.50181 10.76559, -6.16624 -3.50181 10.76559, -6.16600 -3.50361 10.76559, -6.16531 -3.50528 10.76559, -6.16420 -3.50672 10.76559, -6.16276 -3.50783 10.76559, -6.16109 -3.50852 10.76559, -6.15929 -3.50876 10.76559, 6.15929 -3.50876 10.76559, 6.16109 -3.50852 10.76559, 6.16276 -3.50783 10.76559, 6.16420 -3.50672 10.76559, 6.16531 -3.50528 10.76559, 6.16600 -3.50361 10.76559, 6.16624 -3.50181 10.76559, 6.15929 3.49591 10.77055, 6.15909 3.49743 10.77055, 6.15850 3.49886 10.77055, 6.15756 3.50008 10.77055, 6.15634 3.50102 10.77055, 6.15491 3.50161 10.77055, 6.15339 3.50181 10.77055, -6.15339 3.50181 10.77055, -6.15491 3.50161 10.77055, -6.15634 3.50102 10.77055, -6.15756 3.50008 10.77055, -6.15850 3.49886 10.77055, -6.15909 3.49743 10.77055, -6.15929 3.49591 10.77055, -6.15929 -3.49591 10.77055, -6.15909 -3.49743 10.77055, -6.15850 -3.49886 10.77055, -6.15756 -3.50008 10.77055, -6.15634 -3.50102 10.77055, -6.15491 -3.50161 10.77055, -6.15339 -3.50181 10.77055, 6.15339 -3.50181 10.77055, 6.15491 -3.50161 10.77055, 6.15634 -3.50102 10.77055, 6.15756 -3.50008 10.77055, 6.15850 -3.49886 10.77055, 6.15909 -3.49743 10.77055, 6.15929 -3.49591 10.77055 ] } coordIndex [ 0, 1, 29, 28, -1, 1, 2, 30, 29, -1, 2, 3, 31, 30, -1, 3, 4, 32, 31, -1, 4, 5, 33, 32, -1, 5, 6, 34, 33, -1, 6, 7, 35, 34, -1, 7, 8, 36, 35, -1, 8, 9, 37, 36, -1, 9, 10, 38, 37, -1, 10, 11, 39, 38, -1, 11, 12, 40, 39, -1, 12, 13, 41, 40, -1, 13, 14, 42, 41, -1, 14, 15, 43, 42, -1, 15, 16, 44, 43, -1, 16, 17, 45, 44, -1, 17, 18, 46, 45, -1, 18, 19, 47, 46, -1, 19, 20, 48, 47, -1, 20, 21, 49, 48, -1, 21, 22, 50, 49, -1, 22, 23, 51, 50, -1, 23, 24, 52, 51, -1, 24, 25, 53, 52, -1, 25, 26, 54, 53, -1, 26, 27, 55, 54, -1, 27, 0, 28, 55, -1, 28, 29, 57, 56, -1, 29, 30, 58, 57, -1, 30, 31, 59, 58, -1, 31, 32, 60, 59, -1, 32, 33, 61, 60, -1, 33, 34, 62, 61, -1, 34, 35, 63, 62, -1, 35, 36, 64, 63, -1, 36, 37, 65, 64, -1, 37, 38, 66, 65, -1, 38, 39, 67, 66, -1, 39, 40, 68, 67, -1, 40, 41, 69, 68, -1, 41, 42, 70, 69, -1, 42, 43, 71, 70, -1, 43, 44, 72, 71, -1, 44, 45, 73, 72, -1, 45, 46, 74, 73, -1, 46, 47, 75, 74, -1, 47, 48, 76, 75, -1, 48, 49, 77, 76, -1, 49, 50, 78, 77, -1, 50, 51, 79, 78, -1, 51, 52, 80, 79, -1, 52, 53, 81, 80, -1, 53, 54, 82, 81, -1, 54, 55, 83, 82, -1, 55, 28, 56, 83, -1, 56, 57, 85, 84, -1, 57, 58, 86, 85, -1, 58, 59, 87, 86, -1, 59, 60, 88, 87, -1, 60, 61, 89, 88, -1, 61, 62, 90, 89, -1, 62, 63, 91, 90, -1, 63, 64, 92, 91, -1, 64, 65, 93, 92, -1, 65, 66, 94, 93, -1, 66, 67, 95, 94, -1, 67, 68, 96, 95, -1, 68, 69, 97, 96, -1, 69, 70, 98, 97, -1, 70, 71, 99, 98, -1, 71, 72, 100, 99, -1, 72, 73, 101, 100, -1, 73, 74, 102, 101, -1, 74, 75, 103, 102, -1, 75, 76, 104, 103, -1, 76, 77, 105, 104, -1, 77, 78, 106, 105, -1, 78, 79, 107, 106, -1, 79, 80, 108, 107, -1, 80, 81, 109, 108, -1, 81, 82, 110, 109, -1, 82, 83, 111, 110, -1, 83, 56, 84, 111, -1, 84, 85, 113, 112, -1, 85, 86, 114, 113, -1, 86, 87, 115, 114, -1, 87, 88, 116, 115, -1, 88, 89, 117, 116, -1, 89, 90, 118, 117, -1, 90, 91, 119, 118, -1, 91, 92, 120, 119, -1, 92, 93, 121, 120, -1, 93, 94, 122, 121, -1, 94, 95, 123, 122, -1, 95, 96, 124, 123, -1, 96, 97, 125, 124, -1, 97, 98, 126, 125, -1, 98, 99, 127, 126, -1, 99, 100, 128, 127, -1, 100, 101, 129, 128, -1, 101, 102, 130, 129, -1, 102, 103, 131, 130, -1, 103, 104, 132, 131, -1, 104, 105, 133, 132, -1, 105, 106, 134, 133, -1, 106, 107, 135, 134, -1, 107, 108, 136, 135, -1, 108, 109, 137, 136, -1, 109, 110, 138, 137, -1, 110, 111, 139, 138, -1, 111, 84, 112, 139, -1, 112, 113, 141, 140, -1, 113, 114, 142, 141, -1, 114, 115, 143, 142, -1, 115, 116, 144, 143, -1, 116, 117, 145, 144, -1, 117, 118, 146, 145, -1, 118, 119, 147, 146, -1, 119, 120, 148, 147, -1, 120, 121, 149, 148, -1, 121, 122, 150, 149, -1, 122, 123, 151, 150, -1, 123, 124, 152, 151, -1, 124, 125, 153, 152, -1, 125, 126, 154, 153, -1, 126, 127, 155, 154, -1, 127, 128, 156, 155, -1, 128, 129, 157, 156, -1, 129, 130, 158, 157, -1, 130, 131, 159, 158, -1, 131, 132, 160, 159, -1, 132, 133, 161, 160, -1, 133, 134, 162, 161, -1, 134, 135, 163, 162, -1, 135, 136, 164, 163, -1, 136, 137, 165, 164, -1, 137, 138, 166, 165, -1, 138, 139, 167, 166, -1, 139, 112, 140, 167, -1, 140, 141, 169, 168, -1, 141, 142, 170, 169, -1, 142, 143, 171, 170, -1, 143, 144, 172, 171, -1, 144, 145, 173, 172, -1, 145, 146, 174, 173, -1, 146, 147, 175, 174, -1, 147, 148, 176, 175, -1, 148, 149, 177, 176, -1, 149, 150, 178, 177, -1, 150, 151, 179, 178, -1, 151, 152, 180, 179, -1, 152, 153, 181, 180, -1, 153, 154, 182, 181, -1, 154, 155, 183, 182, -1, 155, 156, 184, 183, -1, 156, 157, 185, 184, -1, 157, 158, 186, 185, -1, 158, 159, 187, 186, -1, 159, 160, 188, 187, -1, 160, 161, 189, 188, -1, 161, 162, 190, 189, -1, 162, 163, 191, 190, -1, 163, 164, 192, 191, -1, 164, 165, 193, 192, -1, 165, 166, 194, 193, -1, 166, 167, 195, 194, -1, 167, 140, 168, 195, -1, 168, 169, 197, 196, -1, 169, 170, 198, 197, -1, 170, 171, 199, 198, -1, 171, 172, 200, 199, -1, 172, 173, 201, 200, -1, 173, 174, 202, 201, -1, 174, 175, 203, 202, -1, 175, 176, 204, 203, -1, 176, 177, 205, 204, -1, 177, 178, 206, 205, -1, 178, 179, 207, 206, -1, 179, 180, 208, 207, -1, 180, 181, 209, 208, -1, 181, 182, 210, 209, -1, 182, 183, 211, 210, -1, 183, 184, 212, 211, -1, 184, 185, 213, 212, -1, 185, 186, 214, 213, -1, 186, 187, 215, 214, -1, 187, 188, 216, 215, -1, 188, 189, 217, 216, -1, 189, 190, 218, 217, -1, 190, 191, 219, 218, -1, 191, 192, 220, 219, -1, 192, 193, 221, 220, -1, 193, 194, 222, 221, -1, 194, 195, 223, 222, -1, 195, 168, 196, 223, -1, 27, 26, 25, 24, 23, 22, 21, 20, 19, 18, 17, 16, 15, 14, 13, 12, 11, 10, 9, 8, 7, 6, 5, 4, 3, 2, 1, 0, -1, 196, 197, 198, 199, 200, 201, 202, 203, 204, 205, 206, 207, 208, 209, 210, 211, 212, 213, 214, 215, 216, 217, 218, 219, 220, 221, 222, 223, -1 ] creaseAngle 0.6 solid TRUE } }
# integral rounded lid
Shape { appearance USE LID geometry IndexedFaceSet { coord Coordinate { point [ 6.15392 3.49054 10.73913, 6.15372 3.49206 10.73913, 6.15313 3.49349 10.73913, 6.15219 3.49471 10.73913, 6.15097 3.49565 10.73913, 6.14954 3.49624 10.73913, 6.14802 3.49644 10.73913, -6.14802 3.49644 10.73913, -6.14954 3.49624 10.73913, -6.15097 3.49565 10.73913, -6.15219 3.49471 10.73913, -6.15313 3.49349 10.73913, -6.15372 3.49206 10.73913, -6.15392 3.49054 10.73913, -6.15392 -3.49054 10.73913, -6.15372 -3.49206 10.73913, -6.15313 -3.49349 10.73913, -6.15219 -3.49471 10.73913, -6.15097 -3.49565 10.73913, -6.14954 -3.49624 10.73913, -6.14802 -3.49644 10.73913, 6.14802 -3.49644 10.73913, 6.14954 -3.49624 10.73913, 6.15097 -3.49565 10.73913, 6.15219 -3.49471 10.73913, 6.15313 -3.49349 10.73913, 6.15372 -3.49206 10.73913, 6.15392 -3.49054 10.73913, 6.16619 3.49644 10.74790, 6.16577 3.49962 10.74790, 6.16455 3.50258 10.74790, 6.16260 3.50512 10.74790, 6.16006 3.50707 10.74790, 6.15710 3.50829 10.74790, 6.15392 3.50871 10.74790, -6.15392 3.50871 10.74790, -6.15710 3.50829 10.74790, -6.16006 3.50707 10.74790, -6.16260 3.50512 10.74790, -6.16455 3.50258 10.74790, -6.16577 3.49962 10.74790, -6.16619 3.49644 10.74790, -6.16619 -3.49644 10.74790, -6.16577 -3.49962 10.74790, -6.16455 -3.50258 10.74790, -6.16260 -3.50512 10.74790, -6.16006 -3.50707 10.74790, -6.15710 -3.50829 10.74790, -6.15392 -3.50871 10.74790, 6.15392 -3.50871 10.74790, 6.15710 -3.50829 10.74790, 6.16006 -3.50707 10.74790, 6.16260 -3.50512 10.74790, 6.16455 -3.50258 10.74790, 6.16577 -3.49962 10.74790, 6.16619 -3.49644 10.74790, 6.18021 3.49644 10.76192, 6.17932 3.50325 10.76192, 6.17669 3.50959 10.76192, 6.17251 3.51503 10.76192, 6.16707 3.51921 10.76192, 6.16073 3.52184 10.76192, 6.15392 3.52273 10.76192, -6.15392 3.52273 10.76192, -6.16073 3.52184 10.76192, -6.16707 3.51921 10.76192, -6.17251 3.51503 10.76192, -6.17669 3.50959 10.76192, -6.17932 3.50325 10.76192, -6.18021 3.49644 10.76192, -6.18021 -3.49644 10.76192, -6.17932 -3.50325 10.76192, -6.17669 -3.50959 10.76192, -6.17251 -3.51503 10.76192, -6.16707 -3.51921 10.76192, -6.16073 -3.52184 10.76192, -6.15392 -3.52273 10.76192, 6.15392 -3.52273 10.76192, 6.16073 -3.52184 10.76192, 6.16707 -3.51921 10.76192, 6.17251 -3.51503 10.76192, 6.17669 -3.50959 10.76192, 6.17932 -3.50325 10.76192, 6.18021 -3.49644 10.76192, 6.18898 3.49644 10.77419, 6.18778 3.50551 10.77419, 6.18428 3.51397 10.77419, 6.17871 3.52123 10.77419, 6.17145 3.52680 10.77419, 6.16299 3.53030 10.77419, 6.15392 3.53150 10.77419, -6.15392 3.53150 10.77419, -6.16299 3.53030 10.77419, -6.17145 3.52680 10.77419, -6.17871 3.52123 10.77419, -6.18428 3.51397 10.77419, -6.18778 3.50551 10.77419, -6.18898 3.49644 10.77419, -6.18898 -3.49644 10.77419, -6.18778 -3.50551 10.77419, -6.18428 -3.51397 10.77419, -6.17871 -3.52123 10.77419, -6.17145 -3.52680 10.77419, -6.16299 -3.53030 10.77419, -6.15392 -3.53150 10.77419, 6.15392 -3.53150 10.77419, 6.16299 -3.53030 10.77419, 6.17145 -3.52680 10.77419, 6.17871 -3.52123 10.77419, 6.18428 -3.51397 10.77419, 6.18778 -3.50551 10.77419, 6.18898 -3.49644 10.77419, 6.18898 3.49644 10.79172, 6.18778 3.50551 10.79172, 6.18428 3.51397 10.79172, 6.17871 3.52123 10.79172, 6.17145 3.52680 10.79172, 6.16299 3.53030 10.79172, 6.15392 3.53150 10.79172, -6.15392 3.53150 10.79172, -6.16299 3.53030 10.79172, -6.17145 3.52680 10.79172, -6.17871 3.52123 10.79172, -6.18428 3.51397 10.79172, -6.18778 3.50551 10.79172, -6.18898 3.49644 10.79172, -6.18898 -3.49644 10.79172, -6.18778 -3.50551 10.79172, -6.18428 -3.51397 10.79172, -6.17871 -3.52123 10.79172, -6.17145 -3.52680 10.79172, -6.16299 -3.53030 10.79172, -6.15392 -3.53150 10.79172, 6.15392 -3.53150 10.79172, 6.16299 -3.53030 10.79172, 6.17145 -3.52680 10.79172, 6.17871 -3.52123 10.79172, 6.18428 -3.51397 10.79172, 6.18778 -3.50551 10.79172, 6.18898 -3.49644 10.79172, 6.18021 3.49644 10.80399, 6.17932 3.50325 10.80399, 6.17669 3.50959 10.80399, 6.17251 3.51503 10.80399, 6.16707 3.51921 10.80399, 6.16073 3.52184 10.80399, 6.15392 3.52273 10.80399, -6.15392 3.52273 10.80399, -6.16073 3.52184 10.80399, -6.16707 3.51921 10.80399, -6.17251 3.51503 10.80399, -6.17669 3.50959 10.80399, -6.17932 3.50325 10.80399, -6.18021 3.49644 10.80399, -6.18021 -3.49644 10.80399, -6.17932 -3.50325 10.80399, -6.17669 -3.50959 10.80399, -6.17251 -3.51503 10.80399, -6.16707 -3.51921 10.80399, -6.16073 -3.52184 10.80399, -6.15392 -3.52273 10.80399, 6.15392 -3.52273 10.80399, 6.16073 -3.52184 10.80399, 6.16707 -3.51921 10.80399, 6.17251 -3.51503 10.80399, 6.17669 -3.50959 10.80399, 6.17932 -3.50325 10.80399, 6.18021 -3.49644 10.80399, 6.16619 3.49644 10.81801, 6.16577 3.49962 10.81801, 6.16455 3.50258 10.81801, 6.16260 3.50512 10.81801, 6.16006 3.50707 10.81801, 6.15710 3.50829 10.81801, 6.15392 3.50871 10.81801, -6.15392 3.50871 10.81801, -6.15710 3.50829 10.81801, -6.16006 3.50707 10.81801, -6.16260 3.50512 10.81801, -6.16455 3.50258 10.81801, -6.16577 3.49962 10.81801, -6.16619 3.49644 10.81801, -6.16619 -3.49644 10.81801, -6.16577 -3.49962 10.81801, -6.16455 -3.50258 10.81801, -6.16260 -3.50512 10.81801, -6.16006 -3.50707 10.81801, -6.15710 -3.50829 10.81801, -6.15392 -3.50871 10.81801, 6.15392 -3.50871 10.81801, 6.15710 -3.50829 10.81801, 6.16006 -3.50707 10.81801, 6.16260 -3.50512 10.81801, 6.16455 -3.50258 10.81801, 6.16577 -3.49962 10.81801, 6.16619 -3.49644 10.81801, 6.15392 3.49054 10.82677, 6.15372 3.49206 10.82677, 6.15313 3.49349 10.82677, 6.15219 3.49471 10.82677, 6.15097 3.49565 10.82677, 6.14954 3.49624 10.82677, 6.14802 3.49644 10.82677, -6.14802 3.49644 10.82677, -6.14954 3.49624 10.82677, -6.15097 3.49565 10.82677, -6.15219 3.49471 10.82677, -6.15313 3.49349 10.82677, -6.15372 3.49206 10.82677, -6.15392 3.49054 10.82677, -6.15392 -3.49054 10.82677, -6.15372 -3.49206 10.82677, -6.15313 -3.49349 10.82677, -6.15219 -3.49471 10.82677, -6.15097 -3.49565 10.82677, -6.14954 -3.49624 10.82677, -6.14802 -3.49644 10.82677, 6.14802 -3.49644 10.82677, 6.14954 -3.49624 10.82677, 6.15097 -3.49565 10.82677, 6.15219 -3.49471 10.82677, 6.15313 -3.49349 10.82677, 6.15372 -3.49206 10.82677, 6.15392 -3.49054 10.82677 ] } coordIndex [ 0, 1, 29, 28, -1, 1, 2, 30, 29, -1, 2, 3, 31, 30, -1, 3, 4, 32, 31, -1, 4, 5, 33, 32, -1, 5, 6, 34, 33, -1, 6, 7, 35, 34, -1, 7, 8, 36, 35, -1, 8, 9, 37, 36, -1, 9, 10, 38, 37, -1, 10, 11, 39, 38, -1, 11, 12, 40, 39, -1, 12, 13, 41, 40, -1, 13, 14, 42, 41, -1, 14, 15, 43, 42, -1, 15, 16, 44, 43, -1, 16, 17, 45, 44, -1, 17, 18, 46, 45, -1, 18, 19, 47, 46, -1, 19, 20, 48, 47, -1, 20, 21, 49, 48, -1, 21, 22, 50, 49, -1, 22, 23, 51, 50, -1, 23, 24, 52, 51, -1, 24, 25, 53, 52, -1, 25, 26, 54, 53, -1, 26, 27, 55, 54, -1, 27, 0, 28, 55, -1, 28, 29, 57, 56, -1, 29, 30, 58, 57, -1, 30, 31, 59, 58, -1, 31, 32, 60, 59, -1, 32, 33, 61, 60, -1, 33, 34, 62, 61, -1, 34, 35, 63, 62, -1, 35, 36, 64, 63, -1, 36, 37, 65, 64, -1, 37, 38, 66, 65, -1, 38, 39, 67, 66, -1, 39, 40, 68, 67, -1, 40, 41, 69, 68, -1, 41, 42, 70, 69, -1, 42, 43, 71, 70, -1, 43, 44, 72, 71, -1, 44, 45, 73, 72, -1, 45, 46, 74, 73, -1, 46, 47, 75, 74, -1, 47, 48, 76, 75, -1, 48, 49, 77, 76, -1, 49, 50, 78, 77, -1, 50, 51, 79, 78, -1, 51, 52, 80, 79, -1, 52, 53, 81, 80, -1, 53, 54, 82, 81, -1, 54, 55, 83, 82, -1, 55, 28, 56, 83, -1, 56, 57, 85, 84, -1, 57, 58, 86, 85, -1, 58, 59, 87, 86, -1, 59, 60, 88, 87, -1, 60, 61, 89, 88, -1, 61, 62, 90, 89, -1, 62, 63, 91, 90, -1, 63, 64, 92, 91, -1, 64, 65, 93, 92, -1, 65, 66, 94, 93, -1, 66, 67, 95, 94, -1, 67, 68, 96, 95, -1, 68, 69, 97, 96, -1, 69, 70, 98, 97, -1, 70, 71, 99, 98, -1, 71, 72, 100, 99, -1, 72, 73, 101, 100, -1, 73, 74, 102, 101, -1, 74, 75, 103, 102, -1, 75, 76, 104, 103, -1, 76, 77, 105, 104, -1, 77, 78, 106, 105, -1, 78, 79, 107, 106, -1, 79, 80, 108, 107, -1, 80, 81, 109, 108, -1, 81, 82, 110, 109, -1, 82, 83, 111, 110, -1, 83, 56, 84, 111, -1, 84, 85, 113, 112, -1, 85, 86, 114, 113, -1, 86, 87, 115, 114, -1, 87, 88, 116, 115, -1, 88, 89, 117, 116, -1, 89, 90, 118, 117, -1, 90, 91, 119, 118, -1, 91, 92, 120, 119, -1, 92, 93, 121, 120, -1, 93, 94, 122, 121, -1, 94, 95, 123, 122, -1, 95, 96, 124, 123, -1, 96, 97, 125, 124, -1, 97, 98, 126, 125, -1, 98, 99, 127, 126, -1, 99, 100, 128, 127, -1, 100, 101, 129, 128, -1, 101, 102, 130, 129, -1, 102, 103, 131, 130, -1, 103, 104, 132, 131, -1, 104, 105, 133, 132, -1, 105, 106, 134, 133, -1, 106, 107, 135, 134, -1, 107, 108, 136, 135, -1, 108, 109, 137, 136, -1, 109, 110, 138, 137, -1, 110, 111, 139, 138, -1, 111, 84, 112, 139, -1, 112, 113, 141, 140, -1, 113, 114, 142, 141, -1, 114, 115, 143, 142, -1, 115, 116, 144, 143, -1, 116, 117, 145, 144, -1, 117, 118, 146, 145, -1, 118, 119, 147, 146, -1, 119, 120, 148, 147, -1, 120, 121, 149, 148, -1, 121, 122, 150, 149, -1, 122, 123, 151, 150, -1, 123, 124, 152, 151, -1, 124, 125, 153, 152, -1, 125, 126, 154, 153, -1, 126, 127, 155, 154, -1, 127, 128, 156, 155, -1, 128, 129, 157, 156, -1, 129, 130, 158, 157, -1, 130, 131, 159, 158, -1, 131, 132, 160, 159, -1, 132, 133, 161, 160, -1, 133, 134, 162, 161, -1, 134, 135, 163, 162, -1, 135, 136, 164, 163, -1, 136, 137, 165, 164, -1, 137, 138, 166, 165, -1, 138, 139, 167, 166, -1, 139, 112, 140, 167, -1, 140, 141, 169, 168, -1, 141, 142, 170, 169, -1, 142, 143, 171, 170, -1, 143, 144, 172, 171, -1, 144, 145, 173, 172, -1, 145, 146, 174, 173, -1, 146, 147, 175, 174, -1, 147, 148, 176, 175, -1, 148, 149, 177, 176, -1, 149, 150, 178, 177, -1, 150, 151, 179, 178, -1, 151, 152, 180, 179, -1, 152, 153, 181, 180, -1, 153, 154, 182, 181, -1, 154, 155, 183, 182, -1, 155, 156, 184, 183, -1, 156, 157, 185, 184, -1, 157, 158, 186, 185, -1, 158, 159, 187, 186, -1, 159, 160, 188, 187, -1, 160, 161, 189, 188, -1, 161, 162, 190, 189, -1, 162, 163, 191, 190, -1, 163, 164, 192, 191, -1, 164, 165, 193, 192, -1, 165, 166, 194, 193, -1, 166, 167, 195, 194, -1, 167, 140, 168, 195, -1, 168, 169, 197, 196, -1, 169, 170, 198, 197, -1, 170, 171, 199, 198, -1, 171, 172, 200, 199, -1, 172, 173, 201, 200, -1, 173, 174, 202, 201, -1, 174, 175, 203, 202, -1, 175, 176, 204, 203, -1, 176, 177, 205, 204, -1, 177, 178, 206, 205, -1, 178, 179, 207, 206, -1, 179, 180, 208, 207, -1, 180, 181, 209, 208, -1, 181, 182, 210, 209, -1, 182, 183, 211, 210, -1, 183, 184, 212, 211, -1, 184, 185, 213, 212, -1, 185, 186, 214, 213, -1, 186, 187, 215, 214, -1, 187, 188, 216, 215, -1, 188, 189, 217, 216, -1, 189, 190, 218, 217, -1, 190, 191, 219, 218, -1, 191, 192, 220, 219, -1, 192, 193, 221, 220, -1, 193, 194, 222, 221, -1, 194, 195, 223, 222, -1, 195, 168, 196, 223, -1, 27, 26, 25, 24, 23, 22, 21, 20, 19, 18, 17, 16, 15, 14, 13, 12, 11, 10, 9, 8, 7, 6, 5, 4, 3, 2, 1, 0, -1, 196, 197, 198, 199, 200, 201, 202, 203, 204, 205, 206, 207, 208, 209, 210, 211, 212, 213, 214, 215, 216, 217, 218, 219, 220, 221, 222, 223, -1 ] creaseAngle 0.6 solid TRUE } }
# tinned lead 1
Shape { appearance USE TIN geometry IndexedFaceSet { coord Coordinate { point [ -5.23622 0.00000 -1.37795, -5.24489 0.05475 -1.37795, -5.27006 0.10414 -1.37795, -5.30925 0.14333 -1.37795, -5.35864 0.16849 -1.37795, -5.41339 0.17717 -1.37795, -5.46813 0.16849 -1.37795, -5.51752 0.14333 -1.37795, -5.55672 0.10414 -1.37795, -5.58188 0.05475 -1.37795, -5.59055 0.00000 -1.37795, -5.58188 -0.05475 -1.37795, -5.55672 -0.10414 -1.37795, -5.51752 -0.14333 -1.37795, -5.46813 -0.16849 -1.37795, -5.41339 -0.17717 -1.37795, -5.35864 -0.16849 -1.37795, -5.30925 -0.14333 -1.37795, -5.27006 -0.10414 -1.37795, -5.24489 -0.05475 -1.37795, -5.23622 0.00000 0.13780, -5.24489 0.05475 0.13780, -5.27006 0.10414 0.13780, -5.30925 0.14333 0.13780, -5.35864 0.16849 0.13780, -5.41339 0.17717 0.13780, -5.46813 0.16849 0.13780, -5.51752 0.14333 0.13780, -5.55672 0.10414 0.13780, -5.58188 0.05475 0.13780, -5.59055 0.00000 0.13780, -5.58188 -0.05475 0.13780, -5.55672 -0.10414 0.13780, -5.51752 -0.14333 0.13780, -5.46813 -0.16849 0.13780, -5.41339 -0.17717 0.13780, -5.35864 -0.16849 0.13780, -5.30925 -0.14333 0.13780, -5.27006 -0.10414 0.13780, -5.24489 -0.05475 0.13780 ] } coordIndex [ 0, 1, 21, 20, -1, 1, 2, 22, 21, -1, 2, 3, 23, 22, -1, 3, 4, 24, 23, -1, 4, 5, 25, 24, -1, 5, 6, 26, 25, -1, 6, 7, 27, 26, -1, 7, 8, 28, 27, -1, 8, 9, 29, 28, -1, 9, 10, 30, 29, -1, 10, 11, 31, 30, -1, 11, 12, 32, 31, -1, 12, 13, 33, 32, -1, 13, 14, 34, 33, -1, 14, 15, 35, 34, -1, 15, 16, 36, 35, -1, 16, 17, 37, 36, -1, 17, 18, 38, 37, -1, 18, 19, 39, 38, -1, 19, 0, 20, 39, -1, 19, 18, 17, 16, 15, 14, 13, 12, 11, 10, 9, 8, 7, 6, 5, 4, 3, 2, 1, 0, -1, 20, 21, 22, 23, 24, 25, 26, 27, 28, 29, 30, 31, 32, 33, 34, 35, 36, 37, 38, 39, -1 ] creaseAngle 0.6 solid TRUE } }
# tinned lead 2
Shape { appearance USE TIN geometry IndexedFaceSet { coord Coordinate { point [ 5.59055 0.00000 -1.37795, 5.58188 0.05475 -1.37795, 5.55672 0.10414 -1.37795, 5.51752 0.14333 -1.37795, 5.46813 0.16849 -1.37795, 5.41339 0.17717 -1.37795, 5.35864 0.16849 -1.37795, 5.30925 0.14333 -1.37795, 5.27006 0.10414 -1.37795, 5.24489 0.05475 -1.37795, 5.23622 0.00000 -1.37795, 5.24489 -0.05475 -1.37795, 5.27006 -0.10414 -1.37795, 5.30925 -0.14333 -1.37795, 5.35864 -0.16849 -1.37795, 5.41339 -0.17717 -1.37795, 5.46813 -0.16849 -1.37795, 5.51752 -0.14333 -1.37795, 5.55672 -0.10414 -1.37795, 5.58188 -0.05475 -1.37795, 5.59055 0.00000 0.13780, 5.58188 0.05475 0.13780, 5.55672 0.10414 0.13780, 5.51752 0.14333 0.13780, 5.46813 0.16849 0.13780, 5.41339 0.17717 0.13780, 5.35864 0.16849 0.13780, 5.30925 0.14333 0.13780, 5.27006 0.10414 0.13780, 5.24489 0.05475 0.13780, 5.23622 0.00000 0.13780, 5.24489 -0.05475 0.13780, 5.27006 -0.10414 0.13780, 5.30925 -0.14333 0.13780, 5.35864 -0.16849 0.13780, 5.41339 -0.17717 0.13780, 5.46813 -0.16849 0.13780, 5.51752 -0.14333 0.13780, 5.55672 -0.10414 0.13780, 5.58188 -0.05475 0.13780 ] } coordIndex [ 0, 1, 21, 20, -1, 1, 2, 22, 21, -1, 2, 3, 23, 22, -1, 3, 4, 24, 23, -1, 4, 5, 25, 24, -1, 5, 6, 26, 25, -1, 6, 7, 27, 26, -1, 7, 8, 28, 27, -1, 8, 9, 29, 28, -1, 9, 10, 30, 29, -1, 10, 11, 31, 30, -1, 11, 12, 32, 31, -1, 12, 13, 33, 32, -1, 13, 14, 34, 33, -1, 14, 15, 35, 34, -1, 15, 16, 36, 35, -1, 16, 17, 37, 36, -1, 17, 18, 38, 37, -1, 18, 19, 39, 38, -1, 19, 0, 20, 39, -1, 19, 18, 17, 16, 15, 14, 13, 12, 11, 10, 9, 8, 7, 6, 5, 4, 3, 2, 1, 0, -1, 20, 21, 22, 23, 24, 25, 26, 27, 28, 29, 30, 31, 32, 33, 34, 35, 36, 37, 38, 39, -1 ] creaseAngle 0.6 solid TRUE } }
