#VRML V2.0 utf8
DEF CASE Appearance { material Material { diffuseColor 0.025 0.32 0.67 specularColor 0.12 0.18 0.24 shininess 0.42 } }
DEF LID Appearance { material Material { diffuseColor 0.035 0.37 0.72 specularColor 0.12 0.19 0.27 shininess 0.45 } }
DEF SEAM Appearance { material Material { diffuseColor 0.012 0.19 0.43 specularColor 0.06 0.10 0.15 shininess 0.24 } }
DEF TIN Appearance { material Material { diffuseColor 0.68 0.71 0.73 specularColor 0.38 0.39 0.41 shininess 0.72 } }
# moulded blue case
Shape { appearance USE CASE geometry IndexedFaceSet { coord Coordinate { point [ 3.37795 1.00984 0.00000, 3.37775 1.01137 0.00000, 3.37716 1.01280 0.00000, 3.37622 1.01402 0.00000, 3.37500 1.01496 0.00000, 3.37358 1.01555 0.00000, 3.37205 1.01575 0.00000, -3.37205 1.01575 0.00000, -3.37358 1.01555 0.00000, -3.37500 1.01496 0.00000, -3.37622 1.01402 0.00000, -3.37716 1.01280 0.00000, -3.37775 1.01137 0.00000, -3.37795 1.00984 0.00000, -3.37795 -1.00984 0.00000, -3.37775 -1.01137 0.00000, -3.37716 -1.01280 0.00000, -3.37622 -1.01402 0.00000, -3.37500 -1.01496 0.00000, -3.37358 -1.01555 0.00000, -3.37205 -1.01575 0.00000, 3.37205 -1.01575 0.00000, 3.37358 -1.01555 0.00000, 3.37500 -1.01496 0.00000, 3.37622 -1.01402 0.00000, 3.37716 -1.01280 0.00000, 3.37775 -1.01137 0.00000, 3.37795 -1.00984 0.00000, 3.43583 1.01575 0.04134, 3.43385 1.03073 0.04134, 3.42807 1.04469 0.04134, 3.41888 1.05667 0.04134, 3.40689 1.06587 0.04134, 3.39293 1.07165 0.04134, 3.37795 1.07362 0.04134, -3.37795 1.07362 0.04134, -3.39293 1.07165 0.04134, -3.40689 1.06587 0.04134, -3.41888 1.05667 0.04134, -3.42807 1.04469 0.04134, -3.43385 1.03073 0.04134, -3.43583 1.01575 0.04134, -3.43583 -1.01575 0.04134, -3.43385 -1.03073 0.04134, -3.42807 -1.04469 0.04134, -3.41888 -1.05667 0.04134, -3.40689 -1.06587 0.04134, -3.39293 -1.07165 0.04134, -3.37795 -1.07362 0.04134, 3.37795 -1.07362 0.04134, 3.39293 -1.07165 0.04134, 3.40689 -1.06587 0.04134, 3.41888 -1.05667 0.04134, 3.42807 -1.04469 0.04134, 3.43385 -1.03073 0.04134, 3.43583 -1.01575 0.04134, 3.50197 1.01575 0.10748, 3.49774 1.04785 0.10748, 3.48535 1.07776 0.10748, 3.46565 1.10344 0.10748, 3.43996 1.12315 0.10748, 3.41005 1.13554 0.10748, 3.37795 1.13976 0.10748, -3.37795 1.13976 0.10748, -3.41005 1.13554 0.10748, -3.43996 1.12315 0.10748, -3.46565 1.10344 0.10748, -3.48535 1.07776 0.10748, -3.49774 1.04785 0.10748, -3.50197 1.01575 0.10748, -3.50197 -1.01575 0.10748, -3.49774 -1.04785 0.10748, -3.48535 -1.07776 0.10748, -3.46565 -1.10344 0.10748, -3.43996 -1.12315 0.10748, -3.41005 -1.13554 0.10748, -3.37795 -1.13976 0.10748, 3.37795 -1.13976 0.10748, 3.41005 -1.13554 0.10748, 3.43996 -1.12315 0.10748, 3.46565 -1.10344 0.10748, 3.48535 -1.07776 0.10748, 3.49774 -1.04785 0.10748, 3.50197 -1.01575 0.10748, 3.54331 1.01575 0.16535, 3.53767 1.05854 0.16535, 3.52115 1.09843 0.16535, 3.49488 1.13267 0.16535, 3.46063 1.15895 0.16535, 3.42075 1.17547 0.16535, 3.37795 1.18110 0.16535, -3.37795 1.18110 0.16535, -3.42075 1.17547 0.16535, -3.46063 1.15895 0.16535, -3.49488 1.13267 0.16535, -3.52115 1.09843 0.16535, -3.53767 1.05854 0.16535, -3.54331 1.01575 0.16535, -3.54331 -1.01575 0.16535, -3.53767 -1.05854 0.16535, -3.52115 -1.09843 0.16535, -3.49488 -1.13267 0.16535, -3.46063 -1.15895 0.16535, -3.42075 -1.17547 0.16535, -3.37795 -1.18110 0.16535, 3.37795 -1.18110 0.16535, 3.42075 -1.17547 0.16535, 3.46063 -1.15895 0.16535, 3.49488 -1.13267 0.16535, 3.52115 -1.09843 0.16535, 3.53767 -1.05854 0.16535, 3.54331 -1.01575 0.16535, 3.54331 1.01575 4.70961, 3.53767 1.05854 4.70961, 3.52115 1.09843 4.70961, 3.49488 1.13267 4.70961, 3.46063 1.15895 4.70961, 3.42075 1.17547 4.70961, 3.37795 1.18110 4.70961, -3.37795 1.18110 4.70961, -3.42075 1.17547 4.70961, -3.46063 1.15895 4.70961, -3.49488 1.13267 4.70961, -3.52115 1.09843 4.70961, -3.53767 1.05854 4.70961, -3.54331 1.01575 4.70961, -3.54331 -1.01575 4.70961, -3.53767 -1.05854 4.70961, -3.52115 -1.09843 4.70961, -3.49488 -1.13267 4.70961, -3.46063 -1.15895 4.70961, -3.42075 -1.17547 4.70961, -3.37795 -1.18110 4.70961, 3.37795 -1.18110 4.70961, 3.42075 -1.17547 4.70961, 3.46063 -1.15895 4.70961, 3.49488 -1.13267 4.70961, 3.52115 -1.09843 4.70961, 3.53767 -1.05854 4.70961, 3.54331 -1.01575 4.70961, 3.50197 1.01575 4.76748, 3.49774 1.04785 4.76748, 3.48535 1.07776 4.76748, 3.46565 1.10344 4.76748, 3.43996 1.12315 4.76748, 3.41005 1.13554 4.76748, 3.37795 1.13976 4.76748, -3.37795 1.13976 4.76748, -3.41005 1.13554 4.76748, -3.43996 1.12315 4.76748, -3.46565 1.10344 4.76748, -3.48535 1.07776 4.76748, -3.49774 1.04785 4.76748, -3.50197 1.01575 4.76748, -3.50197 -1.01575 4.76748, -3.49774 -1.04785 4.76748, -3.48535 -1.07776 4.76748, -3.46565 -1.10344 4.76748, -3.43996 -1.12315 4.76748, -3.41005 -1.13554 4.76748, -3.37795 -1.13976 4.76748, 3.37795 -1.13976 4.76748, 3.41005 -1.13554 4.76748, 3.43996 -1.12315 4.76748, 3.46565 -1.10344 4.76748, 3.48535 -1.07776 4.76748, 3.49774 -1.04785 4.76748, 3.50197 -1.01575 4.76748, 3.43583 1.01575 4.83362, 3.43385 1.03073 4.83362, 3.42807 1.04469 4.83362, 3.41888 1.05667 4.83362, 3.40689 1.06587 4.83362, 3.39293 1.07165 4.83362, 3.37795 1.07362 4.83362, -3.37795 1.07362 4.83362, -3.39293 1.07165 4.83362, -3.40689 1.06587 4.83362, -3.41888 1.05667 4.83362, -3.42807 1.04469 4.83362, -3.43385 1.03073 4.83362, -3.43583 1.01575 4.83362, -3.43583 -1.01575 4.83362, -3.43385 -1.03073 4.83362, -3.42807 -1.04469 4.83362, -3.41888 -1.05667 4.83362, -3.40689 -1.06587 4.83362, -3.39293 -1.07165 4.83362, -3.37795 -1.07362 4.83362, 3.37795 -1.07362 4.83362, 3.39293 -1.07165 4.83362, 3.40689 -1.06587 4.83362, 3.41888 -1.05667 4.83362, 3.42807 -1.04469 4.83362, 3.43385 -1.03073 4.83362, 3.43583 -1.01575 4.83362, 3.37795 1.00984 4.87496, 3.37775 1.01137 4.87496, 3.37716 1.01280 4.87496, 3.37622 1.01402 4.87496, 3.37500 1.01496 4.87496, 3.37358 1.01555 4.87496, 3.37205 1.01575 4.87496, -3.37205 1.01575 4.87496, -3.37358 1.01555 4.87496, -3.37500 1.01496 4.87496, -3.37622 1.01402 4.87496, -3.37716 1.01280 4.87496, -3.37775 1.01137 4.87496, -3.37795 1.00984 4.87496, -3.37795 -1.00984 4.87496, -3.37775 -1.01137 4.87496, -3.37716 -1.01280 4.87496, -3.37622 -1.01402 4.87496, -3.37500 -1.01496 4.87496, -3.37358 -1.01555 4.87496, -3.37205 -1.01575 4.87496, 3.37205 -1.01575 4.87496, 3.37358 -1.01555 4.87496, 3.37500 -1.01496 4.87496, 3.37622 -1.01402 4.87496, 3.37716 -1.01280 4.87496, 3.37775 -1.01137 4.87496, 3.37795 -1.00984 4.87496 ] } coordIndex [ 0, 1, 29, 28, -1, 1, 2, 30, 29, -1, 2, 3, 31, 30, -1, 3, 4, 32, 31, -1, 4, 5, 33, 32, -1, 5, 6, 34, 33, -1, 6, 7, 35, 34, -1, 7, 8, 36, 35, -1, 8, 9, 37, 36, -1, 9, 10, 38, 37, -1, 10, 11, 39, 38, -1, 11, 12, 40, 39, -1, 12, 13, 41, 40, -1, 13, 14, 42, 41, -1, 14, 15, 43, 42, -1, 15, 16, 44, 43, -1, 16, 17, 45, 44, -1, 17, 18, 46, 45, -1, 18, 19, 47, 46, -1, 19, 20, 48, 47, -1, 20, 21, 49, 48, -1, 21, 22, 50, 49, -1, 22, 23, 51, 50, -1, 23, 24, 52, 51, -1, 24, 25, 53, 52, -1, 25, 26, 54, 53, -1, 26, 27, 55, 54, -1, 27, 0, 28, 55, -1, 28, 29, 57, 56, -1, 29, 30, 58, 57, -1, 30, 31, 59, 58, -1, 31, 32, 60, 59, -1, 32, 33, 61, 60, -1, 33, 34, 62, 61, -1, 34, 35, 63, 62, -1, 35, 36, 64, 63, -1, 36, 37, 65, 64, -1, 37, 38, 66, 65, -1, 38, 39, 67, 66, -1, 39, 40, 68, 67, -1, 40, 41, 69, 68, -1, 41, 42, 70, 69, -1, 42, 43, 71, 70, -1, 43, 44, 72, 71, -1, 44, 45, 73, 72, -1, 45, 46, 74, 73, -1, 46, 47, 75, 74, -1, 47, 48, 76, 75, -1, 48, 49, 77, 76, -1, 49, 50, 78, 77, -1, 50, 51, 79, 78, -1, 51, 52, 80, 79, -1, 52, 53, 81, 80, -1, 53, 54, 82, 81, -1, 54, 55, 83, 82, -1, 55, 28, 56, 83, -1, 56, 57, 85, 84, -1, 57, 58, 86, 85, -1, 58, 59, 87, 86, -1, 59, 60, 88, 87, -1, 60, 61, 89, 88, -1, 61, 62, 90, 89, -1, 62, 63, 91, 90, -1, 63, 64, 92, 91, -1, 64, 65, 93, 92, -1, 65, 66, 94, 93, -1, 66, 67, 95, 94, -1, 67, 68, 96, 95, -1, 68, 69, 97, 96, -1, 69, 70, 98, 97, -1, 70, 71, 99, 98, -1, 71, 72, 100, 99, -1, 72, 73, 101, 100, -1, 73, 74, 102, 101, -1, 74, 75, 103, 102, -1, 75, 76, 104, 103, -1, 76, 77, 105, 104, -1, 77, 78, 106, 105, -1, 78, 79, 107, 106, -1, 79, 80, 108, 107, -1, 80, 81, 109, 108, -1, 81, 82, 110, 109, -1, 82, 83, 111, 110, -1, 83, 56, 84, 111, -1, 84, 85, 113, 112, -1, 85, 86, 114, 113, -1, 86, 87, 115, 114, -1, 87, 88, 116, 115, -1, 88, 89, 117, 116, -1, 89, 90, 118, 117, -1, 90, 91, 119, 118, -1, 91, 92, 120, 119, -1, 92, 93, 121, 120, -1, 93, 94, 122, 121, -1, 94, 95, 123, 122, -1, 95, 96, 124, 123, -1, 96, 97, 125, 124, -1, 97, 98, 126, 125, -1, 98, 99, 127, 126, -1, 99, 100, 128, 127, -1, 100, 101, 129, 128, -1, 101, 102, 130, 129, -1, 102, 103, 131, 130, -1, 103, 104, 132, 131, -1, 104, 105, 133, 132, -1, 105, 106, 134, 133, -1, 106, 107, 135, 134, -1, 107, 108, 136, 135, -1, 108, 109, 137, 136, -1, 109, 110, 138, 137, -1, 110, 111, 139, 138, -1, 111, 84, 112, 139, -1, 112, 113, 141, 140, -1, 113, 114, 142, 141, -1, 114, 115, 143, 142, -1, 115, 116, 144, 143, -1, 116, 117, 145, 144, -1, 117, 118, 146, 145, -1, 118, 119, 147, 146, -1, 119, 120, 148, 147, -1, 120, 121, 149, 148, -1, 121, 122, 150, 149, -1, 122, 123, 151, 150, -1, 123, 124, 152, 151, -1, 124, 125, 153, 152, -1, 125, 126, 154, 153, -1, 126, 127, 155, 154, -1, 127, 128, 156, 155, -1, 128, 129, 157, 156, -1, 129, 130, 158, 157, -1, 130, 131, 159, 158, -1, 131, 132, 160, 159, -1, 132, 133, 161, 160, -1, 133, 134, 162, 161, -1, 134, 135, 163, 162, -1, 135, 136, 164, 163, -1, 136, 137, 165, 164, -1, 137, 138, 166, 165, -1, 138, 139, 167, 166, -1, 139, 112, 140, 167, -1, 140, 141, 169, 168, -1, 141, 142, 170, 169, -1, 142, 143, 171, 170, -1, 143, 144, 172, 171, -1, 144, 145, 173, 172, -1, 145, 146, 174, 173, -1, 146, 147, 175, 174, -1, 147, 148, 176, 175, -1, 148, 149, 177, 176, -1, 149, 150, 178, 177, -1, 150, 151, 179, 178, -1, 151, 152, 180, 179, -1, 152, 153, 181, 180, -1, 153, 154, 182, 181, -1, 154, 155, 183, 182, -1, 155, 156, 184, 183, -1, 156, 157, 185, 184, -1, 157, 158, 186, 185, -1, 158, 159, 187, 186, -1, 159, 160, 188, 187, -1, 160, 161, 189, 188, -1, 161, 162, 190, 189, -1, 162, 163, 191, 190, -1, 163, 164, 192, 191, -1, 164, 165, 193, 192, -1, 165, 166, 194, 193, -1, 166, 167, 195, 194, -1, 167, 140, 168, 195, -1, 168, 169, 197, 196, -1, 169, 170, 198, 197, -1, 170, 171, 199, 198, -1, 171, 172, 200, 199, -1, 172, 173, 201, 200, -1, 173, 174, 202, 201, -1, 174, 175, 203, 202, -1, 175, 176, 204, 203, -1, 176, 177, 205, 204, -1, 177, 178, 206, 205, -1, 178, 179, 207, 206, -1, 179, 180, 208, 207, -1, 180, 181, 209, 208, -1, 181, 182, 210, 209, -1, 182, 183, 211, 210, -1, 183, 184, 212, 211, -1, 184, 185, 213, 212, -1, 185, 186, 214, 213, -1, 186, 187, 215, 214, -1, 187, 188, 216, 215, -1, 188, 189, 217, 216, -1, 189, 190, 218, 217, -1, 190, 191, 219, 218, -1, 191, 192, 220, 219, -1, 192, 193, 221, 220, -1, 193, 194, 222, 221, -1, 194, 195, 223, 222, -1, 195, 168, 196, 223, -1, 27, 26, 25, 24, 23, 22, 21, 20, 19, 18, 17, 16, 15, 14, 13, 12, 11, 10, 9, 8, 7, 6, 5, 4, 3, 2, 1, 0, -1, 196, 197, 198, 199, 200, 201, 202, 203, 204, 205, 206, 207, 208, 209, 210, 211, 212, 213, 214, 215, 216, 217, 218, 219, 220, 221, 222, 223, -1 ] creaseAngle 0.6 solid TRUE } }
# fine lid seam
Shape { appearance USE SEAM geometry IndexedFaceSet { coord Coordinate { point [ 3.50181 1.13370 4.81543, 3.50161 1.13523 4.81543, 3.50102 1.13665 4.81543, 3.50008 1.13788 4.81543, 3.49886 1.13882 4.81543, 3.49743 1.13941 4.81543, 3.49591 1.13961 4.81543, -3.49591 1.13961 4.81543, -3.49743 1.13941 4.81543, -3.49886 1.13882 4.81543, -3.50008 1.13788 4.81543, -3.50102 1.13665 4.81543, -3.50161 1.13523 4.81543, -3.50181 1.13370 4.81543, -3.50181 -1.13370 4.81543, -3.50161 -1.13523 4.81543, -3.50102 -1.13665 4.81543, -3.50008 -1.13788 4.81543, -3.49886 -1.13882 4.81543, -3.49743 -1.13941 4.81543, -3.49591 -1.13961 4.81543, 3.49591 -1.13961 4.81543, 3.49743 -1.13941 4.81543, 3.49886 -1.13882 4.81543, 3.50008 -1.13788 4.81543, 3.50102 -1.13665 4.81543, 3.50161 -1.13523 4.81543, 3.50181 -1.13370 4.81543, 3.50876 1.13961 4.82039, 3.50852 1.14140 4.82039, 3.50783 1.14308 4.82039, 3.50672 1.14452 4.82039, 3.50528 1.14562 4.82039, 3.50361 1.14631 4.82039, 3.50181 1.14655 4.82039, -3.50181 1.14655 4.82039, -3.50361 1.14631 4.82039, -3.50528 1.14562 4.82039, -3.50672 1.14452 4.82039, -3.50783 1.14308 4.82039, -3.50852 1.14140 4.82039, -3.50876 1.13961 4.82039, -3.50876 -1.13961 4.82039, -3.50852 -1.14140 4.82039, -3.50783 -1.14308 4.82039, -3.50672 -1.14452 4.82039, -3.50528 -1.14562 4.82039, -3.50361 -1.14631 4.82039, -3.50181 -1.14655 4.82039, 3.50181 -1.14655 4.82039, 3.50361 -1.14631 4.82039, 3.50528 -1.14562 4.82039, 3.50672 -1.14452 4.82039, 3.50783 -1.14308 4.82039, 3.50852 -1.14140 4.82039, 3.50876 -1.13961 4.82039, 3.51669 1.13961 4.82833, 3.51619 1.14346 4.82833, 3.51470 1.14705 4.82833, 3.51233 1.15013 4.82833, 3.50925 1.15249 4.82833, 3.50566 1.15398 4.82833, 3.50181 1.15449 4.82833, -3.50181 1.15449 4.82833, -3.50566 1.15398 4.82833, -3.50925 1.15249 4.82833, -3.51233 1.15013 4.82833, -3.51470 1.14705 4.82833, -3.51619 1.14346 4.82833, -3.51669 1.13961 4.82833, -3.51669 -1.13961 4.82833, -3.51619 -1.14346 4.82833, -3.51470 -1.14705 4.82833, -3.51233 -1.15013 4.82833, -3.50925 -1.15249 4.82833, -3.50566 -1.15398 4.82833, -3.50181 -1.15449 4.82833, 3.50181 -1.15449 4.82833, 3.50566 -1.15398 4.82833, 3.50925 -1.15249 4.82833, 3.51233 -1.15013 4.82833, 3.51470 -1.14705 4.82833, 3.51619 -1.14346 4.82833, 3.51669 -1.13961 4.82833, 3.52165 1.13961 4.83528, 3.52098 1.14474 4.83528, 3.51900 1.14953 4.83528, 3.51584 1.15364 4.83528, 3.51173 1.15679 4.83528, 3.50695 1.15877 4.83528, 3.50181 1.15945 4.83528, -3.50181 1.15945 4.83528, -3.50695 1.15877 4.83528, -3.51173 1.15679 4.83528, -3.51584 1.15364 4.83528, -3.51900 1.14953 4.83528, -3.52098 1.14474 4.83528, -3.52165 1.13961 4.83528, -3.52165 -1.13961 4.83528, -3.52098 -1.14474 4.83528, -3.51900 -1.14953 4.83528, -3.51584 -1.15364 4.83528, -3.51173 -1.15679 4.83528, -3.50695 -1.15877 4.83528, -3.50181 -1.15945 4.83528, 3.50181 -1.15945 4.83528, 3.50695 -1.15877 4.83528, 3.51173 -1.15679 4.83528, 3.51584 -1.15364 4.83528, 3.51900 -1.14953 4.83528, 3.52098 -1.14474 4.83528, 3.52165 -1.13961 4.83528, 3.52165 1.13961 4.84520, 3.52098 1.14474 4.84520, 3.51900 1.14953 4.84520, 3.51584 1.15364 4.84520, 3.51173 1.15679 4.84520, 3.50695 1.15877 4.84520, 3.50181 1.15945 4.84520, -3.50181 1.15945 4.84520, -3.50695 1.15877 4.84520, -3.51173 1.15679 4.84520, -3.51584 1.15364 4.84520, -3.51900 1.14953 4.84520, -3.52098 1.14474 4.84520, -3.52165 1.13961 4.84520, -3.52165 -1.13961 4.84520, -3.52098 -1.14474 4.84520, -3.51900 -1.14953 4.84520, -3.51584 -1.15364 4.84520, -3.51173 -1.15679 4.84520, -3.50695 -1.15877 4.84520, -3.50181 -1.15945 4.84520, 3.50181 -1.15945 4.84520, 3.50695 -1.15877 4.84520, 3.51173 -1.15679 4.84520, 3.51584 -1.15364 4.84520, 3.51900 -1.14953 4.84520, 3.52098 -1.14474 4.84520, 3.52165 -1.13961 4.84520, 3.51669 1.13961 4.85214, 3.51619 1.14346 4.85214, 3.51470 1.14705 4.85214, 3.51233 1.15013 4.85214, 3.50925 1.15249 4.85214, 3.50566 1.15398 4.85214, 3.50181 1.15449 4.85214, -3.50181 1.15449 4.85214, -3.50566 1.15398 4.85214, -3.50925 1.15249 4.85214, -3.51233 1.15013 4.85214, -3.51470 1.14705 4.85214, -3.51619 1.14346 4.85214, -3.51669 1.13961 4.85214, -3.51669 -1.13961 4.85214, -3.51619 -1.14346 4.85214, -3.51470 -1.14705 4.85214, -3.51233 -1.15013 4.85214, -3.50925 -1.15249 4.85214, -3.50566 -1.15398 4.85214, -3.50181 -1.15449 4.85214, 3.50181 -1.15449 4.85214, 3.50566 -1.15398 4.85214, 3.50925 -1.15249 4.85214, 3.51233 -1.15013 4.85214, 3.51470 -1.14705 4.85214, 3.51619 -1.14346 4.85214, 3.51669 -1.13961 4.85214, 3.50876 1.13961 4.86008, 3.50852 1.14140 4.86008, 3.50783 1.14308 4.86008, 3.50672 1.14452 4.86008, 3.50528 1.14562 4.86008, 3.50361 1.14631 4.86008, 3.50181 1.14655 4.86008, -3.50181 1.14655 4.86008, -3.50361 1.14631 4.86008, -3.50528 1.14562 4.86008, -3.50672 1.14452 4.86008, -3.50783 1.14308 4.86008, -3.50852 1.14140 4.86008, -3.50876 1.13961 4.86008, -3.50876 -1.13961 4.86008, -3.50852 -1.14140 4.86008, -3.50783 -1.14308 4.86008, -3.50672 -1.14452 4.86008, -3.50528 -1.14562 4.86008, -3.50361 -1.14631 4.86008, -3.50181 -1.14655 4.86008, 3.50181 -1.14655 4.86008, 3.50361 -1.14631 4.86008, 3.50528 -1.14562 4.86008, 3.50672 -1.14452 4.86008, 3.50783 -1.14308 4.86008, 3.50852 -1.14140 4.86008, 3.50876 -1.13961 4.86008, 3.50181 1.13370 4.86504, 3.50161 1.13523 4.86504, 3.50102 1.13665 4.86504, 3.50008 1.13788 4.86504, 3.49886 1.13882 4.86504, 3.49743 1.13941 4.86504, 3.49591 1.13961 4.86504, -3.49591 1.13961 4.86504, -3.49743 1.13941 4.86504, -3.49886 1.13882 4.86504, -3.50008 1.13788 4.86504, -3.50102 1.13665 4.86504, -3.50161 1.13523 4.86504, -3.50181 1.13370 4.86504, -3.50181 -1.13370 4.86504, -3.50161 -1.13523 4.86504, -3.50102 -1.13665 4.86504, -3.50008 -1.13788 4.86504, -3.49886 -1.13882 4.86504, -3.49743 -1.13941 4.86504, -3.49591 -1.13961 4.86504, 3.49591 -1.13961 4.86504, 3.49743 -1.13941 4.86504, 3.49886 -1.13882 4.86504, 3.50008 -1.13788 4.86504, 3.50102 -1.13665 4.86504, 3.50161 -1.13523 4.86504, 3.50181 -1.13370 4.86504 ] } coordIndex [ 0, 1, 29, 28, -1, 1, 2, 30, 29, -1, 2, 3, 31, 30, -1, 3, 4, 32, 31, -1, 4, 5, 33, 32, -1, 5, 6, 34, 33, -1, 6, 7, 35, 34, -1, 7, 8, 36, 35, -1, 8, 9, 37, 36, -1, 9, 10, 38, 37, -1, 10, 11, 39, 38, -1, 11, 12, 40, 39, -1, 12, 13, 41, 40, -1, 13, 14, 42, 41, -1, 14, 15, 43, 42, -1, 15, 16, 44, 43, -1, 16, 17, 45, 44, -1, 17, 18, 46, 45, -1, 18, 19, 47, 46, -1, 19, 20, 48, 47, -1, 20, 21, 49, 48, -1, 21, 22, 50, 49, -1, 22, 23, 51, 50, -1, 23, 24, 52, 51, -1, 24, 25, 53, 52, -1, 25, 26, 54, 53, -1, 26, 27, 55, 54, -1, 27, 0, 28, 55, -1, 28, 29, 57, 56, -1, 29, 30, 58, 57, -1, 30, 31, 59, 58, -1, 31, 32, 60, 59, -1, 32, 33, 61, 60, -1, 33, 34, 62, 61, -1, 34, 35, 63, 62, -1, 35, 36, 64, 63, -1, 36, 37, 65, 64, -1, 37, 38, 66, 65, -1, 38, 39, 67, 66, -1, 39, 40, 68, 67, -1, 40, 41, 69, 68, -1, 41, 42, 70, 69, -1, 42, 43, 71, 70, -1, 43, 44, 72, 71, -1, 44, 45, 73, 72, -1, 45, 46, 74, 73, -1, 46, 47, 75, 74, -1, 47, 48, 76, 75, -1, 48, 49, 77, 76, -1, 49, 50, 78, 77, -1, 50, 51, 79, 78, -1, 51, 52, 80, 79, -1, 52, 53, 81, 80, -1, 53, 54, 82, 81, -1, 54, 55, 83, 82, -1, 55, 28, 56, 83, -1, 56, 57, 85, 84, -1, 57, 58, 86, 85, -1, 58, 59, 87, 86, -1, 59, 60, 88, 87, -1, 60, 61, 89, 88, -1, 61, 62, 90, 89, -1, 62, 63, 91, 90, -1, 63, 64, 92, 91, -1, 64, 65, 93, 92, -1, 65, 66, 94, 93, -1, 66, 67, 95, 94, -1, 67, 68, 96, 95, -1, 68, 69, 97, 96, -1, 69, 70, 98, 97, -1, 70, 71, 99, 98, -1, 71, 72, 100, 99, -1, 72, 73, 101, 100, -1, 73, 74, 102, 101, -1, 74, 75, 103, 102, -1, 75, 76, 104, 103, -1, 76, 77, 105, 104, -1, 77, 78, 106, 105, -1, 78, 79, 107, 106, -1, 79, 80, 108, 107, -1, 80, 81, 109, 108, -1, 81, 82, 110, 109, -1, 82, 83, 111, 110, -1, 83, 56, 84, 111, -1, 84, 85, 113, 112, -1, 85, 86, 114, 113, -1, 86, 87, 115, 114, -1, 87, 88, 116, 115, -1, 88, 89, 117, 116, -1, 89, 90, 118, 117, -1, 90, 91, 119, 118, -1, 91, 92, 120, 119, -1, 92, 93, 121, 120, -1, 93, 94, 122, 121, -1, 94, 95, 123, 122, -1, 95, 96, 124, 123, -1, 96, 97, 125, 124, -1, 97, 98, 126, 125, -1, 98, 99, 127, 126, -1, 99, 100, 128, 127, -1, 100, 101, 129, 128, -1, 101, 102, 130, 129, -1, 102, 103, 131, 130, -1, 103, 104, 132, 131, -1, 104, 105, 133, 132, -1, 105, 106, 134, 133, -1, 106, 107, 135, 134, -1, 107, 108, 136, 135, -1, 108, 109, 137, 136, -1, 109, 110, 138, 137, -1, 110, 111, 139, 138, -1, 111, 84, 112, 139, -1, 112, 113, 141, 140, -1, 113, 114, 142, 141, -1, 114, 115, 143, 142, -1, 115, 116, 144, 143, -1, 116, 117, 145, 144, -1, 117, 118, 146, 145, -1, 118, 119, 147, 146, -1, 119, 120, 148, 147, -1, 120, 121, 149, 148, -1, 121, 122, 150, 149, -1, 122, 123, 151, 150, -1, 123, 124, 152, 151, -1, 124, 125, 153, 152, -1, 125, 126, 154, 153, -1, 126, 127, 155, 154, -1, 127, 128, 156, 155, -1, 128, 129, 157, 156, -1, 129, 130, 158, 157, -1, 130, 131, 159, 158, -1, 131, 132, 160, 159, -1, 132, 133, 161, 160, -1, 133, 134, 162, 161, -1, 134, 135, 163, 162, -1, 135, 136, 164, 163, -1, 136, 137, 165, 164, -1, 137, 138, 166, 165, -1, 138, 139, 167, 166, -1, 139, 112, 140, 167, -1, 140, 141, 169, 168, -1, 141, 142, 170, 169, -1, 142, 143, 171, 170, -1, 143, 144, 172, 171, -1, 144, 145, 173, 172, -1, 145, 146, 174, 173, -1, 146, 147, 175, 174, -1, 147, 148, 176, 175, -1, 148, 149, 177, 176, -1, 149, 150, 178, 177, -1, 150, 151, 179, 178, -1, 151, 152, 180, 179, -1, 152, 153, 181, 180, -1, 153, 154, 182, 181, -1, 154, 155, 183, 182, -1, 155, 156, 184, 183, -1, 156, 157, 185, 184, -1, 157, 158, 186, 185, -1, 158, 159, 187, 186, -1, 159, 160, 188, 187, -1, 160, 161, 189, 188, -1, 161, 162, 190, 189, -1, 162, 163, 191, 190, -1, 163, 164, 192, 191, -1, 164, 165, 193, 192, -1, 165, 166, 194, 193, -1, 166, 167, 195, 194, -1, 167, 140, 168, 195, -1, 168, 169, 197, 196, -1, 169, 170, 198, 197, -1, 170, 171, 199, 198, -1, 171, 172, 200, 199, -1, 172, 173, 201, 200, -1, 173, 174, 202, 201, -1, 174, 175, 203, 202, -1, 175, 176, 204, 203, -1, 176, 177, 205, 204, -1, 177, 178, 206, 205, -1, 178, 179, 207, 206, -1, 179, 180, 208, 207, -1, 180, 181, 209, 208, -1, 181, 182, 210, 209, -1, 182, 183, 211, 210, -1, 183, 184, 212, 211, -1, 184, 185, 213, 212, -1, 185, 186, 214, 213, -1, 186, 187, 215, 214, -1, 187, 188, 216, 215, -1, 188, 189, 217, 216, -1, 189, 190, 218, 217, -1, 190, 191, 219, 218, -1, 191, 192, 220, 219, -1, 192, 193, 221, 220, -1, 193, 194, 222, 221, -1, 194, 195, 223, 222, -1, 195, 168, 196, 223, -1, 27, 26, 25, 24, 23, 22, 21, 20, 19, 18, 17, 16, 15, 14, 13, 12, 11, 10, 9, 8, 7, 6, 5, 4, 3, 2, 1, 0, -1, 196, 197, 198, 199, 200, 201, 202, 203, 204, 205, 206, 207, 208, 209, 210, 211, 212, 213, 214, 215, 216, 217, 218, 219, 220, 221, 222, 223, -1 ] creaseAngle 0.6 solid TRUE } }
# integral rounded lid
Shape { appearance USE LID geometry IndexedFaceSet { coord Coordinate { point [ 3.49644 1.12833 4.83362, 3.49624 1.12986 4.83362, 3.49565 1.13128 4.83362, 3.49471 1.13251 4.83362, 3.49349 1.13345 4.83362, 3.49206 1.13403 4.83362, 3.49054 1.13424 4.83362, -3.49054 1.13424 4.83362, -3.49206 1.13403 4.83362, -3.49349 1.13345 4.83362, -3.49471 1.13251 4.83362, -3.49565 1.13128 4.83362, -3.49624 1.12986 4.83362, -3.49644 1.12833 4.83362, -3.49644 -1.12833 4.83362, -3.49624 -1.12986 4.83362, -3.49565 -1.13128 4.83362, -3.49471 -1.13251 4.83362, -3.49349 -1.13345 4.83362, -3.49206 -1.13403 4.83362, -3.49054 -1.13424 4.83362, 3.49054 -1.13424 4.83362, 3.49206 -1.13403 4.83362, 3.49349 -1.13345 4.83362, 3.49471 -1.13251 4.83362, 3.49565 -1.13128 4.83362, 3.49624 -1.12986 4.83362, 3.49644 -1.12833 4.83362, 3.50871 1.13424 4.84239, 3.50829 1.13741 4.84239, 3.50707 1.14037 4.84239, 3.50512 1.14291 4.84239, 3.50258 1.14486 4.84239, 3.49962 1.14609 4.84239, 3.49644 1.14651 4.84239, -3.49644 1.14651 4.84239, -3.49962 1.14609 4.84239, -3.50258 1.14486 4.84239, -3.50512 1.14291 4.84239, -3.50707 1.14037 4.84239, -3.50829 1.13741 4.84239, -3.50871 1.13424 4.84239, -3.50871 -1.13424 4.84239, -3.50829 -1.13741 4.84239, -3.50707 -1.14037 4.84239, -3.50512 -1.14291 4.84239, -3.50258 -1.14486 4.84239, -3.49962 -1.14609 4.84239, -3.49644 -1.14651 4.84239, 3.49644 -1.14651 4.84239, 3.49962 -1.14609 4.84239, 3.50258 -1.14486 4.84239, 3.50512 -1.14291 4.84239, 3.50707 -1.14037 4.84239, 3.50829 -1.13741 4.84239, 3.50871 -1.13424 4.84239, 3.52273 1.13424 4.85641, 3.52184 1.14104 4.85641, 3.51921 1.14738 4.85641, 3.51503 1.15283 4.85641, 3.50959 1.15701 4.85641, 3.50325 1.15963 4.85641, 3.49644 1.16053 4.85641, -3.49644 1.16053 4.85641, -3.50325 1.15963 4.85641, -3.50959 1.15701 4.85641, -3.51503 1.15283 4.85641, -3.51921 1.14738 4.85641, -3.52184 1.14104 4.85641, -3.52273 1.13424 4.85641, -3.52273 -1.13424 4.85641, -3.52184 -1.14104 4.85641, -3.51921 -1.14738 4.85641, -3.51503 -1.15283 4.85641, -3.50959 -1.15701 4.85641, -3.50325 -1.15963 4.85641, -3.49644 -1.16053 4.85641, 3.49644 -1.16053 4.85641, 3.50325 -1.15963 4.85641, 3.50959 -1.15701 4.85641, 3.51503 -1.15283 4.85641, 3.51921 -1.14738 4.85641, 3.52184 -1.14104 4.85641, 3.52273 -1.13424 4.85641, 3.53150 1.13424 4.86868, 3.53030 1.14331 4.86868, 3.52680 1.15176 4.86868, 3.52123 1.15902 4.86868, 3.51397 1.16459 4.86868, 3.50551 1.16810 4.86868, 3.49644 1.16929 4.86868, -3.49644 1.16929 4.86868, -3.50551 1.16810 4.86868, -3.51397 1.16459 4.86868, -3.52123 1.15902 4.86868, -3.52680 1.15176 4.86868, -3.53030 1.14331 4.86868, -3.53150 1.13424 4.86868, -3.53150 -1.13424 4.86868, -3.53030 -1.14331 4.86868, -3.52680 -1.15176 4.86868, -3.52123 -1.15902 4.86868, -3.51397 -1.16459 4.86868, -3.50551 -1.16810 4.86868, -3.49644 -1.16929 4.86868, 3.49644 -1.16929 4.86868, 3.50551 -1.16810 4.86868, 3.51397 -1.16459 4.86868, 3.52123 -1.15902 4.86868, 3.52680 -1.15176 4.86868, 3.53030 -1.14331 4.86868, 3.53150 -1.13424 4.86868, 3.53150 1.13424 4.88620, 3.53030 1.14331 4.88620, 3.52680 1.15176 4.88620, 3.52123 1.15902 4.88620, 3.51397 1.16459 4.88620, 3.50551 1.16810 4.88620, 3.49644 1.16929 4.88620, -3.49644 1.16929 4.88620, -3.50551 1.16810 4.88620, -3.51397 1.16459 4.88620, -3.52123 1.15902 4.88620, -3.52680 1.15176 4.88620, -3.53030 1.14331 4.88620, -3.53150 1.13424 4.88620, -3.53150 -1.13424 4.88620, -3.53030 -1.14331 4.88620, -3.52680 -1.15176 4.88620, -3.52123 -1.15902 4.88620, -3.51397 -1.16459 4.88620, -3.50551 -1.16810 4.88620, -3.49644 -1.16929 4.88620, 3.49644 -1.16929 4.88620, 3.50551 -1.16810 4.88620, 3.51397 -1.16459 4.88620, 3.52123 -1.15902 4.88620, 3.52680 -1.15176 4.88620, 3.53030 -1.14331 4.88620, 3.53150 -1.13424 4.88620, 3.52273 1.13424 4.89847, 3.52184 1.14104 4.89847, 3.51921 1.14738 4.89847, 3.51503 1.15283 4.89847, 3.50959 1.15701 4.89847, 3.50325 1.15963 4.89847, 3.49644 1.16053 4.89847, -3.49644 1.16053 4.89847, -3.50325 1.15963 4.89847, -3.50959 1.15701 4.89847, -3.51503 1.15283 4.89847, -3.51921 1.14738 4.89847, -3.52184 1.14104 4.89847, -3.52273 1.13424 4.89847, -3.52273 -1.13424 4.89847, -3.52184 -1.14104 4.89847, -3.51921 -1.14738 4.89847, -3.51503 -1.15283 4.89847, -3.50959 -1.15701 4.89847, -3.50325 -1.15963 4.89847, -3.49644 -1.16053 4.89847, 3.49644 -1.16053 4.89847, 3.50325 -1.15963 4.89847, 3.50959 -1.15701 4.89847, 3.51503 -1.15283 4.89847, 3.51921 -1.14738 4.89847, 3.52184 -1.14104 4.89847, 3.52273 -1.13424 4.89847, 3.50871 1.13424 4.91250, 3.50829 1.13741 4.91250, 3.50707 1.14037 4.91250, 3.50512 1.14291 4.91250, 3.50258 1.14486 4.91250, 3.49962 1.14609 4.91250, 3.49644 1.14651 4.91250, -3.49644 1.14651 4.91250, -3.49962 1.14609 4.91250, -3.50258 1.14486 4.91250, -3.50512 1.14291 4.91250, -3.50707 1.14037 4.91250, -3.50829 1.13741 4.91250, -3.50871 1.13424 4.91250, -3.50871 -1.13424 4.91250, -3.50829 -1.13741 4.91250, -3.50707 -1.14037 4.91250, -3.50512 -1.14291 4.91250, -3.50258 -1.14486 4.91250, -3.49962 -1.14609 4.91250, -3.49644 -1.14651 4.91250, 3.49644 -1.14651 4.91250, 3.49962 -1.14609 4.91250, 3.50258 -1.14486 4.91250, 3.50512 -1.14291 4.91250, 3.50707 -1.14037 4.91250, 3.50829 -1.13741 4.91250, 3.50871 -1.13424 4.91250, 3.49644 1.12833 4.92126, 3.49624 1.12986 4.92126, 3.49565 1.13128 4.92126, 3.49471 1.13251 4.92126, 3.49349 1.13345 4.92126, 3.49206 1.13403 4.92126, 3.49054 1.13424 4.92126, -3.49054 1.13424 4.92126, -3.49206 1.13403 4.92126, -3.49349 1.13345 4.92126, -3.49471 1.13251 4.92126, -3.49565 1.13128 4.92126, -3.49624 1.12986 4.92126, -3.49644 1.12833 4.92126, -3.49644 -1.12833 4.92126, -3.49624 -1.12986 4.92126, -3.49565 -1.13128 4.92126, -3.49471 -1.13251 4.92126, -3.49349 -1.13345 4.92126, -3.49206 -1.13403 4.92126, -3.49054 -1.13424 4.92126, 3.49054 -1.13424 4.92126, 3.49206 -1.13403 4.92126, 3.49349 -1.13345 4.92126, 3.49471 -1.13251 4.92126, 3.49565 -1.13128 4.92126, 3.49624 -1.12986 4.92126, 3.49644 -1.12833 4.92126 ] } coordIndex [ 0, 1, 29, 28, -1, 1, 2, 30, 29, -1, 2, 3, 31, 30, -1, 3, 4, 32, 31, -1, 4, 5, 33, 32, -1, 5, 6, 34, 33, -1, 6, 7, 35, 34, -1, 7, 8, 36, 35, -1, 8, 9, 37, 36, -1, 9, 10, 38, 37, -1, 10, 11, 39, 38, -1, 11, 12, 40, 39, -1, 12, 13, 41, 40, -1, 13, 14, 42, 41, -1, 14, 15, 43, 42, -1, 15, 16, 44, 43, -1, 16, 17, 45, 44, -1, 17, 18, 46, 45, -1, 18, 19, 47, 46, -1, 19, 20, 48, 47, -1, 20, 21, 49, 48, -1, 21, 22, 50, 49, -1, 22, 23, 51, 50, -1, 23, 24, 52, 51, -1, 24, 25, 53, 52, -1, 25, 26, 54, 53, -1, 26, 27, 55, 54, -1, 27, 0, 28, 55, -1, 28, 29, 57, 56, -1, 29, 30, 58, 57, -1, 30, 31, 59, 58, -1, 31, 32, 60, 59, -1, 32, 33, 61, 60, -1, 33, 34, 62, 61, -1, 34, 35, 63, 62, -1, 35, 36, 64, 63, -1, 36, 37, 65, 64, -1, 37, 38, 66, 65, -1, 38, 39, 67, 66, -1, 39, 40, 68, 67, -1, 40, 41, 69, 68, -1, 41, 42, 70, 69, -1, 42, 43, 71, 70, -1, 43, 44, 72, 71, -1, 44, 45, 73, 72, -1, 45, 46, 74, 73, -1, 46, 47, 75, 74, -1, 47, 48, 76, 75, -1, 48, 49, 77, 76, -1, 49, 50, 78, 77, -1, 50, 51, 79, 78, -1, 51, 52, 80, 79, -1, 52, 53, 81, 80, -1, 53, 54, 82, 81, -1, 54, 55, 83, 82, -1, 55, 28, 56, 83, -1, 56, 57, 85, 84, -1, 57, 58, 86, 85, -1, 58, 59, 87, 86, -1, 59, 60, 88, 87, -1, 60, 61, 89, 88, -1, 61, 62, 90, 89, -1, 62, 63, 91, 90, -1, 63, 64, 92, 91, -1, 64, 65, 93, 92, -1, 65, 66, 94, 93, -1, 66, 67, 95, 94, -1, 67, 68, 96, 95, -1, 68, 69, 97, 96, -1, 69, 70, 98, 97, -1, 70, 71, 99, 98, -1, 71, 72, 100, 99, -1, 72, 73, 101, 100, -1, 73, 74, 102, 101, -1, 74, 75, 103, 102, -1, 75, 76, 104, 103, -1, 76, 77, 105, 104, -1, 77, 78, 106, 105, -1, 78, 79, 107, 106, -1, 79, 80, 108, 107, -1, 80, 81, 109, 108, -1, 81, 82, 110, 109, -1, 82, 83, 111, 110, -1, 83, 56, 84, 111, -1, 84, 85, 113, 112, -1, 85, 86, 114, 113, -1, 86, 87, 115, 114, -1, 87, 88, 116, 115, -1, 88, 89, 117, 116, -1, 89, 90, 118, 117, -1, 90, 91, 119, 118, -1, 91, 92, 120, 119, -1, 92, 93, 121, 120, -1, 93, 94, 122, 121, -1, 94, 95, 123, 122, -1, 95, 96, 124, 123, -1, 96, 97, 125, 124, -1, 97, 98, 126, 125, -1, 98, 99, 127, 126, -1, 99, 100, 128, 127, -1, 100, 101, 129, 128, -1, 101, 102, 130, 129, -1, 102, 103, 131, 130, -1, 103, 104, 132, 131, -1, 104, 105, 133, 132, -1, 105, 106, 134, 133, -1, 106, 107, 135, 134, -1, 107, 108, 136, 135, -1, 108, 109, 137, 136, -1, 109, 110, 138, 137, -1, 110, 111, 139, 138, -1, 111, 84, 112, 139, -1, 112, 113, 141, 140, -1, 113, 114, 142, 141, -1, 114, 115, 143, 142, -1, 115, 116, 144, 143, -1, 116, 117, 145, 144, -1, 117, 118, 146, 145, -1, 118, 119, 147, 146, -1, 119, 120, 148, 147, -1, 120, 121, 149, 148, -1, 121, 122, 150, 149, -1, 122, 123, 151, 150, -1, 123, 124, 152, 151, -1, 124, 125, 153, 152, -1, 125, 126, 154, 153, -1, 126, 127, 155, 154, -1, 127, 128, 156, 155, -1, 128, 129, 157, 156, -1, 129, 130, 158, 157, -1, 130, 131, 159, 158, -1, 131, 132, 160, 159, -1, 132, 133, 161, 160, -1, 133, 134, 162, 161, -1, 134, 135, 163, 162, -1, 135, 136, 164, 163, -1, 136, 137, 165, 164, -1, 137, 138, 166, 165, -1, 138, 139, 167, 166, -1, 139, 112, 140, 167, -1, 140, 141, 169, 168, -1, 141, 142, 170, 169, -1, 142, 143, 171, 170, -1, 143, 144, 172, 171, -1, 144, 145, 173, 172, -1, 145, 146, 174, 173, -1, 146, 147, 175, 174, -1, 147, 148, 176, 175, -1, 148, 149, 177, 176, -1, 149, 150, 178, 177, -1, 150, 151, 179, 178, -1, 151, 152, 180, 179, -1, 152, 153, 181, 180, -1, 153, 154, 182, 181, -1, 154, 155, 183, 182, -1, 155, 156, 184, 183, -1, 156, 157, 185, 184, -1, 157, 158, 186, 185, -1, 158, 159, 187, 186, -1, 159, 160, 188, 187, -1, 160, 161, 189, 188, -1, 161, 162, 190, 189, -1, 162, 163, 191, 190, -1, 163, 164, 192, 191, -1, 164, 165, 193, 192, -1, 165, 166, 194, 193, -1, 166, 167, 195, 194, -1, 167, 140, 168, 195, -1, 168, 169, 197, 196, -1, 169, 170, 198, 197, -1, 170, 171, 199, 198, -1, 171, 172, 200, 199, -1, 172, 173, 201, 200, -1, 173, 174, 202, 201, -1, 174, 175, 203, 202, -1, 175, 176, 204, 203, -1, 176, 177, 205, 204, -1, 177, 178, 206, 205, -1, 178, 179, 207, 206, -1, 179, 180, 208, 207, -1, 180, 181, 209, 208, -1, 181, 182, 210, 209, -1, 182, 183, 211, 210, -1, 183, 184, 212, 211, -1, 184, 185, 213, 212, -1, 185, 186, 214, 213, -1, 186, 187, 215, 214, -1, 187, 188, 216, 215, -1, 188, 189, 217, 216, -1, 189, 190, 218, 217, -1, 190, 191, 219, 218, -1, 191, 192, 220, 219, -1, 192, 193, 221, 220, -1, 193, 194, 222, 221, -1, 194, 195, 223, 222, -1, 195, 168, 196, 223, -1, 27, 26, 25, 24, 23, 22, 21, 20, 19, 18, 17, 16, 15, 14, 13, 12, 11, 10, 9, 8, 7, 6, 5, 4, 3, 2, 1, 0, -1, 196, 197, 198, 199, 200, 201, 202, 203, 204, 205, 206, 207, 208, 209, 210, 211, 212, 213, 214, 215, 216, 217, 218, 219, 220, 221, 222, 223, -1 ] creaseAngle 0.6 solid TRUE } }
# tinned lead 1
Shape { appearance USE TIN geometry IndexedFaceSet { coord Coordinate { point [ -2.80512 0.00000 -1.37795, -2.81234 0.04562 -1.37795, -2.83331 0.08678 -1.37795, -2.86598 0.11944 -1.37795, -2.90713 0.14041 -1.37795, -2.95276 0.14764 -1.37795, -2.99838 0.14041 -1.37795, -3.03954 0.11944 -1.37795, -3.07220 0.08678 -1.37795, -3.09317 0.04562 -1.37795, -3.10039 0.00000 -1.37795, -3.09317 -0.04562 -1.37795, -3.07220 -0.08678 -1.37795, -3.03954 -0.11944 -1.37795, -2.99838 -0.14041 -1.37795, -2.95276 -0.14764 -1.37795, -2.90713 -0.14041 -1.37795, -2.86598 -0.11944 -1.37795, -2.83331 -0.08678 -1.37795, -2.81234 -0.04562 -1.37795, -2.80512 0.00000 0.13780, -2.81234 0.04562 0.13780, -2.83331 0.08678 0.13780, -2.86598 0.11944 0.13780, -2.90713 0.14041 0.13780, -2.95276 0.14764 0.13780, -2.99838 0.14041 0.13780, -3.03954 0.11944 0.13780, -3.07220 0.08678 0.13780, -3.09317 0.04562 0.13780, -3.10039 0.00000 0.13780, -3.09317 -0.04562 0.13780, -3.07220 -0.08678 0.13780, -3.03954 -0.11944 0.13780, -2.99838 -0.14041 0.13780, -2.95276 -0.14764 0.13780, -2.90713 -0.14041 0.13780, -2.86598 -0.11944 0.13780, -2.83331 -0.08678 0.13780, -2.81234 -0.04562 0.13780 ] } coordIndex [ 0, 1, 21, 20, -1, 1, 2, 22, 21, -1, 2, 3, 23, 22, -1, 3, 4, 24, 23, -1, 4, 5, 25, 24, -1, 5, 6, 26, 25, -1, 6, 7, 27, 26, -1, 7, 8, 28, 27, -1, 8, 9, 29, 28, -1, 9, 10, 30, 29, -1, 10, 11, 31, 30, -1, 11, 12, 32, 31, -1, 12, 13, 33, 32, -1, 13, 14, 34, 33, -1, 14, 15, 35, 34, -1, 15, 16, 36, 35, -1, 16, 17, 37, 36, -1, 17, 18, 38, 37, -1, 18, 19, 39, 38, -1, 19, 0, 20, 39, -1, 19, 18, 17, 16, 15, 14, 13, 12, 11, 10, 9, 8, 7, 6, 5, 4, 3, 2, 1, 0, -1, 20, 21, 22, 23, 24, 25, 26, 27, 28, 29, 30, 31, 32, 33, 34, 35, 36, 37, 38, 39, -1 ] creaseAngle 0.6 solid TRUE } }
# tinned lead 2
Shape { appearance USE TIN geometry IndexedFaceSet { coord Coordinate { point [ 3.10039 0.00000 -1.37795, 3.09317 0.04562 -1.37795, 3.07220 0.08678 -1.37795, 3.03954 0.11944 -1.37795, 2.99838 0.14041 -1.37795, 2.95276 0.14764 -1.37795, 2.90713 0.14041 -1.37795, 2.86598 0.11944 -1.37795, 2.83331 0.08678 -1.37795, 2.81234 0.04562 -1.37795, 2.80512 0.00000 -1.37795, 2.81234 -0.04562 -1.37795, 2.83331 -0.08678 -1.37795, 2.86598 -0.11944 -1.37795, 2.90713 -0.14041 -1.37795, 2.95276 -0.14764 -1.37795, 2.99838 -0.14041 -1.37795, 3.03954 -0.11944 -1.37795, 3.07220 -0.08678 -1.37795, 3.09317 -0.04562 -1.37795, 3.10039 0.00000 0.13780, 3.09317 0.04562 0.13780, 3.07220 0.08678 0.13780, 3.03954 0.11944 0.13780, 2.99838 0.14041 0.13780, 2.95276 0.14764 0.13780, 2.90713 0.14041 0.13780, 2.86598 0.11944 0.13780, 2.83331 0.08678 0.13780, 2.81234 0.04562 0.13780, 2.80512 0.00000 0.13780, 2.81234 -0.04562 0.13780, 2.83331 -0.08678 0.13780, 2.86598 -0.11944 0.13780, 2.90713 -0.14041 0.13780, 2.95276 -0.14764 0.13780, 2.99838 -0.14041 0.13780, 3.03954 -0.11944 0.13780, 3.07220 -0.08678 0.13780, 3.09317 -0.04562 0.13780 ] } coordIndex [ 0, 1, 21, 20, -1, 1, 2, 22, 21, -1, 2, 3, 23, 22, -1, 3, 4, 24, 23, -1, 4, 5, 25, 24, -1, 5, 6, 26, 25, -1, 6, 7, 27, 26, -1, 7, 8, 28, 27, -1, 8, 9, 29, 28, -1, 9, 10, 30, 29, -1, 10, 11, 31, 30, -1, 11, 12, 32, 31, -1, 12, 13, 33, 32, -1, 13, 14, 34, 33, -1, 14, 15, 35, 34, -1, 15, 16, 36, 35, -1, 16, 17, 37, 36, -1, 17, 18, 38, 37, -1, 18, 19, 39, 38, -1, 19, 0, 20, 39, -1, 19, 18, 17, 16, 15, 14, 13, 12, 11, 10, 9, 8, 7, 6, 5, 4, 3, 2, 1, 0, -1, 20, 21, 22, 23, 24, 25, 26, 27, 28, 29, 30, 31, 32, 33, 34, 35, 36, 37, 38, 39, -1 ] creaseAngle 0.6 solid TRUE } }
