#VRML V2.0 utf8
DEF CASE Appearance { material Material { diffuseColor 0.025 0.32 0.67 specularColor 0.12 0.18 0.24 shininess 0.42 } }
DEF LID Appearance { material Material { diffuseColor 0.035 0.37 0.72 specularColor 0.12 0.19 0.27 shininess 0.45 } }
DEF SEAM Appearance { material Material { diffuseColor 0.012 0.19 0.43 specularColor 0.06 0.10 0.15 shininess 0.24 } }
DEF TIN Appearance { material Material { diffuseColor 0.68 0.71 0.73 specularColor 0.38 0.39 0.41 shininess 0.72 } }
# moulded blue case
Shape { appearance USE CASE geometry IndexedFaceSet { coord Coordinate { point [ 4.95276 1.79724 0.00000, 4.95255 1.79877 0.00000, 4.95196 1.80020 0.00000, 4.95103 1.80142 0.00000, 4.94980 1.80236 0.00000, 4.94838 1.80295 0.00000, 4.94685 1.80315 0.00000, -4.94685 1.80315 0.00000, -4.94838 1.80295 0.00000, -4.94980 1.80236 0.00000, -4.95103 1.80142 0.00000, -4.95196 1.80020 0.00000, -4.95255 1.79877 0.00000, -4.95276 1.79724 0.00000, -4.95276 -1.79724 0.00000, -4.95255 -1.79877 0.00000, -4.95196 -1.80020 0.00000, -4.95103 -1.80142 0.00000, -4.94980 -1.80236 0.00000, -4.94838 -1.80295 0.00000, -4.94685 -1.80315 0.00000, 4.94685 -1.80315 0.00000, 4.94838 -1.80295 0.00000, 4.94980 -1.80236 0.00000, 4.95103 -1.80142 0.00000, 4.95196 -1.80020 0.00000, 4.95255 -1.79877 0.00000, 4.95276 -1.79724 0.00000, 5.01063 1.80315 0.04134, 5.00866 1.81813 0.04134, 5.00288 1.83209 0.04134, 4.99368 1.84407 0.04134, 4.98169 1.85327 0.04134, 4.96773 1.85905 0.04134, 4.95276 1.86102 0.04134, -4.95276 1.86102 0.04134, -4.96773 1.85905 0.04134, -4.98169 1.85327 0.04134, -4.99368 1.84407 0.04134, -5.00288 1.83209 0.04134, -5.00866 1.81813 0.04134, -5.01063 1.80315 0.04134, -5.01063 -1.80315 0.04134, -5.00866 -1.81813 0.04134, -5.00288 -1.83209 0.04134, -4.99368 -1.84407 0.04134, -4.98169 -1.85327 0.04134, -4.96773 -1.85905 0.04134, -4.95276 -1.86102 0.04134, 4.95276 -1.86102 0.04134, 4.96773 -1.85905 0.04134, 4.98169 -1.85327 0.04134, 4.99368 -1.84407 0.04134, 5.00288 -1.83209 0.04134, 5.00866 -1.81813 0.04134, 5.01063 -1.80315 0.04134, 5.07677 1.80315 0.10748, 5.07255 1.83525 0.10748, 5.06016 1.86516 0.10748, 5.04045 1.89084 0.10748, 5.01476 1.91055 0.10748, 4.98485 1.92294 0.10748, 4.95276 1.92717 0.10748, -4.95276 1.92717 0.10748, -4.98485 1.92294 0.10748, -5.01476 1.91055 0.10748, -5.04045 1.89084 0.10748, -5.06016 1.86516 0.10748, -5.07255 1.83525 0.10748, -5.07677 1.80315 0.10748, -5.07677 -1.80315 0.10748, -5.07255 -1.83525 0.10748, -5.06016 -1.86516 0.10748, -5.04045 -1.89084 0.10748, -5.01476 -1.91055 0.10748, -4.98485 -1.92294 0.10748, -4.95276 -1.92717 0.10748, 4.95276 -1.92717 0.10748, 4.98485 -1.92294 0.10748, 5.01476 -1.91055 0.10748, 5.04045 -1.89084 0.10748, 5.06016 -1.86516 0.10748, 5.07255 -1.83525 0.10748, 5.07677 -1.80315 0.10748, 5.11811 1.80315 0.16535, 5.11248 1.84595 0.16535, 5.09596 1.88583 0.16535, 5.06968 1.92007 0.16535, 5.03543 1.94635 0.16535, 4.99555 1.96287 0.16535, 4.95276 1.96850 0.16535, -4.95276 1.96850 0.16535, -4.99555 1.96287 0.16535, -5.03543 1.94635 0.16535, -5.06968 1.92007 0.16535, -5.09596 1.88583 0.16535, -5.11248 1.84595 0.16535, -5.11811 1.80315 0.16535, -5.11811 -1.80315 0.16535, -5.11248 -1.84595 0.16535, -5.09596 -1.88583 0.16535, -5.06968 -1.92007 0.16535, -5.03543 -1.94635 0.16535, -4.99555 -1.96287 0.16535, -4.95276 -1.96850 0.16535, 4.95276 -1.96850 0.16535, 4.99555 -1.96287 0.16535, 5.03543 -1.94635 0.16535, 5.06968 -1.92007 0.16535, 5.09596 -1.88583 0.16535, 5.11248 -1.84595 0.16535, 5.11811 -1.80315 0.16535, 5.11811 1.80315 7.46551, 5.11248 1.84595 7.46551, 5.09596 1.88583 7.46551, 5.06968 1.92007 7.46551, 5.03543 1.94635 7.46551, 4.99555 1.96287 7.46551, 4.95276 1.96850 7.46551, -4.95276 1.96850 7.46551, -4.99555 1.96287 7.46551, -5.03543 1.94635 7.46551, -5.06968 1.92007 7.46551, -5.09596 1.88583 7.46551, -5.11248 1.84595 7.46551, -5.11811 1.80315 7.46551, -5.11811 -1.80315 7.46551, -5.11248 -1.84595 7.46551, -5.09596 -1.88583 7.46551, -5.06968 -1.92007 7.46551, -5.03543 -1.94635 7.46551, -4.99555 -1.96287 7.46551, -4.95276 -1.96850 7.46551, 4.95276 -1.96850 7.46551, 4.99555 -1.96287 7.46551, 5.03543 -1.94635 7.46551, 5.06968 -1.92007 7.46551, 5.09596 -1.88583 7.46551, 5.11248 -1.84595 7.46551, 5.11811 -1.80315 7.46551, 5.07677 1.80315 7.52339, 5.07255 1.83525 7.52339, 5.06016 1.86516 7.52339, 5.04045 1.89084 7.52339, 5.01476 1.91055 7.52339, 4.98485 1.92294 7.52339, 4.95276 1.92717 7.52339, -4.95276 1.92717 7.52339, -4.98485 1.92294 7.52339, -5.01476 1.91055 7.52339, -5.04045 1.89084 7.52339, -5.06016 1.86516 7.52339, -5.07255 1.83525 7.52339, -5.07677 1.80315 7.52339, -5.07677 -1.80315 7.52339, -5.07255 -1.83525 7.52339, -5.06016 -1.86516 7.52339, -5.04045 -1.89084 7.52339, -5.01476 -1.91055 7.52339, -4.98485 -1.92294 7.52339, -4.95276 -1.92717 7.52339, 4.95276 -1.92717 7.52339, 4.98485 -1.92294 7.52339, 5.01476 -1.91055 7.52339, 5.04045 -1.89084 7.52339, 5.06016 -1.86516 7.52339, 5.07255 -1.83525 7.52339, 5.07677 -1.80315 7.52339, 5.01063 1.80315 7.58953, 5.00866 1.81813 7.58953, 5.00288 1.83209 7.58953, 4.99368 1.84407 7.58953, 4.98169 1.85327 7.58953, 4.96773 1.85905 7.58953, 4.95276 1.86102 7.58953, -4.95276 1.86102 7.58953, -4.96773 1.85905 7.58953, -4.98169 1.85327 7.58953, -4.99368 1.84407 7.58953, -5.00288 1.83209 7.58953, -5.00866 1.81813 7.58953, -5.01063 1.80315 7.58953, -5.01063 -1.80315 7.58953, -5.00866 -1.81813 7.58953, -5.00288 -1.83209 7.58953, -4.99368 -1.84407 7.58953, -4.98169 -1.85327 7.58953, -4.96773 -1.85905 7.58953, -4.95276 -1.86102 7.58953, 4.95276 -1.86102 7.58953, 4.96773 -1.85905 7.58953, 4.98169 -1.85327 7.58953, 4.99368 -1.84407 7.58953, 5.00288 -1.83209 7.58953, 5.00866 -1.81813 7.58953, 5.01063 -1.80315 7.58953, 4.95276 1.79724 7.63087, 4.95255 1.79877 7.63087, 4.95196 1.80020 7.63087, 4.95103 1.80142 7.63087, 4.94980 1.80236 7.63087, 4.94838 1.80295 7.63087, 4.94685 1.80315 7.63087, -4.94685 1.80315 7.63087, -4.94838 1.80295 7.63087, -4.94980 1.80236 7.63087, -4.95103 1.80142 7.63087, -4.95196 1.80020 7.63087, -4.95255 1.79877 7.63087, -4.95276 1.79724 7.63087, -4.95276 -1.79724 7.63087, -4.95255 -1.79877 7.63087, -4.95196 -1.80020 7.63087, -4.95103 -1.80142 7.63087, -4.94980 -1.80236 7.63087, -4.94838 -1.80295 7.63087, -4.94685 -1.80315 7.63087, 4.94685 -1.80315 7.63087, 4.94838 -1.80295 7.63087, 4.94980 -1.80236 7.63087, 4.95103 -1.80142 7.63087, 4.95196 -1.80020 7.63087, 4.95255 -1.79877 7.63087, 4.95276 -1.79724 7.63087 ] } coordIndex [ 0, 1, 29, 28, -1, 1, 2, 30, 29, -1, 2, 3, 31, 30, -1, 3, 4, 32, 31, -1, 4, 5, 33, 32, -1, 5, 6, 34, 33, -1, 6, 7, 35, 34, -1, 7, 8, 36, 35, -1, 8, 9, 37, 36, -1, 9, 10, 38, 37, -1, 10, 11, 39, 38, -1, 11, 12, 40, 39, -1, 12, 13, 41, 40, -1, 13, 14, 42, 41, -1, 14, 15, 43, 42, -1, 15, 16, 44, 43, -1, 16, 17, 45, 44, -1, 17, 18, 46, 45, -1, 18, 19, 47, 46, -1, 19, 20, 48, 47, -1, 20, 21, 49, 48, -1, 21, 22, 50, 49, -1, 22, 23, 51, 50, -1, 23, 24, 52, 51, -1, 24, 25, 53, 52, -1, 25, 26, 54, 53, -1, 26, 27, 55, 54, -1, 27, 0, 28, 55, -1, 28, 29, 57, 56, -1, 29, 30, 58, 57, -1, 30, 31, 59, 58, -1, 31, 32, 60, 59, -1, 32, 33, 61, 60, -1, 33, 34, 62, 61, -1, 34, 35, 63, 62, -1, 35, 36, 64, 63, -1, 36, 37, 65, 64, -1, 37, 38, 66, 65, -1, 38, 39, 67, 66, -1, 39, 40, 68, 67, -1, 40, 41, 69, 68, -1, 41, 42, 70, 69, -1, 42, 43, 71, 70, -1, 43, 44, 72, 71, -1, 44, 45, 73, 72, -1, 45, 46, 74, 73, -1, 46, 47, 75, 74, -1, 47, 48, 76, 75, -1, 48, 49, 77, 76, -1, 49, 50, 78, 77, -1, 50, 51, 79, 78, -1, 51, 52, 80, 79, -1, 52, 53, 81, 80, -1, 53, 54, 82, 81, -1, 54, 55, 83, 82, -1, 55, 28, 56, 83, -1, 56, 57, 85, 84, -1, 57, 58, 86, 85, -1, 58, 59, 87, 86, -1, 59, 60, 88, 87, -1, 60, 61, 89, 88, -1, 61, 62, 90, 89, -1, 62, 63, 91, 90, -1, 63, 64, 92, 91, -1, 64, 65, 93, 92, -1, 65, 66, 94, 93, -1, 66, 67, 95, 94, -1, 67, 68, 96, 95, -1, 68, 69, 97, 96, -1, 69, 70, 98, 97, -1, 70, 71, 99, 98, -1, 71, 72, 100, 99, -1, 72, 73, 101, 100, -1, 73, 74, 102, 101, -1, 74, 75, 103, 102, -1, 75, 76, 104, 103, -1, 76, 77, 105, 104, -1, 77, 78, 106, 105, -1, 78, 79, 107, 106, -1, 79, 80, 108, 107, -1, 80, 81, 109, 108, -1, 81, 82, 110, 109, -1, 82, 83, 111, 110, -1, 83, 56, 84, 111, -1, 84, 85, 113, 112, -1, 85, 86, 114, 113, -1, 86, 87, 115, 114, -1, 87, 88, 116, 115, -1, 88, 89, 117, 116, -1, 89, 90, 118, 117, -1, 90, 91, 119, 118, -1, 91, 92, 120, 119, -1, 92, 93, 121, 120, -1, 93, 94, 122, 121, -1, 94, 95, 123, 122, -1, 95, 96, 124, 123, -1, 96, 97, 125, 124, -1, 97, 98, 126, 125, -1, 98, 99, 127, 126, -1, 99, 100, 128, 127, -1, 100, 101, 129, 128, -1, 101, 102, 130, 129, -1, 102, 103, 131, 130, -1, 103, 104, 132, 131, -1, 104, 105, 133, 132, -1, 105, 106, 134, 133, -1, 106, 107, 135, 134, -1, 107, 108, 136, 135, -1, 108, 109, 137, 136, -1, 109, 110, 138, 137, -1, 110, 111, 139, 138, -1, 111, 84, 112, 139, -1, 112, 113, 141, 140, -1, 113, 114, 142, 141, -1, 114, 115, 143, 142, -1, 115, 116, 144, 143, -1, 116, 117, 145, 144, -1, 117, 118, 146, 145, -1, 118, 119, 147, 146, -1, 119, 120, 148, 147, -1, 120, 121, 149, 148, -1, 121, 122, 150, 149, -1, 122, 123, 151, 150, -1, 123, 124, 152, 151, -1, 124, 125, 153, 152, -1, 125, 126, 154, 153, -1, 126, 127, 155, 154, -1, 127, 128, 156, 155, -1, 128, 129, 157, 156, -1, 129, 130, 158, 157, -1, 130, 131, 159, 158, -1, 131, 132, 160, 159, -1, 132, 133, 161, 160, -1, 133, 134, 162, 161, -1, 134, 135, 163, 162, -1, 135, 136, 164, 163, -1, 136, 137, 165, 164, -1, 137, 138, 166, 165, -1, 138, 139, 167, 166, -1, 139, 112, 140, 167, -1, 140, 141, 169, 168, -1, 141, 142, 170, 169, -1, 142, 143, 171, 170, -1, 143, 144, 172, 171, -1, 144, 145, 173, 172, -1, 145, 146, 174, 173, -1, 146, 147, 175, 174, -1, 147, 148, 176, 175, -1, 148, 149, 177, 176, -1, 149, 150, 178, 177, -1, 150, 151, 179, 178, -1, 151, 152, 180, 179, -1, 152, 153, 181, 180, -1, 153, 154, 182, 181, -1, 154, 155, 183, 182, -1, 155, 156, 184, 183, -1, 156, 157, 185, 184, -1, 157, 158, 186, 185, -1, 158, 159, 187, 186, -1, 159, 160, 188, 187, -1, 160, 161, 189, 188, -1, 161, 162, 190, 189, -1, 162, 163, 191, 190, -1, 163, 164, 192, 191, -1, 164, 165, 193, 192, -1, 165, 166, 194, 193, -1, 166, 167, 195, 194, -1, 167, 140, 168, 195, -1, 168, 169, 197, 196, -1, 169, 170, 198, 197, -1, 170, 171, 199, 198, -1, 171, 172, 200, 199, -1, 172, 173, 201, 200, -1, 173, 174, 202, 201, -1, 174, 175, 203, 202, -1, 175, 176, 204, 203, -1, 176, 177, 205, 204, -1, 177, 178, 206, 205, -1, 178, 179, 207, 206, -1, 179, 180, 208, 207, -1, 180, 181, 209, 208, -1, 181, 182, 210, 209, -1, 182, 183, 211, 210, -1, 183, 184, 212, 211, -1, 184, 185, 213, 212, -1, 185, 186, 214, 213, -1, 186, 187, 215, 214, -1, 187, 188, 216, 215, -1, 188, 189, 217, 216, -1, 189, 190, 218, 217, -1, 190, 191, 219, 218, -1, 191, 192, 220, 219, -1, 192, 193, 221, 220, -1, 193, 194, 222, 221, -1, 194, 195, 223, 222, -1, 195, 168, 196, 223, -1, 27, 26, 25, 24, 23, 22, 21, 20, 19, 18, 17, 16, 15, 14, 13, 12, 11, 10, 9, 8, 7, 6, 5, 4, 3, 2, 1, 0, -1, 196, 197, 198, 199, 200, 201, 202, 203, 204, 205, 206, 207, 208, 209, 210, 211, 212, 213, 214, 215, 216, 217, 218, 219, 220, 221, 222, 223, -1 ] creaseAngle 0.6 solid TRUE } }
# fine lid seam
Shape { appearance USE SEAM geometry IndexedFaceSet { coord Coordinate { point [ 5.07661 1.92110 7.57134, 5.07641 1.92263 7.57134, 5.07582 1.92406 7.57134, 5.07488 1.92528 7.57134, 5.07366 1.92622 7.57134, 5.07224 1.92681 7.57134, 5.07071 1.92701 7.57134, -5.07071 1.92701 7.57134, -5.07224 1.92681 7.57134, -5.07366 1.92622 7.57134, -5.07488 1.92528 7.57134, -5.07582 1.92406 7.57134, -5.07641 1.92263 7.57134, -5.07661 1.92110 7.57134, -5.07661 -1.92110 7.57134, -5.07641 -1.92263 7.57134, -5.07582 -1.92406 7.57134, -5.07488 -1.92528 7.57134, -5.07366 -1.92622 7.57134, -5.07224 -1.92681 7.57134, -5.07071 -1.92701 7.57134, 5.07071 -1.92701 7.57134, 5.07224 -1.92681 7.57134, 5.07366 -1.92622 7.57134, 5.07488 -1.92528 7.57134, 5.07582 -1.92406 7.57134, 5.07641 -1.92263 7.57134, 5.07661 -1.92110 7.57134, 5.08356 1.92701 7.57630, 5.08332 1.92881 7.57630, 5.08263 1.93048 7.57630, 5.08152 1.93192 7.57630, 5.08009 1.93302 7.57630, 5.07841 1.93372 7.57630, 5.07661 1.93395 7.57630, -5.07661 1.93395 7.57630, -5.07841 1.93372 7.57630, -5.08009 1.93302 7.57630, -5.08152 1.93192 7.57630, -5.08263 1.93048 7.57630, -5.08332 1.92881 7.57630, -5.08356 1.92701 7.57630, -5.08356 -1.92701 7.57630, -5.08332 -1.92881 7.57630, -5.08263 -1.93048 7.57630, -5.08152 -1.93192 7.57630, -5.08009 -1.93302 7.57630, -5.07841 -1.93372 7.57630, -5.07661 -1.93395 7.57630, 5.07661 -1.93395 7.57630, 5.07841 -1.93372 7.57630, 5.08009 -1.93302 7.57630, 5.08152 -1.93192 7.57630, 5.08263 -1.93048 7.57630, 5.08332 -1.92881 7.57630, 5.08356 -1.92701 7.57630, 5.09150 1.92701 7.58424, 5.09099 1.93086 7.58424, 5.08950 1.93445 7.58424, 5.08714 1.93753 7.58424, 5.08406 1.93990 7.58424, 5.08047 1.94138 7.58424, 5.07661 1.94189 7.58424, -5.07661 1.94189 7.58424, -5.08047 1.94138 7.58424, -5.08406 1.93990 7.58424, -5.08714 1.93753 7.58424, -5.08950 1.93445 7.58424, -5.09099 1.93086 7.58424, -5.09150 1.92701 7.58424, -5.09150 -1.92701 7.58424, -5.09099 -1.93086 7.58424, -5.08950 -1.93445 7.58424, -5.08714 -1.93753 7.58424, -5.08406 -1.93990 7.58424, -5.08047 -1.94138 7.58424, -5.07661 -1.94189 7.58424, 5.07661 -1.94189 7.58424, 5.08047 -1.94138 7.58424, 5.08406 -1.93990 7.58424, 5.08714 -1.93753 7.58424, 5.08950 -1.93445 7.58424, 5.09099 -1.93086 7.58424, 5.09150 -1.92701 7.58424, 5.09646 1.92701 7.59118, 5.09578 1.93214 7.59118, 5.09380 1.93693 7.59118, 5.09064 1.94104 7.59118, 5.08654 1.94419 7.59118, 5.08175 1.94617 7.59118, 5.07661 1.94685 7.59118, -5.07661 1.94685 7.59118, -5.08175 1.94617 7.59118, -5.08654 1.94419 7.59118, -5.09064 1.94104 7.59118, -5.09380 1.93693 7.59118, -5.09578 1.93214 7.59118, -5.09646 1.92701 7.59118, -5.09646 -1.92701 7.59118, -5.09578 -1.93214 7.59118, -5.09380 -1.93693 7.59118, -5.09064 -1.94104 7.59118, -5.08654 -1.94419 7.59118, -5.08175 -1.94617 7.59118, -5.07661 -1.94685 7.59118, 5.07661 -1.94685 7.59118, 5.08175 -1.94617 7.59118, 5.08654 -1.94419 7.59118, 5.09064 -1.94104 7.59118, 5.09380 -1.93693 7.59118, 5.09578 -1.93214 7.59118, 5.09646 -1.92701 7.59118, 5.09646 1.92701 7.60110, 5.09578 1.93214 7.60110, 5.09380 1.93693 7.60110, 5.09064 1.94104 7.60110, 5.08654 1.94419 7.60110, 5.08175 1.94617 7.60110, 5.07661 1.94685 7.60110, -5.07661 1.94685 7.60110, -5.08175 1.94617 7.60110, -5.08654 1.94419 7.60110, -5.09064 1.94104 7.60110, -5.09380 1.93693 7.60110, -5.09578 1.93214 7.60110, -5.09646 1.92701 7.60110, -5.09646 -1.92701 7.60110, -5.09578 -1.93214 7.60110, -5.09380 -1.93693 7.60110, -5.09064 -1.94104 7.60110, -5.08654 -1.94419 7.60110, -5.08175 -1.94617 7.60110, -5.07661 -1.94685 7.60110, 5.07661 -1.94685 7.60110, 5.08175 -1.94617 7.60110, 5.08654 -1.94419 7.60110, 5.09064 -1.94104 7.60110, 5.09380 -1.93693 7.60110, 5.09578 -1.93214 7.60110, 5.09646 -1.92701 7.60110, 5.09150 1.92701 7.60805, 5.09099 1.93086 7.60805, 5.08950 1.93445 7.60805, 5.08714 1.93753 7.60805, 5.08406 1.93990 7.60805, 5.08047 1.94138 7.60805, 5.07661 1.94189 7.60805, -5.07661 1.94189 7.60805, -5.08047 1.94138 7.60805, -5.08406 1.93990 7.60805, -5.08714 1.93753 7.60805, -5.08950 1.93445 7.60805, -5.09099 1.93086 7.60805, -5.09150 1.92701 7.60805, -5.09150 -1.92701 7.60805, -5.09099 -1.93086 7.60805, -5.08950 -1.93445 7.60805, -5.08714 -1.93753 7.60805, -5.08406 -1.93990 7.60805, -5.08047 -1.94138 7.60805, -5.07661 -1.94189 7.60805, 5.07661 -1.94189 7.60805, 5.08047 -1.94138 7.60805, 5.08406 -1.93990 7.60805, 5.08714 -1.93753 7.60805, 5.08950 -1.93445 7.60805, 5.09099 -1.93086 7.60805, 5.09150 -1.92701 7.60805, 5.08356 1.92701 7.61598, 5.08332 1.92881 7.61598, 5.08263 1.93048 7.61598, 5.08152 1.93192 7.61598, 5.08009 1.93302 7.61598, 5.07841 1.93372 7.61598, 5.07661 1.93395 7.61598, -5.07661 1.93395 7.61598, -5.07841 1.93372 7.61598, -5.08009 1.93302 7.61598, -5.08152 1.93192 7.61598, -5.08263 1.93048 7.61598, -5.08332 1.92881 7.61598, -5.08356 1.92701 7.61598, -5.08356 -1.92701 7.61598, -5.08332 -1.92881 7.61598, -5.08263 -1.93048 7.61598, -5.08152 -1.93192 7.61598, -5.08009 -1.93302 7.61598, -5.07841 -1.93372 7.61598, -5.07661 -1.93395 7.61598, 5.07661 -1.93395 7.61598, 5.07841 -1.93372 7.61598, 5.08009 -1.93302 7.61598, 5.08152 -1.93192 7.61598, 5.08263 -1.93048 7.61598, 5.08332 -1.92881 7.61598, 5.08356 -1.92701 7.61598, 5.07661 1.92110 7.62094, 5.07641 1.92263 7.62094, 5.07582 1.92406 7.62094, 5.07488 1.92528 7.62094, 5.07366 1.92622 7.62094, 5.07224 1.92681 7.62094, 5.07071 1.92701 7.62094, -5.07071 1.92701 7.62094, -5.07224 1.92681 7.62094, -5.07366 1.92622 7.62094, -5.07488 1.92528 7.62094, -5.07582 1.92406 7.62094, -5.07641 1.92263 7.62094, -5.07661 1.92110 7.62094, -5.07661 -1.92110 7.62094, -5.07641 -1.92263 7.62094, -5.07582 -1.92406 7.62094, -5.07488 -1.92528 7.62094, -5.07366 -1.92622 7.62094, -5.07224 -1.92681 7.62094, -5.07071 -1.92701 7.62094, 5.07071 -1.92701 7.62094, 5.07224 -1.92681 7.62094, 5.07366 -1.92622 7.62094, 5.07488 -1.92528 7.62094, 5.07582 -1.92406 7.62094, 5.07641 -1.92263 7.62094, 5.07661 -1.92110 7.62094 ] } coordIndex [ 0, 1, 29, 28, -1, 1, 2, 30, 29, -1, 2, 3, 31, 30, -1, 3, 4, 32, 31, -1, 4, 5, 33, 32, -1, 5, 6, 34, 33, -1, 6, 7, 35, 34, -1, 7, 8, 36, 35, -1, 8, 9, 37, 36, -1, 9, 10, 38, 37, -1, 10, 11, 39, 38, -1, 11, 12, 40, 39, -1, 12, 13, 41, 40, -1, 13, 14, 42, 41, -1, 14, 15, 43, 42, -1, 15, 16, 44, 43, -1, 16, 17, 45, 44, -1, 17, 18, 46, 45, -1, 18, 19, 47, 46, -1, 19, 20, 48, 47, -1, 20, 21, 49, 48, -1, 21, 22, 50, 49, -1, 22, 23, 51, 50, -1, 23, 24, 52, 51, -1, 24, 25, 53, 52, -1, 25, 26, 54, 53, -1, 26, 27, 55, 54, -1, 27, 0, 28, 55, -1, 28, 29, 57, 56, -1, 29, 30, 58, 57, -1, 30, 31, 59, 58, -1, 31, 32, 60, 59, -1, 32, 33, 61, 60, -1, 33, 34, 62, 61, -1, 34, 35, 63, 62, -1, 35, 36, 64, 63, -1, 36, 37, 65, 64, -1, 37, 38, 66, 65, -1, 38, 39, 67, 66, -1, 39, 40, 68, 67, -1, 40, 41, 69, 68, -1, 41, 42, 70, 69, -1, 42, 43, 71, 70, -1, 43, 44, 72, 71, -1, 44, 45, 73, 72, -1, 45, 46, 74, 73, -1, 46, 47, 75, 74, -1, 47, 48, 76, 75, -1, 48, 49, 77, 76, -1, 49, 50, 78, 77, -1, 50, 51, 79, 78, -1, 51, 52, 80, 79, -1, 52, 53, 81, 80, -1, 53, 54, 82, 81, -1, 54, 55, 83, 82, -1, 55, 28, 56, 83, -1, 56, 57, 85, 84, -1, 57, 58, 86, 85, -1, 58, 59, 87, 86, -1, 59, 60, 88, 87, -1, 60, 61, 89, 88, -1, 61, 62, 90, 89, -1, 62, 63, 91, 90, -1, 63, 64, 92, 91, -1, 64, 65, 93, 92, -1, 65, 66, 94, 93, -1, 66, 67, 95, 94, -1, 67, 68, 96, 95, -1, 68, 69, 97, 96, -1, 69, 70, 98, 97, -1, 70, 71, 99, 98, -1, 71, 72, 100, 99, -1, 72, 73, 101, 100, -1, 73, 74, 102, 101, -1, 74, 75, 103, 102, -1, 75, 76, 104, 103, -1, 76, 77, 105, 104, -1, 77, 78, 106, 105, -1, 78, 79, 107, 106, -1, 79, 80, 108, 107, -1, 80, 81, 109, 108, -1, 81, 82, 110, 109, -1, 82, 83, 111, 110, -1, 83, 56, 84, 111, -1, 84, 85, 113, 112, -1, 85, 86, 114, 113, -1, 86, 87, 115, 114, -1, 87, 88, 116, 115, -1, 88, 89, 117, 116, -1, 89, 90, 118, 117, -1, 90, 91, 119, 118, -1, 91, 92, 120, 119, -1, 92, 93, 121, 120, -1, 93, 94, 122, 121, -1, 94, 95, 123, 122, -1, 95, 96, 124, 123, -1, 96, 97, 125, 124, -1, 97, 98, 126, 125, -1, 98, 99, 127, 126, -1, 99, 100, 128, 127, -1, 100, 101, 129, 128, -1, 101, 102, 130, 129, -1, 102, 103, 131, 130, -1, 103, 104, 132, 131, -1, 104, 105, 133, 132, -1, 105, 106, 134, 133, -1, 106, 107, 135, 134, -1, 107, 108, 136, 135, -1, 108, 109, 137, 136, -1, 109, 110, 138, 137, -1, 110, 111, 139, 138, -1, 111, 84, 112, 139, -1, 112, 113, 141, 140, -1, 113, 114, 142, 141, -1, 114, 115, 143, 142, -1, 115, 116, 144, 143, -1, 116, 117, 145, 144, -1, 117, 118, 146, 145, -1, 118, 119, 147, 146, -1, 119, 120, 148, 147, -1, 120, 121, 149, 148, -1, 121, 122, 150, 149, -1, 122, 123, 151, 150, -1, 123, 124, 152, 151, -1, 124, 125, 153, 152, -1, 125, 126, 154, 153, -1, 126, 127, 155, 154, -1, 127, 128, 156, 155, -1, 128, 129, 157, 156, -1, 129, 130, 158, 157, -1, 130, 131, 159, 158, -1, 131, 132, 160, 159, -1, 132, 133, 161, 160, -1, 133, 134, 162, 161, -1, 134, 135, 163, 162, -1, 135, 136, 164, 163, -1, 136, 137, 165, 164, -1, 137, 138, 166, 165, -1, 138, 139, 167, 166, -1, 139, 112, 140, 167, -1, 140, 141, 169, 168, -1, 141, 142, 170, 169, -1, 142, 143, 171, 170, -1, 143, 144, 172, 171, -1, 144, 145, 173, 172, -1, 145, 146, 174, 173, -1, 146, 147, 175, 174, -1, 147, 148, 176, 175, -1, 148, 149, 177, 176, -1, 149, 150, 178, 177, -1, 150, 151, 179, 178, -1, 151, 152, 180, 179, -1, 152, 153, 181, 180, -1, 153, 154, 182, 181, -1, 154, 155, 183, 182, -1, 155, 156, 184, 183, -1, 156, 157, 185, 184, -1, 157, 158, 186, 185, -1, 158, 159, 187, 186, -1, 159, 160, 188, 187, -1, 160, 161, 189, 188, -1, 161, 162, 190, 189, -1, 162, 163, 191, 190, -1, 163, 164, 192, 191, -1, 164, 165, 193, 192, -1, 165, 166, 194, 193, -1, 166, 167, 195, 194, -1, 167, 140, 168, 195, -1, 168, 169, 197, 196, -1, 169, 170, 198, 197, -1, 170, 171, 199, 198, -1, 171, 172, 200, 199, -1, 172, 173, 201, 200, -1, 173, 174, 202, 201, -1, 174, 175, 203, 202, -1, 175, 176, 204, 203, -1, 176, 177, 205, 204, -1, 177, 178, 206, 205, -1, 178, 179, 207, 206, -1, 179, 180, 208, 207, -1, 180, 181, 209, 208, -1, 181, 182, 210, 209, -1, 182, 183, 211, 210, -1, 183, 184, 212, 211, -1, 184, 185, 213, 212, -1, 185, 186, 214, 213, -1, 186, 187, 215, 214, -1, 187, 188, 216, 215, -1, 188, 189, 217, 216, -1, 189, 190, 218, 217, -1, 190, 191, 219, 218, -1, 191, 192, 220, 219, -1, 192, 193, 221, 220, -1, 193, 194, 222, 221, -1, 194, 195, 223, 222, -1, 195, 168, 196, 223, -1, 27, 26, 25, 24, 23, 22, 21, 20, 19, 18, 17, 16, 15, 14, 13, 12, 11, 10, 9, 8, 7, 6, 5, 4, 3, 2, 1, 0, -1, 196, 197, 198, 199, 200, 201, 202, 203, 204, 205, 206, 207, 208, 209, 210, 211, 212, 213, 214, 215, 216, 217, 218, 219, 220, 221, 222, 223, -1 ] creaseAngle 0.6 solid TRUE } }
# integral rounded lid
Shape { appearance USE LID geometry IndexedFaceSet { coord Coordinate { point [ 5.07124 1.91573 7.58953, 5.07104 1.91726 7.58953, 5.07045 1.91869 7.58953, 5.06951 1.91991 7.58953, 5.06829 1.92085 7.58953, 5.06687 1.92144 7.58953, 5.06534 1.92164 7.58953, -5.06534 1.92164 7.58953, -5.06687 1.92144 7.58953, -5.06829 1.92085 7.58953, -5.06951 1.91991 7.58953, -5.07045 1.91869 7.58953, -5.07104 1.91726 7.58953, -5.07124 1.91573 7.58953, -5.07124 -1.91573 7.58953, -5.07104 -1.91726 7.58953, -5.07045 -1.91869 7.58953, -5.06951 -1.91991 7.58953, -5.06829 -1.92085 7.58953, -5.06687 -1.92144 7.58953, -5.06534 -1.92164 7.58953, 5.06534 -1.92164 7.58953, 5.06687 -1.92144 7.58953, 5.06829 -1.92085 7.58953, 5.06951 -1.91991 7.58953, 5.07045 -1.91869 7.58953, 5.07104 -1.91726 7.58953, 5.07124 -1.91573 7.58953, 5.08351 1.92164 7.59829, 5.08310 1.92481 7.59829, 5.08187 1.92777 7.59829, 5.07992 1.93031 7.59829, 5.07738 1.93226 7.59829, 5.07442 1.93349 7.59829, 5.07124 1.93391 7.59829, -5.07124 1.93391 7.59829, -5.07442 1.93349 7.59829, -5.07738 1.93226 7.59829, -5.07992 1.93031 7.59829, -5.08187 1.92777 7.59829, -5.08310 1.92481 7.59829, -5.08351 1.92164 7.59829, -5.08351 -1.92164 7.59829, -5.08310 -1.92481 7.59829, -5.08187 -1.92777 7.59829, -5.07992 -1.93031 7.59829, -5.07738 -1.93226 7.59829, -5.07442 -1.93349 7.59829, -5.07124 -1.93391 7.59829, 5.07124 -1.93391 7.59829, 5.07442 -1.93349 7.59829, 5.07738 -1.93226 7.59829, 5.07992 -1.93031 7.59829, 5.08187 -1.92777 7.59829, 5.08310 -1.92481 7.59829, 5.08351 -1.92164 7.59829, 5.09754 1.92164 7.61231, 5.09664 1.92844 7.61231, 5.09401 1.93478 7.61231, 5.08983 1.94023 7.61231, 5.08439 1.94441 7.61231, 5.07805 1.94703 7.61231, 5.07124 1.94793 7.61231, -5.07124 1.94793 7.61231, -5.07805 1.94703 7.61231, -5.08439 1.94441 7.61231, -5.08983 1.94023 7.61231, -5.09401 1.93478 7.61231, -5.09664 1.92844 7.61231, -5.09754 1.92164 7.61231, -5.09754 -1.92164 7.61231, -5.09664 -1.92844 7.61231, -5.09401 -1.93478 7.61231, -5.08983 -1.94023 7.61231, -5.08439 -1.94441 7.61231, -5.07805 -1.94703 7.61231, -5.07124 -1.94793 7.61231, 5.07124 -1.94793 7.61231, 5.07805 -1.94703 7.61231, 5.08439 -1.94441 7.61231, 5.08983 -1.94023 7.61231, 5.09401 -1.93478 7.61231, 5.09664 -1.92844 7.61231, 5.09754 -1.92164 7.61231, 5.10630 1.92164 7.62458, 5.10510 1.93071 7.62458, 5.10160 1.93917 7.62458, 5.09603 1.94643 7.62458, 5.08877 1.95200 7.62458, 5.08032 1.95550 7.62458, 5.07124 1.95669 7.62458, -5.07124 1.95669 7.62458, -5.08032 1.95550 7.62458, -5.08877 1.95200 7.62458, -5.09603 1.94643 7.62458, -5.10160 1.93917 7.62458, -5.10510 1.93071 7.62458, -5.10630 1.92164 7.62458, -5.10630 -1.92164 7.62458, -5.10510 -1.93071 7.62458, -5.10160 -1.93917 7.62458, -5.09603 -1.94643 7.62458, -5.08877 -1.95200 7.62458, -5.08032 -1.95550 7.62458, -5.07124 -1.95669 7.62458, 5.07124 -1.95669 7.62458, 5.08032 -1.95550 7.62458, 5.08877 -1.95200 7.62458, 5.09603 -1.94643 7.62458, 5.10160 -1.93917 7.62458, 5.10510 -1.93071 7.62458, 5.10630 -1.92164 7.62458, 5.10630 1.92164 7.64211, 5.10510 1.93071 7.64211, 5.10160 1.93917 7.64211, 5.09603 1.94643 7.64211, 5.08877 1.95200 7.64211, 5.08032 1.95550 7.64211, 5.07124 1.95669 7.64211, -5.07124 1.95669 7.64211, -5.08032 1.95550 7.64211, -5.08877 1.95200 7.64211, -5.09603 1.94643 7.64211, -5.10160 1.93917 7.64211, -5.10510 1.93071 7.64211, -5.10630 1.92164 7.64211, -5.10630 -1.92164 7.64211, -5.10510 -1.93071 7.64211, -5.10160 -1.93917 7.64211, -5.09603 -1.94643 7.64211, -5.08877 -1.95200 7.64211, -5.08032 -1.95550 7.64211, -5.07124 -1.95669 7.64211, 5.07124 -1.95669 7.64211, 5.08032 -1.95550 7.64211, 5.08877 -1.95200 7.64211, 5.09603 -1.94643 7.64211, 5.10160 -1.93917 7.64211, 5.10510 -1.93071 7.64211, 5.10630 -1.92164 7.64211, 5.09754 1.92164 7.65438, 5.09664 1.92844 7.65438, 5.09401 1.93478 7.65438, 5.08983 1.94023 7.65438, 5.08439 1.94441 7.65438, 5.07805 1.94703 7.65438, 5.07124 1.94793 7.65438, -5.07124 1.94793 7.65438, -5.07805 1.94703 7.65438, -5.08439 1.94441 7.65438, -5.08983 1.94023 7.65438, -5.09401 1.93478 7.65438, -5.09664 1.92844 7.65438, -5.09754 1.92164 7.65438, -5.09754 -1.92164 7.65438, -5.09664 -1.92844 7.65438, -5.09401 -1.93478 7.65438, -5.08983 -1.94023 7.65438, -5.08439 -1.94441 7.65438, -5.07805 -1.94703 7.65438, -5.07124 -1.94793 7.65438, 5.07124 -1.94793 7.65438, 5.07805 -1.94703 7.65438, 5.08439 -1.94441 7.65438, 5.08983 -1.94023 7.65438, 5.09401 -1.93478 7.65438, 5.09664 -1.92844 7.65438, 5.09754 -1.92164 7.65438, 5.08351 1.92164 7.66840, 5.08310 1.92481 7.66840, 5.08187 1.92777 7.66840, 5.07992 1.93031 7.66840, 5.07738 1.93226 7.66840, 5.07442 1.93349 7.66840, 5.07124 1.93391 7.66840, -5.07124 1.93391 7.66840, -5.07442 1.93349 7.66840, -5.07738 1.93226 7.66840, -5.07992 1.93031 7.66840, -5.08187 1.92777 7.66840, -5.08310 1.92481 7.66840, -5.08351 1.92164 7.66840, -5.08351 -1.92164 7.66840, -5.08310 -1.92481 7.66840, -5.08187 -1.92777 7.66840, -5.07992 -1.93031 7.66840, -5.07738 -1.93226 7.66840, -5.07442 -1.93349 7.66840, -5.07124 -1.93391 7.66840, 5.07124 -1.93391 7.66840, 5.07442 -1.93349 7.66840, 5.07738 -1.93226 7.66840, 5.07992 -1.93031 7.66840, 5.08187 -1.92777 7.66840, 5.08310 -1.92481 7.66840, 5.08351 -1.92164 7.66840, 5.07124 1.91573 7.67717, 5.07104 1.91726 7.67717, 5.07045 1.91869 7.67717, 5.06951 1.91991 7.67717, 5.06829 1.92085 7.67717, 5.06687 1.92144 7.67717, 5.06534 1.92164 7.67717, -5.06534 1.92164 7.67717, -5.06687 1.92144 7.67717, -5.06829 1.92085 7.67717, -5.06951 1.91991 7.67717, -5.07045 1.91869 7.67717, -5.07104 1.91726 7.67717, -5.07124 1.91573 7.67717, -5.07124 -1.91573 7.67717, -5.07104 -1.91726 7.67717, -5.07045 -1.91869 7.67717, -5.06951 -1.91991 7.67717, -5.06829 -1.92085 7.67717, -5.06687 -1.92144 7.67717, -5.06534 -1.92164 7.67717, 5.06534 -1.92164 7.67717, 5.06687 -1.92144 7.67717, 5.06829 -1.92085 7.67717, 5.06951 -1.91991 7.67717, 5.07045 -1.91869 7.67717, 5.07104 -1.91726 7.67717, 5.07124 -1.91573 7.67717 ] } coordIndex [ 0, 1, 29, 28, -1, 1, 2, 30, 29, -1, 2, 3, 31, 30, -1, 3, 4, 32, 31, -1, 4, 5, 33, 32, -1, 5, 6, 34, 33, -1, 6, 7, 35, 34, -1, 7, 8, 36, 35, -1, 8, 9, 37, 36, -1, 9, 10, 38, 37, -1, 10, 11, 39, 38, -1, 11, 12, 40, 39, -1, 12, 13, 41, 40, -1, 13, 14, 42, 41, -1, 14, 15, 43, 42, -1, 15, 16, 44, 43, -1, 16, 17, 45, 44, -1, 17, 18, 46, 45, -1, 18, 19, 47, 46, -1, 19, 20, 48, 47, -1, 20, 21, 49, 48, -1, 21, 22, 50, 49, -1, 22, 23, 51, 50, -1, 23, 24, 52, 51, -1, 24, 25, 53, 52, -1, 25, 26, 54, 53, -1, 26, 27, 55, 54, -1, 27, 0, 28, 55, -1, 28, 29, 57, 56, -1, 29, 30, 58, 57, -1, 30, 31, 59, 58, -1, 31, 32, 60, 59, -1, 32, 33, 61, 60, -1, 33, 34, 62, 61, -1, 34, 35, 63, 62, -1, 35, 36, 64, 63, -1, 36, 37, 65, 64, -1, 37, 38, 66, 65, -1, 38, 39, 67, 66, -1, 39, 40, 68, 67, -1, 40, 41, 69, 68, -1, 41, 42, 70, 69, -1, 42, 43, 71, 70, -1, 43, 44, 72, 71, -1, 44, 45, 73, 72, -1, 45, 46, 74, 73, -1, 46, 47, 75, 74, -1, 47, 48, 76, 75, -1, 48, 49, 77, 76, -1, 49, 50, 78, 77, -1, 50, 51, 79, 78, -1, 51, 52, 80, 79, -1, 52, 53, 81, 80, -1, 53, 54, 82, 81, -1, 54, 55, 83, 82, -1, 55, 28, 56, 83, -1, 56, 57, 85, 84, -1, 57, 58, 86, 85, -1, 58, 59, 87, 86, -1, 59, 60, 88, 87, -1, 60, 61, 89, 88, -1, 61, 62, 90, 89, -1, 62, 63, 91, 90, -1, 63, 64, 92, 91, -1, 64, 65, 93, 92, -1, 65, 66, 94, 93, -1, 66, 67, 95, 94, -1, 67, 68, 96, 95, -1, 68, 69, 97, 96, -1, 69, 70, 98, 97, -1, 70, 71, 99, 98, -1, 71, 72, 100, 99, -1, 72, 73, 101, 100, -1, 73, 74, 102, 101, -1, 74, 75, 103, 102, -1, 75, 76, 104, 103, -1, 76, 77, 105, 104, -1, 77, 78, 106, 105, -1, 78, 79, 107, 106, -1, 79, 80, 108, 107, -1, 80, 81, 109, 108, -1, 81, 82, 110, 109, -1, 82, 83, 111, 110, -1, 83, 56, 84, 111, -1, 84, 85, 113, 112, -1, 85, 86, 114, 113, -1, 86, 87, 115, 114, -1, 87, 88, 116, 115, -1, 88, 89, 117, 116, -1, 89, 90, 118, 117, -1, 90, 91, 119, 118, -1, 91, 92, 120, 119, -1, 92, 93, 121, 120, -1, 93, 94, 122, 121, -1, 94, 95, 123, 122, -1, 95, 96, 124, 123, -1, 96, 97, 125, 124, -1, 97, 98, 126, 125, -1, 98, 99, 127, 126, -1, 99, 100, 128, 127, -1, 100, 101, 129, 128, -1, 101, 102, 130, 129, -1, 102, 103, 131, 130, -1, 103, 104, 132, 131, -1, 104, 105, 133, 132, -1, 105, 106, 134, 133, -1, 106, 107, 135, 134, -1, 107, 108, 136, 135, -1, 108, 109, 137, 136, -1, 109, 110, 138, 137, -1, 110, 111, 139, 138, -1, 111, 84, 112, 139, -1, 112, 113, 141, 140, -1, 113, 114, 142, 141, -1, 114, 115, 143, 142, -1, 115, 116, 144, 143, -1, 116, 117, 145, 144, -1, 117, 118, 146, 145, -1, 118, 119, 147, 146, -1, 119, 120, 148, 147, -1, 120, 121, 149, 148, -1, 121, 122, 150, 149, -1, 122, 123, 151, 150, -1, 123, 124, 152, 151, -1, 124, 125, 153, 152, -1, 125, 126, 154, 153, -1, 126, 127, 155, 154, -1, 127, 128, 156, 155, -1, 128, 129, 157, 156, -1, 129, 130, 158, 157, -1, 130, 131, 159, 158, -1, 131, 132, 160, 159, -1, 132, 133, 161, 160, -1, 133, 134, 162, 161, -1, 134, 135, 163, 162, -1, 135, 136, 164, 163, -1, 136, 137, 165, 164, -1, 137, 138, 166, 165, -1, 138, 139, 167, 166, -1, 139, 112, 140, 167, -1, 140, 141, 169, 168, -1, 141, 142, 170, 169, -1, 142, 143, 171, 170, -1, 143, 144, 172, 171, -1, 144, 145, 173, 172, -1, 145, 146, 174, 173, -1, 146, 147, 175, 174, -1, 147, 148, 176, 175, -1, 148, 149, 177, 176, -1, 149, 150, 178, 177, -1, 150, 151, 179, 178, -1, 151, 152, 180, 179, -1, 152, 153, 181, 180, -1, 153, 154, 182, 181, -1, 154, 155, 183, 182, -1, 155, 156, 184, 183, -1, 156, 157, 185, 184, -1, 157, 158, 186, 185, -1, 158, 159, 187, 186, -1, 159, 160, 188, 187, -1, 160, 161, 189, 188, -1, 161, 162, 190, 189, -1, 162, 163, 191, 190, -1, 163, 164, 192, 191, -1, 164, 165, 193, 192, -1, 165, 166, 194, 193, -1, 166, 167, 195, 194, -1, 167, 140, 168, 195, -1, 168, 169, 197, 196, -1, 169, 170, 198, 197, -1, 170, 171, 199, 198, -1, 171, 172, 200, 199, -1, 172, 173, 201, 200, -1, 173, 174, 202, 201, -1, 174, 175, 203, 202, -1, 175, 176, 204, 203, -1, 176, 177, 205, 204, -1, 177, 178, 206, 205, -1, 178, 179, 207, 206, -1, 179, 180, 208, 207, -1, 180, 181, 209, 208, -1, 181, 182, 210, 209, -1, 182, 183, 211, 210, -1, 183, 184, 212, 211, -1, 184, 185, 213, 212, -1, 185, 186, 214, 213, -1, 186, 187, 215, 214, -1, 187, 188, 216, 215, -1, 188, 189, 217, 216, -1, 189, 190, 218, 217, -1, 190, 191, 219, 218, -1, 191, 192, 220, 219, -1, 192, 193, 221, 220, -1, 193, 194, 222, 221, -1, 194, 195, 223, 222, -1, 195, 168, 196, 223, -1, 27, 26, 25, 24, 23, 22, 21, 20, 19, 18, 17, 16, 15, 14, 13, 12, 11, 10, 9, 8, 7, 6, 5, 4, 3, 2, 1, 0, -1, 196, 197, 198, 199, 200, 201, 202, 203, 204, 205, 206, 207, 208, 209, 210, 211, 212, 213, 214, 215, 216, 217, 218, 219, 220, 221, 222, 223, -1 ] creaseAngle 0.6 solid TRUE } }
# tinned lead 1
Shape { appearance USE TIN geometry IndexedFaceSet { coord Coordinate { point [ -4.25197 0.00000 -1.37795, -4.26064 0.05475 -1.37795, -4.28580 0.10414 -1.37795, -4.32500 0.14333 -1.37795, -4.37439 0.16849 -1.37795, -4.42913 0.17717 -1.37795, -4.48388 0.16849 -1.37795, -4.53327 0.14333 -1.37795, -4.57246 0.10414 -1.37795, -4.59763 0.05475 -1.37795, -4.60630 0.00000 -1.37795, -4.59763 -0.05475 -1.37795, -4.57246 -0.10414 -1.37795, -4.53327 -0.14333 -1.37795, -4.48388 -0.16849 -1.37795, -4.42913 -0.17717 -1.37795, -4.37439 -0.16849 -1.37795, -4.32500 -0.14333 -1.37795, -4.28580 -0.10414 -1.37795, -4.26064 -0.05475 -1.37795, -4.25197 0.00000 0.13780, -4.26064 0.05475 0.13780, -4.28580 0.10414 0.13780, -4.32500 0.14333 0.13780, -4.37439 0.16849 0.13780, -4.42913 0.17717 0.13780, -4.48388 0.16849 0.13780, -4.53327 0.14333 0.13780, -4.57246 0.10414 0.13780, -4.59763 0.05475 0.13780, -4.60630 0.00000 0.13780, -4.59763 -0.05475 0.13780, -4.57246 -0.10414 0.13780, -4.53327 -0.14333 0.13780, -4.48388 -0.16849 0.13780, -4.42913 -0.17717 0.13780, -4.37439 -0.16849 0.13780, -4.32500 -0.14333 0.13780, -4.28580 -0.10414 0.13780, -4.26064 -0.05475 0.13780 ] } coordIndex [ 0, 1, 21, 20, -1, 1, 2, 22, 21, -1, 2, 3, 23, 22, -1, 3, 4, 24, 23, -1, 4, 5, 25, 24, -1, 5, 6, 26, 25, -1, 6, 7, 27, 26, -1, 7, 8, 28, 27, -1, 8, 9, 29, 28, -1, 9, 10, 30, 29, -1, 10, 11, 31, 30, -1, 11, 12, 32, 31, -1, 12, 13, 33, 32, -1, 13, 14, 34, 33, -1, 14, 15, 35, 34, -1, 15, 16, 36, 35, -1, 16, 17, 37, 36, -1, 17, 18, 38, 37, -1, 18, 19, 39, 38, -1, 19, 0, 20, 39, -1, 19, 18, 17, 16, 15, 14, 13, 12, 11, 10, 9, 8, 7, 6, 5, 4, 3, 2, 1, 0, -1, 20, 21, 22, 23, 24, 25, 26, 27, 28, 29, 30, 31, 32, 33, 34, 35, 36, 37, 38, 39, -1 ] creaseAngle 0.6 solid TRUE } }
# tinned lead 2
Shape { appearance USE TIN geometry IndexedFaceSet { coord Coordinate { point [ 4.60630 0.00000 -1.37795, 4.59763 0.05475 -1.37795, 4.57246 0.10414 -1.37795, 4.53327 0.14333 -1.37795, 4.48388 0.16849 -1.37795, 4.42913 0.17717 -1.37795, 4.37439 0.16849 -1.37795, 4.32500 0.14333 -1.37795, 4.28580 0.10414 -1.37795, 4.26064 0.05475 -1.37795, 4.25197 0.00000 -1.37795, 4.26064 -0.05475 -1.37795, 4.28580 -0.10414 -1.37795, 4.32500 -0.14333 -1.37795, 4.37439 -0.16849 -1.37795, 4.42913 -0.17717 -1.37795, 4.48388 -0.16849 -1.37795, 4.53327 -0.14333 -1.37795, 4.57246 -0.10414 -1.37795, 4.59763 -0.05475 -1.37795, 4.60630 0.00000 0.13780, 4.59763 0.05475 0.13780, 4.57246 0.10414 0.13780, 4.53327 0.14333 0.13780, 4.48388 0.16849 0.13780, 4.42913 0.17717 0.13780, 4.37439 0.16849 0.13780, 4.32500 0.14333 0.13780, 4.28580 0.10414 0.13780, 4.26064 0.05475 0.13780, 4.25197 0.00000 0.13780, 4.26064 -0.05475 0.13780, 4.28580 -0.10414 0.13780, 4.32500 -0.14333 0.13780, 4.37439 -0.16849 0.13780, 4.42913 -0.17717 0.13780, 4.48388 -0.16849 0.13780, 4.53327 -0.14333 0.13780, 4.57246 -0.10414 0.13780, 4.59763 -0.05475 0.13780 ] } coordIndex [ 0, 1, 21, 20, -1, 1, 2, 22, 21, -1, 2, 3, 23, 22, -1, 3, 4, 24, 23, -1, 4, 5, 25, 24, -1, 5, 6, 26, 25, -1, 6, 7, 27, 26, -1, 7, 8, 28, 27, -1, 8, 9, 29, 28, -1, 9, 10, 30, 29, -1, 10, 11, 31, 30, -1, 11, 12, 32, 31, -1, 12, 13, 33, 32, -1, 13, 14, 34, 33, -1, 14, 15, 35, 34, -1, 15, 16, 36, 35, -1, 16, 17, 37, 36, -1, 17, 18, 38, 37, -1, 18, 19, 39, 38, -1, 19, 0, 20, 39, -1, 19, 18, 17, 16, 15, 14, 13, 12, 11, 10, 9, 8, 7, 6, 5, 4, 3, 2, 1, 0, -1, 20, 21, 22, 23, 24, 25, 26, 27, 28, 29, 30, 31, 32, 33, 34, 35, 36, 37, 38, 39, -1 ] creaseAngle 0.6 solid TRUE } }
